<?xml version="1.0" encoding="utf-8"?>
<!-- Generator: Adobe Illustrator 27.4.0, SVG Export Plug-In . SVG Version: 6.00 Build 0)  -->
<svg version="1.1" id="레이어_1" xmlns="http://www.w3.org/2000/svg" xmlns:xlink="http://www.w3.org/1999/xlink" x="0px"
	 y="0px" viewBox="0 0 1400 1200" style="enable-background:new 0 0 1400 1200;" xml:space="preserve">
<style type="text/css">
	.st0{clip-path:url(#SVGID_00000139269591788871917580000007882064195526444462_);}
	.st1{fill:#FFC799;}
	.st2{clip-path:url(#SVGID_00000139269591788871917580000007882064195526444462_);fill:#FFC799;}
	
		.st3{clip-path:url(#SVGID_00000139269591788871917580000007882064195526444462_);fill:none;stroke:#FFB499;stroke-width:3;stroke-linecap:round;stroke-linejoin:round;stroke-miterlimit:10;}
	.st4{clip-path:url(#SVGID_00000172429131887718920510000008477842267071992739_);fill:none;stroke:#000000;stroke-miterlimit:10;}
	.st5{clip-path:url(#SVGID_00000172429131887718920510000008477842267071992739_);fill:#FEE29A;}
	
		.st6{clip-path:url(#SVGID_00000172429131887718920510000008477842267071992739_);fill:none;stroke:#FFD261;stroke-width:15;stroke-linecap:round;stroke-linejoin:round;stroke-miterlimit:10;}
	
		.st7{clip-path:url(#SVGID_00000172429131887718920510000008477842267071992739_);fill:none;stroke:#FFD468;stroke-width:15;stroke-linecap:round;stroke-linejoin:round;stroke-miterlimit:10;}
	.st8{clip-path:url(#SVGID_00000172429131887718920510000008477842267071992739_);fill:#C8EBFC;}
	.st9{fill:#6C804B;}
	.st10{fill:#ABB869;}
	.st11{fill:none;stroke:#808A4E;stroke-width:3;stroke-linecap:round;stroke-linejoin:round;stroke-miterlimit:10;}
	.st12{fill:none;stroke:#9ABA66;stroke-width:3;stroke-linecap:round;stroke-linejoin:round;stroke-miterlimit:10;}
	.st13{fill:#D9E529;}
	.st14{fill:none;stroke:#BBDB1A;stroke-width:3;stroke-linecap:round;stroke-linejoin:round;stroke-miterlimit:10;}
	.st15{fill:none;stroke:#6C804B;stroke-width:7;stroke-linecap:round;stroke-linejoin:round;stroke-miterlimit:10;}
	.st16{fill:none;stroke:#ABB869;stroke-width:7;stroke-linecap:round;stroke-linejoin:round;stroke-miterlimit:10;}
	.st17{fill:none;stroke:#A5B265;stroke-width:3;stroke-linecap:round;stroke-linejoin:round;stroke-miterlimit:10;}
	.st18{fill:none;stroke:#FFB499;stroke-width:3;stroke-linecap:round;stroke-miterlimit:10;}
	.st19{fill:#FFC300;}
	.st20{fill:none;stroke:#FFA600;stroke-width:5;stroke-linecap:round;stroke-linejoin:round;stroke-miterlimit:10;}
	.st21{fill:none;stroke:#98E529;stroke-width:3;stroke-linecap:round;stroke-linejoin:round;stroke-miterlimit:10;}
	.st22{fill:none;stroke:#FFB499;stroke-width:5;stroke-linecap:round;stroke-linejoin:round;stroke-miterlimit:10;}
	.st23{fill:#463C33;}
</style>
<g>
	<defs>
		<rect id="SVGID_1_" x="-8" y="73" width="1407.85" height="1126.62"/>
	</defs>
	<clipPath id="SVGID_00000059279680399605050090000007160813002087211920_">
		<use xlink:href="#SVGID_1_"  style="overflow:visible;"/>
	</clipPath>
	<g style="clip-path:url(#SVGID_00000059279680399605050090000007160813002087211920_);">
		<path class="st1" d="M147.22,310.84c27.09,27.83-13.97,42.57-6.13,2.2c-7.83,40.37-39.68,7.64-4.76-4.89
			c-34.92,12.53-25.71-34.92,1.38-7.09c-27.09-27.83,13.97-42.57,6.13-2.2c7.83-40.37,39.68-7.64,4.76,4.89
			C183.52,291.22,174.31,338.68,147.22,310.84z"/>
	</g>
	<path style="clip-path:url(#SVGID_00000059279680399605050090000007160813002087211920_);fill:#FFC799;" d="M564.44,230.29
		c-11.86,8.46-29.32,1.34-29.32,1.34s1.77-20.84,13.63-29.3c11.86-8.46,24.98-9.06,29.32-1.34S576.29,221.83,564.44,230.29z"/>
	<path style="clip-path:url(#SVGID_00000059279680399605050090000007160813002087211920_);fill:#FFC799;" d="M555.86,185.17
		c-4.68,9.14-17.92,10.4-17.92,10.4s-5.65-13.56-0.97-22.7c4.68-9.14,12.7-13.8,17.92-10.4S560.54,176.03,555.86,185.17z"/>
	<path style="clip-path:url(#SVGID_00000059279680399605050090000007160813002087211920_);fill:#FFC799;" d="M187.11,299.47
		c-4.68,3.23-12.08-0.81-12.08-0.81s0.18-9.27,4.85-12.5c4.68-3.23,10.08-2.86,12.08,0.81
		C193.96,290.64,191.78,296.24,187.11,299.47z"/>
	
		<path style="clip-path:url(#SVGID_00000059279680399605050090000007160813002087211920_);fill:none;stroke:#FFB499;stroke-width:3;stroke-linecap:round;stroke-linejoin:round;stroke-miterlimit:10;" d="
		M538.46,193.27c0.7-8.89,4.89-17.36,11.22-22.72"/>
	
		<path style="clip-path:url(#SVGID_00000059279680399605050090000007160813002087211920_);fill:none;stroke:#FFB499;stroke-width:3;stroke-linecap:round;stroke-linejoin:round;stroke-miterlimit:10;" d="
		M536.44,230.12c8.61-9.15,19.29-15.8,30.74-19.16"/>
	
		<path style="clip-path:url(#SVGID_00000059279680399605050090000007160813002087211920_);fill:none;stroke:#FFB499;stroke-width:3;stroke-linecap:round;stroke-linejoin:round;stroke-miterlimit:10;" d="
		M135.32,280.67c0.99,9.44,3.25,18.72,6.96,27.94c3.88-7.97,9.59-14.79,16.42-19.61"/>
	
		<path style="clip-path:url(#SVGID_00000059279680399605050090000007160813002087211920_);fill:none;stroke:#FFB499;stroke-width:3;stroke-linecap:round;stroke-linejoin:round;stroke-miterlimit:10;" d="
		M162.78,313.33c-6.2-3.77-13.41-5.37-20.77-5c3.18,6.75,4.83,14.41,4.74,22.05"/>
	
		<path style="clip-path:url(#SVGID_00000059279680399605050090000007160813002087211920_);fill:none;stroke:#FFB499;stroke-width:3;stroke-linecap:round;stroke-linejoin:round;stroke-miterlimit:10;" d="
		M124.94,327.11c4.03-7.9,10.03-14.51,17.19-18.32c-5.71-6.52-13.95-10.12-22.07-9.64"/>
	
		<path style="clip-path:url(#SVGID_00000059279680399605050090000007160813002087211920_);fill:none;stroke:#FFB499;stroke-width:3;stroke-linecap:round;stroke-linejoin:round;stroke-miterlimit:10;" d="
		M175.8,298.08c1.52-3.79,4.34-6.9,7.73-8.55"/>
	<g style="clip-path:url(#SVGID_00000059279680399605050090000007160813002087211920_);">
		<defs>
			<path id="SVGID_00000160873961944629293320000014517671049202703498_" d="M448.3,946.23c0.6-0.14,1.16-0.44,1.7-0.75
				c0.73-0.42,1.51-0.76,2.3-1.03c1.31-0.45,2.66-0.76,4.02-0.98c0.29-0.05,0.58-0.09,0.88-0.13c0.81-0.1,1.63-0.17,2.44-0.2
				c0.82-0.03,1.65-0.02,2.47,0.01c0.83,0.04,1.66,0.11,2.48,0.21c0.83,0.1,1.66,0.23,2.49,0.39c0.83,0.16,1.66,0.35,2.48,0.57
				c0.83,0.22,1.65,0.46,2.46,0.72c0.82,0.27,1.63,0.56,2.43,0.87c0.8,0.31,1.6,0.64,2.39,1c0.79,0.35,1.57,0.72,2.34,1.12
				c0.77,0.39,1.53,0.8,2.28,1.22c0.26,0.15,0.52,0.3,0.78,0.45c0.13,0.08,0.26,0.15,0.39,0.23c0.06,0.04,0.12,0.07,0.19,0.11
				c0.04,0.03,0.14,0.11,0.19,0.11c10.78,6.53,20.1,15.78,31.29,21.43c16.65,8.39,36.62,7.88,53.35-0.3
				c16.73-8.18,30.15-23.67,37.7-41.9c6.76-7.21,13.55-14.2,22.12-16.53c6.7-1.82,13.72-0.56,20.58,0.28
				c6.86,0.85,14.14,1.21,20.31-2.16c7.94-4.33,12.34-14.01,13.84-23.55s0.65-19.32,1.01-28.99c0.53-14.21,3.73-28.29,9.33-41.13
				c3.73-9.91,11.92-16.4,17.19-25.03c3.97-6.51,6.21-14.18,6.93-21.96c0.72-7.78-0.05-15.67-1.75-23.27
				c-2.33-4.53-4.45-8.53-6.57-12.54c-1.56-2.95-3.14-5.94-4.04-9.2c-1.6-5.81-0.88-12.33,1.94-17.56
				c2.82-5.23,7.7-9.08,13.13-10.37c5.91-1.4,12.11,0.13,18.08-0.9c17.77,0.72,35.5-0.82,52.78-4.7c5.78-1.29,11.79-3.01,16.09-7.41
				c5.76-5.89,7.47-15.6,13.71-20.88c4.87-4.12,11.5-4.65,17.65-4.29c13.44,0.79,26.69,5.1,38.33,12.47
				c9.73,5.86,17.77,14.83,23.31,25.38c3.92,7.48,6.57,15.66,9.92,23.47c3.34,7.81,7.54,15.45,13.78,20.73
				c5.45,4.61,12.73,7.2,19.37,5.18s12-9.46,10.8-16.87c-0.93-5.75-5.24-10.07-9.53-13.57s-8.99-6.87-11.43-12.07
				c-2.92-6.21-1.9-13.99,1.31-20.02s8.34-10.57,13.72-14.36c6.53-4.61,13.64-8.35,19.48-13.96c4.34-4.17,7.9-9.3,10.39-15
				c6.19-5.9,6.78-15.4,5.78-23.75s-3.18-16.78-1.68-25.04c2.12-11.64,12.27-20.93,23.15-21.15c4.15-0.09,8.27,0.99,12.41,0.83
				c4.14-0.17,8.65-1.99,10.44-6.08c2.67-6.1-1.93-12.82-3.26-19.42c-1.66-8.25,2.17-16.93,7.95-22.55s13.24-8.68,20.64-11.17
				c7.79-2.62,15.82-4.74,23.97-4.67s16.49,2.49,22.79,8.13c4.71,4.22,8.21,10.13,13.63,13.18c11.71,6.61,26.43-2.85,38.96,1.59
				c7.28,2.58,12.97,9.61,20.54,10.83c6.34,1.02,12.49-2.26,18.4-4.94c5.91-2.68,12.83-4.79,18.53-1.62
				c6.39,1.9,12.73,0.48,18.37-1.91c5.64-2.39,10.95-5.74,16.75-7.63c5.8-1.89,12.45-2.15,17.55,1.4c3.79,2.64,6.23,6.99,9.14,10.72
				c7.79,9.99,19.78,15.9,31.8,15.67c6.82,1.83,11.27,8.4,12.63,15.26c1.36,6.86,0.2,13.99-1.18,20.85s-3,13.79-2.56,20.79
				c0.88,13.93,9.84,26.99,7.45,40.71c-1.88,10.78-10.54,19.56-10.59,30.53c-0.06,11.98,10.21,20.98,20.43,25.34
				c10.22,4.36,21.59,6.19,30.45,13.27c7.46,5.96,12.46,15.45,13.42,25.48s-2.13,20.45-8.29,27.96
				c-4.47,5.45-10.99,11.07-9.57,18.21c1.96,9.8,16.14,9.64,20.83,18.26c6.54,7.84,12.64,16.68,12.3,26.78
				c-0.29,8.69-5.34,16.38-6.59,24.97c-1.29,8.88,1.57,17.75,3.62,26.46c2.05,8.7,3.18,18.52-1.1,26.2
				c-3.56,6.39-10.14,9.93-14.89,15.33c-6.38,7.24-9.18,18.03-7.23,27.84c-12.7,8.33-19.58,19.96-20.47,32.28
				s4.24,24.98,13.19,32.56c10.17,8.6,24.13,10.31,36.78,7.75c12.65-2.56,24.35-8.92,35.85-15.2c3.1,54.34,4.59,108.76,6.09,163.19
				c0.82,30,1.52,60.91-8.18,89c-336.41-8.51-667.78-23.48-998.5-48.49c5.77-16.8,9.33-37.22,2.24-54.31
				c-7.1-17.08-27.31-27.98-42.52-19.25c-8.4,4.83-13.67,14.17-20.6,21.25c-6.93,7.08-18.07,11.83-25.67,5.62
				c-11.89-9.72-1.99-33.23-11.92-45.29c-7.79-9.45-21.67-5.55-33.17-3.47c-13.76,2.49-28.95,0.75-39.77-8.85
				c-10.83-9.6-15.22-28.45-6.84-40.62c3.89-5.65,9.81-9.18,14.4-14.18c9.59-10.45,12.42-26.07,19.54-38.66
				c9.89-17.48,27.22-27.86,42.73-39.5c15.51-11.63,30.88-27.27,32.81-47.71c0.82-8.66-0.91-17.37-0.89-26.08
				c0.02-8.71,2.31-18.25,9.01-23.17c3.85-2.27,8.51-2.46,12.76-1.34c4.25,1.12,8.15,3.45,11.82,6.03
				c17.29,12.14,30.49,29.93,43.49,47.32c1.66,2.21,3.34,4.49,5.39,6.28c0.5,0.44,1.02,0.84,1.56,1.2c1.31,0.87,2.74,1.48,4.16,2.09
				c0.73,0.31,1.48,0.63,2.26,0.61C447.88,946.3,448.09,946.27,448.3,946.23z"/>
		</defs>
		<clipPath id="SVGID_00000161593304937682921650000006249527799186181780_">
			<use xlink:href="#SVGID_00000160873961944629293320000014517671049202703498_"  style="overflow:visible;"/>
		</clipPath>
		
			<path style="clip-path:url(#SVGID_00000161593304937682921650000006249527799186181780_);fill:none;stroke:#000000;stroke-miterlimit:10;" d="
			M587.38,837.47"/>
		<path style="clip-path:url(#SVGID_00000161593304937682921650000006249527799186181780_);fill:#FEE29A;" d="M374.09,877.41
			c-9.57-4.22-19.55,6.99-21.05,17.96c-1.5,10.97,1.83,22.13,0.94,33.18c-1.85,22.83-20.58,39.31-38.15,52.36
			c-17.58,13.05-37.01,27.67-41.62,50.04c-1.19,5.79-1.44,12.2-4.97,16.77c-3.85,4.98-10.4,6.22-15.64,9.41
			c-10.47,6.37-15.1,21.08-12.17,33.6c2.93,12.52,12.33,22.57,23.32,27.83s23.43,6.2,35.42,5.05c6.52-0.63,13.19-1.83,19.53-0.07
			c6.34,1.76,12.3,7.59,11.96,14.59c-0.25,5.16-3.73,9.49-4.8,14.52c-2.48,11.65,9.49,22.19,20.64,21.77
			c11.15-0.42,20.8-8.1,29.29-15.85c10.24-9.34,23.7-19.94,35.77-13.57c9.35,4.94,12.16,17.53,13.92,28.54
			c1.16,7.23,2.31,14.65,1.05,21.86c-2.77,15.88-16.66,27.81-18.48,43.85c-1.31,11.56,3.95,23.58,0.71,34.7
			c-3.51,12.05-15.39,18.37-25.32,25.15c-9.94,6.79-19.83,18.56-16.09,30.53c2.01,6.42,7.43,10.75,11.8,15.63
			c4.38,4.88,8.05,12,7.58,24.53c-14.85,6.12-22.74,26.73-16.18,42.26c6.57,15.53,26.23,22.77,40.32,14.84
			c11.22-6.32,21.13-20.83,33.14-16.5c5,1.8,8.45,6.57,12.57,10.09c12.4,10.59,30.95,9.24,44.84,1.06
			c13.9-8.18,24.1-21.91,33.52-35.57c9.42-13.66,18.7-27.9,31.58-37.81c5.39-4.15,13.71-7.09,17.99-1.65
			c3.32,4.22,1.66,10.82-1.42,15.25c-3.08,4.43-7.37,7.9-9.72,12.82c-5.93,12.42,3.04,27.11,13.05,36.02
			c10.02,8.91,22.34,16.92,25.89,30.34c2.57,9.74-0.16,20.49,2.81,30.1c4.33,14.01,18.97,20.95,26.9,33.02
			c8.21,12.51,8.32,28.87,10.11,44.04c1.79,15.17,7.11,32.06,20.27,37.97c13.22,5.94,28.01-1.82,40.49-9.37
			c17.16-10.39,34.77-21.19,46.94-37.79c4.04-5.52,8.91-12.35,15.38-11.3c5.07,0.82,8.27,6.38,9.49,11.71
			c1.21,5.33,1.17,11.03,3.2,16.07c4.11,10.26,15.89,14.92,26.25,13.61c10.35-1.31,19.62-7.23,28.85-16.24
			c21.09,0.7,43.62,1.01,61.44-11.1c11.63-7.9,19.88-20.23,29.59-30.68c13.72-14.77,30.44-25.84,46.99-36.78
			c9.33-6.16,20.3-12.57,30.68-8.81c9.85,3.56,15.5,15.18,25.14,19.33c11.47,4.94,24.01-2.06,35.57-6.74
			c11.57-4.68,27.64-5.35,33.21,6.48c6.47,13.73-7.87,29.39-5.82,44.61c2.38,17.69,23.9,23.63,33.32,38.39
			c6.49,10.18,6.87,24.21,14.8,33.14c11.36,12.78,30.94,8.35,46.62,2.97c26.72-9.16,56.01-20.54,69.17-47.08
			c4.4-8.88,7.26-19.72,15.47-24.59c8.48-5.03,19.8-1.69,28.05-7.14c13.76-9.11,8.1-33.27,18.19-46.81
			c6.12-8.22,16.81-10.71,26.63-10.73c9.81-0.02,19.71,1.87,29.39,0.09c9.67-1.78,19.54-8.57,23.56-18.67
			c-1.71-9,5.7-17.19,13.51-20.99c7.81-3.8,16.69-5.21,23.7-10.5c5.02-3.79,8.68-9.29,13.28-13.66
			c9.53-9.06,22.37-12.69,34.17-17.85c20.21-8.84,38.4-22.95,52.56-40.76c7.91-9.95,14.67-21.28,17.58-33.98
			c2.91-12.69,1.57-26.9-5.52-37.54c-10.78-16.18-31.65-20.69-44.8-34.73c-2.7-2.89-5.21-6.28-8.79-7.71
			c-3.58-1.43-8.61,0.33-10.14,4.59c0.23,1.98,0.46,4.05-0.19,5.92s-2.47,3.44-4.28,2.98c-2-0.5-2.92-3.11-2.71-5.3
			c0.22-2.19,1.2-4.21,1.59-6.38c1.6-8.91-7-16.65-6.99-25.73c0.01-6.07,3.84-11.24,7.2-16.12c8.25-11.97,14.77-25.31,19.26-39.39
			c2.53-7.94,4.53-16.32,9.34-22.94c9.14-12.57,25.65-15.34,40.51-15.89c8.76-0.32,17.95-0.32,25.62-4.85
			c7.67-4.53,12.89-15.45,9.33-23.14c-5.25-7.88-4.84-18.56-2.89-28.02c1.94-9.46,5.21-18.79,4.94-28.47
			c-0.56-19.95-15.87-36.61-17.24-56.52c-0.55-7.96,1.03-16.69-3.01-23.39c-4.86-8.06-15.62-9.16-24.31-6.83
			c-25.97,6.98-43.14,35.24-68.91,43.01c-10.8,3.25-22.48,2.66-32.95,6.95c-15.6,6.39-26.11,22.52-41.25,30.08
			c-15.92,7.95-36.14,4.71-49.25-7.95c-9.88-7.17-13.19-22.95-7.14-33.96c4.86-8.83,14.63-14.51,16.95-24.46
			c1.4-5.99-0.13-12.9,3.08-18.01c3.09-4.92,9.27-6.11,13.91-9.35c6.82-4.77,9.97-13.95,10.18-22.67
			c0.21-8.72-2.04-17.26-3.83-25.78c-1.79-8.51-3.13-17.44-1.11-25.9c1.69-7.08,5.68-13.53,6.17-20.82
			c0.83-12.46-8.93-23.13-19.6-28.14c-4.17-1.96-8.69-3.42-12.07-6.7c-3.38-3.27-5.16-9.16-3.63-14.89
			c11.62-7.44,18.88-22.09,18.11-36.58s-9.54-28.16-21.88-34.13c-7.99-3.87-16.97-4.6-25.28-7.57c-8.31-2.97-16.63-9.32-17.92-18.61
			c-1.67-11.99,8.79-22.03,10.71-33.98c2.35-14.72-8.56-28.41-8.82-43.34c-0.24-13.85,8.72-27.39,5.23-40.73
			c-2.02-7.72-8-13.67-14.73-17.18c-6.73-3.51-14.21-4.91-19.74-6.19c-5.62,0.17-10.07-4.98-13.07-10.08
			c-2.99-5.1-5.69-10.92-10.69-13.67c-5.4-2.96-12.02-1.45-17.53,1.26c-5.51,2.71-10.58,6.55-16.4,8.38
			c-11.49,3.61-24.4-1.08-35.58,3.54c-4.64,1.92-9.13,5.43-14.05,4.65c-3.37-0.54-6.13-3.03-8.98-5.04
			c-7.92-5.62-17.76-8.04-27.11-6.37c-7.69-1.41-15.58,5.18-22.97,2.5c-5.89-2.14-8.67-9.14-12.86-14.06
			c-5.71-6.71-14.47-9.7-22.95-9.93c-8.48-0.23-16.83,1.99-25.04,4.24c-7.94,2.18-16.07,4.49-22.78,9.54
			c-6.71,5.05-11.81,13.49-10.91,22.23c0.43,4.19,2.17,8.09,3.04,12.2c0.87,4.11,0.69,8.92-2.12,11.88
			c-3.07,3.24-7.95,3.03-12.26,3.03c-9.02,0-18.46,2.07-25.32,8.34c-6.86,6.27-10.27,17.5-5.84,27.04
			c3.88,14.67,0.39,31.4-9.15,42.71c-5.69,6.74-13.13,11.42-20.24,16.37c-7.11,4.96-14.18,10.51-18.53,18.32s-5.34,18.39-0.32,25.71
			c5.78,8.43,18.29,11.49,20.28,21.74c1.71,8.85-7.08,17.07-15.5,16.57c-8.42-0.5-15.5-7.28-19.84-15.03s-6.62-16.59-10.09-24.83
			c-10.52-25-32.67-44-57.74-49.52c-6.95-1.53-14.24-2.06-21.09-0.05c-6.84,2.01-13.2,6.85-16.06,13.81
			c-1.51,3.66-2.04,7.81-4.16,11.11c-3.28,5.13-9.46,6.94-15.15,8.18c-17.17,3.73-34.7,5.59-52.22,5.54
			c-7.91-0.02-16.02-0.4-23.52,2.28s-14.41,9.29-15.13,17.73c-0.71,8.36,4.53,15.74,8.03,23.25c7.96,17.05,7.05,38.49-2.89,55.6
			c-15.85,17.49-25.18,41.57-25.57,65.95c-0.14,8.86,0.85,17.76-0.23,26.55c-1.08,8.78-4.65,17.79-11.69,22.44
			c-12.37,8.16-28.74-0.32-42.83,3.46c-15.09,4.05-23.59,20.51-32.87,33.9c-8.11,11.71-18.24,22.16-30.59,28.29
			c-12.35,6.13-27.12,7.55-39.59,1.69c-10.68-5.01-18.74-14.69-28.37-21.75c-9.1-6.67-19.68-11-32.02-12.42
			c-11.11,4.1-23.51-1.77-32.16-10.3c-8.65-8.53-14.8-19.54-22.75-28.82C399.07,891.55,386.96,883.08,374.09,877.41z"/>
		
			<path style="clip-path:url(#SVGID_00000161593304937682921650000006249527799186181780_);fill:none;stroke:#FFD261;stroke-width:15;stroke-linecap:round;stroke-linejoin:round;stroke-miterlimit:10;" d="
			M1180.81,534.89c-14.28,44.47-14.19,94.27,0.25,138.68c6.3,19.38,14.89,42.29,3.76,58.88c-6.26,9.33-17.07,13.38-25.46,20.45
			s-14.21,21.41-6.89,29.77"/>
		
			<path style="clip-path:url(#SVGID_00000161593304937682921650000006249527799186181780_);fill:none;stroke:#FFD261;stroke-width:15;stroke-linecap:round;stroke-linejoin:round;stroke-miterlimit:10;" d="
			M1022.82,563.1c29.27,8.29,50.44,42.19,46.79,74.95c-2.2,19.82-11.93,41.29-2.43,58.34c8.69,15.6,28.37,17.68,42.62,27.24
			c23.44,15.72,30,49.94,49.57,71.04c12.83,13.83,30.72,21.39,42.41,36.37c16.55,21.22,16.93,51.91,26.61,77.69
			c6.01,16.01,15.62,30.06,23.21,45.25c7.6,15.19,13.29,32.58,10.41,49.6"/>
		
			<path style="clip-path:url(#SVGID_00000161593304937682921650000006249527799186181780_);fill:none;stroke:#FFD261;stroke-width:15;stroke-linecap:round;stroke-linejoin:round;stroke-miterlimit:10;" d="
			M1209.3,843.56c-0.97,4.57,3.15,8.96,7.48,9.51c4.33,0.56,8.54-1.63,12.24-4.11c11.43-7.67,20.66-18.55,31.35-27.36
			c10.7-8.81,23.98-15.73,37.28-13.36c11.38,2.02,21.73,10.64,33.2,9.3c7.96-0.93,15.02-3.35,18.87-10.9
			c4.95-9.71,13.73-10.34,16.75-19.77"/>
		
			<path style="clip-path:url(#SVGID_00000161593304937682921650000006249527799186181780_);fill:none;stroke:#FFD261;stroke-width:15;stroke-linecap:round;stroke-linejoin:round;stroke-miterlimit:10;" d="
			M1348.93,994.41c-17.96,9.2-46.22,12.47-65.47,7.22c-4.9-1.34-10.12-3.14-14.87-1.26c-7.62,3-9.81,13.26-13.45,21.16
			c-4.68,10.15-13.74,18.06-24.05,19.63c-12.78,1.94-25.15-5.62-35.2-14.44c-10.05-8.83-19.16-19.35-30.9-25.18
			c-14.06-6.98-31.15-6.2-44.62,2.05c-18.04,11.04-27.73,32.8-37.7,52.57s-23.25,40.4-43.42,45.43"/>
		
			<path style="clip-path:url(#SVGID_00000161593304937682921650000006249527799186181780_);fill:none;stroke:#FFD261;stroke-width:15;stroke-linecap:round;stroke-linejoin:round;stroke-miterlimit:10;" d="
			M1091.5,1134.88c-7.7,2.16-15.56,4.34-23.49,3.73c-7.93-0.61-16.08-4.52-20.1-12c-2.84-5.27-3.35-11.66-5.66-17.23
			c-5.31-12.77-18.69-18.69-31.02-22.65c-28.9-9.27-58.93-14.31-89.05-14.95c-5.98-0.13-12.37,0.04-17.34,3.68
			c-5.67,4.15-8.11,11.73-10.83,18.56c-10.8,27.19-31.45,49.55-56.45,61.12"/>
		
			<path style="clip-path:url(#SVGID_00000161593304937682921650000006249527799186181780_);fill:none;stroke:#FFD261;stroke-width:15;stroke-linecap:round;stroke-linejoin:round;stroke-miterlimit:10;" d="
			M941.37,734.59c9.43,19.63,29.73,29.44,48.7,37.38s39.42,16.58,50.36,35.25c4.93,8.43,7.5,18.31,12.53,26.66
			c5.1,8.47,12.48,14.95,19.73,21.29c9.55,8.34,19.27,16.8,30.61,21.81c15.09,6.67,32.19,6.73,48.01,2.5
			c15.82-4.23,30.5-12.52,44.21-22.12c3.45-2.42,6.96-4.97,10.98-5.89c4.01-0.92,8.73,0.2,11.03,3.91"/>
		
			<path style="clip-path:url(#SVGID_00000161593304937682921650000006249527799186181780_);fill:none;stroke:#FFD261;stroke-width:15;stroke-linecap:round;stroke-linejoin:round;stroke-miterlimit:10;" d="
			M940.9,746.69c-2.28,27.24,4.16,55.26,17.94,78.11c8.6,14.26,20.46,28.19,20.07,45.25c-0.24,10.32-5.06,19.76-7.55,29.71
			c-2.49,9.95-1.81,22.45,6.06,28.17c13.76,9.99,35.22-9.43,47.71,2.37c8.41,7.94,5.42,24.37,13.67,32.5
			c8.47,8.35,21.94,2.29,33.19,4.4c13.19,2.47,22.36,16.72,24.49,31.14c2.13,14.42-2.7,28.32-6.07,42.46"/>
		
			<path style="clip-path:url(#SVGID_00000161593304937682921650000006249527799186181780_);fill:none;stroke:#FFD261;stroke-width:15;stroke-linecap:round;stroke-linejoin:round;stroke-miterlimit:10;" d="
			M1154.33,879.91c-0.88,17.43-8.32,33.93-18.64,47.27c-10.32,13.34-23.4,23.81-36.93,33.12c-3.61,2.48-7.4,5.03-9.67,8.97
			c-2.27,3.94-1.14,8.46,1.77,12.8"/>
		
			<path style="clip-path:url(#SVGID_00000161593304937682921650000006249527799186181780_);fill:none;stroke:#FFD261;stroke-width:15;stroke-linecap:round;stroke-linejoin:round;stroke-miterlimit:10;" d="
			M939.76,757.78c-2.67,14.61-18.03,21.54-31.49,24.03s-28.6,3.74-37.72,14.83c-10.24,12.45-8.23,31.51-5.59,47.99
			c3.49,21.84,6.99,43.69,10.48,65.53c7.58,47.39,15.31,95.34,33.16,139.33c3.28,8.08,0.32,9.96,6.86,15.17
			c6.54,5.21,18.49,7.54,31.42,8.64"/>
		
			<path style="clip-path:url(#SVGID_00000161593304937682921650000006249527799186181780_);fill:none;stroke:#FFD261;stroke-width:15;stroke-linecap:round;stroke-linejoin:round;stroke-miterlimit:10;" d="
			M638.67,916.57c31.38,59.03,68.59,72.08,120.08,110.83c16.1,12.12,32.41,24.36,50.76,31.74c35.84,14.41,75.39,8.94,113.42,8.83
			c-0.26,0.56-0.51,1.12-0.77,1.69"/>
		
			<path style="clip-path:url(#SVGID_00000161593304937682921650000006249527799186181780_);fill:none;stroke:#FFD261;stroke-width:15;stroke-linecap:round;stroke-linejoin:round;stroke-miterlimit:10;" d="
			M708.81,988.67c0.15-17.31,16.62-32.15,32.22-29.03c9.63,1.93,17.98,9.4,27.75,10.03c10.24,0.66,19.74-6.53,25.9-15.48
			s9.75-19.63,14.23-29.7c13.11-29.46,31.23-54.43,57.3-70.66c0.82,3.97,1.42,8.71,2.25,12.69"/>
		
			<path style="clip-path:url(#SVGID_00000161593304937682921650000006249527799186181780_);fill:none;stroke:#FFD261;stroke-width:15;stroke-linecap:round;stroke-linejoin:round;stroke-miterlimit:10;" d="
			M418.84,1145.46c16.27-6.3,17.87-4.5,28.64-19.37c6.58-9.09,12.67-17.72,22.78-13.93c9.05,3.39,9.49,16.58,10.93,26.78
			c3.94,28.03,30.37,50.1,56.55,47.23c26.18-2.87,47.93-30.23,46.54-58.54c-0.35-7.2-1.88-15,1.54-21.19
			c5.35-9.71,18.31-8.81,28.78-8.24c10.47,0.57,24.27-3.98,24.02-15.27"/>
		
			<path style="clip-path:url(#SVGID_00000161593304937682921650000006249527799186181780_);fill:none;stroke:#FFD468;stroke-width:15;stroke-linecap:round;stroke-linejoin:round;stroke-miterlimit:10;" d="
			M644.83,1091.9c-3.49,8.41-0.97,18.41,3.23,26.42c4.2,8.01,9.99,14.99,13.68,23.29s4.9,18.89-0.09,26.34
			c-3.53,5.27-9.37,7.92-14.37,11.49c-12.36,8.81-20.23,24.66-20.25,40.77"/>
		<path style="clip-path:url(#SVGID_00000161593304937682921650000006249527799186181780_);fill:#C8EBFC;" d="M505.77,961.03
			c16.6,16.31,43.61,18.23,62.01,4.4c50.07,57.04,103.99,114.41,172.42,140.15c25.66,9.65,53.05,14.71,76.73,29.18
			c19.39,11.85,35.24,29.37,52.48,44.67s37.17,28.91,56.52,34.63c-3.76,16.02-17.8,27.57-32.72,30.51
			c-14.92,2.94-30.37-1.56-43.92-8.98c-13.54-7.43-25.58-17.68-37.97-27.2c-52.38-40.2-111.93-67.66-167.35-102.68
			s-108.6-80.05-138.52-141.84C505.7,964,505.95,964.14,505.77,961.03z"/>
		<path style="clip-path:url(#SVGID_00000161593304937682921650000006249527799186181780_);fill:#C8EBFC;" d="M995.34,1200.74
			c17.58-18.84,35.29-37.79,55.77-52.74c20.48-14.95,44.13-25.81,68.75-26.6c43.38-1.39,83.05,27.98,126.31,31.62
			c32.97,2.78,66.8-10.41,90.7-35.36c23.89-24.95,38.02-64.51,35.49-99.54c18.91,3.12,38.47-1.22,51.56-16.43
			c6.58,13.76,7.33,30.19,4.47,45.39c-2.87,15.2-9.11,29.39-15.99,42.97c-16.24,32.1-36.33,61.87-59.59,88.33
			c-16.1,18.31-35.36,35.87-58.5,38.4c-42.78,4.68-76.96-42.59-119.78-46.81c-28.08-2.77-54.49,13.42-78.55,29.47
			s-49.71,33.1-77.89,32.32c-7.49-0.21-15.48-2-20.67-7.89S990.39,1206.04,995.34,1200.74z"/>
	</g>
	<g style="clip-path:url(#SVGID_00000059279680399605050090000007160813002087211920_);">
		<g>
			<g>
				
					<ellipse transform="matrix(0.7384 -0.6744 0.6744 0.7384 10.2245 994.8137)" class="st9" cx="1287.37" cy="484.23" rx="88.7" ry="21.05"/>
				
					<ellipse transform="matrix(0.3026 -0.9531 0.9531 0.3026 443.7438 1533.2012)" class="st9" cx="1269.54" cy="463.38" rx="54.39" ry="20.71"/>
				<ellipse class="st9" cx="1231.65" cy="491.97" rx="20.6" ry="54.69"/>
				
					<ellipse transform="matrix(0.0707 -0.9975 0.9975 0.0707 706.6912 1764.2865)" class="st9" cx="1300.26" cy="502.85" rx="21.26" ry="53.01"/>
				
					<ellipse transform="matrix(0.0707 -0.9975 0.9975 0.0707 644.2733 1769.5104)" class="st9" cx="1271.85" cy="538.97" rx="21.26" ry="53.01"/>
			</g>
		</g>
		<path class="st10" d="M1227.57,485.75c10.83,27.32-6.9,62.81-6.9,62.81s-35.28-8.79-46.11-36.1c-10.83-27.32,6.9-62.81,6.9-62.81
			S1216.74,458.43,1227.57,485.75z"/>
		<path class="st10" d="M1241.64,407.35c-3.87,8.25-9.07,14.19-13.1,15.49c-0.95,0.31-1.83,0.35-2.61,0.12
			c-0.21-0.07-0.42-0.16-0.63-0.27c0,0,0,0,0,0c-3.81-1.91-7.91-9.35-10.03-18.9c-2.64-11.88-1.21-22.52,3.19-23.76
			c3.69-1.04,9.33,9.34,9.82,27.58c3.74-17.76,11.93-26.2,15.3-24.19C1247.59,385.81,1246.72,396.52,1241.64,407.35z"/>
		<path class="st11" d="M1183.22,455.3c0,0,17.77,31.64,24.79,50.83"/>
		<path class="st11" d="M1174.71,484.23c0,0,17.58,3.7,26.84,7.74"/>
		<path class="st11" d="M1205.58,464.79c0,0-3.13,15.41-6.48,20.94"/>
		<path class="st11" d="M1179.86,510.56c0,0,23.76,1.9,30.77,5.59"/>
		<path class="st11" d="M1221.57,489.99c0,0-3.65,17.4-8.04,26.15"/>
		<path class="st12" d="M1344.71,432.62c0,0-97.79,72.14-110.84,85.9"/>
		<path class="st12" d="M1280.87,422.02c0,0-14.59,43.19-12.77,68.34"/>
		<path class="st12" d="M1230.02,451.29c0,0,1.85,55,4.81,66.26"/>
		<path class="st12" d="M1341.06,506.13c-0.28,0.53-48.04-0.98-68.5-19.21"/>
		<path class="st12" d="M1310.75,542.88c0,0-49.41-7.65-71.29-29.53"/>
		<g>
			<path class="st13" d="M1236.63,530.03c19.67,44.03-31.65,40.73-7.67-0.49c-23.98,41.22-47.11-10.54-3.46-7.74
				c-43.65-2.81-15.46-51.27,4.21-7.24c-19.67-44.03,31.65-40.73,7.67,0.49c23.98-41.22,47.11,10.54,3.46,7.74
				C1284.5,525.6,1256.31,574.06,1236.63,530.03z"/>
		</g>
		<path class="st14" d="M1231.47,521.21c-11.24-3.95-22.29-17.08-22.29-17.08"/>
		<path class="st14" d="M1231.65,555.93c0,0,0.51-25.58,0-33.2c-1.08-16.02,2.22-33.32,2.22-33.32"/>
		<path class="st14" d="M1257.36,540.05c-0.7-0.63-11.59-8.99-25.71-17.33"/>
		<path class="st14" d="M1257.93,506.58c0,0-4.45,7.64-26.46,15.72c-7.33,2.69-24.96,15.05-24.96,15.05"/>
	</g>
	<g style="clip-path:url(#SVGID_00000059279680399605050090000007160813002087211920_);">
		<path class="st15" d="M660.54,439.5c0,0,24.84,26.25,56.19,87.48c0,0,47.1,90.13,40.71,119.62c0,0,8.4,73.94-12.59,139.03"/>
		<path class="st9" d="M663.73,453.22c13.82,4.1,21.3,23.38,21.3,23.38s-14.93,12.62-28.75,8.52s-21.3-23.38-21.3-23.38
			S649.91,449.12,663.73,453.22z"/>
		<path class="st12" d="M663.73,457.69c0,0,2.5,3.75,4.09,11.21"/>
		<g>
			<path class="st10" d="M800.05,687.69c-11.4,39.91-53.57,60.3-53.57,60.3s-23.69-44.31-12.3-84.21
				c11.4-39.91,53.57-60.3,53.57-60.3S811.45,647.78,800.05,687.69z"/>
			<path class="st10" d="M787.65,423.6c-0.89,16.52-5.42,30.39-11.08,35.81c-1.33,1.28-2.72,2.08-4.14,2.35
				c-0.38,0.06-0.78,0.09-1.19,0.09c0,0,0,0,0,0c-7.39,0.07-18.85-8.56-28.48-22.23c-11.98-17-16.59-35.34-10.29-40.98
				c5.28-4.73,21.12,7.37,33.78,36.41c-5.51-31.76,2.24-52.14,8.99-51.68C783.25,383.92,788.81,401.93,787.65,423.6z"/>
			<path class="st16" d="M743.54,365.04c0,0,15.07,34.42,25.32,104.17c0,0,15.98,103.05,0.81,128.12c0,0-15.2,72.55-55.14,125.16"/>
			<path class="st9" d="M813.44,549.76c-10.8,24.79-25.71,42.87-37.52,47.11c-2.78,1-5.38,1.23-7.72,0.61
				c-0.63-0.19-1.26-0.43-1.89-0.72c0,0,0,0,0,0c-11.42-5.26-24.14-26.88-31.16-54.92c-8.73-34.87-5.35-66.48,7.56-70.59
				c10.84-3.45,28.32,26.69,31.22,80.61c9.66-52.91,33.25-78.67,43.37-73.06C829.33,485.46,827.61,517.23,813.44,549.76z"/>
			<path class="st10" d="M725.83,480.05c-0.93,16.08-16.28,28.04-16.28,28.04s-13.84-14.11-12.91-30.19
				c0.93-16.08,16.28-28.04,16.28-28.04S726.75,463.97,725.83,480.05z"/>
			<path class="st11" d="M784.21,611.78c-11.26,17.8-18.37,38.93-20.4,60.68"/>
			<path class="st11" d="M754.74,635.54c1.72,9.3,5.3,18.16,10.39,25.72"/>
			<path class="st11" d="M766.6,682.13c11.95-4.99,23.03-12.02,32.59-20.71"/>
			<path class="st11" d="M742.83,666.55c0.34,4.6,1.91,9.08,4.47,12.69"/>
			<g>
				<g>
					<g>
						<g>
							<path class="st10" d="M621.21,665.06c63.8,95.68,100.47,193.47,100.47,193.47s-66.76-57.34-130.55-153.02
								s-108.78-182.3-100.47-193.47C498.96,500.87,557.41,569.38,621.21,665.06z"/>
							<path class="st10" d="M611.24,719.61c64.59,60.03,108.41,136.63,108.41,136.63s-60.91-20.72-125.51-80.74
								c-64.59-60.03-113.13-121.2-108.41-136.63C490.45,623.43,546.65,659.58,611.24,719.61z"/>
							<path class="st10" d="M659.41,658.77c44.06,101.12,60.2,194.96,60.2,194.96s-55.31-70.12-99.37-171.25
								c-44.06-101.12-71.01-188.41-60.2-194.96C570.86,480.98,615.35,557.65,659.41,658.77z"/>
						</g>
						<g>
							<g>
								
									<ellipse transform="matrix(0.6564 -0.7544 0.7544 0.6564 -416.4311 721.3773)" class="st9" cx="583.7" cy="817.84" rx="24.87" ry="103.41"/>
								
									<ellipse transform="matrix(0.9416 -0.3368 0.3368 0.9416 -231.1566 248.9078)" class="st9" cx="601.94" cy="790.8" rx="23.5" ry="66.02"/>
								
									<ellipse transform="matrix(0.9977 -0.0673 0.0673 0.9977 -53.9175 45.4209)" class="st9" cx="646.76" cy="822.45" rx="23.15" ry="67.02"/>
								
									<ellipse transform="matrix(0.9873 -0.159 0.159 0.9873 -126.5792 101.4712)" class="st9" cx="570.81" cy="841.73" rx="59.63" ry="26.02"/>
								
									<ellipse transform="matrix(0.9873 -0.159 0.159 0.9873 -132.7646 107.539)" class="st9" cx="605.63" cy="883.42" rx="59.63" ry="26.02"/>
							</g>
						</g>
						<path class="st10" d="M594.88,955.6c-28.27,9.54-58.67-10.91-58.67-10.91s15.43-35.92,43.7-45.47
							c28.27-9.54,58.67,10.91,58.67,10.91S623.15,946.06,594.88,955.6z"/>
						<g>
							<g>
								
									<ellipse transform="matrix(0.9947 -0.1026 0.1026 0.9947 -71.6455 76.4017)" class="st9" cx="706.87" cy="734.66" rx="23.17" ry="110.99"/>
								
									<ellipse transform="matrix(0.3447 -0.9387 0.9387 0.3447 -203.0633 1170.495)" class="st9" cx="736.79" cy="730.68" rx="65.97" ry="23.52"/>
								
									<ellipse transform="matrix(0.6015 -0.7989 0.7989 0.6015 -332.371 911.812)" class="st9" cx="747.7" cy="789.03" rx="63.92" ry="24.27"/>
								
									<ellipse transform="matrix(0.681 -0.7323 0.7323 0.681 -324.6972 736.2494)" class="st9" cx="682.67" cy="740.79" rx="24.79" ry="62.58"/>
								
									<ellipse transform="matrix(0.681 -0.7323 0.7323 0.681 -367.3615 752.7203)" class="st9" cx="680.24" cy="797.99" rx="24.79" ry="62.58"/>
							</g>
						</g>
						<path class="st9" d="M488.81,582.14c4.21,8.03,5.98,16.13,4.86,20.68c-0.26,1.07-0.69,1.94-1.28,2.57
							c-0.16,0.16-0.34,0.32-0.53,0.47c0,0,0,0,0,0c-3.44,2.67-11.21,2.71-19.54-0.24c-10.36-3.68-17.65-10.61-16.29-15.49
							c1.14-4.1,11.94-4.08,25.99,4.98c-11.47-12.88-13.56-25.17-10.28-27.36C475.64,565.17,483.28,571.6,488.81,582.14z"/>
						<path class="st11" d="M543.88,942.79c26.57-18.95,57.81-29.49,89.24-30.13"/>
						<path class="st11" d="M577.11,924.96c-3.15,9.63-8.07,18.52-14.36,25.95"/>
						<path class="st11" d="M599.59,917.4c-3.05,13.26-9.51,25.49-18.39,34.84"/>
						<path class="st11" d="M622.27,913.83c-2.27,12.99-9.41,24.8-19.3,31.94"/>
						<path class="st11" d="M610.86,914.13c-5.52-7.53-13.85-12.35-22.5-13.03"/>
						<path class="st11" d="M587.14,920.64c-6.01-7.18-15.39-10.53-23.97-8.57"/>
						<path class="st11" d="M565.22,929.76c-4.9-2.54-10.63-3-15.8-1.27"/>
						<g>
							<path class="st10" d="M472.62,768.66c21.73,5.81,34.19,35.08,34.19,35.08s-22.78,19.86-44.51,14.06
								c-21.73-5.81-34.19-35.08-34.19-35.08S450.89,762.85,472.62,768.66z"/>
							<path class="st11" d="M433.55,784.56c24.85-3.67,50.79,3.04,71.74,18.54"/>
							<path class="st11" d="M455.54,771.62c5.34,2.63,9.55,7.82,11.27,13.92"/>
							<path class="st11" d="M473.91,772.35c6,4.72,10.56,11.74,12.75,19.62"/>
							<path class="st11" d="M445.87,799.97c10.83-0.36,21.53-4.53,30.25-11.76"/>
							<path class="st11" d="M466.26,808.5c10.75,0.15,21.5-3.94,29.97-11.41"/>
						</g>
						<path class="st12" d="M513.48,757.44c33.01,31.36,67.18,61.14,102.37,89.23"/>
						<path class="st12" d="M522.86,848.72c23.77-1.1,47.32-8.46,68.15-21.31"/>
						<path class="st12" d="M585.83,740.44c13.44,29.89,20.22,63.55,19.56,97.05"/>
						<path class="st12" d="M562.32,889.96c21.28-2.29,42.09-9.72,60.92-21.73"/>
						<path class="st12" d="M642.81,772.25c3.26,21.78,5.16,44.24,5.58,65.97"/>
						<path class="st12" d="M696.76,639.78c-0.42,50.04,6.67,101.01,20.7,148.67l5.25,22.99"/>
						<path class="st12" d="M642.57,707.24c17.38,17.99,39.34,30.9,62.95,37.01"/>
						<path class="st12" d="M672.46,780.17c14.29,6.16,29.96,9.74,45.86,10.49"/>
						<path class="st12" d="M632.48,764.12c2.94-5.53,9.53-7.71,15.05-6.04s9.94,6.56,12.7,12.2c2.76,5.64,4.07,12.02,5.16,18.35"/>
						<path class="st12" d="M758.48,678.79c-9.86,29.26-26.79,56.16-48.84,77.63"/>
						<path class="st17" d="M781.39,744.3c-10.47,29.47-31.09,55.45-57.18,72.04"/>
						<path class="st11" d="M500.67,529.18c56.54,65.55,101.86,143.36,132.73,227.91"/>
						<path class="st11" d="M563.92,503.95c32.94,60.57,61.29,124.3,84.66,190.28"/>
						<path class="st11" d="M492.21,643.92c26.58,30.69,55.66,58.63,86.75,83.34"/>
						<g>
							<g>
								<path class="st1" d="M731.75,762.67c29.79,24.07-9.46,44.12-5.86,3c-3.59,41.12-38.61,12.82-5.23-4.23
									c-33.38,17.05-29.16-31.29,0.63-7.22c-29.79-24.07,9.46-44.12,5.86-3c3.59-41.12,38.61-12.82,5.23,4.23
									C765.77,738.39,761.54,786.74,731.75,762.67z"/>
							</g>
							<path class="st18" d="M716.32,736.81c4.74,6.86,8.18,14.86,10.48,23.68c5.37-5.69,9.86-12.44,13.2-19.85"/>
							<path class="st18" d="M747.75,760.23c-6.84-2.3-14.31-2.1-20.43,0.64c3.73,4.72,5.95,10.93,6.16,17.25"/>
							<path class="st18" d="M714,775.42c5.29-3.54,9.78-8.56,13.39-14.55c-6.15-2.86-12.6-4.87-19.17-5.98"/>
						</g>
						<g>
							<path class="st19" d="M691.75,868.8c68.48,55.34-21.74,101.43-13.48,6.89c-8.26,94.54-88.78,29.48-12.03-9.72
								c-76.74,39.2-67.03-71.95,1.45-16.61c-68.48-55.34,21.74-101.43,13.48-6.89c8.26-94.54,88.78-29.48,12.03,9.72
								C769.95,812.99,760.24,924.14,691.75,868.8z"/>
						</g>
						<g>
							<path class="st13" d="M654.56,588.7c51.26,41.42-16.28,75.92-10.09,5.16c-6.18,70.77-66.45,22.07-9.01-7.28
								c-57.45,29.35-50.18-53.85,1.09-12.43c-51.26-41.42,16.28-75.92,10.09-5.16c6.18-70.77,66.45-22.07,9.01,7.28
								C713.1,546.92,705.83,630.12,654.56,588.7z"/>
						</g>
					</g>
					<path class="st20" d="M655.78,801.24c0,0,8.28,36.57,25.44,53.8c6.89-19.29,19.33-36,34.98-47"/>
					<path class="st20" d="M625.71,854.21c0,0,30.99,7.83,55.5,0.83c0,0-12.37,32.05-30.85,51.28"/>
					<path class="st20" d="M680.8,856.09c8.74,41.01,21.9,58.94,21.67,59.45"/>
					<path class="st20" d="M735.3,864.67c0,0-29.09,6.09-54.08-9.63"/>
				</g>
				<path class="st21" d="M606.44,577.77"/>
				<path class="st14" d="M603.49,577.28c0,0,12.44,6.17,41.48,4.22c0,0,20.65-3.15,38.92,3.43"/>
				<path class="st14" d="M621.85,620.48c0,0,9.32-28.3,23.71-39.06c0.6-0.45-0.82-1.33-1.21-2.01
					c-11.44-19.4-16.62-41.27-16.62-41.27"/>
				<path class="st14" d="M662.13,625.41c-0.31-0.28-2.87-23.43-17.21-44.39"/>
				<path class="st14" d="M644.97,581.5c0,0,8.32-27.16,23.03-38.51"/>
			</g>
			<g>
				<path class="st10" d="M891.71,511.71c-4.84,11.35-18.85,15.08-18.85,15.08s-6.17-14.67-1.33-26.02
					c4.84-11.35,18.85-15.08,18.85-15.08S896.55,500.36,891.71,511.71z"/>
				<path class="st11" d="M889,488.49c-1.07,14.08-6.74,27.65-15.7,37.53"/>
				<path class="st11" d="M892.25,501.98c-1.71,2.66-4.41,4.42-7.23,4.72"/>
				<path class="st11" d="M889.97,512.02c-2.69,2.8-6.21,4.56-9.86,4.92"/>
				<path class="st11" d="M881,493.63c-1,6-0.34,12.34,1.86,17.92"/>
				<path class="st11" d="M875.13,503.94c-1.21,5.9-0.59,12.26,1.74,17.72"/>
			</g>
			<g>
				<path class="st10" d="M860.99,565.15c-8.98,13.3-28.09,13.93-28.09,13.93s-4.54-20.93,4.44-34.23
					c8.98-13.3,28.09-13.93,28.09-13.93S869.97,551.85,860.99,565.15z"/>
				<path class="st11" d="M862.97,534.14c-4.72,17.98-15.33,33.92-29.31,44.07"/>
				<path class="st11" d="M864,552.67c-2.86,2.94-6.78,4.42-10.53,3.95"/>
				<path class="st11" d="M858.66,565.04c-4.16,2.83-9.16,4.06-13.99,3.43"/>
				<path class="st11" d="M851.35,538.41c-2.72,7.5-3.37,15.95-1.83,23.86"/>
				<path class="st11" d="M841.27,550.06c-2.98,7.31-3.67,15.77-1.94,23.57"/>
			</g>
			<path class="st11" d="M712.82,453.08c0,0-6.55,27.95-3.41,53.31"/>
			<path class="st11" d="M703.1,463.73c0,0-0.05,4.27,5.85,12.66"/>
			<path class="st11" d="M699.03,480.15c0,0,2.81,7.33,9.07,13.39"/>
			<path class="st11" d="M710.02,469.62c0,0,5.05-0.99,8.42-5.63"/>
			<path class="st11" d="M708.66,486.05c0,0,5.8-1.31,12.49-8.75"/>
			<path class="st12" d="M637.34,461.82c0,0,30.73,4.33,44.62,13.51"/>
			<path class="st12" d="M652.28,454.92c0,0,3.49,7.25,4.66,10.82"/>
			<path class="st12" d="M647.23,474.77c0,0,9.73-2.67,14.09-7.87"/>
			<path class="st12" d="M662.74,480.79c0,0,8.47-2.84,12.28-9.14"/>
		</g>
	</g>
	<g style="clip-path:url(#SVGID_00000059279680399605050090000007160813002087211920_);">
		<path class="st10" d="M326.75,979.26c-0.46,9.32-2.98,17.16-6.16,20.24c-0.75,0.72-1.53,1.18-2.33,1.34
			c-0.22,0.03-0.44,0.05-0.67,0.06c0,0,0,0,0,0c-4.17,0.06-10.66-4.77-16.12-12.45c-6.8-9.55-9.44-19.89-5.91-23.09
			c2.97-2.69,11.93,4.09,19.14,20.44c-3.18-17.9,1.14-29.42,4.95-29.18C324.18,956.89,327.36,967.03,326.75,979.26z"/>
		<path class="st10" d="M249.64,988.65c42.58,13.88,64.61,73.82,64.61,73.82s-47,37.43-89.58,23.54s-64.61-73.82-64.61-73.82
			S207.07,974.77,249.64,988.65z"/>
		<path class="st10" d="M282.65,1096.19c24.13-13.89,56.37,2.86,56.37,2.86s-6.88,39.26-31.01,53.15
			c-24.13,13.89-56.37-2.86-56.37-2.86S258.53,1110.08,282.65,1096.19z"/>
		<path class="st15" d="M121.63,1024.67c0,0,11.76,48.49,49.91,69.94c5.63,3.17,24.01,13.05,64.54,7.5c0,0,31.46-3.56,54.24-19.45"
			/>
		<path class="st16" d="M47.02,1077.57c0,0,32.6,53.78,90.83,63.64c8.6,1.46,36.49,5.66,88.45-18.21c0,0,40.59-17.62,65.33-46.5"/>
		<path class="st9" d="M191.93,1109.47c14.53,2.36,26.42,8.59,30.74,15.4c1.02,1.6,1.62,3.23,1.73,4.85
			c0.02,0.44,0.01,0.89-0.02,1.35c0,0,0,0,0,0c-0.55,8.31-9.12,20.48-21.99,30.17c-16.01,12.06-32.61,15.72-37.07,8.19
			c-3.75-6.33,8.25-23.13,34.96-34.96c-28.53,3.57-45.9-6.82-44.94-14.36C156.5,1111.15,172.88,1106.38,191.93,1109.47z"/>
		<path class="st10" d="M124.75,1115.87c8.05,6.94,13.35,15.21,13.92,20.95c0.14,1.35,0.01,2.56-0.4,3.58
			c-0.12,0.27-0.26,0.54-0.41,0.81c0,0,0,0,0,0c-2.81,4.8-11.61,8.87-22.26,9.83c-13.25,1.18-24.34-2.91-24.78-9.14
			c-0.37-5.24,11.88-10.8,31.51-7.78c-18.25-8.68-25.62-21.54-22.79-25.72C102.9,1103.42,114.19,1106.77,124.75,1115.87z"/>
		<path class="st9" d="M80.51,1096.8c3.84,7.7,5.34,15.51,4.15,19.94c-0.28,1.04-0.71,1.9-1.29,2.52c-0.16,0.16-0.33,0.32-0.52,0.46
			c0,0,0,0,0,0c-3.36,2.65-10.81,2.85-18.71,0.15c-9.84-3.36-16.66-9.93-15.23-14.68c1.19-3.99,11.54-4.19,24.78,4.31
			c-10.68-12.25-12.38-24.11-9.18-26.29C68.3,1080.62,75.47,1086.7,80.51,1096.8z"/>
		<path class="st10" d="M162.15,1061.7c4.08,11.3,4.98,22.15,2.76,27.78c-0.52,1.33-1.22,2.36-2.09,3.05
			c-0.24,0.18-0.5,0.34-0.77,0.49c0,0,0,0,0,0c-4.89,2.7-14.95,1.08-25.21-4.54c-12.76-6.99-21.01-17.53-18.42-23.54
			c2.17-5.04,16.12-2.69,32.74,12.07c-12.63-19.13-13.24-35.46-8.63-37.58C148.02,1036.91,156.8,1046.88,162.15,1061.7z"/>
		<path class="st11" d="M164.13,1011.91c35.04,23.96,74.98,39.06,115.92,43.82"/>
		<g>
			<g>
				<path class="st1" d="M327.41,1063.86c41.51,37.33-16.6,63.04-8.68,3.84c-7.92,59.2-56.72,15.31-7.29-6.56
					c-49.43,21.87-40.12-47.73,1.39-10.4c-41.51-37.33,16.6-63.04,8.68-3.84c7.92-59.2,56.72-15.31,7.29,6.56
					C378.24,1031.59,368.93,1101.19,327.41,1063.86z"/>
			</g>
			<path class="st22" d="M310.64,1027.01c-0.65,10.9,2.27,22.03,8.89,31.56c5.01-10.17,12.35-18.86,21.12-24.99"/>
			<path class="st22" d="M347.9,1061.4c-8.62-4.1-18.4-5.03-28.08-2.19c5.97,8.49,9.42,19.18,9.68,30.01"/>
			<path class="st22" d="M301.64,1081.94c7.44-4.98,13.36-12.8,17.71-23.69c-8.32,3.27-18.1,1.33-24.93-4.95"/>
		</g>
		<path class="st11" d="M196.5,994.85c10.43,14.08,19.03,29.88,25.44,46.74"/>
		<path class="st11" d="M238.96,994.35c12.89,15.92,20.75,36.91,21.87,58.43"/>
		<path class="st11" d="M191.78,1059.08c17.35,5.17,36.63,1.36,51.35-10.2"/>
		<path class="st11" d="M232.36,1079.41c17.06,1.16,34.41-7.93,44.64-23.37"/>
		<path class="st11" d="M254.4,1147.26c16.69-24.48,42.16-41.12,69.3-45.27"/>
		<path class="st11" d="M281.73,1119.47c-2.61,11.48-7.34,22.35-13.79,31.7"/>
		<path class="st11" d="M303.37,1108.02c-1.83,16.75-8.13,32.85-17.87,45.67"/>
		<path class="st11" d="M321.3,1103.08c0.29,15.67-4.37,31.41-12.94,43.75"/>
		<path class="st11" d="M291.43,1113.06c-9.54-2.08-19.84,0.69-27.52,7.41"/>
		<path class="st11" d="M313.15,1104.4c-11.57-5.11-24.99-4.6-36.23,1.38"/>
	</g>
</g>
<g>
	<path class="st23" d="M-141.25-166.47l-2.15,3.13c-3.58-1.37-6.1-3.99-7.47-7.15c-1.42,3.56-4.04,6.66-7.77,8.27l-2.23-3.18
		c5.2-2.25,7.99-7.15,7.99-11.42v-4.98h3.95v4.98C-148.94-172.61-146.25-168.36-141.25-166.47z M-140.78-159.77
		c8.03,0.02,13.08,2.62,13.1,7c-0.02,4.38-5.07,6.98-13.1,6.96c-8.05,0.02-13.05-2.58-13.01-6.96
		C-153.83-157.16-148.83-159.75-140.78-159.77z M-140.78-148.95c5.58,0.04,9-1.37,9.02-3.82c-0.02-2.47-3.44-3.89-9.02-3.86
		c-5.6-0.02-9.02,1.4-8.97,3.86C-149.8-150.33-146.38-148.91-140.78-148.95z M-140.05-183.48h3.78v9.32h4.51v-10h3.86v23.66h-3.86
		v-10.31h-4.51v9.1h-3.78V-183.48z"/>
	<path class="st23" d="M-104.94-176.65h-11.51v6.87h10.86v3.22h-10.86v8.12c5.22-0.04,8.65-0.21,12.71-0.9l0.34,3.35
		c-4.51,0.82-8.24,0.99-14.38,0.99h-2.58v-24.9h15.42V-176.65z M-101.16-183.48h3.91v14.56h4.64v-15.29h3.91v38.47h-3.91v-19.88
		h-4.64v17.99h-3.91V-183.48z"/>
	<path class="st23" d="M-47.75-161.45h-15.29v7.47h-4.04v-7.47h-15.89v-3.31h35.21V-161.45z M-78.58-157.63h4.08v7.77h22.84v3.31
		h-26.92V-157.63z M-78.45-182.4h26.15v13.65h-26.15V-182.4z M-56.34-171.97v-7.21h-18.12v7.21H-56.34z"/>
	<path class="st23" d="M-34.28-156.32v-3.91c-4.34-0.64-7.17-3.26-7.13-6.98c-0.04-4.34,3.71-7.19,9.19-7.21
		c5.45,0.02,9.25,2.88,9.28,7.21c-0.02,3.71-2.9,6.35-7.26,6.98v3.76c3.41-0.17,6.85-0.45,10.05-0.9l0.26,3.01
		c-8.33,1.48-17.33,1.57-23.96,1.55l-0.64-3.39C-41.47-156.21-37.95-156.21-34.28-156.32z M-43.77-179.65h9.49v-4.47h4.08v4.47h9.49
		v3.26h-23.06V-179.65z M-32.22-163.25c3.22,0.02,5.35-1.5,5.37-3.95c-0.02-2.47-2.15-4.04-5.37-4.04c-3.22,0-5.37,1.57-5.37,4.04
		C-37.59-164.76-35.44-163.23-32.22-163.25z M-13.88-168.1h5.8v3.44h-5.8v18.94h-4.08v-38.47h4.08V-168.1z"/>
	<path class="st23" d="M10.73-179.14H-2.51v-3.35h17.73c-0.02,10.09-6.61,16.08-18.25,18.64l-1.5-3.31
		C5.09-169.18,10.11-173.49,10.73-179.14z M1.48-162.91h25.29v9.66H5.64v3.91h22.41v3.22H1.61v-10.18h21.08v-3.39H1.48V-162.91z
		 M26.77-164.63h-4.08v-19.58h4.08V-164.63z"/>
	<path class="st23" d="M33.76-167.93h35.08v3.26H33.76V-167.93z M65.02-176.95c-0.02,4.32-5.07,6.66-13.74,6.66
		c-8.67,0-13.76-2.34-13.74-6.66c-0.02-4.29,5.07-6.63,13.74-6.61C59.95-183.58,65-181.24,65.02-176.95z M37.97-161.71h26.45v9.02
		H42v3.44h23.49v3.13H38.01v-9.53h22.37v-3.01H37.97V-161.71z M51.28-173.34c6.16,0,9.55-1.22,9.53-3.61
		c0.02-2.28-3.37-3.61-9.53-3.61c-6.12,0-9.51,1.33-9.49,3.61C41.77-174.57,45.16-173.34,51.28-173.34z"/>
	<path class="st23" d="M99.55-179.14H86.89v-3.35h17.05c0,9.73-6.53,15.99-17.69,18.76l-1.42-3.31
		C93.8-169.13,98.85-173.49,99.55-179.14z M91.18-162.99h25.16v9.75H95.3v3.86h22.2v3.26H91.27v-10.22h21v-3.44H91.18V-162.99z
		 M116.34-164.63h-4.08v-7.34h-7.99v-3.31h7.99v-8.93h4.08V-164.63z"/>
	<path class="st23" d="M123.16-154.11h35.21v3.39h-35.21V-154.11z M154.89-171.15c0,6.5-6.14,10.76-14.21,10.73
		c-8.05,0.02-14.19-4.23-14.17-10.73c-0.02-6.46,6.12-10.73,14.17-10.73C148.75-181.89,154.89-177.62,154.89-171.15z M140.68-163.77
		c5.88,0,10.24-2.9,10.26-7.39c-0.02-4.47-4.38-7.45-10.26-7.43c-5.9-0.02-10.28,2.96-10.26,7.43
		C130.4-166.67,134.78-163.77,140.68-163.77z"/>
	<path class="st23" d="M181.42-175.15h8.67v-9.06h4.04v38.56h-4.04v-15.63h-8.67v5.93h-17.86v-25.16h17.86V-175.15z M177.43-158.62
		v-18.72h-9.83v18.72H177.43z M190.09-164.58v-7.21h-8.67v7.21H190.09z"/>
	<path class="st23" d="M204.42-140.5h-3.65l2.28-11.85h4.81L204.42-140.5z"/>
	<path class="st23" d="M95.36-91.74l-2.49,3.26c-4.36-2.19-7.67-6.53-9.36-11.79c-1.7,5.54-5.04,10.22-9.49,12.52l-2.58-3.31
		c5.97-2.86,9.94-10.26,9.96-17.39v-6.57h4.12v6.57C85.52-101.4,89.47-94.38,95.36-91.74z M91.11-105.44h8.59v-12.8h4.04v38.56
		h-4.04v-22.46h-8.59V-105.44z"/>
	<path class="st23" d="M110.55-102.26h35.08v3.22h-15.54v3.31h11.12v9.02h-22.41v3.44h23.49v3.13H114.8v-9.53h22.37v-3.01h-22.41
		v-3.05h11.25v-3.31h-15.46V-102.26z M141.81-111.19c-0.02,4.32-5.07,6.66-13.74,6.66c-8.67,0-13.76-2.34-13.74-6.66
		c-0.02-4.25,5.07-6.63,13.74-6.61C136.74-117.82,141.79-115.44,141.81-111.19z M128.07-107.58c6.16-0.02,9.55-1.22,9.53-3.61
		c0.02-2.25-3.37-3.54-9.53-3.56c-6.12,0.02-9.51,1.31-9.49,3.56C118.56-108.81,121.95-107.61,128.07-107.58z"/>
	<path class="st23" d="M149.44-101.96h35.08v3.26h-35.08V-101.96z M180.7-110.98c-0.02,4.32-5.07,6.66-13.74,6.66
		c-8.67,0-13.76-2.34-13.74-6.66c-0.02-4.29,5.07-6.63,13.74-6.61C175.63-117.61,180.68-115.27,180.7-110.98z M153.65-95.73h26.45
		v9.02h-22.41v3.44h23.49v3.13h-27.48v-9.53h22.37v-3.01h-22.41V-95.73z M166.96-107.37c6.16,0,9.55-1.22,9.53-3.61
		c0.02-2.28-3.37-3.61-9.53-3.61c-6.12,0-9.51,1.33-9.49,3.61C157.45-108.59,160.84-107.37,166.96-107.37z"/>
	<path class="st23" d="M199.95-88.26h35.21v3.44h-35.21V-88.26z M231.17-97.62h-27.01v-17.26h4.08v13.91h22.93V-97.62z"/>
	<path class="st23" d="M246.98-110.76h-6.68v-3.35h10.56c-0.02,9.49-2.04,18.36-8.93,25.68l-3.18-2.36
		C244.25-96.53,246.55-103.08,246.98-110.76z M257.76-110.76h-5.56v-3.35h9.45c0,9.62-1.37,19.94-8.2,28.21l-3.43-2.19
		C255.61-94.75,257.41-102.56,257.76-110.76z M270.79-79.76h-4.12v-38.47h4.12V-79.76z"/>
	<path class="st23" d="M279.37-114.54h17.99v3.31h-13.91v18.59c6.46-0.02,11.29-0.3,16.79-1.29l0.51,3.44
		c-6.03,1.07-11.14,1.27-18.29,1.25h-3.09V-114.54z M307.71-103.33h6.18v3.35h-6.18v20.31h-4.08v-38.56h4.08V-103.33z"/>
	<path class="st23" d="M317.96-86.16c-0.02-1.67,1.37-3.05,3.05-3.05c1.65,0,3.03,1.37,3.05,3.05c-0.02,1.67-1.4,3.03-3.05,3.05
		C319.33-83.13,317.94-84.48,317.96-86.16z"/>
</g>
</svg>
