<?xml version="1.0" encoding="utf-8"?>
<!-- Generator: Adobe Illustrator 27.4.0, SVG Export Plug-In . SVG Version: 6.00 Build 0)  -->
<svg version="1.1" id="레이어_1" xmlns="http://www.w3.org/2000/svg" xmlns:xlink="http://www.w3.org/1999/xlink" x="0px"
	 y="0px" viewBox="0 0 1280 832" style="enable-background:new 0 0 1280 832;" xml:space="preserve">
<style type="text/css">
	.st0{fill:#463C33;}
	.st1{clip-path:url(#SVGID_00000127038930154858355110000008407025985007851437_);}
	.st2{fill:#FFC799;}
	.st3{clip-path:url(#SVGID_00000127038930154858355110000008407025985007851437_);fill:#FFC799;}
	
		.st4{clip-path:url(#SVGID_00000127038930154858355110000008407025985007851437_);fill:none;stroke:#FFB499;stroke-width:3;stroke-linecap:round;stroke-linejoin:round;stroke-miterlimit:10;}
	.st5{clip-path:url(#SVGID_00000013187806652970276960000002641056427006431645_);fill:none;stroke:#000000;stroke-miterlimit:10;}
	.st6{clip-path:url(#SVGID_00000013187806652970276960000002641056427006431645_);fill:#FEE29A;}
	
		.st7{clip-path:url(#SVGID_00000013187806652970276960000002641056427006431645_);fill:none;stroke:#FFD261;stroke-width:15;stroke-linecap:round;stroke-linejoin:round;stroke-miterlimit:10;}
	
		.st8{clip-path:url(#SVGID_00000013187806652970276960000002641056427006431645_);fill:none;stroke:#FFD468;stroke-width:15;stroke-linecap:round;stroke-linejoin:round;stroke-miterlimit:10;}
	.st9{clip-path:url(#SVGID_00000013187806652970276960000002641056427006431645_);fill:#C8EBFC;}
	.st10{fill:#6C804B;}
	.st11{fill:#ABB869;}
	.st12{fill:none;stroke:#808A4E;stroke-width:3;stroke-linecap:round;stroke-linejoin:round;stroke-miterlimit:10;}
	.st13{fill:none;stroke:#9ABA66;stroke-width:3;stroke-linecap:round;stroke-linejoin:round;stroke-miterlimit:10;}
	.st14{fill:#D9E529;}
	.st15{fill:none;stroke:#BBDB1A;stroke-width:3;stroke-linecap:round;stroke-linejoin:round;stroke-miterlimit:10;}
	.st16{fill:none;stroke:#6C804B;stroke-width:7;stroke-linecap:round;stroke-linejoin:round;stroke-miterlimit:10;}
	.st17{fill:none;stroke:#ABB869;stroke-width:7;stroke-linecap:round;stroke-linejoin:round;stroke-miterlimit:10;}
	.st18{fill:none;stroke:#A5B265;stroke-width:3;stroke-linecap:round;stroke-linejoin:round;stroke-miterlimit:10;}
	.st19{fill:none;stroke:#FFB499;stroke-width:3;stroke-linecap:round;stroke-miterlimit:10;}
	.st20{fill:#FFC300;}
	.st21{fill:none;stroke:#FFA600;stroke-width:5;stroke-linecap:round;stroke-linejoin:round;stroke-miterlimit:10;}
	.st22{fill:none;stroke:#98E529;stroke-width:3;stroke-linecap:round;stroke-linejoin:round;stroke-miterlimit:10;}
	.st23{fill:none;stroke:#FFB499;stroke-width:5;stroke-linecap:round;stroke-linejoin:round;stroke-miterlimit:10;}
	.st24{clip-path:url(#SVGID_00000127038930154858355110000008407025985007851437_);fill:none;}
</style>
<g>
	<g>
		<path class="st0" d="M90.46,143.32l-1.95,2.85c-3.26-1.25-5.55-3.63-6.8-6.5c-1.29,3.24-3.67,6.05-7.07,7.52l-2.03-2.89
			c4.73-2.05,7.27-6.5,7.27-10.39v-4.53h3.59v4.53C83.47,137.74,85.91,141.6,90.46,143.32z M90.89,149.42
			c7.3,0.02,11.89,2.38,11.91,6.37c-0.02,3.98-4.61,6.35-11.91,6.33c-7.32,0.02-11.88-2.34-11.84-6.33
			C79.02,151.8,83.57,149.44,90.89,149.42z M90.89,159.26c5.08,0.04,8.18-1.25,8.2-3.48c-0.02-2.25-3.12-3.54-8.2-3.52
			c-5.1-0.02-8.2,1.27-8.16,3.52C82.69,158.01,85.79,159.3,90.89,159.26z M91.56,127.85h3.44v8.48h4.1v-9.1h3.52v21.52H99.1v-9.38
			h-4.1v8.28h-3.44V127.85z"/>
		<path class="st0" d="M123.49,134.07h-10.47v6.25h9.88v2.93h-9.88v7.38c4.75-0.04,7.87-0.2,11.56-0.82l0.31,3.05
			c-4.1,0.74-7.5,0.9-13.09,0.9h-2.34V131.1h14.02V134.07z M126.93,127.85h3.55v13.24h4.22v-13.91h3.55v35h-3.55V144.1h-4.22v16.37
			h-3.55V127.85z"/>
		<path class="st0" d="M175.5,147.89h-13.91v6.8h-3.67v-6.8h-14.45v-3.01h32.03V147.89z M147.45,151.37h3.71v7.07h20.78v3.01h-24.49
			V151.37z M147.57,128.83h23.79v12.42h-23.79V128.83z M167.69,138.32v-6.56H151.2v6.56H167.69z"/>
		<path class="st0" d="M187.75,152.56v-3.55c-3.95-0.59-6.52-2.97-6.48-6.35c-0.04-3.95,3.38-6.54,8.36-6.56
			c4.96,0.02,8.42,2.62,8.44,6.56c-0.02,3.38-2.64,5.78-6.6,6.35v3.42c3.11-0.16,6.23-0.41,9.14-0.82l0.23,2.73
			c-7.58,1.35-15.76,1.43-21.8,1.41l-0.59-3.09C181.2,152.66,184.41,152.66,187.75,152.56z M179.11,131.33h8.63v-4.06h3.71v4.06
			h8.63v2.97h-20.98V131.33z M189.62,146.25c2.93,0.02,4.86-1.37,4.88-3.59c-0.02-2.25-1.95-3.67-4.88-3.67s-4.88,1.43-4.88,3.67
			C184.74,144.89,186.69,146.27,189.62,146.25z M206.3,141.84h5.27v3.12h-5.27v17.23h-3.71v-35h3.71V141.84z"/>
		<path class="st0" d="M228.68,131.8h-12.05v-3.05h16.13c-0.02,9.18-6.02,14.63-16.6,16.95l-1.37-3.01
			C223.55,140.86,228.12,136.94,228.68,131.8z M220.26,146.57h23.01v8.79h-19.22v3.55h20.39v2.93h-24.06v-9.26h19.18v-3.09h-19.3
			V146.57z M243.27,145h-3.71v-17.81h3.71V145z"/>
		<path class="st0" d="M249.62,142h31.91v2.97h-31.91V142z M278.06,133.79c-0.02,3.93-4.61,6.05-12.5,6.05s-12.52-2.13-12.5-6.05
			c-0.02-3.91,4.61-6.04,12.5-6.02C273.45,127.76,278.04,129.89,278.06,133.79z M253.45,147.66h24.06v8.2h-20.39v3.12h21.37v2.85
			h-25v-8.67h20.35v-2.73h-20.39V147.66z M265.56,137.07c5.61,0,8.69-1.11,8.67-3.28c0.02-2.07-3.07-3.28-8.67-3.28
			c-5.57,0-8.65,1.21-8.63,3.28C256.9,135.96,259.99,137.07,265.56,137.07z"/>
		<path class="st0" d="M309.46,131.8h-11.52v-3.05h15.51c0,8.85-5.94,14.55-16.09,17.07l-1.29-3.01
			C304.23,140.9,308.82,136.94,309.46,131.8z M301.84,146.49h22.89v8.87h-19.14v3.52h20.2v2.97h-23.87v-9.3h19.1v-3.12h-19.18
			V146.49z M324.74,145h-3.71v-6.68h-7.27v-3.01h7.27v-8.12h3.71V145z"/>
		<path class="st0" d="M330.92,154.57h32.03v3.09h-32.03V154.57z M359.79,139.07c0,5.92-5.59,9.79-12.93,9.77
			c-7.32,0.02-12.91-3.85-12.89-9.77c-0.02-5.88,5.57-9.77,12.89-9.77C354.21,129.3,359.79,133.19,359.79,139.07z M346.86,145.78
			c5.35,0,9.32-2.64,9.34-6.72c-0.02-4.06-3.98-6.78-9.34-6.76c-5.37-0.02-9.36,2.7-9.34,6.76
			C337.51,143.15,341.49,145.78,346.86,145.78z"/>
		<path class="st0" d="M383.91,135.43h7.89v-8.24h3.67v35.08h-3.67v-14.22h-7.89v5.39h-16.25v-22.89h16.25V135.43z M380.28,150.47
			v-17.03h-8.95v17.03H380.28z M391.8,145.04v-6.56h-7.89v6.56H391.8z"/>
		<path class="st0" d="M404.83,166.96h-3.32l2.07-10.78h4.38L404.83,166.96z"/>
		<path class="st0" d="M305.64,211.29l-2.27,2.97c-3.96-1.99-6.97-5.94-8.52-10.72c-1.54,5.04-4.59,9.3-8.63,11.39l-2.34-3.01
			c5.43-2.6,9.04-9.34,9.06-15.82v-5.98h3.75v5.98C296.7,202.5,300.29,208.89,305.64,211.29z M301.78,198.83h7.81v-11.64h3.67v35.08
			h-3.67v-20.43h-7.81V198.83z"/>
		<path class="st0" d="M319.45,201.72h31.91v2.93h-14.14v3.01h10.12v8.2h-20.39v3.12h21.37v2.85h-25v-8.67h20.35v-2.73h-20.39v-2.77
			h10.23v-3.01h-14.06V201.72z M347.89,193.6c-0.02,3.93-4.61,6.05-12.5,6.05s-12.52-2.13-12.5-6.05c-0.02-3.87,4.61-6.04,12.5-6.02
			C343.28,187.56,347.87,189.73,347.89,193.6z M335.39,196.88c5.61-0.02,8.69-1.11,8.67-3.28c0.02-2.05-3.07-3.22-8.67-3.24
			c-5.57,0.02-8.65,1.19-8.63,3.24C326.74,195.76,329.82,196.86,335.39,196.88z"/>
		<path class="st0" d="M354.82,202h31.91v2.97h-31.91V202z M383.26,193.79c-0.02,3.93-4.61,6.05-12.5,6.05s-12.52-2.13-12.5-6.05
			c-0.02-3.91,4.61-6.04,12.5-6.02C378.65,187.76,383.24,189.89,383.26,193.79z M358.65,207.66h24.06v8.2h-20.39v3.12h21.37v2.85
			h-25v-8.67h20.35v-2.73h-20.39V207.66z M370.76,197.07c5.61,0,8.69-1.11,8.67-3.28c0.02-2.07-3.07-3.28-8.67-3.28
			c-5.57,0-8.65,1.21-8.63,3.28C362.11,195.96,365.19,197.07,370.76,197.07z"/>
		<path class="st0" d="M400.76,214.46h32.03v3.12h-32.03V214.46z M429.16,205.94h-24.57v-15.7h3.71v12.66h20.86V205.94z"/>
		<path class="st0" d="M443.53,193.99h-6.07v-3.05h9.61c-0.02,8.63-1.86,16.7-8.12,23.36l-2.89-2.15
			C441.05,206.94,443.14,200.98,443.53,193.99z M453.33,193.99h-5.06v-3.05h8.59c0,8.75-1.25,18.14-7.46,25.66l-3.12-1.99
			C451.38,208.56,453.02,201.45,453.33,193.99z M465.19,222.19h-3.75v-35h3.75V222.19z"/>
		<path class="st0" d="M472.98,190.55h16.37v3.01h-12.66v16.91c5.88-0.02,10.27-0.27,15.27-1.17l0.47,3.12
			c-5.49,0.98-10.14,1.15-16.64,1.13h-2.81V190.55z M498.76,200.75h5.62v3.05h-5.62v18.48h-3.71v-35.08h3.71V200.75z"/>
		<path class="st0" d="M508.08,216.37c-0.02-1.52,1.25-2.77,2.77-2.77c1.5,0,2.75,1.25,2.77,2.77c-0.02,1.52-1.27,2.75-2.77,2.77
			C509.33,219.12,508.06,217.89,508.08,216.37z"/>
	</g>
	<g>
		<defs>
			<rect id="SVGID_1_" x="9" y="25" width="1271" height="807"/>
		</defs>
		<clipPath id="SVGID_00000015341051008170240890000004118992259750815144_">
			<use xlink:href="#SVGID_1_"  style="overflow:visible;"/>
		</clipPath>
		<g style="clip-path:url(#SVGID_00000015341051008170240890000004118992259750815144_);">
			<path class="st2" d="M98.57,218.95c24.63,20.56-12.7,31.44-5.58,1.63c-7.12,29.81-36.08,5.65-4.33-3.61
				c-31.75,9.26-23.38-25.79,1.25-5.24c-24.63-20.56,12.7-31.44,5.58-1.63c7.12-29.81,36.08-5.65,4.33,3.61
				C131.58,204.46,123.2,239.51,98.57,218.95z"/>
		</g>
		<path style="clip-path:url(#SVGID_00000015341051008170240890000004118992259750815144_);fill:#FFC799;" d="M484.54,150.54
			c-10.78,6.25-26.65,0.99-26.65,0.99s1.61-15.39,12.39-21.64c10.78-6.25,22.72-6.69,26.65-0.99S495.32,144.29,484.54,150.54z"/>
		<path style="clip-path:url(#SVGID_00000015341051008170240890000004118992259750815144_);fill:#FFC799;" d="M476.74,117.22
			c-4.25,6.75-16.29,7.68-16.29,7.68s-5.14-10.01-0.88-16.76c4.25-6.75,11.55-10.19,16.29-7.68
			C480.6,102.96,481,110.47,476.74,117.22z"/>
		<path style="clip-path:url(#SVGID_00000015341051008170240890000004118992259750815144_);fill:#FFC799;" d="M134.84,210.55
			c-4.25,2.38-10.98-0.6-10.98-0.6s0.16-6.85,4.41-9.23c4.25-2.38,9.17-2.11,10.98,0.6C141.07,204.03,139.09,208.17,134.84,210.55z"
			/>
		
			<path style="clip-path:url(#SVGID_00000015341051008170240890000004118992259750815144_);fill:none;stroke:#FFB499;stroke-width:3;stroke-linecap:round;stroke-linejoin:round;stroke-miterlimit:10;" d="
			M460.92,123.2c0.64-6.57,4.44-12.82,10.2-16.78"/>
		
			<path style="clip-path:url(#SVGID_00000015341051008170240890000004118992259750815144_);fill:none;stroke:#FFB499;stroke-width:3;stroke-linecap:round;stroke-linejoin:round;stroke-miterlimit:10;" d="
			M459.08,150.42c7.83-6.76,17.54-11.67,27.95-14.15"/>
		
			<path style="clip-path:url(#SVGID_00000015341051008170240890000004118992259750815144_);fill:none;stroke:#FFB499;stroke-width:3;stroke-linecap:round;stroke-linejoin:round;stroke-miterlimit:10;" d="
			M87.75,196.67c0.9,6.98,2.95,13.83,6.33,20.63c3.53-5.88,8.72-10.92,14.93-14.48"/>
		
			<path style="clip-path:url(#SVGID_00000015341051008170240890000004118992259750815144_);fill:none;stroke:#FFB499;stroke-width:3;stroke-linecap:round;stroke-linejoin:round;stroke-miterlimit:10;" d="
			M112.72,220.79c-5.63-2.78-12.19-3.97-18.88-3.7c2.89,4.98,4.39,10.64,4.31,16.28"/>
		
			<path style="clip-path:url(#SVGID_00000015341051008170240890000004118992259750815144_);fill:none;stroke:#FFB499;stroke-width:3;stroke-linecap:round;stroke-linejoin:round;stroke-miterlimit:10;" d="
			M78.32,230.97c3.67-5.84,9.12-10.72,15.63-13.53c-5.19-4.82-12.69-7.48-20.07-7.12"/>
		
			<path style="clip-path:url(#SVGID_00000015341051008170240890000004118992259750815144_);fill:none;stroke:#FFB499;stroke-width:3;stroke-linecap:round;stroke-linejoin:round;stroke-miterlimit:10;" d="
			M124.55,209.53c1.39-2.8,3.95-5.1,7.03-6.31"/>
		<g style="clip-path:url(#SVGID_00000015341051008170240890000004118992259750815144_);">
			<defs>
				<path id="SVGID_00000010272345919055329970000002830877812801814415_" d="M422.51,644.96c0.53-0.1,1.02-0.33,1.5-0.56
					c0.64-0.31,1.33-0.56,2.02-0.76c1.16-0.34,2.34-0.56,3.54-0.73c0.26-0.03,0.51-0.07,0.77-0.09c0.71-0.08,1.43-0.12,2.15-0.15
					c0.72-0.02,1.45-0.02,2.17,0.01c0.73,0.03,1.46,0.08,2.18,0.16c0.73,0.08,1.46,0.17,2.19,0.29c0.73,0.12,1.46,0.26,2.18,0.42
					c0.73,0.16,1.45,0.34,2.16,0.53c0.72,0.2,1.43,0.41,2.14,0.64c0.71,0.23,1.41,0.48,2.1,0.74c0.69,0.26,1.38,0.54,2.06,0.82
					c0.68,0.29,1.34,0.59,2,0.9c0.23,0.11,0.46,0.22,0.69,0.33c0.11,0.06,0.23,0.11,0.34,0.17c0.05,0.03,0.11,0.06,0.16,0.08
					c0.04,0.02,0.12,0.08,0.16,0.08c9.48,4.82,17.69,11.66,27.53,15.83c14.65,6.2,32.22,5.82,46.94-0.22s26.53-17.48,33.17-30.95
					c5.95-5.32,11.92-10.49,19.46-12.21c5.89-1.34,12.07-0.42,18.11,0.21c6.03,0.63,12.44,0.89,17.87-1.59
					c6.98-3.2,10.86-10.35,12.18-17.4c1.32-7.05,0.57-14.27,0.89-21.41c0.47-10.49,3.28-20.9,8.21-30.38
					c3.28-7.32,10.49-12.11,15.13-18.49c3.49-4.81,5.46-10.47,6.09-16.22c0.63-5.75-0.04-11.57-1.54-17.18
					c-2.05-3.35-3.91-6.3-5.78-9.26c-1.38-2.18-2.76-4.38-3.56-6.79c-1.41-4.29-0.78-9.11,1.7-12.97s6.77-6.71,11.55-7.66
					c5.2-1.04,10.65,0.09,15.91-0.66c15.64,0.53,31.23-0.61,46.44-3.47c5.08-0.96,10.37-2.22,14.16-5.47
					c5.07-4.35,6.57-11.52,12.07-15.42c4.29-3.04,10.12-3.44,15.53-3.17c11.82,0.58,23.48,3.77,33.72,9.21
					c8.56,4.33,15.64,10.95,20.51,18.74c3.45,5.53,5.78,11.57,8.72,17.34c2.94,5.77,6.63,11.41,12.13,15.31
					c4.8,3.41,11.2,5.31,17.05,3.83s10.56-6.99,9.5-12.46c-0.82-4.25-4.61-7.44-8.38-10.02c-3.77-2.58-7.91-5.07-10.06-8.91
					c-2.57-4.59-1.67-10.33,1.15-14.79c2.83-4.46,7.34-7.81,12.07-10.61c5.75-3.4,12-6.17,17.14-10.31
					c3.82-3.08,6.95-6.87,9.14-11.08c5.45-4.35,5.96-11.38,5.09-17.54s-2.79-12.4-1.47-18.49c1.86-8.6,10.8-15.46,20.37-15.62
					c3.65-0.06,7.27,0.73,10.92,0.61c3.65-0.12,7.61-1.47,9.18-4.49c2.35-4.51-1.7-9.47-2.87-14.34
					c-1.46-6.09,1.91-12.51,6.99-16.66c5.09-4.15,11.65-6.41,18.16-8.25c6.85-1.93,13.92-3.5,21.09-3.45s14.51,1.84,20.05,6.01
					c4.14,3.12,7.23,7.48,11.99,9.74c10.3,4.88,23.25-2.11,34.28,1.17c6.4,1.9,11.41,7.1,18.07,8c5.57,0.75,10.99-1.67,16.19-3.65
					s11.29-3.54,16.31-1.2c5.62,1.4,11.2,0.36,16.17-1.41c4.96-1.77,9.63-4.24,14.74-5.63s10.96-1.59,15.45,1.04
					c3.33,1.95,5.48,5.16,8.04,7.92c6.85,7.38,17.41,11.74,27.98,11.57c6,1.35,9.91,6.21,11.11,11.27c1.2,5.07,0.18,10.34-1.04,15.4
					c-1.22,5.06-2.64,10.18-2.25,15.36c0.78,10.29,8.66,19.93,6.56,30.07c-1.65,7.96-9.27,14.44-9.32,22.55
					c-0.05,8.84,8.98,15.5,17.98,18.71c8.99,3.22,19,4.58,26.79,9.8c6.56,4.4,10.96,11.41,11.81,18.82s-1.87,15.1-7.3,20.65
					c-3.93,4.02-9.67,8.18-8.42,13.45c1.72,7.24,14.2,7.12,18.33,13.49c5.76,5.79,11.12,12.32,10.83,19.78
					c-0.25,6.42-4.7,12.1-5.8,18.44c-1.14,6.56,1.38,13.11,3.19,19.54c1.81,6.43,2.8,13.68-0.97,19.35
					c-3.14,4.72-8.92,7.34-13.1,11.32c-5.61,5.35-8.08,13.32-6.36,20.57c-11.17,6.15-17.23,14.74-18.01,23.84
					s3.73,18.45,11.61,24.05c8.95,6.35,21.23,7.61,32.36,5.72c11.13-1.89,21.42-6.59,31.54-11.23c2.73,40.14,4.04,80.33,5.36,120.53
					c0.72,22.16,1.34,44.99-7.2,65.73c-296-6.29-587.55-17.34-878.54-35.82c5.08-12.41,8.21-27.49,1.97-40.11
					c-6.25-12.62-24.03-20.67-37.41-14.22c-7.39,3.56-12.03,10.46-18.13,15.69s-15.9,8.74-22.59,4.15
					c-10.46-7.18-1.75-24.55-10.49-33.45c-6.85-6.98-19.07-4.1-29.18-2.56c-12.11,1.84-25.47,0.55-34.99-6.54
					c-9.52-7.09-13.39-21.02-6.02-30.01c3.42-4.18,8.64-6.78,12.67-10.47c8.44-7.72,10.92-19.26,17.19-28.55
					c8.7-12.91,23.95-20.58,37.6-29.17c13.65-8.59,27.17-20.14,28.87-35.24c0.72-6.4-0.8-12.83-0.79-19.26
					c0.01-6.43,2.03-13.48,7.93-17.11c3.38-1.67,7.49-1.82,11.23-0.99c3.74,0.83,7.17,2.55,10.4,4.46
					c15.21,8.97,26.83,22.11,38.26,34.95c1.46,1.64,2.94,3.31,4.74,4.64c0.44,0.32,0.9,0.62,1.37,0.89
					c1.15,0.64,2.41,1.09,3.66,1.54c0.64,0.23,1.3,0.47,1.99,0.45C422.15,645.02,422.33,645,422.51,644.96z"/>
			</defs>
			<clipPath id="SVGID_00000106831492794864000930000009988709576593412798_">
				<use xlink:href="#SVGID_00000010272345919055329970000002830877812801814415_"  style="overflow:visible;"/>
			</clipPath>
			
				<path style="clip-path:url(#SVGID_00000106831492794864000930000009988709576593412798_);fill:none;stroke:#000000;stroke-miterlimit:10;" d="
				M544.88,564.63"/>
			<path style="clip-path:url(#SVGID_00000106831492794864000930000009988709576593412798_);fill:#FEE29A;" d="M357.22,594.13
				c-8.42-3.12-17.2,5.16-18.52,13.26c-1.32,8.1,1.61,16.35,0.82,24.51c-1.62,16.86-18.11,29.03-33.57,38.67
				c-15.46,9.64-32.56,20.44-36.62,36.96c-1.05,4.28-1.27,9.01-4.38,12.38c-3.39,3.68-9.15,4.59-13.76,6.95
				c-9.21,4.71-13.29,15.57-10.71,24.81c2.58,9.24,10.84,16.67,20.52,20.55c9.67,3.89,20.61,4.58,31.17,3.73
				c5.74-0.46,11.61-1.35,17.18-0.05c5.57,1.3,10.82,5.61,10.52,10.78c-0.22,3.81-3.28,7.01-4.23,10.72
				c-2.18,8.61,8.35,16.39,18.16,16.08s18.3-5.98,25.78-11.7c9.01-6.9,20.86-14.73,31.47-10.03c8.23,3.65,10.7,12.95,12.25,21.08
				c1.02,5.34,2.03,10.82,0.92,16.14c-2.44,11.73-14.66,20.54-16.26,32.39c-1.15,8.54,3.47,17.42,0.62,25.63
				c-3.09,8.9-13.54,13.57-22.28,18.58c-8.74,5.01-17.45,13.71-14.16,22.55c1.77,4.74,6.54,7.94,10.39,11.54
				c3.85,3.6,7.08,8.86,6.67,18.12c-13.07,4.52-20.01,19.74-14.23,31.21s23.08,16.81,35.47,10.96c9.87-4.66,18.59-15.38,29.16-12.19
				c4.4,1.33,7.43,4.85,11.06,7.45c10.91,7.82,27.23,6.82,39.46,0.78c12.23-6.04,21.2-16.18,29.49-26.27
				c8.29-10.09,16.46-20.6,27.78-27.92c4.75-3.07,12.06-5.24,15.83-1.22c2.92,3.12,1.46,7.99-1.25,11.26
				c-2.71,3.27-6.49,5.84-8.55,9.47c-5.22,9.17,2.67,20.02,11.48,26.61c8.81,6.58,19.66,12.5,22.78,22.41
				c2.27,7.2-0.14,15.14,2.47,22.23c3.81,10.34,16.69,15.47,23.67,24.39c7.23,9.24,7.32,21.32,8.9,32.53
				c1.58,11.21,6.25,23.68,17.84,28.04c11.63,4.38,24.65-1.34,35.63-6.92c15.09-7.67,30.59-15.65,41.3-27.91
				c3.56-4.07,7.84-9.12,13.54-8.34c4.46,0.61,7.28,4.71,8.35,8.65c1.07,3.94,1.03,8.14,2.81,11.87
				c3.62,7.58,13.98,11.02,23.09,10.05c9.11-0.97,17.27-5.34,25.38-12c18.56,0.52,38.38,0.74,54.06-8.2
				c10.23-5.83,17.49-14.94,26.03-22.66c12.07-10.91,26.78-19.09,41.35-27.17c8.21-4.55,17.86-9.28,27-6.51
				c8.66,2.63,13.64,11.21,22.12,14.28c10.09,3.65,21.12-1.52,31.3-4.98c10.18-3.46,24.32-3.95,29.22,4.79
				c5.69,10.14-6.93,21.7-5.12,32.95c2.1,13.07,21.03,17.45,29.32,28.36c5.71,7.52,6.04,17.88,13.02,24.47
				c9.99,9.44,27.22,6.17,41.02,2.19c23.51-6.76,49.28-15.17,60.86-34.78c3.87-6.56,6.39-14.56,13.61-18.16
				c7.46-3.72,17.42-1.24,24.68-5.28c12.11-6.73,7.13-24.57,16.01-34.58c5.39-6.07,14.79-7.91,23.43-7.92s17.34,1.38,25.86,0.06
				c8.51-1.32,17.2-6.33,20.73-13.79c-1.51-6.65,5.01-12.7,11.88-15.5c6.87-2.8,14.69-3.84,20.85-7.75
				c4.42-2.8,7.64-6.86,11.68-10.09c8.39-6.69,19.68-9.37,30.06-13.19c17.78-6.53,33.79-16.95,46.24-30.1
				c6.96-7.35,12.91-15.72,15.47-25.09c2.56-9.37,1.38-19.87-4.85-27.73c-9.49-11.95-27.85-15.28-39.41-25.65
				c-2.38-2.13-4.58-4.64-7.73-5.69s-7.57,0.24-8.92,3.39c0.21,1.46,0.4,2.99-0.17,4.37c-0.57,1.38-2.17,2.54-3.77,2.2
				c-1.76-0.37-2.57-2.3-2.38-3.92c0.19-1.62,1.06-3.11,1.4-4.71c1.4-6.58-6.16-12.3-6.15-19c0.01-4.48,3.37-8.3,6.33-11.91
				c7.26-8.84,12.99-18.69,16.95-29.09c2.23-5.86,3.99-12.06,8.22-16.94c8.04-9.28,22.57-11.33,35.64-11.74
				c7.7-0.24,15.79-0.24,22.54-3.59c6.75-3.35,11.34-11.41,8.2-17.09c-4.62-5.82-4.26-13.71-2.55-20.69
				c1.71-6.99,4.58-13.88,4.34-21.03c-0.49-14.74-13.96-27.04-15.17-41.74c-0.48-5.88,0.91-12.33-2.65-17.28
				c-4.27-5.95-13.75-6.77-21.39-5.04c-22.85,5.16-37.95,26.03-60.63,31.76c-9.5,2.4-19.78,1.97-29,5.14
				c-13.73,4.72-22.98,16.64-36.3,22.22c-14.01,5.87-31.8,3.48-43.33-5.87c-8.69-5.29-11.61-16.95-6.28-25.09
				c4.28-6.52,12.87-10.72,14.92-18.07c1.23-4.42-0.12-9.53,2.71-13.3c2.72-3.63,8.16-4.51,12.24-6.91c6-3.52,8.77-10.3,8.95-16.75
				s-1.8-12.75-3.37-19.04s-2.75-12.88-0.97-19.13c1.49-5.23,5-10,5.43-15.38c0.73-9.2-7.86-17.08-17.25-20.79
				c-3.67-1.45-7.65-2.53-10.62-4.95c-2.97-2.42-4.54-6.77-3.19-10.99c10.23-5.5,16.61-16.32,15.93-27.02s-8.39-20.8-19.25-25.21
				c-7.03-2.86-14.93-3.4-22.25-5.59c-7.32-2.19-14.63-6.89-15.77-13.75c-1.47-8.86,7.74-16.27,9.42-25.1
				c2.07-10.87-7.53-20.98-7.76-32.01c-0.21-10.23,7.67-20.23,4.6-30.08c-1.78-5.7-7.04-10.1-12.96-12.69
				c-5.92-2.59-12.5-3.63-17.36-4.57c-4.95,0.13-8.86-3.68-11.5-7.44s-5-8.07-9.41-10.09c-4.75-2.19-10.58-1.07-15.43,0.93
				c-4.85,2-9.31,4.84-14.43,6.19c-10.11,2.67-21.47-0.8-31.3,2.61c-4.08,1.41-8.03,4.01-12.36,3.43c-2.97-0.4-5.4-2.23-7.9-3.72
				c-6.97-4.15-15.63-5.94-23.85-4.71c-6.76-1.04-13.71,3.83-20.21,1.85c-5.18-1.58-7.63-6.75-11.32-10.38
				c-5.03-4.96-12.73-7.16-20.19-7.33c-7.46-0.17-14.81,1.47-22.03,3.13c-6.99,1.61-14.14,3.31-20.04,7.05
				c-5.9,3.73-10.39,9.97-9.6,16.42c0.38,3.09,1.91,5.97,2.67,9.01c0.77,3.03,0.6,6.59-1.86,8.77c-2.7,2.39-6.99,2.24-10.78,2.24
				c-7.94,0-16.24,1.53-22.28,6.16c-6.04,4.63-9.04,12.92-5.14,19.97c3.41,10.84,0.35,23.19-8.05,31.54
				c-5,4.98-11.55,8.43-17.81,12.09c-6.25,3.66-12.48,7.76-16.3,13.53c-3.82,5.76-4.7,13.58-0.28,18.99
				c5.08,6.23,16.09,8.49,17.84,16.05c1.51,6.53-6.23,12.61-13.64,12.24c-7.41-0.37-13.64-5.38-17.45-11.1
				c-3.82-5.72-5.83-12.25-8.88-18.34c-9.25-18.47-28.75-32.5-50.81-36.58c-6.11-1.13-12.53-1.52-18.55-0.04
				c-6.02,1.49-11.61,5.06-14.13,10.2c-1.33,2.7-1.8,5.77-3.66,8.21c-2.89,3.79-8.33,5.13-13.33,6.04
				c-15.11,2.75-30.53,4.13-45.95,4.09c-6.96-0.02-14.09-0.3-20.69,1.69s-12.68,6.86-13.31,13.09c-0.63,6.17,3.98,11.63,7.07,17.17
				c7,12.59,6.2,28.43-2.54,41.06c-13.94,12.92-22.16,30.71-22.5,48.71c-0.12,6.54,0.75,13.12-0.2,19.61
				c-0.95,6.49-4.09,13.14-10.29,16.57c-10.88,6.03-25.29-0.23-37.68,2.56c-13.28,2.99-20.76,15.15-28.92,25.04
				c-7.14,8.65-16.05,16.37-26.91,20.9c-10.87,4.53-23.86,5.57-34.83,1.25c-9.4-3.7-16.49-10.85-24.96-16.07
				c-8-4.93-17.32-8.12-28.18-9.17c-9.78,3.03-20.68-1.31-28.29-7.61s-13.02-14.43-20.01-21.29
				C379.2,604.58,368.55,598.32,357.22,594.13z"/>
			
				<path style="clip-path:url(#SVGID_00000106831492794864000930000009988709576593412798_);fill:none;stroke:#FFD261;stroke-width:15;stroke-linecap:round;stroke-linejoin:round;stroke-miterlimit:10;" d="
				M1067.02,341.15c-12.57,32.85-12.49,69.63,0.22,102.43c5.55,14.31,13.1,31.24,3.31,43.49c-5.51,6.89-15.02,9.88-22.4,15.1
				s-12.5,15.81-6.06,21.99"/>
			
				<path style="clip-path:url(#SVGID_00000106831492794864000930000009988709576593412798_);fill:none;stroke:#FFD261;stroke-width:15;stroke-linecap:round;stroke-linejoin:round;stroke-miterlimit:10;" d="
				M928.01,361.98c25.76,6.13,44.38,31.16,41.17,55.36c-1.94,14.64-10.5,30.49-2.14,43.09c7.65,11.52,24.96,13.06,37.5,20.12
				c20.63,11.61,26.39,36.89,43.62,52.47c11.29,10.21,27.03,15.8,37.31,26.86c14.56,15.67,14.9,38.34,23.41,57.38
				c5.29,11.82,13.74,22.2,20.43,33.42c6.68,11.22,11.69,24.07,9.16,36.63"/>
			
				<path style="clip-path:url(#SVGID_00000106831492794864000930000009988709576593412798_);fill:none;stroke:#FFD261;stroke-width:15;stroke-linecap:round;stroke-linejoin:round;stroke-miterlimit:10;" d="
				M1092.08,569.13c-0.85,3.37,2.78,6.61,6.58,7.03s7.52-1.2,10.77-3.04c10.06-5.66,18.17-13.7,27.58-20.21
				c9.41-6.51,21.1-11.62,32.8-9.87c10.01,1.49,19.12,7.86,29.21,6.87c7.01-0.69,13.22-2.47,16.61-8.05
				c4.35-7.17,12.08-7.63,14.74-14.61"/>
			
				<path style="clip-path:url(#SVGID_00000106831492794864000930000009988709576593412798_);fill:none;stroke:#FFD261;stroke-width:15;stroke-linecap:round;stroke-linejoin:round;stroke-miterlimit:10;" d="
				M1214.94,680.55c-15.8,6.79-40.67,9.21-57.6,5.33c-4.31-0.99-8.9-2.32-13.09-0.93c-6.7,2.22-8.63,9.79-11.83,15.63
				c-4.11,7.5-12.09,13.34-21.16,14.5c-11.24,1.43-22.13-4.15-30.97-10.67c-8.84-6.52-16.86-14.29-27.19-18.6
				c-12.37-5.16-27.41-4.58-39.26,1.51c-15.87,8.16-24.4,24.22-33.17,38.83c-8.77,14.61-20.46,29.84-38.2,33.55"/>
			
				<path style="clip-path:url(#SVGID_00000106831492794864000930000009988709576593412798_);fill:none;stroke:#FFD261;stroke-width:15;stroke-linecap:round;stroke-linejoin:round;stroke-miterlimit:10;" d="
				M988.44,784.3c-6.77,1.6-13.69,3.21-20.66,2.75c-6.98-0.45-14.15-3.34-17.69-8.86c-2.5-3.89-2.94-8.61-4.98-12.73
				c-4.67-9.43-16.45-13.81-27.3-16.73c-25.43-6.84-51.85-10.57-78.35-11.05c-5.26-0.09-10.88,0.03-15.25,2.72
				c-4.99,3.06-7.14,8.66-9.53,13.71c-9.51,20.08-27.67,36.59-49.67,45.15"/>
			
				<path style="clip-path:url(#SVGID_00000106831492794864000930000009988709576593412798_);fill:none;stroke:#FFD261;stroke-width:15;stroke-linecap:round;stroke-linejoin:round;stroke-miterlimit:10;" d="
				M856.34,488.65c8.29,14.5,26.16,21.75,42.84,27.61c16.68,5.86,34.69,12.24,44.31,26.04c4.34,6.22,6.6,13.52,11.03,19.69
				c4.49,6.26,10.98,11.04,17.36,15.72c8.4,6.16,16.96,12.41,26.93,16.11c13.28,4.93,28.32,4.97,42.24,1.85
				c13.92-3.12,26.84-9.25,38.9-16.34c3.04-1.79,6.13-3.67,9.66-4.35c3.53-0.68,7.68,0.15,9.71,2.89"/>
			
				<path style="clip-path:url(#SVGID_00000106831492794864000930000009988709576593412798_);fill:none;stroke:#FFD261;stroke-width:15;stroke-linecap:round;stroke-linejoin:round;stroke-miterlimit:10;" d="
				M855.93,497.58c-2,20.12,3.66,40.81,15.78,57.69c7.56,10.53,18,20.82,17.66,33.42c-0.21,7.62-4.45,14.59-6.65,21.94
				c-2.2,7.35-1.6,16.58,5.33,20.81c12.1,7.38,30.99-6.96,41.98,1.75c7.4,5.86,4.77,18,12.03,24.01c7.45,6.17,19.3,1.69,29.2,3.25
				c11.6,1.83,19.68,12.35,21.55,23c1.87,10.65-2.38,20.92-5.34,31.36"/>
			
				<path style="clip-path:url(#SVGID_00000106831492794864000930000009988709576593412798_);fill:none;stroke:#FFD261;stroke-width:15;stroke-linecap:round;stroke-linejoin:round;stroke-miterlimit:10;" d="
				M1043.72,595.98c-0.77,12.87-7.32,25.06-16.4,34.92s-20.58,17.59-32.5,24.46c-3.18,1.83-6.51,3.71-8.51,6.63
				c-2,2.91-1,6.25,1.56,9.46"/>
			
				<path style="clip-path:url(#SVGID_00000106831492794864000930000009988709576593412798_);fill:none;stroke:#FFD261;stroke-width:15;stroke-linecap:round;stroke-linejoin:round;stroke-miterlimit:10;" d="
				M854.93,505.77c-2.35,10.79-15.86,15.91-27.71,17.75c-11.84,1.84-25.17,2.76-33.19,10.95c-9.01,9.19-7.24,23.28-4.92,35.45
				c3.07,16.13,6.15,32.27,9.22,48.4c6.67,35.01,13.47,70.42,29.17,102.91c2.88,5.97,0.28,7.36,6.03,11.2s16.27,5.57,27.65,6.38"/>
			
				<path style="clip-path:url(#SVGID_00000106831492794864000930000009988709576593412798_);fill:none;stroke:#FFD261;stroke-width:15;stroke-linecap:round;stroke-linejoin:round;stroke-miterlimit:10;" d="
				M590.02,623.06c27.61,43.6,60.35,53.24,105.65,81.86c14.16,8.95,28.52,17.99,44.66,23.44c31.53,10.65,66.33,6.6,99.79,6.52
				c-0.23,0.41-0.45,0.83-0.68,1.24"/>
			
				<path style="clip-path:url(#SVGID_00000106831492794864000930000009988709576593412798_);fill:none;stroke:#FFD261;stroke-width:15;stroke-linecap:round;stroke-linejoin:round;stroke-miterlimit:10;" d="
				M651.72,676.31c0.13-12.78,14.63-23.74,28.35-21.44c8.47,1.42,15.82,6.94,24.41,7.41c9.01,0.49,17.37-4.82,22.79-11.44
				c5.42-6.61,8.58-14.5,12.52-21.94c11.53-21.76,27.48-40.2,50.41-52.19c0.73,2.93,1.25,6.44,1.98,9.37"/>
			
				<path style="clip-path:url(#SVGID_00000106831492794864000930000009988709576593412798_);fill:none;stroke:#FFD261;stroke-width:15;stroke-linecap:round;stroke-linejoin:round;stroke-miterlimit:10;" d="
				M396.59,792.11c14.32-4.66,15.72-3.33,25.2-14.31c5.79-6.71,11.15-13.09,20.04-10.29c7.96,2.5,8.35,12.24,9.62,19.78
				c3.47,20.7,26.72,37,49.76,34.88s42.17-22.33,40.95-43.24c-0.31-5.32-1.65-11.08,1.35-15.65c4.71-7.17,16.11-6.51,25.32-6.09
				s21.35-2.94,21.13-11.28"/>
			
				<path style="clip-path:url(#SVGID_00000106831492794864000930000009988709576593412798_);fill:none;stroke:#FFD468;stroke-width:15;stroke-linecap:round;stroke-linejoin:round;stroke-miterlimit:10;" d="
				M595.44,752.56c-3.07,6.21-0.85,13.59,2.84,19.51c3.7,5.92,8.79,11.07,12.03,17.2c3.24,6.14,4.31,13.95-0.08,19.45
				c-3.1,3.89-8.24,5.85-12.65,8.48c-10.87,6.51-17.8,18.21-17.82,30.11"/>
			<path style="clip-path:url(#SVGID_00000106831492794864000930000009988709576593412798_);fill:#C8EBFC;" d="M473.08,655.89
				c14.61,12.05,38.37,13.46,54.56,3.25c44.05,42.13,91.5,84.5,151.7,103.51c22.58,7.13,46.67,10.86,67.51,21.55
				c17.06,8.75,31,21.69,46.17,32.99c15.17,11.3,32.7,21.35,49.73,25.58c-3.31,11.83-15.66,20.36-28.79,22.53
				c-13.12,2.17-26.72-1.15-38.64-6.64c-11.92-5.49-22.5-13.06-33.41-20.09c-46.08-29.69-98.48-49.98-147.24-75.84
				s-95.55-59.12-121.88-104.76C473.02,658.09,473.24,658.19,473.08,655.89z"/>
			<path style="clip-path:url(#SVGID_00000106831492794864000930000009988709576593412798_);fill:#C8EBFC;" d="M903.83,832.94
				c15.47-13.91,31.05-27.91,49.07-38.96s38.82-19.06,60.49-19.65c38.16-1.03,73.07,20.66,111.14,23.36
				c29.01,2.05,58.78-7.69,79.8-26.12c21.02-18.43,33.45-47.65,31.23-73.52c16.64,2.31,33.85-0.9,45.36-12.14
				c5.79,10.16,6.45,22.3,3.93,33.53c-2.52,11.23-8.02,21.7-14.07,31.74c-14.29,23.71-31.96,45.7-52.43,65.24
				c-14.16,13.53-31.11,26.49-51.47,28.36c-37.64,3.45-67.71-31.46-105.39-34.57c-24.7-2.04-47.95,9.91-69.11,21.76
				s-43.74,24.45-68.53,23.87c-6.59-0.15-13.62-1.48-18.19-5.83C901.1,845.67,899.47,836.86,903.83,832.94z"/>
		</g>
		<g style="clip-path:url(#SVGID_00000015341051008170240890000004118992259750815144_);">
			<g>
				<g>
					
						<ellipse transform="matrix(0.8099 -0.5866 0.5866 0.8099 45.7615 748.6451)" class="st10" cx="1177.73" cy="303.73" rx="74.24" ry="16.89"/>
					
						<ellipse transform="matrix(0.3918 -0.92 0.92 0.3918 441.1042 1243.9849)" class="st10" cx="1161.52" cy="288.33" rx="41.19" ry="18.37"/>
					
						<ellipse transform="matrix(1.110774e-03 -1 1 1.110774e-03 816.3755 1436.176)" class="st10" cx="1127.07" cy="309.45" rx="40.39" ry="18.73"/>
					
						<ellipse transform="matrix(0.054 -0.9985 0.9985 0.054 808.1995 1488.0613)" class="st10" cx="1189.45" cy="317.49" rx="15.71" ry="48.15"/>
					
						<ellipse transform="matrix(0.054 -0.9985 0.9985 0.054 757.1348 1487.5054)" class="st10" cx="1163.63" cy="344.16" rx="15.71" ry="48.15"/>
				</g>
			</g>
			<path class="st11" d="M1123.36,304.85c9.84,20.18-6.27,46.39-6.27,46.39s-32.08-6.49-41.92-26.67s6.27-46.39,6.27-46.39
				S1113.52,284.68,1123.36,304.85z"/>
			<path class="st11" d="M1136.16,246.95c-3.52,6.09-8.24,10.48-11.91,11.44c-0.86,0.23-1.66,0.26-2.38,0.09
				c-0.19-0.05-0.38-0.12-0.58-0.2c0,0,0,0,0,0c-3.47-1.41-7.2-6.91-9.12-13.96c-2.4-8.77-1.1-16.63,2.9-17.55
				c3.36-0.77,8.48,6.9,8.93,20.37c3.4-13.12,10.85-19.35,13.91-17.86C1141.56,231.04,1140.78,238.95,1136.16,246.95z"/>
			<path class="st12" d="M1083.04,282.36c0,0,16.16,23.37,22.54,37.54"/>
			<path class="st12" d="M1075.31,303.73c0,0,15.99,2.73,24.41,5.72"/>
			<path class="st12" d="M1103.37,289.37c0,0-2.85,11.39-5.89,15.47"/>
			<path class="st12" d="M1079.98,323.18c0,0,21.6,1.4,27.98,4.13"/>
			<path class="st12" d="M1117.91,307.99c0,0-3.32,12.85-7.31,19.32"/>
			<path class="st13" d="M1229.86,265.61c0,0-88.91,53.28-100.77,63.44"/>
			<path class="st13" d="M1171.82,257.79c0,0-13.26,31.9-11.61,50.48"/>
			<path class="st13" d="M1125.59,279.4c0,0,1.68,40.63,4.38,48.94"/>
			<path class="st13" d="M1226.55,319.91c-0.26,0.39-43.68-0.72-62.27-14.19"/>
			<path class="st13" d="M1198.99,347.05c0,0-44.93-5.65-64.81-21.81"/>
			<g>
				<path class="st14" d="M1131.61,337.56c17.89,32.52-28.78,30.08-6.97-0.36c-21.8,30.45-42.83-7.79-3.14-5.71
					c-39.69-2.07-14.06-37.87,3.83-5.35c-17.89-32.52,28.78-30.08,6.97,0.36c21.8-30.45,42.83,7.79,3.14,5.71
					C1175.13,334.29,1149.49,370.08,1131.61,337.56z"/>
			</g>
			<path class="st15" d="M1126.91,331.04c-10.22-2.92-20.27-12.62-20.27-12.62"/>
			<path class="st15" d="M1127.07,356.69c0,0,0.47-18.9,0-24.52c-0.99-11.84,2.02-24.61,2.02-24.61"/>
			<path class="st15" d="M1150.45,344.96c-0.64-0.47-10.54-6.64-23.37-12.8"/>
			<path class="st15" d="M1150.97,320.24c0,0-4.05,5.64-24.06,11.61c-6.67,1.99-22.69,11.11-22.69,11.11"/>
		</g>
		<g style="clip-path:url(#SVGID_00000015341051008170240890000004118992259750815144_);">
			<path class="st16" d="M607.83,270.69c0,0,22.58,19.39,51.09,64.61c0,0,42.82,66.57,37.02,88.35c0,0,7.64,54.61-11.44,102.69"/>
			<path class="st10" d="M610.72,280.83c12.57,3.03,19.36,17.27,19.36,17.27s-13.57,9.32-26.14,6.29
				c-12.57-3.03-19.36-17.27-19.36-17.27S598.16,277.8,610.72,280.83z"/>
			<path class="st13" d="M610.73,284.13c0,0,2.27,2.77,3.71,8.28"/>
			<g>
				<path class="st11" d="M734.67,454.01c-10.36,29.48-48.7,44.54-48.7,44.54s-21.54-32.73-11.18-62.2
					c10.36-29.48,48.7-44.54,48.7-44.54S745.04,424.53,734.67,454.01z"/>
				<path class="st11" d="M723.4,258.95c-0.8,12.2-4.93,22.45-10.07,26.45c-1.21,0.94-2.47,1.54-3.77,1.73
					c-0.35,0.04-0.71,0.07-1.09,0.07c0,0,0,0,0,0c-6.72,0.05-17.14-6.32-25.89-16.42c-10.89-12.55-15.08-26.1-9.36-30.27
					c4.8-3.5,19.2,5.44,30.71,26.89c-5.01-23.46,2.04-38.51,8.17-38.17C719.4,229.65,724.45,242.95,723.4,258.95z"/>
				<path class="st17" d="M683.29,215.7c0,0,13.7,25.43,23.02,76.94c0,0,14.53,76.11,0.73,94.63c0,0-13.82,53.58-50.14,92.44"/>
				<path class="st10" d="M746.84,352.13c-9.82,18.31-23.38,31.66-34.12,34.79c-2.53,0.74-4.89,0.91-7.02,0.45
					c-0.57-0.14-1.14-0.32-1.72-0.53c0,0,0,0,0,0c-10.39-3.89-21.95-19.85-28.33-40.56c-7.94-25.76-4.86-49.1,6.87-52.14
					c9.86-2.55,25.75,19.71,28.38,59.54c8.79-39.08,30.23-58.1,39.44-53.96C761.29,304.64,759.72,328.11,746.84,352.13z"/>
				<path class="st11" d="M667.19,300.64c-0.84,11.88-14.8,20.71-14.8,20.71s-12.59-10.42-11.74-22.3
					c0.84-11.88,14.8-20.71,14.8-20.71S668.03,288.77,667.19,300.64z"/>
				<path class="st12" d="M720.27,397.94c-10.24,13.15-16.7,28.75-18.55,44.81"/>
				<path class="st12" d="M693.47,415.49c1.56,6.87,4.82,13.41,9.45,19"/>
				<path class="st12" d="M704.26,449.9c10.87-3.68,20.94-8.88,29.63-15.29"/>
				<path class="st12" d="M682.65,438.4c0.31,3.4,1.74,6.7,4.06,9.37"/>
				<g>
					<g>
						<g>
							<g>
								<path class="st11" d="M572.07,437.29c58,70.67,91.35,142.9,91.35,142.9s-60.69-42.35-118.7-113.02
									c-58-70.67-98.9-134.64-91.35-142.9C460.92,316.03,514.07,366.63,572.07,437.29z"/>
								<path class="st11" d="M563.01,477.58c58.73,44.33,98.56,100.92,98.56,100.92s-55.38-15.3-114.11-59.64
									c-58.73-44.33-102.86-89.52-98.56-100.92C453.19,406.55,504.28,433.25,563.01,477.58z"/>
								<path class="st11" d="M606.8,432.65c40.06,74.69,54.73,143.99,54.73,143.99s-50.28-51.79-90.34-126.48
									S506.62,311,516.46,306.17C526.29,301.33,566.74,357.96,606.8,432.65z"/>
							</g>
							<g>
								<g>
									
										<ellipse transform="matrix(0.5678 -0.8232 0.8232 0.5678 -220.3457 680.5911)" class="st10" cx="537.96" cy="550.13" rx="19.86" ry="86.96"/>
									
										<ellipse transform="matrix(0.9039 -0.4278 0.4278 0.9039 -173.4962 288.1957)" class="st10" cx="554.55" cy="530.16" rx="20.73" ry="50.26"/>
									
										<ellipse transform="matrix(0.996 -0.0889 0.0889 0.996 -46.8755 55.1426)" class="st10" cx="595.3" cy="553.54" rx="21.02" ry="49.56"/>
									
										<ellipse transform="matrix(0.9928 -0.1202 0.1202 0.9928 -64.4246 67.3623)" class="st10" cx="526.24" cy="567.78" rx="54" ry="19.29"/>
									
										<ellipse transform="matrix(0.9928 -0.1202 0.1202 0.9928 -67.8955 71.3908)" class="st10" cx="557.91" cy="598.57" rx="54" ry="19.29"/>
								</g>
							</g>
							<path class="st11" d="M548.13,651.89c-25.7,7.05-53.34-8.06-53.34-8.06s14.03-26.53,39.73-33.58
								c25.7-7.05,53.34,8.06,53.34,8.06S573.83,644.84,548.13,651.89z"/>
							<g>
								<g>
									
										<ellipse transform="matrix(0.9917 -0.1289 0.1289 0.9917 -57.5776 87.867)" class="st10" cx="649.95" cy="488.7" rx="21" ry="82.2"/>
									
										<ellipse transform="matrix(0.437 -0.8995 0.8995 0.437 -55.6903 882.5518)" class="st10" cx="677.15" cy="485.76" rx="50.29" ry="20.72"/>
									
										<ellipse transform="matrix(0.7061 -0.7081 0.7081 0.7061 -172.5636 641.934)" class="st10" cx="687.08" cy="528.86" rx="51.61" ry="20.18"/>
									
										<ellipse transform="matrix(0.5742 -0.8187 0.8187 0.5742 -136.4283 724.1382)" class="st10" cx="627.94" cy="493.23" rx="19.88" ry="52.41"/>
									
										<ellipse transform="matrix(0.5742 -0.8187 0.8187 0.5742 -171.959 740.3214)" class="st10" cx="625.74" cy="535.48" rx="19.88" ry="52.41"/>
								</g>
							</g>
							<path class="st10" d="M451.7,376.05c3.83,5.93,5.44,11.92,4.42,15.28c-0.24,0.79-0.63,1.44-1.16,1.9
								c-0.15,0.12-0.31,0.24-0.48,0.35c0,0,0,0,0,0c-3.12,1.97-10.19,2-17.76-0.18c-9.42-2.72-16.05-7.84-14.81-11.44
								c1.04-3.02,10.85-3.01,23.63,3.68c-10.43-9.51-12.33-18.59-9.35-20.21C439.72,363.51,446.67,368.27,451.7,376.05z"/>
							<path class="st12" d="M501.76,642.43c24.16-13.99,52.56-21.78,81.14-22.25"/>
							<path class="st12" d="M531.97,629.25c-2.86,7.11-7.34,13.68-13.05,19.17"/>
							<path class="st12" d="M552.41,623.67c-2.78,9.79-8.65,18.83-16.72,25.73"/>
							<path class="st12" d="M573.03,621.03c-2.07,9.59-8.56,18.32-17.55,23.59"/>
							<path class="st12" d="M562.66,621.26c-5.02-5.56-12.6-9.13-20.46-9.62"/>
							<path class="st12" d="M541.1,626.06c-5.46-5.3-14-7.78-21.79-6.33"/>
							<path class="st12" d="M521.16,632.8c-4.46-1.87-9.66-2.21-14.36-0.94"/>
							<g>
								<path class="st11" d="M436.98,513.81c19.76,4.29,31.08,25.91,31.08,25.91s-20.71,14.67-40.47,10.38
									c-19.76-4.29-31.08-25.91-31.08-25.91S417.22,509.52,436.98,513.81z"/>
								<path class="st12" d="M401.46,525.55c22.59-2.71,46.18,2.24,65.23,13.69"/>
								<path class="st12" d="M421.44,516c4.86,1.94,8.68,5.78,10.24,10.28"/>
								<path class="st12" d="M438.15,516.54c5.46,3.49,9.6,8.67,11.59,14.49"/>
								<path class="st12" d="M412.66,536.94c9.84-0.27,19.57-3.34,27.51-8.69"/>
								<path class="st12" d="M431.19,543.24c9.77,0.11,19.55-2.91,27.24-8.43"/>
							</g>
							<path class="st13" d="M474.12,505.52c30.02,23.16,61.08,45.16,93.08,65.9"/>
							<path class="st13" d="M482.65,572.95c21.62-0.81,43.02-6.25,61.96-15.74"/>
							<path class="st13" d="M539.9,492.97c12.22,22.08,18.39,46.94,17.79,71.68"/>
							<path class="st13" d="M518.53,603.4c19.34-1.69,38.27-7.18,55.39-16.05"/>
							<path class="st13" d="M591.71,516.46c2.97,16.09,4.7,32.68,5.08,48.72"/>
							<path class="st13" d="M640.76,418.62c-0.38,36.96,6.07,74.6,18.82,109.81l4.78,16.98"/>
							<path class="st13" d="M591.49,468.45c15.8,13.28,35.77,22.82,57.24,27.34"/>
							<path class="st13" d="M618.66,522.31c12.99,4.55,27.24,7.2,41.69,7.75"/>
							<path class="st13" d="M582.32,510.46c2.67-4.08,8.66-5.7,13.68-4.46c5.02,1.24,9.03,4.85,11.55,9.01s3.7,8.88,4.69,13.55"/>
							<path class="st13" d="M696.87,447.44c-8.97,21.61-24.36,41.48-44.4,57.34"/>
							<path class="st18" d="M717.71,495.82c-9.52,21.76-28.26,40.95-51.98,53.21"/>
							<path class="st12" d="M462.48,336.93c51.41,48.41,92.61,105.88,120.68,168.33"/>
							<path class="st12" d="M519.98,318.3c29.94,44.73,55.72,91.81,76.97,140.54"/>
							<path class="st12" d="M454.79,421.68c24.16,22.67,50.6,43.3,78.87,61.56"/>
							<g>
								<g>
									<path class="st2" d="M672.58,509.39c27.08,17.78-8.6,32.59-5.33,2.21c-3.27,30.37-35.11,9.47-4.76-3.12
										c-30.35,12.59-26.51-23.11,0.57-5.34c-27.08-17.78,8.6-32.59,5.33-2.21c3.27-30.37,35.11-9.47,4.76,3.12
										C703.5,491.46,699.66,527.16,672.58,509.39z"/>
								</g>
								<path class="st19" d="M658.54,490.29c4.31,5.07,7.44,10.97,9.53,17.49c4.88-4.21,8.96-9.19,12-14.66"/>
								<path class="st19" d="M687.12,507.58c-6.22-1.7-13.01-1.55-18.57,0.48c3.39,3.49,5.41,8.08,5.6,12.74"/>
								<path class="st19" d="M656.43,518.8c4.81-2.61,8.89-6.32,12.18-10.75c-5.59-2.11-11.46-3.6-17.43-4.42"/>
							</g>
							<g>
								<path class="st20" d="M636.21,587.77c62.26,40.87-19.77,74.91-12.26,5.09c-7.51,69.83-80.71,21.78-10.94-7.18
									c-69.78,28.96-60.95-53.14,1.32-12.27c-62.26-40.87,19.77-74.91,12.26-5.09c7.51-69.83,80.71-21.78,10.94,7.18
									C707.3,546.55,698.47,628.65,636.21,587.77z"/>
							</g>
							<g>
								<path class="st14" d="M602.4,380.89c46.61,30.59-14.8,56.08-9.18,3.81c-5.62,52.27-60.42,16.3-8.19-5.37
									c-52.23,21.68-45.62-39.78,0.99-9.18c-46.61-30.59,14.8-56.08,9.18-3.81c5.62-52.27,60.42-16.3,8.19,5.37
									C655.61,350.04,649,411.49,602.4,380.89z"/>
							</g>
						</g>
						<path class="st21" d="M603.5,537.87c0,0,7.53,27.01,23.13,39.74c6.27-14.25,17.58-26.59,31.8-34.72"/>
						<path class="st21" d="M576.16,577c0,0,28.17,5.78,50.46,0.61c0,0-11.25,23.67-28.05,37.87"/>
						<path class="st21" d="M626.24,578.39c7.94,30.29,19.91,43.53,19.7,43.91"/>
						<path class="st21" d="M675.8,584.72c0,0-26.45,4.5-49.17-7.11"/>
					</g>
					<path class="st22" d="M558.64,372.82"/>
					<path class="st15" d="M555.96,372.46c0,0,11.31,4.56,37.71,3.11c0,0,18.77-2.32,35.39,2.53"/>
					<path class="st15" d="M572.65,404.37c0,0,8.48-20.9,21.56-28.85c0.54-0.33-0.74-0.99-1.1-1.48
						C582.7,359.71,578,343.56,578,343.56"/>
					<path class="st15" d="M609.27,408.01c-0.28-0.2-2.61-17.31-15.65-32.78"/>
					<path class="st15" d="M593.67,375.58c0,0,7.57-20.06,20.94-28.44"/>
				</g>
				<g>
					<path class="st11" d="M818,324.03c-4.4,8.38-17.14,11.14-17.14,11.14s-5.61-10.83-1.21-19.22s17.14-11.14,17.14-11.14
						S822.4,315.65,818,324.03z"/>
					<path class="st12" d="M815.54,306.88c-0.97,10.4-6.13,20.42-14.27,27.72"/>
					<path class="st12" d="M818.5,316.84c-1.56,1.97-4.01,3.27-6.58,3.48"/>
					<path class="st12" d="M816.42,324.26c-2.44,2.07-5.65,3.37-8.97,3.64"/>
					<path class="st12" d="M808.27,310.67c-0.91,4.43-0.31,9.11,1.69,13.24"/>
					<path class="st12" d="M802.93,318.29c-1.1,4.36-0.54,9.06,1.58,13.09"/>
				</g>
				<g>
					<path class="st11" d="M790.07,363.5c-8.17,9.82-25.54,10.29-25.54,10.29s-4.13-15.46,4.03-25.28
						c8.17-9.82,25.54-10.29,25.54-10.29S798.24,353.68,790.07,363.5z"/>
					<path class="st12" d="M791.87,340.6c-4.3,13.28-13.93,25.05-26.65,32.55"/>
					<path class="st12" d="M792.81,354.28c-2.6,2.17-6.17,3.26-9.57,2.92"/>
					<path class="st12" d="M787.95,363.42c-3.78,2.09-8.33,3-12.72,2.53"/>
					<path class="st12" d="M781.31,343.75c-2.48,5.54-3.06,11.78-1.66,17.63"/>
					<path class="st12" d="M772.14,352.35c-2.71,5.4-3.34,11.65-1.76,17.41"/>
				</g>
				<path class="st12" d="M655.36,280.73c0,0-5.95,20.64-3.1,39.38"/>
				<path class="st12" d="M646.52,288.59c0,0-0.04,3.15,5.31,9.35"/>
				<path class="st12" d="M642.82,300.72c0,0,2.55,5.41,8.25,9.89"/>
				<path class="st12" d="M652.81,292.95c0,0,4.59-0.73,7.65-4.16"/>
				<path class="st12" d="M651.58,305.08c0,0,5.27-0.97,11.35-6.46"/>
				<path class="st13" d="M586.74,287.18c0,0,27.94,3.2,40.56,9.98"/>
				<path class="st13" d="M600.32,282.09c0,0,3.17,5.35,4.23,7.99"/>
				<path class="st13" d="M595.73,296.75c0,0,8.85-1.97,12.81-5.81"/>
				<path class="st13" d="M609.82,301.19c0,0,7.7-2.1,11.16-6.75"/>
			</g>
		</g>
		<g style="clip-path:url(#SVGID_00000015341051008170240890000004118992259750815144_);">
			<path class="st11" d="M304.35,669.36c-0.42,6.88-2.71,12.68-5.6,14.95c-0.68,0.53-1.39,0.87-2.12,0.99
				c-0.2,0.03-0.4,0.04-0.61,0.04c0,0,0,0,0,0c-3.79,0.05-9.69-3.52-14.66-9.2c-6.18-7.05-8.58-14.69-5.37-17.05
				c2.7-1.98,10.85,3.02,17.41,15.09c-2.9-13.22,1.04-21.73,4.5-21.55C302.01,652.84,304.9,660.33,304.35,669.36z"/>
			<path class="st11" d="M234.25,676.3c38.71,10.25,58.74,54.52,58.74,54.52s-42.73,27.64-81.44,17.39
				c-38.71-10.25-58.74-54.52-58.74-54.52S195.54,666.04,234.25,676.3z"/>
			<path class="st11" d="M264.26,755.72c21.94-10.26,51.25,2.11,51.25,2.11s-6.26,29-28.2,39.25c-21.94,10.26-51.25-2.11-51.25-2.11
				S242.32,765.98,264.26,755.72z"/>
			<path class="st16" d="M117.86,702.9c0,0,10.7,35.81,45.38,51.66c5.12,2.34,21.83,9.64,58.68,5.54c0,0,28.6-2.63,49.32-14.36"/>
			<path class="st17" d="M50.03,741.97c0,0,29.64,39.72,82.59,47c7.82,1.08,33.18,4.18,80.42-13.45c0,0,36.9-13.01,59.4-34.35"/>
			<path class="st10" d="M181.78,765.53c13.21,1.74,24.02,6.35,27.95,11.37c0.93,1.18,1.47,2.39,1.58,3.58
				c0.02,0.32,0.01,0.66-0.01,1c0,0,0,0,0,0c-0.5,6.14-8.29,15.13-19.99,22.28c-14.56,8.91-29.64,11.61-33.7,6.05
				c-3.41-4.67,7.5-17.08,31.79-25.82c-25.94,2.64-41.73-5.04-40.86-10.61C149.56,766.77,164.45,763.25,181.78,765.53z"/>
			<path class="st11" d="M120.7,770.26c7.32,5.12,12.14,11.23,12.66,15.48c0.12,1,0.01,1.89-0.37,2.64c-0.11,0.2-0.23,0.4-0.38,0.6
				c0,0,0,0,0,0c-2.56,3.55-10.56,6.55-20.24,7.26c-12.04,0.87-22.13-2.15-22.53-6.75c-0.33-3.87,10.8-7.98,28.65-5.75
				c-16.6-6.41-23.29-15.91-20.72-19C100.83,761.06,111.1,763.54,120.7,770.26z"/>
			<path class="st10" d="M80.47,756.17c3.49,5.69,4.86,11.45,3.77,14.73c-0.25,0.77-0.64,1.4-1.17,1.86
				c-0.15,0.12-0.3,0.23-0.47,0.34c0,0,0,0,0,0c-3.05,1.96-9.82,2.11-17.01,0.11c-8.94-2.48-15.14-7.33-13.85-10.84
				c1.09-2.95,10.49-3.09,22.53,3.18c-9.71-9.05-11.26-17.81-8.35-19.42C69.37,744.22,75.89,748.71,80.47,756.17z"/>
			<path class="st11" d="M154.7,730.25c3.71,8.34,4.53,16.36,2.51,20.52c-0.48,0.98-1.11,1.74-1.9,2.25
				c-0.22,0.13-0.45,0.25-0.7,0.36c0,0,0,0,0,0c-4.45,2-13.59,0.8-22.92-3.36c-11.6-5.17-19.1-12.95-16.75-17.39
				c1.98-3.73,14.66-1.99,29.76,8.91c-11.49-14.13-12.04-26.19-7.84-27.75C141.85,711.94,149.84,719.3,154.7,730.25z"/>
			<path class="st12" d="M156.5,693.47c31.86,17.7,68.17,28.85,105.39,32.37"/>
			<g>
				<g>
					<path class="st2" d="M304.95,731.85c37.74,27.57-15.09,46.56-7.9,2.84c-7.2,43.73-51.57,11.31-6.63-4.84
						c-44.94,16.15-36.48-35.26,1.26-7.68c-37.74-27.57,15.09-46.56,7.9-2.84c7.2-43.73,51.57-11.31,6.63,4.84
						C351.16,708.01,342.7,759.42,304.95,731.85z"/>
				</g>
				<path class="st23" d="M289.7,704.63c-0.59,8.05,2.07,16.27,8.08,23.31c4.55-7.51,11.23-13.93,19.2-18.46"/>
				<path class="st23" d="M323.58,730.03c-7.84-3.03-16.73-3.72-25.53-1.62c5.42,6.27,8.56,14.17,8.8,22.17"/>
				<path class="st23" d="M281.52,745.2c6.77-3.68,12.15-9.46,16.1-17.5c-7.57,2.42-16.45,0.98-22.66-3.66"/>
			</g>
			<path class="st12" d="M185.93,680.88c9.48,10.4,17.31,22.07,23.13,34.52"/>
			<path class="st12" d="M224.54,680.5c11.72,11.76,18.87,27.26,19.88,43.16"/>
			<path class="st12" d="M181.63,728.31c15.77,3.82,33.3,1,46.69-7.53"/>
			<path class="st12" d="M218.54,743.33c15.51,0.86,31.29-5.85,40.58-17.26"/>
			<path class="st12" d="M238.57,793.45c15.17-18.08,38.33-30.37,63-33.44"/>
			<path class="st12" d="M263.42,772.92c-2.37,8.48-6.67,16.51-12.54,23.42"/>
			<path class="st12" d="M283.1,764.46c-1.66,12.37-7.39,24.26-16.25,33.73"/>
			<path class="st12" d="M299.39,760.81c0.26,11.58-3.97,23.2-11.76,32.31"/>
			<path class="st12" d="M272.24,768.18c-8.68-1.54-18.04,0.51-25.02,5.47"/>
			<path class="st12" d="M291.99,761.79c-10.52-3.77-22.72-3.4-32.94,1.02"/>
		</g>
		
			<rect style="clip-path:url(#SVGID_00000015341051008170240890000004118992259750815144_);fill:none;" width="1280" height="832.12"/>
		
			<rect x="9" style="clip-path:url(#SVGID_00000015341051008170240890000004118992259750815144_);fill:none;" width="1271" height="832"/>
	</g>
</g>
</svg>
