<?xml version="1.0" encoding="utf-8"?>
<!-- Generator: Adobe Illustrator 27.4.0, SVG Export Plug-In . SVG Version: 6.00 Build 0)  -->
<svg version="1.1" id="레이어_1" xmlns="http://www.w3.org/2000/svg" xmlns:xlink="http://www.w3.org/1999/xlink" x="0px"
	 y="0px" viewBox="0 0 1440 1024" style="enable-background:new 0 0 1440 1024;" xml:space="preserve">
<style type="text/css">
	.st0{clip-path:url(#SVGID_00000109726492468624084630000003469531956565902767_);}
	.st1{fill:#FFC799;}
	.st2{clip-path:url(#SVGID_00000109726492468624084630000003469531956565902767_);fill:#FFC799;}
	
		.st3{clip-path:url(#SVGID_00000109726492468624084630000003469531956565902767_);fill:none;stroke:#FFB499;stroke-width:3;stroke-linecap:round;stroke-linejoin:round;stroke-miterlimit:10;}
	.st4{clip-path:url(#SVGID_00000072998128773462698780000005838476540575351181_);fill:none;stroke:#000000;stroke-miterlimit:10;}
	.st5{clip-path:url(#SVGID_00000072998128773462698780000005838476540575351181_);fill:#FEE29A;}
	
		.st6{clip-path:url(#SVGID_00000072998128773462698780000005838476540575351181_);fill:none;stroke:#FFD261;stroke-width:15;stroke-linecap:round;stroke-linejoin:round;stroke-miterlimit:10;}
	
		.st7{clip-path:url(#SVGID_00000072998128773462698780000005838476540575351181_);fill:none;stroke:#FFD468;stroke-width:15;stroke-linecap:round;stroke-linejoin:round;stroke-miterlimit:10;}
	.st8{clip-path:url(#SVGID_00000072998128773462698780000005838476540575351181_);fill:#C8EBFC;}
	.st9{fill:#6C804B;}
	.st10{fill:#ABB869;}
	.st11{fill:none;stroke:#808A4E;stroke-width:3;stroke-linecap:round;stroke-linejoin:round;stroke-miterlimit:10;}
	.st12{fill:none;stroke:#9ABA66;stroke-width:3;stroke-linecap:round;stroke-linejoin:round;stroke-miterlimit:10;}
	.st13{fill:#D9E529;}
	.st14{fill:none;stroke:#BBDB1A;stroke-width:3;stroke-linecap:round;stroke-linejoin:round;stroke-miterlimit:10;}
	.st15{fill:none;stroke:#6C804B;stroke-width:7;stroke-linecap:round;stroke-linejoin:round;stroke-miterlimit:10;}
	.st16{fill:none;stroke:#ABB869;stroke-width:7;stroke-linecap:round;stroke-linejoin:round;stroke-miterlimit:10;}
	.st17{fill:none;stroke:#A5B265;stroke-width:3;stroke-linecap:round;stroke-linejoin:round;stroke-miterlimit:10;}
	.st18{fill:none;stroke:#FFB499;stroke-width:3;stroke-linecap:round;stroke-miterlimit:10;}
	.st19{fill:#FFC300;}
	.st20{fill:none;stroke:#FFA600;stroke-width:5;stroke-linecap:round;stroke-linejoin:round;stroke-miterlimit:10;}
	.st21{fill:none;stroke:#98E529;stroke-width:3;stroke-linecap:round;stroke-linejoin:round;stroke-miterlimit:10;}
	.st22{fill:none;stroke:#FFB499;stroke-width:5;stroke-linecap:round;stroke-linejoin:round;stroke-miterlimit:10;}
	.st23{fill:#463C33;}
</style>
<g>
	<defs>
		<rect id="SVGID_1_" y="24.65" width="1440" height="999.3"/>
	</defs>
	<clipPath id="SVGID_00000085940783597891636340000002230217065248627887_">
		<use xlink:href="#SVGID_1_"  style="overflow:visible;"/>
	</clipPath>
	<g style="clip-path:url(#SVGID_00000085940783597891636340000002230217065248627887_);">
		<path class="st1" d="M105.65,257.74c27.71,24.69-14.29,37.76-6.27,1.95c-8.01,35.8-40.59,6.78-4.87-4.34
			c-35.72,11.12-26.3-30.98,1.41-6.29c-27.71-24.69,14.29-37.76,6.27-1.95c8.01-35.8,40.59-6.78,4.87,4.34
			C142.77,240.33,133.35,282.43,105.65,257.74z"/>
	</g>
	<path style="clip-path:url(#SVGID_00000085940783597891636340000002230217065248627887_);fill:#FFC799;" d="M541.48,212.49
		c-12.13,7.5-29.99,1.19-29.99,1.19s1.81-18.48,13.94-25.99s25.56-8.04,29.99-1.19C559.85,193.35,553.61,204.98,541.48,212.49z"/>
	<path style="clip-path:url(#SVGID_00000085940783597891636340000002230217065248627887_);fill:#FFC799;" d="M532.71,172.47
		c-4.79,8.11-18.33,9.23-18.33,9.23s-5.78-12.02-0.99-20.13c4.79-8.11,12.99-12.24,18.33-9.23S537.5,164.36,532.71,172.47z"/>
	<path style="clip-path:url(#SVGID_00000085940783597891636340000002230217065248627887_);fill:#FFC799;" d="M146.44,247.65
		c-4.78,2.86-12.35-0.72-12.35-0.72s0.18-8.22,4.96-11.09c4.78-2.86,10.31-2.54,12.35,0.72S151.23,244.79,146.44,247.65z"/>
	
		<path style="clip-path:url(#SVGID_00000085940783597891636340000002230217065248627887_);fill:none;stroke:#FFB499;stroke-width:3;stroke-linecap:round;stroke-linejoin:round;stroke-miterlimit:10;" d="
		M514.91,179.65c0.72-7.89,5-15.4,11.47-20.15"/>
	
		<path style="clip-path:url(#SVGID_00000085940783597891636340000002230217065248627887_);fill:none;stroke:#FFB499;stroke-width:3;stroke-linecap:round;stroke-linejoin:round;stroke-miterlimit:10;" d="
		M512.84,212.33c8.81-8.11,19.73-14.02,31.44-17"/>
	
		<path style="clip-path:url(#SVGID_00000085940783597891636340000002230217065248627887_);fill:none;stroke:#FFB499;stroke-width:3;stroke-linecap:round;stroke-linejoin:round;stroke-miterlimit:10;" d="
		M93.47,230.98c1.01,8.38,3.32,16.6,7.12,24.78c3.97-7.07,9.81-13.12,16.79-17.39"/>
	
		<path style="clip-path:url(#SVGID_00000085940783597891636340000002230217065248627887_);fill:none;stroke:#FFB499;stroke-width:3;stroke-linecap:round;stroke-linejoin:round;stroke-miterlimit:10;" d="
		M121.56,259.94c-6.34-3.34-13.72-4.76-21.25-4.44c3.26,5.98,4.94,12.78,4.85,19.56"/>
	
		<path style="clip-path:url(#SVGID_00000085940783597891636340000002230217065248627887_);fill:none;stroke:#FFB499;stroke-width:3;stroke-linecap:round;stroke-linejoin:round;stroke-miterlimit:10;" d="
		M82.86,272.17c4.13-7.01,10.26-12.87,17.58-16.25c-5.84-5.79-14.27-8.98-22.57-8.55"/>
	
		<path style="clip-path:url(#SVGID_00000085940783597891636340000002230217065248627887_);fill:none;stroke:#FFB499;stroke-width:3;stroke-linecap:round;stroke-linejoin:round;stroke-miterlimit:10;" d="
		M134.87,246.42c1.56-3.36,4.44-6.12,7.91-7.58"/>
	<g style="clip-path:url(#SVGID_00000085940783597891636340000002230217065248627887_);">
		<defs>
			<path id="SVGID_00000183241371088502735790000006382795765486354610_" d="M475.33,799.19c0.59-0.12,1.15-0.39,1.68-0.67
				c0.72-0.38,1.5-0.67,2.27-0.92c1.3-0.4,2.63-0.68,3.98-0.87c0.29-0.04,0.58-0.08,0.87-0.11c0.8-0.09,1.61-0.15,2.42-0.18
				c0.81-0.03,1.63-0.02,2.44,0.01c0.82,0.03,1.64,0.1,2.46,0.19c0.82,0.09,1.64,0.21,2.46,0.35c0.82,0.14,1.64,0.31,2.45,0.5
				c0.82,0.19,1.63,0.41,2.44,0.64c0.81,0.24,1.61,0.49,2.41,0.77c0.8,0.28,1.59,0.57,2.37,0.89c0.78,0.31,1.55,0.64,2.32,0.99
				c0.76,0.34,1.51,0.71,2.26,1.08c0.26,0.13,0.52,0.26,0.77,0.4c0.13,0.07,0.26,0.13,0.38,0.2c0.06,0.03,0.12,0.07,0.19,0.1
				c0.04,0.02,0.14,0.1,0.18,0.1c10.67,5.79,19.9,14,30.97,19c16.48,7.44,36.25,6.99,52.81-0.27s29.84-21,37.32-37.17
				c6.7-6.39,13.41-12.6,21.9-14.66c6.63-1.61,13.58-0.5,20.37,0.25c6.79,0.75,13.99,1.07,20.1-1.91
				c7.86-3.84,12.22-12.43,13.7-20.89c1.49-8.46,0.64-17.13,1-25.71c0.53-12.6,3.69-25.09,9.23-36.48
				c3.69-8.79,11.8-14.54,17.02-22.2c3.93-5.77,6.15-12.58,6.86-19.48c0.71-6.9-0.05-13.9-1.73-20.64c-2.3-4.02-4.4-7.57-6.5-11.12
				c-1.55-2.62-3.11-5.26-4-8.16c-1.59-5.15-0.87-10.94,1.92-15.57c2.79-4.64,7.62-8.05,13-9.2c5.85-1.24,11.99,0.11,17.9-0.79
				c17.59,0.64,35.14-0.73,52.25-4.17c5.72-1.15,11.67-2.67,15.93-6.57c5.7-5.22,7.4-13.84,13.57-18.52
				c4.82-3.65,11.38-4.13,17.47-3.81c13.3,0.7,26.42,4.52,37.94,11.06c9.63,5.2,17.59,13.15,23.07,22.51
				c3.88,6.64,6.51,13.89,9.82,20.82c3.31,6.93,7.46,13.71,13.64,18.39c5.4,4.09,12.6,6.38,19.18,4.6s11.88-8.39,10.69-14.97
				c-0.92-5.1-5.19-8.93-9.43-12.04c-4.24-3.1-8.9-6.09-11.32-10.7c-2.89-5.51-1.88-12.41,1.3-17.76s8.26-9.38,13.58-12.74
				c6.47-4.09,13.5-7.41,19.28-12.38c4.3-3.7,7.82-8.25,10.28-13.31c6.13-5.23,6.71-13.66,5.72-21.06s-3.14-14.89-1.66-22.21
				c2.1-10.33,12.15-18.56,22.92-18.76c4.1-0.08,8.18,0.88,12.28,0.73c4.1-0.15,8.56-1.77,10.33-5.39
				c2.64-5.41-1.91-11.37-3.23-17.22c-1.64-7.32,2.15-15.02,7.87-20c5.72-4.98,13.11-7.7,20.43-9.9c7.71-2.32,15.66-4.2,23.73-4.14
				c8.07,0.06,16.32,2.21,22.56,7.21c4.66,3.74,8.13,8.98,13.49,11.69c11.59,5.86,26.16-2.53,38.57,1.41
				c7.2,2.29,12.84,8.52,20.33,9.6c6.27,0.91,12.36-2,18.22-4.38c5.85-2.38,12.7-4.25,18.35-1.44c6.32,1.69,12.6,0.43,18.19-1.7
				s10.84-5.09,16.58-6.77s12.32-1.91,17.38,1.24c3.75,2.34,6.16,6.2,9.05,9.51c7.71,8.86,19.58,14.1,31.47,13.9
				c6.75,1.62,11.15,7.45,12.5,13.54c1.35,6.09,0.2,12.41-1.17,18.49c-1.37,6.08-2.97,12.23-2.53,18.44
				c0.87,12.36,9.74,23.94,7.38,36.11c-1.86,9.56-10.43,17.35-10.48,27.08c-0.06,10.62,10.11,18.61,20.22,22.47
				s21.37,5.49,30.14,11.77c7.38,5.28,12.33,13.7,13.29,22.6c0.95,8.9-2.1,18.14-8.21,24.8c-4.43,4.83-10.88,9.82-9.47,16.16
				c1.94,8.69,15.97,8.55,20.62,16.2c6.47,6.95,12.51,14.79,12.18,23.75c-0.28,7.71-5.29,14.53-6.52,22.14
				c-1.28,7.87,1.55,15.75,3.58,23.47s3.15,16.43-1.09,23.24c-3.53,5.67-10.04,8.81-14.74,13.59c-6.32,6.42-9.09,15.99-7.16,24.7
				c-12.57,7.39-19.38,17.7-20.26,28.63s4.2,22.16,13.06,28.88c10.06,7.63,23.88,9.14,36.4,6.87s24.1-7.91,35.48-13.49
				c3.07,48.2,4.55,96.47,6.03,144.75c0.82,26.61,1.5,54.02-8.1,78.94c-332.99-7.55-660.99-20.83-988.36-43.01
				c5.71-14.91,9.24-33.02,2.21-48.17c-7.03-15.15-27.03-24.82-42.09-17.07c-8.32,4.28-13.53,12.57-20.39,18.85
				c-6.86,6.28-17.89,10.5-25.41,4.98c-11.77-8.62-1.97-29.48-11.8-40.17c-7.71-8.38-21.45-4.92-32.83-3.08
				c-13.62,2.21-28.65,0.66-39.37-7.85c-10.72-8.51-15.06-25.24-6.77-36.03c3.85-5.02,9.71-8.14,14.26-12.58
				c9.5-9.27,12.29-23.13,19.34-34.29c9.79-15.5,26.94-24.71,42.3-35.03s30.57-24.19,32.48-42.32c0.81-7.68-0.9-15.41-0.89-23.13
				c0.02-7.73,2.29-16.19,8.92-20.55c3.81-2.01,8.43-2.18,12.63-1.19s8.06,3.06,11.7,5.35c17.11,10.77,30.18,26.55,43.04,41.97
				c1.64,1.96,3.3,3.98,5.33,5.57c0.49,0.39,1.01,0.75,1.55,1.07c1.29,0.77,2.71,1.31,4.12,1.85c0.72,0.28,1.47,0.56,2.24,0.54
				C474.92,799.26,475.12,799.23,475.33,799.19z"/>
		</defs>
		<clipPath id="SVGID_00000149376116514931870530000008183191667152842397_">
			<use xlink:href="#SVGID_00000183241371088502735790000006382795765486354610_"  style="overflow:visible;"/>
		</clipPath>
		
			<path style="clip-path:url(#SVGID_00000149376116514931870530000008183191667152842397_);fill:none;stroke:#000000;stroke-miterlimit:10;" d="
			M612.99,702.72"/>
		<path style="clip-path:url(#SVGID_00000149376116514931870530000008183191667152842397_);fill:#FEE29A;" d="M401.88,738.15
			c-9.47-3.74-19.35,6.2-20.84,15.93s1.81,19.63,0.93,29.43c-1.83,20.25-20.37,34.87-37.77,46.44s-36.63,24.54-41.2,44.39
			c-1.18,5.14-1.43,10.82-4.92,14.87c-3.81,4.41-10.29,5.52-15.48,8.35c-10.37,5.65-14.95,18.7-12.05,29.8
			c2.9,11.1,12.2,20.02,23.08,24.68c10.88,4.67,23.19,5.5,35.06,4.48c6.45-0.56,13.06-1.63,19.33-0.06
			c6.27,1.56,12.18,6.73,11.84,12.94c-0.25,4.57-3.69,8.41-4.76,12.88c-2.46,10.34,9.4,19.68,20.43,19.31
			c11.04-0.37,20.59-7.18,29-14.06c10.14-8.28,23.46-17.69,35.4-12.04c9.26,4.38,12.04,15.55,13.78,25.32
			c1.14,6.41,2.29,12.99,1.04,19.39c-2.75,14.09-16.49,24.67-18.29,38.89c-1.3,10.26,3.91,20.92,0.7,30.78
			c-3.47,10.69-15.23,16.29-25.07,22.31c-9.83,6.02-19.63,16.46-15.93,27.08c1.99,5.69,7.35,9.53,11.69,13.86
			c4.33,4.33,7.96,10.64,7.5,21.76c-14.7,5.43-22.51,23.71-16.01,37.48c6.5,13.77,25.96,20.19,39.91,13.16
			c11.1-5.6,20.91-18.47,32.8-14.64c4.95,1.6,8.36,5.82,12.44,8.95c12.27,9.39,30.63,8.19,44.39,0.94s23.85-19.43,33.18-31.55
			c9.33-12.12,18.51-24.74,31.26-33.54c5.34-3.68,13.57-6.29,17.81-1.47c3.29,3.74,1.64,9.6-1.41,13.53s-7.3,7.01-9.62,11.37
			c-5.87,11.01,3,24.05,12.92,31.95s22.11,15.01,25.63,26.91c2.55,8.64-0.16,18.18,2.78,26.7c4.29,12.42,18.78,18.58,26.63,29.28
			c8.13,11.09,8.23,25.61,10.01,39.07c1.78,13.46,7.03,28.43,20.06,33.68c13.08,5.27,27.73-1.61,40.08-8.31
			c16.98-9.21,34.42-18.79,46.46-33.52c4-4.89,8.82-10.95,15.23-10.02c5.01,0.73,8.19,5.66,9.39,10.39
			c1.2,4.73,1.16,9.78,3.16,14.25c4.07,9.1,15.73,13.23,25.98,12.07s19.42-6.41,28.56-14.41c20.88,0.62,43.18,0.89,60.82-9.85
			c11.51-7.01,19.68-17.94,29.29-27.21c13.58-13.1,30.13-22.92,46.52-32.62c9.23-5.47,20.09-11.15,30.37-7.81
			c9.75,3.16,15.35,13.46,24.89,17.15c11.36,4.38,23.76-1.83,35.21-5.98c11.45-4.15,27.36-4.74,32.88,5.75
			c6.4,12.18-7.79,26.06-5.76,39.57c2.36,15.69,23.66,20.96,32.98,34.05c6.42,9.03,6.8,21.48,14.65,29.39
			c11.24,11.33,30.62,7.4,46.15,2.64c26.45-8.12,55.44-18.21,68.46-41.76c4.36-7.88,7.19-17.49,15.31-21.81
			c8.4-4.46,19.6-1.49,27.76-6.33c13.62-8.08,8.02-29.51,18.01-41.52c6.06-7.29,16.64-9.5,26.36-9.51
			c9.71-0.02,19.51,1.66,29.09,0.08c9.57-1.58,19.35-7.6,23.32-16.56c-1.7-7.99,5.64-15.25,13.37-18.61
			c7.73-3.37,16.52-4.62,23.46-9.31c4.97-3.36,8.59-8.24,13.14-12.12c9.44-8.04,22.14-11.26,33.82-15.83
			c20.01-7.84,38.01-20.35,52.02-36.15c7.83-8.82,14.52-18.88,17.4-30.14c2.88-11.26,1.55-23.86-5.46-33.3
			c-10.67-14.36-31.33-18.35-44.34-30.81c-2.68-2.56-5.16-5.57-8.7-6.84c-3.54-1.27-8.52,0.29-10.04,4.07
			c0.23,1.75,0.45,3.59-0.19,5.25s-2.44,3.05-4.24,2.65c-1.98-0.44-2.89-2.76-2.68-4.7c0.21-1.94,1.19-3.74,1.57-5.66
			c1.58-7.9-6.93-14.77-6.92-22.82c0.01-5.38,3.8-9.97,7.12-14.3c8.16-10.62,14.62-22.45,19.07-34.94
			c2.51-7.04,4.48-14.48,9.25-20.35c9.04-11.15,25.39-13.61,40.1-14.1c8.67-0.29,17.77-0.29,25.36-4.31
			c7.59-4.02,12.75-13.7,9.23-20.52c-5.2-6.99-4.79-16.46-2.86-24.85c1.92-8.39,5.16-16.66,4.89-25.25
			c-0.56-17.7-15.71-32.47-17.07-50.13c-0.54-7.06,1.02-14.8-2.98-20.75c-4.81-7.15-15.46-8.13-24.06-6.06
			c-25.71,6.19-42.7,31.26-68.21,38.15c-10.69,2.89-22.25,2.36-32.62,6.17c-15.44,5.67-25.85,19.98-40.83,26.68
			c-15.76,7.05-35.77,4.18-48.75-7.05c-9.78-6.36-13.06-20.36-7.06-30.13c4.81-7.84,14.48-12.87,16.78-21.69
			c1.38-5.31-0.13-11.44,3.05-15.98c3.06-4.36,9.18-5.42,13.77-8.29c6.75-4.23,9.87-12.37,10.07-20.11s-2.02-15.31-3.8-22.86
			c-1.77-7.55-3.09-15.47-1.09-22.97c1.67-6.28,5.62-12,6.1-18.47c0.83-11.05-8.84-20.51-19.4-24.96c-4.13-1.74-8.6-3.04-11.95-5.94
			c-3.34-2.9-5.11-8.13-3.59-13.2c11.51-6.6,18.69-19.6,17.92-32.45c-0.76-12.85-9.44-24.98-21.65-30.28
			c-7.91-3.43-16.8-4.08-25.03-6.72c-8.23-2.63-16.46-8.27-17.74-16.51c-1.65-10.64,8.7-19.54,10.6-30.14
			c2.33-13.05-8.47-25.2-8.73-38.44c-0.24-12.28,8.63-24.3,5.18-36.13c-2-6.84-7.92-12.13-14.58-15.24
			c-6.66-3.11-14.06-4.35-19.53-5.49c-5.57,0.15-9.97-4.41-12.93-8.94c-2.96-4.52-5.63-9.69-10.58-12.12
			c-5.35-2.63-11.9-1.28-17.36,1.12s-10.47,5.81-16.23,7.44c-11.38,3.2-24.15-0.96-35.22,3.14c-4.59,1.7-9.04,4.82-13.91,4.12
			c-3.34-0.48-6.07-2.68-8.89-4.47c-7.84-4.98-17.58-7.13-26.83-5.65c-7.61-1.25-15.42,4.6-22.73,2.22
			c-5.83-1.9-8.58-8.1-12.73-12.47c-5.65-5.96-14.33-8.6-22.72-8.81s-16.66,1.77-24.79,3.76c-7.86,1.93-15.91,3.98-22.55,8.46
			c-6.64,4.48-11.69,11.97-10.8,19.71c0.42,3.72,2.14,7.17,3.01,10.82s0.68,7.91-2.1,10.53c-3.04,2.87-7.86,2.69-12.13,2.69
			c-8.93,0-18.27,1.84-25.06,7.4c-6.79,5.56-10.17,15.52-5.78,23.98c3.84,13.01,0.39,27.85-9.06,37.88
			c-5.63,5.98-13,10.13-20.03,14.52s-14.04,9.32-18.34,16.25c-4.3,6.92-5.28,16.31-0.32,22.81c5.72,7.48,18.11,10.2,20.07,19.28
			c1.7,7.85-7.01,15.14-15.35,14.7s-15.34-6.46-19.64-13.33c-4.3-6.87-6.56-14.71-9.99-22.02c-10.41-22.18-32.34-39.03-57.16-43.92
			c-6.88-1.36-14.1-1.83-20.87-0.05c-6.77,1.78-13.06,6.08-15.9,12.25c-1.49,3.25-2.02,6.93-4.11,9.85c-3.25,4.55-9.37,6.16-15,7.25
			c-17,3.31-34.35,4.96-51.69,4.91c-7.83-0.02-15.85-0.36-23.28,2.03c-7.43,2.38-14.26,8.24-14.98,15.72
			c-0.71,7.41,4.48,13.96,7.95,20.62c7.88,15.12,6.98,34.14-2.86,49.31c-15.69,15.51-24.93,36.88-25.31,58.5
			c-0.14,7.86,0.84,15.76-0.22,23.55c-1.06,7.79-4.61,15.78-11.57,19.9c-12.24,7.24-28.45-0.28-42.39,3.07
			c-14.94,3.59-23.35,18.2-32.54,30.07c-8.03,10.38-18.05,19.66-30.28,25.09c-12.22,5.44-26.84,6.69-39.18,1.5
			c-10.57-4.45-18.55-13.03-28.08-19.29c-9-5.92-19.48-9.75-31.7-11.02c-11,3.63-23.27-1.57-31.83-9.14
			c-8.56-7.56-14.65-17.33-22.51-25.56C426.6,750.69,414.62,743.18,401.88,738.15z"/>
		
			<path style="clip-path:url(#SVGID_00000149376116514931870530000008183191667152842397_);fill:none;stroke:#FFD261;stroke-width:15;stroke-linecap:round;stroke-linejoin:round;stroke-miterlimit:10;" d="
			M1200.4,434.34c-14.14,39.45-14.05,83.61,0.25,123.01c6.24,17.19,14.74,37.51,3.72,52.23c-6.2,8.28-16.89,11.87-25.2,18.14
			c-8.31,6.27-14.06,18.99-6.82,26.41"/>
		
			<path style="clip-path:url(#SVGID_00000149376116514931870530000008183191667152842397_);fill:none;stroke:#FFD261;stroke-width:15;stroke-linecap:round;stroke-linejoin:round;stroke-miterlimit:10;" d="
			M1044.01,459.36c28.97,7.36,49.92,37.43,46.32,66.48c-2.18,17.58-11.81,36.62-2.41,51.75c8.6,13.84,28.08,15.69,42.19,24.16
			c23.2,13.94,29.69,44.3,49.07,63.01c12.7,12.26,30.41,18.97,41.98,32.26c16.38,18.82,16.76,46.04,26.34,68.91
			c5.95,14.2,15.46,26.66,22.98,40.13c7.52,13.47,13.15,28.9,10.3,43.99"/>
		
			<path style="clip-path:url(#SVGID_00000149376116514931870530000008183191667152842397_);fill:none;stroke:#FFD261;stroke-width:15;stroke-linecap:round;stroke-linejoin:round;stroke-miterlimit:10;" d="
			M1228.59,708.13c-0.96,4.05,3.12,7.94,7.41,8.44c4.29,0.49,8.45-1.45,12.12-3.65c11.32-6.8,20.45-16.45,31.03-24.27
			s23.73-13.95,36.9-11.85c11.26,1.79,21.51,9.44,32.86,8.25c7.88-0.83,14.87-2.97,18.68-9.67c4.9-8.61,13.59-9.17,16.58-17.54"/>
		
			<path style="clip-path:url(#SVGID_00000149376116514931870530000008183191667152842397_);fill:none;stroke:#FFD261;stroke-width:15;stroke-linecap:round;stroke-linejoin:round;stroke-miterlimit:10;" d="
			M1366.8,841.93c-17.78,8.16-45.75,11.06-64.8,6.4c-4.85-1.19-10.02-2.78-14.72-1.12c-7.54,2.66-9.71,11.76-13.31,18.76
			c-4.63,9-13.6,16.02-23.8,17.41c-12.65,1.72-24.9-4.98-34.84-12.81s-18.97-17.16-30.59-22.33c-13.92-6.19-30.83-5.5-44.17,1.82
			c-17.86,9.8-27.45,29.09-37.31,46.63s-23.02,35.83-42.98,40.3"/>
		
			<path style="clip-path:url(#SVGID_00000149376116514931870530000008183191667152842397_);fill:none;stroke:#FFD261;stroke-width:15;stroke-linecap:round;stroke-linejoin:round;stroke-miterlimit:10;" d="
			M1111.99,966.52c-7.62,1.92-15.4,3.85-23.25,3.31c-7.85-0.54-15.91-4.01-19.9-10.64c-2.81-4.68-3.31-10.34-5.6-15.28
			c-5.25-11.33-18.5-16.58-30.71-20.09c-28.61-8.22-58.33-12.69-88.14-13.26c-5.92-0.11-12.24,0.04-17.16,3.26
			c-5.61,3.68-8.03,10.4-10.72,16.46c-10.69,24.12-31.13,43.95-55.88,54.22"/>
		
			<path style="clip-path:url(#SVGID_00000149376116514931870530000008183191667152842397_);fill:none;stroke:#FFD261;stroke-width:15;stroke-linecap:round;stroke-linejoin:round;stroke-miterlimit:10;" d="
			M963.39,611.47c9.33,17.41,29.43,26.12,48.2,33.16s39.02,14.7,49.85,31.27c4.88,7.47,7.42,16.24,12.4,23.65
			c5.05,7.51,12.35,13.26,19.53,18.88c9.45,7.4,19.08,14.9,30.3,19.35c14.94,5.92,31.86,5.97,47.52,2.22s30.19-11.11,43.76-19.62
			c3.42-2.14,6.89-4.41,10.86-5.23s8.64,0.18,10.92,3.47"/>
		
			<path style="clip-path:url(#SVGID_00000149376116514931870530000008183191667152842397_);fill:none;stroke:#FFD261;stroke-width:15;stroke-linecap:round;stroke-linejoin:round;stroke-miterlimit:10;" d="
			M962.93,622.2c-2.25,24.16,4.11,49.01,17.75,69.28c8.51,12.65,20.25,25,19.86,40.14c-0.24,9.15-5.01,17.52-7.48,26.35
			c-2.47,8.83-1.79,19.91,6,24.99c13.62,8.86,34.86-8.36,47.23,2.1c8.32,7.04,5.37,21.62,13.53,28.83
			c8.39,7.41,21.71,2.03,32.85,3.9c13.05,2.19,22.14,14.83,24.24,27.62c2.1,12.79-2.67,25.12-6.01,37.66"/>
		
			<path style="clip-path:url(#SVGID_00000149376116514931870530000008183191667152842397_);fill:none;stroke:#FFD261;stroke-width:15;stroke-linecap:round;stroke-linejoin:round;stroke-miterlimit:10;" d="
			M1174.18,740.37c-0.87,15.46-8.24,30.1-18.45,41.93c-10.21,11.84-23.16,21.12-36.56,29.37c-3.58,2.2-7.32,4.46-9.57,7.96
			c-2.25,3.5-1.12,7.5,1.75,11.36"/>
		
			<path style="clip-path:url(#SVGID_00000149376116514931870530000008183191667152842397_);fill:none;stroke:#FFD261;stroke-width:15;stroke-linecap:round;stroke-linejoin:round;stroke-miterlimit:10;" d="
			M961.8,632.04c-2.65,12.96-17.85,19.11-31.17,21.32c-13.32,2.21-28.31,3.32-37.34,13.15c-10.13,11.04-8.15,27.95-5.54,42.57
			c3.46,19.37,6.91,38.75,10.37,58.12c7.5,42.04,15.15,84.56,32.82,123.58c3.24,7.16,0.32,8.83,6.79,13.45
			c6.47,4.62,18.3,6.69,31.1,7.67"/>
		
			<path style="clip-path:url(#SVGID_00000149376116514931870530000008183191667152842397_);fill:none;stroke:#FFD261;stroke-width:15;stroke-linecap:round;stroke-linejoin:round;stroke-miterlimit:10;" d="
			M663.77,772.89c31.06,52.36,67.89,63.94,118.86,98.31c15.93,10.75,32.08,21.6,50.25,28.15c35.48,12.79,74.62,7.93,112.27,7.83
			c-0.25,0.5-0.51,1-0.76,1.49"/>
		
			<path style="clip-path:url(#SVGID_00000149376116514931870530000008183191667152842397_);fill:none;stroke:#FFD261;stroke-width:15;stroke-linecap:round;stroke-linejoin:round;stroke-miterlimit:10;" d="
			M733.19,836.83c0.15-15.35,16.45-28.51,31.9-25.75c9.53,1.71,17.79,8.34,27.47,8.9c10.14,0.59,19.54-5.79,25.64-13.73
			c6.1-7.94,9.65-17.41,14.09-26.35c12.97-26.13,30.92-48.28,56.71-62.68c0.82,3.52,1.41,7.73,2.23,11.25"/>
		
			<path style="clip-path:url(#SVGID_00000149376116514931870530000008183191667152842397_);fill:none;stroke:#FFD261;stroke-width:15;stroke-linecap:round;stroke-linejoin:round;stroke-miterlimit:10;" d="
			M446.16,975.9c16.11-5.59,17.68-3.99,28.34-17.18c6.52-8.06,12.54-15.72,22.54-12.36c8.96,3.01,9.4,14.7,10.82,23.75
			c3.9,24.86,30.06,44.44,55.97,41.89c25.92-2.55,47.44-26.82,46.07-51.93c-0.35-6.38-1.86-13.3,1.52-18.8
			c5.3-8.61,18.12-7.82,28.49-7.31c10.36,0.51,24.02-3.53,23.77-13.55"/>
		
			<path style="clip-path:url(#SVGID_00000149376116514931870530000008183191667152842397_);fill:none;stroke:#FFD468;stroke-width:15;stroke-linecap:round;stroke-linejoin:round;stroke-miterlimit:10;" d="
			M669.87,928.4c-3.46,7.46-0.96,16.33,3.2,23.43c4.16,7.11,9.89,13.29,13.54,20.66c3.65,7.37,4.85,16.75-0.09,23.36
			c-3.49,4.67-9.27,7.02-14.23,10.19c-12.23,7.82-20.02,21.87-20.05,36.16"/>
		<path style="clip-path:url(#SVGID_00000149376116514931870530000008183191667152842397_);fill:#C8EBFC;" d="M532.22,812.32
			c16.43,14.47,43.17,16.17,61.38,3.9c49.56,50.59,102.93,101.48,170.67,124.31c25.4,8.56,52.51,13.05,75.95,25.88
			c19.19,10.51,34.88,26.05,51.94,39.62c17.07,13.57,36.79,25.64,55.95,30.72c-3.72,14.21-17.62,24.45-32.39,27.06
			c-14.76,2.61-30.07-1.38-43.47-7.97s-25.32-15.68-37.59-24.12c-51.84-35.66-110.79-60.02-165.65-91.07
			c-54.86-31.06-107.5-71-137.11-125.81C532.15,814.95,532.4,815.07,532.22,812.32z"/>
		<path style="clip-path:url(#SVGID_00000149376116514931870530000008183191667152842397_);fill:#C8EBFC;" d="M1016.81,1024.94
			c17.4-16.71,34.93-33.52,55.21-46.78c20.27-13.26,43.68-22.89,68.06-23.59c42.94-1.23,82.2,24.82,125.03,28.05
			c32.64,2.46,66.13-9.24,89.78-31.36c23.65-22.13,37.63-57.22,35.13-88.29c18.72,2.77,38.08-1.08,51.03-14.58
			c6.52,12.2,7.26,26.78,4.42,40.26c-2.84,13.48-9.02,26.06-15.83,38.12c-16.08,28.47-35.96,54.88-58.98,78.35
			c-15.93,16.24-35,31.81-57.91,34.06c-42.34,4.15-76.18-37.78-118.56-41.52c-27.79-2.45-53.94,11.9-77.75,26.14
			c-23.81,14.23-49.2,29.36-77.1,28.67c-7.41-0.18-15.32-1.77-20.46-7C1013.73,1040.23,1011.91,1029.64,1016.81,1024.94z"/>
	</g>
	<g style="clip-path:url(#SVGID_00000085940783597891636340000002230217065248627887_);">
		<g>
			<g>
				
					<ellipse transform="matrix(0.7889 -0.6145 0.6145 0.7889 40.3773 896.3515)" class="st9" cx="1324.95" cy="389.4" rx="85.51" ry="19.81"/>
				
					<ellipse transform="matrix(0.3609 -0.9326 0.9326 0.3609 489.2372 1455.7175)" class="st9" cx="1306.71" cy="370.91" rx="49.01" ry="20.86"/>
				
					<ellipse transform="matrix(1.006789e-03 -1 1 1.006789e-03 870.417 1663.8231)" class="st9" cx="1267.96" cy="396.26" rx="48.51" ry="21.07"/>
				
					<ellipse transform="matrix(0.0586 -0.9983 0.9983 0.0586 854.495 1717.9691)" class="st9" cx="1338.13" cy="405.92" rx="18.86" ry="54.18"/>
				
					<ellipse transform="matrix(0.0586 -0.9983 0.9983 0.0586 795.1675 1719.1193)" class="st9" cx="1309.08" cy="437.95" rx="18.86" ry="54.18"/>
			</g>
		</g>
		<path class="st10" d="M1263.79,390.75c11.07,24.23-7.06,55.72-7.06,55.72s-36.09-7.8-47.16-32.02
			c-11.07-24.23,7.06-55.72,7.06-55.72S1252.71,366.52,1263.79,390.75z"/>
		<path class="st10" d="M1278.18,321.21c-3.96,7.32-9.28,12.58-13.4,13.74c-0.97,0.27-1.87,0.31-2.67,0.1
			c-0.21-0.06-0.43-0.14-0.65-0.24c0,0,0,0,0,0c-3.9-1.69-8.09-8.3-10.26-16.77c-2.7-10.54-1.24-19.97,3.26-21.07
			c3.78-0.92,9.54,8.28,10.05,24.47c3.82-15.76,12.21-23.23,15.65-21.45C1284.26,302.1,1283.37,311.61,1278.18,321.21z"/>
		<path class="st11" d="M1218.43,363.74c0,0,18.18,28.06,25.35,45.09"/>
		<path class="st11" d="M1209.72,389.4c0,0,17.99,3.28,27.46,6.86"/>
		<path class="st11" d="M1241.29,372.16c0,0-3.2,13.67-6.62,18.58"/>
		<path class="st11" d="M1214.98,412.75c0,0,24.3,1.68,31.47,4.96"/>
		<path class="st11" d="M1257.65,394.51c0,0-3.73,15.43-8.23,23.2"/>
		<path class="st12" d="M1383.6,343.63c0,0-100.02,63.98-113.37,76.19"/>
		<path class="st12" d="M1318.3,334.23c0,0-14.92,38.31-13.06,60.62"/>
		<path class="st12" d="M1266.29,360.18c0,0,1.89,48.79,4.92,58.77"/>
		<path class="st12" d="M1379.87,408.83c-0.29,0.47-49.14-0.87-70.06-17.04"/>
		<path class="st12" d="M1348.87,441.43c0,0-50.54-6.78-72.91-26.19"/>
		<g>
			<path class="st13" d="M1273.06,430.03c20.12,39.05-32.37,36.13-7.84-0.44c-24.53,36.57-48.19-9.35-3.53-6.86
				c-44.65-2.49-15.81-45.48,4.31-6.42c-20.12-39.05,32.37-36.13,7.84,0.44c24.53-36.57,48.19,9.35,3.53,6.86
				C1322.02,426.09,1293.18,469.08,1273.06,430.03z"/>
		</g>
		<path class="st14" d="M1267.77,422.2c-11.5-3.51-22.8-15.15-22.8-15.15"/>
		<path class="st14" d="M1267.96,453c0,0,0.53-22.69,0-29.45c-1.11-14.21,2.27-29.56,2.27-29.56"/>
		<path class="st14" d="M1294.26,438.91c-0.72-0.56-11.85-7.97-26.29-15.37"/>
		<path class="st14" d="M1294.84,409.22c0,0-4.55,6.77-27.07,13.94c-7.5,2.39-25.53,13.35-25.53,13.35"/>
	</g>
	<g style="clip-path:url(#SVGID_00000085940783597891636340000002230217065248627887_);">
		<path class="st15" d="M683.81,349.72c0,0,25.41,23.29,57.47,77.59c0,0,48.17,79.95,41.64,106.1c0,0,8.59,65.58-12.88,123.32"/>
		<path class="st9" d="M687.07,361.9c14.14,3.64,21.79,20.74,21.79,20.74s-15.27,11.2-29.41,7.56
			c-14.14-3.64-21.79-20.74-21.79-20.74S672.93,358.26,687.07,361.9z"/>
		<path class="st12" d="M687.07,365.86c0,0,2.56,3.32,4.18,9.94"/>
		<g>
			<path class="st10" d="M826.51,569.87c-11.66,35.4-54.79,53.49-54.79,53.49s-24.23-39.3-12.58-74.7
				c11.66-35.4,54.79-53.49,54.79-53.49S838.16,534.47,826.51,569.87z"/>
			<path class="st10" d="M813.82,335.62c-0.91,14.65-5.54,26.96-11.33,31.77c-1.36,1.13-2.78,1.85-4.24,2.08
				c-0.39,0.05-0.8,0.08-1.22,0.08c0,0,0,0,0,0c-7.56,0.06-19.28-7.59-29.13-19.71c-12.25-15.07-16.96-31.35-10.53-36.35
				c5.41-4.2,21.61,6.53,34.55,32.29c-5.64-28.17,2.3-46.25,9.19-45.84C809.32,300.43,815.01,316.4,813.82,335.62z"/>
			<path class="st16" d="M768.7,283.68c0,0,15.41,30.53,25.9,92.4c0,0,16.34,91.4,0.82,113.64c0,0-15.54,64.35-56.4,111.01"/>
			<path class="st9" d="M840.2,447.52c-11.05,21.99-26.3,38.02-38.38,41.78c-2.84,0.89-5.51,1.09-7.9,0.54
				c-0.64-0.17-1.29-0.38-1.93-0.64c0,0,0,0,0,0c-11.69-4.67-24.69-23.84-31.87-48.71c-8.93-30.93-5.47-58.96,7.73-62.61
				c11.09-3.06,28.97,23.67,31.93,71.5c9.88-46.93,34.01-69.78,44.36-64.8C856.45,390.49,854.69,418.67,840.2,447.52z"/>
			<path class="st10" d="M750.58,385.69c-0.95,14.26-16.65,24.87-16.65,24.87s-14.16-12.51-13.21-26.78s16.65-24.87,16.65-24.87
				S751.53,371.43,750.58,385.69z"/>
			<path class="st11" d="M810.31,502.54c-11.52,15.79-18.79,34.53-20.87,53.82"/>
			<path class="st11" d="M780.15,523.62c1.76,8.25,5.42,16.11,10.63,22.82"/>
			<path class="st11" d="M792.29,564.94c12.23-4.42,23.56-10.66,33.33-18.37"/>
			<path class="st11" d="M767.98,551.12c0.34,4.08,1.96,8.05,4.57,11.25"/>
			<g>
				<g>
					<g>
						<g>
							<path class="st10" d="M643.58,549.8c65.25,84.87,102.77,171.6,102.77,171.6s-68.28-50.86-133.53-135.72
								s-111.26-161.7-102.77-171.6C518.54,404.17,578.32,464.93,643.58,549.8z"/>
							<path class="st10" d="M633.38,598.18c66.07,53.24,110.88,121.19,110.88,121.19S681.96,701,615.89,647.76
								c-66.07-53.24-115.71-107.5-110.88-121.19C509.84,512.88,567.31,544.94,633.38,598.18z"/>
							<path class="st10" d="M682.65,544.22c45.07,89.7,61.57,172.92,61.57,172.92s-56.57-62.2-101.64-151.89
								s-72.64-167.12-61.57-172.92C592.08,386.52,637.58,454.52,682.65,544.22z"/>
						</g>
						<g>
							<g>
								
									<ellipse transform="matrix(0.5958 -0.8032 0.8032 0.5958 -305.7646 763.1075)" class="st9" cx="605.21" cy="685.31" rx="23.32" ry="100.01"/>
								
									<ellipse transform="matrix(0.9179 -0.3968 0.3968 0.9179 -211.1812 301.8032)" class="st9" cx="623.86" cy="661.32" rx="23.58" ry="59.69"/>
								
									<ellipse transform="matrix(0.9967 -0.0812 0.0812 0.9967 -53.7654 56.6539)" class="st9" cx="669.71" cy="689.4" rx="23.66" ry="59.49"/>
								
									<ellipse transform="matrix(0.9914 -0.1308 0.1308 0.9914 -87.3148 83.496)" class="st9" cx="592.02" cy="706.5" rx="60.81" ry="23.14"/>
								
									<ellipse transform="matrix(0.9914 -0.1308 0.1308 0.9914 -91.8446 88.4722)" class="st9" cx="627.64" cy="743.48" rx="60.81" ry="23.14"/>
							</g>
						</g>
						<path class="st10" d="M616.65,807.5c-28.91,8.47-60.01-9.67-60.01-9.67s15.78-31.86,44.69-40.33
							c28.91-8.47,60.01,9.67,60.01,9.67S645.56,799.04,616.65,807.5z"/>
						<g>
							<g>
								
									<ellipse transform="matrix(0.9928 -0.1199 0.1199 0.9928 -68.036 92.064)" class="st9" cx="731.19" cy="611.53" rx="23.65" ry="98.62"/>
								
									<ellipse transform="matrix(0.4056 -0.9141 0.9141 0.4056 -102.9305 1057.7257)" class="st9" cx="761.8" cy="608" rx="59.7" ry="23.58"/>
								
									<ellipse transform="matrix(0.674 -0.7387 0.7387 0.674 -235.4066 786.0412)" class="st9" cx="772.96" cy="659.76" rx="60.09" ry="23.43"/>
								
									<ellipse transform="matrix(0.6079 -0.794 0.794 0.6079 -212.8916 802.8068)" class="st9" cx="706.44" cy="616.97" rx="23.33" ry="60.32"/>
								
									<ellipse transform="matrix(0.6079 -0.794 0.794 0.6079 -254.151 820.7281)" class="st9" cx="703.95" cy="667.71" rx="23.33" ry="60.32"/>
							</g>
						</g>
						<path class="st9" d="M508.16,476.25c4.31,7.13,6.12,14.31,4.97,18.35c-0.27,0.95-0.7,1.72-1.31,2.28
							c-0.17,0.15-0.35,0.28-0.54,0.42c0,0,0,0,0,0c-3.51,2.36-11.47,2.41-19.98-0.21c-10.6-3.26-18.06-9.41-16.67-13.74
							c1.17-3.63,12.21-3.62,26.58,4.42c-11.74-11.43-13.87-22.32-10.51-24.26C494.68,461.19,502.5,466.9,508.16,476.25z"/>
						<path class="st11" d="M564.48,796.14c27.18-16.81,59.13-26.16,91.28-26.72"/>
						<path class="st11" d="M598.47,780.32c-3.22,8.54-8.25,16.43-14.68,23.02"/>
						<path class="st11" d="M621.46,773.62c-3.12,11.76-9.73,22.61-18.81,30.9"/>
						<path class="st11" d="M644.66,770.45c-2.33,11.52-9.63,22-19.74,28.33"/>
						<path class="st11" d="M632.99,770.72c-5.65-6.68-14.17-10.96-23.01-11.55"/>
						<path class="st11" d="M608.73,776.49c-6.14-6.37-15.75-9.34-24.52-7.6"/>
						<path class="st11" d="M586.31,784.58c-5.02-2.25-10.87-2.66-16.16-1.13"/>
						<g>
							<path class="st10" d="M491.6,641.69c22.23,5.15,34.97,31.12,34.97,31.12s-23.3,17.62-45.53,12.47s-34.97-31.12-34.97-31.12
								S469.37,636.54,491.6,641.69z"/>
							<path class="st11" d="M451.64,655.79c25.41-3.25,51.95,2.69,73.38,16.44"/>
							<path class="st11" d="M474.12,644.32c5.46,2.33,9.76,6.94,11.53,12.35"/>
							<path class="st11" d="M492.91,644.96c6.14,4.19,10.8,10.41,13.04,17.4"/>
							<path class="st11" d="M464.24,669.46c11.07-0.32,22.02-4.01,30.94-10.44"/>
							<path class="st11" d="M485.09,677.03c10.99,0.14,21.99-3.5,30.65-10.12"/>
						</g>
						<path class="st12" d="M533.38,631.73c33.77,27.82,68.71,54.23,104.71,79.14"/>
						<path class="st12" d="M542.98,712.7c24.32-0.98,48.4-7.51,69.7-18.9"/>
						<path class="st12" d="M607.39,616.66c13.75,26.51,20.68,56.36,20.01,86.08"/>
						<path class="st12" d="M583.35,749.28c21.76-2.03,43.05-8.62,62.31-19.27"/>
						<path class="st12" d="M665.67,644.87c3.34,19.32,5.28,39.24,5.71,58.51"/>
						<path class="st12" d="M720.86,527.38c-0.43,44.38,6.83,89.59,21.17,131.87l5.37,20.4"/>
						<path class="st12" d="M665.43,587.21c17.78,15.95,40.24,27.4,64.39,32.83"/>
						<path class="st12" d="M696,651.9c14.61,5.46,30.64,8.64,46.9,9.3"/>
						<path class="st12" d="M655.11,637.66c3-4.9,9.75-6.84,15.39-5.36c5.65,1.48,10.16,5.82,12.99,10.82
							c2.83,5,4.17,10.66,5.28,16.28"/>
						<path class="st12" d="M783.98,561.98c-10.09,25.95-27.4,49.81-49.95,68.86"/>
						<path class="st17" d="M807.42,620.08c-10.71,26.14-31.8,49.18-58.48,63.9"/>
						<path class="st11" d="M520.29,429.27c57.83,58.14,104.18,127.16,135.76,202.15"/>
						<path class="st11" d="M584.98,406.89c33.69,53.72,62.69,110.25,86.59,168.77"/>
						<path class="st11" d="M511.64,531.04c27.18,27.22,56.93,52,88.73,73.92"/>
						<g>
							<g>
								<path class="st1" d="M756.65,636.37c30.47,21.35-9.67,39.13-6,2.66c-3.68,36.47-39.5,11.37-5.35-3.75
									c-34.14,15.13-29.82-27.76,0.65-6.41c-30.47-21.35,9.67-39.13,6-2.66c3.68-36.47,39.5-11.37,5.35,3.75
									C791.44,614.84,787.12,657.72,756.65,636.37z"/>
							</g>
							<path class="st18" d="M740.86,613.44c4.85,6.09,8.37,13.18,10.72,21c5.49-5.05,10.08-11.04,13.5-17.61"/>
							<path class="st18" d="M773.01,634.21c-6.99-2.04-14.64-1.86-20.9,0.57c3.82,4.19,6.09,9.7,6.3,15.3"/>
							<path class="st18" d="M738.49,647.68c5.41-3.14,10.01-7.59,13.7-12.91c-6.29-2.53-12.89-4.32-19.61-5.3"/>
						</g>
						<g>
							<path class="st19" d="M715.73,730.51c70.05,49.08-22.24,89.97-13.79,6.11c-8.45,83.86-90.8,26.15-12.31-8.62
								c-78.5,34.77-68.56-63.81,1.48-14.73c-70.05-49.08,22.24-89.97,13.79-6.11c8.45-83.86,90.8-26.15,12.31,8.62
								C795.71,681,785.78,779.59,715.73,730.51z"/>
						</g>
						<g>
							<path class="st13" d="M677.7,482.07c52.43,36.74-16.65,67.34-10.32,4.57c-6.32,62.77-67.97,19.58-9.21-6.45
								c-58.76,26.03-51.32-47.77,1.11-11.03c-52.43-36.74,16.65-67.34,10.32-4.57c6.32-62.77,67.97-19.58,9.21,6.45
								C737.57,445.01,730.13,518.81,677.7,482.07z"/>
						</g>
					</g>
					<path class="st20" d="M678.94,670.59c0,0,8.47,32.43,26.02,47.72c7.05-17.11,19.77-31.93,35.78-41.69"/>
					<path class="st20" d="M648.18,717.57c0,0,31.69,6.94,56.77,0.74c0,0-12.66,28.43-31.55,45.48"/>
					<path class="st20" d="M704.52,719.24c8.94,36.37,22.4,52.28,22.16,52.73"/>
					<path class="st20" d="M760.27,726.85c0,0-29.76,5.4-55.32-8.54"/>
				</g>
				<path class="st21" d="M628.47,472.37"/>
				<path class="st14" d="M625.46,471.94c0,0,12.72,5.47,42.43,3.74c0,0,21.12-2.79,39.81,3.04"/>
				<path class="st14" d="M644.23,510.26c0,0,9.54-25.1,24.25-34.65c0.61-0.4-0.83-1.18-1.24-1.78c-11.7-17.21-17-36.61-17-36.61"/>
				<path class="st14" d="M685.43,514.63c-0.32-0.25-2.94-20.78-17.6-39.37"/>
				<path class="st14" d="M667.88,475.68c0,0,8.51-24.09,23.56-34.15"/>
			</g>
			<g>
				<path class="st10" d="M920.25,413.78c-4.95,10.07-19.28,13.38-19.28,13.38s-6.31-13.01-1.36-23.08s19.28-13.38,19.28-13.38
					S925.2,403.71,920.25,413.78z"/>
				<path class="st11" d="M917.48,393.18c-1.09,12.49-6.9,24.52-16.06,33.29"/>
				<path class="st11" d="M920.81,405.15c-1.75,2.36-4.51,3.92-7.4,4.18"/>
				<path class="st11" d="M918.48,414.05c-2.75,2.49-6.36,4.05-10.09,4.37"/>
				<path class="st11" d="M909.3,397.74c-1.02,5.32-0.35,10.95,1.91,15.89"/>
				<path class="st11" d="M903.3,406.89c-1.24,5.24-0.6,10.88,1.78,15.72"/>
			</g>
			<g>
				<path class="st10" d="M888.83,461.18c-9.19,11.8-28.73,12.35-28.73,12.35s-4.65-18.57,4.54-30.36
					c9.19-11.8,28.73-12.35,28.73-12.35S898.02,449.38,888.83,461.18z"/>
				<path class="st11" d="M890.86,433.68c-4.83,15.95-15.68,30.09-29.98,39.09"/>
				<path class="st11" d="M891.91,450.11c-2.92,2.61-6.94,3.92-10.77,3.51"/>
				<path class="st11" d="M886.45,461.08c-4.26,2.51-9.37,3.6-14.31,3.04"/>
				<path class="st11" d="M878.98,437.46c-2.78,6.66-3.45,14.14-1.87,21.17"/>
				<path class="st11" d="M868.66,447.79c-3.05,6.48-3.76,13.99-1.98,20.91"/>
			</g>
			<path class="st11" d="M737.28,361.78c0,0-6.7,24.79-3.49,47.29"/>
			<path class="st11" d="M727.33,371.22c0,0-0.05,3.79,5.98,11.23"/>
			<path class="st11" d="M723.17,385.79c0,0,2.87,6.5,9.28,11.88"/>
			<path class="st11" d="M734.41,376.45c0,0,5.17-0.88,8.61-4.99"/>
			<path class="st11" d="M733.03,391.02c0,0,5.93-1.16,12.77-7.76"/>
			<path class="st12" d="M660.08,369.53c0,0,31.43,3.84,45.63,11.98"/>
			<path class="st12" d="M675.36,363.41c0,0,3.57,6.43,4.76,9.6"/>
			<path class="st12" d="M670.2,381.02c0,0,9.95-2.37,14.41-6.98"/>
			<path class="st12" d="M686.05,386.35c0,0,8.66-2.52,12.56-8.11"/>
		</g>
	</g>
	<g style="clip-path:url(#SVGID_00000085940783597891636340000002230217065248627887_);">
		<path class="st10" d="M342.4,828.49c-0.47,8.27-3.05,15.22-6.3,17.95c-0.76,0.64-1.57,1.05-2.38,1.19
			c-0.22,0.03-0.45,0.05-0.69,0.05c0,0,0,0,0,0c-4.27,0.06-10.9-4.23-16.49-11.04c-6.95-8.47-9.66-17.64-6.04-20.48
			c3.04-2.38,12.21,3.63,19.58,18.13c-3.26-15.88,1.17-26.1,5.06-25.88C339.76,808.65,343.02,817.64,342.4,828.49z"/>
		<path class="st10" d="M263.53,836.82c43.55,12.31,66.08,65.48,66.08,65.48s-48.08,33.2-91.62,20.88
			c-43.55-12.31-66.08-65.48-66.08-65.48S219.98,824.5,263.53,836.82z"/>
		<path class="st10" d="M297.29,932.2c24.68-12.32,57.65,2.54,57.65,2.54s-7.04,34.82-31.72,47.14
			c-24.68,12.32-57.65-2.54-57.65-2.54S272.61,944.52,297.29,932.2z"/>
		<path class="st15" d="M132.59,868.77c0,0,12.03,43.01,51.05,62.03c5.76,2.81,24.56,11.58,66.02,6.65c0,0,32.18-3.16,55.48-17.25"
			/>
		<path class="st16" d="M56.28,915.69c0,0,33.35,47.7,92.91,56.44c8.79,1.29,37.32,5.02,90.47-16.15c0,0,41.52-15.63,66.82-41.25"/>
		<path class="st9" d="M204.5,943.98c14.86,2.09,27.02,7.62,31.44,13.66c1.04,1.42,1.65,2.87,1.77,4.3c0.02,0.39,0.02,0.79-0.02,1.2
			c0,0,0,0,0,0c-0.56,7.37-9.33,18.16-22.49,26.76c-16.37,10.7-33.35,13.95-37.91,7.27c-3.83-5.61,8.44-20.51,35.76-31.01
			c-29.18,3.17-46.95-6.05-45.96-12.74C168.26,945.47,185.01,941.24,204.5,943.98z"/>
		<path class="st10" d="M135.78,949.66c8.23,6.15,13.65,13.49,14.24,18.59c0.14,1.2,0.01,2.27-0.41,3.18
			c-0.12,0.24-0.26,0.48-0.42,0.72c0,0,0,0,0,0c-2.88,4.26-11.88,7.87-22.77,8.72c-13.55,1.05-24.9-2.58-25.35-8.11
			c-0.38-4.64,12.15-9.58,32.23-6.9c-18.67-7.7-26.2-19.11-23.31-22.81C113.44,938.62,124.98,941.59,135.78,949.66z"/>
		<path class="st9" d="M90.53,932.74c3.93,6.83,5.46,13.76,4.25,17.68c-0.29,0.92-0.72,1.68-1.32,2.23
			c-0.16,0.14-0.34,0.28-0.53,0.41c0,0,0,0,0,0c-3.43,2.35-11.05,2.53-19.14,0.14c-10.06-2.98-17.04-8.8-15.58-13.02
			c1.22-3.54,11.8-3.72,25.34,3.82c-10.92-10.86-12.66-21.38-9.39-23.32C78.04,918.39,85.38,923.78,90.53,932.74z"/>
		<path class="st10" d="M174.04,901.61c4.17,10.02,5.1,19.64,2.82,24.64c-0.54,1.18-1.25,2.1-2.14,2.7
			c-0.24,0.16-0.51,0.3-0.78,0.44c0,0,0,0,0,0c-5.01,2.4-15.29,0.96-25.78-4.03c-13.05-6.2-21.49-15.55-18.84-20.88
			c2.22-4.47,16.49-2.39,33.48,10.7c-12.92-16.97-13.54-31.45-8.82-33.33C159.58,879.62,168.56,888.47,174.04,901.61z"/>
		<path class="st11" d="M176.07,857.45c35.84,21.25,76.69,34.64,118.57,38.87"/>
		<g>
			<g>
				<path class="st1" d="M343.07,903.53c42.46,33.11-16.98,55.92-8.88,3.41c-8.1,52.51-58.02,13.58-7.46-5.82
					c-50.56,19.4-41.04-42.34,1.42-9.23c-42.46-33.11,16.98-55.92,8.88-3.41c8.1-52.51,58.02-13.58,7.46,5.82
					C395.06,874.9,385.53,936.64,343.07,903.53z"/>
			</g>
			<path class="st22" d="M325.92,870.84c-0.66,9.67,2.32,19.54,9.09,27.99c5.12-9.02,12.63-16.73,21.6-22.17"/>
			<path class="st22" d="M364.02,901.35c-8.82-3.64-18.82-4.47-28.72-1.94c6.1,7.53,9.63,17.02,9.9,26.62"/>
			<path class="st22" d="M316.71,919.56c7.61-4.42,13.67-11.36,18.11-21.01c-8.51,2.9-18.51,1.18-25.49-4.39"/>
		</g>
		<path class="st11" d="M209.17,842.32c10.67,12.49,19.47,26.5,26.03,41.45"/>
		<path class="st11" d="M252.6,841.87c13.19,14.12,21.22,32.74,22.37,51.83"/>
		<path class="st11" d="M204.34,899.28c17.74,4.58,37.46,1.21,52.52-9.05"/>
		<path class="st11" d="M245.85,917.32c17.45,1.03,35.2-7.03,45.66-20.73"/>
		<path class="st11" d="M268.39,977.5c17.07-21.72,43.12-36.48,70.88-40.16"/>
		<path class="st11" d="M296.35,952.86c-2.67,10.18-7.5,19.82-14.11,28.12"/>
		<path class="st11" d="M318.48,942.7c-1.87,14.86-8.31,29.14-18.28,40.51"/>
		<path class="st11" d="M336.82,938.32c0.29,13.9-4.46,27.86-13.23,38.81"/>
		<path class="st11" d="M306.26,947.17c-9.76-1.84-20.29,0.61-28.15,6.57"/>
		<path class="st11" d="M328.49,939.49c-11.83-4.53-25.56-4.08-37.05,1.23"/>
	</g>
</g>
<g>
	<path class="st23" d="M-353.13-122.68l-1.95,2.85c-3.26-1.25-5.55-3.63-6.8-6.5c-1.29,3.24-3.67,6.05-7.07,7.52l-2.03-2.89
		c4.73-2.05,7.27-6.5,7.27-10.39v-4.53h3.59v4.53C-360.13-128.27-357.69-124.4-353.13-122.68z M-352.71-116.59
		c7.3,0.02,11.89,2.38,11.91,6.37c-0.02,3.98-4.61,6.35-11.91,6.33c-7.32,0.02-11.88-2.34-11.84-6.33
		C-364.58-114.21-360.03-116.57-352.71-116.59z M-352.71-106.74c5.08,0.04,8.18-1.25,8.2-3.48c-0.02-2.25-3.12-3.54-8.2-3.52
		c-5.1-0.02-8.2,1.27-8.16,3.52C-360.91-107.99-357.8-106.71-352.71-106.74z M-352.04-138.15h3.44v8.48h4.1v-9.1h3.52v21.52h-3.52
		v-9.38h-4.1v8.28h-3.44V-138.15z"/>
	<path class="st23" d="M-320.11-131.94h-10.47v6.25h9.88v2.93h-9.88v7.38c4.75-0.04,7.87-0.2,11.56-0.82l0.31,3.05
		c-4.1,0.74-7.5,0.9-13.09,0.9h-2.34v-22.66h14.02V-131.94z M-316.67-138.15h3.55v13.24h4.22v-13.91h3.55v35h-3.55v-18.09h-4.22
		v16.37h-3.55V-138.15z"/>
	<path class="st23" d="M-268.1-118.11H-282v6.8h-3.67v-6.8h-14.45v-3.01h32.03V-118.11z M-296.14-114.63h3.71v7.07h20.78v3.01
		h-24.49V-114.63z M-296.03-137.17h23.79v12.42h-23.79V-137.17z M-275.91-127.68v-6.56h-16.48v6.56H-275.91z"/>
	<path class="st23" d="M-255.85-113.44V-117c-3.95-0.59-6.52-2.97-6.48-6.35c-0.04-3.95,3.38-6.54,8.36-6.56
		c4.96,0.02,8.42,2.62,8.44,6.56c-0.02,3.38-2.64,5.78-6.6,6.35v3.42c3.11-0.16,6.23-0.41,9.14-0.82l0.23,2.73
		c-7.58,1.35-15.76,1.43-21.8,1.41l-0.59-3.09C-262.39-113.35-259.19-113.35-255.85-113.44z M-264.48-134.67h8.63v-4.06h3.71v4.06
		h8.63v2.97h-20.98V-134.67z M-253.98-119.75c2.93,0.02,4.86-1.37,4.88-3.59c-0.02-2.25-1.95-3.67-4.88-3.67s-4.88,1.43-4.88,3.67
		C-258.86-121.12-256.91-119.73-253.98-119.75z M-237.3-124.17h5.27v3.12h-5.27v17.23h-3.71v-35h3.71V-124.17z"/>
	<path class="st23" d="M-214.92-134.21h-12.05v-3.05h16.13c-0.02,9.18-6.02,14.63-16.6,16.95l-1.37-3.01
		C-220.05-125.14-215.48-129.07-214.92-134.21z M-223.33-119.44h23.01v8.79h-19.22v3.55h20.39v2.93h-24.06v-9.26h19.18v-3.09h-19.3
		V-119.44z M-200.33-121h-3.71v-17.81h3.71V-121z"/>
	<path class="st23" d="M-193.98-124.01h31.91v2.97h-31.91V-124.01z M-165.54-132.21c-0.02,3.93-4.61,6.05-12.5,6.05
		s-12.52-2.13-12.5-6.05c-0.02-3.91,4.61-6.04,12.5-6.02C-170.15-138.25-165.56-136.12-165.54-132.21z M-190.15-118.35h24.06v8.2
		h-20.39v3.12h21.37v2.85h-25v-8.67h20.35v-2.73h-20.39V-118.35z M-178.04-128.93c5.61,0,8.69-1.11,8.67-3.28
		c0.02-2.07-3.07-3.28-8.67-3.28c-5.57,0-8.65,1.21-8.63,3.28C-186.69-130.04-183.61-128.93-178.04-128.93z"/>
	<path class="st23" d="M-134.14-134.21h-11.52v-3.05h15.51c0,8.85-5.94,14.55-16.09,17.07l-1.29-3.01
		C-139.37-125.1-134.78-129.07-134.14-134.21z M-141.75-119.52h22.89v8.87H-138v3.52h20.2v2.97h-23.87v-9.3h19.1v-3.12h-19.18
		V-119.52z M-118.86-121h-3.71v-6.68h-7.27v-3.01h7.27v-8.12h3.71V-121z"/>
	<path class="st23" d="M-112.67-111.43h32.03v3.09h-32.03V-111.43z M-83.8-126.94c0,5.92-5.59,9.79-12.93,9.77
		c-7.32,0.02-12.91-3.85-12.89-9.77c-0.02-5.88,5.57-9.77,12.89-9.77C-89.39-136.71-83.8-132.82-83.8-126.94z M-96.73-120.22
		c5.35,0,9.32-2.64,9.34-6.72c-0.02-4.06-3.98-6.78-9.34-6.76c-5.37-0.02-9.36,2.7-9.34,6.76
		C-106.09-122.86-102.11-120.22-96.73-120.22z"/>
	<path class="st23" d="M-59.68-130.57h7.89v-8.24h3.67v35.08h-3.67v-14.22h-7.89v5.39h-16.25v-22.89h16.25V-130.57z M-63.32-115.53
		v-17.03h-8.95v17.03H-63.32z M-51.79-120.96v-6.56h-7.89v6.56H-51.79z"/>
	<path class="st23" d="M-38.77-99.05h-3.32l2.07-10.78h4.38L-38.77-99.05z"/>
	<path class="st23" d="M-137.96-54.71l-2.27,2.97c-3.96-1.99-6.97-5.94-8.52-10.72c-1.54,5.04-4.59,9.3-8.63,11.39l-2.34-3.01
		c5.43-2.6,9.04-9.34,9.06-15.82v-5.98h3.75v5.98C-146.9-63.5-143.31-57.12-137.96-54.71z M-141.82-67.17h7.81v-11.64h3.67v35.08
		h-3.67v-20.43h-7.81V-67.17z"/>
	<path class="st23" d="M-124.15-64.28h31.91v2.93h-14.14v3.01h10.12v8.2h-20.39v3.12h21.37v2.85h-25v-8.67h20.35v-2.73h-20.39v-2.77
		h10.23v-3.01h-14.06V-64.28z M-95.71-72.41c-0.02,3.93-4.61,6.05-12.5,6.05s-12.52-2.13-12.5-6.05c-0.02-3.87,4.61-6.04,12.5-6.02
		C-100.32-78.44-95.73-76.28-95.71-72.41z M-108.21-69.13c5.61-0.02,8.69-1.11,8.67-3.28c0.02-2.05-3.07-3.22-8.67-3.24
		c-5.57,0.02-8.65,1.19-8.63,3.24C-116.86-70.24-113.78-69.15-108.21-69.13z"/>
	<path class="st23" d="M-88.78-64.01h31.91v2.97h-31.91V-64.01z M-60.34-72.21c-0.02,3.93-4.61,6.05-12.5,6.05
		s-12.52-2.13-12.5-6.05c-0.02-3.91,4.61-6.04,12.5-6.02C-64.95-78.25-60.36-76.12-60.34-72.21z M-84.95-58.35h24.06v8.2h-20.39
		v3.12h21.37v2.85h-25v-8.67h20.35v-2.73h-20.39V-58.35z M-72.84-68.93c5.61,0,8.69-1.11,8.67-3.28c0.02-2.07-3.07-3.28-8.67-3.28
		c-5.57,0-8.65,1.21-8.63,3.28C-81.49-70.04-78.41-68.93-72.84-68.93z"/>
	<path class="st23" d="M-42.84-51.55h32.03v3.12h-32.03V-51.55z M-14.44-60.06h-24.57v-15.7h3.71v12.66h20.86V-60.06z"/>
	<path class="st23" d="M-0.07-72.02h-6.07v-3.05h9.61c-0.02,8.63-1.86,16.7-8.12,23.36l-2.89-2.15
		C-2.55-59.07-0.46-65.03-0.07-72.02z M9.74-72.02H4.68v-3.05h8.59c0,8.75-1.25,18.14-7.46,25.66l-3.12-1.99
		C7.78-57.45,9.42-64.56,9.74-72.02z M21.59-43.81h-3.75v-35h3.75V-43.81z"/>
	<path class="st23" d="M29.38-75.46h16.37v3.01H33.09v16.91c5.88-0.02,10.27-0.27,15.27-1.17l0.47,3.12
		c-5.49,0.98-10.14,1.15-16.64,1.13h-2.81V-75.46z M55.17-65.26h5.62v3.05h-5.62v18.48h-3.71v-35.08h3.71V-65.26z"/>
	<path class="st23" d="M64.48-49.63c-0.02-1.52,1.25-2.77,2.77-2.77c1.5,0,2.75,1.25,2.77,2.77c-0.02,1.52-1.27,2.75-2.77,2.77
		C65.73-46.88,64.46-48.11,64.48-49.63z"/>
</g>
</svg>
