<?xml version="1.0" encoding="utf-8"?>
<!-- Generator: Adobe Illustrator 27.4.0, SVG Export Plug-In . SVG Version: 6.00 Build 0)  -->
<svg version="1.1" id="레이어_1" xmlns="http://www.w3.org/2000/svg" xmlns:xlink="http://www.w3.org/1999/xlink" x="0px"
	 y="0px" viewBox="0 0 1400 1200" style="enable-background:new 0 0 1400 1200;" xml:space="preserve">
<style type="text/css">
	.st0{clip-path:url(#SVGID_00000034074418319454797750000012355266703072106942_);fill:#FFC799;}
	
		.st1{clip-path:url(#SVGID_00000034074418319454797750000012355266703072106942_);fill:none;stroke:#FFB499;stroke-width:3;stroke-linecap:round;stroke-linejoin:round;stroke-miterlimit:10;}
	.st2{clip-path:url(#SVGID_00000034074418319454797750000012355266703072106942_);}
	.st3{clip-path:url(#SVGID_00000114783109321967108160000009355920081015077790_);fill:none;stroke:#000000;stroke-miterlimit:10;}
	.st4{clip-path:url(#SVGID_00000114783109321967108160000009355920081015077790_);fill:#FEE29A;}
	
		.st5{clip-path:url(#SVGID_00000114783109321967108160000009355920081015077790_);fill:none;stroke:#FFD261;stroke-width:15;stroke-linecap:round;stroke-linejoin:round;stroke-miterlimit:10;}
	
		.st6{clip-path:url(#SVGID_00000114783109321967108160000009355920081015077790_);fill:none;stroke:#FFD468;stroke-width:15;stroke-linecap:round;stroke-linejoin:round;stroke-miterlimit:10;}
	.st7{clip-path:url(#SVGID_00000114783109321967108160000009355920081015077790_);fill:#C8EBFC;}
	.st8{fill:#6C804B;}
	.st9{fill:#ABB869;}
	.st10{fill:none;stroke:#808A4E;stroke-width:3;stroke-linecap:round;stroke-linejoin:round;stroke-miterlimit:10;}
	.st11{fill:none;stroke:#9ABA66;stroke-width:3;stroke-linecap:round;stroke-linejoin:round;stroke-miterlimit:10;}
	.st12{fill:#D9E529;}
	.st13{fill:none;stroke:#BBDB1A;stroke-width:3;stroke-linecap:round;stroke-linejoin:round;stroke-miterlimit:10;}
	.st14{fill:none;stroke:#6C804B;stroke-width:7;stroke-linecap:round;stroke-linejoin:round;stroke-miterlimit:10;}
	.st15{fill:none;stroke:#ABB869;stroke-width:7;stroke-linecap:round;stroke-linejoin:round;stroke-miterlimit:10;}
	.st16{fill:none;stroke:#A5B265;stroke-width:3;stroke-linecap:round;stroke-linejoin:round;stroke-miterlimit:10;}
	.st17{fill:#FFC799;}
	.st18{fill:none;stroke:#FFB499;stroke-width:3;stroke-linecap:round;stroke-miterlimit:10;}
	.st19{fill:#FFC300;}
	.st20{fill:none;stroke:#FFA600;stroke-width:5;stroke-linecap:round;stroke-linejoin:round;stroke-miterlimit:10;}
	.st21{fill:none;stroke:#98E529;stroke-width:3;stroke-linecap:round;stroke-linejoin:round;stroke-miterlimit:10;}
	.st22{fill:none;stroke:#FFB499;stroke-width:5;stroke-linecap:round;stroke-linejoin:round;stroke-miterlimit:10;}
</style>
<g>
	<defs>
		<rect id="SVGID_1_" x="-8" y="73" width="1407.85" height="1126.62"/>
	</defs>
	<clipPath id="SVGID_00000031192084876632415580000005652765013028940734_">
		<use xlink:href="#SVGID_1_"  style="overflow:visible;"/>
	</clipPath>
	<path style="clip-path:url(#SVGID_00000031192084876632415580000005652765013028940734_);fill:#FFC799;" d="M427.47,697.83
		c14.02,3.97,28.06-8.61,28.06-8.61s-8.68-19.02-22.7-22.99s-26.58-0.12-28.06,8.61C403.29,683.57,413.46,693.86,427.47,697.83z"/>
	<path style="clip-path:url(#SVGID_00000031192084876632415580000005652765013028940734_);fill:#FFC799;" d="M420.35,652.47
		c7.48,7.03,20.37,3.76,20.37,3.76s0.75-14.67-6.73-21.7c-7.48-7.03-16.61-8.71-20.37-3.76
		C409.85,635.72,412.87,645.44,420.35,652.47z"/>
	
		<path style="clip-path:url(#SVGID_00000031192084876632415580000005652765013028940734_);fill:none;stroke:#FFB499;stroke-width:3;stroke-linecap:round;stroke-linejoin:round;stroke-miterlimit:10;" d="
		M439.46,654.23c-3.66-8.13-10.45-14.7-18.21-17.61"/>
	
		<path style="clip-path:url(#SVGID_00000031192084876632415580000005652765013028940734_);fill:none;stroke:#FFB499;stroke-width:3;stroke-linecap:round;stroke-linejoin:round;stroke-miterlimit:10;" d="
		M453.78,688.24c-11.19-5.71-23.48-8.38-35.4-7.69"/>
	<g style="clip-path:url(#SVGID_00000031192084876632415580000005652765013028940734_);">
		<defs>
			<path id="SVGID_00000053506141766904632700000010111470867484486588_" d="M456.71,946.23c0.58-0.14,1.13-0.44,1.65-0.75
				c0.7-0.42,1.46-0.76,2.22-1.03c1.27-0.45,2.57-0.76,3.89-0.98c0.28-0.05,0.56-0.09,0.85-0.13c0.79-0.1,1.57-0.17,2.36-0.2
				c0.8-0.03,1.59-0.02,2.39,0.01c0.8,0.04,1.6,0.11,2.4,0.21c0.81,0.1,1.61,0.23,2.41,0.39c0.8,0.16,1.6,0.35,2.4,0.57
				c0.8,0.22,1.59,0.46,2.38,0.72c0.79,0.27,1.58,0.56,2.35,0.87c0.78,0.31,1.55,0.64,2.31,1c0.76,0.35,1.52,0.72,2.26,1.12
				c0.74,0.39,1.48,0.8,2.21,1.22c0.25,0.15,0.5,0.3,0.76,0.45c0.13,0.08,0.25,0.15,0.37,0.23c0.06,0.04,0.12,0.07,0.18,0.11
				c0.04,0.03,0.13,0.11,0.18,0.11c10.43,6.53,19.45,15.78,30.28,21.43c16.11,8.39,35.44,7.88,51.63-0.3
				c16.19-8.18,29.17-23.67,36.48-41.9c6.55-7.21,13.11-14.2,21.41-16.53c6.48-1.82,13.28-0.56,19.92,0.28s13.68,1.21,19.65-2.16
				c7.68-4.33,11.94-14.01,13.4-23.55s0.63-19.32,0.98-28.99c0.52-14.21,3.61-28.29,9.03-41.13c3.61-9.91,11.54-16.4,16.64-25.03
				c3.84-6.51,6.01-14.18,6.7-21.96c0.69-7.78-0.05-15.67-1.69-23.27c-2.25-4.53-4.3-8.53-6.36-12.54c-1.51-2.95-3.04-5.94-3.91-9.2
				c-1.55-5.81-0.86-12.33,1.87-17.56c2.73-5.23,7.45-9.08,12.71-10.37c5.72-1.4,11.72,0.13,17.5-0.9
				c17.2,0.72,34.35-0.82,51.08-4.7c5.59-1.29,11.41-3.01,15.57-7.41c5.58-5.89,7.23-15.6,13.27-20.88
				c4.71-4.12,11.13-4.65,17.08-4.29c13,0.79,25.83,5.1,37.09,12.47c9.41,5.86,17.2,14.83,22.55,25.38
				c3.8,7.48,6.36,15.66,9.6,23.47c3.23,7.81,7.3,15.45,13.34,20.73c5.27,4.61,12.32,7.2,18.75,5.18s11.61-9.46,10.45-16.87
				c-0.9-5.75-5.07-10.07-9.22-13.57c-4.15-3.5-8.7-6.87-11.06-12.07c-2.82-6.21-1.84-13.99,1.27-20.02s8.08-10.57,13.27-14.36
				c6.32-4.61,13.2-8.35,18.85-13.96c4.2-4.17,7.65-9.3,10.05-15c5.99-5.9,6.56-15.4,5.6-23.75s-3.07-16.78-1.62-25.04
				c2.05-11.64,11.88-20.93,22.41-21.15c4.01-0.09,8,0.99,12.01,0.83c4.01-0.17,8.37-1.99,10.1-6.08c2.58-6.1-1.87-12.82-3.16-19.42
				c-1.61-8.25,2.1-16.93,7.69-22.55c5.59-5.62,12.81-8.68,19.97-11.17c7.54-2.62,15.31-4.74,23.2-4.67
				c7.89,0.07,15.96,2.49,22.05,8.13c4.56,4.22,7.95,10.13,13.19,13.18c11.33,6.61,25.58-2.85,37.71,1.59
				c7.04,2.58,12.55,9.61,19.88,10.83c6.13,1.02,12.09-2.26,17.81-4.94c5.72-2.68,12.41-4.79,17.94-1.62
				c6.18,1.9,12.32,0.48,17.78-1.91c5.46-2.39,10.59-5.74,16.21-7.63c5.61-1.89,12.05-2.15,16.99,1.4
				c3.67,2.64,6.02,6.99,8.84,10.72c7.54,9.99,19.14,15.9,30.77,15.67c6.6,1.83,10.9,8.4,12.22,15.26
				c1.32,6.86,0.2,13.99-1.14,20.85s-2.91,13.79-2.48,20.79c0.85,13.93,9.52,26.99,7.21,40.71c-1.82,10.78-10.2,19.56-10.25,30.53
				c-0.06,11.98,9.88,20.98,19.77,25.34c9.89,4.36,20.89,6.19,29.46,13.27c7.22,5.96,12.06,15.45,12.99,25.48
				c0.93,10.03-2.06,20.45-8.03,27.96c-4.33,5.45-10.64,11.07-9.26,18.21c1.89,9.8,15.62,9.64,20.16,18.26
				c6.33,7.84,12.23,16.68,11.91,26.78c-0.28,8.69-5.17,16.38-6.38,24.97c-1.25,8.88,1.52,17.75,3.5,26.46s3.08,18.52-1.06,26.2
				c-3.45,6.39-9.81,9.93-14.41,15.33c-6.17,7.24-8.89,18.03-7,27.84c-12.29,8.33-18.95,19.96-19.81,32.28s4.1,24.98,12.77,32.56
				c9.84,8.6,23.35,10.31,35.59,7.75c12.24-2.56,23.56-8.92,34.69-15.2c3,54.34,4.45,108.76,5.89,163.19c0.8,30,1.47,60.91-7.91,89
				c-325.56-8.51-646.24-23.48-966.29-48.49c5.58-16.8,9.03-37.22,2.16-54.31s-26.43-27.98-41.15-19.25
				c-8.13,4.83-13.23,14.17-19.94,21.25c-6.71,7.08-17.49,11.83-24.84,5.62c-11.51-9.72-1.92-33.23-11.54-45.29
				c-7.54-9.45-20.97-5.55-32.1-3.47c-13.32,2.49-28.01,0.75-38.49-8.85c-10.48-9.6-14.73-28.45-6.62-40.62
				c3.77-5.65,9.5-9.18,13.94-14.18c9.28-10.45,12.01-26.07,18.91-38.66c9.57-17.48,26.34-27.86,41.35-39.5
				c15.01-11.63,29.89-27.27,31.75-47.71c0.79-8.66-0.88-17.37-0.87-26.08c0.02-8.71,2.23-18.25,8.72-23.17
				c3.72-2.27,8.24-2.46,12.35-1.34c4.11,1.12,7.88,3.45,11.44,6.03c16.73,12.14,29.51,29.93,42.08,47.32
				c1.6,2.21,3.23,4.49,5.21,6.28c0.48,0.44,0.98,0.84,1.51,1.2c1.26,0.87,2.65,1.48,4.03,2.09c0.71,0.31,1.43,0.63,2.19,0.61
				C456.31,946.3,456.52,946.27,456.71,946.23z"/>
		</defs>
		<clipPath id="SVGID_00000090975150698847302520000003664802363983359422_">
			<use xlink:href="#SVGID_00000053506141766904632700000010111470867484486588_"  style="overflow:visible;"/>
		</clipPath>
		
			<path style="clip-path:url(#SVGID_00000090975150698847302520000003664802363983359422_);fill:none;stroke:#000000;stroke-miterlimit:10;" d="
			M591.31,837.47"/>
		<path style="clip-path:url(#SVGID_00000090975150698847302520000003664802363983359422_);fill:#FEE29A;" d="M384.9,877.41
			c-9.26-4.22-18.92,6.99-20.37,17.96c-1.46,10.97,1.77,22.13,0.91,33.18c-1.79,22.83-19.91,39.31-36.92,52.36
			c-17.01,13.05-35.81,27.67-40.28,50.04c-1.16,5.79-1.39,12.2-4.81,16.77c-3.73,4.98-10.06,6.22-15.14,9.41
			c-10.13,6.37-14.62,21.08-11.78,33.6c2.84,12.52,11.93,22.57,22.57,27.83c10.64,5.26,22.67,6.2,34.28,5.05
			c6.31-0.63,12.77-1.83,18.9-0.07c6.13,1.76,11.91,7.59,11.57,14.59c-0.24,5.16-3.61,9.49-4.65,14.52
			c-2.4,11.65,9.19,22.19,19.98,21.77c10.79-0.42,20.13-8.1,28.35-15.85c9.91-9.34,22.94-19.94,34.61-13.57
			c9.05,4.94,11.77,17.53,13.47,28.54c1.12,7.23,2.24,14.65,1.02,21.86c-2.68,15.88-16.12,27.81-17.88,43.85
			c-1.27,11.56,3.82,23.58,0.69,34.7c-3.4,12.05-14.89,18.37-24.51,25.15c-9.61,6.79-19.2,18.56-15.57,30.53
			c1.94,6.42,7.19,10.75,11.42,15.63c4.24,4.88,7.79,12,7.34,24.53c-14.37,6.12-22.01,26.73-15.65,42.26
			c6.35,15.53,25.38,22.77,39.01,14.84c10.86-6.32,20.45-20.83,32.07-16.5c4.84,1.8,8.17,6.57,12.16,10.09
			c12,10.59,29.95,9.24,43.4,1.06c13.45-8.18,23.32-21.91,32.44-35.57c9.12-13.66,18.1-27.9,30.56-37.81
			c5.22-4.15,13.27-7.09,17.41-1.65c3.21,4.22,1.6,10.82-1.37,15.25c-2.98,4.43-7.14,7.9-9.41,12.82
			c-5.74,12.42,2.94,27.11,12.63,36.02c9.69,8.91,21.62,16.92,25.05,30.34c2.49,9.74-0.16,20.49,2.72,30.1
			c4.19,14.01,18.36,20.95,26.03,33.02c7.95,12.51,8.05,28.87,9.78,44.04s6.88,32.06,19.62,37.97c12.79,5.94,27.11-1.82,39.18-9.37
			c16.6-10.39,33.65-21.19,45.43-37.79c3.91-5.52,8.62-12.35,14.89-11.3c4.9,0.82,8.01,6.38,9.18,11.71
			c1.17,5.33,1.14,11.03,3.09,16.07c3.98,10.26,15.38,14.92,25.4,13.61c10.02-1.31,18.99-7.23,27.92-16.24
			c20.41,0.7,42.21,1.01,59.46-11.1c11.25-7.9,19.24-20.23,28.64-30.68c13.28-14.77,29.46-25.84,45.48-36.78
			c9.03-6.16,19.65-12.57,29.69-8.81c9.53,3.56,15,15.18,24.33,19.33c11.1,4.94,23.23-2.06,34.43-6.74
			c11.19-4.68,26.75-5.35,32.14,6.48c6.26,13.73-7.62,29.39-5.63,44.61c2.31,17.69,23.13,23.63,32.24,38.39
			c6.28,10.18,6.65,24.21,14.32,33.14c10.99,12.78,29.94,8.35,45.12,2.97c25.86-9.16,54.2-20.54,66.93-47.08
			c4.26-8.88,7.03-19.72,14.97-24.59c8.21-5.03,19.16-1.69,27.14-7.14c13.32-9.11,7.84-33.27,17.61-46.81
			c5.93-8.22,16.27-10.71,25.77-10.73c9.5-0.02,19.08,1.87,28.44,0.09c9.36-1.78,18.91-8.57,22.8-18.67
			c-1.66-9,5.51-17.19,13.07-20.99s16.15-5.21,22.94-10.5c4.86-3.79,8.4-9.29,12.85-13.66c9.23-9.06,21.65-12.69,33.07-17.85
			c19.56-8.84,37.16-22.95,50.86-40.76c7.65-9.95,14.2-21.28,17.01-33.98c2.81-12.69,1.52-26.9-5.34-37.54
			c-10.44-16.18-30.63-20.69-43.35-34.73c-2.62-2.89-5.04-6.28-8.51-7.71s-8.33,0.33-9.81,4.59c0.23,1.98,0.44,4.05-0.18,5.92
			s-2.39,3.44-4.14,2.98c-1.94-0.5-2.83-3.11-2.62-5.3c0.21-2.19,1.16-4.21,1.54-6.38c1.54-8.91-6.78-16.65-6.76-25.73
			c0.01-6.07,3.71-11.24,6.97-16.12c7.98-11.97,14.29-25.31,18.64-39.39c2.45-7.94,4.38-16.32,9.04-22.94
			c8.84-12.57,24.82-15.34,39.2-15.89c8.47-0.32,17.37-0.32,24.8-4.85c7.43-4.53,12.47-15.45,9.02-23.14
			c-5.08-7.88-4.68-18.56-2.8-28.02c1.88-9.46,5.04-18.79,4.78-28.47c-0.54-19.95-15.36-36.61-16.69-56.52
			c-0.53-7.96,1-16.69-2.91-23.39c-4.7-8.06-15.12-9.16-23.52-6.83c-25.13,6.98-41.75,35.24-66.69,43.01
			c-10.45,3.25-21.75,2.66-31.89,6.95c-15.1,6.39-25.27,22.52-39.92,30.08c-15.41,7.95-34.97,4.71-47.66-7.95
			c-9.56-7.17-12.77-22.95-6.91-33.96c4.7-8.83,14.16-14.51,16.41-24.46c1.35-5.99-0.13-12.9,2.98-18.01
			c2.99-4.92,8.97-6.11,13.46-9.35c6.6-4.77,9.65-13.95,9.85-22.67s-1.98-17.26-3.71-25.78c-1.73-8.51-3.02-17.44-1.07-25.9
			c1.64-7.08,5.5-13.53,5.97-20.82c0.81-12.46-8.64-23.13-18.97-28.14c-4.04-1.96-8.41-3.42-11.68-6.7c-3.27-3.27-5-9.16-3.51-14.89
			c11.25-7.44,18.27-22.09,17.52-36.58s-9.23-28.16-21.17-34.13c-7.73-3.87-16.42-4.6-24.47-7.57c-8.05-2.97-16.09-9.32-17.34-18.61
			c-1.61-11.99,8.51-22.03,10.36-33.98c2.28-14.72-8.28-28.41-8.53-43.34c-0.23-13.85,8.44-27.39,5.06-40.73
			c-1.95-7.72-7.75-13.67-14.25-17.18c-6.51-3.51-13.75-4.91-19.1-6.19c-5.44,0.17-9.75-4.98-12.64-10.08s-5.5-10.92-10.35-13.67
			c-5.23-2.96-11.63-1.45-16.97,1.26c-5.34,2.71-10.24,6.55-15.87,8.38c-11.12,3.61-23.61-1.08-34.43,3.54
			c-4.49,1.92-8.84,5.43-13.6,4.65c-3.26-0.54-5.94-3.03-8.69-5.04c-7.66-5.62-17.19-8.04-26.23-6.37
			c-7.44-1.41-15.08,5.18-22.23,2.5c-5.7-2.14-8.39-9.14-12.45-14.06c-5.53-6.71-14.01-9.7-22.21-9.93
			c-8.2-0.23-16.28,1.99-24.23,4.24c-7.69,2.18-15.55,4.49-22.04,9.54c-6.49,5.05-11.43,13.49-10.56,22.23
			c0.41,4.19,2.1,8.09,2.94,12.2c0.85,4.11,0.66,8.92-2.05,11.88c-2.97,3.24-7.69,3.03-11.86,3.03c-8.73,0-17.86,2.07-24.5,8.34
			c-6.64,6.27-9.94,17.5-5.65,27.04c3.75,14.67,0.38,31.4-8.85,42.71c-5.5,6.74-12.71,11.42-19.59,16.37
			c-6.88,4.96-13.73,10.51-17.93,18.32c-4.2,7.8-5.17,18.39-0.31,25.71c5.59,8.43,17.7,11.49,19.62,21.74
			c1.66,8.85-6.86,17.07-15,16.57c-8.15-0.5-15-7.28-19.2-15.03s-6.41-16.59-9.76-24.83c-10.18-25-31.62-44-55.88-49.52
			c-6.73-1.53-13.79-2.06-20.41-0.05c-6.62,2.01-12.77,6.85-15.54,13.81c-1.46,3.66-1.98,7.81-4.02,11.11
			c-3.18,5.13-9.16,6.94-14.66,8.18c-16.62,3.73-33.58,5.59-50.54,5.54c-7.66-0.02-15.5-0.4-22.76,2.28
			c-7.26,2.68-13.94,9.29-14.64,17.73c-0.69,8.36,4.38,15.74,7.78,23.25c7.7,17.05,6.82,38.49-2.8,55.6
			c-15.34,17.49-24.37,41.57-24.74,65.95c-0.14,8.86,0.82,17.76-0.22,26.55c-1.04,8.78-4.5,17.79-11.32,22.44
			c-11.97,8.16-27.81-0.32-41.45,3.46c-14.6,4.05-22.83,20.51-31.81,33.9c-7.85,11.71-17.65,22.16-29.6,28.29
			c-11.95,6.13-26.24,7.55-38.31,1.69c-10.34-5.01-18.14-14.69-27.45-21.75c-8.8-6.67-19.05-11-30.99-12.42
			c-10.76,4.1-22.75-1.77-31.12-10.3c-8.37-8.53-14.32-19.54-22.01-28.82C409.07,891.55,397.36,883.08,384.9,877.41z"/>
		
			<path style="clip-path:url(#SVGID_00000090975150698847302520000003664802363983359422_);fill:none;stroke:#FFD261;stroke-width:15;stroke-linecap:round;stroke-linejoin:round;stroke-miterlimit:10;" d="
			M1165.6,534.89c-13.82,44.47-13.73,94.27,0.25,138.68c6.1,19.38,14.41,42.29,3.64,58.88c-6.06,9.33-16.52,13.38-24.64,20.45
			c-8.12,7.06-13.75,21.41-6.66,29.77"/>
		
			<path style="clip-path:url(#SVGID_00000090975150698847302520000003664802363983359422_);fill:none;stroke:#FFD261;stroke-width:15;stroke-linecap:round;stroke-linejoin:round;stroke-miterlimit:10;" d="
			M1012.7,563.1c28.33,8.29,48.81,42.19,45.29,74.95c-2.13,19.82-11.55,41.29-2.35,58.34c8.41,15.6,27.45,17.68,41.25,27.24
			c22.69,15.72,29.03,49.94,47.97,71.04c12.41,13.83,29.73,21.39,41.04,36.37c16.02,21.22,16.38,51.91,25.75,77.69
			c5.82,16.01,15.11,30.06,22.47,45.25s12.86,32.58,10.07,49.6"/>
		
			<path style="clip-path:url(#SVGID_00000090975150698847302520000003664802363983359422_);fill:none;stroke:#FFD261;stroke-width:15;stroke-linecap:round;stroke-linejoin:round;stroke-miterlimit:10;" d="
			M1193.16,843.56c-0.93,4.57,3.05,8.96,7.24,9.51c4.19,0.56,8.27-1.63,11.85-4.11c11.07-7.67,19.99-18.55,30.34-27.36
			c10.35-8.81,23.2-15.73,36.07-13.36c11.01,2.02,21.03,10.64,32.12,9.3c7.71-0.93,14.54-3.35,18.27-10.9
			c4.79-9.71,13.29-10.34,16.21-19.77"/>
		
			<path style="clip-path:url(#SVGID_00000090975150698847302520000003664802363983359422_);fill:none;stroke:#FFD261;stroke-width:15;stroke-linecap:round;stroke-linejoin:round;stroke-miterlimit:10;" d="
			M1328.29,994.41c-17.38,9.2-44.73,12.47-63.36,7.22c-4.75-1.34-9.79-3.14-14.39-1.26c-7.37,3-9.5,13.26-13.02,21.16
			c-4.52,10.15-13.29,18.06-23.27,19.63c-12.37,1.94-24.34-5.62-34.07-14.44c-9.73-8.83-18.55-19.35-29.91-25.18
			c-13.61-6.98-30.14-6.2-43.18,2.05c-17.46,11.04-26.83,32.8-36.48,52.57c-9.65,19.78-22.5,40.4-42.02,45.43"/>
		
			<path style="clip-path:url(#SVGID_00000090975150698847302520000003664802363983359422_);fill:none;stroke:#FFD261;stroke-width:15;stroke-linecap:round;stroke-linejoin:round;stroke-miterlimit:10;" d="
			M1079.16,1134.88c-7.45,2.16-15.06,4.34-22.73,3.73c-7.67-0.61-15.56-4.52-19.46-12c-2.75-5.27-3.24-11.66-5.48-17.23
			c-5.14-12.77-18.09-18.69-30.02-22.65c-27.97-9.27-57.03-14.31-86.18-14.95c-5.79-0.13-11.97,0.04-16.78,3.68
			c-5.48,4.15-7.85,11.73-10.48,18.56c-10.46,27.19-30.44,49.55-54.63,61.12"/>
		
			<path style="clip-path:url(#SVGID_00000090975150698847302520000003664802363983359422_);fill:none;stroke:#FFD261;stroke-width:15;stroke-linecap:round;stroke-linejoin:round;stroke-miterlimit:10;" d="
			M933.88,734.59c9.12,19.63,28.77,29.44,47.12,37.38s38.15,16.58,48.73,35.25c4.77,8.43,7.26,18.31,12.13,26.66
			c4.94,8.47,12.08,14.95,19.1,21.29c9.24,8.34,18.65,16.8,29.62,21.81c14.61,6.67,31.15,6.73,46.46,2.5
			c15.31-4.23,29.52-12.52,42.78-22.12c3.34-2.42,6.74-4.97,10.62-5.89c3.88-0.92,8.45,0.2,10.67,3.91"/>
		
			<path style="clip-path:url(#SVGID_00000090975150698847302520000003664802363983359422_);fill:none;stroke:#FFD261;stroke-width:15;stroke-linecap:round;stroke-linejoin:round;stroke-miterlimit:10;" d="
			M933.43,746.69c-2.2,27.24,4.02,55.26,17.36,78.11c8.32,14.26,19.8,28.19,19.42,45.25c-0.23,10.32-4.89,19.76-7.31,29.71
			c-2.41,9.95-1.75,22.45,5.86,28.17c13.31,9.99,34.08-9.43,46.18,2.37c8.13,7.94,5.25,24.37,13.23,32.5
			c8.2,8.35,21.23,2.29,32.12,4.4c12.76,2.47,21.64,16.72,23.7,31.14s-2.61,28.32-5.87,42.46"/>
		
			<path style="clip-path:url(#SVGID_00000090975150698847302520000003664802363983359422_);fill:none;stroke:#FFD261;stroke-width:15;stroke-linecap:round;stroke-linejoin:round;stroke-miterlimit:10;" d="
			M1139.97,879.91c-0.85,17.43-8.05,33.93-18.04,47.27c-9.98,13.34-22.64,23.81-35.74,33.12c-3.5,2.48-7.16,5.03-9.36,8.97
			c-2.2,3.94-1.1,8.46,1.71,12.8"/>
		
			<path style="clip-path:url(#SVGID_00000090975150698847302520000003664802363983359422_);fill:none;stroke:#FFD261;stroke-width:15;stroke-linecap:round;stroke-linejoin:round;stroke-miterlimit:10;" d="
			M932.32,757.78c-2.59,14.61-17.45,21.54-30.48,24.03s-27.68,3.74-36.5,14.83c-9.91,12.45-7.96,31.51-5.41,47.99
			c3.38,21.84,6.76,43.69,10.14,65.53c7.33,47.39,14.81,95.34,32.09,139.33c3.17,8.08,0.31,9.96,6.64,15.17
			c6.33,5.21,17.89,7.54,30.41,8.64"/>
		
			<path style="clip-path:url(#SVGID_00000090975150698847302520000003664802363983359422_);fill:none;stroke:#FFD261;stroke-width:15;stroke-linecap:round;stroke-linejoin:round;stroke-miterlimit:10;" d="
			M640.95,916.57c30.37,59.03,66.38,72.08,116.2,110.83c15.58,12.12,31.37,24.36,49.12,31.74c34.68,14.41,72.96,8.94,109.76,8.83
			c-0.25,0.56-0.5,1.12-0.75,1.69"/>
		
			<path style="clip-path:url(#SVGID_00000090975150698847302520000003664802363983359422_);fill:none;stroke:#FFD261;stroke-width:15;stroke-linecap:round;stroke-linejoin:round;stroke-miterlimit:10;" d="
			M708.82,988.67c0.14-17.31,16.09-32.15,31.18-29.03c9.32,1.93,17.4,9.4,26.85,10.03c9.91,0.66,19.11-6.53,25.06-15.48
			s9.43-19.63,13.77-29.7c12.68-29.46,30.23-54.43,55.45-70.66c0.8,3.97,1.38,8.71,2.18,12.69"/>
		
			<path style="clip-path:url(#SVGID_00000090975150698847302520000003664802363983359422_);fill:none;stroke:#FFD261;stroke-width:15;stroke-linecap:round;stroke-linejoin:round;stroke-miterlimit:10;" d="
			M428.2,1145.46c15.75-6.3,17.29-4.5,27.71-19.37c6.37-9.09,12.26-17.72,22.04-13.93c8.76,3.39,9.19,16.58,10.58,26.78
			c3.82,28.03,29.39,50.1,54.72,47.23c25.34-2.87,46.38-30.23,45.04-58.54c-0.34-7.2-1.82-15,1.49-21.19
			c5.18-9.71,17.72-8.81,27.85-8.24c10.13,0.57,23.48-3.98,23.24-15.27"/>
		
			<path style="clip-path:url(#SVGID_00000090975150698847302520000003664802363983359422_);fill:none;stroke:#FFD468;stroke-width:15;stroke-linecap:round;stroke-linejoin:round;stroke-miterlimit:10;" d="
			M646.91,1091.9c-3.38,8.41-0.94,18.41,3.13,26.42c4.06,8.01,9.67,14.99,13.24,23.29s4.74,18.89-0.09,26.34
			c-3.41,5.27-9.07,7.92-13.91,11.49c-11.96,8.81-19.58,24.66-19.6,40.77"/>
		<path style="clip-path:url(#SVGID_00000090975150698847302520000003664802363983359422_);fill:#C8EBFC;" d="M512.34,961.03
			c16.07,16.31,42.21,18.23,60.01,4.4c48.45,57.04,100.64,114.41,166.86,140.15c24.83,9.65,51.34,14.71,74.25,29.18
			c18.76,11.85,34.1,29.37,50.79,44.67c16.69,15.3,35.97,28.91,54.7,34.63c-3.64,16.02-17.23,27.57-31.66,30.51
			c-14.43,2.94-29.39-1.56-42.5-8.98c-13.11-7.43-24.75-17.68-36.75-27.2c-50.69-40.2-108.32-67.66-161.95-102.68
			c-53.63-35.01-105.1-80.05-134.05-141.84C512.27,964,512.51,964.14,512.34,961.03z"/>
		<path style="clip-path:url(#SVGID_00000090975150698847302520000003664802363983359422_);fill:#C8EBFC;" d="M986.11,1200.74
			c17.01-18.84,34.15-37.79,53.97-52.74c19.82-14.95,42.7-25.81,66.54-26.6c41.98-1.39,80.37,27.98,122.24,31.62
			c31.91,2.78,64.65-10.41,87.77-35.36c23.12-24.95,36.79-64.51,34.35-99.54c18.3,3.12,37.23-1.22,49.89-16.43
			c6.37,13.76,7.1,30.19,4.32,45.39c-2.77,15.2-8.82,29.39-15.47,42.97c-15.72,32.1-35.15,61.87-57.66,88.33
			c-15.58,18.31-34.22,35.87-56.61,38.4c-41.4,4.68-74.48-42.59-115.91-46.81c-27.17-2.77-52.74,13.42-76.01,29.47
			s-48.1,33.1-75.38,32.32c-7.25-0.21-14.98-2-20.01-7.89C983.1,1217.98,981.32,1206.04,986.11,1200.74z"/>
	</g>
	<g style="clip-path:url(#SVGID_00000031192084876632415580000005652765013028940734_);">
		<g>
			<g>
				
					<ellipse transform="matrix(0.7384 -0.6744 0.6744 0.7384 10.2245 994.8137)" class="st8" cx="1287.37" cy="484.23" rx="88.7" ry="21.05"/>
				
					<ellipse transform="matrix(0.3026 -0.9531 0.9531 0.3026 443.7438 1533.2012)" class="st8" cx="1269.54" cy="463.38" rx="54.39" ry="20.71"/>
				<ellipse class="st8" cx="1231.65" cy="491.97" rx="20.6" ry="54.69"/>
				
					<ellipse transform="matrix(0.0707 -0.9975 0.9975 0.0707 706.6912 1764.2865)" class="st8" cx="1300.26" cy="502.85" rx="21.26" ry="53.01"/>
				
					<ellipse transform="matrix(0.0707 -0.9975 0.9975 0.0707 644.2733 1769.5104)" class="st8" cx="1271.85" cy="538.97" rx="21.26" ry="53.01"/>
			</g>
		</g>
		<path class="st9" d="M1227.57,485.75c10.83,27.32-6.9,62.81-6.9,62.81s-35.28-8.79-46.11-36.1c-10.83-27.32,6.9-62.81,6.9-62.81
			S1216.74,458.43,1227.57,485.75z"/>
		<path class="st9" d="M1241.64,407.35c-3.87,8.25-9.07,14.19-13.1,15.49c-0.95,0.31-1.83,0.35-2.61,0.12
			c-0.21-0.07-0.42-0.16-0.63-0.27c0,0,0,0,0,0c-3.81-1.91-7.91-9.35-10.03-18.9c-2.64-11.88-1.21-22.52,3.19-23.76
			c3.69-1.04,9.33,9.34,9.82,27.58c3.74-17.76,11.93-26.2,15.3-24.19C1247.59,385.81,1246.72,396.52,1241.64,407.35z"/>
		<path class="st10" d="M1183.22,455.3c0,0,17.77,31.64,24.79,50.83"/>
		<path class="st10" d="M1174.71,484.23c0,0,17.58,3.7,26.84,7.74"/>
		<path class="st10" d="M1205.58,464.79c0,0-3.13,15.41-6.48,20.94"/>
		<path class="st10" d="M1179.86,510.56c0,0,23.76,1.9,30.77,5.59"/>
		<path class="st10" d="M1221.57,489.99c0,0-3.65,17.4-8.04,26.15"/>
		<path class="st11" d="M1344.71,432.62c0,0-97.79,72.14-110.84,85.9"/>
		<path class="st11" d="M1280.87,422.02c0,0-14.59,43.19-12.77,68.34"/>
		<path class="st11" d="M1230.02,451.29c0,0,1.85,55,4.81,66.26"/>
		<path class="st11" d="M1341.06,506.13c-0.28,0.53-48.04-0.98-68.5-19.21"/>
		<path class="st11" d="M1310.75,542.88c0,0-49.41-7.65-71.29-29.53"/>
		<g>
			<path class="st12" d="M1236.63,530.03c19.67,44.03-31.65,40.73-7.67-0.49c-23.98,41.22-47.11-10.54-3.46-7.74
				c-43.65-2.81-15.46-51.27,4.21-7.24c-19.67-44.03,31.65-40.73,7.67,0.49c23.98-41.22,47.11,10.54,3.46,7.74
				C1284.5,525.6,1256.31,574.06,1236.63,530.03z"/>
		</g>
		<path class="st13" d="M1231.47,521.21c-11.24-3.95-22.29-17.08-22.29-17.08"/>
		<path class="st13" d="M1231.65,555.93c0,0,0.51-25.58,0-33.2c-1.08-16.02,2.22-33.32,2.22-33.32"/>
		<path class="st13" d="M1257.36,540.05c-0.7-0.63-11.59-8.99-25.71-17.33"/>
		<path class="st13" d="M1257.93,506.58c0,0-4.45,7.64-26.46,15.72c-7.33,2.69-24.96,15.05-24.96,15.05"/>
	</g>
	<g style="clip-path:url(#SVGID_00000031192084876632415580000005652765013028940734_);">
		<path class="st14" d="M660.54,439.5c0,0,24.84,26.25,56.19,87.48c0,0,47.1,90.13,40.71,119.62c0,0,8.4,73.94-12.59,139.03"/>
		<path class="st8" d="M663.73,453.22c13.82,4.1,21.3,23.38,21.3,23.38s-14.93,12.62-28.75,8.52s-21.3-23.38-21.3-23.38
			S649.91,449.12,663.73,453.22z"/>
		<path class="st11" d="M663.73,457.69c0,0,2.5,3.75,4.09,11.21"/>
		<g>
			<path class="st9" d="M800.05,687.69c-11.4,39.91-53.57,60.3-53.57,60.3s-23.69-44.31-12.3-84.21
				c11.4-39.91,53.57-60.3,53.57-60.3S811.45,647.78,800.05,687.69z"/>
			<path class="st9" d="M787.65,423.6c-0.89,16.52-5.42,30.39-11.08,35.81c-1.33,1.28-2.72,2.08-4.14,2.35
				c-0.38,0.06-0.78,0.09-1.19,0.09c0,0,0,0,0,0c-7.39,0.07-18.85-8.56-28.48-22.23c-11.98-17-16.59-35.34-10.29-40.98
				c5.28-4.73,21.12,7.37,33.78,36.41c-5.51-31.76,2.24-52.14,8.99-51.68C783.25,383.92,788.81,401.93,787.65,423.6z"/>
			<path class="st15" d="M743.54,365.04c0,0,15.07,34.42,25.32,104.17c0,0,15.98,103.05,0.81,128.12c0,0-15.2,72.55-55.14,125.16"/>
			<path class="st8" d="M813.44,549.76c-10.8,24.79-25.71,42.87-37.52,47.11c-2.78,1-5.38,1.23-7.72,0.61
				c-0.63-0.19-1.26-0.43-1.89-0.72c0,0,0,0,0,0c-11.42-5.26-24.14-26.88-31.16-54.92c-8.73-34.87-5.35-66.48,7.56-70.59
				c10.84-3.45,28.32,26.69,31.22,80.61c9.66-52.91,33.25-78.67,43.37-73.06C829.33,485.46,827.61,517.23,813.44,549.76z"/>
			<path class="st9" d="M725.83,480.05c-0.93,16.08-16.28,28.04-16.28,28.04s-13.84-14.11-12.91-30.19
				c0.93-16.08,16.28-28.04,16.28-28.04S726.75,463.97,725.83,480.05z"/>
			<path class="st10" d="M784.21,611.78c-11.26,17.8-18.37,38.93-20.4,60.68"/>
			<path class="st10" d="M754.74,635.54c1.72,9.3,5.3,18.16,10.39,25.72"/>
			<path class="st10" d="M766.6,682.13c11.95-4.99,23.03-12.02,32.59-20.71"/>
			<path class="st10" d="M742.83,666.55c0.34,4.6,1.91,9.08,4.47,12.69"/>
			<g>
				<g>
					<g>
						<g>
							<path class="st9" d="M621.21,665.06c63.8,95.68,100.47,193.47,100.47,193.47s-66.76-57.34-130.55-153.02
								s-108.78-182.3-100.47-193.47C498.96,500.87,557.41,569.38,621.21,665.06z"/>
							<path class="st9" d="M611.24,719.61c64.59,60.03,108.41,136.63,108.41,136.63s-60.91-20.72-125.51-80.74
								c-64.59-60.03-113.13-121.2-108.41-136.63C490.45,623.43,546.65,659.58,611.24,719.61z"/>
							<path class="st9" d="M659.41,658.77c44.06,101.12,60.2,194.96,60.2,194.96s-55.31-70.12-99.37-171.25
								c-44.06-101.12-71.01-188.41-60.2-194.96C570.86,480.98,615.35,557.65,659.41,658.77z"/>
						</g>
						<g>
							<g>
								
									<ellipse transform="matrix(0.6564 -0.7544 0.7544 0.6564 -416.4311 721.3773)" class="st8" cx="583.7" cy="817.84" rx="24.87" ry="103.41"/>
								
									<ellipse transform="matrix(0.9416 -0.3368 0.3368 0.9416 -231.1566 248.9078)" class="st8" cx="601.94" cy="790.8" rx="23.5" ry="66.02"/>
								
									<ellipse transform="matrix(0.9977 -0.0673 0.0673 0.9977 -53.9175 45.4209)" class="st8" cx="646.76" cy="822.45" rx="23.15" ry="67.02"/>
								
									<ellipse transform="matrix(0.9873 -0.159 0.159 0.9873 -126.5792 101.4712)" class="st8" cx="570.81" cy="841.73" rx="59.63" ry="26.02"/>
								
									<ellipse transform="matrix(0.9873 -0.159 0.159 0.9873 -132.7646 107.539)" class="st8" cx="605.63" cy="883.42" rx="59.63" ry="26.02"/>
							</g>
						</g>
						<path class="st9" d="M594.88,955.6c-28.27,9.54-58.67-10.91-58.67-10.91s15.43-35.92,43.7-45.47
							c28.27-9.54,58.67,10.91,58.67,10.91S623.15,946.06,594.88,955.6z"/>
						<g>
							<g>
								
									<ellipse transform="matrix(0.9947 -0.1026 0.1026 0.9947 -71.6455 76.4017)" class="st8" cx="706.87" cy="734.66" rx="23.17" ry="110.99"/>
								
									<ellipse transform="matrix(0.3447 -0.9387 0.9387 0.3447 -203.0633 1170.495)" class="st8" cx="736.79" cy="730.68" rx="65.97" ry="23.52"/>
								
									<ellipse transform="matrix(0.6015 -0.7989 0.7989 0.6015 -332.371 911.812)" class="st8" cx="747.7" cy="789.03" rx="63.92" ry="24.27"/>
								
									<ellipse transform="matrix(0.681 -0.7323 0.7323 0.681 -324.6972 736.2494)" class="st8" cx="682.67" cy="740.79" rx="24.79" ry="62.58"/>
								
									<ellipse transform="matrix(0.681 -0.7323 0.7323 0.681 -367.3615 752.7203)" class="st8" cx="680.24" cy="797.99" rx="24.79" ry="62.58"/>
							</g>
						</g>
						<path class="st8" d="M488.81,582.14c4.21,8.03,5.98,16.13,4.86,20.68c-0.26,1.07-0.69,1.94-1.28,2.57
							c-0.16,0.16-0.34,0.32-0.53,0.47c0,0,0,0,0,0c-3.44,2.67-11.21,2.71-19.54-0.24c-10.36-3.68-17.65-10.61-16.29-15.49
							c1.14-4.1,11.94-4.08,25.99,4.98c-11.47-12.88-13.56-25.17-10.28-27.36C475.64,565.17,483.28,571.6,488.81,582.14z"/>
						<path class="st10" d="M543.88,942.79c26.57-18.95,57.81-29.49,89.24-30.13"/>
						<path class="st10" d="M577.11,924.96c-3.15,9.63-8.07,18.52-14.36,25.95"/>
						<path class="st10" d="M599.59,917.4c-3.05,13.26-9.51,25.49-18.39,34.84"/>
						<path class="st10" d="M622.27,913.83c-2.27,12.99-9.41,24.8-19.3,31.94"/>
						<path class="st10" d="M610.86,914.13c-5.52-7.53-13.85-12.35-22.5-13.03"/>
						<path class="st10" d="M587.14,920.64c-6.01-7.18-15.39-10.53-23.97-8.57"/>
						<path class="st10" d="M565.22,929.76c-4.9-2.54-10.63-3-15.8-1.27"/>
						<g>
							<path class="st9" d="M472.62,768.66c21.73,5.81,34.19,35.08,34.19,35.08s-22.78,19.86-44.51,14.06
								c-21.73-5.81-34.19-35.08-34.19-35.08S450.89,762.85,472.62,768.66z"/>
							<path class="st10" d="M433.55,784.56c24.85-3.67,50.79,3.04,71.74,18.54"/>
							<path class="st10" d="M455.54,771.62c5.34,2.63,9.55,7.82,11.27,13.92"/>
							<path class="st10" d="M473.91,772.35c6,4.72,10.56,11.74,12.75,19.62"/>
							<path class="st10" d="M445.87,799.97c10.83-0.36,21.53-4.53,30.25-11.76"/>
							<path class="st10" d="M466.26,808.5c10.75,0.15,21.5-3.94,29.97-11.41"/>
						</g>
						<path class="st11" d="M513.48,757.44c33.01,31.36,67.18,61.14,102.37,89.23"/>
						<path class="st11" d="M522.86,848.72c23.77-1.1,47.32-8.46,68.15-21.31"/>
						<path class="st11" d="M585.83,740.44c13.44,29.89,20.22,63.55,19.56,97.05"/>
						<path class="st11" d="M562.32,889.96c21.28-2.29,42.09-9.72,60.92-21.73"/>
						<path class="st11" d="M642.81,772.25c3.26,21.78,5.16,44.24,5.58,65.97"/>
						<path class="st11" d="M696.76,639.78c-0.42,50.04,6.67,101.01,20.7,148.67l5.25,22.99"/>
						<path class="st11" d="M642.57,707.24c17.38,17.99,39.34,30.9,62.95,37.01"/>
						<path class="st11" d="M672.46,780.17c14.29,6.16,29.96,9.74,45.86,10.49"/>
						<path class="st11" d="M632.48,764.12c2.94-5.53,9.53-7.71,15.05-6.04s9.94,6.56,12.7,12.2c2.76,5.64,4.07,12.02,5.16,18.35"/>
						<path class="st11" d="M758.48,678.79c-9.86,29.26-26.79,56.16-48.84,77.63"/>
						<path class="st16" d="M781.39,744.3c-10.47,29.47-31.09,55.45-57.18,72.04"/>
						<path class="st10" d="M500.67,529.18c56.54,65.55,101.86,143.36,132.73,227.91"/>
						<path class="st10" d="M563.92,503.95c32.94,60.57,61.29,124.3,84.66,190.28"/>
						<path class="st10" d="M492.21,643.92c26.58,30.69,55.66,58.63,86.75,83.34"/>
						<g>
							<g>
								<path class="st17" d="M731.75,762.67c29.79,24.07-9.46,44.12-5.86,3c-3.59,41.12-38.61,12.82-5.23-4.23
									c-33.38,17.05-29.16-31.29,0.63-7.22c-29.79-24.07,9.46-44.12,5.86-3c3.59-41.12,38.61-12.82,5.23,4.23
									C765.77,738.39,761.54,786.74,731.75,762.67z"/>
							</g>
							<path class="st18" d="M716.32,736.81c4.74,6.86,8.18,14.86,10.48,23.68c5.37-5.69,9.86-12.44,13.2-19.85"/>
							<path class="st18" d="M747.75,760.23c-6.84-2.3-14.31-2.1-20.43,0.64c3.73,4.72,5.95,10.93,6.16,17.25"/>
							<path class="st18" d="M714,775.42c5.29-3.54,9.78-8.56,13.39-14.55c-6.15-2.86-12.6-4.87-19.17-5.98"/>
						</g>
						<g>
							<path class="st19" d="M691.75,868.8c68.48,55.34-21.74,101.43-13.48,6.89c-8.26,94.54-88.78,29.48-12.03-9.72
								c-76.74,39.2-67.03-71.95,1.45-16.61c-68.48-55.34,21.74-101.43,13.48-6.89c8.26-94.54,88.78-29.48,12.03,9.72
								C769.95,812.99,760.24,924.14,691.75,868.8z"/>
						</g>
						<g>
							<path class="st12" d="M654.56,588.7c51.26,41.42-16.28,75.92-10.09,5.16c-6.18,70.77-66.45,22.07-9.01-7.28
								c-57.45,29.35-50.18-53.85,1.09-12.43c-51.26-41.42,16.28-75.92,10.09-5.16c6.18-70.77,66.45-22.07,9.01,7.28
								C713.1,546.92,705.83,630.12,654.56,588.7z"/>
						</g>
					</g>
					<path class="st20" d="M655.78,801.24c0,0,8.28,36.57,25.44,53.8c6.89-19.29,19.33-36,34.98-47"/>
					<path class="st20" d="M625.71,854.21c0,0,30.99,7.83,55.5,0.83c0,0-12.37,32.05-30.85,51.28"/>
					<path class="st20" d="M680.8,856.09c8.74,41.01,21.9,58.94,21.67,59.45"/>
					<path class="st20" d="M735.3,864.67c0,0-29.09,6.09-54.08-9.63"/>
				</g>
				<path class="st21" d="M606.44,577.77"/>
				<path class="st13" d="M603.49,577.28c0,0,12.44,6.17,41.48,4.22c0,0,20.65-3.15,38.92,3.43"/>
				<path class="st13" d="M621.85,620.48c0,0,9.32-28.3,23.71-39.06c0.6-0.45-0.82-1.33-1.21-2.01
					c-11.44-19.4-16.62-41.27-16.62-41.27"/>
				<path class="st13" d="M662.13,625.41c-0.31-0.28-2.87-23.43-17.21-44.39"/>
				<path class="st13" d="M644.97,581.5c0,0,8.32-27.16,23.03-38.51"/>
			</g>
			<g>
				<path class="st9" d="M891.71,511.71c-4.84,11.35-18.85,15.08-18.85,15.08s-6.17-14.67-1.33-26.02
					c4.84-11.35,18.85-15.08,18.85-15.08S896.55,500.36,891.71,511.71z"/>
				<path class="st10" d="M889,488.49c-1.07,14.08-6.74,27.65-15.7,37.53"/>
				<path class="st10" d="M892.25,501.98c-1.71,2.66-4.41,4.42-7.23,4.72"/>
				<path class="st10" d="M889.97,512.02c-2.69,2.8-6.21,4.56-9.86,4.92"/>
				<path class="st10" d="M881,493.63c-1,6-0.34,12.34,1.86,17.92"/>
				<path class="st10" d="M875.13,503.94c-1.21,5.9-0.59,12.26,1.74,17.72"/>
			</g>
			<g>
				<path class="st9" d="M860.99,565.15c-8.98,13.3-28.09,13.93-28.09,13.93s-4.54-20.93,4.44-34.23
					c8.98-13.3,28.09-13.93,28.09-13.93S869.97,551.85,860.99,565.15z"/>
				<path class="st10" d="M862.97,534.14c-4.72,17.98-15.33,33.92-29.31,44.07"/>
				<path class="st10" d="M864,552.67c-2.86,2.94-6.78,4.42-10.53,3.95"/>
				<path class="st10" d="M858.66,565.04c-4.16,2.83-9.16,4.06-13.99,3.43"/>
				<path class="st10" d="M851.35,538.41c-2.72,7.5-3.37,15.95-1.83,23.86"/>
				<path class="st10" d="M841.27,550.06c-2.98,7.31-3.67,15.77-1.94,23.57"/>
			</g>
			<path class="st10" d="M712.82,453.08c0,0-6.55,27.95-3.41,53.31"/>
			<path class="st10" d="M703.1,463.73c0,0-0.05,4.27,5.85,12.66"/>
			<path class="st10" d="M699.03,480.15c0,0,2.81,7.33,9.07,13.39"/>
			<path class="st10" d="M710.02,469.62c0,0,5.05-0.99,8.42-5.63"/>
			<path class="st10" d="M708.66,486.05c0,0,5.8-1.31,12.49-8.75"/>
			<path class="st11" d="M637.34,461.82c0,0,30.73,4.33,44.62,13.51"/>
			<path class="st11" d="M652.28,454.92c0,0,3.49,7.25,4.66,10.82"/>
			<path class="st11" d="M647.23,474.77c0,0,9.73-2.67,14.09-7.87"/>
			<path class="st11" d="M662.74,480.79c0,0,8.47-2.84,12.28-9.14"/>
		</g>
	</g>
	<g style="clip-path:url(#SVGID_00000031192084876632415580000005652765013028940734_);">
		<path class="st9" d="M326.75,979.26c-0.46,9.32-2.98,17.16-6.16,20.24c-0.75,0.72-1.53,1.18-2.33,1.34
			c-0.22,0.03-0.44,0.05-0.67,0.06c0,0,0,0,0,0c-4.17,0.06-10.66-4.77-16.12-12.45c-6.8-9.55-9.44-19.89-5.91-23.09
			c2.97-2.69,11.93,4.09,19.14,20.44c-3.18-17.9,1.14-29.42,4.95-29.18C324.18,956.89,327.36,967.03,326.75,979.26z"/>
		<path class="st9" d="M249.64,988.65c42.58,13.88,64.61,73.82,64.61,73.82s-47,37.43-89.58,23.54s-64.61-73.82-64.61-73.82
			S207.07,974.77,249.64,988.65z"/>
		<path class="st9" d="M282.65,1096.19c24.13-13.89,56.37,2.86,56.37,2.86s-6.88,39.26-31.01,53.15
			c-24.13,13.89-56.37-2.86-56.37-2.86S258.53,1110.08,282.65,1096.19z"/>
		<path class="st14" d="M121.63,1024.67c0,0,11.76,48.49,49.91,69.94c5.63,3.17,24.01,13.05,64.54,7.5c0,0,31.46-3.56,54.24-19.45"
			/>
		<path class="st15" d="M47.02,1077.57c0,0,32.6,53.78,90.83,63.64c8.6,1.46,36.49,5.66,88.45-18.21c0,0,40.59-17.62,65.33-46.5"/>
		<path class="st8" d="M191.93,1109.47c14.53,2.36,26.42,8.59,30.74,15.4c1.02,1.6,1.62,3.23,1.73,4.85
			c0.02,0.44,0.01,0.89-0.02,1.35c0,0,0,0,0,0c-0.55,8.31-9.12,20.48-21.99,30.17c-16.01,12.06-32.61,15.72-37.07,8.19
			c-3.75-6.33,8.25-23.13,34.96-34.96c-28.53,3.57-45.9-6.82-44.94-14.36C156.5,1111.15,172.88,1106.38,191.93,1109.47z"/>
		<path class="st9" d="M124.75,1115.87c8.05,6.94,13.35,15.21,13.92,20.95c0.14,1.35,0.01,2.56-0.4,3.58
			c-0.12,0.27-0.26,0.54-0.41,0.81c0,0,0,0,0,0c-2.81,4.8-11.61,8.87-22.26,9.83c-13.25,1.18-24.34-2.91-24.78-9.14
			c-0.37-5.24,11.88-10.8,31.51-7.78c-18.25-8.68-25.62-21.54-22.79-25.72C102.9,1103.42,114.19,1106.77,124.75,1115.87z"/>
		<path class="st8" d="M80.51,1096.8c3.84,7.7,5.34,15.51,4.15,19.94c-0.28,1.04-0.71,1.9-1.29,2.52c-0.16,0.16-0.33,0.32-0.52,0.46
			c0,0,0,0,0,0c-3.36,2.65-10.81,2.85-18.71,0.15c-9.84-3.36-16.66-9.93-15.23-14.68c1.19-3.99,11.54-4.19,24.78,4.31
			c-10.68-12.25-12.38-24.11-9.18-26.29C68.3,1080.62,75.47,1086.7,80.51,1096.8z"/>
		<path class="st9" d="M162.15,1061.7c4.08,11.3,4.98,22.15,2.76,27.78c-0.52,1.33-1.22,2.36-2.09,3.05
			c-0.24,0.18-0.5,0.34-0.77,0.49c0,0,0,0,0,0c-4.89,2.7-14.95,1.08-25.21-4.54c-12.76-6.99-21.01-17.53-18.42-23.54
			c2.17-5.04,16.12-2.69,32.74,12.07c-12.63-19.13-13.24-35.46-8.63-37.58C148.02,1036.91,156.8,1046.88,162.15,1061.7z"/>
		<path class="st10" d="M164.13,1011.91c35.04,23.96,74.98,39.06,115.92,43.82"/>
		<g>
			<g>
				<path class="st17" d="M327.41,1063.86c41.51,37.33-16.6,63.04-8.68,3.84c-7.92,59.2-56.72,15.31-7.29-6.56
					c-49.43,21.87-40.12-47.73,1.39-10.4c-41.51-37.33,16.6-63.04,8.68-3.84c7.92-59.2,56.72-15.31,7.29,6.56
					C378.24,1031.59,368.93,1101.19,327.41,1063.86z"/>
			</g>
			<path class="st22" d="M310.64,1027.01c-0.65,10.9,2.27,22.03,8.89,31.56c5.01-10.17,12.35-18.86,21.12-24.99"/>
			<path class="st22" d="M347.9,1061.4c-8.62-4.1-18.4-5.03-28.08-2.19c5.97,8.49,9.42,19.18,9.68,30.01"/>
			<path class="st22" d="M301.64,1081.94c7.44-4.98,13.36-12.8,17.71-23.69c-8.32,3.27-18.1,1.33-24.93-4.95"/>
		</g>
		<path class="st10" d="M196.5,994.85c10.43,14.08,19.03,29.88,25.44,46.74"/>
		<path class="st10" d="M238.96,994.35c12.89,15.92,20.75,36.91,21.87,58.43"/>
		<path class="st10" d="M191.78,1059.08c17.35,5.17,36.63,1.36,51.35-10.2"/>
		<path class="st10" d="M232.36,1079.41c17.06,1.16,34.41-7.93,44.64-23.37"/>
		<path class="st10" d="M254.4,1147.26c16.69-24.48,42.16-41.12,69.3-45.27"/>
		<path class="st10" d="M281.73,1119.47c-2.61,11.48-7.34,22.35-13.79,31.7"/>
		<path class="st10" d="M303.37,1108.02c-1.83,16.75-8.13,32.85-17.87,45.67"/>
		<path class="st10" d="M321.3,1103.08c0.29,15.67-4.37,31.41-12.94,43.75"/>
		<path class="st10" d="M291.43,1113.06c-9.54-2.08-19.84,0.69-27.52,7.41"/>
		<path class="st10" d="M313.15,1104.4c-11.57-5.11-24.99-4.6-36.23,1.38"/>
	</g>
	<g style="clip-path:url(#SVGID_00000031192084876632415580000005652765013028940734_);">
		<path class="st17" d="M861.22,661.84c27.09,27.83-13.97,42.57-6.13,2.2c-7.83,40.37-39.68,7.64-4.76-4.89
			c-34.92,12.53-25.71-34.92,1.38-7.09c-27.09-27.83,13.97-42.57,6.13-2.2c7.83-40.37,39.68-7.64,4.76,4.89
			C897.52,642.22,888.31,689.68,861.22,661.84z"/>
	</g>
	<path style="clip-path:url(#SVGID_00000031192084876632415580000005652765013028940734_);fill:#FFC799;" d="M901.11,650.47
		c-4.68,3.23-12.08-0.81-12.08-0.81s0.18-9.27,4.85-12.5c4.68-3.23,10.08-2.86,12.08,0.81
		C907.96,641.64,905.78,647.24,901.11,650.47z"/>
	
		<path style="clip-path:url(#SVGID_00000031192084876632415580000005652765013028940734_);fill:none;stroke:#FFB499;stroke-width:3;stroke-linecap:round;stroke-linejoin:round;stroke-miterlimit:10;" d="
		M849.32,631.67c0.99,9.44,3.25,18.72,6.96,27.94c3.88-7.97,9.59-14.79,16.42-19.61"/>
	
		<path style="clip-path:url(#SVGID_00000031192084876632415580000005652765013028940734_);fill:none;stroke:#FFB499;stroke-width:3;stroke-linecap:round;stroke-linejoin:round;stroke-miterlimit:10;" d="
		M876.78,664.33c-6.2-3.77-13.41-5.37-20.77-5c3.18,6.75,4.83,14.41,4.74,22.05"/>
	
		<path style="clip-path:url(#SVGID_00000031192084876632415580000005652765013028940734_);fill:none;stroke:#FFB499;stroke-width:3;stroke-linecap:round;stroke-linejoin:round;stroke-miterlimit:10;" d="
		M838.94,678.11c4.03-7.9,10.03-14.51,17.19-18.32c-5.71-6.52-13.95-10.12-22.07-9.64"/>
	
		<path style="clip-path:url(#SVGID_00000031192084876632415580000005652765013028940734_);fill:none;stroke:#FFB499;stroke-width:3;stroke-linecap:round;stroke-linejoin:round;stroke-miterlimit:10;" d="
		M889.8,649.08c1.53-3.79,4.34-6.9,7.73-8.55"/>
</g>
</svg>
