<svg width="35" height="30" viewBox="0 0 35 30" fill="none" xmlns="http://www.w3.org/2000/svg">
<path d="M18.7695 24.3832C18.1839 24.0729 17.4825 24.0729 16.8969 24.3832L8.60511 28.7763C7.83414 29.1848 6.9464 28.479 7.1705 27.6358L9.22246 19.9146C9.43066 19.1312 9.1454 18.2996 8.50018 17.809L1.82412 12.7322C1.09135 12.1749 1.43713 11.0073 2.35516 10.9389L11.5383 10.255C12.2505 10.202 12.8804 9.77324 13.1909 9.13014L16.9327 1.38031C17.2965 0.626705 18.3699 0.626705 18.7337 1.38031L22.4756 9.13014C22.7861 9.77324 23.4159 10.202 24.1281 10.255L33.3113 10.9389C34.2293 11.0073 34.5751 12.1749 33.8423 12.7322L27.1663 17.809C26.521 18.2996 26.2358 19.1312 26.444 19.9146L27.7818 24.9487L28.4959 27.6358C28.72 28.479 27.8323 29.1848 27.0613 28.7763L18.7695 24.3832Z" fill="#FFDB5E" stroke="white"/>
</svg>
