<svg width="15" height="20" viewBox="0 0 15 20" fill="none" xmlns="http://www.w3.org/2000/svg">
<path d="M7.5 20C5.29167 20 3.48958 19.7207 2.09375 19.162C0.697917 18.6033 0 17.8827 0 17C0 16.4167 0.302083 15.9083 0.90625 15.475C1.51042 15.0417 2.34375 14.7 3.40625 14.45L4.125 16.35C3.77083 16.4333 3.44792 16.5377 3.15625 16.663C2.86458 16.7883 2.66667 16.9007 2.5625 17C2.83333 17.2667 3.45833 17.5 4.4375 17.7C5.41667 17.9 6.4375 18 7.5 18C8.5625 18 9.58875 17.9 10.5787 17.7C11.5687 17.5 12.1987 17.2667 12.4687 17C12.3646 16.9 12.1667 16.7873 11.875 16.662C11.5833 16.5367 11.2604 16.4327 10.9062 16.35L11.625 14.45C12.6875 14.7 13.5158 15.0417 14.11 15.475C14.7042 15.9083 15.0008 16.4167 15 17C15 17.8833 14.3021 18.6043 12.9062 19.163C11.5104 19.7217 9.70833 20.0007 7.5 20ZM7.5 17C7.27083 17 7.0625 16.9457 6.875 16.837C6.6875 16.7283 6.55208 16.5827 6.46875 16.4C5.98958 15.2167 5.38542 14.225 4.65625 13.425C3.92708 12.625 3.21875 11.8583 2.53125 11.125C1.86458 10.3917 1.28667 9.63333 0.7975 8.85C0.308333 8.06667 0.0633336 7.1 0.0625002 5.95C0.0625002 4.28333 0.78125 2.875 2.21875 1.725C3.65625 0.575 5.41667 0 7.5 0C9.58333 0 11.3437 0.575 12.7812 1.725C14.2187 2.875 14.9375 4.28333 14.9375 5.95C14.9375 7.1 14.6979 8.06667 14.2187 8.85C13.7396 9.63333 13.1562 10.3917 12.4687 11.125C11.8021 11.8583 11.0992 12.625 10.36 13.425C9.62083 14.225 9.01125 15.2167 8.53125 16.4C8.44791 16.5833 8.3125 16.7293 8.125 16.838C7.9375 16.9467 7.72917 17.0007 7.5 17ZM7.5 8.075C8.22917 8.075 8.85416 7.86667 9.375 7.45C9.89583 7.03333 10.1562 6.53333 10.1562 5.95C10.1562 5.36667 9.89583 4.86667 9.375 4.45C8.85416 4.03333 8.22917 3.825 7.5 3.825C6.77083 3.825 6.14583 4.03333 5.625 4.45C5.10417 4.86667 4.84375 5.36667 4.84375 5.95C4.84375 6.53333 5.10417 7.03333 5.625 7.45C6.14583 7.86667 6.77083 8.075 7.5 8.075Z" fill="#ABB868"/>
</svg>
