<svg width="20" height="20" viewBox="0 0 20 20" fill="none" xmlns="http://www.w3.org/2000/svg">
<path d="M10 0C4.475 0 0 0.526316 0 4.21053V14.2105C0 16.2421 1.9625 17.8947 4.375 17.8947L2.5 19.4737V20H17.5V19.4737L15.625 17.8947C18.0375 17.8947 20 16.2421 20 14.2105V4.21053C20 0.526316 15.525 0 10 0ZM4.375 15.7895C3.3375 15.7895 2.5 15.0842 2.5 14.2105C2.5 13.3368 3.3375 12.6316 4.375 12.6316C5.4125 12.6316 6.25 13.3368 6.25 14.2105C6.25 15.0842 5.4125 15.7895 4.375 15.7895ZM8.75 9.47368H2.5V4.21053H8.75V9.47368ZM15.625 15.7895C14.5875 15.7895 13.75 15.0842 13.75 14.2105C13.75 13.3368 14.5875 12.6316 15.625 12.6316C16.6625 12.6316 17.5 13.3368 17.5 14.2105C17.5 15.0842 16.6625 15.7895 15.625 15.7895ZM17.5 9.47368H11.25V4.21053H17.5V9.47368Z" fill="#ABB868"/>
</svg>
