<svg width="13" height="20" viewBox="0 0 13 20" id="course_detail_distance" fill="none" xmlns="http://www.w3.org/2000/svg">
<path d="M6.5 20C4.58611 20 3.02431 19.7207 1.81458 19.162C0.604861 18.6033 0 17.8827 0 17C0 16.4167 0.261805 15.9083 0.785416 15.475C1.30903 15.0417 2.03125 14.7 2.95208 14.45L3.575 16.35C3.26806 16.4333 2.98819 16.5377 2.73542 16.663C2.48264 16.7883 2.31111 16.9007 2.22083 17C2.45556 17.2667 2.99722 17.5 3.84583 17.7C4.69444 17.9 5.57917 18 6.5 18C7.42083 18 8.31025 17.9 9.16825 17.7C10.0262 17.5 10.5722 17.2667 10.8062 17C10.716 16.9 10.5444 16.7873 10.2917 16.662C10.0389 16.5367 9.75903 16.4327 9.45208 16.35L10.075 14.45C10.9958 14.7 11.7137 15.0417 12.2287 15.475C12.7436 15.9083 13.0007 16.4167 13 17C13 17.8833 12.3951 18.6043 11.1854 19.163C9.97569 19.7217 8.41389 20.0007 6.5 20ZM6.5 17C6.30139 17 6.12083 16.9457 5.95833 16.837C5.79583 16.7283 5.67847 16.5827 5.60625 16.4C5.19097 15.2167 4.66736 14.225 4.03542 13.425C3.40347 12.625 2.78958 11.8583 2.19375 11.125C1.61597 10.3917 1.11511 9.63333 0.691167 8.85C0.267222 8.06667 0.0548891 7.1 0.0541669 5.95C0.0541669 4.28333 0.677083 2.875 1.92292 1.725C3.16875 0.575 4.69444 0 6.5 0C8.30555 0 9.83125 0.575 11.0771 1.725C12.3229 2.875 12.9458 4.28333 12.9458 5.95C12.9458 7.1 12.7382 8.06667 12.3229 8.85C11.9076 9.63333 11.4021 10.3917 10.8062 11.125C10.2285 11.8583 9.61928 12.625 8.97867 13.425C8.33805 14.225 7.80975 15.2167 7.39375 16.4C7.32153 16.5833 7.20417 16.7293 7.04167 16.838C6.87917 16.9467 6.69861 17.0007 6.5 17ZM6.5 8.075C7.13194 8.075 7.67361 7.86667 8.125 7.45C8.57639 7.03333 8.80208 6.53333 8.80208 5.95C8.80208 5.36667 8.57639 4.86667 8.125 4.45C7.67361 4.03333 7.13194 3.825 6.5 3.825C5.86805 3.825 5.32639 4.03333 4.875 4.45C4.42361 4.86667 4.19792 5.36667 4.19792 5.95C4.19792 6.53333 4.42361 7.03333 4.875 7.45C5.32639 7.86667 5.86805 8.075 6.5 8.075Z" fill="#ABB868"/>
</svg>
