<svg width="35" height="30" viewBox="0 0 35 30" fill="none" xmlns="http://www.w3.org/2000/svg">
<path d="M27.0614 28.7763L18.7697 24.3832C18.184 24.0729 17.4827 24.0729 16.897 24.3832L8.60523 28.7763C7.83426 29.1848 6.94652 28.479 7.17062 27.6358L9.22258 19.9146C9.43078 19.1312 9.14552 18.2996 8.5003 17.809L1.82424 12.7322C1.09147 12.1749 1.43725 11.0073 2.35528 10.9389L11.5385 10.255C12.2506 10.202 12.8805 9.77324 13.191 9.13014L16.9328 1.38031C17.2967 0.626705 18.37 0.626705 18.7339 1.38031L22.4757 9.13014C22.7862 9.77324 23.416 10.202 24.1282 10.255L33.3114 10.9389C34.2294 11.0073 34.5752 12.1749 33.8424 12.7322L27.1664 17.809C26.5212 18.2996 26.2359 19.1312 26.4441 19.9146L27.7819 24.9487L28.4961 27.6358C28.7202 28.479 27.8324 29.1848 27.0614 28.7763Z" fill="black" fill-opacity="0.16" stroke="white"/>
</svg>
