<svg width="10" height="10" viewBox="0 0 10 10" fill="none" xmlns="http://www.w3.org/2000/svg">
<path d="M6.47448 4C6.32036 4 6.18438 3.89919 6.13959 3.75172L5.33489 1.10252C5.23434 0.771488 4.76566 0.771488 4.66511 1.10252L3.86041 3.75172C3.81562 3.89919 3.67964 4 3.52552 4H1.09303C0.75245 4 0.612495 4.43707 0.889724 4.6349L2.88418 6.05813C3.00704 6.1458 3.05986 6.30236 3.01521 6.44654L2.23784 8.9573C2.13715 9.28251 2.51296 9.54548 2.78398 9.33946L4.78837 7.81587C4.91346 7.72078 5.08659 7.72071 5.21176 7.8157L7.22167 9.34102C7.49274 9.54674 7.86824 9.28377 7.7676 8.9587L6.98973 6.44635C6.94511 6.30226 6.99783 6.1458 7.12055 6.05809L9.11193 4.63474C9.3889 4.43678 9.24885 4 8.90841 4H6.47448Z" fill="#6C804B"/>
</svg>
