<svg width="20" height="22" viewBox="0 0 20 22" fill="none" xmlns="http://www.w3.org/2000/svg">
<path d="M1.5 22C0.671573 22 0 21.3284 0 20.5V8.83333C0 8.00491 0.671573 7.33333 1.5 7.33333H2.25C3.07843 7.33333 3.75 6.66176 3.75 5.83333V5.2381C3.75 3.78889 4.35958 2.5534 5.57875 1.53162C6.79792 0.509842 8.27167 -0.000697697 10 7.15587e-07C11.7292 7.15587e-07 13.2033 0.51089 14.4225 1.53267C15.6417 2.55445 16.2508 3.78959 16.25 5.2381V5.83333C16.25 6.66176 16.9216 7.33333 17.75 7.33333H18.5C19.3284 7.33333 20 8.00491 20 8.83333V20.5C20 21.3284 19.3284 22 18.5 22H1.5ZM6.25 5.83333C6.25 6.66176 6.92157 7.33333 7.75 7.33333H12.25C13.0784 7.33333 13.75 6.66176 13.75 5.83333V5.2381C13.75 4.36508 13.3854 3.62302 12.6562 3.01191C11.9271 2.40079 11.0417 2.09524 10 2.09524C8.95833 2.09524 8.07292 2.40079 7.34375 3.01191C6.61458 3.62302 6.25 4.36508 6.25 5.2381V5.83333ZM10 16.7619C10.6875 16.7619 11.2763 16.5566 11.7663 16.1459C12.2563 15.7352 12.5008 15.2422 12.5 14.6667C12.5 14.0905 12.255 13.597 11.765 13.1864C11.275 12.7757 10.6867 12.5707 10 12.5714C9.3125 12.5714 8.72375 12.7768 8.23375 13.1874C7.74375 13.5981 7.49917 14.0912 7.5 14.6667C7.5 15.2429 7.745 15.7363 8.235 16.147C8.725 16.5576 9.31333 16.7626 10 16.7619Z" fill="#6C804B"/>
</svg>
