<?xml version="1.0" encoding="utf-8"?>
<!-- Generator: Adobe Illustrator 27.2.0, SVG Export Plug-In . SVG Version: 6.00 Build 0)  -->
<svg version="1.1" id="레이어_1" xmlns="http://www.w3.org/2000/svg" xmlns:xlink="http://www.w3.org/1999/xlink" x="0px"
	 y="0px" viewBox="0 0 1920 1080" style="enable-background:new 0 0 1920 1080;" xml:space="preserve">
<style type="text/css">
	.st0{fill:#ABB868;}
	.st1{fill:#6C804B;}
	.st2{fill:#463C33;stroke:#463C33;stroke-width:5.4369;stroke-miterlimit:10;}
	.st3{fill:#463C33;stroke:#463C33;stroke-width:5.9467;stroke-miterlimit:10;}
	.st4{fill:#463C33;stroke:#463C33;stroke-width:5.4369;stroke-linecap:round;stroke-linejoin:round;stroke-miterlimit:10;}
	.st5{fill:#463C33;stroke:#463C33;stroke-width:4.3507;stroke-miterlimit:10;}
	.st6{fill:url(#SVGID_1_);}
	.st7{fill:url(#SVGID_00000174571198247422826640000009922104512163223190_);}
	.st8{fill:url(#SVGID_00000085211292353369903970000010444741707767116939_);}
	.st9{fill:url(#SVGID_00000042711124348240668030000014557431371589352629_);}
	.st10{fill:url(#SVGID_00000125573775073236491660000008288698801430029199_);}
	.st11{fill:url(#SVGID_00000154412998743775458950000010874997393379755451_);}
	.st12{fill:url(#SVGID_00000108999315807170594690000015443279886261517444_);}
	.st13{fill:url(#SVGID_00000028290060484101947050000002953014932925437623_);}
	.st14{fill:url(#SVGID_00000159459430551617789880000004226973157629387197_);}
	.st15{fill:url(#SVGID_00000075857156610723766390000012892096762133058992_);}
	.st16{fill:#463C33;}
	.st17{fill:#463C33;stroke:#463C33;stroke-width:19.0814;stroke-linecap:round;stroke-linejoin:round;stroke-miterlimit:10;}
</style>
<g>
	<g>
		<g>
			<path class="st0" d="M1002.39,370.33c0,92.28,63.29,167.09,141.36,167.09V135.84C1065.68,135.84,1002.39,278.05,1002.39,370.33z"
				/>
			<path class="st1" d="M1143.75,135.84v401.59c78.07,0,141.36-74.81,141.36-167.09S1221.82,135.84,1143.75,135.84z"/>
		</g>
		<path class="st1" d="M1112.42,386.7c12.65,23.34-2.45,56.01-2.45,56.01s-35.62-5.17-48.28-28.5
			c-12.66-23.34,2.45-56.01,2.45-56.01S1099.76,363.36,1112.42,386.7z"/>
		<path class="st0" d="M1184.84,380.27c-12.66,23.34,2.45,56.01,2.45,56.01s35.62-5.17,48.28-28.5
			c12.66-23.34-2.45-56.01-2.45-56.01S1197.5,356.93,1184.84,380.27z"/>
	</g>
	<path class="st2" d="M282.34,876.02h-1.22c-4.29,0-7.76-3.47-7.76-7.75v-1.23C273.36,872.01,277.38,876.02,282.34,876.02z"/>
	<path class="st3" d="M1340.47,782.36c-0.03,0.25-0.04,0.49-0.04,0.75v25.9c-0.02-0.2-0.03-0.39-0.03-0.59v-25.07
		C1340.4,783.01,1340.42,782.68,1340.47,782.36z"/>
	<path class="st2" d="M1348.07,775.67c-3.7,0-6.8,2.62-7.52,6.12c0.62-3.48,3.66-6.12,7.33-6.12H1348.07z"/>
	<path class="st4" d="M1858.75,718.32h-242.6v-73.9h240.1c5.2,0,9.41-4.22,9.41-9.41v-21.6c0-5.21-4.22-9.42-9.41-9.42h-690.06
		v-64.12c0-0.09,0-0.2-0.01-0.29l52.92-62.77c1.14-1.37,1-3.43-0.38-4.58l-7.62-6.4c-1.45-1.22-3.51-0.99-4.65,0.38l-50.4,59.78
		V418.85c0-2.28-1.83-4.12-4.12-4.12h-8.31c-2.28,0-4.12,1.83-4.12,4.12v112.39l-0.29-0.34l-50.5-59.98
		c-1.21-1.37-3.27-1.52-4.65-0.38l-7.62,6.41c-1.37,1.21-1.52,3.28-0.38,4.65l48.37,57.37c-0.03,0.29-0.04,0.59-0.04,0.88v64.12
		h-80.68c-5.2,0-9.41,4.22-9.41,9.42v21.6c0,5.2,4.22,9.41,9.41,9.41h80.68v160.27l-199.94-261.2c-1.2-1.57-2.72-2.78-4.39-3.57
		c-1.35-1.31-3.19-2.11-5.23-2.11h-26.69c-4.18,0-7.56,3.39-7.56,7.55v289.69H612.26V578.24h216.76c4.83,0,8.75-3.92,8.75-8.75
		v-22.95c0-4.83-3.92-8.75-8.75-8.75H579.48c-4.98,0-9.02,4.04-9.02,9.02v288.22H315.16V566.82
		c120.81-11.23,215.4-112.88,215.4-236.64c0-131.27-106.42-237.68-237.68-237.68C161.61,92.5,55.2,198.91,55.2,330.18
		c0,78.85,38.42,148.69,97.53,191.93l15.73-21.09c-52.69-38.44-86.95-100.62-86.95-170.83c0-116.74,94.63-211.37,211.37-211.37
		c116.73,0,211.36,94.63,211.36,211.37c0,112.66-88.14,204.74-199.23,211.01h-22.67c-4.96,0-8.98,4.02-8.98,8.98v316.87
		c0,4.97,4.02,8.98,8.98,8.98h632.48c4.18,0,7.55-3.37,7.55-7.55V608.57l201.19,262.83c2.37,3.1,5.94,4.72,9.56,4.74
		c0.07,0,0.14,0.01,0.21,0.01h23.89c4.95,0,8.96-4.01,8.96-8.96V644.42h408.16v105.79c0,0.14,0,0.28,0.01,0.42v0.07
		c0.04,0.7,0.16,1.38,0.36,2.03c0.01,0.01,0.01,0.01,0.01,0.02c1.08,3.47,4.32,6,8.15,6h242.6v16.92h-477.4
		c-3.7,0-6.8,2.62-7.52,6.12c-0.04,0.19-0.07,0.38-0.08,0.57c-0.03,0.25-0.04,0.49-0.04,0.75v62.34c-0.02,0.24-0.03,0.48-0.03,0.73
		v21.28c0,5.29,4.29,9.58,9.58,9.58h507.72c5.3,0,9.58-4.29,9.58-9.58v-21.28c0-5.3-4.28-9.58-9.58-9.58h-475.46v-20.5h477.36
		c4.24,0,7.68-3.45,7.68-7.69v-81.57C1867.28,722.14,1863.46,718.32,1858.75,718.32z M1139.5,545.8v2.37
		C1139.19,547.41,1139.19,546.57,1139.5,545.8z"/>
	<polygon class="st5" points="1139.5,530.9 1139.5,531.24 1139.21,530.9 	"/>
	<path class="st5" d="M1139.5,545.8v2.37C1139.19,547.41,1139.19,546.57,1139.5,545.8z"/>
	<path class="st2" d="M1574.36,750.64c-0.01-0.06-0.01-0.11-0.01-0.17v-0.25C1574.35,750.36,1574.35,750.5,1574.36,750.64z"/>
	<path class="st2" d="M1574.72,752.74c-0.22-0.64-0.34-1.32-0.36-2.03C1574.4,751.41,1574.52,752.09,1574.72,752.74z"/>
	<path class="st2" d="M1867.28,725.74v1.11c0-4.71-3.82-8.53-8.53-8.53h1.11C1863.96,718.32,1867.28,721.64,1867.28,725.74z"/>
	<path class="st2" d="M1867.28,808.42v0.26c0,4.1-3.32,7.43-7.42,7.43h-0.26C1863.84,816.11,1867.28,812.66,1867.28,808.42z"/>
	<linearGradient id="SVGID_1_" gradientUnits="userSpaceOnUse" x1="917.5886" y1="944.331" x2="229.3613" y2="946.0912">
		<stop  offset="0" style="stop-color:#BBAB12"/>
		<stop  offset="1" style="stop-color:#687531"/>
	</linearGradient>
	<path class="st6" d="M313.94,903.49c-7.54,0-14.58,1.89-21.11,5.68c-6.54,3.78-11.67,8.91-15.4,15.39
		c-3.73,6.47-5.6,13.57-5.6,21.29c0,11.52,4.01,21.47,12.02,29.85c8.02,8.38,18.08,12.56,30.2,12.56c11.57,0,21.41-4.08,29.51-12.23
		c8.11-8.16,12.16-18.13,12.16-29.91c0-11.89-4.11-21.97-12.33-30.23C335.18,907.62,325.36,903.49,313.94,903.49z M332.67,965.49
		c-5.12,5.27-11.33,7.9-18.62,7.9c-6.45,0-12.16-2.03-17.14-6.09c-6.41-5.19-9.61-12.25-9.61-21.18c0-8.01,2.54-14.62,7.63-19.81
		c5.09-5.2,11.37-7.79,18.84-7.79c7.39,0,13.67,2.66,18.84,7.98c5.16,5.32,7.75,11.83,7.75,19.51
		C340.37,953.73,337.8,960.23,332.67,965.49z"/>
	
		<linearGradient id="SVGID_00000126324473068935198160000014212299773146651838_" gradientUnits="userSpaceOnUse" x1="917.5891" y1="944.499" x2="229.3617" y2="946.2592">
		<stop  offset="0" style="stop-color:#BBAB12"/>
		<stop  offset="1" style="stop-color:#687531"/>
	</linearGradient>
	<path style="fill:url(#SVGID_00000126324473068935198160000014212299773146651838_);" d="M414.62,909.88
		c-5.7-2.91-14.41-4.36-26.15-4.36h-18.2v80.71h18.48c10.45,0,17.8-0.66,22.04-1.98c4.24-1.31,8.18-3.69,11.81-7.13
		c3.64-3.44,6.48-7.76,8.55-12.97c2.07-5.22,3.1-10.93,3.1-17.15c0-8.74-1.84-16.39-5.54-22.93
		C425.02,917.52,420.33,912.79,414.62,909.88z M415.71,960.71c-2.02,3.81-4.6,6.52-7.76,8.13c-3.16,1.62-8.26,2.42-15.28,2.42h-7.13
		v-50.92h5.21c9.55,0,16.48,2.12,20.8,6.37c4.79,4.73,7.19,11.37,7.19,19.94C418.72,952.21,417.72,956.9,415.71,960.71z"/>
	
		<linearGradient id="SVGID_00000139269054397128732650000000460726401997752478_" gradientUnits="userSpaceOnUse" x1="917.5896" y1="944.7325" x2="229.3623" y2="946.4927">
		<stop  offset="0" style="stop-color:#BBAB12"/>
		<stop  offset="1" style="stop-color:#687531"/>
	</linearGradient>
	<polygon style="fill:url(#SVGID_00000139269054397128732650000000460726401997752478_);" points="448.95,986.23 493.01,986.23 
		493.01,971.14 464.21,971.14 464.21,949.91 493.01,949.91 493.01,935.15 464.21,935.15 464.21,920.55 493.01,920.55 493.01,905.52 
		448.95,905.52 	"/>
	
		<linearGradient id="SVGID_00000111153663222472411390000013324482907518754487_" gradientUnits="userSpaceOnUse" x1="917.6731" y1="977.3611" x2="229.4457" y2="979.1213">
		<stop  offset="0" style="stop-color:#BBAB12"/>
		<stop  offset="1" style="stop-color:#687531"/>
	</linearGradient>
	<path style="fill:url(#SVGID_00000111153663222472411390000013324482907518754487_);" d="M528.46,968.95
		c-2.6,0-4.81,0.91-6.64,2.74c-1.83,1.83-2.74,4.04-2.74,6.64c0,2.6,0.93,4.82,2.77,6.67c1.84,1.85,4.09,2.77,6.73,2.77
		c2.63,0,4.88-0.92,6.74-2.77c1.87-1.84,2.8-4.07,2.8-6.67c0-2.59-0.94-4.8-2.83-6.64C533.41,969.86,531.13,968.95,528.46,968.95z"
		/>
	
		<linearGradient id="SVGID_00000075846720092699106220000013772970982783585159_" gradientUnits="userSpaceOnUse" x1="917.5996" y1="931.3359" x2="229.3723" y2="933.0961">
		<stop  offset="0" style="stop-color:#BBAB12"/>
		<stop  offset="1" style="stop-color:#687531"/>
	</linearGradient>
	<path style="fill:url(#SVGID_00000075846720092699106220000013772970982783585159_);" d="M543.39,904.8
		c-3.62-1.9-8.01-2.85-13.17-2.85c-8.01,0-14.46,2.3-19.37,6.9c-4.9,4.6-7.31,10.42-7.24,17.47h14.38c0.03-3.13,1.13-5.69,3.29-7.67
		c2.16-1.98,4.92-2.98,8.28-2.98c3.3,0,5.92,0.82,7.88,2.45c1.95,1.62,2.93,3.61,2.93,5.95c0,1.72-0.41,3.22-1.21,4.5
		c-0.8,1.28-3.14,3.62-7.02,7.02c-4.02,3.51-6.93,7.27-8.72,11.28c-1.79,4.01-2.69,8.46-2.69,13.36l0.05,2.47h14.87
		c0.15-3.51,0.49-6.26,1.05-8.23c0.55-1.98,1.22-3.56,2.03-4.75c0.8-1.19,2.8-3.23,5.98-6.12c3.33-3.04,5.43-5.2,6.31-6.48
		c1.5-2.19,2.6-4.34,3.3-6.42c0.69-2.09,1.04-4.2,1.04-6.36c0-3.95-1.09-7.71-3.26-11.3C549.91,909.45,547.01,906.7,543.39,904.8z"
		/>
	
		<linearGradient id="SVGID_00000037659673175383116300000009384184053125420468_" gradientUnits="userSpaceOnUse" x1="917.5906" y1="945.1155" x2="229.3633" y2="946.8757">
		<stop  offset="0" style="stop-color:#BBAB12"/>
		<stop  offset="1" style="stop-color:#687531"/>
	</linearGradient>
	<path style="fill:url(#SVGID_00000037659673175383116300000009384184053125420468_);" d="M636.93,946.95
		c-1.25-1.28-4.8-4.37-10.67-9.27c-6.26-5.31-10.02-8.76-11.26-10.37c-0.92-1.21-1.38-2.49-1.38-3.84c0-1.36,0.64-2.57,1.92-3.65
		c1.29-1.08,2.93-1.62,4.95-1.62c4.14,0,8.21,2.78,12.2,8.34l11.38-10.04c-4.25-4.94-8.2-8.34-11.83-10.21
		c-3.64-1.86-7.49-2.8-11.51-2.8c-6.26,0-11.53,2-15.8,6c-4.27,4.01-6.4,8.81-6.4,14.41c0,3.88,1.28,7.76,3.85,11.66
		c2.57,3.9,8.25,9.43,17.04,16.6c4.61,3.77,7.6,6.57,8.96,8.4c1.36,1.83,2.03,3.66,2.03,5.48c0,2.02-0.9,3.79-2.69,5.32
		c-1.79,1.53-4.01,2.31-6.65,2.31c-5.06,0-9.53-3.57-13.41-10.7l-12.91,7.79c3.04,6.03,6.69,10.46,10.96,13.28
		c4.27,2.81,9.27,4.22,15.02,4.22c7.36,0,13.33-2.16,17.91-6.47s6.86-9.79,6.86-16.41c0-3.4-0.65-6.53-1.95-9.41
		C642.25,953.1,640.04,950.09,636.93,946.95z"/>
	
		<linearGradient id="SVGID_00000098190752468827428720000002176158362045504697_" gradientUnits="userSpaceOnUse" x1="917.591" y1="945.2728" x2="229.3637" y2="947.033">
		<stop  offset="0" style="stop-color:#BBAB12"/>
		<stop  offset="1" style="stop-color:#687531"/>
	</linearGradient>
	<polygon style="fill:url(#SVGID_00000098190752468827428720000002176158362045504697_);" points="660.21,986.23 704.27,986.23 
		704.27,971.14 675.46,971.14 675.46,949.91 704.27,949.91 704.27,935.15 675.46,935.15 675.46,920.55 704.27,920.55 704.27,905.52 
		660.21,905.52 	"/>
	
		<linearGradient id="SVGID_00000145020102296324283160000017407890310544730000_" gradientUnits="userSpaceOnUse" x1="917.5915" y1="945.4634" x2="229.3642" y2="947.2236">
		<stop  offset="0" style="stop-color:#BBAB12"/>
		<stop  offset="1" style="stop-color:#687531"/>
	</linearGradient>
	<path style="fill:url(#SVGID_00000145020102296324283160000017407890310544730000_);" d="M756.7,903.49
		c-7.54,0-14.58,1.89-21.11,5.68c-6.54,3.78-11.67,8.91-15.4,15.39c-3.73,6.47-5.6,13.57-5.6,21.29c0,11.52,4.01,21.47,12.02,29.85
		c8.02,8.38,18.08,12.56,30.2,12.56c11.57,0,21.41-4.08,29.51-12.23c8.11-8.16,12.16-18.13,12.16-29.91
		c0-11.89-4.11-21.97-12.33-30.23C777.94,907.62,768.12,903.49,756.7,903.49z M775.43,965.49c-5.12,5.27-11.33,7.9-18.62,7.9
		c-6.45,0-12.16-2.03-17.14-6.09c-6.41-5.19-9.61-12.25-9.61-21.18c0-8.01,2.54-14.62,7.63-19.81c5.09-5.2,11.37-7.79,18.84-7.79
		c7.39,0,13.67,2.66,18.84,7.98c5.16,5.32,7.75,11.83,7.75,19.51C783.12,953.73,780.56,960.23,775.43,965.49z"/>
	
		<linearGradient id="SVGID_00000126304169220555698220000005210944566237343637_" gradientUnits="userSpaceOnUse" x1="917.5945" y1="946.655" x2="229.3672" y2="948.4152">
		<stop  offset="0" style="stop-color:#BBAB12"/>
		<stop  offset="1" style="stop-color:#687531"/>
	</linearGradient>
	<path style="fill:url(#SVGID_00000126304169220555698220000005210944566237343637_);" d="M851.65,955.79
		c0,5.41-0.37,9.07-1.12,10.99c-0.75,1.92-2.1,3.5-4.06,4.74c-1.95,1.24-4.28,1.86-6.99,1.86c-2.56,0-4.75-0.56-6.56-1.67
		c-1.81-1.12-3.11-2.61-3.9-4.47c-0.79-1.86-1.18-5.05-1.18-9.55v-52.19h-15.42v48.12c0,9.62,0.93,16.45,2.8,20.49
		c1.87,4.04,4.97,7.41,9.3,10.1c4.33,2.69,9.43,4.03,15.28,4.03c4.46,0,8.37-0.7,11.74-2.11c3.37-1.41,6.34-3.57,8.92-6.5
		c2.58-2.92,4.32-5.96,5.24-9.11c0.91-3.14,1.37-8.78,1.37-16.9v-48.12h-15.42V955.79z"/>
	
		<linearGradient id="SVGID_00000049205776046517548180000011008736298132264603_" gradientUnits="userSpaceOnUse" x1="917.5925" y1="945.8394" x2="229.3651" y2="947.5995">
		<stop  offset="0" style="stop-color:#BBAB12"/>
		<stop  offset="1" style="stop-color:#687531"/>
	</linearGradient>
	<polygon style="fill:url(#SVGID_00000049205776046517548180000011008736298132264603_);" points="900.27,971.58 900.27,905.52 
		884.9,905.52 884.9,986.23 922.65,986.23 922.65,971.58 	"/>
	<path class="st16" d="M1594.48,91.47c-140.33,0-254.1,109.18-254.1,243.85c0,134.68,113.76,243.85,254.1,243.85
		c140.33,0,254.1-109.18,254.1-243.85C1848.57,200.65,1734.81,91.47,1594.48,91.47z M1594.48,538.15c-34.51,0-67-8.62-95.45-23.82
		c-63.9-34.14-107.38-101.5-107.38-179.01c0-112.02,90.81-202.83,202.83-202.83c112.02,0,202.83,90.81,202.83,202.83
		C1797.31,447.34,1706.5,538.15,1594.48,538.15z"/>
	<g>
		<path class="st2" d="M1139.5,545.8v2.37C1139.19,547.41,1139.19,546.57,1139.5,545.8z"/>
		<path class="st2" d="M1139.5,545.8v2.37C1139.19,547.41,1139.19,546.57,1139.5,545.8z"/>
	</g>
	<path class="st17" d="M293.98,100.96c-131.83,0-238.69,105.95-238.69,236.64c0,78.5,38.58,148.04,97.95,191.09l15.8-21
		c-52.91-38.27-87.32-100.18-87.32-170.08c0-116.22,95.04-210.44,212.27-210.44s212.27,94.22,212.27,210.44
		c0,116.22-95.04,210.44-212.27,210.44v26.2c131.83,0,238.69-105.95,238.69-236.64C532.67,206.91,425.81,100.96,293.98,100.96z"/>
</g>
</svg>
