<svg width="29" height="33" viewBox="0 0 29 33" fill="none" xmlns="http://www.w3.org/2000/svg">
<path d="M20.7261 20.7547H19.4162L18.952 20.2453C20.5769 18.0943 21.5552 15.3019 21.5552 12.2642C21.5552 5.49057 16.7301 0 10.7776 0C4.82504 0 0 5.49057 0 12.2642C0 19.0377 4.82504 24.5283 10.7776 24.5283C13.4471 24.5283 15.9011 23.4151 17.7913 21.566L18.239 22.0943V23.5849L26.5294 33L29 30.1887L20.7261 20.7547ZM10.7776 20.7547C6.64894 20.7547 3.31618 16.9623 3.31618 12.2642C3.31618 7.56604 6.64894 3.77358 10.7776 3.77358C14.9062 3.77358 18.239 7.56604 18.239 12.2642C18.239 16.9623 14.9062 20.7547 10.7776 20.7547Z" fill="#D9D9D9"/>
</svg>
