<svg width="30" height="18" viewBox="0 0 30 18" fill="none" xmlns="http://www.w3.org/2000/svg">
<path d="M4.29163 4.5H7.20829V13.5H4.29163V4.5ZM14.5 4.5H10.125C9.32288 4.5 8.66663 5.00625 8.66663 5.625V12.375C8.66663 12.9938 9.32288 13.5 10.125 13.5H14.5C15.302 13.5 15.9583 12.9938 15.9583 12.375V5.625C15.9583 5.00625 15.302 4.5 14.5 4.5ZM13.0416 11.25H11.5833V6.75H13.0416V11.25ZM23.25 4.5H18.875C18.0729 4.5 17.4166 5.00625 17.4166 5.625V12.375C17.4166 12.9938 18.0729 13.5 18.875 13.5H23.25C24.052 13.5 24.7083 12.9938 24.7083 12.375V5.625C24.7083 5.00625 24.052 4.5 23.25 4.5ZM21.7916 11.25H20.3333V6.75H21.7916V11.25Z" fill="#ABB868"/>
<path d="M0 0V18H29.1667V0H0ZM2.91667 15.75V2.25H26.25V15.75H2.91667Z" fill="#ABB868"/>
</svg>
