<?xml version="1.0" encoding="utf-8"?>
<!-- Generator: Adobe Illustrator 27.4.0, SVG Export Plug-In . SVG Version: 6.00 Build 0)  -->
<svg version="1.1" id="레이어_1" xmlns="http://www.w3.org/2000/svg" xmlns:xlink="http://www.w3.org/1999/xlink" x="0px"
	 y="0px" viewBox="0 0 153.07 158.74" style="enable-background:new 0 0 153.07 158.74;" xml:space="preserve">
<style type="text/css">
	.st0{fill:#FFEEE0;stroke:#944E19;stroke-miterlimit:10;}
	.st1{fill:#FFFFFF;stroke:#944E19;stroke-miterlimit:10;}
	.st2{fill:#FF7385;stroke:#944E19;stroke-miterlimit:10;}
	.st3{fill:#FF4757;stroke:#FF4757;stroke-linecap:round;stroke-linejoin:round;stroke-miterlimit:10;}
	.st4{fill:none;stroke:#944E19;stroke-width:3;stroke-linecap:round;stroke-miterlimit:10;}
	.st5{fill:#FFFFFF;}
	.st6{fill:#472000;stroke:#944E19;stroke-miterlimit:10;}
	.st7{fill:#FFE385;stroke:#944E19;stroke-miterlimit:10;}
	.st8{fill:#FFD6D9;}
	.st9{fill:#FFEB85;stroke:#944E19;stroke-miterlimit:10;}
</style>
<g>
	<g>
		<path class="st0" d="M63.76,67.74c0.42-1.41,1.95-2.31,3.39-2.16s2.71,1.24,3.29,2.59c0.58,1.35,0.53,2.93,0.05,4.32
			s-1.35,2.6-2.35,3.66c-1,1.05-2.26,2.01-3.71,2.04c0.03,5.17-3.04,9.4-6.94,11.74c-3.9,2.34-8.51,3.11-13.04,3.53
			c-8.94,0.83-18.38,0.37-26.29-4.03c-2.88-1.6-5.74-4.16-5.84-7.49c-0.09-2.87,1.89-5.3,2.99-7.94c2.14-5.12,0.94-11.05,1.98-16.52
			c1.78-9.39,11.02-16.65,20.82-16.16C46.85,49.86,55.34,58.65,63.76,67.74z"/>
		<path class="st1" d="M66.07,114.06c-1.47-8.25-5.83-16.81-10.65-23.07c-1.37,0.85-3.64,1.24-4.94,1.58
			c4.87,12.44,9.05,21.24,9.53,34.55c2.14-0.32,4.88-0.58,7.02-0.9c0.31-0.05-1.03-11.92-0.95-12.34"/>
		<path class="st1" d="M44.3,93.46c-0.28,4.58-1.63,6.07-4.09,7.04s-5.66,0.72-8.06-0.61c-2.31-1.28-3.65-4.39-3.57-6.68
			c0-0.14,0.13-0.24,0.26-0.23C34.36,93.66,38.54,94,44.3,93.46z"/>
		<path class="st2" d="M60,127.12c-0.74-11.44-4.23-24.08-9.32-34.6c-2.78,0.82-4.26,0.69-6.38,0.93c0,3.9-1.8,6.44-4.35,7.38
			c-2.26,0.82-5.38,0.61-7.86-0.79c-2.09-1.18-3.22-3.7-3.22-6.06c0-0.65-0.54-1.04-1.19-1.12c-2-0.24-1.78-0.42-4.24-1.13
			c-3.92,12.05-6.98,22.49-6.89,35.21C30.96,129.08,45.61,129.2,60,127.12z"/>
		<path class="st1" d="M23.44,91.72c-4.35,13.68-6.47,20.61-6.89,35.21c-1.82-0.05-3.3-0.27-4.77-0.31
			c0.24-8.18-0.17-5.56,0.45-12.29c0.77-8.4,4.91-16.43,9.19-23.36C22,91.33,22.91,91.52,23.44,91.72z"/>
		<path d="M48.6,66.6c1.84,0.56,3.08,2.8,2.64,4.8c-0.44,1.99-2.47,3.42-4.36,3.05c-1.89-0.37-3.32-2.48-3.06-4.5
			S46.07,65.83,48.6,66.6z"/>
		<path class="st3" d="M29.69,78.05c4.64,0.33,9.31,0.04,13.71-0.84c0.49-0.1,1.11-0.18,1.45,0.11c0.18,0.15,0.22,0.36,0.23,0.56
			c0.12,1.89-1.22,3.73-3.42,4.68s-5.15,0.97-7.51,0.05C31.79,81.69,30.12,79.87,29.69,78.05z"/>
		<path d="M28.63,65.19c1.84,0.56,3.08,2.8,2.64,4.8c-0.44,1.99-2.47,3.42-4.36,3.05c-1.89-0.37-3.32-2.48-3.06-4.5
			C24.11,66.5,26.1,64.41,28.63,65.19z"/>
		<path class="st4" d="M44.29,60.7c3.66-0.38,7.44,0.69,10.44,2.96"/>
		<path class="st4" d="M30.81,59.74c-3.53-1.33-7.74-0.26-10.33,2.63"/>
		<ellipse class="st5" cx="48.41" cy="68.96" rx="1.28" ry="1.36"/>
		<ellipse class="st5" cx="28.97" cy="67.59" rx="1.28" ry="1.36"/>
		<path class="st6" d="M63.76,67.74c-4.34-5.29-7.94-8.19-13.25-10.33c-5.31-2.14-10.93-3.65-15.71-6.93
			c-1.53-1.05-3.03-2.4-3.81-4.28c-5.92,1.22-11.03,6.18-12.73,12.36c-1.25,4.52-0.78,9.47-2.37,13.87
			c-1.23,3.39-3.68,6.56-3.28,10.17c0.24,2.21,1.57,4.15,3.2,5.53c1.64,1.38,3.58,2.27,5.49,3.06c-1.66,2.5-2.67,4.97-3.76,6.61
			c-5.6-2-9.35-8.91-9.85-15.2c-0.5-6.28,1.28-12.49,3.04-18.51c2.37-8.11,4.98-16.63,10.89-22.32c4.84-4.66,11.35-6.84,17.78-7.89
			c5.03-0.82,10.34-1,15.05,1.06c4.75,2.08,8.46,6.26,11.3,10.83c7.6,12.23,9.77,28.14,5.75,42.17c-1.11,3.89-2.84,7.85-6.04,10.06
			c-1.24,0.86-2.82,1.41-4.19,0.83c-2.99-1.26-4.37-5.77-5.97-7.72c5.12-2.53,8.18-6.42,9.14-12.94c1.79-0.55,3.22-2.45,3.79-4.08
			c0.57-1.63,0.52-3.58-0.44-4.98C66.82,67.71,64.59,66.95,63.76,67.74z"/>
		<path class="st7" d="M67.6,66.56c-3.22-10.59-10.08-20.31-19.7-24.61s-21.96-2.15-28.54,6.14c1.93-4.82,6.42-7.97,11.05-9.71
			c4.63-1.74,9.57-2.33,14.31-3.67c4.75-1.35,9.52-3.63,12.44-7.85c5.54,4.44,9.68,10.85,11.6,17.96
			c1.92,7.11,1.62,14.88-1.38,21.58C67.39,66.43,67.39,66.47,67.6,66.56z"/>
		
			<ellipse transform="matrix(0.2084 -0.978 0.978 0.2084 -59.515 84.2429)" class="st8" cx="22.28" cy="78.89" rx="6.96" ry="7.18"/>
		
			<ellipse transform="matrix(0.2084 -0.978 0.978 0.2084 -36.5261 116.4402)" class="st8" cx="53.67" cy="80.78" rx="6.96" ry="7.18"/>
	</g>
	<g>
		<g>
			<path class="st0" d="M128.99,70.68c0.16,0.16,0.42,0.12,0.53-0.08c0.57-1.08,1.9-1.74,3.17-1.62c1.43,0.13,2.69,1.14,3.28,2.41
				c0.58,1.27,0.54,2.74,0.07,4.05c-0.46,1.31-1.32,2.45-2.31,3.45c-0.92,0.92-2.06,1.77-3.37,1.91c-0.17,0.02-0.3,0.15-0.3,0.32
				c-0.07,4.72-3.04,8.58-6.81,10.75c-3.85,2.22-8.42,2.97-12.9,3.39c-8.86,0.84-18.22,0.46-26.08-3.62
				c-2.86-1.49-5.71-3.87-5.83-6.99c-0.1-2.69,1.85-4.99,2.92-7.47c2.09-4.82,0.87-10.37,1.87-15.51
				c1.71-8.79,10.75-15.64,20.42-15.3c0.08,0,0.16,0.04,0.22,0.09C112.41,54.31,120.74,62.37,128.99,70.68z"/>
			<path class="st6" d="M133.29,44.09c5.66-1.09,10.6,2.51,14.03,6.98s3.54,11.09-0.03,15.4c-1.28,1.55-2.95,2.77-4.68,3.85
				c1.15,1.33,2.02,3.3,2,5.19c-0.02,1.89-0.83,3.7-1.93,5.27c-1.4,2-3.35,3.71-5.74,4.48c-2.39,0.77-5.23,0.46-7.15-1.11
				c0.15-0.99,0.38-2.33,0.29-3.65c2.86-0.69,5.24-2.94,5.99-5.66c0.35-1.29,0.35-2.7-0.26-3.91c-0.61-1.2-1.89-2.14-3.28-2.16
				c-1.4-0.02-2.78,1.03-2.86,2.36c-2.74-0.31-5.58-2.46-5.21-4.99c-2.78,0.8-5.46-0.53-7.39-2.62c-1.92-2.09-3.6-3.87-2.4-6.39
				c-2.75,1.09-4.91-0.65-7.38-2.27c-2.46-1.63-3.98-4.49-3.88-7.34c-5.97-0.22-12.7,2.73-16.75,7.75s-3.79,10.65-4.23,18.02
				c-1.56,0.52-3.29,0.07-4.33-1.16c-1.04-1.23-1.22-3.02-0.56-4.45c0.52-1.13,1.47-2.37,2.63-3.04c0.2-0.12,0.13-0.42-0.1-0.45
				c-2.47-0.29-4.7-1.71-5.57-4.01c-1-2.63-0.34-5.66,1.32-7.94c1.66-2.29,4.21-3.88,6.93-4.88c-2.17-2.73-2.04-7.14,0.34-10.07
				s6.81-4.16,10.17-3.08c1.47-3.6,6.13-5.26,10.14-4.61c4.01,0.65,7.09,1.81,10.12,4.41c3.23-3.13,9.83-2.7,13.73-0.32
				C131.12,36.07,134.18,39.71,133.29,44.09z"/>
		</g>
		<g>
			<path class="st1" d="M131.88,114.5c-1.5-7.73-5.87-15.74-10.69-21.58c-1.35,0.81-3.6,1.19-4.89,1.51
				c4.89,11.64,9.08,19.87,9.63,32.36c2.12-0.31,4.84-0.57,6.96-0.89c0.31-0.05-1.09-11.18-1.01-11.57"/>
			<path class="st0" d="M110.19,95.3c-0.26,4.3-1.58,5.71-4.01,6.63c-2.43,0.92-5.61,0.71-7.99-0.52c-2.3-1.19-3.64-4.1-3.58-6.24
				c0-0.13,0.12-0.23,0.25-0.21C100.33,95.55,104.48,95.84,110.19,95.3z"/>
			<path class="st9" d="M125.94,126.79c-0.79-10.74-4.32-22.57-9.42-32.41c-2.75,0.79-4.22,0.68-6.32,0.92
				c0.1,5.19-1.85,5.88-4.28,6.95c-2.43,1.07-5.54,0.79-7.79-0.69c-1.97-1.29-3.21-3.45-3.22-5.67c0-0.61-0.54-0.98-1.18-1.04
				c-1.98-0.21-1.77-0.38-4.21-1.04c-3.82,11.33-6.8,21.15-6.64,33.08C97.16,128.81,111.68,128.83,125.94,126.79z"/>
			<path class="st1" d="M89.51,93.8c-4.24,12.86-6.3,19.38-6.64,33.08c-1.81-0.04-3.27-0.23-4.73-0.26
				c0.19-7.68-0.2-5.22,0.38-11.54c0.71-7.89,4.77-15.45,8.99-21.98C88.07,93.45,88.98,93.62,89.51,93.8z"/>
			<path class="st1" d="M110.19,95.3c-0.02,2.32-1.51,5.53-3.92,6.53s-5.53,0.77-7.85-0.58c-2.32-1.35-3.58-3.83-3.41-6.18
				c0-0.01-0.05-0.01-0.08-0.01c-0.32-0.02-0.66-0.12-1.11-0.19c-0.41-0.07-0.84-0.2-1.28-0.25c-0.54-0.19-0.94-0.17-1.35,0.15
				c-0.41,0.32-0.62,0.8-0.65,1.28c-0.05,0.72,0.25,1.46,0.82,2.02c0.57,0.56,1.41,0.92,2.22,1.04c-0.98,0.53-1.42,1.64-1.14,2.63
				c0.27,1,1.19,1.85,2.29,2.29s2.37,0.48,3.51,0.23c1.14-0.25,2.16-0.79,3.17-1.43c0.3,1.24,1.57,2.27,3,2.67
				c1.43,0.4,2.99,0.22,4.32-0.27c0.69-0.26,1.35-0.62,1.68-1.19c0.32-0.55,0.27-1.23,0.03-1.83s-0.66-1.15-1.03-1.81
				c1.12,0.5,2.48,0.57,3.6,0.17s1.84-0.76,2.14-1.76c0.17-0.58,0.16-2.33,0.02-2.5c-0.35-0.43-0.47-0.45-0.79-0.58
				C112.18,94.77,111.29,95.2,110.19,95.3z"/>
		</g>
		<path d="M114.31,70.07c1.83,0.51,3.07,2.61,2.65,4.49s-2.43,3.23-4.3,2.89s-3.3-2.3-3.06-4.21
			C109.83,71.33,111.79,69.36,114.31,70.07z"/>
		<path class="st3" d="M95.81,80.67c4.6,0.28,9.23-0.02,13.59-0.88c0.48-0.1,1.1-0.17,1.44,0.1c0.18,0.14,0.22,0.34,0.23,0.52
			c0.13,1.77-1.19,3.51-3.36,4.42c-2.17,0.91-5.1,0.94-7.44,0.1C97.91,84.07,96.25,82.37,95.81,80.67z"/>
		<path d="M94.51,68.87c1.83,0.51,3.07,2.61,2.65,4.49c-0.42,1.87-2.43,3.23-4.3,2.89s-3.3-2.3-3.06-4.21S91.99,68.16,94.51,68.87z"
			/>
		<path class="st4" d="M110,64.55c3.63-0.38,7.38,0.6,10.37,2.71"/>
		<path class="st4" d="M96.64,63.74c-3.5-1.23-7.68-0.19-10.22,2.54"/>
		
			<ellipse transform="matrix(0.0205 -0.9998 0.9998 0.0205 39.5204 184.9076)" class="st5" cx="114.13" cy="72.28" rx="1.28" ry="1.26"/>
		
			<ellipse transform="matrix(0.0205 -0.9998 0.9998 0.0205 21.7998 164.4834)" class="st5" cx="94.85" cy="71.12" rx="1.28" ry="1.26"/>
		
			<ellipse transform="matrix(0.0653 -0.9979 0.9979 0.0653 27.8765 196.4347)" class="st8" cx="118.79" cy="83.34" rx="6.54" ry="7.11"/>
		
			<ellipse transform="matrix(0.0653 -0.9979 0.9979 0.0653 0.8545 163.8434)" class="st8" cx="87.88" cy="81.47" rx="6.54" ry="7.11"/>
	</g>
</g>
</svg>
