<?xml version="1.0" encoding="utf-8"?>
<!-- Generator: Adobe Illustrator 27.4.0, SVG Export Plug-In . SVG Version: 6.00 Build 0)  -->
<svg version="1.1" id="레이어_1" xmlns="http://www.w3.org/2000/svg" xmlns:xlink="http://www.w3.org/1999/xlink" x="0px"
	 y="0px" viewBox="0 0 153.07 158.74" style="enable-background:new 0 0 153.07 158.74;" xml:space="preserve">
<style type="text/css">
	.st0{display:none;}
	.st1{display:inline;fill:#FFEEE0;stroke:#944E19;stroke-miterlimit:10;}
	.st2{display:inline;fill:#FFFFFF;stroke:#944E19;stroke-miterlimit:10;}
	.st3{display:inline;fill:#FF7385;stroke:#944E19;stroke-miterlimit:10;}
	.st4{display:inline;}
	.st5{display:inline;fill:#FF4757;stroke:#FF4757;stroke-linecap:round;stroke-linejoin:round;stroke-miterlimit:10;}
	.st6{display:inline;fill:none;stroke:#944E19;stroke-width:3;stroke-linecap:round;stroke-miterlimit:10;}
	.st7{display:inline;fill:#FFFFFF;}
	.st8{display:inline;fill:#472000;stroke:#944E19;stroke-miterlimit:10;}
	.st9{display:inline;fill:#FFE385;stroke:#944E19;stroke-miterlimit:10;}
	.st10{display:inline;fill:#FFD6D9;}
	.st11{fill:#FFEEE0;stroke:#944E19;stroke-miterlimit:10;}
	.st12{fill:#472000;stroke:#944E19;stroke-miterlimit:10;}
	.st13{fill:#FFFFFF;stroke:#944E19;stroke-miterlimit:10;}
	.st14{fill:#FFEB85;stroke:#944E19;stroke-miterlimit:10;}
	.st15{fill:none;stroke:#944E19;stroke-linecap:round;stroke-linejoin:round;stroke-miterlimit:10;}
	.st16{fill:none;stroke:#944E19;stroke-width:3;stroke-linecap:round;stroke-miterlimit:10;}
	.st17{fill:#FFFFFF;}
	.st18{fill:#FFD6D9;}
	.st19{fill:#FF4757;stroke:#FF4757;stroke-linecap:round;stroke-linejoin:round;stroke-miterlimit:10;}
	.st20{fill:#2E2525;stroke:#944E19;stroke-linecap:round;stroke-linejoin:round;stroke-miterlimit:10;}
	.st21{fill:#FFFFFF;stroke:#944E19;stroke-linecap:round;stroke-linejoin:round;stroke-miterlimit:10;}
	.st22{fill:#662D91;stroke:#944E19;stroke-linecap:round;stroke-linejoin:round;stroke-miterlimit:10;}
	.st23{stroke:#944E19;stroke-linecap:round;stroke-linejoin:round;stroke-miterlimit:10;}
	.st24{fill:#FFEEE0;stroke:#944E19;stroke-linecap:round;stroke-linejoin:round;stroke-miterlimit:10;}
	.st25{fill:#0071BC;stroke:#944E19;stroke-linecap:round;stroke-linejoin:round;stroke-miterlimit:10;}
</style>
<g class="st0">
	<path class="st1" d="M206.39-20.99c0.36-1.19,1.67-1.96,2.91-1.83s2.32,1.05,2.82,2.19s0.45,2.48,0.04,3.65
		c-0.41,1.18-1.15,2.21-2.02,3.1c-0.86,0.89-1.94,1.7-3.18,1.72c0.02,4.38-2.61,7.96-5.95,9.94s-7.29,2.63-11.17,2.99
		c-7.66,0.7-15.75,0.31-22.52-3.41c-2.47-1.36-4.92-3.52-5-6.34c-0.07-2.43,1.62-4.49,2.56-6.72c1.83-4.34,0.8-9.35,1.69-13.98
		c1.53-7.95,9.44-14.1,17.83-13.68C191.9-36.13,199.18-28.68,206.39-20.99z"/>
	<path class="st2" d="M208.37,18.23c-1.26-6.98-4.99-14.23-9.13-19.53c-1.17,0.72-3.12,1.05-4.23,1.33
		c4.17,10.53,7.75,17.98,8.16,29.25c1.83-0.27,4.18-0.49,6.02-0.76c0.27-0.04-0.88-10.09-0.81-10.45"/>
	<path class="st2" d="M189.72,0.79c-0.24,3.88-1.39,5.14-3.5,5.96c-2.11,0.82-4.85,0.61-6.91-0.51c-1.98-1.09-3.12-3.72-3.06-5.65
		c0-0.12,0.11-0.2,0.22-0.19C181.2,0.95,184.79,1.24,189.72,0.79z"/>
	<path class="st3" d="M203.17,29.29c-0.63-9.69-3.62-20.39-7.98-29.29c-2.38,0.69-3.65,0.59-5.47,0.79c0,3.3-1.54,5.45-3.73,6.25
		c-1.93,0.7-4.61,0.52-6.73-0.67c-1.79-1-2.76-3.13-2.75-5.13c0-0.55-0.46-0.88-1.02-0.95c-1.71-0.2-1.53-0.35-3.63-0.96
		c-3.36,10.2-5.98,19.04-5.91,29.81C178.29,30.95,190.84,31.05,203.17,29.29z"/>
	<path class="st2" d="M171.85-0.68c-3.73,11.58-5.54,17.45-5.91,29.81c-1.56-0.04-2.82-0.23-4.09-0.26c0.2-6.93-0.14-4.71,0.38-10.4
		c0.66-7.12,4.2-13.91,7.88-19.78C170.62-1.01,171.4-0.85,171.85-0.68z"/>
	<path class="st4" d="M193.41-21.95c1.58,0.47,2.64,2.37,2.26,4.06c-0.37,1.69-2.12,2.9-3.73,2.58c-1.62-0.31-2.84-2.1-2.62-3.81
		C189.53-20.84,191.23-22.61,193.41-21.95z"/>
	<path class="st5" d="M177.2-12.26c3.97,0.28,7.98,0.04,11.75-0.71c0.42-0.08,0.95-0.15,1.24,0.1c0.15,0.13,0.18,0.31,0.2,0.47
		c0.1,1.6-1.05,3.16-2.93,3.97c-1.88,0.8-4.41,0.82-6.43,0.04S177.57-10.72,177.2-12.26z"/>
	<path class="st4" d="M176.3-23.15c1.58,0.47,2.64,2.37,2.26,4.06c-0.37,1.69-2.12,2.9-3.73,2.58c-1.62-0.31-2.84-2.1-2.62-3.81
		S174.13-23.8,176.3-23.15z"/>
	<path class="st6" d="M189.71-26.95c3.14-0.33,6.37,0.58,8.95,2.5"/>
	<path class="st6" d="M178.17-27.76c-3.02-1.13-6.63-0.22-8.85,2.23"/>
	<ellipse class="st7" cx="193.25" cy="-19.95" rx="1.09" ry="1.15"/>
	<ellipse class="st7" cx="176.59" cy="-21.12" rx="1.09" ry="1.15"/>
	<path class="st8" d="M206.39-20.99c-3.72-4.48-6.8-6.93-11.35-8.75s-9.36-3.09-13.45-5.86c-1.31-0.89-2.6-2.03-3.27-3.63
		c-5.07,1.04-9.45,5.23-10.91,10.47c-1.07,3.83-0.67,8.02-2.03,11.74c-1.05,2.87-3.15,5.55-2.81,8.61c0.21,1.87,1.34,3.52,2.74,4.68
		c1.4,1.17,3.07,1.92,4.7,2.59c-1.42,2.12-2.29,4.21-3.22,5.6c-4.8-1.69-8.01-7.55-8.44-12.87c-0.43-5.32,1.1-10.57,2.61-15.67
		c2.03-6.87,4.27-14.08,9.33-18.89c4.14-3.94,9.72-5.79,15.23-6.68c4.31-0.7,8.86-0.85,12.89,0.9c4.07,1.76,7.25,5.3,9.68,9.17
		c6.51,10.35,8.37,23.82,4.93,35.71c-0.95,3.3-2.44,6.65-5.18,8.52c-1.06,0.72-2.42,1.19-3.59,0.7c-2.56-1.07-3.75-4.88-5.11-6.53
		c4.39-2.14,7-5.44,7.83-10.96c1.53-0.47,2.76-2.08,3.25-3.45s0.45-3.03-0.38-4.22C209.01-21.01,207.1-21.65,206.39-20.99z"/>
	<path class="st9" d="M209.68-21.99c-2.75-8.97-8.64-17.19-16.87-20.84c-8.23-3.65-18.82-1.82-24.45,5.19
		c1.66-4.08,5.5-6.75,9.47-8.22c3.97-1.47,8.2-1.97,12.26-3.11c4.07-1.14,8.15-3.08,10.66-6.64c4.75,3.76,8.29,9.18,9.94,15.2
		c1.65,6.02,1.39,12.6-1.18,18.27C209.5-22.1,209.5-22.06,209.68-21.99z"/>
	
		<ellipse transform="matrix(0.1518 -0.9884 0.9884 0.1518 156.3469 159.0846)" class="st10" cx="170.86" cy="-11.55" rx="5.9" ry="6.15"/>
	
		<ellipse transform="matrix(0.1518 -0.9884 0.9884 0.1518 177.5654 187.0218)" class="st10" cx="197.75" cy="-9.94" rx="5.9" ry="6.15"/>
</g>
<g class="st0">
	<g class="st4">
		<path class="st11" d="M272.91-22.24c0.16,0.15,0.42,0.12,0.52-0.07c0.56-1.03,1.89-1.66,3.15-1.55c1.42,0.13,2.67,1.09,3.25,2.3
			c0.58,1.21,0.53,2.63,0.07,3.87c-0.46,1.25-1.31,2.35-2.3,3.3c-0.91,0.88-2.04,1.7-3.34,1.83c-0.17,0.02-0.3,0.15-0.3,0.31
			c-0.07,4.51-3.02,8.21-6.76,10.29c-3.82,2.13-8.36,2.84-12.81,3.25c-8.8,0.8-18.09,0.44-25.89-3.46c-2.84-1.42-5.67-3.7-5.79-6.69
			c-0.1-2.58,1.83-4.77,2.9-7.14c2.08-4.61,0.86-9.92,1.85-14.84c1.7-8.41,10.67-14.96,20.27-14.64c0.08,0,0.16,0.03,0.22,0.09
			C256.45-37.9,264.71-30.2,272.91-22.24z"/>
		<path class="st12" d="M277.17-47.68c5.62-1.04,10.52,2.4,13.93,6.67s3.52,10.61-0.03,14.74c-1.27,1.48-2.93,2.65-4.65,3.68
			c1.14,1.28,2.01,3.16,1.99,4.96c-0.02,1.81-0.82,3.54-1.91,5.04c-1.39,1.91-3.33,3.55-5.7,4.28s-5.19,0.44-7.1-1.06
			c0.15-0.95,0.38-2.23,0.29-3.49c2.84-0.66,5.2-2.81,5.95-5.41c0.35-1.23,0.35-2.59-0.26-3.74c-0.6-1.15-1.87-2.05-3.26-2.07
			s-2.76,0.99-2.84,2.26c-2.72-0.3-5.54-2.36-5.17-4.78c-2.76,0.77-5.42-0.51-7.33-2.51c-1.91-2-3.57-3.71-2.38-6.11
			c-2.73,1.05-4.88-0.62-7.32-2.17c-2.45-1.56-3.95-4.29-3.85-7.02c-5.92-0.21-12.6,2.61-16.63,7.41
			c-4.03,4.81-3.76,10.19-4.2,17.23c-1.55,0.5-3.27,0.06-4.3-1.11c-1.03-1.17-1.21-2.88-0.56-4.26c0.51-1.09,1.46-2.27,2.61-2.9
			c0.2-0.11,0.13-0.4-0.1-0.43c-2.45-0.28-4.66-1.64-5.53-3.84c-0.99-2.51-0.33-5.41,1.31-7.6c1.65-2.19,4.18-3.71,6.88-4.67
			c-2.16-2.61-2.03-6.83,0.33-9.63c2.36-2.8,6.76-3.98,10.09-2.94c1.46-3.44,6.08-5.03,10.06-4.41s7.03,1.73,10.04,4.21
			c3.21-2.99,9.76-2.59,13.63-0.3S278.06-51.87,277.17-47.68z"/>
	</g>
	<g class="st4">
		<path class="st13" d="M275.77,19.67c-1.49-7.4-5.83-15.05-10.61-20.65c-1.34,0.77-3.58,1.14-4.85,1.45
			c4.86,11.14,9.02,19.01,9.56,30.96c2.1-0.3,4.8-0.55,6.91-0.85c0.31-0.04-1.08-10.7-1-11.07"/>
		<path class="st11" d="M254.24,1.3c-0.25,4.11-1.57,5.46-3.98,6.34c-2.41,0.88-5.57,0.68-7.94-0.5c-2.28-1.14-3.61-3.92-3.55-5.97
			c0-0.12,0.12-0.22,0.25-0.2C244.46,1.54,248.58,1.82,254.24,1.3z"/>
		<path class="st14" d="M269.87,31.43c-0.79-10.27-4.29-21.59-9.36-31c-2.73,0.75-4.19,0.65-6.28,0.88c0.1,4.97-1.83,5.63-4.24,6.65
			c-2.41,1.02-5.5,0.76-7.74-0.66c-1.95-1.24-3.19-3.3-3.2-5.42c0-0.58-0.54-0.93-1.18-1c-1.97-0.2-1.76-0.36-4.18-0.99
			c-3.79,10.84-6.75,20.23-6.59,31.65C241.3,33.37,255.72,33.39,269.87,31.43z"/>
		<path class="st13" d="M233.71-0.13c-4.21,12.3-6.25,18.54-6.59,31.65c-1.79-0.03-3.25-0.22-4.69-0.25
			c0.19-7.35-0.19-4.99,0.37-11.03c0.71-7.55,4.74-14.78,8.92-21.03C232.29-0.47,233.18-0.3,233.71-0.13z"/>
		<path class="st13" d="M254.24,1.3c-0.02,2.22-1.5,5.29-3.89,6.24c-2.39,0.96-5.49,0.73-7.79-0.56s-3.55-3.66-3.39-5.91
			c0-0.01-0.05-0.01-0.08-0.01c-0.32-0.02-0.65-0.12-1.1-0.19c-0.41-0.07-0.83-0.19-1.27-0.24c-0.54-0.18-0.93-0.16-1.34,0.15
			c-0.41,0.31-0.61,0.77-0.65,1.23c-0.05,0.68,0.25,1.4,0.81,1.93c0.57,0.54,1.4,0.88,2.21,0.99c-0.97,0.51-1.4,1.57-1.13,2.52
			s1.18,1.77,2.28,2.19s2.36,0.46,3.49,0.22c1.13-0.24,2.14-0.75,3.15-1.37c0.3,1.19,1.55,2.17,2.98,2.55
			c1.42,0.38,2.97,0.21,4.29-0.26c0.68-0.24,1.34-0.59,1.67-1.14c0.32-0.53,0.27-1.18,0.03-1.75s-0.66-1.1-1.02-1.73
			c1.11,0.48,2.46,0.54,3.58,0.17c1.11-0.38,1.83-0.72,2.12-1.68c0.17-0.55,0.16-2.23,0.02-2.39c-0.34-0.41-0.46-0.43-0.78-0.56
			C256.22,0.8,255.34,1.21,254.24,1.3z"/>
	</g>
	<path class="st4" d="M258.33-22.83c1.82,0.49,3.05,2.5,2.63,4.29c-0.42,1.79-2.42,3.09-4.27,2.77c-1.86-0.32-3.28-2.2-3.04-4.03
		C253.89-21.63,255.83-23.51,258.33-22.83z"/>
	<path class="st5" d="M239.96-12.69c4.56,0.27,9.16-0.02,13.49-0.84c0.48-0.09,1.09-0.17,1.43,0.09c0.18,0.14,0.21,0.32,0.23,0.5
		c0.13,1.69-1.18,3.36-3.34,4.23s-5.07,0.9-7.39,0.09C242.05-9.43,240.4-11.06,239.96-12.69z"/>
	<path class="st4" d="M238.67-23.98c1.82,0.49,3.05,2.5,2.63,4.29s-2.42,3.09-4.27,2.77c-1.86-0.32-3.28-2.2-3.04-4.03
		C234.23-22.77,236.17-24.66,238.67-23.98z"/>
	<path class="st6" d="M254.05-28.11c3.6-0.37,7.33,0.57,10.29,2.59"/>
	<path class="st6" d="M240.79-28.88c-3.48-1.17-7.62-0.18-10.15,2.43"/>
	
		<ellipse transform="matrix(1 -8.857176e-03 8.857176e-03 1 0.1936 2.2857)" class="st7" cx="258.16" cy="-20.71" rx="1.25" ry="1.22"/>
	
		<ellipse transform="matrix(1 -8.857176e-03 8.857176e-03 1 0.2027 2.1161)" class="st7" cx="239.01" cy="-21.83" rx="1.25" ry="1.22"/>
	
		<ellipse transform="matrix(0.0452 -0.999 0.999 0.0452 261.0296 252.8331)" class="st10" cx="262.78" cy="-10.14" rx="6.26" ry="7.06"/>
	
		<ellipse transform="matrix(0.0452 -0.999 0.999 0.0452 233.5212 220.4708)" class="st10" cx="232.1" cy="-11.93" rx="6.26" ry="7.06"/>
</g>
<path class="st15" d="M117,37.69"/>
<g>
	<path class="st11" d="M66.68,66.92c0.36-1.54,2.01-2.61,3.62-2.56s3.1,1.11,3.84,2.52s0.79,3.09,0.35,4.61
		c-0.43,1.52-1.32,2.88-2.36,4.09c-1.04,1.2-2.38,2.32-3.99,2.45c0.39,5.52-2.73,10.27-6.91,13.06s-9.26,3.96-14.25,4.75
		c-9.89,1.56-20.42,1.78-29.51-2.32c-3.31-1.5-6.67-4.01-7.01-7.56c-0.3-3.06,1.74-5.8,2.78-8.7c2.03-5.63,0.28-11.87,1.06-17.79
		C15.63,49.3,25.4,40.85,36.33,40.64C46.63,49.11,56.69,57.86,66.68,66.92z"/>
	<path d="M49.75,66.85c2.09,0.46,3.62,2.76,3.27,4.92s-2.52,3.84-4.64,3.59c-2.12-0.25-3.86-2.39-3.72-4.58
		C44.81,68.6,46.87,66.22,49.75,66.85z"/>
	<path d="M27.44,66.85c2.09,0.46,3.62,2.76,3.27,4.92s-2.52,3.84-4.64,3.59c-2.12-0.25-3.86-2.39-3.72-4.58
		C22.5,68.6,24.56,66.22,27.44,66.85z"/>
	<path class="st16" d="M44.54,60.88c4.05-0.69,8.32,0.17,11.82,2.37"/>
	<path class="st16" d="M29.49,60.87c-4.01-1.15-8.63,0.31-11.3,3.59"/>
	<ellipse class="st17" cx="49.7" cy="69.39" rx="1.42" ry="1.46"/>
	<ellipse class="st17" cx="27.97" cy="69.39" rx="1.42" ry="1.46"/>
	<ellipse class="st18" cx="21.32" cy="81.97" rx="7.99" ry="7.46"/>
	<ellipse class="st18" cx="56.36" cy="81.62" rx="7.99" ry="7.46"/>
	<path class="st19" d="M31.54,82.36c-0.55-0.73-0.05-1.89,0.76-2.29c0.81-0.41,1.77-0.27,2.65-0.08c0.88,0.2,1.79,0.45,2.67,0.25
		c1.64-0.37,2.72-2.21,4.39-2.43c1.59-0.21,3.07,1.33,3.14,2.97c0.07,1.64-1.02,3.17-2.44,3.94c-1.41,0.77-3.09,0.88-4.68,0.7
		C35.54,85.14,33.01,84.31,31.54,82.36z"/>
	<path class="st20" d="M14.58,70.56c-0.91-6.57-0.02-13.56,3.41-19.19s9.63-9.65,16.1-9.44c1.65,0.05,3.37,0.41,4.61,1.52
		c1.33,1.17,1.9,2.98,2.58,4.63c0.69,1.65,1.7,3.38,3.37,3.91c0.21-1.02,0.41-2.04,0.62-3.06c1.6,3.83,4.22,7.2,7.51,9.64
		c-0.3-1.24-0.19-2.58,0.28-3.76c2.06,4.49,5.64,8.22,9.98,10.42c-0.09-0.78-0.19-1.56-0.28-2.34c1.34,1.61,2.68,3.22,4.02,4.83
		c0.15-1.78,1.63-3.35,3.36-3.56c1.73-0.21,3.53,0.96,4.08,2.66c2.53-4.07,3-9.41,1.23-13.87s-5.74-7.95-10.32-9.06
		c0.2-4-2.6-7.49-5.59-10.08c-4.73-4.1-10.43-7.14-16.55-8.11c-6.12-0.96-12.66,0.27-17.71,3.94c-2.61,1.9-4.79,4.39-7.49,6.16
		s-6.26,2.72-9.09,1.19c1,0.52,2.05,1.08,2.7,2.03c0.65,0.95,0.74,2.4-0.11,3.16c-0.69,0.61-1.71,0.58-2.61,0.45
		c-2.16-0.31-4.26-0.97-6.22-1.95C2.72,45,4.49,49.2,7.38,52.34c0.41,0.45,0.87,0.93,0.9,1.55c0.04,0.94-1.01,1.61-1.92,1.5
		c-0.91-0.11-1.67-0.73-2.37-1.34C5.96,60.52,9.62,66.45,14.58,70.56z"/>
	<path class="st21" d="M20.59,95.23c11.03,2.98,22.92,2.53,33.7-1.3c1.05-0.37,2.25-0.77,3.24-0.26c0.55,0.28,0.94,0.81,1.3,1.32
		c2.04,2.88,3.78,5.96,5.21,9.19c1.44,3.25,2.57,6.64,3.38,10.11c0.8,3.47,1.28,7.03,1.41,10.59c0.12,3.2-0.09,6.39-0.49,9.57
		c-0.01,0.05-0.01,0.11-0.04,0.16c-0.04,0.06-0.11,0.1-0.17,0.14c-0.29,0.29-0.89,0.48-1.26,0.68c-0.39,0.21-0.79,0.41-1.19,0.61
		c-0.85,0.42-1.72,0.81-2.6,1.18c-1.77,0.74-3.59,1.38-5.44,1.9c-3.67,1.04-7.46,1.67-11.27,1.93c-1.45,0.1-2.9,0.15-4.35,0.14
		c-9.12-0.02-18.15-1.94-26.87-4.68c-1.03-0.32-2.09-0.68-2.93-1.38c-2.17-1.84-2.02-5.25-1.55-8.1
		C12.47,116.12,16.07,105.54,20.59,95.23z"/>
	<path class="st22" d="M35.87,112.34c-0.79,2.44-1.33,4.97-1.53,7.53c-0.1,1.27-0.1,2.61,0.47,3.74c0.52,1.04,1.5,1.82,2.6,2.07
		c1.11,0.26,2.32-0.02,3.22-0.73c1.68-1.33,2.02-3.82,1.7-5.97c-0.32-2.15-1.15-4.21-1.3-6.39C39.32,113.11,37.44,113,35.87,112.34z
		"/>
	<path class="st23" d="M20.66,95.22c2.09,0.73,4.27,1.18,6.47,1.34l-2.03,6.51c1.85,0.06,3.69,0.54,5.35,1.4
		c0.59,1.96,0.96,3.99,1.1,6.03c0.16-0.19,0.32-0.38,0.48-0.57c1.24,4.73,2.96,9.33,5.13,13.69c0.22,0.45,0.62,0.81,1.1,0.89
		c0.73,0.12,1.11-0.46,1.42-1c2.53-4.45,4.37-9.32,5.42-14.37l1.15,0.76c0.25-2.27,0.13-4.58-0.37-6.81c1.55,0.35,3.21,0.1,4.6-0.68
		c-0.38-2.55-1.97-4.78-3.74-6.6c6.02-0.84,6.4-1.75,9.95-2.25c1.79-0.25,2.88,2.16,3.77,3.77c6.27,11.31,9.68,24.69,7.32,37.47
		c-1.74,1.17,1.4-0.6-2.93,1.63c-0.29,0.15-2.4,1.07-2.7,1.22c-7.38,3.8-18.57,6.9-43.98-0.23c-1.5-0.42-3.1-0.71-4.49-1.43
		c-1.39-0.72-3.01-3.24-3.01-4.35c0-1.74-0.27-3.44,0.05-5.15C12.76,115.77,14.89,104.74,20.66,95.22z"/>
	<path class="st21" d="M22.95,12.47"/>
	<path class="st24" d="M28.44,96.76c6.09,0.64,12.27,0.34,18.31-0.95c-1.27,3.61-4.24,6.53-7.79,7.73
		C34.86,102.4,31.08,100.08,28.44,96.76z"/>
	<path class="st15" d="M26.95,96.97c-0.66,2.07-1.32,4.15-1.98,6.22c1.84,0.35,3.69,0.7,5.53,1.06c0.31,1.96,0.63,3.92,0.94,5.88
		c2.56-1.64,4.91-3.63,7.18-5.9c1.92,2.28,4.36,4.1,7.07,5.28c0.17,0.07,0.38,0.14,0.52,0.01c0.1-0.09,0.11-0.25,0.12-0.4
		c0.01-2.06-0.23-4.13-0.7-6.13c1.54,0.1,3.1-0.05,4.6-0.44c-0.5-2.4-1.55-4.67-3.05-6.58"/>
	<path class="st22" d="M38.46,104.52c-1.56,1.45-3.13,2.9-4.69,4.35c0.74,0.88,0.98,2.13,1.8,2.92c0.9,0.86,2.24,0.95,3.47,1
		c0.65,0.02,1.35,0.03,1.89-0.34c0.48-0.34,0.73-0.91,0.96-1.46c0.26-0.63,0.53-1.26,0.79-1.9c0.1-0.23,0.19-0.48,0.16-0.72
		c-0.05-0.33-0.31-0.57-0.55-0.79C41.06,106.5,39.83,105.42,38.46,104.52z"/>
	<path class="st15" d="M16.69,136.7c-0.65-2.73-0.21-5.59,0.27-8.36c0.73-4.2,1.54-8.39,2.44-12.55"/>
	<path class="st15" d="M62.17,137.43c-0.59-9.35-2.57-18.6-5.86-27.35"/>
	<path class="st15" d="M25.47,96.53c-1.17,3.2-2.11,6.48-2.79,9.83c-0.08,0.39-0.15,0.82,0.01,1.18c0.19,0.42,0.64,0.64,1.06,0.83
		c1.76,0.78,3.53,1.56,5.29,2.33c-0.74,2.89-1.48,5.78-2.22,8.67c-0.11,0.44-0.23,0.9-0.12,1.35c0.17,0.72,0.83,1.17,1.44,1.55
		c1.6,1,3.22,2.01,5.01,2.6c1.79,0.59,3.78,0.72,5.51-0.03"/>
	<path class="st15" d="M50.19,95.21c1.88,3.09,3.82,7.8,4.51,11.15c0.08,0.39,0.15,0.82-0.01,1.18c-0.19,0.42-0.64,0.64-1.06,0.83
		c-1.76,0.78-3.53,1.56-5.29,2.33c0.74,2.89,1.48,5.78,2.22,8.67c0.11,0.44,0.23,0.9,0.12,1.35c-0.17,0.72-0.83,1.17-1.44,1.55
		c-1.6,1-3.22,2.01-5.01,2.6c-1.79,0.59-3.78,0.72-5.51-0.03"/>
	<path class="st15" d="M38.28,125.06c0.01,5.31,0.02,10.62,0.02,15.93"/>
</g>
<g>
	<path class="st21" d="M94.09,96.3c11.03,2.93,22.92,2.48,33.7-1.28c1.05-0.37,2.25-0.76,3.24-0.25c0.55,0.28,0.94,0.79,1.3,1.3
		c1.38,1.91,2.62,3.92,3.72,5.99c1.11,2.09,2.08,4.26,2.9,6.48c0.82,2.22,1.5,4.5,2.03,6.81c0.53,2.31,0.91,4.66,1.13,7.02
		c0.22,2.36,0.29,4.74,0.2,7.11c-0.07,1.79-0.27,3.57-0.48,5.34c-0.01,0.07-0.02,0.14-0.05,0.21c-0.05,0.08-0.13,0.12-0.21,0.16
		c-2.25,1.14-4.5,2.27-6.88,3.13c-2.39,0.86-4.84,1.54-7.33,2.04c-2.5,0.5-5.03,0.83-7.57,1c-1.42,0.09-2.85,0.14-4.27,0.14
		c-9.12-0.02-18.15-1.9-26.87-4.6c-1.03-0.32-2.09-0.67-2.92-1.36c-2.17-1.81-2.02-5.17-1.55-7.97
		C85.97,116.84,89.57,106.43,94.09,96.3z"/>
	<path class="st11" d="M140.15,68.68c0.36-1.51,2.01-2.57,3.62-2.52c1.62,0.05,3.1,1.1,3.84,2.47c0.74,1.38,0.79,3.04,0.35,4.53
		s-1.32,2.84-2.36,4.02c-1.04,1.18-2.38,2.28-3.98,2.41c0.39,5.43-2.73,10.09-6.91,12.84c-4.17,2.75-9.25,3.9-14.25,4.67
		c-9.89,1.54-20.42,1.75-29.51-2.28c-3.31-1.47-6.67-3.94-7.01-7.43c-0.3-3.01,1.74-5.71,2.78-8.56c2.03-5.54,0.28-11.67,1.06-17.49
		c1.34-10,11.1-18.31,22.03-18.52C120.1,51.16,130.16,59.77,140.15,68.68z"/>
	<path d="M123.21,68.62c2.09,0.45,3.62,2.72,3.27,4.84c-0.35,2.13-2.52,3.78-4.64,3.53s-3.86-2.35-3.72-4.5
		C118.27,70.33,120.34,67.99,123.21,68.62z"/>
	<path d="M100.91,68.62c2.09,0.45,3.62,2.72,3.27,4.84c-0.35,2.13-2.52,3.78-4.64,3.53s-3.86-2.35-3.72-4.5
		C95.97,70.33,98.03,67.99,100.91,68.62z"/>
	<path class="st16" d="M118.01,62.74c4.05-0.68,8.32,0.17,11.82,2.33"/>
	<path class="st16" d="M102.96,62.74c-4.01-1.13-8.63,0.31-11.3,3.53"/>
	<ellipse class="st17" cx="123.17" cy="71.11" rx="1.42" ry="1.43"/>
	<ellipse class="st17" cx="101.44" cy="71.11" rx="1.42" ry="1.43"/>
	<ellipse class="st18" cx="94.79" cy="83.48" rx="7.99" ry="7.33"/>
	<ellipse class="st18" cx="129.82" cy="83.14" rx="7.99" ry="7.33"/>
	<path class="st19" d="M105.01,83.86c-0.55-0.72-0.05-1.85,0.76-2.25c0.81-0.4,1.77-0.27,2.65-0.07c0.88,0.19,1.79,0.44,2.67,0.24
		c1.64-0.37,2.72-2.17,4.39-2.39c1.59-0.21,3.07,1.31,3.14,2.92c0.07,1.61-1.02,3.12-2.43,3.88s-3.09,0.87-4.68,0.69
		C109.01,86.6,106.48,85.78,105.01,83.86z"/>
	<path class="st20" d="M87.6,66.27c0.61-1.67,2.62-2.45,4.12-3.55c2.69-1.97,3.85-5.16,5.41-7.98c1.56-2.82,4.13-5.67,7.57-5.73
		c-0.95,1.85-1.92,3.75-2.13,5.8c-0.21,2.04,0.5,4.29,2.33,5.47c2.08,1.35,4.89,0.98,7.41,0.62c3.56-0.51,7.19-0.88,10.74-0.31
		c3.55,0.56,7.03,2.17,9.04,4.92c0.26-0.6,0.52-1.21,0.77-1.81c3.27,2.62,5.2,6.59,5.15,10.58c0.49-1.84,1.07-3.73,2.34-5.22
		c1.27-1.5,3.4-2.53,5.4-2.07s3.41,2.78,2.33,4.4c3.5-3.28,3.7-8.43,3.26-13c-0.24-2.5-0.66-5.1-2.25-7.15s-2.98-2.81-5.11-3.42
		c-0.47-6.38-3.59-9.36-7.82-12.78c-3.51-2.84-8.11-4.27-12.68-5.18c-7.05-1.39-14.45-1.68-21.46-0.13
		c-7.02,1.55-13.63,5.02-18.08,10.25c-4.45,5.22-6.54,12.25-4.89,18.71c1.38,5.43,5.16,10.03,8.85,14.46
		C87.39,70.59,87,67.9,87.6,66.27z"/>
	<path class="st21" d="M90.43,137.34c0.04-9.45,1.75-18.89,5.04-27.74"/>
	<path class="st21" d="M133.5,138.41c1.3-9.52,0.83-19.29-1.38-28.64"/>
	<path class="st24" d="M102.54,98.2c6.09,0.63,12.27,0.33,18.31-0.94c-1.26,3.55-4.24,6.43-7.79,7.6
		C108.96,103.74,105.18,101.46,102.54,98.2z"/>
	<path class="st15" d="M101.32,97.92c-0.66,2.04-1.32,4.08-1.98,6.11c1.84,0.35,3.69,0.69,5.53,1.04c0.31,1.93,0.63,3.86,0.94,5.78
		c2.56-1.61,4.91-3.57,7.18-5.8c1.92,2.25,4.36,4.04,7.06,5.19c0.17,0.07,0.38,0.13,0.52,0.01c0.1-0.09,0.11-0.25,0.12-0.39
		c0.01-2.03-0.23-4.06-0.7-6.03c1.54,0.1,3.1-0.05,4.6-0.43c-0.5-2.36-1.55-4.59-3.05-6.47"/>
	<path class="st25" d="M112.83,105.34c-1.56,1.43-3.13,2.85-4.69,4.28c0.74,0.86,0.98,2.1,1.8,2.87c0.9,0.85,2.24,0.94,3.47,0.98
		c0.65,0.02,1.35,0.03,1.89-0.34c0.48-0.33,0.73-0.9,0.96-1.44c0.26-0.62,0.53-1.24,0.79-1.86c0.1-0.23,0.19-0.47,0.16-0.71
		c-0.05-0.32-0.31-0.56-0.55-0.77C115.43,107.29,114.2,106.22,112.83,105.34z"/>
	<path class="st25" d="M110.23,113.03c-0.79,2.4-1.33,4.89-1.53,7.41c-0.1,1.25-0.1,2.57,0.47,3.68c0.52,1.02,1.5,1.79,2.6,2.04
		c1.11,0.25,2.32-0.02,3.22-0.72c1.68-1.31,2.02-3.76,1.7-5.87c-0.32-2.12-1.15-4.14-1.3-6.28
		C113.68,113.78,111.81,113.67,110.23,113.03z"/>
	<path class="st15" d="M111.82,126.51c-0.42,4.86-0.45,9.76-0.09,14.63"/>
</g>
</svg>
