<?xml version="1.0" encoding="utf-8"?>
<!-- Generator: Adobe Illustrator 27.4.0, SVG Export Plug-In . SVG Version: 6.00 Build 0)  -->
<svg version="1.1" id="레이어_1" xmlns="http://www.w3.org/2000/svg" xmlns:xlink="http://www.w3.org/1999/xlink" x="0px"
	 y="0px" viewBox="0 0 153.07 158.74" style="enable-background:new 0 0 153.07 158.74;" xml:space="preserve">
<style type="text/css">
	.st0{display:none;}
	.st1{display:inline;fill:#FFEEE0;stroke:#944E19;stroke-miterlimit:10;}
	.st2{display:inline;fill:#FFFFFF;stroke:#944E19;stroke-miterlimit:10;}
	.st3{display:inline;fill:#FF7385;stroke:#944E19;stroke-miterlimit:10;}
	.st4{display:inline;}
	.st5{display:inline;fill:#FF4757;stroke:#FF4757;stroke-linecap:round;stroke-linejoin:round;stroke-miterlimit:10;}
	.st6{display:inline;fill:none;stroke:#944E19;stroke-width:3;stroke-linecap:round;stroke-miterlimit:10;}
	.st7{display:inline;fill:#FFFFFF;}
	.st8{display:inline;fill:#472000;stroke:#944E19;stroke-miterlimit:10;}
	.st9{display:inline;fill:#FFE385;stroke:#944E19;stroke-miterlimit:10;}
	.st10{display:inline;fill:#FFD6D9;}
	.st11{fill:#FFEEE0;stroke:#944E19;stroke-miterlimit:10;}
	.st12{fill:#472000;stroke:#944E19;stroke-miterlimit:10;}
	.st13{fill:#FFFFFF;stroke:#944E19;stroke-miterlimit:10;}
	.st14{fill:#FFEB85;stroke:#944E19;stroke-miterlimit:10;}
	.st15{fill:#FF4757;stroke:#FF4757;stroke-linecap:round;stroke-linejoin:round;stroke-miterlimit:10;}
	.st16{fill:none;stroke:#944E19;stroke-width:3;stroke-linecap:round;stroke-miterlimit:10;}
	.st17{fill:#FFFFFF;}
	.st18{fill:#FFD6D9;}
</style>
<g class="st0">
	<path class="st1" d="M-47.75,60.4c0.63-2.13,2.97-3.49,5.18-3.26c2.2,0.23,4.14,1.86,5.02,3.91s0.8,4.42,0.08,6.51
		s-2.06,3.93-3.59,5.52c-1.53,1.59-3.46,3.03-5.66,3.07c0.04,7.81-4.64,14.18-10.6,17.71s-13,4.69-19.9,5.32
		c-13.66,1.25-28.07,0.56-40.14-6.08c-4.4-2.42-8.76-6.28-8.92-11.3c-0.13-4.33,2.89-8,4.57-11.98c3.27-7.73,1.43-16.67,3.02-24.92
		c2.72-14.17,16.82-25.13,31.79-24.39C-73.58,33.43-60.6,46.7-47.75,60.4z"/>
	<path class="st2" d="M-44.23,130.31c-2.24-12.45-8.9-25.36-16.27-34.81c-2.09,1.28-5.56,1.87-7.54,2.38
		c7.43,18.77,13.81,32.04,14.55,52.14c3.26-0.48,7.46-0.87,10.72-1.35c0.48-0.07-1.57-17.99-1.44-18.62"/>
	<path class="st2" d="M-77.46,99.22c-0.43,6.91-2.49,9.16-6.24,10.62s-8.64,1.09-12.31-0.92c-3.53-1.94-5.57-6.62-5.45-10.08
		c0.01-0.21,0.19-0.36,0.39-0.34C-92.64,99.52-86.25,100.03-77.46,99.22z"/>
	<path class="st3" d="M-53.49,150.01c-1.13-17.27-6.46-36.33-14.22-52.21c-4.24,1.24-6.51,1.04-9.75,1.41
		c-0.01,5.88-2.74,9.72-6.65,11.13c-3.45,1.24-8.21,0.92-12-1.19c-3.2-1.78-4.92-5.59-4.91-9.15c0-0.97-0.83-1.57-1.81-1.69
		c-3.05-0.36-2.72-0.63-6.47-1.71c-5.98,18.18-10.66,33.93-10.53,53.12C-97.84,152.97-75.47,153.16-53.49,150.01z"/>
	<path class="st2" d="M-109.3,96.6c-6.65,20.64-9.88,31.1-10.53,53.12c-2.78-0.08-5.03-0.4-7.28-0.47
		c0.36-12.35-0.25-8.39,0.68-18.54c1.17-12.68,7.49-24.8,14.04-35.25C-111.51,96.01-110.12,96.3-109.3,96.6z"/>
	<path class="st4" d="M-70.89,58.69c2.82,0.85,4.7,4.23,4.04,7.24c-0.67,3.01-3.78,5.16-6.66,4.6c-2.88-0.56-5.06-3.74-4.67-6.8
		C-77.8,60.67-74.76,57.53-70.89,58.69z"/>
	<path class="st5" d="M-99.77,75.97c7.08,0.5,14.22,0.06,20.94-1.27c0.74-0.15,1.69-0.27,2.21,0.17c0.28,0.23,0.33,0.55,0.35,0.84
		c0.19,2.85-1.87,5.63-5.22,7.07s-7.87,1.46-11.47,0.08C-96.56,81.46-99.11,78.71-99.77,75.97z"/>
	<path class="st4" d="M-101.38,56.56c2.82,0.85,4.7,4.23,4.04,7.24c-0.67,3.01-3.78,5.16-6.66,4.6c-2.88-0.56-5.06-3.74-4.67-6.8
		C-108.29,58.54-105.26,55.39-101.38,56.56z"/>
	<path class="st6" d="M-77.48,49.78c5.59-0.58,11.36,1.03,15.95,4.46"/>
	<path class="st6" d="M-98.05,48.34c-5.39-2.01-11.82-0.39-15.77,3.97"/>
	<ellipse class="st7" cx="-71.18" cy="62.26" rx="1.95" ry="2.06"/>
	<ellipse class="st7" cx="-100.87" cy="60.18" rx="1.95" ry="2.06"/>
	<path class="st8" d="M-47.75,60.4c-6.62-7.98-12.13-12.36-20.24-15.59c-8.11-3.23-16.69-5.5-23.98-10.45
		c-2.33-1.58-4.63-3.62-5.82-6.46c-9.04,1.85-16.84,9.33-19.44,18.65c-1.9,6.82-1.2,14.29-3.62,20.92
		c-1.87,5.12-5.62,9.9-5.01,15.35c0.37,3.34,2.39,6.27,4.89,8.35c2.5,2.08,5.46,3.42,8.38,4.61c-2.53,3.78-4.08,7.51-5.74,9.97
		c-8.55-3.01-14.27-13.45-15.04-22.93s1.95-18.85,4.64-27.93c3.62-12.24,7.61-25.09,16.63-33.67c7.38-7.03,17.32-10.32,27.15-11.91
		c7.68-1.24,15.78-1.51,22.98,1.6c7.26,3.14,12.92,9.44,17.25,16.34c11.61,18.45,14.92,42.46,8.78,63.64
		c-1.7,5.87-4.34,11.85-9.23,15.18c-1.9,1.29-4.31,2.13-6.4,1.25c-4.57-1.9-6.68-8.7-9.12-11.64c7.82-3.81,12.48-9.69,13.96-19.53
		c2.73-0.84,4.92-3.7,5.79-6.16c0.87-2.46,0.8-5.4-0.67-7.52C-43.08,60.37-46.48,59.22-47.75,60.4z"/>
	<path class="st9" d="M-41.89,58.63c-4.91-15.98-15.4-30.64-30.07-37.14s-33.53-3.25-43.57,9.26c2.95-7.27,9.8-12.03,16.87-14.65
		s14.61-3.51,21.86-5.54s14.53-5.48,19-11.84c8.46,6.7,14.78,16.37,17.71,27.1s2.47,22.46-2.11,32.57
		C-42.21,58.43-42.21,58.49-41.89,58.63z"/>
	
		<ellipse transform="matrix(0.1518 -0.9884 0.9884 0.1518 -170.5565 -44.2788)" class="st10" cx="-111.08" cy="77.23" rx="10.51" ry="10.96"/>
	
		<ellipse transform="matrix(0.1518 -0.9884 0.9884 0.1518 -132.7385 5.514)" class="st10" cx="-63.16" cy="80.09" rx="10.51" ry="10.96"/>
</g>
<g>
	<g>
		<path class="st11" d="M109.65,66.19c0.25,0.25,0.67,0.19,0.84-0.12c0.91-1.66,3.05-2.68,5.09-2.5c2.29,0.21,4.32,1.76,5.25,3.72
			c0.93,1.96,0.86,4.24,0.12,6.26s-2.12,3.79-3.71,5.33c-1.47,1.43-3.3,2.74-5.4,2.96c-0.27,0.03-0.48,0.23-0.48,0.5
			c-0.11,7.29-4.88,13.25-10.92,16.61c-6.17,3.43-13.5,4.59-20.68,5.24c-14.2,1.29-29.21,0.72-41.8-5.58
			c-4.59-2.3-9.15-5.98-9.35-10.8c-0.16-4.16,2.96-7.7,4.68-11.53c3.35-7.45,1.39-16.02,2.99-23.96
			c2.74-13.57,17.23-24.15,32.73-23.64c0.13,0,0.26,0.06,0.36,0.14C83.07,40.91,96.42,53.35,109.65,66.19z"/>
		<path class="st12" d="M116.53,25.11c9.08-1.69,16.99,3.88,22.49,10.78c5.5,6.89,5.68,17.13-0.05,23.79
			c-2.06,2.39-4.73,4.28-7.51,5.95c1.85,2.06,3.24,5.1,3.21,8.02c-0.03,2.92-1.33,5.72-3.09,8.14c-2.24,3.08-5.37,5.73-9.2,6.92
			c-3.83,1.19-8.39,0.72-11.47-1.72c0.24-1.53,0.62-3.6,0.46-5.64c4.59-1.06,8.4-4.54,9.6-8.74c0.57-1.99,0.56-4.18-0.41-6.03
			c-0.97-1.86-3.03-3.31-5.26-3.34c-2.24-0.03-4.46,1.59-4.59,3.65c-4.39-0.48-8.94-3.8-8.35-7.71c-4.45,1.24-8.75-0.82-11.84-4.05
			c-3.08-3.23-5.77-5.98-3.84-9.87c-4.41,1.69-7.88-1-11.83-3.51c-3.95-2.51-6.38-6.93-6.22-11.33
			c-9.57-0.34-20.35,4.21-26.85,11.97s-6.08,16.45-6.78,27.83c-2.5,0.81-5.27,0.1-6.94-1.79s-1.95-4.66-0.9-6.88
			c0.83-1.75,2.35-3.66,4.21-4.69c0.33-0.18,0.21-0.65-0.16-0.7c-3.96-0.45-7.53-2.64-8.93-6.19c-1.61-4.06-0.54-8.74,2.12-12.27
			s6.75-5.99,11.11-7.54c-3.48-4.22-3.27-11.03,0.54-15.56s10.92-6.42,16.3-4.75c2.36-5.56,9.82-8.13,16.25-7.12
			s11.36,2.79,16.22,6.81c5.18-4.83,15.76-4.18,22.01-0.49S117.96,18.36,116.53,25.11z"/>
	</g>
	<g>
		<path class="st13" d="M114.28,133.87c-2.41-11.94-9.41-24.31-17.13-33.34c-2.17,1.25-5.78,1.84-7.84,2.33
			c7.84,17.98,14.56,30.69,15.44,49.99c3.39-0.48,7.76-0.89,11.15-1.37c0.5-0.07-1.74-17.27-1.61-17.88"/>
		<path class="st11" d="M79.51,104.21c-0.41,6.64-2.53,8.82-6.43,10.24s-8.99,1.1-12.81-0.8c-3.69-1.84-5.83-6.33-5.73-9.65
			c0.01-0.2,0.2-0.35,0.41-0.33C63.71,104.6,70.36,105.05,79.51,104.21z"/>
		<path class="st14" d="M104.75,152.85c-1.27-16.58-6.93-34.86-15.11-50.06c-4.4,1.22-6.77,1.04-10.13,1.42
			c0.17,8.02-2.96,9.09-6.85,10.74c-3.89,1.65-8.88,1.22-12.49-1.07c-3.15-2-5.15-5.34-5.16-8.76c0-0.94-0.87-1.51-1.9-1.61
			c-3.18-0.33-2.83-0.58-6.75-1.6c-6.12,17.5-10.9,32.66-10.64,51.1C58.62,155.98,81.9,156.01,104.75,152.85z"/>
		<path class="st13" d="M46.35,101.9c-6.8,19.87-10.1,29.94-10.64,51.1c-2.9-0.06-5.24-0.36-7.58-0.4
			c0.31-11.86-0.31-8.06,0.6-17.82c1.14-12.19,7.65-23.87,14.4-33.95C44.06,101.35,45.5,101.62,46.35,101.9z"/>
		<path class="st13" d="M79.51,104.21c-0.04,3.58-2.42,8.54-6.29,10.08c-3.87,1.54-8.87,1.19-12.59-0.9
			c-3.72-2.09-5.73-5.91-5.47-9.55c0.01-0.02-0.08-0.02-0.12-0.02c-0.51-0.03-1.06-0.19-1.77-0.3c-0.66-0.11-1.34-0.3-2.05-0.39
			c-0.87-0.29-1.5-0.26-2.16,0.24c-0.66,0.5-0.99,1.24-1.05,1.98c-0.09,1.11,0.4,2.26,1.31,3.12c0.92,0.86,2.25,1.43,3.57,1.6
			c-1.57,0.82-2.27,2.53-1.83,4.07c0.44,1.54,1.9,2.86,3.67,3.54c1.77,0.68,3.81,0.74,5.63,0.35c1.83-0.39,3.46-1.22,5.08-2.21
			c0.48,1.92,2.51,3.51,4.81,4.12c2.3,0.61,4.8,0.34,6.93-0.42c1.1-0.4,2.17-0.96,2.7-1.84c0.51-0.85,0.44-1.9,0.05-2.83
			c-0.39-0.93-1.06-1.78-1.64-2.8c1.8,0.78,3.98,0.88,5.77,0.27s2.96-1.17,3.43-2.72c0.27-0.89,0.26-3.6,0.04-3.86
			c-0.55-0.66-0.75-0.7-1.26-0.9C82.7,103.39,81.28,104.06,79.51,104.21z"/>
	</g>
	<path d="M86.11,65.24c2.93,0.79,4.92,4.03,4.24,6.93s-3.9,4.98-6.9,4.46c-3-0.52-5.29-3.56-4.9-6.5
		C78.94,67.19,82.07,64.14,86.11,65.24z"/>
	<path class="st15" d="M56.45,81.62c7.37,0.43,14.79-0.03,21.78-1.36c0.77-0.15,1.76-0.27,2.3,0.15c0.29,0.22,0.35,0.52,0.37,0.81
		c0.21,2.74-1.91,5.42-5.39,6.82c-3.48,1.4-8.18,1.46-11.93,0.15C59.83,86.88,57.16,84.25,56.45,81.62z"/>
	<path d="M54.37,63.39c2.93,0.79,4.92,4.03,4.24,6.93c-0.68,2.89-3.9,4.98-6.9,4.46c-3-0.52-5.29-3.56-4.9-6.5
		S50.33,62.29,54.37,63.39z"/>
	<path class="st16" d="M79.2,56.72c5.81-0.59,11.83,0.92,16.62,4.18"/>
	<path class="st16" d="M57.78,55.47c-5.62-1.89-12.3-0.29-16.39,3.92"/>
	
		<ellipse transform="matrix(1 -8.857176e-03 8.857176e-03 1 -0.6048 0.7629)" class="st17" cx="85.83" cy="68.66" rx="2.03" ry="1.97"/>
	
		<ellipse transform="matrix(1 -8.857176e-03 8.857176e-03 1 -0.59 0.489)" class="st17" cx="54.92" cy="66.86" rx="2.03" ry="1.97"/>
	<ellipse transform="matrix(0.0452 -0.999 0.999 0.0452 3.4289 175.0651)" class="st18" cx="93.3" cy="85.74" rx="10.1" ry="11.4"/>
	
		<ellipse transform="matrix(0.0452 -0.999 0.999 0.0452 -40.9889 122.8099)" class="st18" cx="43.75" cy="82.85" rx="10.1" ry="11.4"/>
</g>
</svg>
