<?xml version="1.0" encoding="utf-8"?>
<!-- Generator: Adobe Illustrator 27.4.0, SVG Export Plug-In . SVG Version: 6.00 Build 0)  -->
<svg version="1.1" id="레이어_1" xmlns="http://www.w3.org/2000/svg" xmlns:xlink="http://www.w3.org/1999/xlink" x="0px"
	 y="0px" viewBox="0 0 153.07 158.74" style="enable-background:new 0 0 153.07 158.74;" xml:space="preserve">
<style type="text/css">
	.st0{display:none;}
	.st1{display:inline;fill:#FFEEE0;stroke:#944E19;stroke-miterlimit:10;}
	.st2{display:inline;fill:#FFFFFF;stroke:#944E19;stroke-miterlimit:10;}
	.st3{display:inline;fill:#FF7385;stroke:#944E19;stroke-miterlimit:10;}
	.st4{display:inline;}
	.st5{display:inline;fill:#FF4757;stroke:#FF4757;stroke-linecap:round;stroke-linejoin:round;stroke-miterlimit:10;}
	.st6{display:inline;fill:none;stroke:#944E19;stroke-width:3;stroke-linecap:round;stroke-miterlimit:10;}
	.st7{display:inline;fill:#FFFFFF;}
	.st8{display:inline;fill:#472000;stroke:#944E19;stroke-miterlimit:10;}
	.st9{display:inline;fill:#FFE385;stroke:#944E19;stroke-miterlimit:10;}
	.st10{display:inline;fill:#FFD6D9;}
	.st11{fill:#FFEEE0;stroke:#944E19;stroke-miterlimit:10;}
	.st12{fill:#472000;stroke:#944E19;stroke-miterlimit:10;}
	.st13{fill:#FFFFFF;stroke:#944E19;stroke-miterlimit:10;}
	.st14{fill:#FFEB85;stroke:#944E19;stroke-miterlimit:10;}
	.st15{fill:none;stroke:#944E19;stroke-linecap:round;stroke-linejoin:round;stroke-miterlimit:10;}
	.st16{display:inline;fill:#2E2525;stroke:#944E19;stroke-linecap:round;stroke-linejoin:round;stroke-miterlimit:10;}
	.st17{display:inline;fill:#FFFFFF;stroke:#944E19;stroke-linecap:round;stroke-linejoin:round;stroke-miterlimit:10;}
	.st18{display:inline;fill:#FFEEE0;stroke:#944E19;stroke-linecap:round;stroke-linejoin:round;stroke-miterlimit:10;}
	.st19{display:inline;fill:none;stroke:#944E19;stroke-linecap:round;stroke-linejoin:round;stroke-miterlimit:10;}
	.st20{display:inline;fill:#662D91;stroke:#944E19;stroke-linecap:round;stroke-linejoin:round;stroke-miterlimit:10;}
	.st21{display:inline;stroke:#944E19;stroke-linecap:round;stroke-linejoin:round;stroke-miterlimit:10;}
	.st22{display:inline;fill:#0071BC;stroke:#944E19;stroke-linecap:round;stroke-linejoin:round;stroke-miterlimit:10;}
	.st23{display:inline;fill:#00A99D;stroke:#944E19;stroke-linecap:round;stroke-linejoin:round;stroke-miterlimit:10;}
	.st24{display:inline;fill:#2B0A0D;stroke:#944E19;stroke-linecap:round;stroke-linejoin:round;stroke-miterlimit:10;}
	.st25{fill:#F7B533;stroke:#944E19;stroke-width:2;stroke-linecap:round;stroke-linejoin:round;stroke-miterlimit:10;}
	.st26{fill:#FFFFFF;}
	.st27{fill:none;stroke:#000000;stroke-width:2;stroke-linecap:round;stroke-linejoin:round;stroke-miterlimit:10;}
	.st28{fill:none;stroke:#944E19;stroke-width:2;stroke-linecap:round;stroke-linejoin:round;stroke-miterlimit:10;}
	.st29{fill:#FFB5BF;stroke:#944E19;stroke-width:2;stroke-linecap:round;stroke-linejoin:round;stroke-miterlimit:10;}
	.st30{fill:#FFB5BF;}
	
		.st31{display:inline;fill:#FF0000;stroke:#944E19;stroke-width:2;stroke-linecap:round;stroke-linejoin:round;stroke-miterlimit:10;}
	
		.st32{display:inline;fill:#F7B533;stroke:#944E19;stroke-width:2;stroke-linecap:round;stroke-linejoin:round;stroke-miterlimit:10;}
	.st33{fill:#FFFFFF;stroke:#944E19;stroke-linecap:round;stroke-linejoin:round;stroke-miterlimit:10;}
	.st34{fill:#C4F2FF;stroke:#944E19;stroke-linecap:round;stroke-linejoin:round;stroke-miterlimit:10;}
	.st35{fill:#8CC63F;stroke:#944E19;stroke-linecap:round;stroke-linejoin:round;stroke-miterlimit:10;}
	.st36{display:inline;fill:url(#SVGID_1_);stroke:#944E19;stroke-linecap:round;stroke-linejoin:round;stroke-miterlimit:10;}
	.st37{display:inline;fill:#353535;stroke:#944E19;stroke-linecap:round;stroke-linejoin:round;stroke-miterlimit:10;}
	.st38{display:inline;fill:#111111;stroke:#944E19;stroke-linecap:round;stroke-linejoin:round;stroke-miterlimit:10;}
	.st39{display:inline;fill:none;stroke:#000000;stroke-miterlimit:10;}
	.st40{display:inline;fill:#8FC72B;stroke:#9B551B;stroke-miterlimit:10;}
	.st41{display:inline;fill:#A66750;stroke:#9B551B;stroke-miterlimit:10;}
	.st42{display:inline;fill:#D1853C;stroke:#9B551B;stroke-miterlimit:10;}
	.st43{display:inline;fill:#8CC63F;stroke:#9B551B;stroke-miterlimit:10;}
	.st44{fill:#B5EB3F;stroke:#9B551B;stroke-miterlimit:10;}
	.st45{display:inline;fill:#B5EB3F;stroke:#9B551B;stroke-miterlimit:10;}
	.st46{display:inline;fill:none;stroke:#9B551B;stroke-miterlimit:10;}
	.st47{display:inline;fill:#FF6300;stroke:#9B551B;stroke-miterlimit:10;}
	.st48{display:inline;fill:#FF99BF;stroke:#9B551B;stroke-linecap:round;stroke-linejoin:round;stroke-miterlimit:10;}
	.st49{display:inline;fill:#24BDFF;stroke:#9B551B;stroke-miterlimit:10;}
	.st50{fill:#FF4757;stroke:#FF4757;stroke-linecap:round;stroke-linejoin:round;stroke-miterlimit:10;}
	.st51{fill:#EB365E;stroke:#944E19;stroke-linecap:round;stroke-linejoin:round;stroke-miterlimit:10;}
	.st52{fill:#EB365E;stroke:#944E19;stroke-miterlimit:10;}
	.st53{fill:#FFEEE0;stroke:#944E19;stroke-linecap:round;stroke-linejoin:round;stroke-miterlimit:10;}
	.st54{stroke:#944E19;stroke-linecap:round;stroke-linejoin:round;stroke-miterlimit:10;}
	.st55{fill:#999894;stroke:#944E19;stroke-linecap:round;stroke-linejoin:round;stroke-miterlimit:10;}
	.st56{fill:#010047;stroke:#944E19;stroke-linecap:round;stroke-linejoin:round;stroke-miterlimit:10;}
	.st57{fill:#F2F2F2;stroke:#944E19;stroke-linecap:round;stroke-linejoin:round;stroke-miterlimit:10;}
	.st58{fill:#B3B3B3;stroke:#944E19;stroke-linecap:round;stroke-linejoin:round;stroke-miterlimit:10;}
	.st59{fill:#FFD6D9;}
	.st60{fill:#FFCD17;stroke:#944E19;stroke-linecap:round;stroke-linejoin:round;stroke-miterlimit:10;}
	.st61{fill:#FFCD17;stroke:#944E19;stroke-miterlimit:10;}
	.st62{fill:#686764;stroke:#944E19;stroke-linecap:round;stroke-linejoin:round;stroke-miterlimit:10;}
</style>
<g class="st0">
	<path class="st1" d="M206.39-20.99c0.36-1.19,1.67-1.96,2.91-1.83s2.32,1.05,2.82,2.19s0.45,2.48,0.04,3.65
		c-0.41,1.18-1.15,2.21-2.02,3.1c-0.86,0.89-1.94,1.7-3.18,1.72c0.02,4.38-2.61,7.96-5.95,9.94s-7.29,2.63-11.17,2.99
		c-7.66,0.7-15.75,0.31-22.52-3.41c-2.47-1.36-4.92-3.52-5-6.34c-0.07-2.43,1.62-4.49,2.56-6.72c1.83-4.34,0.8-9.35,1.69-13.98
		c1.53-7.95,9.44-14.1,17.83-13.68C191.9-36.13,199.18-28.68,206.39-20.99z"/>
	<path class="st2" d="M208.37,18.23c-1.26-6.98-4.99-14.23-9.13-19.53c-1.17,0.72-3.12,1.05-4.23,1.33
		c4.17,10.53,7.75,17.98,8.16,29.25c1.83-0.27,4.18-0.49,6.02-0.76c0.27-0.04-0.88-10.09-0.81-10.45"/>
	<path class="st2" d="M189.72,0.79c-0.24,3.88-1.39,5.14-3.5,5.96c-2.11,0.82-4.85,0.61-6.91-0.51c-1.98-1.09-3.12-3.72-3.06-5.65
		c0-0.12,0.11-0.2,0.22-0.19C181.2,0.95,184.79,1.24,189.72,0.79z"/>
	<path class="st3" d="M203.17,29.29c-0.63-9.69-3.62-20.39-7.98-29.29c-2.38,0.69-3.65,0.59-5.47,0.79c0,3.3-1.54,5.45-3.73,6.25
		c-1.93,0.7-4.61,0.52-6.73-0.67c-1.79-1-2.76-3.13-2.75-5.13c0-0.55-0.46-0.88-1.02-0.95c-1.71-0.2-1.53-0.35-3.63-0.96
		c-3.36,10.2-5.98,19.04-5.91,29.81C178.29,30.95,190.84,31.05,203.17,29.29z"/>
	<path class="st2" d="M171.85-0.68c-3.73,11.58-5.54,17.45-5.91,29.81c-1.56-0.04-2.82-0.23-4.09-0.26c0.2-6.93-0.14-4.71,0.38-10.4
		c0.66-7.12,4.2-13.91,7.88-19.78C170.62-1.01,171.4-0.85,171.85-0.68z"/>
	<path class="st4" d="M193.41-21.95c1.58,0.47,2.64,2.37,2.26,4.06c-0.37,1.69-2.12,2.9-3.73,2.58c-1.62-0.31-2.84-2.1-2.62-3.81
		C189.53-20.84,191.23-22.61,193.41-21.95z"/>
	<path class="st5" d="M177.2-12.26c3.97,0.28,7.98,0.04,11.75-0.71c0.42-0.08,0.95-0.15,1.24,0.1c0.15,0.13,0.18,0.31,0.2,0.47
		c0.1,1.6-1.05,3.16-2.93,3.97c-1.88,0.8-4.41,0.82-6.43,0.04S177.57-10.72,177.2-12.26z"/>
	<path class="st4" d="M176.3-23.15c1.58,0.47,2.64,2.37,2.26,4.06c-0.37,1.69-2.12,2.9-3.73,2.58c-1.62-0.31-2.84-2.1-2.62-3.81
		S174.13-23.8,176.3-23.15z"/>
	<path class="st6" d="M189.71-26.95c3.14-0.33,6.37,0.58,8.95,2.5"/>
	<path class="st6" d="M178.17-27.76c-3.02-1.13-6.63-0.22-8.85,2.23"/>
	<ellipse class="st7" cx="193.25" cy="-19.95" rx="1.09" ry="1.15"/>
	<ellipse class="st7" cx="176.59" cy="-21.12" rx="1.09" ry="1.15"/>
	<path class="st8" d="M206.39-20.99c-3.72-4.48-6.8-6.93-11.35-8.75s-9.36-3.09-13.45-5.86c-1.31-0.89-2.6-2.03-3.27-3.63
		c-5.07,1.04-9.45,5.23-10.91,10.47c-1.07,3.83-0.67,8.02-2.03,11.74c-1.05,2.87-3.15,5.55-2.81,8.61c0.21,1.87,1.34,3.52,2.74,4.68
		c1.4,1.17,3.07,1.92,4.7,2.59c-1.42,2.12-2.29,4.21-3.22,5.6c-4.8-1.69-8.01-7.55-8.44-12.87c-0.43-5.32,1.1-10.57,2.61-15.67
		c2.03-6.87,4.27-14.08,9.33-18.89c4.14-3.94,9.72-5.79,15.23-6.68c4.31-0.7,8.86-0.85,12.89,0.9c4.07,1.76,7.25,5.3,9.68,9.17
		c6.51,10.35,8.37,23.82,4.93,35.71c-0.95,3.3-2.44,6.65-5.18,8.52c-1.06,0.72-2.42,1.19-3.59,0.7c-2.56-1.07-3.75-4.88-5.11-6.53
		c4.39-2.14,7-5.44,7.83-10.96c1.53-0.47,2.76-2.08,3.25-3.45s0.45-3.03-0.38-4.22C209.01-21.01,207.1-21.65,206.39-20.99z"/>
	<path class="st9" d="M209.68-21.99c-2.75-8.97-8.64-17.19-16.87-20.84c-8.23-3.65-18.82-1.82-24.45,5.19
		c1.66-4.08,5.5-6.75,9.47-8.22c3.97-1.47,8.2-1.97,12.26-3.11c4.07-1.14,8.15-3.08,10.66-6.64c4.75,3.76,8.29,9.18,9.94,15.2
		c1.65,6.02,1.39,12.6-1.18,18.27C209.5-22.1,209.5-22.06,209.68-21.99z"/>
	
		<ellipse transform="matrix(0.1518 -0.9884 0.9884 0.1518 156.3469 159.0846)" class="st10" cx="170.86" cy="-11.55" rx="5.9" ry="6.15"/>
	
		<ellipse transform="matrix(0.1518 -0.9884 0.9884 0.1518 177.5654 187.0218)" class="st10" cx="197.75" cy="-9.94" rx="5.9" ry="6.15"/>
</g>
<g class="st0">
	<g class="st4">
		<path class="st11" d="M272.91-22.24c0.16,0.15,0.42,0.12,0.52-0.07c0.56-1.03,1.89-1.66,3.15-1.55c1.42,0.13,2.67,1.09,3.25,2.3
			c0.58,1.21,0.53,2.63,0.07,3.87c-0.46,1.25-1.31,2.35-2.3,3.3c-0.91,0.88-2.04,1.7-3.34,1.83c-0.17,0.02-0.3,0.15-0.3,0.31
			c-0.07,4.51-3.02,8.21-6.76,10.29c-3.82,2.13-8.36,2.84-12.81,3.25c-8.8,0.8-18.09,0.44-25.89-3.46c-2.84-1.42-5.67-3.7-5.79-6.69
			c-0.1-2.58,1.83-4.77,2.9-7.14c2.08-4.61,0.86-9.92,1.85-14.84c1.7-8.41,10.67-14.96,20.27-14.64c0.08,0,0.16,0.03,0.22,0.09
			C256.45-37.9,264.71-30.2,272.91-22.24z"/>
		<path class="st12" d="M277.17-47.68c5.62-1.04,10.52,2.4,13.93,6.67s3.52,10.61-0.03,14.74c-1.27,1.48-2.93,2.65-4.65,3.68
			c1.14,1.28,2.01,3.16,1.99,4.96c-0.02,1.81-0.82,3.54-1.91,5.04c-1.39,1.91-3.33,3.55-5.7,4.28s-5.19,0.44-7.1-1.06
			c0.15-0.95,0.38-2.23,0.29-3.49c2.84-0.66,5.2-2.81,5.95-5.41c0.35-1.23,0.35-2.59-0.26-3.74c-0.6-1.15-1.87-2.05-3.26-2.07
			s-2.76,0.99-2.84,2.26c-2.72-0.3-5.54-2.36-5.17-4.78c-2.76,0.77-5.42-0.51-7.33-2.51c-1.91-2-3.57-3.71-2.38-6.11
			c-2.73,1.05-4.88-0.62-7.32-2.17c-2.45-1.56-3.95-4.29-3.85-7.02c-5.92-0.21-12.6,2.61-16.63,7.41
			c-4.03,4.81-3.76,10.19-4.2,17.23c-1.55,0.5-3.27,0.06-4.3-1.11c-1.03-1.17-1.21-2.88-0.56-4.26c0.51-1.09,1.46-2.27,2.61-2.9
			c0.2-0.11,0.13-0.4-0.1-0.43c-2.45-0.28-4.66-1.64-5.53-3.84c-0.99-2.51-0.33-5.41,1.31-7.6c1.65-2.19,4.18-3.71,6.88-4.67
			c-2.16-2.61-2.03-6.83,0.33-9.63c2.36-2.8,6.76-3.98,10.09-2.94c1.46-3.44,6.08-5.03,10.06-4.41s7.03,1.73,10.04,4.21
			c3.21-2.99,9.76-2.59,13.63-0.3S278.06-51.87,277.17-47.68z"/>
	</g>
	<g class="st4">
		<path class="st13" d="M275.77,19.67c-1.49-7.4-5.83-15.05-10.61-20.65c-1.34,0.77-3.58,1.14-4.85,1.45
			c4.86,11.14,9.02,19.01,9.56,30.96c2.1-0.3,4.8-0.55,6.91-0.85c0.31-0.04-1.08-10.7-1-11.07"/>
		<path class="st11" d="M254.24,1.3c-0.25,4.11-1.57,5.46-3.98,6.34c-2.41,0.88-5.57,0.68-7.94-0.5c-2.28-1.14-3.61-3.92-3.55-5.97
			c0-0.12,0.12-0.22,0.25-0.2C244.46,1.54,248.58,1.82,254.24,1.3z"/>
		<path class="st14" d="M269.87,31.43c-0.79-10.27-4.29-21.59-9.36-31c-2.73,0.75-4.19,0.65-6.28,0.88c0.1,4.97-1.83,5.63-4.24,6.65
			c-2.41,1.02-5.5,0.76-7.74-0.66c-1.95-1.24-3.19-3.3-3.2-5.42c0-0.58-0.54-0.93-1.18-1c-1.97-0.2-1.76-0.36-4.18-0.99
			c-3.79,10.84-6.75,20.23-6.59,31.65C241.3,33.37,255.72,33.39,269.87,31.43z"/>
		<path class="st13" d="M233.71-0.13c-4.21,12.3-6.25,18.54-6.59,31.65c-1.79-0.03-3.25-0.22-4.69-0.25
			c0.19-7.35-0.19-4.99,0.37-11.03c0.71-7.55,4.74-14.78,8.92-21.03C232.29-0.47,233.18-0.3,233.71-0.13z"/>
		<path class="st13" d="M254.24,1.3c-0.02,2.22-1.5,5.29-3.89,6.24c-2.39,0.96-5.49,0.73-7.79-0.56s-3.55-3.66-3.39-5.91
			c0-0.01-0.05-0.01-0.08-0.01c-0.32-0.02-0.65-0.12-1.1-0.19c-0.41-0.07-0.83-0.19-1.27-0.24c-0.54-0.18-0.93-0.16-1.34,0.15
			c-0.41,0.31-0.61,0.77-0.65,1.23c-0.05,0.68,0.25,1.4,0.81,1.93c0.57,0.54,1.4,0.88,2.21,0.99c-0.97,0.51-1.4,1.57-1.13,2.52
			s1.18,1.77,2.28,2.19s2.36,0.46,3.49,0.22c1.13-0.24,2.14-0.75,3.15-1.37c0.3,1.19,1.55,2.17,2.98,2.55
			c1.42,0.38,2.97,0.21,4.29-0.26c0.68-0.24,1.34-0.59,1.67-1.14c0.32-0.53,0.27-1.18,0.03-1.75s-0.66-1.1-1.02-1.73
			c1.11,0.48,2.46,0.54,3.58,0.17c1.11-0.38,1.83-0.72,2.12-1.68c0.17-0.55,0.16-2.23,0.02-2.39c-0.34-0.41-0.46-0.43-0.78-0.56
			C256.22,0.8,255.34,1.21,254.24,1.3z"/>
	</g>
	<path class="st4" d="M258.33-22.83c1.82,0.49,3.05,2.5,2.63,4.29c-0.42,1.79-2.42,3.09-4.27,2.77c-1.86-0.32-3.28-2.2-3.04-4.03
		C253.89-21.63,255.83-23.51,258.33-22.83z"/>
	<path class="st5" d="M239.96-12.69c4.56,0.27,9.16-0.02,13.49-0.84c0.48-0.09,1.09-0.17,1.43,0.09c0.18,0.14,0.21,0.32,0.23,0.5
		c0.13,1.69-1.18,3.36-3.34,4.23s-5.07,0.9-7.39,0.09C242.05-9.43,240.4-11.06,239.96-12.69z"/>
	<path class="st4" d="M238.67-23.98c1.82,0.49,3.05,2.5,2.63,4.29s-2.42,3.09-4.27,2.77c-1.86-0.32-3.28-2.2-3.04-4.03
		C234.23-22.77,236.17-24.66,238.67-23.98z"/>
	<path class="st6" d="M254.05-28.11c3.6-0.37,7.33,0.57,10.29,2.59"/>
	<path class="st6" d="M240.79-28.88c-3.48-1.17-7.62-0.18-10.15,2.43"/>
	
		<ellipse transform="matrix(1 -8.857176e-03 8.857176e-03 1 0.1936 2.2857)" class="st7" cx="258.16" cy="-20.71" rx="1.25" ry="1.22"/>
	
		<ellipse transform="matrix(1 -8.857176e-03 8.857176e-03 1 0.2027 2.1161)" class="st7" cx="239.01" cy="-21.83" rx="1.25" ry="1.22"/>
	
		<ellipse transform="matrix(0.0452 -0.999 0.999 0.0452 261.0296 252.8331)" class="st10" cx="262.78" cy="-10.14" rx="6.26" ry="7.06"/>
	
		<ellipse transform="matrix(0.0452 -0.999 0.999 0.0452 233.5212 220.4708)" class="st10" cx="232.1" cy="-11.93" rx="6.26" ry="7.06"/>
</g>
<path class="st15" d="M219,31.69"/>
<g class="st0">
	<path class="st1" d="M115.6,58.93c0.52-2,2.85-3.41,5.14-3.34c2.29,0.07,4.4,1.45,5.45,3.28c1.05,1.83,1.12,4.02,0.5,6
		s-1.87,3.76-3.35,5.32c-1.48,1.56-3.38,3.02-5.66,3.2c0.55,7.19-3.88,13.37-9.8,17.01s-13.14,5.16-20.23,6.19
		c-14.04,2.04-28.98,2.32-41.89-3.02c-4.7-1.95-9.47-5.23-9.95-9.84c-0.42-3.98,2.47-7.56,3.95-11.34c2.88-7.34,0.4-15.46,1.5-23.17
		c1.9-13.24,15.76-24.25,31.28-24.54C87.15,35.72,101.42,47.12,115.6,58.93z"/>
	<path class="st4" d="M91.56,58.84c2.97,0.6,5.14,3.6,4.64,6.41s-3.57,5-6.58,4.67c-3.01-0.33-5.48-3.12-5.27-5.97
		C84.55,61.11,87.48,58.02,91.56,58.84z"/>
	<path class="st4" d="M59.9,58.84c2.97,0.6,5.14,3.6,4.64,6.41s-3.57,5-6.58,4.67c-3.01-0.33-5.48-3.12-5.27-5.97
		C52.89,61.11,55.82,58.02,59.9,58.84z"/>
	<path class="st6" d="M84.17,51.05c5.74-0.9,11.81,0.22,16.77,3.09"/>
	<path class="st6" d="M62.81,51.05c-5.7-1.5-12.25,0.41-16.04,4.68"/>
	<ellipse class="st7" cx="91.49" cy="62.15" rx="2.02" ry="1.9"/>
	<ellipse class="st7" cx="60.66" cy="62.15" rx="2.02" ry="1.9"/>
	<ellipse class="st10" cx="51.22" cy="78.53" rx="11.35" ry="9.72"/>
	<ellipse class="st10" cx="100.95" cy="78.08" rx="11.35" ry="9.72"/>
	<path class="st5" d="M65.73,79.03c-0.78-0.95-0.08-2.46,1.07-2.99s2.51-0.35,3.76-0.1c1.25,0.26,2.54,0.58,3.79,0.32
		c2.33-0.49,3.86-2.88,6.22-3.17c2.25-0.28,4.35,1.73,4.45,3.87c0.1,2.14-1.45,4.13-3.46,5.14c-2.01,1-4.38,1.15-6.64,0.92
		C71.41,82.67,67.81,81.57,65.73,79.03z"/>
	<path class="st16" d="M41.65,63.67c-1.29-8.56-0.03-17.67,4.83-25S60.16,26.1,69.34,26.38c2.34,0.07,4.78,0.54,6.55,1.97
		c1.88,1.53,2.69,3.88,3.67,6.04c0.97,2.15,2.41,4.4,4.78,5.09c0.29-1.33,0.59-2.66,0.88-3.99c2.27,4.99,5.99,9.38,10.66,12.56
		c-0.42-1.62-0.28-3.36,0.4-4.9c2.92,5.85,8,10.71,14.16,13.57c-0.13-1.01-0.27-2.03-0.4-3.04c1.9,2.1,3.8,4.2,5.7,6.3
		c0.21-2.32,2.32-4.37,4.77-4.64c2.46-0.27,5.01,1.26,5.79,3.47c3.59-5.3,4.26-12.25,1.74-18.07c-2.51-5.82-8.15-10.36-14.64-11.8
		c0.29-5.22-3.69-9.76-7.93-13.13c-6.71-5.34-14.8-9.31-23.49-10.56S64.02,5.6,56.86,10.38c-3.71,2.47-6.79,5.72-10.63,8.03
		s-8.88,3.54-12.9,1.55c1.43,0.68,2.91,1.41,3.83,2.64c0.92,1.23,1.05,3.13-0.16,4.11c-0.97,0.8-2.42,0.75-3.7,0.58
		c-3.06-0.41-6.05-1.27-8.83-2.54c0.36,5.61,2.87,11.08,6.96,15.18c0.58,0.58,1.23,1.22,1.27,2.01c0.06,1.22-1.44,2.09-2.73,1.95
		c-1.29-0.14-2.37-0.96-3.37-1.74C29.42,50.59,34.62,58.31,41.65,63.67z"/>
	<path class="st17" d="M53.53-12"/>
	<path class="st17" d="M50.18,95.81c15.65,3.89,32.53,3.29,47.83-1.69c1.5-0.49,3.19-1.01,4.6-0.34c0.78,0.37,1.33,1.05,1.85,1.72
		c2.89,3.75,5.37,7.77,7.4,11.97c2.05,4.24,3.65,8.66,4.79,13.17c1.14,4.53,1.81,9.15,2,13.79c0.17,4.17-0.13,8.33-0.69,12.46
		c-0.01,0.07-0.02,0.14-0.06,0.2c-0.05,0.08-0.15,0.13-0.24,0.18c-0.42,0.38-1.27,0.63-1.79,0.89c-0.56,0.28-1.12,0.54-1.69,0.79
		c-1.21,0.55-2.44,1.06-3.68,1.54c-2.52,0.97-5.1,1.79-7.72,2.48c-5.21,1.36-10.59,2.17-15.99,2.51c-2.05,0.13-4.11,0.19-6.17,0.19
		c-12.94-0.02-25.76-2.52-38.14-6.09c-1.47-0.42-2.97-0.88-4.15-1.8c-3.08-2.4-2.86-6.84-2.2-10.55
		C38.66,123.02,43.77,109.23,50.18,95.81z"/>
	<path class="st18" d="M61.32,97.8c8.64,0.83,17.41,0.44,25.99-1.24c-1.8,4.7-6.02,8.51-11.06,10.06
		C70.43,105.14,65.07,102.13,61.32,97.8z"/>
	<path class="st19" d="M59.21,98.08c-0.94,2.7-1.88,5.4-2.82,8.1c2.62,0.46,5.23,0.92,7.85,1.38c0.44,2.55,0.89,5.11,1.33,7.66
		c3.63-2.13,6.96-4.72,10.2-7.69c2.72,2.97,6.18,5.35,10.03,6.88c0.24,0.09,0.54,0.18,0.73,0.02c0.15-0.12,0.16-0.33,0.16-0.52
		c0.01-2.69-0.32-5.38-0.99-7.99c2.19,0.13,4.4-0.06,6.53-0.57c-0.7-3.12-2.2-6.08-4.32-8.57"/>
	<path class="st20" d="M75.55,107.91c-2.22,1.89-4.44,3.78-6.66,5.67c1.05,1.14,1.39,2.78,2.55,3.81c1.27,1.12,3.18,1.24,4.93,1.3
		c0.92,0.03,1.92,0.04,2.68-0.45c0.68-0.44,1.04-1.19,1.36-1.91c0.37-0.82,0.75-1.65,1.12-2.47c0.14-0.3,0.27-0.62,0.23-0.94
		c-0.06-0.43-0.44-0.74-0.78-1.02C79.24,110.48,77.49,109.08,75.55,107.91z"/>
	<path class="st20" d="M71.86,118.1c-1.12,3.18-1.89,6.47-2.17,9.81c-0.14,1.66-0.13,3.4,0.67,4.88c0.73,1.35,2.12,2.37,3.69,2.7
		c1.57,0.33,3.29-0.02,4.56-0.95c2.39-1.73,2.87-4.98,2.41-7.78c-0.46-2.8-1.64-5.49-1.84-8.32
		C76.76,119.09,74.1,118.95,71.86,118.1z"/>
	<path class="st21" d="M50.28,95.79c2.96,0.95,6.06,1.54,9.19,1.75l-2.89,8.49c2.63,0.08,5.24,0.7,7.59,1.82
		c0.84,2.55,1.37,5.19,1.57,7.85c0.23-0.25,0.46-0.5,0.69-0.74c1.76,6.16,4.21,12.15,7.28,17.83c0.32,0.58,0.88,1.05,1.57,1.15
		c1.03,0.16,1.58-0.61,2.01-1.3c3.59-5.8,6.2-12.15,7.69-18.72l1.64,0.99c0.36-2.96,0.18-5.97-0.53-8.87
		c2.2,0.45,4.56,0.13,6.53-0.88c-0.54-3.32-2.79-6.22-5.31-8.6c8.54-1.09,9.08-2.28,14.12-2.93c2.54-0.32,4.09,2.81,5.36,4.91
		c8.9,14.73,13.73,32.16,10.39,48.81c-2.48,1.52,1.98-0.78-4.16,2.13c-0.41,0.2-3.41,1.39-3.83,1.59
		c-10.47,4.95-26.35,8.99-62.42-0.3c-2.13-0.55-4.4-0.93-6.37-1.86c-1.97-0.93-4.27-4.22-4.27-5.66c0-2.27-0.38-4.49,0.07-6.71
		C39.07,122.56,42.09,108.2,50.28,95.79z"/>
	<path class="st19" d="M44.64,149.83c-0.93-3.55-0.3-7.28,0.39-10.89c1.04-5.47,2.19-10.92,3.46-16.35"/>
	<path class="st19" d="M109.19,150.77c-0.84-12.18-3.65-24.24-8.32-35.62"/>
	<path class="st19" d="M57.11,97.5c-1.66,4.16-2.99,8.45-3.95,12.8c-0.11,0.51-0.22,1.06,0.01,1.54c0.27,0.55,0.91,0.84,1.51,1.08
		c2.5,1.01,5.01,2.03,7.51,3.04c-1.05,3.76-2.1,7.53-3.16,11.29c-0.16,0.57-0.32,1.18-0.18,1.76c0.24,0.93,1.18,1.52,2.05,2.02
		c2.27,1.3,4.57,2.62,7.11,3.38s5.36,0.94,7.81-0.03"/>
	<path class="st19" d="M92.19,95.78c2.67,4.03,5.43,10.16,6.39,14.52c0.11,0.51,0.22,1.06-0.01,1.54c-0.27,0.55-0.91,0.84-1.51,1.08
		c-2.5,1.01-5.01,2.03-7.51,3.04c1.05,3.76,2.1,7.53,3.16,11.29c0.16,0.57,0.32,1.18,0.18,1.76c-0.24,0.93-1.18,1.52-2.05,2.02
		c-2.27,1.3-4.57,2.62-7.11,3.38c-2.53,0.77-5.36,0.94-7.81-0.03"/>
	<path class="st19" d="M75.28,134.66c0.01,6.92,0.02,13.84,0.04,20.75"/>
</g>
<g class="st0">
	<path class="st1" d="M118.22,56.86c0.55-2,3.01-3.41,5.43-3.34c2.42,0.07,4.65,1.45,5.75,3.28c1.11,1.83,1.18,4.02,0.53,6
		c-0.65,1.98-1.98,3.76-3.54,5.32c-1.56,1.56-3.57,3.02-5.98,3.2c0.58,7.2-4.1,13.38-10.36,17.02c-6.26,3.64-13.88,5.16-21.38,6.19
		c-14.83,2.04-30.62,2.32-44.26-3.02c-4.97-1.95-10-5.23-10.51-9.85c-0.44-3.98,2.6-7.56,4.17-11.34
		c3.04-7.34,0.42-15.47,1.59-23.18c2-13.25,16.65-24.26,33.05-24.54C88.15,33.64,103.23,45.05,118.22,56.86z"/>
	<path class="st4" d="M92.82,56.77c3.13,0.6,5.43,3.6,4.91,6.42c-0.52,2.82-3.77,5-6.96,4.67c-3.18-0.33-5.79-3.12-5.57-5.97
		C85.41,59.04,88.51,55.95,92.82,56.77z"/>
	<path class="st4" d="M59.37,56.77c3.13,0.6,5.43,3.6,4.91,6.42c-0.52,2.82-3.77,5-6.96,4.67c-3.18-0.33-5.79-3.12-5.57-5.97
		C51.96,59.04,55.06,55.95,59.37,56.77z"/>
	<path class="st6" d="M85.01,48.98c6.07-0.9,12.48,0.22,17.72,3.09"/>
	<path class="st6" d="M62.44,48.98c-6.02-1.5-12.94,0.41-16.95,4.68"/>
	<ellipse class="st7" cx="92.75" cy="60.08" rx="2.13" ry="1.9"/>
	<ellipse class="st7" cx="60.17" cy="60.08" rx="2.13" ry="1.9"/>
	<ellipse class="st10" cx="50.2" cy="76.46" rx="11.99" ry="9.72"/>
	<ellipse class="st10" cx="102.74" cy="76.01" rx="11.99" ry="9.72"/>
	<path class="st5" d="M65.52,76.97c-0.83-0.95-0.08-2.46,1.13-2.99c1.21-0.53,2.65-0.35,3.97-0.1c1.32,0.26,2.68,0.58,4,0.32
		c2.46-0.49,4.08-2.88,6.58-3.17c2.38-0.28,4.6,1.73,4.7,3.87c0.1,2.14-1.53,4.13-3.65,5.14c-2.12,1-4.63,1.15-7.02,0.92
		C71.52,80.6,67.73,79.51,65.52,76.97z"/>
	<path class="st16" d="M39.4,53.66c0.91-2.21,3.93-3.25,6.17-4.71c4.03-2.61,5.78-6.83,8.11-10.57c2.34-3.74,6.2-7.51,11.36-7.59
		c-1.43,2.46-2.88,4.97-3.19,7.68c-0.31,2.7,0.75,5.68,3.49,7.24c3.12,1.79,7.34,1.3,11.11,0.82c5.33-0.67,10.79-1.16,16.11-0.41
		s10.54,2.88,13.56,6.51c0.39-0.8,0.77-1.6,1.16-2.4c4.9,3.47,7.8,8.73,7.72,14.02c0.73-2.44,1.6-4.94,3.5-6.92
		c1.9-1.98,5.1-3.35,8.1-2.75s5.11,3.68,3.49,5.82c5.24-4.35,5.55-11.17,4.88-17.23c-0.37-3.31-1-6.76-3.37-9.47
		c-2.37-2.71-4.47-3.72-7.67-4.53c-0.71-8.46-5.39-12.41-11.73-16.94c-5.26-3.77-12.16-5.66-19.02-6.86
		C82.63,3.53,71.54,3.15,61.01,5.2S40.57,11.86,33.9,18.78s-9.8,16.23-7.33,24.79c2.08,7.19,7.74,13.29,13.27,19.16
		C39.09,59.38,38.52,55.82,39.4,53.66z"/>
	<path class="st17" d="M49.14,93.45c16.54,3.89,34.37,3.29,50.54-1.69c1.58-0.49,3.37-1.01,4.86-0.34c0.82,0.37,1.41,1.05,1.95,1.72
		c2.06,2.53,3.93,5.19,5.58,7.94c1.67,2.77,3.12,5.64,4.35,8.58c1.24,2.95,2.26,5.96,3.05,9.02c0.79,3.06,1.36,6.17,1.7,9.3
		c0.34,3.13,0.44,6.28,0.3,9.42c-0.1,2.37-0.4,4.73-0.71,7.08c-0.01,0.09-0.03,0.19-0.08,0.27c-0.07,0.1-0.2,0.16-0.32,0.22
		c-3.37,1.51-6.75,3.01-10.31,4.15c-3.58,1.15-7.26,2.04-11,2.7c-3.74,0.67-7.54,1.1-11.35,1.32c-2.13,0.13-4.27,0.19-6.4,0.18
		c-13.67-0.02-27.22-2.52-40.3-6.09c-1.55-0.42-3.14-0.88-4.39-1.8c-3.25-2.4-3.03-6.85-2.33-10.56
		C36.96,120.67,42.37,106.88,49.14,93.45z"/>
	<path class="st17" d="M43.66,147.83c0.05-12.52,2.63-25.03,7.57-36.75"/>
	<path class="st17" d="M108.25,149.25c1.95-12.62,1.24-25.56-2.07-37.95"/>
	<path class="st18" d="M61.82,95.96c9.13,0.83,18.4,0.44,27.46-1.24c-1.9,4.7-6.36,8.51-11.68,10.07
		C71.45,103.31,65.78,100.29,61.82,95.96z"/>
	<path class="st19" d="M59.98,95.6c-0.99,2.7-1.98,5.4-2.98,8.1c2.76,0.46,5.53,0.92,8.29,1.38c0.47,2.55,0.94,5.11,1.41,7.66
		c3.84-2.13,7.36-4.72,10.77-7.69c2.88,2.98,6.53,5.35,10.59,6.88c0.25,0.09,0.57,0.18,0.77,0.02c0.16-0.12,0.17-0.33,0.17-0.52
		c0.01-2.69-0.34-5.38-1.05-7.99c2.32,0.13,4.65-0.06,6.9-0.57c-0.74-3.12-2.32-6.08-4.57-8.57"/>
	<path class="st22" d="M77.24,105.43c-2.34,1.89-4.69,3.78-7.03,5.67c1.11,1.14,1.46,2.78,2.7,3.81c1.35,1.12,3.37,1.24,5.21,1.3
		c0.98,0.03,2.03,0.04,2.84-0.45c0.72-0.44,1.1-1.19,1.44-1.91c0.39-0.82,0.79-1.65,1.18-2.47c0.14-0.3,0.29-0.62,0.24-0.94
		c-0.07-0.43-0.46-0.74-0.83-1.02C81.14,108.01,79.3,106.6,77.24,105.43z"/>
	<path class="st22" d="M73.35,115.62c-1.18,3.18-2,6.48-2.29,9.82c-0.15,1.66-0.14,3.4,0.7,4.88c0.77,1.35,2.24,2.37,3.9,2.7
		c1.66,0.33,3.48-0.02,4.82-0.95c2.52-1.73,3.03-4.98,2.55-7.78s-1.73-5.49-1.94-8.32C78.53,116.62,75.71,116.47,73.35,115.62z"/>
	<path class="st19" d="M75.73,133.49c-0.64,6.44-0.68,12.93-0.13,19.38"/>
</g>
<g class="st0">
	<path class="st23" d="M90,86.49c10.57,1.12,19.98,0.86,30.71-0.8c1.71-0.26,3.45-1,5.09-0.45c1.78,0.59,2.82,2.27,3.66,3.85
		c5.7,10.65,9.11,22.35,9.98,34.2c0.16,2.23,0.21,4.6-0.94,6.55c-1.38,2.34-4.16,3.61-6.84,4.57c-14.89,5.35-31.89,5.49-46.99,0.49
		c-3.01-1-6.12-2.32-7.88-4.81c-1.81-2.56-1.83-5.83-1.72-8.88c0.2-5.6,0.61-11.22,1.97-16.66c1.36-5.45,3.7-10.75,7.46-15.1
		c0.85-0.98,1.82-1.92,3.03-2.47C89.14,86.22,90.32,86.4,90,86.49z"/>
	<path class="st18" d="M90.2,86.87c9.09,1.11,18.33,0.85,27.17-0.86c1.19,3.19-0.65,6.92-3.46,8.76c-2.81,1.83-6.31,2.15-9.65,2.03
		c-3.14-0.11-6.35-0.58-9.11-2.12s-5.01-4.33-5.23-7.54C89.92,87.1,89.93,87.06,90.2,86.87z"/>
	<path class="st1" d="M136.15,56.31c0.46-1.67,2.35-2.81,4.18-2.7c1.83,0.11,3.49,1.32,4.29,2.88c0.8,1.56,0.81,3.41,0.28,5.07
		c-0.53,1.65-1.58,3.12-2.8,4.41c-1.22,1.28-2.76,2.47-4.59,2.57c0.29,6.07-3.38,11.18-8.2,14.12c-4.82,2.94-10.62,4.06-16.32,4.77
		c-11.28,1.41-23.25,1.32-33.47-3.46c-3.72-1.74-7.47-4.61-7.76-8.51c-0.25-3.37,2.13-6.31,3.39-9.46
		c2.45-6.12,0.64-13.02,1.68-19.49c1.79-11.11,13.12-20.08,25.54-19.98C113.86,36.14,125.05,46.06,136.15,56.31z"/>
	<path class="st4" d="M116.89,56.64c2.36,0.59,4.03,3.24,3.58,5.68c-0.45,2.44-2.96,4.27-5.37,3.92c-2.4-0.35-4.32-2.83-4.09-5.3
		S113.64,55.83,116.89,56.64z"/>
	<path class="st4" d="M91.55,55.94c2.36,0.59,4.03,3.24,3.58,5.68c-0.45,2.44-2.96,4.27-5.37,3.92c-2.4-0.35-4.32-2.83-4.09-5.3
		C85.89,57.77,88.3,55.14,91.55,55.94z"/>
	<path class="st6" d="M111.14,49.7c4.62-0.65,9.45,0.45,13.36,3.05"/>
	<path class="st6" d="M94.04,49.23c-4.53-1.43-9.81,0.08-12.94,3.72"/>
	<ellipse transform="matrix(0.9993 -0.037 0.037 0.9993 -2.1194 4.3556)" class="st7" cx="116.77" cy="59.51" rx="1.62" ry="1.65"/>
	<ellipse transform="matrix(0.9993 -0.037 0.037 0.9993 -2.1112 3.4432)" class="st7" cx="92.09" cy="58.83" rx="1.62" ry="1.65"/>
	
		<ellipse transform="matrix(0.0455 -0.999 0.999 0.0455 7.5566 153.6518)" class="st10" cx="84.18" cy="72.87" rx="8.45" ry="9.09"/>
	
		<ellipse transform="matrix(0.0455 -0.999 0.999 0.0455 44.8626 194.0883)" class="st10" cx="123.99" cy="73.57" rx="8.45" ry="9.09"/>
	<path class="st5" d="M100.83,72.44c-0.86-1.29-1.77-2.63-3.1-3.4c-1.33-0.78-3.2-0.81-4.23,0.35c-0.73,0.83-0.86,2.04-0.74,3.15
		c0.43,4.09,4.13,7.55,8.15,7.63s7.83-3.25,8.38-7.33c0.17-1.25,0.05-2.59-0.64-3.64c-0.69-1.05-2.03-1.7-3.2-1.3
		C103.34,68.61,102.87,72.06,100.83,72.44z"/>
	<path class="st24" d="M76.33,61.59c0.16-6.33,0.31-9.91,2.77-14.18s7.52-7.59,12.95-7.3c0.3-1.19,0.61-2.38,0.91-3.58
		c0.59-0.86,2.2-0.32,2.78,0.55c0.59,0.87,0.75,1.98,1.58,2.68c1.14,0.96,2.96,0.72,4.49,0.41c0.21-1.26,0.42-2.52,0.63-3.78
		c2.62-0.36,5.08,2.4,4.08,4.56c7.25-0.05,13.33,4.66,18.63,9.08c2,1.67,4.02,3.36,5.74,5.26c2.15,2.37,3.84,5.07,4.97,7.93
		c-0.43-1.69-0.4-3.51,0.45-5.06c0.85-1.55,2.62-2.74,4.57-2.78c1.95-0.03,3.92,1.31,4.09,3.03c4.56-2.88,6.67-8.19,6.16-13.16
		c-0.51-4.97-3.35-9.59-7.03-13.39c-3.68-3.8-8.2-6.89-12.67-9.95c-6.45-4.4-13.44-8.99-21.54-9.41
		c-6.51-0.33-12.77,2.13-18.27,5.18c-6.23,3.45-11.92,7.77-16.17,13.08c-4.25,5.31-7.02,11.64-7.24,18.17
		c-0.09,2.74,0.28,5.56,1.65,8.03C71.22,59.46,72.97,61.65,76.33,61.59z"/>
	<path class="st19" d="M82.2,133.91c-2.32-10.13-1.17-20.9,3.31-30.9"/>
	<path class="st19" d="M122.01,100.14c5.79,10.75,8.99,22.57,9.31,34.44"/>
</g>
<g class="st0">
	<g class="st4">
		<path class="st25" d="M77.58,120.05c-11.49,0.54-21.29-0.59-31.34-4.26C35.51,111.87,26.76,105.16,21.82,96
			c-5.29-9.79-2.92-19.73,5.47-25.41c0.96-8.75,2-17.16,6.49-25.35c-3.11-7.93-4.37-15.77-4.01-23.57c0.16-3.51,1.06-7.6,4.31-9.11
			c2.29-1.07,5.01-0.43,7.31,0.57c5.91,2.56,10.71,7.43,13.13,13.31c14.67-6.78,31.57-7.39,46.72-2.73
			c4.59-5.29,10.42-9.53,16.9-12.29c2.43-1.03,5.61-1.72,7.38,0.16c1.06,1.12,1.21,2.79,1.24,4.33c0.17,7.6-1.14,15.25-3.85,23.09
			c5.18,9.88,4.92,19.92,5.37,31.53c6.88,2.07,8.71,12,6.71,18.6c-3.48,11.42-13.3,20.56-24.53,25.11
			C98.72,118.99,87.42,119.59,77.58,120.05z"/>
		<path class="st26" d="M91.63,57.5c-1.33-0.19-1.94-1.93-1.44-3.16c0.51-1.23,1.73-2.01,2.94-2.59c2.74-1.31,5.77-2.03,8.82-2.08
			c1.7-0.03,3.68,0.32,4.49,1.8c0.84,1.53-0.06,3.48-1.37,4.62c-1.77,1.54-4.21,2.17-6.57,2.19C96.14,58.32,93.81,57.82,91.63,57.5z
			"/>
		<path class="st26" d="M64,55.04c-2.54-2.69-6.59-3.28-10.3-3.26c-1.52,0.01-3.1,0.11-4.44,0.82c-1.34,0.71-2.38,2.18-2.14,3.66
			c0.29,1.75,2.12,2.79,3.81,3.37c2.21,0.77,4.55,1.2,6.89,1.29c1.83,0.06,3.81-0.14,5.2-1.32C64.42,58.41,64.84,55.92,64,55.04z"/>
		<path class="st26" d="M20.64,79.25c0.44-1.22,1-2.39,1.69-3.49c1.4-2.26,3.33-3.97,5.69-5.16c0.93-0.47,1.91-0.85,2.92-1.12
			c4.81-1.3,10-0.45,14.58,1.43s8.67,4.72,12.72,7.54c4.62-4.1,10.79-6.46,16.97-6.5c6.19-0.05,12.35,2.22,16.96,6.24
			c7.58-5.15,16.52-8.32,25.66-9.1c3.54-0.3,7.26-0.21,10.4,1.39c3.78,1.94,6.21,5.93,6.86,10.09c0.65,4.16-0.32,8.46-2.05,12.33
			c-4.17,9.33-12.65,16.38-22.11,20.51s-19.88,5.6-30.19,6.08c-10.33,0.49-20.81,0.01-30.68-2.9c-9.87-2.92-19.15-8.44-25.2-16.64
			c-2.49-3.38-4.43-7.24-5.11-11.38C19.23,85.46,19.56,82.22,20.64,79.25z"/>
		<path class="st27" d="M89.31,64.78c4.92-3.09,10.79-4.68,16.62-4.5c-5.56,0.81-11,2.5-16.02,5c4.72-2.88,10.46-3.62,16.01-3.64
			c-5.76,0.58-11.41,2.16-16.62,4.65c5.68-2.11,11.75-3.14,17.81-3.04"/>
		<path class="st27" d="M64.36,66.14c-5.1-2.81-11.06-4.05-16.87-3.54c5.6,0.49,11.13,1.87,16.3,4.07
			c-4.89-2.61-10.67-3.01-16.2-2.72c5.78,0.25,11.52,1.51,16.87,3.69c-5.79-1.78-11.92-2.47-17.97-2.02"/>
		<path d="M156.98,54.14"/>
		<path d="M77.69,75.8c-2.28-0.44-4.67-0.88-6.91-0.24c-2.23,0.64-4.23,2.74-3.91,5.03c0.21,1.5,1.32,2.71,2.38,3.81
			c1.17,1.21,2.42,2.47,4.04,2.93c1.39,0.39,2.91,0.13,4.24-0.44c1.33-0.57,2.51-1.43,3.67-2.29c1.52-1.12,3.19-2.51,3.22-4.39
			c0.02-1.62-1.28-3.04-2.79-3.67S78.44,75.94,77.69,75.8z"/>
		<path class="st28" d="M58.23,85.06c-3.02,1.05-3.79,5.43-1.87,7.97s5.55,3.31,8.69,2.69c3.14-0.62,5.91-2.37,8.6-4.09
			c1.27,1.99,3.51,3.23,5.83,3.73c2.32,0.5,4.73,0.33,7.09,0.02c3.05-0.41,6.3-1.2,8.29-3.53s1.82-6.6-1.01-7.83"/>
		<path class="st29" d="M64.68,96.49c2.64-0.15,5.2-1.28,7.08-3.11c0.4-0.39,0.84-0.84,1.4-0.81c0.52,0.03,0.91,0.46,1.27,0.84
			c2.27,2.35,5.86,3.34,9.02,2.48c-0.69,4.35-0.36,9.13-2.9,12.74c-1.26,1.79-3.19,3.12-5.34,3.63c-2.15,0.51-4.49,0.18-6.39-0.94
			c-2.38-1.4-3.94-3.92-4.57-6.59C63.63,102.06,63.86,99.26,64.68,96.49z"/>
		<path class="st30" d="M111.97,71.97c5.54-1.36,11.82,1.15,14.87,5.94c3.05,4.79,2.63,11.5-0.99,15.87
			c-3.62,4.37-10.17,6.08-15.5,4.03c-5.33-2.04-9.03-7.68-8.76-13.33C101.88,78.83,106.06,73.42,111.97,71.97z"/>
		<path class="st30" d="M35.38,71.03c5.54-1.36,11.82,1.15,14.87,5.94c3.05,4.79,2.63,11.5-0.99,15.87
			c-3.62,4.37-10.17,6.08-15.5,4.03s-9.03-7.68-8.76-13.33S29.47,72.48,35.38,71.03z"/>
	</g>
	<path class="st31" d="M48.76,117.23c19.72,6.6,41.31,4.41,60.91-2.15c2.03,0.92,2.76,5.97,1.64,7.82
		c-1.12,1.85-3.22,2.91-5.25,3.79c-17.07,7.43-36.95,8.8-55.04,3.72c-18.09-5.08-34.22-16.57-44.51-31.81
		c4.93,3.14,11.24,3.28,16.69,5.44C32.21,107.63,39.12,114.01,48.76,117.23z"/>
	<path class="st32" d="M125.28,142.22c0.02-0.18-0.04-0.35-0.11-0.51c-3.5-8.89-7.78-17.52-14-24.8c-0.12-0.14-0.24-0.29-0.37-0.41
		c0.54,0.9,0.34,2.22,0.08,3.19c-0.31,1.16-0.94,2.24-1.75,3.11c-1.62,1.73-3.87,2.79-6.11,3.71c-19.47,8.03-42.28,8.49-62.3,0.78
		c-4.01,4.34-6.84,9.67-8.17,15.51c26.53,5.57,53.94,7.07,80.88,4.42c4.09-0.4,8.61-1.29,11.54-4.48
		C125.11,142.6,125.24,142.43,125.28,142.22z"/>
</g>
<g class="st0">
	<g class="st4">
		<polygon class="st33" points="61.45,107.33 86.62,42.04 149.5,68.18 124.32,133.47 		"/>
		<polygon class="st34" points="72.08,96.78 90.06,50.15 141.62,71.59 123.65,118.22 		"/>
		<path class="st35" d="M79.15,79.02c3.55-2.41,7.33-4.45,11.26-6.07c0.93-0.38,1.94-0.75,2.9-0.47c1.08,0.31,1.8,1.34,2.41,2.31
			c3.49,5.48,6.63,11.21,9.27,17.06c2.08,0.2,4.13-0.54,6.16-1.06c2.03-0.52,4.3-0.78,6.12,0.3c1.66,0.98,2.59,2.87,3.43,4.65
			c2.11,4.47,4.22,8.94,6.14,13.49c-0.01,0.02-0.03,0.03-0.04,0.05"/>
		<path class="st35" d="M126.87,109.31c-0.89,2.98-1.96,5.9-3.43,8.8c-17.07-7.13-34.14-14.26-51.35-21.46
			c2.33-5.93,4.67-11.86,7.03-17.81c0.14-0.03,0.28-0.06,0.41-0.08"/>
		<path class="st33" d="M114.55,75.21c-1.62,0.9-3.9,0.12-4.69-1.61c-0.79-1.72,0.05-4.05,1.75-4.8c1.69-0.75,3.89,0.23,4.54,2.02
			c0.4-2.37,2.85-4.15,5.13-3.72c2.28,0.43,3.97,3,3.53,5.36c1.33-0.22,2.74-0.05,3.91,0.64c1.17,0.7,2.05,1.95,2.18,3.34
			c0.13,1.39-0.59,2.87-1.81,3.46c-1.22,0.59-2.86,0.13-3.51-1.1c-0.51,2.25-2.99,3.8-5.14,3.21c-2.15-0.6-3.57-3.22-2.93-5.43
			c-0.52-0.1-1.04,0.09-1.55,0.21c-0.51,0.12-1.1,0.17-1.52-0.15C114.02,76.3,113.96,75.49,114.55,75.21z"/>
		<path class="st33" d="M96.29,66.15c0.3-1.1-0.28-2.41-1.31-2.8s-2.34,0.33-2.54,1.45c-0.2,1.12,0.89,2.3,1.97,2.06
			c-0.82,0.45-1.07,1.68-0.59,2.51c0.48,0.83,1.53,1.19,2.43,0.98c0.91-0.21,1.66-0.93,2.09-1.78c0.4,1.68,2.1,2.92,3.76,2.74
			c1.66-0.18,3.07-1.76,3.12-3.5c0.05-1.73-1.26-3.4-2.91-3.69c-1.65-0.29-3.42,0.84-3.91,2.49c-0.16-0.53-0.4-1.1-0.89-1.31
			C97.01,65.09,96.3,65.57,96.29,66.15z"/>
	</g>
	
		<linearGradient id="SVGID_1_" gradientUnits="userSpaceOnUse" x1="81.4471" y1="-57.5319" x2="160.2065" y2="-57.5319" gradientTransform="matrix(0.9766 -0.2152 0.2152 0.9766 -60.543 149.3471)">
		<stop  offset="0" style="stop-color:#000000"/>
		<stop  offset="1" style="stop-color:#000000"/>
	</linearGradient>
	<path class="st36" d="M9.08,86.8L4.46,65.05c-1.85-8.74,3.46-17.38,11.88-19.31l46.14-10.56c8.41-1.93,16.74,3.6,18.59,12.33
		l4.62,21.75c1.85,8.74-3.46,17.38-11.88,19.31L27.67,99.14C19.26,101.06,10.93,95.54,9.08,86.8z"/>
	
		<ellipse transform="matrix(0.9548 -0.2974 0.2974 0.9548 -18.6211 16.7022)" class="st17" cx="45.58" cy="69.55" rx="21.1" ry="19.21"/>
	<path class="st17" d="M9.24,56.88L9.22,56.8c-0.53-2.51,1-4.99,3.41-5.55l6.44-1.47c2.42-0.55,4.81,1.03,5.34,3.54l0.02,0.08
		c0.53,2.51-1,4.99-3.41,5.55l-6.44,1.47C12.16,60.97,9.77,59.39,9.24,56.88z"/>
	
		<ellipse transform="matrix(0.9603 -0.279 0.279 0.9603 -17.594 15.4786)" class="st37" cx="45.58" cy="69.55" rx="17.78" ry="15.75"/>
	
		<ellipse transform="matrix(0.9627 -0.2706 0.2706 0.9627 -17.1166 14.9257)" class="st38" cx="45.58" cy="69.55" rx="12.73" ry="11.1"/>
	<path class="st21" d="M51.64,36.45l-0.86-4.07c-0.14-0.64,0.26-1.28,0.87-1.42l7.98-1.83c0.62-0.14,1.23,0.26,1.37,0.91l0.86,4.07
		c0.14,0.64-0.26,1.28-0.87,1.42L53,37.36C52.38,37.5,51.77,37.09,51.64,36.45z"/>
</g>
<g class="st0">
	<path class="st39" d="M33.05,74.69"/>
	<path class="st40" d="M106.14,92.34c-10.2-2.62-18.58-10.71-22.55-20.45c-3.96-9.74-3.73-20.91-0.4-30.88
		c3.33-9.97,9.62-18.8,17.21-26.09c5.8-5.57,13.43-10.58,21.35-9.18c5.01,0.89,9.29,4.28,12.29,8.37s4.89,8.88,6.69,13.63
		c3.26,8.62,6.36,17.43,7.06,26.62c0.7,9.18-1.24,18.9-7.13,26C132.35,90.39,117.79,95.33,106.14,92.34z"/>
	<path class="st41" d="M102.65,59.56c-0.99-4.19-1.7-5.31-0.04-6.66c1.66-1.35,4.02-0.31,5.28,1.61c1.26,1.92,1.7,4.46,2.1,6.9
		c0.59,3.58,1.17,7.15,1.76,10.73c0.32,1.93,0.83,4.16,2.31,4.84c3.46,1.59,5.66-7.2,9.22-6.03c1.59,0.52,2.33,2.98,2.03,5.01
		c-0.3,2.03-1.34,3.74-2.26,5.45c-5.24,9.79-7.19,21.94-6.83,33.73c0.35,11.79,2.87,23.31,5.93,34.46
		c-6.56,0.23-13.12,0.46-19.69,0.69c6.44-13.95,8.16-30.7,7.16-46.77C108.63,87.46,104.54,72.78,102.65,59.56z"/>
	<path class="st42" d="M89.55,128.7c0.71-2.4,1.44-4.85,1.39-7.35c-0.04-2.5-0.97-5.12-2.99-6.61c-1.98-1.47-4.62-1.63-7.09-1.72
		c-8.87-0.33-17.81-0.51-26.55,0.98c-3.23,0.55-6.7,1.51-8.62,4.15c-1.35,1.86-1.68,4.3-1.39,6.58c0.29,2.28,1.14,4.44,2.21,6.95
		C60.84,130.61,75.19,129.54,89.55,128.7z"/>
	<path class="st42" d="M92.51,141c-14.79,2.71-29.9,3.69-44.91,2.9c-1.67-0.09-3.5-0.26-4.69-1.42c-1.49-1.44-1.4-3.95-0.37-5.74
		c1.03-1.79,2.78-3.04,4.71-4.65c14.12-1.87,28.34-2.89,42.75-2.77c1.45,0.67,2.91,1.34,4.18,2.3c1.27,0.96,2.35,2.26,2.76,3.79
		c0.41,1.53,0.05,3.32-1.14,4.38C94.75,140.72,93.28,140.86,92.51,141z"/>
	<path class="st42" d="M47.93,143.97c-0.02,1.79,0.12,3.58,0.44,5.35c0.1,0.54,0.22,1.11,0.61,1.51c0.51,0.52,1.31,0.59,2.04,0.6
		c0.45,0,0.94-0.03,1.26-0.34c0.33-0.32,0.37-0.83,0.39-1.3c0.06-1.87,0.13-3.75,0.19-5.62C51.22,144.1,49.58,144.04,47.93,143.97z"
		/>
	<path class="st42" d="M91.11,141.37c0.26,2.35,0.36,4.72,0.28,7.07c-0.02,0.72-0.07,1.48-0.4,2.04c-0.44,0.74-1.23,0.91-1.95,0.99
		c-0.44,0.05-0.94,0.06-1.3-0.32c-0.38-0.39-0.48-1.06-0.56-1.66c-0.31-2.45-0.63-4.91-0.94-7.36
		C87.86,141.88,89.48,141.62,91.11,141.37z"/>
	<path class="st43" d="M39.37,151.06c-0.21-0.01-0.41-0.01-0.61-0.02c-3.86-0.08-7.73-0.03-11.59,0.07c-4.04,0.1-8.08,0.2-12.12,0.3
		c-1.97,0.05-4.06,0.06-5.72-1c-2.3-1.47-2.98-4.56-2.78-7.28c0.14-1.9,0.71-3.93,2.23-5.09s4.17-0.86,4.85,0.93
		c-0.77-2.81-1.55-5.74-1.02-8.61c0.53-2.87,2.77-5.64,5.69-5.77c2.1-0.09,4.07,1.21,5.3,2.91s1.84,3.76,2.35,5.79
		c-0.09-3.84,3.96-7.21,7.73-6.41s6.12,5.5,4.48,8.98c1.96-2.27,6.02-2.19,7.89,0.16c1.87,2.35,1.02,6.32-1.64,7.71
		c2.05-0.72,4.2,1.71,3.74,3.84C47.35,151.43,42.67,151.16,39.37,151.06z"/>
	<path class="st43" d="M97.34,151.13c-0.15-0.03-0.31-0.06-0.46-0.1c-3.29-0.82-4.72-3.56-5.3-6.56c-0.31-1.58-0.21-3.28,0.58-4.68
		c0.79-1.4,2.36-2.41,3.96-2.25c1.6,0.16,3.03,1.68,2.82,3.28c0.44-1.9,0.92-3.86,2.08-5.43s3.23-2.64,5.1-2.06
		c1.57,0.49,2.63,2.03,3,3.63c0.38,1.6,0.19,3.27,0,4.9c0.77-0.78,2.08-0.87,3.05-0.37s1.64,1.49,1.93,2.55
		c0.47,1.71,0.02,3.65-1.16,4.98c-2.76,3.1-7.22,2.07-10.91,2.27C100.47,151.36,98.87,151.43,97.34,151.13z"/>
	<g class="st4">
		<path class="st44" d="M111.83,46.91c-0.71-2.52-2.23-4.8-4.29-6.42s-4.63-2.57-7.25-2.68c-0.89,2.98,0.21,6.45,2.65,8.37
			C105.38,48.1,109.02,48.36,111.83,46.91z"/>
		<path class="st44" d="M101.37,39.12c1.73,3.49,4.94,6.22,8.66,7.36"/>
	</g>
	<path class="st45" d="M123.55,27.88c-2.41,1.05-3.96,3.54-4.51,6.1c-0.55,2.57-0.26,5.23,0.14,7.83c2.74-1.06,4.95-3.43,5.8-6.24
		C125.83,32.77,125.31,29.58,123.55,27.88z"/>
	<path class="st43" d="M155,10.26"/>
	<path class="st43" d="M123.35,28.72c-0.71,4.08-1.78,8.09-3.19,11.99"/>
	<path class="st45" d="M119.54,58.99c-0.66-2.03-0.09-4.35,1.23-6.03c1.32-1.68,3.3-2.76,5.38-3.25c2.08-0.49,4.26-0.43,6.37-0.14
		c-0.66,2.87-2.39,5.47-4.78,7.19C125.34,58.48,122.32,59.28,119.54,58.99z"/>
	<path class="st46" d="M120.29,57.32c2.18-3.74,6.19-6.35,10.49-6.84"/>
	<path class="st47" d="M23.78,138.9c0.62,0.09,1.27-0.39,1.37-1.01c0.1-0.62-0.36-1.28-0.97-1.4c-0.62-0.12-1.29,0.32-1.43,0.94
		C22.62,138.04,23.03,138.79,23.78,138.9z"/>
	<path class="st47" d="M34.1,145.71c0.85,0.13,1.74-0.51,1.89-1.36c0.14-0.85-0.49-1.75-1.33-1.9s-1.76,0.46-1.93,1.3
		C32.56,144.59,33.16,145.56,34.1,145.71z"/>
	<path class="st47" d="M19.55,142.97c-0.66-0.15-1.13-0.88-1-1.54c0.13-0.66,0.85-1.15,1.52-1.02s1.15,0.86,1,1.52
		S20.15,143.12,19.55,142.97z"/>
	<path class="st47" d="M103.04,139.19c-0.65-0.18-1.39,0.34-1.48,1.01s0.44,1.34,1.1,1.47c0.47,0.09,0.99-0.08,1.29-0.45
		c0.31-0.37,0.38-0.92,0.16-1.34C103.88,139.45,103.36,139.28,103.04,139.19z"/>
	<path class="st47" d="M103.85,146.72c-0.31-0.15-0.73,0.06-0.82,0.4s0.17,0.71,0.51,0.76c0.34,0.05,0.69-0.22,0.74-0.56
		S104.08,146.61,103.85,146.72z"/>
	<path class="st47" d="M96.68,143.5c0.39,0.12,0.65,0.57,0.55,0.97c-0.1,0.4-0.54,0.68-0.95,0.6c-0.4-0.08-0.7-0.51-0.64-0.91
		C95.7,143.75,96.13,143.33,96.68,143.5z"/>
	<path class="st48" d="M108.75,96.78c-32,7.82-66.15,2.5-96.8-9.57c0.91,3.45,1.83,6.89,2.74,10.34c0.23,0.86,0.52,1.8,1.28,2.26
		c0.95,0.57,2.17,0.12,3.18-0.34c3.62-1.64,7.25-3.28,10.36-4.84c1.34,4.46,3.07,8.81,5.18,12.96c5.03-2.46,10.06-4.92,15.09-7.38
		c1.19,3.69,3.34,7.08,6.17,9.74c3.52-2.69,7.04-5.38,10.56-8.07c2.36,2.79,4.73,5.58,7.09,8.37c2.47-2.44,4.67-5.14,6.56-8.06
		c1.22,3.99,3.85,7.53,7.31,9.87c4.56-2.59,8.59-6.11,11.76-10.29c2.6,2.42,5.2,4.84,7.79,7.26
		C107.37,104.87,107.73,100.71,108.75,96.78z"/>
	<path class="st49" d="M25.17,91.6C46.02,93,67.3,86.99,84.31,74.88c-0.49,3.68-0.99,7.35-1.48,11.03
		c-4.77,0.51-9.65-0.04-14.19-1.62c-1.27,3.04-2.16,6.24-2.64,9.5c-3.3-1.16-6.46-2.71-9.4-4.61c-1.03,2.51-2.05,5.02-3.08,7.53
		c-3.48-1.41-6.74-3.34-9.64-5.72"/>
</g>
<path class="st50" d="M92.15,104.58"/>
<g>
	<path class="st15" d="M33.16,46.37c-0.16,1.49,0.17,3.02,0.9,4.32"/>
	<path class="st15" d="M29.25,47.47c-0.35,1.71,0.1,3.56,1.18,4.91"/>
	<path class="st15" d="M26.36,52.01c0.59,1.08,1.38,2.05,2.32,2.84"/>
	<path class="st51" d="M64.38,58.21c6.26,0.82,12.7,0.11,18.79-2.2c9.14,10.87,15.78,23.89,19.43,37.76
		c-1.56,2.73-4.46,4.36-7.31,5.64c-11.05,4.96-23.57,6.53-35.13,4.4C59.19,88.59,60.53,73.21,64.38,58.21z"/>
	<path class="st51" d="M64.18,58.19c-4.02,3.3-8.03,6.59-12.05,9.89c-0.63,0.52-1.31,1.06-2.11,1.17c-0.9,0.13-1.81-0.32-2.47-0.96
		c-0.65-0.64-1.1-1.47-1.53-2.28c-1.83-3.43-3.67-6.87-5.5-10.3c-0.28-0.52-0.59-1.07-1.11-1.34c-0.91-0.47-1.99,0.12-2.84,0.69
		c-2.55,1.71-5.33,3.78-5.81,6.84c-0.25,1.62,0.2,3.26,0.73,4.81c1.73,5.08,4.28,9.86,7.53,14.1c0.84,1.1,1.78,2.2,3.06,2.7
		c1.62,0.63,3.43,0.16,5.09-0.35c3.49-1.08,6.94-2.32,10.32-3.72c0.87-0.36,1.77-0.76,2.38-1.49c0.64-0.78,0.85-1.83,1.04-2.82
		C61.98,69.55,63.03,63.98,64.18,58.19z"/>
	<path class="st52" d="M83.04,55.77c6.65-2.12,14.04-1.57,20.43,1.26c3.57,1.59,6.93,3.95,9,7.3c2.04,3.3,2.69,7.26,3.29,11.1
		c0.2,1.27,0.36,2.7-0.42,3.71c-0.63,0.83-1.71,1.13-2.72,1.35c-1.71,0.37-3.44,0.64-5.18,0.8c-1.03,0.1-2.18,0.12-2.94-0.58
		c-0.75-0.68-0.87-1.81-1.06-2.82c-1.04-5.56-6.19-10.05-11.6-10.55c-3.18-3.6-6.03-7.49-8.62-11.55c-0.02,0-0.04,0-0.06,0
		C83.21,55.78,83.25,55.76,83.04,55.77z"/>
	<g>
		<path class="st53" d="M50.09,21.16c0.07,5.23,0.07,10.71-2.85,15.36c-1.38,2.2-3.39,4.17-4.22,6.56
			c-1.56,4.53,1.75,9.47,6.53,12.04c4.79,2.57,10.71,3.21,16.41,3.37c5.77,0.16,11.7-0.14,16.99-2.05s9.85-5.69,11.26-11.25
			c2.56,0.6,5.55-0.07,7.22-1.78c1.67-1.71,1.77-4.39,0.08-6.08c-1.7-1.69-5.09-2.06-6.5-1.41c-3.35-7.48-9.44-14.47-18.19-17.87
			S56.48,15.62,50.09,21.16z"/>
		<path class="st54" d="M102.73,38.34c2.64-2.81,3.07-4.31,3.6-7.82s-0.42-7.23-3.11-10c-1.05-1.08-2.35-2.01-3.3-3.15
			c-0.91-1.09-1.47-2.34-2.21-3.51C93.83,7.65,85.23,3.94,76.66,3.55S59.63,5.68,52.37,9.4c-3.29,2.18-5.13,5.36-5.83,8.58
			s-0.38,6.52-0.06,9.78c0.09,0.88,0.29,1.91,1.26,2.31c0.5,0.2,1.09,0.18,1.65,0.15c2.73-0.14,5.46-0.29,8.75-0.81
			c-0.67-1.22-0.67-2.68,0.01-3.9c0.13,1.41,0.83,2.77,2.2,3.5c3.46-0.03,6.92,0.13,10.35,0.49c-0.54-1.09-0.43-2.37,0.85-3.61
			c0.37,0.68,0.34,1.46,0.46,2.2s0.44,1.54,1.24,1.91c0.52,0.24,1.16,0.26,1.76,0.29c3.53,0.15,7.02,0.92,10.54,1.98
			c2.1,2.68,3.04,5.95,3.11,8.91c2.6-1.46,5.31-2.81,6.36-5.09c1.3-0.64,2.84-0.75,4.22-0.31c1.38,0.44,2.58,1.43,3.34,2.67
			C102.59,38.4,102.62,38.38,102.73,38.34z"/>
		<path class="st55" d="M60.32,104.01c-6.77,8.73-11.21,19.28-12.73,30.27c-0.18,1.32-0.32,2.69,0.05,3.97
			c0.89,3.09,4.29,4.57,7.29,5.64c1.74,0.62,3.74,1.23,5.36,0.34c1.13-0.62,1.79-1.84,2.41-2.99c3.6-6.68,7.7-13.07,12.27-19.11
			c1.63-2.16,3.69-4.46,6.38-4.49c3.05-0.04,5.23,2.8,7.23,5.13c3.23,3.77,7.25,6.86,11.7,9.01c4.44,2.14,9.56,3.34,14.31,2.05
			c4.75-1.29,8.92-5.55,8.99-10.52c0.02-1.47-0.33-3-1.28-4.11c-0.84-0.99-2.05-1.55-3.19-2.16c-8.75-4.69-14.97-13.92-16.2-23.27
			c-11.68,9.88-28.16,13.66-42.99,10.15C59.96,103.92,60,103.92,60.32,104.01z"/>
		<path class="st56" d="M123.71,123.3c3.39,0.95,6.18,3.91,7.15,7.32c0.98,3.41,0.33,7.15-1.23,10.34
			c-1.55,3.19-3.95,5.87-6.53,8.28c-2.1,1.96-4.46,3.82-7.26,4.42c-2.8,0.6-6.11-0.42-7.4-3c-1.29-2.6-0.19-5.75,1.28-8.25
			s3.35-4.9,3.48-8.04c2.74-0.39,5.33-1.76,7.21-3.81C122.29,128.53,123.45,125.82,123.71,123.3z"/>
		<path class="st56" d="M48.03,139.99c-1.46,0.7-3.1-0.3-4.53-1.07c-1.57-0.85-3.32-1.46-5.1-1.37c-1.78,0.09-3.58,0.97-4.47,2.54
			c-0.85,1.5-0.75,3.41-0.07,5c0.67,1.59,1.85,2.9,3.11,4.08c2.27,2.12,4.91,3.93,7.88,4.77s6.33,0.63,8.96-1.01
			c2.63-1.65,4.36-4.86,3.94-8.05C54.08,143.98,50.61,142.27,48.03,139.99z"/>
		<path class="st15" d="M43.55,139.42c-0.31-0.49-0.89-0.78-1.46-0.75c-0.57,0.03-1.12,0.39-1.38,0.9
			c-0.39,0.77-0.14,1.71,0.27,2.47c0.93,1.74,2.64,3.04,4.56,3.44c1.92,0.4,4-0.11,5.53-1.34c0.34-0.27,0.67-0.63,0.67-1.07
			c0-0.5-0.42-0.87-0.8-1.18c-0.86-0.69-1.74-1.39-2.8-1.67c-0.83-0.22-1.7-0.17-2.55-0.24c-0.85-0.06-1.75-0.27-2.36-0.87
			C43.23,139.12,43.24,139.13,43.55,139.42z"/>
		<path class="st15" d="M45.56,140.2c1.64,1.34,3,3.03,3.97,4.93"/>
		<path class="st15" d="M47.62,140.34c0.14,1.84-0.45,3.73-1.62,5.15"/>
		<path class="st15" d="M43.06,139.22c1.4,1.56,2.33,3.54,2.64,5.63"/>
		<path class="st15" d="M45.34,140.26c-0.81,1.37-1.93,2.55-3.26,3.41"/>
		<path class="st15" d="M118.49,132.52c-1.11,1.07-3.03,0.71-4.26,1.65c-0.58,0.45-0.93,1.14-1.26,1.81
			c-0.84,1.71-1.68,3.43-2.52,5.14c-0.19,0.4-0.39,0.82-0.35,1.26c0.05,0.54,0.47,0.98,0.96,1.19s1.04,0.22,1.57,0.17
			c3.69-0.33,6.94-3.49,7.4-7.21C120.24,134.93,119.83,133.07,118.49,132.52z"/>
		<path class="st15" d="M112.06,138.65c1.71-2.34,4.62-3.72,7.49-3.58"/>
		<path class="st15" d="M113.18,135.4c2.36,0.47,4.55,1.75,5.53,3.92c-2.86,0.06-5.7,0.81-8.22,2.19c0.06-0.05,0.12-0.1,0.19-0.14"
			/>
		<path class="st15" d="M111.98,138.99c1.82,0.66,3.45,1.83,4.65,3.35"/>
		<path class="st53" d="M114.81,79.84c2.16,2.07,2.45,5.82,0.64,8.21c-1.81,2.38-5.47,3.06-8,1.49s-3.57-5.19-2.34-7.92
			c3.31,0.41,6.73-0.19,9.69-1.74C114.81,79.89,114.81,79.89,114.81,79.84z"/>
		<path class="st15" d="M108.52,89.82c0.18-1.06,0.24-2.14,0.18-3.22"/>
		<path class="st15" d="M112.06,89.72c0.16-1.18,0.04-2.4-0.35-3.52"/>
		<path class="st15" d="M115.54,87.3c-0.43-0.79-0.86-1.58-1.29-2.36"/>
		<path class="st53" d="M38.05,53.68c1.08-2.42-0.15-5.52-2.45-6.79c-2.3-1.27-5.33-0.76-7.34,0.94c-1.95,1.66-2.97,4.43-2.39,6.95
			s2.81,4.59,5.33,4.85c1.44-2.17,3.7-3.62,5.89-5C37.46,54.4,37.83,54.18,38.05,53.68z"/>
		<path class="st15" d="M33.16,46.37c-0.16,1.49,0.17,3.02,0.9,4.32"/>
		<path class="st15" d="M29.25,47.47c-0.35,1.71,0.1,3.56,1.18,4.91"/>
		<path class="st15" d="M26.36,52.01c0.59,1.08,1.38,2.05,2.32,2.84"/>
	</g>
	<path class="st54" d="M102.73,38.34c2.64-2.81,3.07-4.31,3.6-7.82s-0.42-7.23-3.11-10c-1.05-1.08-2.35-2.01-3.3-3.15
		c-0.91-1.09-1.47-2.34-2.21-3.51C93.83,7.65,85.23,3.94,76.66,3.55S59.63,5.68,52.37,9.4c-3.29,2.18-5.13,5.36-5.83,8.58
		s-0.38,6.52-0.06,9.78c0.09,0.88,0.29,1.91,1.26,2.31c0.5,0.2,1.09,0.18,1.65,0.15c2.73-0.14,5.46-0.29,8.75-0.81
		c-0.67-1.22-0.67-2.68,0.01-3.9c0.13,1.41,0.83,2.77,2.2,3.5c3.46-0.03,6.92,0.13,10.35,0.49c-0.54-1.09-0.43-2.37,0.85-3.61
		c0.37,0.68,0.34,1.46,0.46,2.2s0.44,1.54,1.24,1.91c0.52,0.24,1.16,0.26,1.76,0.29c3.53,0.15,7.02,0.92,10.54,1.98
		c2.1,2.68,3.04,5.95,3.11,8.91c2.6-1.46,5.31-2.81,6.36-5.09c1.3-0.64,2.84-0.75,4.22-0.31c1.38,0.44,2.58,1.43,3.34,2.67
		C102.59,38.4,102.62,38.38,102.73,38.34z"/>
	<path class="st57" d="M60.32,104.01c-6.77,8.73-11.21,19.28-12.73,30.27c-0.18,1.32-0.32,2.69,0.05,3.97
		c0.89,3.09,4.29,4.57,7.29,5.64c1.74,0.62,3.74,1.23,5.36,0.34c1.13-0.62,1.79-1.84,2.41-2.99c3.6-6.68,7.7-13.07,12.27-19.11
		c1.63-2.16,3.69-4.46,6.38-4.49c3.05-0.04,5.23,2.8,7.23,5.13c3.23,3.77,7.25,6.86,11.7,9.01c4.44,2.14,9.56,3.34,14.31,2.05
		c4.75-1.29,8.92-5.55,8.99-10.52c0.02-1.47-0.33-3-1.28-4.11c-0.84-0.99-2.05-1.55-3.19-2.16c-8.75-4.69-14.97-13.92-16.2-23.27
		c-11.68,9.88-28.16,13.66-42.99,10.15C59.96,103.92,60,103.92,60.32,104.01z"/>
	<path class="st58" d="M123.71,123.3c3.39,0.95,6.18,3.91,7.15,7.32c0.98,3.41,0.33,7.15-1.23,10.34c-1.55,3.19-3.95,5.87-6.53,8.28
		c-2.1,1.96-4.46,3.82-7.26,4.42c-2.8,0.6-6.11-0.42-7.4-3c-1.29-2.6-0.19-5.75,1.28-8.25s3.35-4.9,3.48-8.04
		c2.74-0.39,5.33-1.76,7.21-3.81C122.29,128.53,123.45,125.82,123.71,123.3z"/>
	<path class="st58" d="M48.03,139.99c-1.46,0.7-3.1-0.3-4.53-1.07c-1.57-0.85-3.32-1.46-5.1-1.37c-1.78,0.09-3.58,0.97-4.47,2.54
		c-0.85,1.5-0.75,3.41-0.07,5c0.67,1.59,1.85,2.9,3.11,4.08c2.27,2.12,4.91,3.93,7.88,4.77s6.33,0.63,8.96-1.01
		c2.63-1.65,4.36-4.86,3.94-8.05C54.08,143.98,50.61,142.27,48.03,139.99z"/>
	<path class="st15" d="M43.55,139.42c-0.31-0.49-0.89-0.78-1.46-0.75c-0.57,0.03-1.12,0.39-1.38,0.9c-0.39,0.77-0.14,1.71,0.27,2.47
		c0.93,1.74,2.64,3.04,4.56,3.44c1.92,0.4,4-0.11,5.53-1.34c0.34-0.27,0.67-0.63,0.67-1.07c0-0.5-0.42-0.87-0.8-1.18
		c-0.86-0.69-1.74-1.39-2.8-1.67c-0.83-0.22-1.7-0.17-2.55-0.24c-0.85-0.06-1.75-0.27-2.36-0.87
		C43.23,139.12,43.24,139.13,43.55,139.42z"/>
	<path class="st15" d="M45.56,140.2c1.64,1.34,3,3.03,3.97,4.93"/>
	<path class="st15" d="M47.62,140.34c0.14,1.84-0.45,3.73-1.62,5.15"/>
	<path class="st15" d="M43.06,139.22c1.4,1.56,2.33,3.54,2.64,5.63"/>
	<path class="st15" d="M45.34,140.26c-0.81,1.37-1.93,2.55-3.26,3.41"/>
	<path class="st15" d="M118.49,132.52c-1.11,1.07-3.03,0.71-4.26,1.65c-0.58,0.45-0.93,1.14-1.26,1.81
		c-0.84,1.71-1.68,3.43-2.52,5.14c-0.19,0.4-0.39,0.82-0.35,1.26c0.05,0.54,0.47,0.98,0.96,1.19s1.04,0.22,1.57,0.17
		c3.69-0.33,6.94-3.49,7.4-7.21C120.24,134.93,119.83,133.07,118.49,132.52z"/>
	<path class="st15" d="M112.06,138.65c1.71-2.34,4.62-3.72,7.49-3.58"/>
	<path class="st15" d="M113.18,135.4c2.36,0.47,4.55,1.75,5.53,3.92c-2.86,0.06-5.7,0.81-8.22,2.19c0.06-0.05,0.12-0.1,0.19-0.14"/>
	<path class="st15" d="M111.98,138.99c1.82,0.66,3.45,1.83,4.65,3.35"/>
	<path class="st53" d="M114.81,79.84c2.16,2.07,2.45,5.82,0.64,8.21c-1.81,2.38-5.47,3.06-8,1.49s-3.57-5.19-2.34-7.92
		c3.31,0.41,6.73-0.19,9.69-1.74C114.81,79.89,114.81,79.89,114.81,79.84z"/>
	<path class="st15" d="M108.52,89.82c0.18-1.06,0.24-2.14,0.18-3.22"/>
	<path class="st15" d="M112.06,89.72c0.16-1.18,0.04-2.4-0.35-3.52"/>
	<path class="st15" d="M115.54,87.3c-0.43-0.79-0.86-1.58-1.29-2.36"/>
	<path class="st54" d="M102.2,19.2c2.77,2.24,4.47,5.78,4.49,9.37c0.02,3.59-1.64,7.15-4.39,9.42c1,1.75,0.58,4.21-0.95,5.51
		c1.62,4.49,5.03,8.28,9.29,10.33c4.26,2.05,9.33,2.33,13.79,0.76c-4.23-1.95-8.65-4.68-10.04-9.17c-1.13-3.64,0.02-7.54,0.62-11.3
		c0.46-2.86,0.59-5.83-0.14-8.63s-2.42-5.44-4.93-6.84C107.44,17.26,104.08,17.31,102.2,19.2z"/>
	<path class="st50" d="M64.15,53.49c-0.72,0.29-1.44,0.58-2.2,0.69c-0.76,0.1-1.58-0.01-2.21-0.46c-1.07-0.77-1.29-2.37-0.81-3.61
		c0.49-1.24,1.52-2.16,2.6-2.92c1.1-0.78,2.33-1.45,3.67-1.54c1.34-0.09,2.79,0.54,3.35,1.78c0.57,1.26,0.06,2.79-0.87,3.81
		C66.75,52.24,65.51,52.94,64.15,53.49z"/>
	<path d="M55.78,35.24c1.41-0.53,3.17,0.24,3.76,1.64s-0.09,3.22-1.45,3.88c-1.36,0.66-3.18,0.05-3.89-1.3S53.87,35.95,55.78,35.24z
		"/>
	<path d="M69.95,35.24c1.41-0.53,3.17,0.24,3.76,1.64s-0.09,3.22-1.45,3.88s-3.18,0.05-3.89-1.3
		C67.66,38.11,68.04,35.95,69.95,35.24z"/>
	<path class="st26" d="M57.93,36.43c0.45,0.06,0.8,0.53,0.74,0.98c-0.05,0.45-0.5,0.82-0.95,0.78c-0.45-0.04-0.82-0.49-0.79-0.94
		S57.4,36.35,57.93,36.43z"/>
	<path class="st26" d="M71.97,36.43c0.45,0.06,0.8,0.53,0.74,0.98c-0.05,0.45-0.5,0.82-0.95,0.78c-0.45-0.04-0.82-0.49-0.79-0.94
		S71.45,36.35,71.97,36.43z"/>
	<path class="st59" d="M74.98,40.58c2.61-0.56,5.51,0.73,6.86,3.06c1.35,2.33,1.05,5.52-0.71,7.55c-1.76,2.03-4.85,2.75-7.3,1.7
		c-2.46-1.05-4.1-3.79-3.89-6.48C70.14,43.71,72.17,41.18,74.98,40.58z"/>
	<path class="st59" d="M50.11,41.14c2.61-0.56,5.51,0.73,6.86,3.06c1.35,2.33,1.05,5.52-0.71,7.55s-4.85,2.75-7.3,1.7
		c-2.46-1.05-4.1-3.79-3.89-6.48C45.27,44.28,47.3,41.75,50.11,41.14z"/>
	<path class="st15" d="M67.3,33.38c2.17-1.67,5.19-2.13,7.75-1.16"/>
	<path class="st15" d="M53.39,31.82c2.33-0.37,4.8,0.36,6.57,1.94"/>
</g>
<g class="st0">
	<g class="st4">
		<path class="st53" d="M48.91,22.7c0.07,5.1,0.07,10.43-2.97,14.96c-1.44,2.15-3.53,4.06-4.39,6.39c-1.63,4.41,1.82,9.22,6.8,11.72
			s11.15,3.13,17.09,3.29c6.01,0.16,12.18-0.13,17.69-2c5.5-1.86,10.25-5.55,11.72-10.96c2.66,0.58,5.78-0.07,7.51-1.74
			c1.74-1.66,1.85-4.27,0.08-5.92c-1.77-1.65-5.3-2.01-6.77-1.37c-3.49-7.29-9.83-14.09-18.94-17.41S55.57,17.3,48.91,22.7z"/>
		<path class="st54" d="M103.72,39.43c2.75-2.74,3.19-4.2,3.75-7.61s-0.44-7.04-3.24-9.74c-1.1-1.05-2.45-1.95-3.44-3.07
			c-0.95-1.06-1.53-2.28-2.3-3.42c-4.05-6.06-13-9.67-21.92-10.06s-17.73,2.08-25.29,5.7c-3.42,2.12-5.34,5.22-6.07,8.36
			c-0.73,3.14-0.4,6.35-0.07,9.52c0.09,0.86,0.3,1.86,1.31,2.25c0.52,0.2,1.14,0.18,1.72,0.15c2.84-0.14,5.68-0.28,9.11-0.79
			c-0.7-1.19-0.7-2.61,0.01-3.8c0.14,1.37,0.86,2.7,2.3,3.41c3.6-0.03,7.2,0.13,10.77,0.48c-0.56-1.06-0.44-2.31,0.88-3.52
			c0.38,0.67,0.36,1.42,0.48,2.14c0.12,0.72,0.46,1.5,1.29,1.86c0.55,0.24,1.2,0.25,1.83,0.28c3.67,0.15,7.3,0.9,10.97,1.93
			c2.19,2.61,3.17,5.8,3.24,8.67c2.7-1.42,5.53-2.74,6.62-4.95c1.36-0.62,2.96-0.73,4.4-0.3c1.44,0.43,2.68,1.39,3.48,2.6
			C103.58,39.49,103.6,39.47,103.72,39.43z"/>
		<path class="st60" d="M63.79,58.79c6.51,0.79,13.22,0.11,19.57-2.15c9.52,10.59,16.43,23.27,20.23,36.78
			c-1.63,2.66-4.64,4.25-7.61,5.5c-11.51,4.84-24.54,6.36-36.58,4.29C58.39,88.38,59.78,73.4,63.79,58.79z"/>
		<path class="st60" d="M63.59,58.77c-4.18,3.21-8.36,6.42-12.54,9.63c-0.66,0.51-1.36,1.03-2.2,1.14
			c-0.94,0.12-1.89-0.31-2.57-0.94s-1.14-1.43-1.59-2.22c-1.91-3.34-3.82-6.69-5.73-10.03c-0.29-0.51-0.61-1.04-1.15-1.31
			c-0.95-0.46-2.07,0.12-2.96,0.68c-2.65,1.67-5.55,3.68-6.04,6.66c-0.26,1.58,0.21,3.17,0.76,4.68c1.8,4.94,4.46,9.61,7.84,13.74
			c0.87,1.07,1.85,2.14,3.19,2.63c1.69,0.61,3.57,0.15,5.3-0.34c3.64-1.05,7.22-2.26,10.74-3.62c0.91-0.35,1.85-0.74,2.48-1.45
			c0.67-0.76,0.89-1.78,1.09-2.75C61.29,69.83,62.39,64.4,63.59,58.77z"/>
		<path class="st61" d="M83.22,56.41c6.92-2.07,14.62-1.53,21.27,1.23c3.72,1.54,7.21,3.85,9.37,7.11c2.13,3.21,2.8,7.07,3.43,10.81
			c0.21,1.23,0.37,2.63-0.43,3.62c-0.66,0.8-1.78,1.1-2.83,1.31c-1.78,0.36-3.58,0.62-5.4,0.78c-1.07,0.09-2.27,0.11-3.07-0.57
			c-0.78-0.67-0.9-1.76-1.1-2.74c-1.08-5.42-6.44-9.79-12.07-10.27c-3.31-3.51-6.28-7.3-8.97-11.25c-0.02,0-0.04,0-0.06,0
			C83.39,56.42,83.44,56.4,83.22,56.41z"/>
		<path class="st62" d="M59.57,103.4c-7.05,8.5-11.67,18.78-13.26,29.49c-0.19,1.29-0.34,2.62,0.05,3.87
			c0.93,3.01,4.46,4.45,7.59,5.5c1.81,0.61,3.89,1.2,5.58,0.33c1.18-0.61,1.87-1.79,2.51-2.91c3.75-6.5,8.02-12.73,12.78-18.61
			c1.7-2.1,3.84-4.35,6.64-4.38c3.17-0.04,5.44,2.73,7.52,5c3.37,3.68,7.54,6.68,12.18,8.78c4.63,2.08,9.95,3.25,14.9,2
			c4.95-1.25,9.28-5.4,9.36-10.25c0.02-1.43-0.34-2.92-1.33-4c-0.87-0.96-2.13-1.51-3.32-2.11c-9.11-4.57-15.58-13.56-16.87-22.67
			c-12.16,9.63-29.31,13.31-44.76,9.89C59.19,103.31,59.23,103.31,59.57,103.4z"/>
		<path class="st56" d="M125.56,122.19c3.53,0.92,6.43,3.81,7.45,7.13c1.02,3.32,0.34,6.97-1.28,10.07c-1.62,3.1-4.11,5.72-6.8,8.07
			c-2.19,1.91-4.64,3.72-7.56,4.31s-6.36-0.41-7.7-2.92c-1.34-2.53-0.2-5.6,1.33-8.03c1.53-2.43,3.49-4.78,3.62-7.83
			c2.85-0.38,5.54-1.71,7.5-3.71C124.09,127.29,125.3,124.64,125.56,122.19z"/>
		<path class="st56" d="M46.77,138.45c-1.52,0.68-3.23-0.3-4.71-1.05c-1.64-0.83-3.46-1.42-5.31-1.33
			c-1.85,0.09-3.73,0.95-4.65,2.47c-0.88,1.46-0.78,3.33-0.07,4.87c0.7,1.55,1.93,2.83,3.24,3.97c2.36,2.07,5.11,3.83,8.21,4.65
			c3.1,0.82,6.59,0.62,9.32-0.99c2.74-1.6,4.54-4.73,4.1-7.84C53.06,142.33,49.45,140.66,46.77,138.45z"/>
		<path class="st15" d="M42.1,137.89c-0.33-0.47-0.93-0.76-1.53-0.73c-0.6,0.03-1.16,0.38-1.43,0.88c-0.4,0.75-0.14,1.67,0.28,2.41
			c0.96,1.7,2.75,2.96,4.75,3.35c2,0.39,4.16-0.1,5.76-1.3c0.35-0.26,0.7-0.61,0.7-1.04c0-0.48-0.43-0.85-0.83-1.15
			c-0.89-0.67-1.82-1.35-2.91-1.63c-0.86-0.22-1.76-0.17-2.65-0.23c-0.89-0.06-1.82-0.27-2.46-0.85
			C41.77,137.6,41.79,137.61,42.1,137.89z"/>
		<path class="st15" d="M44.19,138.65c1.71,1.31,3.13,2.96,4.13,4.81"/>
		<path class="st15" d="M46.34,138.79c0.15,1.8-0.47,3.64-1.69,5.02"/>
		<path class="st15" d="M41.59,137.69c1.46,1.52,2.43,3.45,2.75,5.48"/>
		<path class="st15" d="M43.96,138.71c-0.84,1.34-2.01,2.48-3.4,3.32"/>
		<path class="st15" d="M120.13,131.17c-1.16,1.05-3.16,0.69-4.43,1.61c-0.61,0.44-0.97,1.11-1.31,1.76
			c-0.87,1.67-1.75,3.34-2.62,5.01c-0.2,0.39-0.41,0.8-0.36,1.23c0.05,0.52,0.49,0.96,1,1.16c0.51,0.2,1.08,0.21,1.64,0.17
			c3.84-0.32,7.22-3.4,7.7-7.02C121.95,133.52,121.53,131.7,120.13,131.17z"/>
		<path class="st15" d="M113.43,137.14c1.79-2.27,4.81-3.63,7.8-3.48"/>
		<path class="st15" d="M114.6,133.97c2.45,0.46,4.73,1.71,5.76,3.82c-2.98,0.06-5.94,0.79-8.56,2.13c0.06-0.05,0.13-0.09,0.19-0.14
			"/>
		<path class="st15" d="M113.35,137.47c1.89,0.64,3.59,1.78,4.85,3.26"/>
		<path class="st53" d="M116.3,79.85c2.25,2.01,2.55,5.67,0.67,7.99s-5.7,2.99-8.33,1.45c-2.63-1.54-3.72-5.06-2.43-7.72
			c3.44,0.4,7.01-0.18,10.09-1.69C116.3,79.9,116.3,79.91,116.3,79.85z"/>
		<path class="st15" d="M109.75,89.57c0.18-1.03,0.25-2.09,0.19-3.14"/>
		<path class="st15" d="M113.43,89.48c0.16-1.15,0.04-2.33-0.36-3.43"/>
		<path class="st15" d="M117.06,87.13c-0.45-0.77-0.9-1.54-1.35-2.3"/>
		<path class="st53" d="M36.38,54.38c1.12-2.35-0.16-5.38-2.55-6.61c-2.4-1.23-5.55-0.74-7.64,0.92C24.16,50.3,23.1,53,23.7,55.45
			c0.6,2.45,2.93,4.47,5.55,4.73c1.5-2.11,3.85-3.52,6.14-4.87C35.76,55.08,36.15,54.86,36.38,54.38z"/>
		<path class="st15" d="M31.29,47.25c-0.16,1.45,0.17,2.94,0.94,4.2"/>
		<path class="st15" d="M27.21,48.32c-0.36,1.66,0.1,3.47,1.23,4.79"/>
		<path class="st15" d="M24.21,52.75c0.62,1.05,1.44,1.99,2.41,2.77"/>
	</g>
	<path class="st5" d="M63.55,53.89c-1.9,0.33-4.1,0.59-5.54-0.63c-1.12-0.95-1.37-2.61-0.85-3.95c0.52-1.34,1.7-2.37,3.02-3.05
		c1.84-0.95,4.15-1.27,6.03-0.4s3.08,3.12,2.27,4.95C67.68,52.65,65.43,53.56,63.55,53.89z"/>
	<path class="st4" d="M68.6,35.96c1.47-0.52,3.3,0.23,3.92,1.6c0.61,1.37-0.09,3.14-1.51,3.78c-1.42,0.64-3.31,0.05-4.05-1.26
		C66.22,38.76,66.62,36.66,68.6,35.96z"/>
	<path class="st4" d="M53.62,34.87c1.47-0.52,3.3,0.23,3.92,1.6c0.61,1.37-0.09,3.14-1.51,3.78c-1.42,0.64-3.31,0.05-4.05-1.26
		S51.63,35.57,53.62,34.87z"/>
	<path class="st7" d="M70.86,37.28c0.46,0.06,0.83,0.51,0.77,0.95c-0.05,0.44-0.52,0.8-0.99,0.76c-0.47-0.04-0.85-0.47-0.82-0.92
		C69.85,37.63,70.31,37.21,70.86,37.28z"/>
	<path class="st7" d="M56.1,35.8c0.46,0.06,0.83,0.51,0.77,0.95c-0.05,0.44-0.52,0.8-0.99,0.76c-0.47-0.04-0.85-0.47-0.82-0.92
		S55.55,35.73,56.1,35.8z"/>
	<path class="st10" d="M74.95,41.94c2.72-0.55,5.73,0.71,7.14,2.98c1.41,2.27,1.09,5.38-0.74,7.35c-1.83,1.98-5.05,2.68-7.6,1.65
		c-2.56-1.02-4.27-3.69-4.05-6.31C69.92,45,72.03,42.53,74.95,41.94z"/>
	<path class="st10" d="M47.96,41.2c2.72-0.55,5.73,0.71,7.14,2.98c1.41,2.27,1.09,5.38-0.74,7.35c-1.83,1.98-5.05,2.68-7.6,1.65
		c-2.56-1.02-4.27-3.69-4.05-6.31C42.92,44.26,45.03,41.79,47.96,41.2z"/>
	<path class="st19" d="M66.14,34.43c2.31-1.4,5.37-1.62,7.88-0.57"/>
	<path class="st19" d="M52.38,32.5c2.51-0.21,5.1,0.64,6.92,2.28"/>
</g>
</svg>
