<?xml version="1.0" encoding="utf-8"?>
<!-- Generator: Adobe Illustrator 27.4.0, SVG Export Plug-In . SVG Version: 6.00 Build 0)  -->
<svg version="1.1" id="레이어_1" xmlns="http://www.w3.org/2000/svg" xmlns:xlink="http://www.w3.org/1999/xlink" x="0px"
	 y="0px" viewBox="0 0 153.07 158.74" style="enable-background:new 0 0 153.07 158.74;" xml:space="preserve">
<style type="text/css">
	.st0{display:none;}
	.st1{display:inline;fill:#FFEEE0;stroke:#944E19;stroke-miterlimit:10;}
	.st2{display:inline;fill:#FFFFFF;stroke:#944E19;stroke-miterlimit:10;}
	.st3{display:inline;fill:#FF7385;stroke:#944E19;stroke-miterlimit:10;}
	.st4{display:inline;}
	.st5{display:inline;fill:#FF4757;stroke:#FF4757;stroke-linecap:round;stroke-linejoin:round;stroke-miterlimit:10;}
	.st6{display:inline;fill:none;stroke:#944E19;stroke-width:3;stroke-linecap:round;stroke-miterlimit:10;}
	.st7{display:inline;fill:#FFFFFF;}
	.st8{display:inline;fill:#472000;stroke:#944E19;stroke-miterlimit:10;}
	.st9{display:inline;fill:#FFE385;stroke:#944E19;stroke-miterlimit:10;}
	.st10{display:inline;fill:#FFD6D9;}
	.st11{fill:#FFEEE0;stroke:#944E19;stroke-miterlimit:10;}
	.st12{fill:#472000;stroke:#944E19;stroke-miterlimit:10;}
	.st13{fill:#FFFFFF;stroke:#944E19;stroke-miterlimit:10;}
	.st14{fill:#FFEB85;stroke:#944E19;stroke-miterlimit:10;}
	.st15{fill:none;stroke:#944E19;stroke-linecap:round;stroke-linejoin:round;stroke-miterlimit:10;}
	.st16{display:inline;fill:#2E2525;stroke:#944E19;stroke-linecap:round;stroke-linejoin:round;stroke-miterlimit:10;}
	.st17{display:inline;fill:#FFFFFF;stroke:#944E19;stroke-linecap:round;stroke-linejoin:round;stroke-miterlimit:10;}
	.st18{display:inline;fill:#FFEEE0;stroke:#944E19;stroke-linecap:round;stroke-linejoin:round;stroke-miterlimit:10;}
	.st19{display:inline;fill:none;stroke:#944E19;stroke-linecap:round;stroke-linejoin:round;stroke-miterlimit:10;}
	.st20{display:inline;fill:#662D91;stroke:#944E19;stroke-linecap:round;stroke-linejoin:round;stroke-miterlimit:10;}
	.st21{display:inline;stroke:#944E19;stroke-linecap:round;stroke-linejoin:round;stroke-miterlimit:10;}
	.st22{fill:#FFFFFF;stroke:#944E19;stroke-linecap:round;stroke-linejoin:round;stroke-miterlimit:10;}
	.st23{fill:none;stroke:#944E19;stroke-width:3;stroke-linecap:round;stroke-miterlimit:10;}
	.st24{fill:#FFFFFF;}
	.st25{fill:#FFD6D9;}
	.st26{fill:#FF4757;stroke:#FF4757;stroke-linecap:round;stroke-linejoin:round;stroke-miterlimit:10;}
	.st27{fill:#2E2525;stroke:#944E19;stroke-linecap:round;stroke-linejoin:round;stroke-miterlimit:10;}
	.st28{fill:#FFEEE0;stroke:#944E19;stroke-linecap:round;stroke-linejoin:round;stroke-miterlimit:10;}
	.st29{fill:#0071BC;stroke:#944E19;stroke-linecap:round;stroke-linejoin:round;stroke-miterlimit:10;}
</style>
<g class="st0">
	<path class="st1" d="M206.39-20.99c0.36-1.19,1.67-1.96,2.91-1.83s2.32,1.05,2.82,2.19s0.45,2.48,0.04,3.65
		c-0.41,1.18-1.15,2.21-2.02,3.1c-0.86,0.89-1.94,1.7-3.18,1.72c0.02,4.38-2.61,7.96-5.95,9.94s-7.29,2.63-11.17,2.99
		c-7.66,0.7-15.75,0.31-22.52-3.41c-2.47-1.36-4.92-3.52-5-6.34c-0.07-2.43,1.62-4.49,2.56-6.72c1.83-4.34,0.8-9.35,1.69-13.98
		c1.53-7.95,9.44-14.1,17.83-13.68C191.9-36.13,199.18-28.68,206.39-20.99z"/>
	<path class="st2" d="M208.37,18.23c-1.26-6.98-4.99-14.23-9.13-19.53c-1.17,0.72-3.12,1.05-4.23,1.33
		c4.17,10.53,7.75,17.98,8.16,29.25c1.83-0.27,4.18-0.49,6.02-0.76c0.27-0.04-0.88-10.09-0.81-10.45"/>
	<path class="st2" d="M189.72,0.79c-0.24,3.88-1.39,5.14-3.5,5.96c-2.11,0.82-4.85,0.61-6.91-0.51c-1.98-1.09-3.12-3.72-3.06-5.65
		c0-0.12,0.11-0.2,0.22-0.19C181.2,0.95,184.79,1.24,189.72,0.79z"/>
	<path class="st3" d="M203.17,29.29c-0.63-9.69-3.62-20.39-7.98-29.29c-2.38,0.69-3.65,0.59-5.47,0.79c0,3.3-1.54,5.45-3.73,6.25
		c-1.93,0.7-4.61,0.52-6.73-0.67c-1.79-1-2.76-3.13-2.75-5.13c0-0.55-0.46-0.88-1.02-0.95c-1.71-0.2-1.53-0.35-3.63-0.96
		c-3.36,10.2-5.98,19.04-5.91,29.81C178.29,30.95,190.84,31.05,203.17,29.29z"/>
	<path class="st2" d="M171.85-0.68c-3.73,11.58-5.54,17.45-5.91,29.81c-1.56-0.04-2.82-0.23-4.09-0.26c0.2-6.93-0.14-4.71,0.38-10.4
		c0.66-7.12,4.2-13.91,7.88-19.78C170.62-1.01,171.4-0.85,171.85-0.68z"/>
	<path class="st4" d="M193.41-21.95c1.58,0.47,2.64,2.37,2.26,4.06c-0.37,1.69-2.12,2.9-3.73,2.58c-1.62-0.31-2.84-2.1-2.62-3.81
		C189.53-20.84,191.23-22.61,193.41-21.95z"/>
	<path class="st5" d="M177.2-12.26c3.97,0.28,7.98,0.04,11.75-0.71c0.42-0.08,0.95-0.15,1.24,0.1c0.15,0.13,0.18,0.31,0.2,0.47
		c0.1,1.6-1.05,3.16-2.93,3.97c-1.88,0.8-4.41,0.82-6.43,0.04S177.57-10.72,177.2-12.26z"/>
	<path class="st4" d="M176.3-23.15c1.58,0.47,2.64,2.37,2.26,4.06c-0.37,1.69-2.12,2.9-3.73,2.58c-1.62-0.31-2.84-2.1-2.62-3.81
		S174.13-23.8,176.3-23.15z"/>
	<path class="st6" d="M189.71-26.95c3.14-0.33,6.37,0.58,8.95,2.5"/>
	<path class="st6" d="M178.17-27.76c-3.02-1.13-6.63-0.22-8.85,2.23"/>
	<ellipse class="st7" cx="193.25" cy="-19.95" rx="1.09" ry="1.15"/>
	<ellipse class="st7" cx="176.59" cy="-21.12" rx="1.09" ry="1.15"/>
	<path class="st8" d="M206.39-20.99c-3.72-4.48-6.8-6.93-11.35-8.75s-9.36-3.09-13.45-5.86c-1.31-0.89-2.6-2.03-3.27-3.63
		c-5.07,1.04-9.45,5.23-10.91,10.47c-1.07,3.83-0.67,8.02-2.03,11.74c-1.05,2.87-3.15,5.55-2.81,8.61c0.21,1.87,1.34,3.52,2.74,4.68
		c1.4,1.17,3.07,1.92,4.7,2.59c-1.42,2.12-2.29,4.21-3.22,5.6c-4.8-1.69-8.01-7.55-8.44-12.87c-0.43-5.32,1.1-10.57,2.61-15.67
		c2.03-6.87,4.27-14.08,9.33-18.89c4.14-3.94,9.72-5.79,15.23-6.68c4.31-0.7,8.86-0.85,12.89,0.9c4.07,1.76,7.25,5.3,9.68,9.17
		c6.51,10.35,8.37,23.82,4.93,35.71c-0.95,3.3-2.44,6.65-5.18,8.52c-1.06,0.72-2.42,1.19-3.59,0.7c-2.56-1.07-3.75-4.88-5.11-6.53
		c4.39-2.14,7-5.44,7.83-10.96c1.53-0.47,2.76-2.08,3.25-3.45s0.45-3.03-0.38-4.22C209.01-21.01,207.1-21.65,206.39-20.99z"/>
	<path class="st9" d="M209.68-21.99c-2.75-8.97-8.64-17.19-16.87-20.84c-8.23-3.65-18.82-1.82-24.45,5.19
		c1.66-4.08,5.5-6.75,9.47-8.22c3.97-1.47,8.2-1.97,12.26-3.11c4.07-1.14,8.15-3.08,10.66-6.64c4.75,3.76,8.29,9.18,9.94,15.2
		c1.65,6.02,1.39,12.6-1.18,18.27C209.5-22.1,209.5-22.06,209.68-21.99z"/>
	
		<ellipse transform="matrix(0.1518 -0.9884 0.9884 0.1518 156.3469 159.0846)" class="st10" cx="170.86" cy="-11.55" rx="5.9" ry="6.15"/>
	
		<ellipse transform="matrix(0.1518 -0.9884 0.9884 0.1518 177.5654 187.0218)" class="st10" cx="197.75" cy="-9.94" rx="5.9" ry="6.15"/>
</g>
<g class="st0">
	<g class="st4">
		<path class="st11" d="M272.91-22.24c0.16,0.15,0.42,0.12,0.52-0.07c0.56-1.03,1.89-1.66,3.15-1.55c1.42,0.13,2.67,1.09,3.25,2.3
			c0.58,1.21,0.53,2.63,0.07,3.87c-0.46,1.25-1.31,2.35-2.3,3.3c-0.91,0.88-2.04,1.7-3.34,1.83c-0.17,0.02-0.3,0.15-0.3,0.31
			c-0.07,4.51-3.02,8.21-6.76,10.29c-3.82,2.13-8.36,2.84-12.81,3.25c-8.8,0.8-18.09,0.44-25.89-3.46c-2.84-1.42-5.67-3.7-5.79-6.69
			c-0.1-2.58,1.83-4.77,2.9-7.14c2.08-4.61,0.86-9.92,1.85-14.84c1.7-8.41,10.67-14.96,20.27-14.64c0.08,0,0.16,0.03,0.22,0.09
			C256.45-37.9,264.71-30.2,272.91-22.24z"/>
		<path class="st12" d="M277.17-47.68c5.62-1.04,10.52,2.4,13.93,6.67s3.52,10.61-0.03,14.74c-1.27,1.48-2.93,2.65-4.65,3.68
			c1.14,1.28,2.01,3.16,1.99,4.96c-0.02,1.81-0.82,3.54-1.91,5.04c-1.39,1.91-3.33,3.55-5.7,4.28s-5.19,0.44-7.1-1.06
			c0.15-0.95,0.38-2.23,0.29-3.49c2.84-0.66,5.2-2.81,5.95-5.41c0.35-1.23,0.35-2.59-0.26-3.74c-0.6-1.15-1.87-2.05-3.26-2.07
			s-2.76,0.99-2.84,2.26c-2.72-0.3-5.54-2.36-5.17-4.78c-2.76,0.77-5.42-0.51-7.33-2.51c-1.91-2-3.57-3.71-2.38-6.11
			c-2.73,1.05-4.88-0.62-7.32-2.17c-2.45-1.56-3.95-4.29-3.85-7.02c-5.92-0.21-12.6,2.61-16.63,7.41
			c-4.03,4.81-3.76,10.19-4.2,17.23c-1.55,0.5-3.27,0.06-4.3-1.11c-1.03-1.17-1.21-2.88-0.56-4.26c0.51-1.09,1.46-2.27,2.61-2.9
			c0.2-0.11,0.13-0.4-0.1-0.43c-2.45-0.28-4.66-1.64-5.53-3.84c-0.99-2.51-0.33-5.41,1.31-7.6c1.65-2.19,4.18-3.71,6.88-4.67
			c-2.16-2.61-2.03-6.83,0.33-9.63c2.36-2.8,6.76-3.98,10.09-2.94c1.46-3.44,6.08-5.03,10.06-4.41s7.03,1.73,10.04,4.21
			c3.21-2.99,9.76-2.59,13.63-0.3S278.06-51.87,277.17-47.68z"/>
	</g>
	<g class="st4">
		<path class="st13" d="M275.77,19.67c-1.49-7.4-5.83-15.05-10.61-20.65c-1.34,0.77-3.58,1.14-4.85,1.45
			c4.86,11.14,9.02,19.01,9.56,30.96c2.1-0.3,4.8-0.55,6.91-0.85c0.31-0.04-1.08-10.7-1-11.07"/>
		<path class="st11" d="M254.24,1.3c-0.25,4.11-1.57,5.46-3.98,6.34c-2.41,0.88-5.57,0.68-7.94-0.5c-2.28-1.14-3.61-3.92-3.55-5.97
			c0-0.12,0.12-0.22,0.25-0.2C244.46,1.54,248.58,1.82,254.24,1.3z"/>
		<path class="st14" d="M269.87,31.43c-0.79-10.27-4.29-21.59-9.36-31c-2.73,0.75-4.19,0.65-6.28,0.88c0.1,4.97-1.83,5.63-4.24,6.65
			c-2.41,1.02-5.5,0.76-7.74-0.66c-1.95-1.24-3.19-3.3-3.2-5.42c0-0.58-0.54-0.93-1.18-1c-1.97-0.2-1.76-0.36-4.18-0.99
			c-3.79,10.84-6.75,20.23-6.59,31.65C241.3,33.37,255.72,33.39,269.87,31.43z"/>
		<path class="st13" d="M233.71-0.13c-4.21,12.3-6.25,18.54-6.59,31.65c-1.79-0.03-3.25-0.22-4.69-0.25
			c0.19-7.35-0.19-4.99,0.37-11.03c0.71-7.55,4.74-14.78,8.92-21.03C232.29-0.47,233.18-0.3,233.71-0.13z"/>
		<path class="st13" d="M254.24,1.3c-0.02,2.22-1.5,5.29-3.89,6.24c-2.39,0.96-5.49,0.73-7.79-0.56s-3.55-3.66-3.39-5.91
			c0-0.01-0.05-0.01-0.08-0.01c-0.32-0.02-0.65-0.12-1.1-0.19c-0.41-0.07-0.83-0.19-1.27-0.24c-0.54-0.18-0.93-0.16-1.34,0.15
			c-0.41,0.31-0.61,0.77-0.65,1.23c-0.05,0.68,0.25,1.4,0.81,1.93c0.57,0.54,1.4,0.88,2.21,0.99c-0.97,0.51-1.4,1.57-1.13,2.52
			s1.18,1.77,2.28,2.19s2.36,0.46,3.49,0.22c1.13-0.24,2.14-0.75,3.15-1.37c0.3,1.19,1.55,2.17,2.98,2.55
			c1.42,0.38,2.97,0.21,4.29-0.26c0.68-0.24,1.34-0.59,1.67-1.14c0.32-0.53,0.27-1.18,0.03-1.75s-0.66-1.1-1.02-1.73
			c1.11,0.48,2.46,0.54,3.58,0.17c1.11-0.38,1.83-0.72,2.12-1.68c0.17-0.55,0.16-2.23,0.02-2.39c-0.34-0.41-0.46-0.43-0.78-0.56
			C256.22,0.8,255.34,1.21,254.24,1.3z"/>
	</g>
	<path class="st4" d="M258.33-22.83c1.82,0.49,3.05,2.5,2.63,4.29c-0.42,1.79-2.42,3.09-4.27,2.77c-1.86-0.32-3.28-2.2-3.04-4.03
		C253.89-21.63,255.83-23.51,258.33-22.83z"/>
	<path class="st5" d="M239.96-12.69c4.56,0.27,9.16-0.02,13.49-0.84c0.48-0.09,1.09-0.17,1.43,0.09c0.18,0.14,0.21,0.32,0.23,0.5
		c0.13,1.69-1.18,3.36-3.34,4.23s-5.07,0.9-7.39,0.09C242.05-9.43,240.4-11.06,239.96-12.69z"/>
	<path class="st4" d="M238.67-23.98c1.82,0.49,3.05,2.5,2.63,4.29s-2.42,3.09-4.27,2.77c-1.86-0.32-3.28-2.2-3.04-4.03
		C234.23-22.77,236.17-24.66,238.67-23.98z"/>
	<path class="st6" d="M254.05-28.11c3.6-0.37,7.33,0.57,10.29,2.59"/>
	<path class="st6" d="M240.79-28.88c-3.48-1.17-7.62-0.18-10.15,2.43"/>
	
		<ellipse transform="matrix(1 -8.857176e-03 8.857176e-03 1 0.1936 2.2857)" class="st7" cx="258.16" cy="-20.71" rx="1.25" ry="1.22"/>
	
		<ellipse transform="matrix(1 -8.857176e-03 8.857176e-03 1 0.2027 2.1161)" class="st7" cx="239.01" cy="-21.83" rx="1.25" ry="1.22"/>
	
		<ellipse transform="matrix(0.0452 -0.999 0.999 0.0452 261.0296 252.8331)" class="st10" cx="262.78" cy="-10.14" rx="6.26" ry="7.06"/>
	
		<ellipse transform="matrix(0.0452 -0.999 0.999 0.0452 233.5212 220.4708)" class="st10" cx="232.1" cy="-11.93" rx="6.26" ry="7.06"/>
</g>
<path class="st15" d="M219,31.69"/>
<g class="st0">
	<path class="st1" d="M115.6,58.93c0.52-2,2.85-3.41,5.14-3.34c2.29,0.07,4.4,1.45,5.45,3.28c1.05,1.83,1.12,4.02,0.5,6
		s-1.87,3.76-3.35,5.32c-1.48,1.56-3.38,3.02-5.66,3.2c0.55,7.19-3.88,13.37-9.8,17.01s-13.14,5.16-20.23,6.19
		c-14.04,2.04-28.98,2.32-41.89-3.02c-4.7-1.95-9.47-5.23-9.95-9.84c-0.42-3.98,2.47-7.56,3.95-11.34c2.88-7.34,0.4-15.46,1.5-23.17
		c1.9-13.24,15.76-24.25,31.28-24.54C87.15,35.72,101.42,47.12,115.6,58.93z"/>
	<path class="st4" d="M91.56,58.84c2.97,0.6,5.14,3.6,4.64,6.41s-3.57,5-6.58,4.67c-3.01-0.33-5.48-3.12-5.27-5.97
		C84.55,61.11,87.48,58.02,91.56,58.84z"/>
	<path class="st4" d="M59.9,58.84c2.97,0.6,5.14,3.6,4.64,6.41s-3.57,5-6.58,4.67c-3.01-0.33-5.48-3.12-5.27-5.97
		C52.89,61.11,55.82,58.02,59.9,58.84z"/>
	<path class="st6" d="M84.17,51.05c5.74-0.9,11.81,0.22,16.77,3.09"/>
	<path class="st6" d="M62.81,51.05c-5.7-1.5-12.25,0.41-16.04,4.68"/>
	<ellipse class="st7" cx="91.49" cy="62.15" rx="2.02" ry="1.9"/>
	<ellipse class="st7" cx="60.66" cy="62.15" rx="2.02" ry="1.9"/>
	<ellipse class="st10" cx="51.22" cy="78.53" rx="11.35" ry="9.72"/>
	<ellipse class="st10" cx="100.95" cy="78.08" rx="11.35" ry="9.72"/>
	<path class="st5" d="M65.73,79.03c-0.78-0.95-0.08-2.46,1.07-2.99s2.51-0.35,3.76-0.1c1.25,0.26,2.54,0.58,3.79,0.32
		c2.33-0.49,3.86-2.88,6.22-3.17c2.25-0.28,4.35,1.73,4.45,3.87c0.1,2.14-1.45,4.13-3.46,5.14c-2.01,1-4.38,1.15-6.64,0.92
		C71.41,82.67,67.81,81.57,65.73,79.03z"/>
	<path class="st16" d="M41.65,63.67c-1.29-8.56-0.03-17.67,4.83-25S60.16,26.1,69.34,26.38c2.34,0.07,4.78,0.54,6.55,1.97
		c1.88,1.53,2.69,3.88,3.67,6.04c0.97,2.15,2.41,4.4,4.78,5.09c0.29-1.33,0.59-2.66,0.88-3.99c2.27,4.99,5.99,9.38,10.66,12.56
		c-0.42-1.62-0.28-3.36,0.4-4.9c2.92,5.85,8,10.71,14.16,13.57c-0.13-1.01-0.27-2.03-0.4-3.04c1.9,2.1,3.8,4.2,5.7,6.3
		c0.21-2.32,2.32-4.37,4.77-4.64c2.46-0.27,5.01,1.26,5.79,3.47c3.59-5.3,4.26-12.25,1.74-18.07c-2.51-5.82-8.15-10.36-14.64-11.8
		c0.29-5.22-3.69-9.76-7.93-13.13c-6.71-5.34-14.8-9.31-23.49-10.56S64.02,5.6,56.86,10.38c-3.71,2.47-6.79,5.72-10.63,8.03
		s-8.88,3.54-12.9,1.55c1.43,0.68,2.91,1.41,3.83,2.64c0.92,1.23,1.05,3.13-0.16,4.11c-0.97,0.8-2.42,0.75-3.7,0.58
		c-3.06-0.41-6.05-1.27-8.83-2.54c0.36,5.61,2.87,11.08,6.96,15.18c0.58,0.58,1.23,1.22,1.27,2.01c0.06,1.22-1.44,2.09-2.73,1.95
		c-1.29-0.14-2.37-0.96-3.37-1.74C29.42,50.59,34.62,58.31,41.65,63.67z"/>
	<path class="st17" d="M53.53-12"/>
	<path class="st17" d="M50.18,95.81c15.65,3.89,32.53,3.29,47.83-1.69c1.5-0.49,3.19-1.01,4.6-0.34c0.78,0.37,1.33,1.05,1.85,1.72
		c2.89,3.75,5.37,7.77,7.4,11.97c2.05,4.24,3.65,8.66,4.79,13.17c1.14,4.53,1.81,9.15,2,13.79c0.17,4.17-0.13,8.33-0.69,12.46
		c-0.01,0.07-0.02,0.14-0.06,0.2c-0.05,0.08-0.15,0.13-0.24,0.18c-0.42,0.38-1.27,0.63-1.79,0.89c-0.56,0.28-1.12,0.54-1.69,0.79
		c-1.21,0.55-2.44,1.06-3.68,1.54c-2.52,0.97-5.1,1.79-7.72,2.48c-5.21,1.36-10.59,2.17-15.99,2.51c-2.05,0.13-4.11,0.19-6.17,0.19
		c-12.94-0.02-25.76-2.52-38.14-6.09c-1.47-0.42-2.97-0.88-4.15-1.8c-3.08-2.4-2.86-6.84-2.2-10.55
		C38.66,123.02,43.77,109.23,50.18,95.81z"/>
	<path class="st18" d="M61.32,97.8c8.64,0.83,17.41,0.44,25.99-1.24c-1.8,4.7-6.02,8.51-11.06,10.06
		C70.43,105.14,65.07,102.13,61.32,97.8z"/>
	<path class="st19" d="M59.21,98.08c-0.94,2.7-1.88,5.4-2.82,8.1c2.62,0.46,5.23,0.92,7.85,1.38c0.44,2.55,0.89,5.11,1.33,7.66
		c3.63-2.13,6.96-4.72,10.2-7.69c2.72,2.97,6.18,5.35,10.03,6.88c0.24,0.09,0.54,0.18,0.73,0.02c0.15-0.12,0.16-0.33,0.16-0.52
		c0.01-2.69-0.32-5.38-0.99-7.99c2.19,0.13,4.4-0.06,6.53-0.57c-0.7-3.12-2.2-6.08-4.32-8.57"/>
	<path class="st20" d="M75.55,107.91c-2.22,1.89-4.44,3.78-6.66,5.67c1.05,1.14,1.39,2.78,2.55,3.81c1.27,1.12,3.18,1.24,4.93,1.3
		c0.92,0.03,1.92,0.04,2.68-0.45c0.68-0.44,1.04-1.19,1.36-1.91c0.37-0.82,0.75-1.65,1.12-2.47c0.14-0.3,0.27-0.62,0.23-0.94
		c-0.06-0.43-0.44-0.74-0.78-1.02C79.24,110.48,77.49,109.08,75.55,107.91z"/>
	<path class="st20" d="M71.86,118.1c-1.12,3.18-1.89,6.47-2.17,9.81c-0.14,1.66-0.13,3.4,0.67,4.88c0.73,1.35,2.12,2.37,3.69,2.7
		c1.57,0.33,3.29-0.02,4.56-0.95c2.39-1.73,2.87-4.98,2.41-7.78c-0.46-2.8-1.64-5.49-1.84-8.32
		C76.76,119.09,74.1,118.95,71.86,118.1z"/>
	<path class="st21" d="M50.28,95.79c2.96,0.95,6.06,1.54,9.19,1.75l-2.89,8.49c2.63,0.08,5.24,0.7,7.59,1.82
		c0.84,2.55,1.37,5.19,1.57,7.85c0.23-0.25,0.46-0.5,0.69-0.74c1.76,6.16,4.21,12.15,7.28,17.83c0.32,0.58,0.88,1.05,1.57,1.15
		c1.03,0.16,1.58-0.61,2.01-1.3c3.59-5.8,6.2-12.15,7.69-18.72l1.64,0.99c0.36-2.96,0.18-5.97-0.53-8.87
		c2.2,0.45,4.56,0.13,6.53-0.88c-0.54-3.32-2.79-6.22-5.31-8.6c8.54-1.09,9.08-2.28,14.12-2.93c2.54-0.32,4.09,2.81,5.36,4.91
		c8.9,14.73,13.73,32.16,10.39,48.81c-2.48,1.52,1.98-0.78-4.16,2.13c-0.41,0.2-3.41,1.39-3.83,1.59
		c-10.47,4.95-26.35,8.99-62.42-0.3c-2.13-0.55-4.4-0.93-6.37-1.86c-1.97-0.93-4.27-4.22-4.27-5.66c0-2.27-0.38-4.49,0.07-6.71
		C39.07,122.56,42.09,108.2,50.28,95.79z"/>
	<path class="st19" d="M44.64,149.83c-0.93-3.55-0.3-7.28,0.39-10.89c1.04-5.47,2.19-10.92,3.46-16.35"/>
	<path class="st19" d="M109.19,150.77c-0.84-12.18-3.65-24.24-8.32-35.62"/>
	<path class="st19" d="M57.11,97.5c-1.66,4.16-2.99,8.45-3.95,12.8c-0.11,0.51-0.22,1.06,0.01,1.54c0.27,0.55,0.91,0.84,1.51,1.08
		c2.5,1.01,5.01,2.03,7.51,3.04c-1.05,3.76-2.1,7.53-3.16,11.29c-0.16,0.57-0.32,1.18-0.18,1.76c0.24,0.93,1.18,1.52,2.05,2.02
		c2.27,1.3,4.57,2.62,7.11,3.38s5.36,0.94,7.81-0.03"/>
	<path class="st19" d="M92.19,95.78c2.67,4.03,5.43,10.16,6.39,14.52c0.11,0.51,0.22,1.06-0.01,1.54c-0.27,0.55-0.91,0.84-1.51,1.08
		c-2.5,1.01-5.01,2.03-7.51,3.04c1.05,3.76,2.1,7.53,3.16,11.29c0.16,0.57,0.32,1.18,0.18,1.76c-0.24,0.93-1.18,1.52-2.05,2.02
		c-2.27,1.3-4.57,2.62-7.11,3.38c-2.53,0.77-5.36,0.94-7.81-0.03"/>
	<path class="st19" d="M75.28,134.66c0.01,6.92,0.02,13.84,0.04,20.75"/>
</g>
<g>
	<path class="st22" d="M49.14,93.45c16.54,3.89,34.37,3.29,50.54-1.69c1.58-0.49,3.37-1.01,4.86-0.34c0.82,0.37,1.41,1.05,1.95,1.72
		c2.06,2.53,3.93,5.19,5.58,7.94c1.67,2.77,3.12,5.64,4.35,8.58c1.24,2.95,2.26,5.96,3.05,9.02c0.79,3.06,1.36,6.17,1.7,9.3
		c0.34,3.13,0.44,6.28,0.3,9.42c-0.1,2.37-0.4,4.73-0.71,7.08c-0.01,0.09-0.03,0.19-0.08,0.27c-0.07,0.1-0.2,0.16-0.32,0.22
		c-3.37,1.51-6.75,3.01-10.31,4.15c-3.58,1.15-7.26,2.04-11,2.7c-3.74,0.67-7.54,1.1-11.35,1.32c-2.13,0.13-4.27,0.19-6.4,0.18
		c-13.67-0.02-27.22-2.52-40.3-6.09c-1.55-0.42-3.14-0.88-4.39-1.8c-3.25-2.4-3.03-6.85-2.33-10.56
		C36.96,120.67,42.37,106.88,49.14,93.45z"/>
	<path class="st11" d="M118.22,56.86c0.55-2,3.01-3.41,5.43-3.34c2.42,0.07,4.65,1.45,5.75,3.28c1.11,1.83,1.18,4.02,0.53,6
		c-0.65,1.98-1.98,3.76-3.54,5.32c-1.56,1.56-3.57,3.02-5.98,3.2c0.58,7.2-4.1,13.38-10.36,17.02c-6.26,3.64-13.88,5.16-21.38,6.19
		c-14.83,2.04-30.62,2.32-44.26-3.02c-4.97-1.95-10-5.23-10.51-9.85c-0.44-3.98,2.6-7.56,4.17-11.34
		c3.04-7.34,0.42-15.47,1.59-23.18c2-13.25,16.65-24.26,33.05-24.54C88.15,33.64,103.23,45.05,118.22,56.86z"/>
	<path d="M92.82,56.77c3.13,0.6,5.43,3.6,4.91,6.42c-0.52,2.82-3.77,5-6.96,4.67c-3.18-0.33-5.79-3.12-5.57-5.97
		C85.41,59.04,88.51,55.95,92.82,56.77z"/>
	<path d="M59.37,56.77c3.13,0.6,5.43,3.6,4.91,6.42c-0.52,2.82-3.77,5-6.96,4.67c-3.18-0.33-5.79-3.12-5.57-5.97
		C51.96,59.04,55.06,55.95,59.37,56.77z"/>
	<path class="st23" d="M85.01,48.98c6.07-0.9,12.48,0.22,17.72,3.09"/>
	<path class="st23" d="M62.44,48.98c-6.02-1.5-12.94,0.41-16.95,4.68"/>
	<ellipse class="st24" cx="92.75" cy="60.08" rx="2.13" ry="1.9"/>
	<ellipse class="st24" cx="60.17" cy="60.08" rx="2.13" ry="1.9"/>
	<ellipse class="st25" cx="50.2" cy="76.46" rx="11.99" ry="9.72"/>
	<ellipse class="st25" cx="102.74" cy="76.01" rx="11.99" ry="9.72"/>
	<path class="st26" d="M65.52,76.97c-0.83-0.95-0.08-2.46,1.13-2.99c1.21-0.53,2.65-0.35,3.97-0.1c1.32,0.26,2.68,0.58,4,0.32
		c2.46-0.49,4.08-2.88,6.58-3.17c2.38-0.28,4.6,1.73,4.7,3.87c0.1,2.14-1.53,4.13-3.65,5.14c-2.12,1-4.63,1.15-7.02,0.92
		C71.52,80.6,67.73,79.51,65.52,76.97z"/>
	<path class="st27" d="M39.4,53.66c0.91-2.21,3.93-3.25,6.17-4.71c4.03-2.61,5.78-6.83,8.11-10.57c2.34-3.74,6.2-7.51,11.36-7.59
		c-1.43,2.46-2.88,4.97-3.19,7.68c-0.31,2.7,0.75,5.68,3.49,7.24c3.12,1.79,7.34,1.3,11.11,0.82c5.33-0.67,10.79-1.16,16.11-0.41
		s10.54,2.88,13.56,6.51c0.39-0.8,0.77-1.6,1.16-2.4c4.9,3.47,7.8,8.73,7.72,14.02c0.73-2.44,1.6-4.94,3.5-6.92
		c1.9-1.98,5.1-3.35,8.1-2.75s5.11,3.68,3.49,5.82c5.24-4.35,5.55-11.17,4.88-17.23c-0.37-3.31-1-6.76-3.37-9.47
		c-2.37-2.71-4.47-3.72-7.67-4.53c-0.71-8.46-5.39-12.41-11.73-16.94c-5.26-3.77-12.16-5.66-19.02-6.86
		C82.63,3.53,71.54,3.15,61.01,5.2S40.57,11.86,33.9,18.78s-9.8,16.23-7.33,24.79c2.08,7.19,7.74,13.29,13.27,19.16
		C39.09,59.38,38.52,55.82,39.4,53.66z"/>
	<path class="st22" d="M43.66,147.83c0.05-12.52,2.63-25.03,7.57-36.75"/>
	<path class="st22" d="M108.25,149.25c1.95-12.62,1.24-25.56-2.07-37.95"/>
	<path class="st28" d="M61.82,95.96c9.13,0.83,18.4,0.44,27.46-1.24c-1.9,4.7-6.36,8.51-11.68,10.07
		C71.45,103.31,65.78,100.29,61.82,95.96z"/>
	<path class="st15" d="M59.98,95.6c-0.99,2.7-1.98,5.4-2.98,8.1c2.76,0.46,5.53,0.92,8.29,1.38c0.47,2.55,0.94,5.11,1.41,7.66
		c3.84-2.13,7.36-4.72,10.77-7.69c2.88,2.98,6.53,5.35,10.59,6.88c0.25,0.09,0.57,0.18,0.77,0.02c0.16-0.12,0.17-0.33,0.17-0.52
		c0.01-2.69-0.34-5.38-1.05-7.99c2.32,0.13,4.65-0.06,6.9-0.57c-0.74-3.12-2.32-6.08-4.57-8.57"/>
	<path class="st29" d="M77.24,105.43c-2.34,1.89-4.69,3.78-7.03,5.67c1.11,1.14,1.46,2.78,2.7,3.81c1.35,1.12,3.37,1.24,5.21,1.3
		c0.98,0.03,2.03,0.04,2.84-0.45c0.72-0.44,1.1-1.19,1.44-1.91c0.39-0.82,0.79-1.65,1.18-2.47c0.14-0.3,0.29-0.62,0.24-0.94
		c-0.07-0.43-0.46-0.74-0.83-1.02C81.14,108.01,79.3,106.6,77.24,105.43z"/>
	<path class="st29" d="M73.35,115.62c-1.18,3.18-2,6.48-2.29,9.82c-0.15,1.66-0.14,3.4,0.7,4.88c0.77,1.35,2.24,2.37,3.9,2.7
		c1.66,0.33,3.48-0.02,4.82-0.95c2.52-1.73,3.03-4.98,2.55-7.78s-1.73-5.49-1.94-8.32C78.53,116.62,75.71,116.47,73.35,115.62z"/>
	<path class="st15" d="M75.73,133.49c-0.64,6.44-0.68,12.93-0.13,19.38"/>
</g>
</svg>
