<?xml version="1.0" encoding="utf-8"?>
<!-- Generator: Adobe Illustrator 27.4.0, SVG Export Plug-In . SVG Version: 6.00 Build 0)  -->
<svg version="1.1" id="레이어_1" xmlns="http://www.w3.org/2000/svg" xmlns:xlink="http://www.w3.org/1999/xlink" x="0px"
	 y="0px" viewBox="0 0 153.07 158.74" style="enable-background:new 0 0 153.07 158.74;" xml:space="preserve">
<style type="text/css">
	.st0{fill:#FFEEE0;stroke:#944E19;stroke-miterlimit:10;}
	.st1{fill:#FFFFFF;stroke:#944E19;stroke-miterlimit:10;}
	.st2{fill:#FF7385;stroke:#944E19;stroke-miterlimit:10;}
	.st3{fill:#FF4757;stroke:#FF4757;stroke-linecap:round;stroke-linejoin:round;stroke-miterlimit:10;}
	.st4{fill:none;stroke:#944E19;stroke-width:3;stroke-linecap:round;stroke-miterlimit:10;}
	.st5{fill:#FFFFFF;}
	.st6{fill:#472000;stroke:#944E19;stroke-miterlimit:10;}
	.st7{fill:#FFE385;stroke:#944E19;stroke-miterlimit:10;}
	.st8{fill:#FFD6D9;}
	.st9{display:none;}
	.st10{display:inline;}
	.st11{fill:#FFEB85;stroke:#944E19;stroke-miterlimit:10;}
	.st12{display:inline;fill:#FF4757;stroke:#FF4757;stroke-linecap:round;stroke-linejoin:round;stroke-miterlimit:10;}
	.st13{display:inline;fill:none;stroke:#944E19;stroke-width:3;stroke-linecap:round;stroke-miterlimit:10;}
	.st14{display:inline;fill:#FFFFFF;}
	.st15{display:inline;fill:#FFD6D9;}
</style>
<g>
	<path class="st0" d="M112.25,64.4c0.63-2.13,2.97-3.49,5.18-3.26s4.14,1.86,5.02,3.91c0.89,2.04,0.8,4.42,0.08,6.51
		s-2.06,3.93-3.59,5.52c-1.53,1.59-3.46,3.03-5.66,3.07c0.04,7.81-4.64,14.18-10.6,17.71c-5.95,3.53-13,4.69-19.9,5.32
		c-13.66,1.25-28.07,0.56-40.14-6.08c-4.4-2.42-8.76-6.28-8.92-11.3c-0.13-4.33,2.89-8,4.57-11.98c3.27-7.73,1.43-16.67,3.02-24.92
		c2.72-14.17,16.82-25.13,31.79-24.39C86.42,37.43,99.4,50.7,112.25,64.4z"/>
	<path class="st1" d="M115.77,134.31c-2.24-12.45-8.9-25.36-16.27-34.81c-2.09,1.28-5.56,1.87-7.54,2.38
		c7.43,18.77,13.81,32.04,14.55,52.14c3.26-0.48,7.46-0.87,10.72-1.35c0.48-0.07-1.57-17.99-1.44-18.62"/>
	<path class="st1" d="M82.54,103.22c-0.43,6.91-2.49,9.16-6.24,10.62s-8.64,1.09-12.31-0.92c-3.53-1.94-5.57-6.62-5.45-10.08
		c0.01-0.21,0.19-0.36,0.39-0.34C67.36,103.52,73.75,104.03,82.54,103.22z"/>
	<path class="st2" d="M106.51,154.01c-1.13-17.27-6.46-36.33-14.22-52.21c-4.24,1.24-6.51,1.04-9.75,1.41
		c-0.01,5.88-2.74,9.72-6.65,11.13c-3.45,1.24-8.21,0.92-12-1.19c-3.2-1.78-4.92-5.59-4.91-9.15c0-0.97-0.83-1.57-1.81-1.69
		c-3.05-0.36-2.72-0.63-6.47-1.71c-5.98,18.18-10.66,33.93-10.53,53.12C62.16,156.97,84.53,157.16,106.51,154.01z"/>
	<path class="st1" d="M50.7,100.6c-6.65,20.64-9.88,31.1-10.53,53.12c-2.78-0.08-5.03-0.4-7.28-0.47
		c0.36-12.35-0.25-8.39,0.68-18.54c1.17-12.68,7.49-24.8,14.04-35.25C48.49,100.01,49.88,100.3,50.7,100.6z"/>
	<path d="M89.11,62.69c2.82,0.85,4.7,4.23,4.04,7.24c-0.67,3.01-3.78,5.16-6.66,4.6c-2.88-0.56-5.06-3.74-4.67-6.8
		C82.2,64.67,85.24,61.53,89.11,62.69z"/>
	<path class="st3" d="M60.23,79.97c7.08,0.5,14.22,0.06,20.94-1.27c0.74-0.15,1.69-0.27,2.21,0.17c0.28,0.23,0.33,0.55,0.35,0.84
		c0.19,2.85-1.87,5.63-5.22,7.07s-7.87,1.46-11.47,0.08C63.44,85.46,60.89,82.71,60.23,79.97z"/>
	<path d="M58.62,60.56c2.82,0.85,4.7,4.23,4.04,7.24c-0.67,3.01-3.78,5.16-6.66,4.6s-5.06-3.74-4.67-6.8
		C51.71,62.54,54.74,59.39,58.62,60.56z"/>
	<path class="st4" d="M82.52,53.78c5.59-0.58,11.36,1.03,15.95,4.46"/>
	<path class="st4" d="M61.95,52.34c-5.39-2.01-11.82-0.39-15.77,3.97"/>
	<ellipse class="st5" cx="88.82" cy="66.26" rx="1.95" ry="2.06"/>
	<ellipse class="st5" cx="59.13" cy="64.18" rx="1.95" ry="2.06"/>
	<path class="st6" d="M112.25,64.4c-6.62-7.98-12.13-12.36-20.24-15.59c-8.11-3.23-16.69-5.5-23.98-10.45
		c-2.33-1.58-4.63-3.62-5.82-6.46c-9.04,1.85-16.84,9.33-19.44,18.65c-1.9,6.82-1.2,14.29-3.62,20.92
		c-1.87,5.12-5.62,9.9-5.01,15.35c0.37,3.34,2.39,6.27,4.89,8.35s5.46,3.42,8.38,4.61c-2.53,3.78-4.08,7.51-5.74,9.97
		c-8.55-3.01-14.27-13.45-15.04-22.93s1.95-18.85,4.64-27.93c3.62-12.24,7.61-25.09,16.63-33.67c7.38-7.03,17.32-10.32,27.15-11.91
		c7.68-1.24,15.78-1.51,22.98,1.6c7.26,3.14,12.92,9.44,17.25,16.34c11.61,18.45,14.92,42.46,8.78,63.64
		c-1.7,5.87-4.34,11.85-9.23,15.18c-1.9,1.29-4.31,2.13-6.4,1.25c-4.57-1.9-6.68-8.7-9.12-11.64c7.82-3.81,12.48-9.69,13.96-19.53
		c2.73-0.84,4.92-3.7,5.79-6.16c0.87-2.46,0.8-5.4-0.67-7.52C116.92,64.37,113.52,63.22,112.25,64.4z"/>
	<path class="st7" d="M118.11,62.63c-4.91-15.98-15.4-30.64-30.07-37.14s-33.53-3.25-43.57,9.26c2.95-7.27,9.8-12.03,16.87-14.65
		s14.61-3.51,21.86-5.54s14.53-5.48,19-11.84c8.46,6.7,14.78,16.37,17.71,27.1c2.94,10.73,2.47,22.46-2.11,32.57
		C117.79,62.43,117.79,62.49,118.11,62.63z"/>
	
		<ellipse transform="matrix(0.1518 -0.9884 0.9884 0.1518 -38.7913 117.2611)" class="st8" cx="48.92" cy="81.23" rx="10.51" ry="10.96"/>
	
		<ellipse transform="matrix(0.1518 -0.9884 0.9884 0.1518 -0.9733 167.0538)" class="st8" cx="96.84" cy="84.09" rx="10.51" ry="10.96"/>
</g>
<g class="st9">
	<g class="st10">
		<path class="st0" d="M236.99,72.68c0.16,0.16,0.42,0.12,0.53-0.08c0.57-1.08,1.9-1.74,3.17-1.62c1.43,0.13,2.69,1.14,3.28,2.41
			c0.58,1.27,0.54,2.74,0.07,4.05c-0.46,1.31-1.32,2.45-2.31,3.45c-0.92,0.92-2.06,1.77-3.37,1.91c-0.17,0.02-0.3,0.15-0.3,0.32
			c-0.07,4.72-3.04,8.58-6.81,10.75c-3.85,2.22-8.42,2.97-12.9,3.39c-8.86,0.84-18.22,0.46-26.08-3.62
			c-2.86-1.49-5.71-3.87-5.83-6.99c-0.1-2.69,1.85-4.99,2.92-7.47c2.09-4.82,0.87-10.37,1.87-15.51
			c1.71-8.79,10.75-15.64,20.42-15.3c0.08,0,0.16,0.04,0.22,0.09C220.41,56.31,228.74,64.37,236.99,72.68z"/>
		<path class="st6" d="M241.29,46.09c5.66-1.09,10.6,2.51,14.03,6.98s3.54,11.09-0.03,15.4c-1.28,1.55-2.95,2.77-4.68,3.85
			c1.15,1.33,2.02,3.3,2,5.19c-0.02,1.89-0.83,3.7-1.93,5.27c-1.4,2-3.35,3.71-5.74,4.48c-2.39,0.77-5.23,0.46-7.15-1.11
			c0.15-0.99,0.38-2.33,0.29-3.65c2.86-0.69,5.24-2.94,5.99-5.66c0.35-1.29,0.35-2.7-0.26-3.91c-0.61-1.2-1.89-2.14-3.28-2.16
			c-1.4-0.02-2.78,1.03-2.86,2.36c-2.74-0.31-5.58-2.46-5.21-4.99c-2.78,0.8-5.46-0.53-7.39-2.62c-1.92-2.09-3.6-3.87-2.4-6.39
			c-2.75,1.09-4.91-0.65-7.38-2.27c-2.46-1.63-3.98-4.49-3.88-7.34c-5.97-0.22-12.7,2.73-16.75,7.75s-3.79,10.65-4.23,18.02
			c-1.56,0.52-3.29,0.07-4.33-1.16c-1.04-1.23-1.22-3.02-0.56-4.45c0.52-1.13,1.47-2.37,2.63-3.04c0.2-0.12,0.13-0.42-0.1-0.45
			c-2.47-0.29-4.7-1.71-5.57-4.01c-1-2.63-0.34-5.66,1.32-7.94c1.66-2.29,4.21-3.88,6.93-4.88c-2.17-2.73-2.04-7.14,0.34-10.07
			c2.38-2.93,6.81-4.16,10.17-3.08c1.47-3.6,6.13-5.26,10.14-4.61s7.09,1.81,10.12,4.41c3.23-3.13,9.83-2.7,13.73-0.32
			C239.12,38.07,242.18,41.71,241.29,46.09z"/>
	</g>
	<g class="st10">
		<path class="st1" d="M239.88,116.5c-1.5-7.73-5.87-15.74-10.69-21.58c-1.35,0.81-3.6,1.19-4.89,1.51
			c4.89,11.64,9.08,19.87,9.63,32.36c2.12-0.31,4.84-0.57,6.96-0.89c0.31-0.05-1.09-11.18-1.01-11.57"/>
		<path class="st0" d="M218.19,97.3c-0.26,4.3-1.58,5.71-4.01,6.63c-2.43,0.92-5.61,0.71-7.99-0.52c-2.3-1.19-3.64-4.1-3.58-6.24
			c0-0.13,0.12-0.23,0.25-0.21C208.33,97.55,212.48,97.84,218.19,97.3z"/>
		<path class="st11" d="M233.94,128.79c-0.79-10.74-4.32-22.57-9.42-32.41c-2.75,0.79-4.22,0.68-6.32,0.92
			c0.1,5.19-1.85,5.88-4.28,6.95c-2.43,1.07-5.54,0.79-7.79-0.69c-1.97-1.29-3.21-3.45-3.22-5.67c0-0.61-0.54-0.98-1.18-1.04
			c-1.98-0.21-1.77-0.38-4.21-1.04c-3.82,11.33-6.8,21.15-6.64,33.08C205.16,130.81,219.68,130.83,233.94,128.79z"/>
		<path class="st1" d="M197.51,95.8c-4.24,12.86-6.3,19.38-6.64,33.08c-1.81-0.04-3.27-0.23-4.73-0.26
			c0.19-7.68-0.2-5.22,0.38-11.54c0.71-7.89,4.77-15.45,8.99-21.98C196.07,95.45,196.98,95.62,197.51,95.8z"/>
		<path class="st1" d="M218.19,97.3c-0.02,2.32-1.51,5.53-3.92,6.53s-5.53,0.77-7.85-0.58c-2.32-1.35-3.58-3.83-3.41-6.18
			c0-0.01-0.05-0.01-0.08-0.01c-0.32-0.02-0.66-0.12-1.11-0.19c-0.41-0.07-0.84-0.2-1.28-0.25c-0.54-0.19-0.94-0.17-1.35,0.15
			c-0.41,0.32-0.62,0.8-0.65,1.28c-0.05,0.72,0.25,1.46,0.82,2.02c0.57,0.56,1.41,0.92,2.22,1.04c-0.98,0.53-1.42,1.64-1.14,2.63
			c0.27,1,1.19,1.85,2.29,2.29s2.37,0.48,3.51,0.23c1.14-0.25,2.16-0.79,3.17-1.43c0.3,1.24,1.57,2.27,3,2.67
			c1.43,0.4,2.99,0.22,4.32-0.27c0.69-0.26,1.35-0.62,1.68-1.19c0.32-0.55,0.27-1.23,0.03-1.83c-0.24-0.6-0.66-1.15-1.03-1.81
			c1.12,0.5,2.48,0.57,3.6,0.17c1.12-0.4,1.84-0.76,2.14-1.76c0.17-0.58,0.16-2.33,0.02-2.5c-0.35-0.43-0.47-0.45-0.79-0.58
			C220.18,96.77,219.29,97.2,218.19,97.3z"/>
	</g>
	<path class="st10" d="M222.31,72.07c1.83,0.51,3.07,2.61,2.65,4.49c-0.42,1.87-2.43,3.23-4.3,2.89s-3.3-2.3-3.06-4.21
		C217.83,73.33,219.79,71.36,222.31,72.07z"/>
	<path class="st12" d="M203.81,82.67c4.6,0.28,9.23-0.02,13.59-0.88c0.48-0.1,1.1-0.17,1.44,0.1c0.18,0.14,0.22,0.34,0.23,0.52
		c0.13,1.77-1.19,3.51-3.36,4.42c-2.17,0.91-5.1,0.94-7.44,0.1C205.91,86.07,204.25,84.37,203.81,82.67z"/>
	<path class="st10" d="M202.51,70.87c1.83,0.51,3.07,2.61,2.65,4.49c-0.42,1.87-2.43,3.23-4.3,2.89s-3.3-2.3-3.06-4.21
		C198.03,72.13,199.99,70.16,202.51,70.87z"/>
	<path class="st13" d="M218,66.55c3.63-0.38,7.38,0.6,10.37,2.71"/>
	<path class="st13" d="M204.64,65.74c-3.5-1.23-7.68-0.19-10.22,2.54"/>
	
		<ellipse transform="matrix(0.0205 -0.9998 0.9998 0.0205 143.3019 294.8438)" class="st14" cx="222.13" cy="74.28" rx="1.28" ry="1.26"/>
	
		<ellipse transform="matrix(0.0205 -0.9998 0.9998 0.0205 125.5813 274.4195)" class="st14" cx="202.85" cy="73.12" rx="1.28" ry="1.26"/>
	
		<ellipse transform="matrix(0.0653 -0.9979 0.9979 0.0653 126.8298 306.0738)" class="st15" cx="226.79" cy="85.34" rx="6.54" ry="7.11"/>
	
		<ellipse transform="matrix(0.0653 -0.9979 0.9979 0.0653 99.8078 273.4824)" class="st15" cx="195.88" cy="83.47" rx="6.54" ry="7.11"/>
</g>
</svg>
