<?xml version="1.0" encoding="utf-8"?>
<!-- Generator: Adobe Illustrator 27.4.0, SVG Export Plug-In . SVG Version: 6.00 Build 0)  -->
<svg version="1.1" id="레이어_1" xmlns="http://www.w3.org/2000/svg" xmlns:xlink="http://www.w3.org/1999/xlink" x="0px"
	 y="0px" viewBox="0 0 762.52 822.05" style="enable-background:new 0 0 762.52 822.05;" xml:space="preserve">
<style type="text/css">
	.st0{fill:none;stroke:#463C33;stroke-width:4;stroke-linecap:round;stroke-linejoin:round;stroke-miterlimit:10;}
	.st1{fill:none;stroke:#463C33;stroke-width:3;stroke-miterlimit:10;}
	.st2{fill:none;stroke:#463C33;stroke-width:3;stroke-linecap:round;stroke-linejoin:round;stroke-dasharray:2.9931,5.9862;}
	.st3{fill:none;}
	.st4{fill:#ABB868;}
</style>
<g>
	<g>
		<path class="st0" d="M233.5,468.79c-15.9-10.99-30.4-25.47-42.74-42.65c-1.14-1.59-2.34-3.46-2.24-5.64
			c0.08-1.84,1.08-3.37,2.05-4.7c7.63-10.41,17.11-18.12,26.75-25.07c54.87-39.59,114.66-68.31,176.77-78.53
			c19.35-3.18,44.1-2.73,63.49,0c30.62,4.31,51.92,11.84,79.95,28.6c14.48,8.65,34.37,35.09,43.65,52.08
			c3.53,6.45,6.11,14.9,3.82,22.26c-1.05,3.4-3.03,6.15-5.09,8.63c-7.96,9.62-17.79,16.54-28.28,19.92"/>
		<path class="st0" d="M189.51,421.38c3.72-15.13,23.43-16.24,35.48-17.58c97.37-10.82,195.51-6.44,292.62,7.83
			c20.06,2.95,36.4,7.15,57.56,14.95"/>
		<path class="st0" d="M222.43,387.59c37.62-18.2,56.09-19.84,94.24-24.37c38.15-4.54,76.56-2.37,114.82,0.29
			c52,3.61,105.6,8.65,152.12,39.43"/>
		<path class="st0" d="M267.11,358.99c44.93-22,93.85-28.58,141.78-29.39s118.61,19.6,161.57,47.59"/>
		<path class="st0" d="M210.67,449.98c15.43,5.69,40.88,6.31,55.19-3.19c10-6.64,16.92-14.08,27.11-20.21
			c13.52-8.13,35.02-10.26,49.38-5.2c10.75,3.79,29.95,17.24,39.98,23.4c29,17.82,50.25,16.51,79.95,2.6
			c10.14-4.75,18.86-9.37,29.27-13.48c20.64-8.15,50.69-9.92,71.85,3.08"/>
		<path class="st0" d="M234.18,468.17c12.5,3.64,29.34-1.01,39.98-10.4s18.18-19.16,30.57-23.4c20.64-7.06,33.55,8.74,51.73,23.4
			c18.18,14.65,25.75,22.69,47.03,20.8"/>
		<path class="st0" d="M557.07,440.59c-15.22,10.63-33.67,7.88-50.48,12.85c-25.1,7.43-46.46,36.87-53.71,69.32"/>
		<path class="st0" d="M403.5,478.57c21.16-2.6,26.93,33.44,25.87,49.39"/>
		<path class="st0" d="M534.42,449.97c-8.97,7.56-16.04,18.95-19.88,32.01c-2.77,9.43-2.36,22.96-7.58,30.38"/>
		<path class="st0" d="M234.18,468.17c0,13,5.49,33.07,11.56,39.36c6.07,6.29,13.92,8.63,21.51,10.59
			c78.75,20.33,227.95,9.85,239.71-5.75"/>
		<path class="st0" d="M474.04,520.17c1.41-6.06,2.39-13.29,4.97-18.64c2.58-5.35,7.26-9.57,12-8.45c2.96,0.7,5.52,3.42,7.01,6.86
			s2.08,11.09,1.88,15.03"/>
		<path class="st0" d="M348.98,528.28c-0.73-9.17-1.26-19.37,3.07-26.62c3.35-5.61,9.13-8.14,14.52-7.45
			c3.71,0.47,7.45,2.47,9.75,6.33c1.47,2.48,2.26,5.53,2.9,8.56c1.43,6.73,2.29,13.66,2.55,20.64"/>
		<path class="st0" d="M299.75,522.1c-0.19-9.1-0.12-19.17,4.48-25.97c1.53-2.27,3.48-3.99,5.5-5.47c2.29-1.67,4.74-3.07,7.34-3.46
			c2.6-0.38,5.38,0.35,7.38,2.56c1.48,1.62,2.44,3.9,3.2,6.23c3.17,9.71,3.19,20.62,3.16,31.19"/>
		<path class="st0" d="M255.92,511.02c-0.79-7.69,0.28-16.1,4.24-21.85c3.97-5.75,11.24-7.79,15.96-3.13
			c3.12,3.08,4.59,8.23,5.58,13.19c1.4,7,2.19,14.22,2.33,21.47"/>
		<path class="st0" d="M462.58,511.83"/>
	</g>
	<g>
		<circle class="st1" cx="381.26" cy="411.02" r="319.89"/>
		<circle class="st1" cx="381.26" cy="411.02" r="250.4"/>
		<circle class="st1" cx="381.26" cy="411.02" r="225.24"/>
		<g>
			<circle class="st2" cx="381.26" cy="411.02" r="237.22"/>
		</g>
	</g>
	<path id="SVGID_x5F_1_x5F_" class="st3" d="M641.76,409.98c0,144.25-116.94,261.18-261.18,261.18S119.4,554.23,119.4,409.98
		S236.33,148.8,380.58,148.8S641.76,265.73,641.76,409.98z"/>
	<text>	<textPath  xlink:href="#SVGID_x5F_1_x5F_" startOffset="96.289%">
<tspan  style="fill:#463C33; font-family:'CenturyGothic-Bold'; font-size:45.5272px;">ODE? SEOUL ODE? SEOUL ODE? SEOUL ODE? SEOUL ODE? SEOUL ODE? SEOUL</tspan>	</textPath>
</text>
	<path class="st4" d="M213.93,359.37c15.05,8.85,37.33-1.11,37.33-1.11s-2.12-24.32-17.17-33.17c-15.05-8.85-37.33,1.11-37.33,1.11
		S198.88,350.51,213.93,359.37z"/>
	<path class="st4" d="M248.45,314.13c-6.14,12.42,2.06,28.99,2.06,28.99s18.15-3.56,24.28-15.97c6.14-12.42-2.06-28.99-2.06-28.99
		S254.59,301.71,248.45,314.13z"/>
</g>
</svg>
