<?xml version="1.0" encoding="utf-8"?>
<!-- Generator: Adobe Illustrator 27.4.0, SVG Export Plug-In . SVG Version: 6.00 Build 0)  -->
<svg version="1.1" id="레이어_1" xmlns="http://www.w3.org/2000/svg" xmlns:xlink="http://www.w3.org/1999/xlink" x="0px"
	 y="0px" viewBox="0 0 762.52 822.05" style="enable-background:new 0 0 762.52 822.05;" xml:space="preserve">
<style type="text/css">
	.st0{fill:none;stroke:#463C33;stroke-width:3;stroke-miterlimit:10;}
	.st1{fill:none;stroke:#463C33;stroke-width:3;stroke-linecap:round;stroke-linejoin:round;stroke-dasharray:2.9989,5.9977;}
	.st2{fill:#463C33;}
	.st3{fill:none;stroke:#463C33;stroke-width:4;stroke-miterlimit:10;}
	.st4{fill:none;stroke:#463C33;stroke-width:4;stroke-linecap:round;stroke-linejoin:round;stroke-miterlimit:10;}
	.st5{fill:#ABB868;}
</style>
<g>
	<circle class="st0" cx="381.26" cy="411.02" r="320.5"/>
	<circle class="st0" cx="381.26" cy="411.02" r="250.88"/>
	<circle class="st0" cx="381.26" cy="411.02" r="225.67"/>
	<g>
		<circle class="st1" cx="381.26" cy="411.02" r="237.68"/>
	</g>
</g>
<g>
	<path class="st2" d="M349.49,117c4.61-0.5,8.75,0.73,12.43,3.71c3.68,2.97,5.78,6.86,6.31,11.66c0.52,4.75-0.68,8.95-3.59,12.6
		c-2.91,3.65-6.7,5.73-11.37,6.24c-4.89,0.53-9.14-0.71-12.74-3.74c-3.6-3.03-5.66-6.87-6.17-11.52c-0.34-3.11,0.1-6.06,1.32-8.84
		c1.22-2.78,3.07-5.07,5.54-6.89S346.44,117.33,349.49,117z M350.08,123.07c-3.01,0.33-5.43,1.65-7.26,3.97
		c-1.83,2.32-2.56,5.1-2.21,8.33c0.39,3.6,2,6.31,4.81,8.12c2.19,1.42,4.58,1.99,7.18,1.7c2.94-0.32,5.33-1.66,7.17-4.01
		s2.59-5.08,2.25-8.2c-0.34-3.1-1.67-5.61-3.98-7.53S353.07,122.75,350.08,123.07z"/>
	<path class="st2" d="M375.57,115.89l7.39,0.15c4.76,0.1,8.29,0.76,10.58,1.98c2.29,1.23,4.16,3.18,5.6,5.87
		c1.45,2.69,2.13,5.81,2.06,9.35c-0.05,2.52-0.52,4.83-1.4,6.93c-0.88,2.1-2.07,3.83-3.58,5.2c-1.5,1.37-3.12,2.3-4.85,2.8
		c-1.73,0.5-4.72,0.71-8.96,0.62l-7.5-0.15L375.57,115.89z M381.64,122.03l-0.41,20.67l2.9,0.06c2.85,0.06,4.92-0.23,6.22-0.86
		s2.37-1.71,3.22-3.24c0.85-1.53,1.29-3.42,1.34-5.68c0.07-3.48-0.85-6.19-2.75-8.15c-1.72-1.76-4.51-2.68-8.39-2.75L381.64,122.03z
		"/>
	<path class="st2" d="M410.03,117.3l17.75,2.18l-0.75,6.06l-11.61-1.43l-0.72,5.88l11.61,1.43l-0.73,5.95l-11.61-1.43l-1.05,8.56
		l11.61,1.43l-0.75,6.08l-17.75-2.18L410.03,117.3z"/>
	<path class="st2" d="M438.2,130.04l-5.7-1.24c0.58-2.8,2.04-4.9,4.38-6.3c2.34-1.4,5.1-1.76,8.28-1.07
		c2.05,0.44,3.71,1.2,4.98,2.27c1.27,1.07,2.19,2.41,2.74,4.01c0.55,1.61,0.66,3.2,0.32,4.77c-0.19,0.86-0.51,1.67-0.96,2.43
		c-0.46,0.77-1.08,1.52-1.86,2.26c-0.46,0.43-1.48,1.11-3.06,2.02c-1.51,0.87-2.48,1.51-2.9,1.91c-0.42,0.4-0.83,0.97-1.21,1.71
		s-0.76,1.79-1.12,3.17l-5.9-1.28l0.19-0.98c0.42-1.94,1.16-3.63,2.22-5.07c1.06-1.43,2.53-2.67,4.43-3.72
		c1.83-1.02,2.96-1.74,3.39-2.18c0.43-0.44,0.72-1,0.87-1.68c0.2-0.93-0.01-1.8-0.65-2.61c-0.64-0.81-1.61-1.36-2.91-1.65
		c-1.33-0.29-2.52-0.13-3.54,0.47C439.14,127.89,438.49,128.81,438.2,130.04z M438.68,147.86c1.06,0.23,1.88,0.79,2.47,1.68
		c0.59,0.89,0.77,1.85,0.55,2.88c-0.22,1.03-0.79,1.83-1.69,2.4c-0.9,0.57-1.87,0.74-2.92,0.52c-1.04-0.23-1.85-0.79-2.43-1.68
		s-0.75-1.85-0.52-2.88c0.22-1.03,0.78-1.83,1.66-2.4C436.69,147.81,437.65,147.64,438.68,147.86z"/>
	<path class="st2" d="M490.79,141.57l-5.75,2.22c-0.74-2.68-1.9-4.31-3.47-4.89c-0.77-0.28-1.47-0.31-2.11-0.08
		c-0.64,0.23-1.06,0.6-1.25,1.12c-0.19,0.52-0.2,1.07-0.02,1.66c0.25,0.79,1.19,2.63,2.83,5.53c1.54,2.69,2.46,4.37,2.76,5.03
		c0.74,1.64,1.16,3.09,1.25,4.37c0.09,1.28-0.1,2.56-0.58,3.86c-0.93,2.52-2.57,4.28-4.92,5.28c-2.35,1-4.93,0.98-7.73-0.05
		c-2.19-0.81-3.9-2.05-5.13-3.72c-1.23-1.67-2-3.87-2.3-6.6l6.01-1.15c0.47,3.26,1.67,5.25,3.6,5.96c1,0.37,1.96,0.39,2.86,0.06
		c0.9-0.33,1.49-0.88,1.77-1.65c0.26-0.7,0.26-1.49,0-2.38s-1-2.37-2.23-4.46c-2.34-3.97-3.72-6.87-4.15-8.72s-0.37-3.5,0.18-4.98
		c0.79-2.13,2.27-3.66,4.46-4.58c2.19-0.93,4.47-0.95,6.86-0.07c1.53,0.57,2.86,1.46,3.99,2.68
		C488.84,137.24,489.87,139.09,490.79,141.57z"/>
	<path class="st2" d="M500.41,140.83l16.16,7.66l-2.61,5.52L503.39,149l-2.54,5.35l10.57,5.01l-2.56,5.41l-10.57-5.01l-3.69,7.79
		l10.57,5.01l-2.62,5.54l-16.16-7.66L500.41,140.83z"/>
	<path class="st2" d="M537.93,159.87c3.93,2.45,6.43,5.99,7.48,10.6c1.05,4.61,0.3,8.97-2.25,13.06c-2.53,4.06-6.07,6.62-10.61,7.69
		c-4.55,1.07-8.81,0.36-12.79-2.13c-4.17-2.6-6.74-6.21-7.7-10.82c-0.96-4.61-0.2-8.9,2.27-12.86c1.66-2.66,3.83-4.7,6.5-6.13
		c2.68-1.43,5.55-2.09,8.61-1.99C532.5,157.39,535.33,158.25,537.93,159.87z M534.64,165.01c-2.57-1.6-5.29-2.06-8.16-1.36
		s-5.16,2.42-6.88,5.18c-1.92,3.07-2.33,6.19-1.24,9.36c0.84,2.47,2.37,4.39,4.59,5.78c2.51,1.57,5.21,1.99,8.11,1.28
		c2.9-0.71,5.18-2.4,6.83-5.06c1.65-2.65,2.16-5.44,1.52-8.38S537.19,166.6,534.64,165.01z"/>
	<path class="st2" d="M558.83,174.97l4.86,3.95l-13.37,16.44c-1.15,1.42-1.84,2.52-2.07,3.31c-0.23,0.79-0.2,1.59,0.08,2.4
		c0.28,0.81,0.83,1.55,1.64,2.21c0.85,0.69,1.75,1.09,2.68,1.2s1.77-0.04,2.49-0.45c0.73-0.41,1.78-1.47,3.17-3.17l12.88-15.83
		l4.86,3.95l-12.32,15.16c-2.08,2.56-3.67,4.21-4.76,4.97c-1.09,0.76-2.42,1.27-3.98,1.53c-1.56,0.26-3.05,0.18-4.47-0.24
		c-1.42-0.42-2.83-1.2-4.24-2.34c-1.84-1.5-3.1-3.23-3.78-5.18c-0.68-1.96-0.79-3.81-0.34-5.56c0.45-1.75,1.9-4.14,4.37-7.17
		L558.83,174.97z"/>
	<path class="st2" d="M583,195.46l4.46,4.36L568.73,219l6.5,6.35l-4.16,4.25l-10.96-10.71L583,195.46z"/>
	<path class="st2" d="M618.38,233.84c2.78,3.71,3.82,7.91,3.13,12.59c-0.69,4.68-2.96,8.47-6.83,11.36
		c-3.83,2.86-8.05,3.97-12.68,3.32c-4.62-0.65-8.34-2.86-11.15-6.62c-2.95-3.94-4.03-8.23-3.26-12.87
		c0.77-4.64,3.03-8.36,6.78-11.17c2.51-1.88,5.27-3,8.28-3.36s5.93,0.06,8.75,1.26C614.22,229.56,616.55,231.39,618.38,233.84z
		 M613.46,237.44c-1.82-2.43-4.19-3.84-7.11-4.23s-5.69,0.39-8.29,2.34c-2.9,2.17-4.42,4.93-4.55,8.27
		c-0.11,2.61,0.62,4.96,2.19,7.05c1.77,2.37,4.14,3.75,7.1,4.13c2.96,0.39,5.69-0.36,8.2-2.24c2.5-1.87,3.98-4.29,4.46-7.26
		C615.92,242.53,615.25,239.84,613.46,237.44z"/>
	<path class="st2" d="M632.62,255.76l3.62,6.44c2.33,4.15,3.55,7.52,3.66,10.12s-0.63,5.2-2.22,7.81c-1.58,2.61-3.92,4.78-7.01,6.52
		c-2.2,1.24-4.43,2.01-6.68,2.32c-2.25,0.31-4.35,0.16-6.29-0.44c-1.94-0.6-3.56-1.52-4.87-2.76c-1.31-1.24-3-3.71-5.08-7.4
		l-3.68-6.54L632.62,255.76z M630.42,264.11l-18.02,10.13l1.42,2.52c1.4,2.48,2.7,4.13,3.9,4.93c1.2,0.8,2.67,1.18,4.42,1.13
		c1.75-0.05,3.61-0.62,5.58-1.73c3.03-1.7,4.91-3.88,5.62-6.51c0.64-2.37,0.02-5.25-1.88-8.63L630.42,264.11z"/>
	<path class="st2" d="M648.9,286.2l7.11,16.41l-5.6,2.42l-4.65-10.73l-5.44,2.35l4.65,10.73l-5.5,2.38l-4.65-10.73l-7.91,3.42
		l4.65,10.73l-5.62,2.43l-7.11-16.41L648.9,286.2z"/>
	<path class="st2" d="M637.06,326.4c0.34,1.03,0.27,2.02-0.2,2.98c-0.47,0.96-1.2,1.6-2.2,1.93s-1.98,0.25-2.92-0.24
		s-1.59-1.24-1.92-2.25c-0.33-1.02-0.26-2,0.22-2.94c0.48-0.95,1.22-1.58,2.22-1.91s1.97-0.26,2.91,0.22S636.73,325.4,637.06,326.4z
		 M652.18,316.98l-1.82-5.55c2.71-0.92,5.26-0.72,7.65,0.59c2.39,1.31,4.1,3.51,5.11,6.6c0.65,1.99,0.84,3.8,0.56,5.44
		s-0.97,3.1-2.08,4.39c-1.11,1.29-2.42,2.19-3.95,2.69c-0.83,0.27-1.7,0.41-2.59,0.4c-0.89,0-1.86-0.16-2.89-0.46
		c-0.6-0.18-1.7-0.72-3.29-1.62c-1.52-0.86-2.56-1.37-3.12-1.53c-0.56-0.16-1.26-0.22-2.09-0.18c-0.83,0.04-1.93,0.25-3.31,0.64
		l-1.88-5.74l0.95-0.33c1.89-0.62,3.72-0.84,5.49-0.65s3.59,0.83,5.45,1.94c1.8,1.07,3,1.67,3.6,1.82c0.6,0.15,1.22,0.11,1.89-0.1
		c0.9-0.3,1.54-0.92,1.93-1.88c0.38-0.96,0.36-2.08-0.05-3.35c-0.43-1.3-1.16-2.24-2.19-2.82
		C654.52,316.69,653.39,316.59,652.18,316.98z"/>
	<path class="st2" d="M668.85,368.16l-4.82-3.83c1.94-1.99,2.76-3.82,2.46-5.47c-0.14-0.81-0.48-1.43-1-1.86
		c-0.52-0.44-1.05-0.6-1.6-0.51s-1.02,0.37-1.44,0.82c-0.55,0.61-1.67,2.36-3.34,5.24c-1.54,2.69-2.52,4.33-2.94,4.92
		c-1.04,1.47-2.08,2.57-3.13,3.29c-1.05,0.72-2.26,1.21-3.62,1.45c-2.65,0.47-5-0.05-7.05-1.57c-2.05-1.52-3.34-3.75-3.87-6.69
		c-0.41-2.3-0.21-4.4,0.62-6.31c0.82-1.91,2.33-3.68,4.52-5.33l4.04,4.6c-2.57,2.06-3.68,4.1-3.32,6.12
		c0.19,1.05,0.65,1.89,1.4,2.49c0.74,0.61,1.51,0.84,2.32,0.7c0.73-0.13,1.41-0.53,2.05-1.2c0.63-0.67,1.54-2.07,2.71-4.18
		c2.24-4.03,4.04-6.69,5.42-7.99c1.37-1.3,2.83-2.09,4.38-2.37c2.24-0.4,4.31,0.11,6.21,1.53c1.91,1.42,3.08,3.38,3.53,5.88
		c0.29,1.61,0.19,3.21-0.3,4.8C671.6,364.29,670.52,366.11,668.85,368.16z"/>
	<path class="st2" d="M674.35,376.05l1.59,17.81l-6.08,0.54l-1.04-11.65l-5.9,0.53l1.04,11.65l-5.97,0.53l-1.04-11.65l-8.59,0.76
		l1.04,11.65l-6.1,0.54l-1.59-17.81L674.35,376.05z"/>
	<path class="st2" d="M676.96,418.01c-0.11,4.63-1.89,8.58-5.33,11.83c-3.44,3.25-7.57,4.82-12.39,4.7
		c-4.78-0.12-8.78-1.86-12.01-5.23c-3.23-3.37-4.79-7.41-4.67-12.1c0.12-4.92,1.92-8.96,5.4-12.13c3.48-3.17,7.56-4.7,12.23-4.58
		c3.13,0.08,5.99,0.91,8.58,2.49c2.59,1.58,4.62,3.72,6.09,6.4C676.34,412.07,677.04,414.95,676.96,418.01z M670.87,417.79
		c0.08-3.03-0.92-5.61-2.97-7.72c-2.06-2.12-4.71-3.22-7.96-3.3c-3.62-0.09-6.52,1.14-8.69,3.69c-1.7,1.98-2.58,4.28-2.64,6.89
		c-0.07,2.96,0.93,5.5,3.02,7.64c2.09,2.13,4.7,3.24,7.83,3.32c3.12,0.08,5.78-0.91,7.99-2.95
		C669.65,423.31,670.79,420.79,670.87,417.79z"/>
	<path class="st2" d="M674.6,443.68l-0.93,6.19l-20.95-3.15c-1.8-0.27-3.11-0.31-3.9-0.1c-0.8,0.2-1.47,0.63-2.03,1.29
		c-0.56,0.66-0.91,1.5-1.07,2.53c-0.16,1.09-0.06,2.06,0.33,2.92s0.93,1.5,1.66,1.92c0.73,0.42,2.17,0.79,4.34,1.12l20.18,3.04
		l-0.93,6.19l-19.32-2.9c-3.26-0.49-5.49-1.01-6.7-1.57s-2.32-1.44-3.34-2.65s-1.71-2.54-2.07-3.97c-0.36-1.44-0.41-3.05-0.14-4.84
		c0.35-2.35,1.2-4.31,2.54-5.89c1.34-1.58,2.88-2.62,4.61-3.12s4.53-0.47,8.4,0.11L674.6,443.68z"/>
	<path class="st2" d="M669.23,474.94l-1.49,6.06l-26.04-6.4l-2.17,8.82l-5.78-1.42l3.66-14.88L669.23,474.94z"/>
	<path class="st2" d="M654.08,524.9c-1.8,4.27-4.89,7.3-9.27,9.07c-4.39,1.77-8.8,1.73-13.25-0.14c-4.41-1.85-7.5-4.94-9.28-9.25
		c-1.78-4.32-1.76-8.64,0.06-12.97c1.91-4.53,5.06-7.64,9.45-9.32c4.4-1.68,8.75-1.62,13.06,0.19c2.89,1.21,5.25,3.03,7.09,5.44
		c1.84,2.42,2.95,5.14,3.34,8.18C655.67,519.14,655.27,522.07,654.08,524.9z M648.48,522.47c1.18-2.8,1.19-5.55,0.05-8.28
		c-1.14-2.72-3.21-4.71-6.21-5.97c-3.34-1.4-6.49-1.32-9.44,0.27c-2.3,1.22-3.96,3.04-4.97,5.46c-1.15,2.73-1.14,5.46,0.03,8.21
		c1.17,2.75,3.19,4.73,6.08,5.94c2.88,1.21,5.71,1.26,8.52,0.17C645.33,527.17,647.32,525.24,648.48,522.47z"/>
	<path class="st2" d="M642.36,548.3l-3.73,6.38c-2.4,4.11-4.7,6.87-6.88,8.27c-2.19,1.4-4.8,2.08-7.86,2.03
		c-3.05-0.05-6.11-0.96-9.17-2.75c-2.18-1.27-3.97-2.8-5.38-4.6s-2.34-3.68-2.8-5.66c-0.46-1.98-0.49-3.85-0.08-5.6
		c0.41-1.76,1.68-4.47,3.82-8.13l3.78-6.48L642.36,548.3z M634.04,550.62l-17.85-10.42l-1.46,2.5c-1.44,2.46-2.2,4.41-2.28,5.85
		s0.34,2.9,1.26,4.39c0.92,1.49,2.36,2.8,4.31,3.94c3,1.75,5.82,2.28,8.46,1.56c2.37-0.64,4.54-2.64,6.49-5.99L634.04,550.62z"/>
	<path class="st2" d="M624.31,577.74l-10.56,14.43l-4.92-3.6l6.91-9.44l-4.78-3.5l-6.91,9.44l-4.83-3.54l6.91-9.44l-6.96-5.09
		l-6.91,9.44l-4.94-3.62l10.56-14.43L624.31,577.74z"/>
	<path class="st2" d="M583.67,587.85c-0.72,0.81-1.61,1.26-2.67,1.34c-1.06,0.08-1.99-0.22-2.78-0.92c-0.79-0.7-1.22-1.58-1.28-2.64
		c-0.06-1.06,0.26-2,0.97-2.8s1.59-1.24,2.65-1.3s1.98,0.25,2.77,0.95c0.79,0.7,1.22,1.57,1.28,2.62
		C584.69,586.14,584.37,587.06,583.67,587.85z M599.47,596.11l3.86-4.38c2.16,1.87,3.29,4.17,3.37,6.89
		c0.08,2.73-0.95,5.31-3.1,7.75c-1.38,1.57-2.85,2.65-4.4,3.24c-1.55,0.59-3.17,0.74-4.84,0.44s-3.12-0.98-4.32-2.04
		c-0.66-0.58-1.21-1.25-1.66-2.03s-0.8-1.68-1.07-2.73c-0.15-0.61-0.25-1.83-0.28-3.66c-0.03-1.75-0.11-2.9-0.26-3.46
		c-0.15-0.56-0.45-1.2-0.9-1.89s-1.2-1.54-2.23-2.53l3.99-4.53l0.77,0.65c1.49,1.32,2.61,2.79,3.35,4.41s1.1,3.52,1.09,5.68
		c-0.01,2.09,0.08,3.43,0.25,4.02s0.52,1.11,1.05,1.58c0.71,0.63,1.58,0.86,2.6,0.71c1.02-0.16,1.97-0.74,2.86-1.74
		c0.9-1.02,1.34-2.13,1.32-3.32C600.89,597.98,600.41,596.96,599.47,596.11z"/>
	<path class="st2" d="M563.85,636.44l0.85-6.1c2.7,0.65,4.69,0.43,5.96-0.66c0.62-0.53,0.99-1.14,1.09-1.81
		c0.11-0.67-0.02-1.22-0.37-1.63c-0.36-0.42-0.84-0.69-1.44-0.82c-0.81-0.17-2.88-0.24-6.21-0.21c-3.1,0.04-5.01,0.03-5.74-0.03
		c-1.79-0.14-3.27-0.49-4.43-1.03s-2.19-1.33-3.09-2.38c-1.75-2.04-2.49-4.33-2.23-6.87c0.27-2.54,1.53-4.78,3.8-6.73
		c1.77-1.52,3.68-2.41,5.74-2.67c2.06-0.26,4.35,0.13,6.89,1.19l-1.91,5.82c-3.08-1.17-5.4-1.08-6.96,0.25
		c-0.81,0.7-1.29,1.52-1.44,2.47c-0.15,0.95,0.05,1.73,0.58,2.35c0.48,0.56,1.18,0.95,2.08,1.15c0.9,0.2,2.56,0.28,4.98,0.21
		c4.6-0.12,7.82,0.08,9.64,0.6s3.24,1.38,4.27,2.57c1.48,1.72,2.09,3.76,1.84,6.13c-0.25,2.36-1.34,4.37-3.27,6.03
		c-1.24,1.07-2.67,1.79-4.28,2.18C568.58,636.84,566.46,636.83,563.85,636.44z"/>
	<path class="st2" d="M559.85,645.19l-14.53,10.43l-3.56-4.96l9.5-6.82l-3.45-4.81l-9.5,6.82l-3.49-4.87l9.5-6.82l-5.03-7l-9.5,6.82
		l-3.57-4.98l14.53-10.43L559.85,645.19z"/>
	<path class="st2" d="M525.02,668.78c-4.05,2.25-8.35,2.72-12.9,1.41c-4.55-1.31-7.99-4.08-10.34-8.29
		c-2.32-4.18-2.85-8.52-1.58-13.01s3.95-7.88,8.06-10.16c4.3-2.39,8.7-2.89,13.19-1.5c4.5,1.39,7.88,4.13,10.15,8.22
		c1.52,2.74,2.26,5.62,2.21,8.66c-0.05,3.03-0.86,5.87-2.43,8.5S527.7,667.29,525.02,668.78z M522.12,663.42
		c2.65-1.47,4.37-3.63,5.15-6.48s0.38-5.69-1.2-8.53c-1.76-3.17-4.29-5.04-7.59-5.62c-2.57-0.46-5-0.05-7.28,1.22
		c-2.58,1.44-4.27,3.6-5.05,6.48c-0.78,2.88-0.41,5.69,1.11,8.43c1.51,2.73,3.71,4.52,6.59,5.39
		C516.74,665.17,519.49,664.87,522.12,663.42z"/>
	<path class="st2" d="M501.66,679.77l-5.81,2.33l-7.89-19.66c-0.68-1.69-1.31-2.83-1.89-3.42c-0.58-0.58-1.29-0.95-2.14-1.09
		s-1.76-0.03-2.72,0.36c-1.02,0.41-1.8,1-2.35,1.76c-0.55,0.76-0.82,1.56-0.81,2.4c0.01,0.84,0.42,2.27,1.24,4.31l7.6,18.94
		l-5.81,2.33l-7.27-18.13c-1.23-3.06-1.91-5.25-2.04-6.57c-0.13-1.32,0.07-2.73,0.6-4.22s1.32-2.76,2.38-3.8
		c1.06-1.04,2.42-1.9,4.1-2.57c2.21-0.88,4.33-1.15,6.37-0.79c2.04,0.36,3.72,1.16,5.03,2.4c1.31,1.24,2.7,3.67,4.15,7.3
		L501.66,679.77z"/>
	<path class="st2" d="M472,690.96l-5.98,1.78l-7.66-25.7l-8.71,2.59l-1.7-5.7l14.69-4.38L472,690.96z"/>
	<path class="st2" d="M421.23,703.18c-4.59,0.61-8.77-0.52-12.52-3.4c-3.75-2.88-5.95-6.72-6.59-11.5
		c-0.63-4.74,0.46-8.97,3.28-12.69c2.82-3.72,6.56-5.89,11.21-6.51c4.88-0.65,9.15,0.49,12.83,3.43c3.68,2.94,5.83,6.73,6.45,11.36
		c0.42,3.11,0.05,6.06-1.11,8.87c-1.15,2.81-2.94,5.15-5.37,7.02S424.26,702.77,421.23,703.18z M420.48,697.12
		c3.01-0.4,5.39-1.79,7.16-4.15c1.77-2.36,2.44-5.16,2-8.38c-0.48-3.59-2.15-6.26-5.01-8c-2.22-1.37-4.63-1.87-7.22-1.53
		c-2.93,0.39-5.29,1.79-7.07,4.18c-1.78,2.4-2.46,5.15-2.05,8.25c0.41,3.09,1.8,5.57,4.17,7.43
		C414.84,696.79,417.51,697.52,420.48,697.12z"/>
	<path class="st2" d="M395.45,704.77l-7.39,0.12c-4.76,0.08-8.31-0.46-10.64-1.6s-4.27-3.03-5.81-5.66
		c-1.54-2.63-2.34-5.72-2.4-9.27c-0.04-2.52,0.34-4.85,1.14-6.98c0.8-2.13,1.93-3.9,3.39-5.32c1.45-1.42,3.04-2.41,4.75-2.97
		c1.71-0.56,4.69-0.88,8.93-0.95l7.5-0.12L395.45,704.77z M389.16,698.86l-0.34-20.67l-2.89,0.05c-2.85,0.05-4.91,0.41-6.19,1.08
		s-2.31,1.79-3.1,3.35c-0.79,1.56-1.17,3.47-1.13,5.73c0.06,3.48,1.07,6.16,3.05,8.05c1.78,1.7,4.61,2.51,8.48,2.45L389.16,698.86z"
		/>
	<path class="st2" d="M360.68,704.34l-17.8-1.75l0.6-6.07l11.64,1.15l0.58-5.9l-11.64-1.15l0.59-5.96l11.64,1.15l0.84-8.58
		l-11.64-1.15l0.6-6.1l17.8,1.75L360.68,704.34z"/>
	<path class="st2" d="M332.19,692.28l5.73,1.1c-0.51,2.81-1.92,4.95-4.22,6.41c-2.31,1.46-5.06,1.88-8.25,1.27
		c-2.06-0.4-3.73-1.11-5.03-2.15c-1.3-1.04-2.24-2.35-2.84-3.95c-0.59-1.6-0.74-3.18-0.44-4.76c0.17-0.86,0.47-1.68,0.9-2.46
		s1.04-1.55,1.8-2.31c0.45-0.44,1.45-1.14,3.01-2.1c1.49-0.91,2.44-1.57,2.85-1.98c0.41-0.41,0.8-0.99,1.17-1.74
		c0.37-0.75,0.72-1.81,1.05-3.2l5.93,1.14l-0.17,0.99c-0.38,1.95-1.07,3.66-2.09,5.12c-1.02,1.46-2.47,2.74-4.34,3.83
		c-1.81,1.06-2.92,1.81-3.34,2.26c-0.42,0.45-0.69,1.02-0.83,1.7c-0.18,0.93,0.06,1.8,0.71,2.6c0.66,0.8,1.64,1.32,2.95,1.58
		c1.34,0.26,2.52,0.07,3.53-0.55C331.3,694.46,331.94,693.53,332.19,692.28z M331.27,674.48c-1.06-0.2-1.9-0.74-2.51-1.62
		c-0.61-0.87-0.82-1.83-0.62-2.86s0.74-1.85,1.63-2.44c0.88-0.59,1.85-0.79,2.9-0.59c1.05,0.2,1.87,0.74,2.47,1.62
		c0.6,0.88,0.79,1.83,0.59,2.87s-0.73,1.85-1.6,2.44C333.26,674.49,332.31,674.68,331.27,674.48z"/>
	<path class="st2" d="M279.35,682.05l5.69-2.36c0.8,2.66,2,4.26,3.59,4.81c0.77,0.26,1.48,0.27,2.11,0.03s1.04-0.63,1.22-1.15
		c0.18-0.52,0.17-1.07-0.02-1.66c-0.27-0.78-1.26-2.6-2.97-5.46c-1.61-2.65-2.57-4.31-2.88-4.96c-0.78-1.62-1.24-3.06-1.36-4.34
		c-0.12-1.27,0.04-2.56,0.49-3.87c0.87-2.54,2.47-4.34,4.79-5.4c2.33-1.06,4.9-1.1,7.73-0.14c2.21,0.75,3.95,1.95,5.22,3.59
		c1.27,1.64,2.09,3.82,2.47,6.54l-5.98,1.3c-0.56-3.25-1.8-5.21-3.75-5.87c-1.01-0.35-1.97-0.34-2.86,0.01
		c-0.89,0.35-1.47,0.92-1.73,1.69c-0.24,0.7-0.22,1.49,0.06,2.38c0.28,0.88,1.06,2.35,2.34,4.4c2.44,3.91,3.89,6.78,4.37,8.61
		c0.47,1.83,0.46,3.5-0.05,4.98c-0.73,2.15-2.18,3.71-4.35,4.69c-2.16,0.98-4.45,1.06-6.86,0.23c-1.55-0.53-2.9-1.39-4.05-2.59
		C281.4,686.33,280.34,684.51,279.35,682.05z"/>
	<path class="st2" d="M269.76,683.02l-16.34-7.26l2.48-5.58l10.69,4.75l2.41-5.41l-10.69-4.75l2.43-5.48l10.69,4.75l3.5-7.88
		l-10.69-4.75l2.49-5.6l16.35,7.26L269.76,683.02z"/>
	<path class="st2" d="M231.78,664.9c-3.99-2.36-6.57-5.83-7.74-10.42c-1.17-4.59-0.52-8.96,1.93-13.11
		c2.43-4.12,5.91-6.76,10.42-7.94c4.52-1.18,8.8-0.57,12.84,1.81c4.23,2.5,6.89,6.04,7.96,10.62c1.07,4.58,0.42,8.89-1.96,12.92
		c-1.59,2.7-3.71,4.79-6.35,6.29s-5.49,2.23-8.56,2.2C237.27,667.25,234.42,666.46,231.78,664.9z M234.94,659.68
		c2.61,1.54,5.34,1.93,8.19,1.17c2.85-0.76,5.1-2.55,6.76-5.35c1.84-3.12,2.18-6.25,1.01-9.39c-0.9-2.45-2.48-4.34-4.73-5.67
		c-2.55-1.5-5.26-1.86-8.14-1.08c-2.88,0.78-5.12,2.52-6.71,5.22c-1.59,2.69-2.03,5.49-1.32,8.42
		C230.71,655.93,232.36,658.15,234.94,659.68z"/>
	<path class="st2" d="M210.51,650.31l-4.95-3.83l12.96-16.76c1.12-1.44,1.78-2.56,1.99-3.36s0.16-1.59-0.14-2.4
		c-0.3-0.81-0.87-1.53-1.69-2.17c-0.87-0.67-1.77-1.05-2.71-1.14c-0.94-0.09-1.76,0.08-2.48,0.51s-1.75,1.51-3.09,3.25l-12.49,16.14
		l-4.95-3.83l11.95-15.45c2.02-2.61,3.56-4.3,4.64-5.08c1.08-0.78,2.39-1.32,3.94-1.62c1.56-0.3,3.05-0.26,4.48,0.13
		s2.86,1.13,4.29,2.24c1.88,1.45,3.18,3.15,3.9,5.09c0.72,1.94,0.88,3.79,0.48,5.55c-0.4,1.76-1.8,4.19-4.19,7.27L210.51,650.31z"/>
	<path class="st2" d="M185.85,630.41l-4.57-4.25l18.27-19.63l-6.65-6.19l4.05-4.35l11.22,10.44L185.85,630.41z"/>
	<path class="st2" d="M149.58,592.92c-2.87-3.64-4.01-7.81-3.44-12.51c0.57-4.7,2.76-8.54,6.55-11.52
		c3.76-2.96,7.96-4.17,12.59-3.63s8.41,2.65,11.31,6.34c3.04,3.87,4.23,8.13,3.57,12.79c-0.66,4.66-2.83,8.44-6.5,11.33
		c-2.46,1.94-5.19,3.12-8.2,3.56c-3,0.43-5.93,0.08-8.78-1.05C153.84,597.1,151.47,595.33,149.58,592.92z M154.41,589.2
		c1.88,2.38,4.28,3.74,7.21,4.05c2.93,0.32,5.68-0.53,8.24-2.54c2.85-2.24,4.3-5.03,4.34-8.38c0.05-2.61-0.74-4.94-2.36-7
		c-1.83-2.32-4.23-3.64-7.19-3.96c-2.97-0.31-5.68,0.5-8.14,2.44c-2.45,1.93-3.88,4.38-4.28,7.37
		C151.83,584.17,152.56,586.84,154.41,589.2z"/>
	<path class="st2" d="M134.8,571.34l-3.78-6.35c-2.43-4.09-3.74-7.44-3.9-10.03s0.51-5.21,2.02-7.86c1.52-2.65,3.8-4.88,6.85-6.69
		c2.17-1.29,4.38-2.12,6.62-2.48c2.25-0.36,4.35-0.26,6.3,0.29c1.95,0.55,3.6,1.44,4.94,2.64c1.34,1.21,3.09,3.63,5.26,7.28
		l3.83,6.45L134.8,571.34z M136.8,562.95l17.76-10.57l-1.48-2.49c-1.46-2.45-2.8-4.06-4.01-4.83c-1.22-0.77-2.7-1.11-4.45-1.02
		c-1.75,0.09-3.59,0.71-5.53,1.87c-2.99,1.78-4.81,3.99-5.46,6.65c-0.59,2.39,0.11,5.25,2.09,8.58L136.8,562.95z"/>
	<path class="st2" d="M117.79,541.3l-7.5-16.23l5.54-2.56l4.91,10.61l5.38-2.49l-4.91-10.61l5.44-2.51l4.91,10.61l7.82-3.62
		l-4.91-10.61l5.56-2.57l7.5,16.23L117.79,541.3z"/>
	<path class="st2" d="M113.75,510.62l1.95,5.5c-2.68,0.98-5.24,0.85-7.66-0.4s-4.18-3.41-5.27-6.47c-0.7-1.97-0.93-3.78-0.7-5.43
		c0.24-1.64,0.89-3.12,1.97-4.44c1.08-1.32,2.37-2.25,3.88-2.78c0.83-0.29,1.68-0.45,2.58-0.46c0.89-0.02,1.86,0.11,2.9,0.39
		c0.61,0.16,1.72,0.67,3.33,1.54c1.54,0.83,2.59,1.31,3.15,1.46c0.56,0.15,1.26,0.19,2.09,0.13c0.83-0.06,1.93-0.3,3.29-0.72
		l2.02,5.69l-0.94,0.36c-1.88,0.67-3.7,0.93-5.48,0.79c-1.78-0.14-3.61-0.74-5.5-1.81c-1.83-1.02-3.04-1.6-3.64-1.73
		c-0.6-0.13-1.23-0.08-1.89,0.15c-0.9,0.32-1.52,0.96-1.88,1.93c-0.36,0.97-0.31,2.08,0.13,3.34c0.46,1.29,1.21,2.21,2.26,2.77
		C111.42,510.96,112.55,511.04,113.75,510.62z M128.64,500.83c-0.36-1.02-0.32-2.02,0.12-2.99c0.44-0.97,1.16-1.63,2.16-1.98
		s1.97-0.3,2.93,0.17c0.96,0.46,1.62,1.2,1.98,2.21s0.31,1.99-0.15,2.95c-0.46,0.96-1.18,1.61-2.17,1.96s-1.96,0.3-2.91-0.15
		C129.64,502.54,128.99,501.82,128.64,500.83z"/>
	<path class="st2" d="M95.84,459.88l4.92,3.71c-1.89,2.04-2.66,3.88-2.33,5.53c0.16,0.8,0.51,1.41,1.05,1.84
		c0.53,0.42,1.07,0.58,1.61,0.47c0.54-0.11,1.01-0.4,1.42-0.86c0.54-0.63,1.61-2.4,3.21-5.32c1.47-2.73,2.42-4.39,2.82-4.99
		c1-1.49,2.02-2.62,3.05-3.37c1.04-0.75,2.23-1.26,3.58-1.54c2.63-0.54,4.99-0.07,7.08,1.4c2.09,1.47,3.43,3.67,4.03,6.6
		c0.47,2.29,0.31,4.39-0.46,6.32c-0.77,1.93-2.24,3.74-4.39,5.44l-4.15-4.5c2.52-2.12,3.58-4.19,3.17-6.2
		c-0.21-1.05-0.7-1.87-1.46-2.46c-0.76-0.59-1.54-0.8-2.34-0.64c-0.73,0.15-1.4,0.57-2.02,1.25c-0.62,0.69-1.49,2.1-2.61,4.25
		c-2.14,4.08-3.88,6.79-5.22,8.12c-1.34,1.34-2.78,2.16-4.33,2.48c-2.23,0.45-4.31,0-6.25-1.38c-1.94-1.37-3.16-3.3-3.67-5.79
		c-0.33-1.6-0.27-3.2,0.18-4.8S94.22,461.97,95.84,459.88z"/>
	<path class="st2" d="M90.14,452.11l-2.02-17.77l6.06-0.69l1.32,11.62l5.89-0.67l-1.32-11.62l5.95-0.68l1.32,11.62l8.56-0.97
		l-1.32-11.62l6.09-0.69l2.02,17.77L90.14,452.11z"/>
	<path class="st2" d="M86.52,409.71c0.08-4.63,1.82-8.59,5.23-11.87c3.41-3.28,7.53-4.88,12.35-4.8c4.78,0.08,8.8,1.79,12.06,5.13
		c3.26,3.34,4.85,7.36,4.77,12.06c-0.08,4.92-1.85,8.98-5.3,12.17c-3.45,3.2-7.52,4.76-12.19,4.68c-3.13-0.05-6-0.85-8.6-2.41
		c-2.6-1.56-4.65-3.67-6.15-6.35S86.47,412.77,86.52,409.71z M92.62,409.88c-0.05,3.03,0.96,5.6,3.04,7.7s4.74,3.18,7.99,3.23
		c3.62,0.06,6.51-1.2,8.66-3.76c1.68-1.99,2.54-4.3,2.58-6.92c0.05-2.96-0.98-5.49-3.08-7.61c-2.1-2.12-4.72-3.2-7.85-3.25
		c-3.12-0.05-5.77,0.95-7.97,3.02C93.79,404.34,92.67,406.88,92.62,409.88z"/>
	<path class="st2" d="M88.27,384.52l0.78-6.21l21.02,2.64c1.81,0.23,3.11,0.23,3.9,0.01c0.79-0.22,1.46-0.67,2-1.34
		c0.54-0.67,0.88-1.52,1-2.56c0.14-1.09,0-2.06-0.4-2.91c-0.4-0.85-0.97-1.48-1.7-1.88s-2.19-0.74-4.37-1.01l-20.25-2.54l0.78-6.21
		l19.38,2.43c3.27,0.41,5.52,0.88,6.74,1.41c1.22,0.53,2.36,1.38,3.4,2.57c1.05,1.19,1.77,2.49,2.17,3.92
		c0.4,1.43,0.48,3.04,0.26,4.84c-0.3,2.36-1.09,4.34-2.4,5.95c-1.3,1.61-2.81,2.69-4.54,3.24c-1.72,0.55-4.52,0.58-8.4,0.09
		L88.27,384.52z"/>
	<path class="st2" d="M92.87,353.13l1.34-6.09l26.19,5.76l1.95-8.88l5.81,1.28l-3.29,14.97L92.87,353.13z"/>
	<path class="st2" d="M106.79,302.8c1.69-4.32,4.71-7.42,9.05-9.3s8.76-1.94,13.25-0.18c4.45,1.74,7.62,4.75,9.5,9.02
		c1.88,4.27,1.97,8.59,0.25,12.97c-1.79,4.58-4.87,7.76-9.22,9.55c-4.35,1.79-8.71,1.83-13.06,0.12c-2.92-1.14-5.32-2.9-7.22-5.27
		c-1.89-2.37-3.07-5.07-3.54-8.1C105.35,308.59,105.67,305.65,106.79,302.8z M112.45,305.09c-1.11,2.82-1.05,5.58,0.15,8.27
		c1.21,2.69,3.33,4.63,6.36,5.82c3.37,1.32,6.52,1.16,9.43-0.5c2.27-1.28,3.89-3.14,4.84-5.57c1.08-2.75,1-5.49-0.23-8.21
		c-1.23-2.72-3.31-4.65-6.22-5.79c-2.9-1.14-5.74-1.12-8.52,0.04C115.48,300.31,113.54,302.29,112.45,305.09z"/>
	<path class="st2" d="M117.95,279.1l3.57-6.47c2.3-4.17,4.53-6.98,6.68-8.44c2.15-1.46,4.75-2.2,7.8-2.23
		c3.05-0.03,6.13,0.82,9.24,2.53c2.21,1.22,4.04,2.71,5.49,4.46s2.43,3.62,2.93,5.58c0.51,1.97,0.58,3.83,0.22,5.6
		c-0.36,1.77-1.57,4.5-3.62,8.22l-3.62,6.57L117.95,279.1z M126.2,276.59l18.1,9.99l1.4-2.53c1.38-2.5,2.09-4.46,2.14-5.9
		c0.05-1.44-0.41-2.89-1.37-4.35c-0.96-1.46-2.43-2.74-4.41-3.83c-3.04-1.68-5.88-2.13-8.5-1.36c-2.36,0.7-4.47,2.75-6.34,6.14
		L126.2,276.59z"/>
	<path class="st2" d="M135.26,249.25l10.21-14.68l5.01,3.48l-6.68,9.6l4.86,3.38l6.68-9.6l4.92,3.42l-6.68,9.6l7.08,4.92l6.68-9.6
		l5.03,3.5l-10.21,14.68L135.26,249.25z"/>
	<path class="st2" d="M159.67,230.28l-3.75,4.47c-2.21-1.82-3.39-4.09-3.54-6.81c-0.15-2.72,0.82-5.33,2.91-7.82
		c1.35-1.6,2.79-2.72,4.33-3.35c1.54-0.63,3.15-0.81,4.83-0.55c1.68,0.26,3.14,0.9,4.37,1.94c0.67,0.56,1.24,1.23,1.71,1.99
		c0.47,0.76,0.85,1.66,1.14,2.7c0.17,0.61,0.29,1.82,0.36,3.65c0.07,1.74,0.18,2.9,0.34,3.46c0.16,0.56,0.47,1.18,0.95,1.87
		c0.47,0.69,1.23,1.51,2.29,2.47l-3.88,4.62l-0.78-0.63c-1.52-1.28-2.67-2.72-3.45-4.32c-0.78-1.6-1.19-3.49-1.23-5.66
		c-0.04-2.09-0.16-3.43-0.35-4.02c-0.19-0.58-0.55-1.1-1.08-1.55c-0.73-0.61-1.6-0.82-2.62-0.64c-1.02,0.18-1.96,0.79-2.81,1.81
		c-0.88,1.05-1.29,2.16-1.24,3.35C158.19,228.44,158.7,229.45,159.67,230.28z M175.65,238.15c0.7-0.83,1.58-1.3,2.64-1.41
		s1.99,0.18,2.8,0.85c0.81,0.68,1.25,1.55,1.34,2.61c0.09,1.06-0.21,2-0.9,2.82c-0.69,0.82-1.56,1.27-2.62,1.37
		c-1.06,0.09-1.99-0.2-2.8-0.88s-1.26-1.54-1.35-2.59C174.68,239.89,174.98,238.96,175.65,238.15z"/>
	<path class="st2" d="M194.3,189.1l-0.7,6.12c-2.72-0.59-4.7-0.32-5.95,0.81c-0.61,0.55-0.96,1.16-1.05,1.83
		c-0.09,0.67,0.04,1.22,0.41,1.62s0.85,0.67,1.46,0.78c0.81,0.15,2.89,0.17,6.22,0.06c3.1-0.12,5.01-0.15,5.74-0.11
		c1.79,0.1,3.28,0.41,4.45,0.92c1.17,0.51,2.22,1.28,3.15,2.3c1.8,2,2.6,4.27,2.39,6.81c-0.21,2.55-1.42,4.82-3.64,6.82
		c-1.73,1.56-3.62,2.5-5.68,2.81c-2.05,0.31-4.36-0.03-6.91-1.02l1.77-5.86c3.11,1.09,5.43,0.95,6.95-0.42
		c0.79-0.72,1.25-1.55,1.38-2.5c0.12-0.95-0.09-1.73-0.64-2.34c-0.5-0.55-1.2-0.92-2.1-1.1c-0.91-0.18-2.57-0.21-4.98-0.09
		c-4.6,0.23-7.82,0.11-9.65-0.37c-1.83-0.48-3.28-1.3-4.33-2.47c-1.52-1.69-2.19-3.71-1.99-6.08s1.24-4.4,3.13-6.11
		c1.21-1.1,2.62-1.86,4.23-2.29S191.68,188.77,194.3,189.1z"/>
	<path class="st2" d="M198.07,180.26l14.27-10.78l3.68,4.87l-9.33,7.04l3.57,4.73l9.33-7.04l3.61,4.78l-9.33,7.04l5.19,6.88
		l9.33-7.05l3.69,4.89l-14.27,10.78L198.07,180.26z"/>
	<path class="st2" d="M232.33,155.82c4-2.35,8.28-2.92,12.86-1.72c4.58,1.2,8.09,3.88,10.53,8.04c2.42,4.12,3.06,8.44,1.9,12.97
		c-1.16,4.52-3.76,7.97-7.81,10.35c-4.24,2.49-8.62,3.1-13.15,1.82c-4.53-1.28-7.98-3.94-10.35-7.97c-1.59-2.7-2.4-5.57-2.42-8.6
		c-0.03-3.03,0.71-5.89,2.22-8.55C227.62,159.48,229.69,157.37,232.33,155.82z M235.37,161.12c-2.61,1.54-4.28,3.74-4.99,6.6
		s-0.24,5.7,1.4,8.5c1.84,3.12,4.41,4.93,7.72,5.43c2.58,0.4,4.99-0.07,7.25-1.4c2.55-1.5,4.18-3.7,4.89-6.6
		c0.71-2.9,0.27-5.7-1.32-8.4c-1.58-2.69-3.82-4.43-6.72-5.23S237.96,159.59,235.37,161.12z"/>
	<path class="st2" d="M255.39,144.29l5.75-2.47l8.37,19.46c0.72,1.68,1.38,2.8,1.97,3.37c0.59,0.57,1.31,0.92,2.17,1.04
		c0.85,0.12,1.76-0.02,2.71-0.43c1.01-0.43,1.78-1.04,2.31-1.82c0.53-0.78,0.78-1.58,0.75-2.42c-0.03-0.84-0.48-2.26-1.34-4.28
		L270.02,138l5.75-2.47l7.72,17.94c1.3,3.03,2.03,5.2,2.2,6.52c0.16,1.32,0,2.73-0.49,4.24c-0.49,1.51-1.25,2.79-2.28,3.85
		c-1.03,1.06-2.38,1.96-4.04,2.67c-2.18,0.94-4.3,1.25-6.35,0.95c-2.05-0.31-3.74-1.07-5.09-2.27c-1.34-1.21-2.79-3.61-4.33-7.19
		L255.39,144.29z"/>
	<path class="st2" d="M284.8,132.36l5.93-1.93l8.28,25.51l8.64-2.81l1.84,5.66l-14.57,4.73L284.8,132.36z"/>
</g>
<g>
	<path class="st3" d="M214.14,470.69c0,0-2.84-164.06,93.56-180.64c0,0,73.72-6.76,85.06,103.17"/>
	<path class="st4" d="M347,481.8c0,0,58.16-154.76,132.6-150.6c0,0,88.01,11.07,93.67,158.19"/>
	<path class="st4" d="M230.55,369.87c0,0-2.2,89.84,32.64,51.49c0,0,20.32-58.5,46.45-69.34c0,0,29.03-17.81,20.32,20.53
		c0,0-12.6,38.35,21.28,3.49c0,0,19.17-13.94,23.62,38.35"/>
	<path class="st4" d="M380.28,412.78c0,0,10.29,44.97,34.82,19.11c0,0,38.16-66.74,55.44-15.59c0,0-3.65,54.54,29.41,38.3
		s37.57,16.09,37.57,16.09s28.05,43.53,25.32-46.13"/>
	<path class="st4" d="M208.13,496.98h72.83c0,0,9.39-9.7-1.95-29.1c-11.34-19.4-19.85-3.23-19.85-3.23s-5.67-42.03-25.52-6.47
		c0,0-5.67,12.93-5.67,22.63c0,0-22.68-16.17-34.02,0c0,0-8.51,9.81,0,14.6C193.95,495.42,199.62,496.98,208.13,496.98z"/>
	<path class="st4" d="M369.88,522.29c0,0,53.39,5.06,71.18,2.53c17.8-2.53,20.34-22.78,20.34-22.78s10.17-22.78-25.42-22.78
		c0,0,7.63-30.37-27.97-27.84c0,0-22.88,5.06-22.88,17.72c0,0-12.71-15.18-33.05,2.53c0,0-10.17,12.65-7.63,17.72
		c0,0-14.78-1.46-20.1,8.13c0,0-12.95,24.77,7.39,24.77c20.34,0,22.88,0,22.88,0H369.88z"/>
	<line class="st4" x1="285.98" y1="486.86" x2="341.91" y2="486.86"/>
	<line class="st4" x1="463.94" y1="491.92" x2="573.26" y2="491.92"/>
</g>
<path class="st5" d="M430.41,332.52c-15.08,8.87-37.4-1.11-37.4-1.11s2.12-24.36,17.2-33.23c15.08-8.87,37.4,1.11,37.4,1.11
	S445.49,323.65,430.41,332.52z"/>
<path class="st5" d="M395.82,287.19c6.15,12.44-2.06,29.05-2.06,29.05s-18.18-3.56-24.33-16s2.06-29.05,2.06-29.05
	S389.67,274.75,395.82,287.19z"/>
</svg>
