<?xml version="1.0" encoding="utf-8"?>
<!-- Generator: Adobe Illustrator 27.4.0, SVG Export Plug-In . SVG Version: 6.00 Build 0)  -->
<svg version="1.1" id="레이어_1" xmlns="http://www.w3.org/2000/svg" xmlns:xlink="http://www.w3.org/1999/xlink" x="0px"
	 y="0px" viewBox="0 0 762.52 822.05" style="enable-background:new 0 0 762.52 822.05;" xml:space="preserve">
<style type="text/css">
	.st0{fill:none;stroke:#463C33;stroke-width:3.7343;stroke-miterlimit:10;}
	.st1{fill:none;stroke:#463C33;stroke-width:2.9231;stroke-miterlimit:10;}
	.st2{fill:none;stroke:#463C33;stroke-width:2.6294;stroke-miterlimit:10;}
	.st3{fill:none;stroke:#463C33;stroke-width:2.7692;stroke-linecap:round;stroke-linejoin:round;stroke-dasharray:2.9965,5.9929;}
	.st4{fill:#463C33;}
	.st5{fill:none;stroke:#463C33;stroke-width:4;stroke-linecap:round;stroke-linejoin:round;stroke-miterlimit:10;}
	.st6{fill:#ABB868;}
</style>
<g>
	<circle class="st0" cx="381.26" cy="411.02" r="318.32"/>
	<circle class="st1" cx="381.26" cy="411.02" r="249.17"/>
	<circle class="st2" cx="381.26" cy="411.02" r="224.13"/>
	<g>
		<circle class="st3" cx="381.26" cy="411.02" r="236.06"/>
	</g>
	<g>
		<path class="st4" d="M349.31,120.04c4.58-0.5,8.69,0.73,12.35,3.68c3.66,2.95,5.74,6.81,6.26,11.58
			c0.52,4.72-0.67,8.89-3.56,12.52c-2.89,3.62-6.66,5.69-11.29,6.2c-4.86,0.53-9.07-0.71-12.65-3.71
			c-3.58-3.01-5.62-6.82-6.13-11.44c-0.34-3.09,0.1-6.02,1.31-8.78s3.05-5.04,5.5-6.84C343.55,121.43,346.29,120.37,349.31,120.04z
			 M349.91,126.07c-2.99,0.33-5.4,1.64-7.21,3.95c-1.81,2.3-2.54,5.06-2.19,8.27c0.39,3.58,1.98,6.27,4.78,8.07
			c2.17,1.41,4.55,1.97,7.13,1.69c2.92-0.32,5.29-1.65,7.12-3.98c1.82-2.34,2.57-5.05,2.23-8.14c-0.34-3.08-1.66-5.57-3.96-7.48
			C355.5,126.54,352.87,125.75,349.91,126.07z"/>
		<path class="st4" d="M375.22,118.93l7.34,0.15c4.73,0.09,8.23,0.75,10.5,1.97s4.13,3.16,5.57,5.83s2.12,5.77,2.05,9.29
			c-0.05,2.51-0.51,4.8-1.39,6.89s-2.06,3.81-3.55,5.16c-1.49,1.36-3.1,2.28-4.82,2.78c-1.72,0.5-4.69,0.7-8.9,0.62l-7.45-0.15
			L375.22,118.93z M381.25,125.03l-0.41,20.52l2.88,0.06c2.83,0.06,4.89-0.23,6.18-0.85c1.29-0.62,2.35-1.7,3.19-3.21
			c0.84-1.52,1.28-3.4,1.33-5.64c0.07-3.45-0.84-6.15-2.74-8.09c-1.71-1.75-4.48-2.66-8.33-2.74L381.25,125.03z"/>
		<path class="st4" d="M409.47,120.33l17.63,2.17l-0.74,6.02l-11.53-1.42l-0.72,5.84l11.53,1.42l-0.73,5.91l-11.53-1.42l-1.04,8.5
			l11.53,1.42l-0.74,6.04l-17.63-2.17L409.47,120.33z"/>
		<path class="st4" d="M437.42,132.98l-5.66-1.23c0.57-2.78,2.02-4.87,4.35-6.26c2.32-1.39,5.06-1.75,8.22-1.06
			c2.03,0.44,3.68,1.19,4.94,2.25c1.26,1.06,2.17,2.39,2.72,3.99c0.55,1.6,0.66,3.18,0.32,4.73c-0.19,0.85-0.5,1.66-0.96,2.42
			c-0.45,0.76-1.07,1.51-1.85,2.25c-0.46,0.43-1.47,1.1-3.04,2.01c-1.5,0.87-2.46,1.5-2.88,1.9s-0.82,0.96-1.21,1.7
			c-0.38,0.73-0.76,1.78-1.12,3.15l-5.86-1.27l0.19-0.98c0.42-1.93,1.15-3.61,2.2-5.03c1.05-1.42,2.52-2.66,4.4-3.7
			c1.82-1.01,2.94-1.73,3.37-2.17s0.71-0.99,0.86-1.67c0.2-0.92-0.02-1.79-0.65-2.6s-1.6-1.35-2.89-1.64
			c-1.33-0.29-2.5-0.13-3.52,0.46C438.36,130.84,437.71,131.75,437.42,132.98z M437.9,150.68c1.05,0.23,1.87,0.78,2.46,1.67
			s0.77,1.83,0.54,2.86c-0.22,1.02-0.78,1.82-1.67,2.39c-0.89,0.57-1.86,0.74-2.9,0.51c-1.04-0.23-1.84-0.78-2.41-1.67
			c-0.57-0.89-0.74-1.84-0.52-2.86c0.22-1.02,0.77-1.82,1.65-2.38S436.88,150.45,437.9,150.68z"/>
		<path class="st4" d="M489.66,144.42l-5.71,2.21c-0.73-2.66-1.88-4.28-3.45-4.86c-0.76-0.28-1.46-0.31-2.1-0.08
			c-0.64,0.23-1.05,0.6-1.24,1.11c-0.19,0.51-0.2,1.06-0.02,1.64c0.25,0.78,1.18,2.61,2.81,5.5c1.53,2.67,2.44,4.34,2.74,5
			c0.74,1.62,1.15,3.07,1.24,4.34s-0.1,2.54-0.58,3.83c-0.92,2.5-2.55,4.25-4.89,5.25c-2.33,0.99-4.89,0.98-7.68-0.05
			c-2.17-0.8-3.87-2.04-5.09-3.7c-1.22-1.66-1.98-3.85-2.29-6.55l5.97-1.14c0.47,3.24,1.66,5.21,3.58,5.92
			c1,0.37,1.94,0.39,2.84,0.06c0.89-0.33,1.48-0.88,1.76-1.64c0.26-0.69,0.25-1.48,0-2.36c-0.26-0.88-1-2.36-2.22-4.43
			c-2.32-3.94-3.7-6.83-4.13-8.66c-0.43-1.83-0.37-3.48,0.17-4.95c0.78-2.12,2.26-3.63,4.43-4.55c2.17-0.92,4.44-0.94,6.81-0.07
			c1.52,0.56,2.84,1.45,3.96,2.67C487.72,140.12,488.74,141.96,489.66,144.42z"/>
		<path class="st4" d="M499.21,143.69l16.05,7.6l-2.59,5.48l-10.5-4.97l-2.52,5.32l10.5,4.97l-2.55,5.38l-10.5-4.97l-3.67,7.74
			l10.5,4.97l-2.6,5.5l-16.05-7.6L499.21,143.69z"/>
		<path class="st4" d="M536.48,162.6c3.91,2.44,6.38,5.95,7.43,10.53c1.05,4.58,0.3,8.91-2.23,12.97
			c-2.51,4.03-6.03,6.57-10.54,7.63c-4.51,1.06-8.75,0.36-12.71-2.11c-4.14-2.58-6.69-6.17-7.65-10.74
			c-0.96-4.58-0.2-8.83,2.26-12.78c1.65-2.64,3.8-4.67,6.46-6.09c2.66-1.42,5.51-2.08,8.55-1.98
			C531.09,160.14,533.9,160.99,536.48,162.6z M533.21,167.71c-2.56-1.59-5.26-2.05-8.11-1.35c-2.85,0.69-5.13,2.41-6.84,5.15
			c-1.9,3.05-2.31,6.15-1.23,9.3c0.84,2.45,2.36,4.36,4.56,5.74c2.49,1.55,5.18,1.98,8.05,1.27s5.14-2.38,6.79-5.02
			c1.64-2.63,2.14-5.4,1.51-8.32C537.32,171.53,535.74,169.28,533.21,167.71z"/>
		<path class="st4" d="M557.22,177.58l4.82,3.92l-13.27,16.33c-1.14,1.41-1.83,2.5-2.06,3.28c-0.23,0.78-0.2,1.58,0.08,2.39
			s0.83,1.54,1.63,2.19c0.85,0.69,1.73,1.09,2.66,1.2c0.93,0.11,1.75-0.04,2.48-0.45s1.77-1.46,3.15-3.15l12.78-15.73l4.82,3.92
			l-12.24,15.05c-2.06,2.54-3.64,4.19-4.73,4.94c-1.09,0.75-2.41,1.26-3.96,1.52s-3.03,0.18-4.44-0.23
			c-1.41-0.42-2.81-1.19-4.21-2.33c-1.83-1.49-3.08-3.2-3.75-5.15c-0.67-1.94-0.79-3.78-0.34-5.52c0.44-1.74,1.89-4.11,4.34-7.12
			L557.22,177.58z"/>
		<path class="st4" d="M581.23,197.92l4.43,4.33l-18.61,19.06l6.46,6.3l-4.12,4.23l-10.89-10.63L581.23,197.92z"/>
		<path class="st4" d="M616.36,236.01c2.76,3.69,3.8,7.85,3.11,12.5s-2.94,8.41-6.78,11.28c-3.8,2.85-8,3.95-12.59,3.3
			s-8.28-2.84-11.08-6.57c-2.93-3.91-4.01-8.17-3.24-12.78s3.01-8.31,6.73-11.09c2.49-1.86,5.23-2.98,8.22-3.34
			c2.99-0.36,5.89,0.06,8.69,1.25C612.22,231.76,614.53,233.58,616.36,236.01z M611.46,239.59c-1.81-2.41-4.16-3.81-7.07-4.2
			c-2.91-0.39-5.65,0.39-8.24,2.32c-2.88,2.16-4.38,4.9-4.51,8.22c-0.11,2.59,0.62,4.92,2.17,7c1.76,2.35,4.11,3.72,7.05,4.1
			c2.94,0.38,5.65-0.36,8.14-2.22c2.48-1.86,3.95-4.26,4.42-7.21C613.91,244.65,613.25,241.98,611.46,239.59z"/>
		<path class="st4" d="M630.52,257.8l3.6,6.4c2.32,4.12,3.53,7.47,3.64,10.05c0.11,2.58-0.63,5.16-2.2,7.75
			c-1.57,2.59-3.89,4.75-6.96,6.48c-2.19,1.23-4.4,2-6.64,2.3c-2.24,0.3-4.32,0.16-6.25-0.44c-1.93-0.6-3.54-1.51-4.84-2.74
			s-2.98-3.68-5.05-7.35l-3.65-6.49L630.52,257.8z M628.33,266.09l-17.89,10.06l1.41,2.51c1.39,2.47,2.68,4.1,3.87,4.89
			c1.19,0.79,2.66,1.17,4.39,1.12c1.74-0.05,3.58-0.62,5.54-1.72c3.01-1.69,4.87-3.85,5.59-6.47c0.64-2.36,0.02-5.21-1.87-8.57
			L628.33,266.09z"/>
		<path class="st4" d="M646.69,288.03l7.06,16.3l-5.56,2.41l-4.62-10.66l-5.4,2.34l4.62,10.66l-5.46,2.37l-4.62-10.66l-7.86,3.4
			l4.62,10.66l-5.58,2.42l-7.06-16.3L646.69,288.03z"/>
		<path class="st4" d="M634.93,327.94c0.33,1.02,0.27,2.01-0.19,2.96s-1.19,1.59-2.19,1.92s-1.96,0.25-2.91-0.23
			c-0.94-0.48-1.58-1.23-1.91-2.24s-0.26-1.98,0.22-2.92c0.48-0.94,1.21-1.57,2.21-1.9c0.99-0.33,1.96-0.25,2.89,0.22
			S634.6,326.94,634.93,327.94z M649.94,318.57l-1.8-5.51c2.69-0.91,5.22-0.72,7.6,0.58c2.38,1.3,4.07,3.48,5.08,6.55
			c0.65,1.98,0.83,3.78,0.56,5.4c-0.27,1.63-0.96,3.08-2.06,4.37c-1.1,1.28-2.41,2.17-3.92,2.67c-0.83,0.27-1.68,0.4-2.57,0.4
			s-1.84-0.16-2.87-0.46c-0.6-0.18-1.69-0.71-3.27-1.6c-1.51-0.86-2.54-1.36-3.09-1.52c-0.56-0.16-1.25-0.22-2.07-0.18
			c-0.83,0.04-1.92,0.25-3.28,0.63l-1.87-5.7l0.94-0.33c1.88-0.62,3.7-0.83,5.46-0.65c1.76,0.18,3.56,0.83,5.42,1.93
			c1.79,1.06,2.98,1.66,3.57,1.81s1.22,0.11,1.88-0.1c0.9-0.29,1.53-0.92,1.91-1.87c0.38-0.95,0.36-2.06-0.05-3.32
			c-0.42-1.29-1.15-2.22-2.18-2.8C652.27,318.29,651.15,318.19,649.94,318.57z"/>
		<path class="st4" d="M666.51,369.37l-4.79-3.8c1.92-1.98,2.74-3.79,2.44-5.44c-0.14-0.8-0.47-1.42-0.99-1.85
			c-0.52-0.43-1.05-0.6-1.58-0.5c-0.54,0.1-1.01,0.37-1.43,0.82c-0.55,0.61-1.66,2.35-3.31,5.21c-1.53,2.67-2.5,4.31-2.92,4.89
			c-1.03,1.46-2.06,2.55-3.11,3.27s-2.25,1.2-3.6,1.44c-2.63,0.47-4.96-0.05-7-1.56s-3.32-3.73-3.84-6.65
			c-0.41-2.28-0.21-4.37,0.61-6.26s2.31-3.66,4.49-5.29l4.01,4.57c-2.55,2.05-3.65,4.08-3.29,6.08c0.19,1.05,0.65,1.87,1.39,2.48
			c0.74,0.6,1.5,0.83,2.3,0.69c0.73-0.13,1.4-0.53,2.03-1.2c0.63-0.67,1.53-2.05,2.69-4.15c2.22-4,4.01-6.65,5.38-7.94
			c1.36-1.29,2.81-2.08,4.35-2.35c2.22-0.4,4.28,0.11,6.17,1.52c1.89,1.41,3.06,3.36,3.51,5.84c0.29,1.6,0.19,3.19-0.29,4.77
			C669.24,365.52,668.17,367.33,666.51,369.37z"/>
		<path class="st4" d="M671.97,377.2l1.58,17.69l-6.04,0.54l-1.03-11.57l-5.86,0.52l1.03,11.57l-5.93,0.53l-1.03-11.57l-8.53,0.76
			l1.03,11.57l-6.06,0.54l-1.58-17.69L671.97,377.2z"/>
		<path class="st4" d="M674.59,418.87c-0.11,4.6-1.87,8.52-5.29,11.75c-3.41,3.23-7.51,4.79-12.31,4.67
			c-4.75-0.12-8.72-1.85-11.93-5.2s-4.76-7.35-4.64-12.01c0.12-4.88,1.91-8.9,5.36-12.05c3.45-3.15,7.5-4.67,12.15-4.55
			c3.11,0.08,5.95,0.9,8.53,2.47c2.57,1.57,4.59,3.69,6.05,6.36C673.97,412.98,674.67,415.83,674.59,418.87z M668.53,418.66
			c0.07-3.01-0.91-5.57-2.96-7.67c-2.04-2.1-4.68-3.19-7.91-3.27c-3.6-0.09-6.47,1.13-8.63,3.67c-1.69,1.97-2.56,4.25-2.62,6.85
			c-0.07,2.94,0.93,5.46,3,7.58c2.07,2.12,4.67,3.21,7.78,3.29c3.1,0.08,5.74-0.9,7.94-2.93
			C667.33,424.14,668.46,421.64,668.53,418.66z"/>
		<path class="st4" d="M672.25,444.37l-0.92,6.15l-20.81-3.12c-1.79-0.27-3.08-0.3-3.87-0.1c-0.79,0.2-1.46,0.63-2.01,1.29
			s-0.91,1.49-1.06,2.51c-0.16,1.08-0.05,2.05,0.32,2.9c0.38,0.85,0.93,1.49,1.65,1.9c0.72,0.41,2.16,0.78,4.32,1.11l20.04,3.01
			l-0.92,6.15l-19.19-2.88c-3.24-0.49-5.46-1-6.66-1.56c-1.2-0.55-2.31-1.43-3.32-2.63c-1.01-1.2-1.7-2.52-2.06-3.94
			c-0.36-1.43-0.41-3.03-0.14-4.81c0.35-2.33,1.19-4.28,2.52-5.85c1.33-1.57,2.86-2.6,4.58-3.1c1.72-0.5,4.5-0.47,8.34,0.11
			L672.25,444.37z"/>
		<path class="st4" d="M666.94,475.39l-1.48,6.02l-25.87-6.35l-2.15,8.77l-5.74-1.41l3.63-14.78L666.94,475.39z"/>
		<path class="st4" d="M651.9,525.05c-1.78,4.24-4.85,7.25-9.21,9.01c-4.36,1.76-8.74,1.72-13.16-0.14
			c-4.38-1.84-7.45-4.9-9.22-9.19c-1.77-4.29-1.75-8.58,0.06-12.88c1.89-4.5,5.02-7.59,9.38-9.26c4.36-1.67,8.69-1.61,12.97,0.19
			c2.87,1.2,5.22,3,7.04,5.4s2.93,5.11,3.32,8.13C653.48,519.33,653.08,522.24,651.9,525.05z M646.34,522.64
			c1.17-2.78,1.18-5.52,0.04-8.22c-1.14-2.7-3.19-4.68-6.17-5.93c-3.32-1.39-6.44-1.3-9.37,0.27c-2.29,1.22-3.93,3.02-4.94,5.42
			c-1.14,2.71-1.13,5.43,0.03,8.15c1.16,2.73,3.17,4.69,6.04,5.9c2.86,1.2,5.68,1.25,8.46,0.17S645.19,525.39,646.34,522.64z"/>
		<path class="st4" d="M640.27,548.3l-3.7,6.34c-2.38,4.08-4.66,6.82-6.83,8.22s-4.77,2.07-7.8,2.02c-3.03-0.04-6.07-0.96-9.11-2.73
			c-2.17-1.26-3.95-2.78-5.34-4.56s-2.32-3.65-2.78-5.62c-0.46-1.96-0.49-3.82-0.08-5.56c0.4-1.74,1.67-4.44,3.79-8.08l3.75-6.43
			L640.27,548.3z M632.01,550.6l-17.73-10.35l-1.45,2.48c-1.43,2.45-2.18,4.38-2.26,5.81c-0.08,1.43,0.34,2.88,1.25,4.36
			c0.92,1.47,2.34,2.78,4.28,3.91c2.98,1.74,5.79,2.26,8.4,1.55c2.36-0.64,4.5-2.62,6.44-5.95L632.01,550.6z"/>
		<path class="st4" d="M622.37,577.52l-10.49,14.34l-4.89-3.58l6.86-9.37l-4.75-3.47l-6.86,9.38l-4.8-3.51l6.85-9.37l-6.91-5.05
			l-6.86,9.38l-4.91-3.59l10.48-14.34L622.37,577.52z"/>
		<path class="st4" d="M582.01,587.58c-0.71,0.81-1.6,1.25-2.65,1.33c-1.06,0.08-1.98-0.22-2.76-0.92
			c-0.79-0.69-1.21-1.57-1.27-2.62c-0.06-1.06,0.26-1.98,0.96-2.78c0.7-0.8,1.58-1.23,2.63-1.29c1.05-0.07,1.97,0.25,2.75,0.94
			c0.79,0.69,1.21,1.56,1.28,2.6S582.71,586.79,582.01,587.58z M597.7,595.77l3.83-4.35c2.15,1.86,3.27,4.14,3.35,6.85
			c0.08,2.71-0.94,5.27-3.08,7.7c-1.37,1.56-2.83,2.63-4.37,3.22c-1.54,0.59-3.14,0.73-4.81,0.44c-1.67-0.3-3.09-0.97-4.29-2.02
			c-0.65-0.58-1.2-1.25-1.65-2.01c-0.45-0.77-0.8-1.67-1.06-2.71c-0.15-0.61-0.25-1.82-0.28-3.63c-0.03-1.73-0.11-2.88-0.26-3.44
			c-0.15-0.56-0.44-1.19-0.89-1.88c-0.45-0.69-1.19-1.53-2.21-2.51l3.96-4.5l0.76,0.64c1.48,1.31,2.59,2.76,3.32,4.37
			c0.73,1.61,1.1,3.49,1.08,5.64c0,2.08,0.08,3.41,0.25,4c0.17,0.58,0.52,1.11,1.04,1.56c0.71,0.62,1.57,0.86,2.58,0.7
			s1.96-0.73,2.84-1.73c0.9-1.02,1.33-2.12,1.31-3.3C599.12,597.63,598.64,596.62,597.7,595.77z"/>
		<path class="st4" d="M562.37,635.83l0.84-6.06c2.68,0.65,4.66,0.43,5.92-0.66c0.62-0.53,0.98-1.13,1.09-1.79
			c0.11-0.67-0.02-1.21-0.37-1.62c-0.36-0.41-0.83-0.68-1.43-0.81c-0.8-0.17-2.86-0.23-6.17-0.21c-3.08,0.04-4.98,0.03-5.7-0.03
			c-1.78-0.14-3.25-0.48-4.4-1.02c-1.15-0.54-2.18-1.32-3.07-2.36c-1.74-2.02-2.48-4.3-2.22-6.82c0.26-2.52,1.52-4.75,3.77-6.69
			c1.76-1.51,3.66-2.4,5.7-2.66c2.04-0.26,4.32,0.13,6.84,1.18l-1.9,5.78c-3.06-1.16-5.37-1.07-6.91,0.26
			c-0.81,0.69-1.28,1.51-1.43,2.45c-0.14,0.94,0.05,1.72,0.58,2.33c0.48,0.56,1.17,0.94,2.06,1.14c0.9,0.2,2.54,0.27,4.95,0.21
			c4.57-0.12,7.76,0.08,9.57,0.59c1.81,0.52,3.22,1.37,4.24,2.55c1.47,1.71,2.08,3.74,1.83,6.08c-0.25,2.35-1.33,4.34-3.25,5.99
			c-1.23,1.06-2.65,1.78-4.25,2.17C567.07,636.22,564.97,636.22,562.37,635.83z"/>
		<path class="st4" d="M558.4,644.52l-14.43,10.36l-3.54-4.92l9.43-6.78l-3.43-4.78l-9.43,6.78l-3.47-4.83l9.43-6.78l-4.99-6.95
			l-9.43,6.78l-3.55-4.94l14.43-10.36L558.4,644.52z"/>
		<path class="st4" d="M523.83,667.97c-4.02,2.24-8.29,2.71-12.81,1.41c-4.52-1.3-7.94-4.05-10.27-8.23
			c-2.31-4.15-2.84-8.46-1.58-12.92c1.26-4.46,3.92-7.83,8-10.1c4.27-2.38,8.63-2.87,13.1-1.5c4.47,1.38,7.83,4.1,10.09,8.16
			c1.51,2.72,2.25,5.58,2.2,8.6c-0.04,3.01-0.85,5.83-2.41,8.44C528.59,664.45,526.49,666.49,523.83,667.97z M520.94,662.64
			c2.63-1.46,4.33-3.61,5.11-6.44c0.77-2.83,0.38-5.65-1.2-8.47c-1.75-3.14-4.26-5-7.54-5.58c-2.55-0.45-4.96-0.05-7.23,1.21
			c-2.57,1.43-4.24,3.57-5.01,6.43c-0.77,2.86-0.4,5.65,1.11,8.37c1.51,2.71,3.69,4.49,6.55,5.35S518.33,664.09,520.94,662.64z"/>
		<path class="st4" d="M500.63,678.89l-5.77,2.32l-7.85-19.52c-0.68-1.68-1.3-2.81-1.88-3.39s-1.28-0.94-2.13-1.09
			s-1.75-0.02-2.7,0.36c-1.01,0.41-1.79,0.99-2.34,1.75s-0.81,1.55-0.81,2.38c0.01,0.83,0.42,2.26,1.23,4.28l7.56,18.81l-5.77,2.32
			l-7.23-18c-1.22-3.04-1.9-5.21-2.03-6.53c-0.13-1.31,0.07-2.71,0.59-4.2c0.53-1.48,1.31-2.74,2.36-3.77
			c1.05-1.03,2.41-1.88,4.08-2.56c2.19-0.88,4.3-1.14,6.32-0.79c2.03,0.35,3.69,1.15,5,2.38s2.68,3.65,4.13,7.25L500.63,678.89z"/>
		<path class="st4" d="M471.18,690.02l-5.93,1.77l-7.62-25.52l-8.65,2.58l-1.69-5.66l14.58-4.35L471.18,690.02z"/>
		<path class="st4" d="M420.77,702.19c-4.56,0.61-8.71-0.51-12.44-3.37c-3.73-2.86-5.91-6.67-6.55-11.42
			c-0.63-4.71,0.45-8.91,3.25-12.6c2.8-3.7,6.51-5.85,11.13-6.47c4.84-0.65,9.09,0.48,12.74,3.4c3.65,2.92,5.79,6.68,6.41,11.28
			c0.42,3.08,0.05,6.02-1.09,8.81c-1.14,2.79-2.92,5.11-5.33,6.98C426.49,700.65,423.78,701.79,420.77,702.19z M420.02,696.18
			c2.99-0.4,5.36-1.78,7.11-4.12c1.75-2.35,2.42-5.12,1.99-8.32c-0.48-3.57-2.14-6.22-4.98-7.95c-2.21-1.36-4.6-1.86-7.17-1.51
			c-2.91,0.39-5.25,1.78-7.01,4.16c-1.77,2.38-2.44,5.11-2.03,8.2c0.41,3.07,1.79,5.53,4.14,7.38
			C414.42,695.85,417.07,696.57,420.02,696.18z"/>
		<path class="st4" d="M395.23,703.79l-7.34,0.12c-4.73,0.08-8.25-0.45-10.57-1.59s-4.24-3.01-5.77-5.63
			c-1.53-2.62-2.33-5.68-2.38-9.21c-0.04-2.51,0.34-4.82,1.14-6.93c0.8-2.12,1.92-3.88,3.36-5.29c1.44-1.41,3.01-2.39,4.72-2.95
			c1.7-0.56,4.66-0.87,8.87-0.94l7.45-0.12L395.23,703.79z M388.98,697.92l-0.33-20.53l-2.88,0.05c-2.83,0.05-4.88,0.4-6.14,1.07
			c-1.26,0.67-2.29,1.78-3.08,3.33c-0.79,1.55-1.16,3.44-1.12,5.69c0.06,3.45,1.07,6.12,3.03,7.99c1.77,1.68,4.58,2.5,8.42,2.43
			L388.98,697.92z"/>
		<path class="st4" d="M360.66,703.38l-17.68-1.73l0.59-6.03l11.56,1.13l0.57-5.86l-11.56-1.13l0.58-5.92l11.56,1.13l0.83-8.52
			l-11.56-1.13l0.59-6.05l17.68,1.73L360.66,703.38z"/>
		<path class="st4" d="M332.38,691.43l5.69,1.09c-0.5,2.79-1.9,4.92-4.19,6.37c-2.29,1.45-5.02,1.87-8.19,1.27
			c-2.04-0.39-3.71-1.1-5-2.13s-2.23-2.33-2.82-3.92s-0.74-3.16-0.44-4.72c0.16-0.86,0.46-1.67,0.89-2.44
			c0.43-0.77,1.03-1.54,1.79-2.29c0.44-0.44,1.44-1.14,2.99-2.09c1.48-0.9,2.42-1.56,2.83-1.97c0.41-0.41,0.8-0.99,1.16-1.73
			c0.37-0.74,0.71-1.8,1.04-3.18l5.89,1.13l-0.17,0.98c-0.37,1.94-1.06,3.64-2.08,5.09c-1.01,1.45-2.45,2.72-4.31,3.8
			c-1.79,1.05-2.9,1.8-3.31,2.25c-0.42,0.45-0.69,1.01-0.82,1.69c-0.18,0.93,0.06,1.79,0.71,2.58c0.65,0.79,1.63,1.31,2.93,1.56
			c1.33,0.25,2.5,0.07,3.51-0.55C331.5,693.6,332.13,692.67,332.38,691.43z M331.46,673.75c-1.06-0.2-1.89-0.74-2.5-1.6
			c-0.61-0.87-0.81-1.81-0.62-2.84c0.2-1.03,0.73-1.84,1.61-2.43c0.88-0.59,1.84-0.79,2.88-0.59s1.86,0.74,2.45,1.61
			c0.59,0.87,0.79,1.82,0.59,2.85c-0.2,1.03-0.73,1.83-1.59,2.42C333.43,673.76,332.49,673.95,331.46,673.75z"/>
		<path class="st4" d="M279.89,681.31l5.65-2.35c0.8,2.64,1.99,4.23,3.57,4.77c0.77,0.26,1.47,0.27,2.1,0.03
			c0.63-0.25,1.03-0.63,1.21-1.14c0.18-0.52,0.17-1.06-0.02-1.64c-0.27-0.78-1.25-2.58-2.95-5.42c-1.6-2.63-2.55-4.28-2.86-4.93
			c-0.78-1.61-1.23-3.04-1.35-4.31c-0.12-1.27,0.04-2.55,0.48-3.84c0.86-2.53,2.45-4.32,4.75-5.37c2.31-1.05,4.87-1.1,7.68-0.14
			c2.19,0.75,3.92,1.94,5.18,3.57c1.26,1.63,2.08,3.79,2.45,6.49l-5.94,1.29c-0.55-3.23-1.79-5.17-3.72-5.83
			c-1.01-0.34-1.95-0.34-2.84,0.01c-0.88,0.35-1.46,0.91-1.72,1.68c-0.24,0.7-0.22,1.48,0.06,2.36s1.05,2.33,2.33,4.37
			c2.42,3.88,3.87,6.73,4.34,8.55c0.47,1.82,0.46,3.47-0.05,4.95c-0.73,2.14-2.17,3.69-4.32,4.66c-2.15,0.97-4.42,1.05-6.81,0.24
			c-1.54-0.52-2.88-1.38-4.03-2.57S280.87,683.75,279.89,681.31z"/>
		<path class="st4" d="M270.36,682.28l-16.24-7.2l2.46-5.54l10.62,4.71l2.38-5.38l-10.62-4.71l2.41-5.44l10.62,4.71l3.47-7.83
			l-10.62-4.71l2.47-5.56l16.24,7.2L270.36,682.28z"/>
		<path class="st4" d="M232.63,664.31c-3.97-2.34-6.53-5.79-7.69-10.34c-1.16-4.55-0.52-8.9,1.91-13.02
			c2.41-4.09,5.86-6.72,10.35-7.89c4.49-1.17,8.74-0.58,12.75,1.79c4.21,2.48,6.85,6,7.92,10.55c1.07,4.55,0.42,8.83-1.94,12.83
			c-1.58,2.68-3.68,4.76-6.3,6.25c-2.62,1.48-5.46,2.21-8.5,2.19C238.08,666.64,235.25,665.86,232.63,664.31z M235.77,659.12
			c2.59,1.53,5.31,1.91,8.14,1.15c2.83-0.76,5.07-2.53,6.71-5.32c1.83-3.1,2.16-6.21,1-9.32c-0.9-2.43-2.47-4.3-4.7-5.62
			c-2.53-1.49-5.23-1.85-8.08-1.07c-2.86,0.78-5.08,2.51-6.66,5.19c-1.57,2.67-2.01,5.45-1.3,8.36
			C231.56,655.4,233.2,657.61,235.77,659.12z"/>
		<path class="st4" d="M211.51,649.85l-4.92-3.8l12.86-16.65c1.11-1.43,1.77-2.55,1.97-3.33c0.21-0.79,0.16-1.58-0.14-2.39
			c-0.3-0.8-0.86-1.52-1.68-2.15c-0.86-0.67-1.76-1.04-2.69-1.13c-0.93-0.09-1.75,0.08-2.46,0.51c-0.71,0.43-1.73,1.5-3.07,3.23
			L199,640.18l-4.92-3.8l11.86-15.35c2-2.59,3.54-4.28,4.6-5.05c1.07-0.78,2.37-1.32,3.92-1.62c1.54-0.3,3.03-0.26,4.45,0.12
			c1.42,0.38,2.84,1.12,4.27,2.22c1.87,1.44,3.16,3.13,3.88,5.05c0.72,1.93,0.88,3.76,0.48,5.51c-0.4,1.75-1.79,4.16-4.16,7.23
			L211.51,649.85z"/>
		<path class="st4" d="M187,630.1l-4.54-4.22l18.13-19.51l-6.61-6.14l4.02-4.33l11.15,10.36L187,630.1z"/>
		<path class="st4" d="M150.93,592.89c-2.85-3.62-3.99-7.76-3.42-12.42s2.73-8.48,6.5-11.45c3.73-2.94,7.9-4.14,12.5-3.61
			s8.35,2.63,11.24,6.29c3.02,3.84,4.21,8.07,3.56,12.7c-0.65,4.63-2.8,8.38-6.45,11.25c-2.44,1.93-5.16,3.11-8.14,3.54
			s-5.89,0.09-8.72-1.04C155.17,597.03,152.81,595.27,150.93,592.89z M155.73,589.19c1.86,2.37,4.25,3.71,7.17,4.02
			c2.92,0.32,5.64-0.53,8.18-2.52c2.83-2.23,4.26-5,4.31-8.33c0.04-2.59-0.74-4.91-2.35-6.95c-1.82-2.31-4.2-3.62-7.15-3.92
			c-2.95-0.31-5.64,0.5-8.09,2.42c-2.43,1.92-3.85,4.36-4.24,7.32S153.89,586.84,155.73,589.19z"/>
		<path class="st4" d="M136.25,571.48l-3.76-6.3c-2.42-4.06-3.72-7.38-3.89-9.96c-0.17-2.58,0.5-5.18,2-7.81s3.77-4.85,6.8-6.65
			c2.15-1.28,4.35-2.11,6.58-2.47c2.23-0.36,4.32-0.27,6.26,0.28s3.58,1.42,4.91,2.62c1.33,1.2,3.07,3.6,5.23,7.22l3.81,6.4
			L136.25,571.48z M138.24,563.14l17.63-10.51l-1.47-2.47c-1.45-2.43-2.78-4.03-3.99-4.79c-1.21-0.76-2.68-1.1-4.42-1.01
			c-1.73,0.09-3.56,0.71-5.49,1.86c-2.97,1.77-4.77,3.97-5.42,6.6c-0.58,2.37,0.11,5.21,2.08,8.52L138.24,563.14z"/>
		<path class="st4" d="M119.33,541.67l-7.47-16.12l5.5-2.55l4.88,10.54l5.34-2.47l-4.88-10.54l5.4-2.5l4.88,10.54l7.77-3.6
			l-4.88-10.54l5.52-2.56l7.47,16.12L119.33,541.67z"/>
		<path class="st4" d="M115.31,511.23l1.94,5.46c-2.67,0.98-5.2,0.85-7.61-0.39c-2.41-1.24-4.16-3.38-5.24-6.42
			c-0.7-1.96-0.93-3.75-0.7-5.39c0.23-1.63,0.88-3.1,1.95-4.42c1.07-1.31,2.35-2.23,3.85-2.77c0.82-0.29,1.67-0.45,2.56-0.46
			c0.89-0.02,1.85,0.11,2.88,0.38c0.6,0.16,1.71,0.67,3.31,1.52c1.53,0.82,2.57,1.3,3.13,1.44c0.56,0.14,1.25,0.19,2.08,0.13
			c0.82-0.06,1.91-0.3,3.27-0.72l2.01,5.65l-0.93,0.35c-1.86,0.66-3.67,0.92-5.44,0.79c-1.76-0.14-3.58-0.74-5.46-1.79
			c-1.82-1.01-3.02-1.58-3.62-1.72s-1.22-0.08-1.87,0.15c-0.89,0.32-1.51,0.96-1.86,1.92c-0.35,0.96-0.31,2.07,0.14,3.32
			c0.46,1.28,1.21,2.19,2.25,2.74C113,511.57,114.12,511.64,115.31,511.23z M130.09,501.48c-0.36-1.01-0.32-2,0.12-2.96
			s1.15-1.62,2.14-1.97c0.99-0.35,1.96-0.3,2.91,0.16s1.61,1.19,1.96,2.19c0.36,1,0.31,1.98-0.14,2.93s-1.17,1.6-2.16,1.95
			c-0.99,0.35-1.95,0.3-2.89-0.14C131.08,503.19,130.44,502.47,130.09,501.48z"/>
		<path class="st4" d="M97.46,460.82l4.89,3.68c-1.87,2.03-2.64,3.86-2.31,5.5c0.16,0.8,0.51,1.4,1.04,1.82
			c0.53,0.42,1.06,0.57,1.6,0.46c0.53-0.11,1-0.39,1.41-0.85c0.54-0.62,1.6-2.39,3.18-5.29c1.46-2.71,2.39-4.37,2.8-4.96
			c0.99-1.49,2-2.6,3.03-3.35c1.03-0.75,2.21-1.26,3.56-1.53c2.62-0.54,4.96-0.07,7.04,1.38c2.08,1.46,3.41,3.64,4.01,6.55
			c0.47,2.27,0.31,4.36-0.45,6.28s-2.22,3.71-4.36,5.4l-4.12-4.47c2.5-2.11,3.55-4.17,3.14-6.16c-0.21-1.04-0.7-1.86-1.45-2.44
			c-0.75-0.58-1.53-0.8-2.32-0.63c-0.72,0.15-1.39,0.56-2,1.25s-1.48,2.09-2.59,4.22c-2.12,4.05-3.85,6.75-5.18,8.07
			s-2.76,2.15-4.29,2.46c-2.21,0.45-4.28,0-6.21-1.36c-1.93-1.36-3.14-3.28-3.65-5.75c-0.33-1.59-0.27-3.18,0.17-4.77
			C94.83,464.73,95.86,462.9,97.46,460.82z"/>
		<path class="st4" d="M91.81,453.11l-2.02-17.65l6.02-0.69l1.32,11.54l5.85-0.67l-1.32-11.54l5.91-0.68l1.32,11.54l8.51-0.97
			l-1.32-11.54l6.04-0.69l2.02,17.65L91.81,453.11z"/>
		<path class="st4" d="M88.17,412.2c-0.07-4.6,1.53-8.59,4.81-11.96c3.28-3.37,7.31-5.09,12.11-5.17c4.75-0.08,8.79,1.49,12.13,4.71
			c3.34,3.21,5.05,7.15,5.12,11.82c0.08,4.88-1.54,8.97-4.87,12.26c-3.32,3.29-7.31,4.97-11.95,5.04c-3.11,0.05-5.98-0.66-8.62-2.12
			c-2.63-1.46-4.74-3.5-6.31-6.11C89.03,418.06,88.22,415.24,88.17,412.2z M94.23,412.17c0.05,3.01,1.14,5.53,3.26,7.54
			c2.13,2.02,4.81,3,8.03,2.95c3.6-0.06,6.42-1.4,8.48-4.01c1.6-2.03,2.39-4.35,2.34-6.95c-0.05-2.94-1.15-5.42-3.31-7.45
			s-4.79-3.02-7.9-2.97c-3.1,0.05-5.7,1.13-7.81,3.25C95.21,406.64,94.18,409.19,94.23,412.17z"/>
		<path class="st4" d="M89.88,386.01l0.77-6.17l20.88,2.6c1.8,0.22,3.09,0.23,3.88,0c0.78-0.22,1.45-0.67,1.98-1.34
			s0.87-1.52,1-2.54c0.14-1.08,0-2.05-0.4-2.89c-0.4-0.84-0.96-1.46-1.69-1.86s-2.18-0.73-4.34-1l-20.11-2.5l0.77-6.17l19.25,2.4
			c3.25,0.4,5.48,0.87,6.69,1.39c1.21,0.52,2.34,1.37,3.38,2.55c1.04,1.18,1.76,2.47,2.16,3.89c0.4,1.42,0.48,3.02,0.26,4.8
			c-0.29,2.34-1.08,4.31-2.37,5.91c-1.29,1.6-2.79,2.67-4.5,3.22s-4.49,0.58-8.34,0.1L89.88,386.01z"/>
		<path class="st4" d="M94.41,354.86l1.32-6.05l26.02,5.7l1.93-8.82l5.77,1.26l-3.25,14.87L94.41,354.86z"/>
		<path class="st4" d="M108.19,304.85c1.67-4.29,4.67-7.37,8.98-9.24c4.31-1.87,8.7-1.94,13.16-0.19c4.42,1.73,7.57,4.71,9.45,8.95
			c1.87,4.24,1.96,8.53,0.27,12.88c-1.78,4.55-4.83,7.72-9.15,9.5c-4.32,1.78-8.65,1.83-12.97,0.14c-2.9-1.13-5.29-2.87-7.17-5.23
			s-3.06-5.03-3.52-8.04C106.76,310.61,107.08,307.69,108.19,304.85z M113.81,307.12c-1.1,2.81-1.04,5.54,0.16,8.22
			c1.2,2.67,3.31,4.6,6.32,5.77c3.35,1.31,6.47,1.14,9.36-0.5c2.25-1.27,3.86-3.12,4.8-5.54c1.07-2.74,0.99-5.45-0.24-8.15
			c-1.23-2.7-3.29-4.61-6.19-5.74c-2.88-1.13-5.71-1.11-8.46,0.05S114.9,304.34,113.81,307.12z"/>
		<path class="st4" d="M119.25,281.3l3.54-6.43c2.28-4.14,4.49-6.94,6.63-8.39c2.14-1.45,4.72-2.19,7.75-2.22
			c3.03-0.03,6.09,0.8,9.18,2.5c2.2,1.21,4.01,2.69,5.45,4.43c1.44,1.74,2.41,3.59,2.92,5.54c0.51,1.95,0.58,3.81,0.22,5.56
			c-0.36,1.75-1.56,4.48-3.59,8.17l-3.59,6.52L119.25,281.3z M127.44,278.8l17.98,9.9l1.39-2.52c1.37-2.48,2.07-4.44,2.12-5.87
			c0.05-1.43-0.41-2.87-1.36-4.32c-0.95-1.45-2.41-2.72-4.38-3.8c-3.03-1.67-5.84-2.11-8.44-1.34c-2.34,0.7-4.44,2.73-6.29,6.1
			L127.44,278.8z"/>
		<path class="st4" d="M136.41,251.64l10.13-14.59l4.98,3.46l-6.62,9.54l4.83,3.35l6.62-9.54l4.89,3.39l-6.62,9.54l7.03,4.88
			l6.62-9.54l5,3.47l-10.13,14.59L136.41,251.64z"/>
		<path class="st4" d="M160.61,232.79l-3.72,4.44c-2.2-1.8-3.37-4.05-3.52-6.76c-0.15-2.71,0.81-5.3,2.88-7.77
			c1.34-1.59,2.77-2.7,4.29-3.33c1.53-0.63,3.12-0.81,4.8-0.56s3.12,0.9,4.34,1.92c0.67,0.56,1.23,1.22,1.7,1.97
			c0.46,0.75,0.84,1.65,1.13,2.68c0.17,0.6,0.29,1.81,0.37,3.63c0.07,1.73,0.18,2.88,0.34,3.43c0.16,0.56,0.47,1.18,0.94,1.86
			c0.47,0.68,1.23,1.5,2.27,2.45l-3.85,4.59l-0.78-0.62c-1.51-1.27-2.66-2.7-3.43-4.29c-0.77-1.59-1.18-3.46-1.23-5.62
			c-0.05-2.08-0.16-3.41-0.35-3.99c-0.19-0.58-0.55-1.09-1.08-1.54c-0.72-0.61-1.59-0.82-2.6-0.63c-1.01,0.18-1.94,0.78-2.79,1.8
			c-0.87,1.04-1.28,2.15-1.23,3.33C159.15,230.96,159.66,231.96,160.61,232.79z M176.5,240.59c0.69-0.82,1.56-1.29,2.62-1.4
			c1.05-0.11,1.98,0.17,2.78,0.85c0.8,0.67,1.25,1.54,1.33,2.59c0.09,1.05-0.21,1.99-0.89,2.8c-0.68,0.81-1.55,1.27-2.6,1.36
			c-1.05,0.09-1.97-0.2-2.78-0.87c-0.8-0.67-1.25-1.53-1.34-2.57C175.54,242.31,175.83,241.39,176.5,240.59z"/>
		<path class="st4" d="M194.95,191.87l-0.69,6.08c-2.7-0.58-4.67-0.31-5.9,0.81c-0.6,0.54-0.95,1.15-1.04,1.82
			c-0.09,0.67,0.05,1.21,0.41,1.61c0.37,0.4,0.85,0.66,1.45,0.78c0.81,0.14,2.87,0.16,6.17,0.05c3.08-0.12,4.98-0.16,5.7-0.11
			c1.78,0.1,3.26,0.4,4.42,0.91c1.17,0.51,2.21,1.27,3.13,2.29c1.79,1.98,2.59,4.23,2.38,6.76s-1.4,4.79-3.6,6.78
			c-1.72,1.55-3.6,2.49-5.63,2.8c-2.04,0.31-4.33-0.02-6.87-1.01l1.75-5.82c3.09,1.08,5.39,0.94,6.9-0.43
			c0.79-0.71,1.24-1.54,1.36-2.49s-0.09-1.72-0.63-2.32c-0.49-0.55-1.19-0.91-2.09-1.09c-0.9-0.18-2.55-0.21-4.95-0.09
			c-4.57,0.24-7.76,0.12-9.58-0.35c-1.82-0.47-3.25-1.29-4.3-2.45c-1.51-1.67-2.17-3.69-1.98-6.04c0.19-2.35,1.22-4.37,3.1-6.07
			c1.2-1.09,2.6-1.85,4.2-2.28C190.24,191.59,192.34,191.54,194.95,191.87z"/>
		<path class="st4" d="M198.7,183.07l14.17-10.72l3.66,4.83l-9.26,7.01l3.55,4.69l9.26-7.01l3.59,4.75l-9.26,7.01l5.17,6.83
			l9.26-7.01l3.67,4.85l-14.17,10.72L198.7,183.07z"/>
		<path class="st4" d="M232.68,158.77c3.97-2.34,8.22-2.91,12.77-1.73c4.55,1.19,8.04,3.85,10.47,7.97
			c2.41,4.09,3.05,8.38,1.9,12.88c-1.14,4.49-3.73,7.92-7.74,10.29c-4.21,2.48-8.56,3.09-13.06,1.82c-4.5-1.27-7.93-3.9-10.29-7.9
			c-1.58-2.68-2.39-5.53-2.42-8.54c-0.03-3.01,0.7-5.85,2.2-8.5C228,162.41,230.06,160.32,232.68,158.77z M235.7,164.03
			c-2.59,1.53-4.24,3.72-4.95,6.56s-0.23,5.66,1.41,8.44c1.83,3.1,4.39,4.9,7.68,5.39c2.56,0.39,4.96-0.08,7.2-1.4
			c2.53-1.49,4.15-3.68,4.85-6.56c0.7-2.88,0.26-5.66-1.32-8.34c-1.57-2.67-3.8-4.4-6.68-5.19
			C240.99,162.15,238.27,162.51,235.7,164.03z"/>
		<path class="st4" d="M255.58,147.28l5.71-2.46l8.33,19.32c0.72,1.66,1.37,2.78,1.96,3.34c0.59,0.56,1.31,0.91,2.16,1.03
			c0.85,0.12,1.75-0.02,2.69-0.43c1-0.43,1.77-1.03,2.29-1.81c0.53-0.77,0.77-1.57,0.75-2.4s-0.48-2.25-1.34-4.25l-8.03-18.61
			l5.71-2.46l7.68,17.81c1.3,3.01,2.03,5.16,2.19,6.48c0.16,1.31,0,2.71-0.49,4.21c-0.49,1.5-1.24,2.77-2.26,3.83
			c-1.02,1.06-2.36,1.94-4.01,2.66c-2.17,0.94-4.27,1.25-6.3,0.95c-2.03-0.3-3.72-1.05-5.05-2.25c-1.34-1.2-2.77-3.58-4.31-7.14
			L255.58,147.28z"/>
		<path class="st4" d="M284.76,135.41l5.89-1.92l8.26,25.32l8.58-2.8l1.83,5.62l-14.47,4.72L284.76,135.41z"/>
	</g>
	<g>
		<line class="st5" x1="204.21" y1="468.81" x2="297.73" y2="471.34"/>
		<g>
			<polyline class="st5" points="199.16,504.2 211.8,365.19 312.89,357.6 			"/>
			<path class="st5" d="M295.2,504.2l17.69-146.59c0,0,63.81-43.44,148.27,0.8l13.49,148.32"/>
			<path class="st5" d="M313.73,357.38l-21.05-27.58c0,0,37.53-30.8,65.71-27.8l7.55,35.62"/>
			<path class="st5" d="M400.52,337.54l5.9-35.54c0,0,48.15,11.11,68.24,20.22l-12.41,32.79l93.29,12.7L570.7,504.2"/>
			<path class="st5" d="M302.78,443.54c0,0,15.16-7.58,58.13-7.58c22.75,0,58.36-5.81,103.63,5.05"/>
			<line class="st5" x1="353.33" y1="504.2" x2="360.89" y2="438.71"/>
			<line class="st5" x1="425.03" y1="504.28" x2="411.03" y2="436.28"/>
			<path class="st5" d="M358.39,468.81c-0.2-0.01,32.86-7.58,55.61,0"/>
			<line class="st5" x1="386.19" y1="438.48" x2="388.72" y2="504.2"/>
			<path class="st5" d="M247.18,365.19c0,0-16.12,138.78-15.16,139.01"/>
			<line class="st5" x1="277.51" y1="365.19" x2="264.87" y2="504.2"/>
			<path class="st5" d="M211.8,398.04c3.59,1.29,93.52,2.53,93.52,2.53"/>
			<line class="st5" x1="205.52" y1="434.5" x2="300.26" y2="438.48"/>
			<line class="st5" x1="494.47" y1="363.87" x2="510.04" y2="506.72"/>
			<line class="st5" x1="525.99" y1="365.8" x2="545.42" y2="506.72"/>
			<line class="st5" x1="467.15" y1="395.3" x2="555.53" y2="398.04"/>
			<line class="st5" x1="471.5" y1="430.12" x2="558.06" y2="430.9"/>
			<line class="st5" x1="474.24" y1="469.02" x2="563.11" y2="468.81"/>
			<path class="st5" d="M407.16,425.58"/>
			<path class="st5" d="M395.52,405.81"/>
		</g>
	</g>
	<path class="st5" d="M348.62,418.58c-10.15,0-18.38-6.55-18.38-14.62s8.23-14.62,18.38-14.62"/>
	<ellipse class="st5" cx="371.03" cy="405.63" rx="12.64" ry="15.16"/>
	<g>
		<path class="st5" d="M412.95,418.84h-6.64c-5.83,0-10.59-3.4-10.59-7.57v-12.39c0-4.16,4.77-7.57,10.59-7.57h6.64"/>
		<path class="st5" d="M409.94,406.61h-11.31c-0.42,0-0.76-0.34-0.76-0.76v0c0-0.42,0.34-0.76,0.76-0.76h11.31
			c0.42,0,0.76,0.34,0.76,0.76v0C410.7,406.27,410.36,406.61,409.94,406.61z"/>
	</g>
	<line class="st5" x1="199.16" y1="506.72" x2="570.7" y2="506.72"/>
	<path class="st6" d="M537.61,348.17c-14.98,8.81-37.15-1.1-37.15-1.1s2.11-24.2,17.08-33.01c14.98-8.81,37.15,1.1,37.15,1.1
		S552.59,339.36,537.61,348.17z"/>
	<path class="st6" d="M503.26,303.15c6.11,12.36-2.05,28.85-2.05,28.85s-18.06-3.54-24.16-15.9c-6.11-12.36,2.05-28.85,2.05-28.85
		S497.15,290.8,503.26,303.15z"/>
	<line class="st5" x1="424" y1="391" x2="441" y2="418"/>
	<line class="st5" x1="425" y1="419" x2="440" y2="393"/>
</g>
</svg>
