<?xml version="1.0" encoding="utf-8"?>
<!-- Generator: Adobe Illustrator 27.4.0, SVG Export Plug-In . SVG Version: 6.00 Build 0)  -->
<svg version="1.1" id="레이어_1" xmlns="http://www.w3.org/2000/svg" xmlns:xlink="http://www.w3.org/1999/xlink" x="0px"
	 y="0px" viewBox="0 0 762.52 822.05" style="enable-background:new 0 0 762.52 822.05;" xml:space="preserve">
<style type="text/css">
	.st0{fill:none;stroke:#463C33;stroke-width:3;stroke-miterlimit:10;}
	.st1{fill:none;stroke:#463C33;stroke-width:3;stroke-linecap:round;stroke-linejoin:round;stroke-dasharray:2.9982,5.9965;}
	.st2{fill:none;}
	.st3{fill:none;stroke:#463C33;stroke-width:4;stroke-linecap:round;stroke-linejoin:round;stroke-miterlimit:10;}
	.st4{fill:#463C33;}
	.st5{fill:#ABB868;}
</style>
<g>
	<g>
		<g>
			<circle class="st0" cx="381.26" cy="411.02" r="320.44"/>
			<circle class="st0" cx="381.26" cy="411.02" r="250.83"/>
			<circle class="st0" cx="381.26" cy="411.02" r="225.63"/>
			<g>
				<circle class="st1" cx="381.26" cy="411.02" r="237.63"/>
			</g>
		</g>
		<path id="SVGID_x5F_1_x5F_" class="st2" d="M642.47,410.7c0,144.49-117.14,261.63-261.63,261.63S119.21,555.19,119.21,410.7
			s117.14-261.63,261.63-261.63S642.47,266.2,642.47,410.7z"/>
		<text>		<textPath  xlink:href="#SVGID_x5F_1_x5F_" startOffset="96.289%">
<tspan  class="st4" style="font-family:'CenturyGothic-Bold'; font-size:45.6054px;">ODE? SEOUL ODE? SEOUL ODE? SEOUL ODE? SEOUL ODE? SEOUL ODE? SEOUL</tspan>		</textPath>
</text>
	</g>
	<g>
		<path class="st3" d="M476.16,459.55c-1.29,10.82,0.15,21.56,4.26,31.75"/>
		<path class="st3" d="M228.68,554.72c-6.68-8.2-11.57-19.27-13.85-31.35c5.63,6.07,11.25,12.15,16.88,18.22
			c1.28,1.38,2.64,2.81,4.23,3.17c3.57,0.8,6.51-3.92,8.17-8.45c1.67-4.53,3.17-9.82,6.49-11.85c0.43,5.36,0.86,10.72,1.29,16.07
			c0.14,1.72,0.3,3.53,1.02,4.94c1.68,3.28,5.26,2.6,7.9,1.02c7.19-4.3,13.05-12.87,15.84-23.18c4.17,5.07,4.87,14.88,1.5,21.02
			c7.55-3.82,14.18-11.17,18.59-20.62c-1.16,8.06,2.05,16.95,7.35,20.35c0.29-4.47,0.73-9.07,2.36-12.93
			c1.63-3.86,4.73-6.81,7.87-6.12c7.42,1.63,7.31,18.88,14.12,23.35c0.31-4.21,0.99-8.37,2.02-12.35c0.38-1.47,0.89-3.04,1.89-3.72
			c2.09-1.41,4.09,1.91,5.6,4.38c3.82,6.27,10.22,9.16,15.91,7.17c5.69-1.99,10.4-8.75,11.71-16.82c3.15,0,4.55,5.42,5.45,9.68
			c0.89,4.26,3.53,9.29,6.39,7.43c0.91-0.59,1.53-1.78,2.12-2.92c1.69-3.29,3.38-6.58,5.07-9.87c4.75,11.79,15.54,17.96,24.76,14.17
			c-3.34-5.69,0.31-16.06,5.54-15.74c-1.96,5.12,0.44,12.05,4.24,14.3c3.8,2.25,8.32,0.6,11.67-2.78c3.35-3.39,5.77-8.28,8.05-13.13
			c1.05,8.39,9.23,11.46,14.61,7.61c5.38-3.85,8.49-11.88,11.27-19.43c3.02,7.56,4.43,16.4,3.98,25.06
			c7.62-6.74,15.6-12.66,23.86-17.69c-0.42,3.36,0.03,6.92,1.25,9.85c2.17-7.34,6.14-13.59,11.07-17.42
			c-0.41,8.3,0.21,18.94,5.8,21.56c5.01,2.35,9.86-3.99,12.87-10.13c3-6.14,6.34-13.42,11.6-14.07c-6.7,8.45-5.82,25.87,1.65,32.9"
			/>
		<g>
			<path class="st4" d="M299.37,471.53v6.75h8.72v-6.75h5.98v24.82h-20.67v-24.82H299.37z M293.39,502.46h20.67v5.69h-7.31v6.11
				h-5.98v-6.11h-7.38V502.46z M314.06,514.27v24.75h-5.98v-19.05h-14.69v-5.69H314.06z M299.37,490.65h8.72v-6.68h-8.72V490.65z"/>
			<path class="st4" d="M321.3,492.83l12.16-23.06l12.09,23.06l-4.85,3.51l-7.24-14.83l-7.24,14.83L321.3,492.83z M356.39,471.53
				v40.64h-5.98v-25.59h-6.68v-5.69h6.68v-9.35H356.39z"/>
			<path class="st4" d="M384.01,473.85c2.3,2.39,3.44,5.27,3.44,8.65c0,3.28-1.15,6.11-3.44,8.51c-2.34,2.39-5.11,3.58-8.3,3.58
				c-3.23,0-6-1.19-8.3-3.58c-2.3-2.39-3.45-5.23-3.45-8.51c0-3.38,1.15-6.26,3.45-8.65c2.3-2.34,5.06-3.52,8.3-3.52
				C378.9,470.33,381.67,471.51,384.01,473.85z M365.38,502.46h20.67v5.69h-7.31v6.11h-5.98v-6.11h-7.38V502.46z M380.07,523.69
				v-3.73h-14.69v-5.69h20.67v15.12h-14.69v3.93h14.69v5.7h-20.67v-15.33H380.07z M371.57,478c-1.08,1.27-1.62,2.77-1.62,4.5
				c0,1.69,0.54,3.16,1.62,4.43c1.13,1.31,2.51,1.97,4.15,1.97c1.59,0,2.95-0.66,4.08-1.97c1.13-1.27,1.69-2.74,1.69-4.43
				c0-1.73-0.56-3.23-1.69-4.5c-1.12-1.31-2.48-1.97-4.08-1.97C374.07,476.03,372.69,476.69,371.57,478z"/>
			<path class="st4" d="M427.46,471.53v24.82h-5.97v-19.12h-8.72v19.12h-5.97v-19.12H392.1v-5.69H427.46z M406.79,502.46h20.67v5.69
				h-7.31v6.11h-5.98v-6.11h-7.38V502.46z M427.46,514.27v24.75h-20.67v-24.75H427.46z M412.77,533.32h8.72v-13.36h-8.72V533.32z"/>
			<path class="st4" d="M455.09,473.85c2.3,2.39,3.44,5.27,3.44,8.65c0,3.28-1.15,6.11-3.44,8.51c-2.34,2.39-5.11,3.58-8.3,3.58
				c-3.23,0-6-1.19-8.3-3.58c-2.3-2.39-3.45-5.23-3.45-8.51c0-3.38,1.15-6.26,3.45-8.65c2.3-2.34,5.06-3.52,8.3-3.52
				C449.98,470.33,452.74,471.51,455.09,473.85z M436.46,502.46h20.67v5.69h-20.67V502.46z M442.64,478
				c-1.08,1.27-1.62,2.77-1.62,4.5c0,1.69,0.54,3.16,1.62,4.43c1.13,1.31,2.51,1.97,4.15,1.97c1.59,0,2.95-0.66,4.08-1.97
				c1.13-1.27,1.69-2.74,1.69-4.43c0-1.73-0.56-3.23-1.69-4.5c-1.12-1.31-2.48-1.97-4.08-1.97
				C445.15,476.03,443.77,476.69,442.64,478z M463.8,471.53h5.98v40.64h-5.98V471.53z"/>
			<path class="st4" d="M477.02,492.83l12.16-23.06l12.09,23.06l-4.85,3.51l-7.24-14.83l-7.24,14.83L477.02,492.83z M478.78,502.46
				h20.67v5.69h-7.31v6.11h-5.98v-6.11h-7.38V502.46z M499.45,514.27v5.69h-2.46v13.36h2.46v5.7h-20.67v-5.7h2.46v-13.36h-2.46
				v-5.69H499.45z M487.22,533.32h3.8v-13.36h-3.8V533.32z"/>
		</g>
		<path class="st3" d="M509.63,419.87c3.44-5.36,7.01-10.85,11.66-13.99c4.65-3.14,10.71-3.39,14.61,1.32
			c3.59,4.33,4.49,11.8,3.46,18.25c-1.04,6.45-3.68,12.13-6.28,17.66c6.11,3.2,11.3,10.7,12.04,19.71c0.74,9-3.97,18.74-10.46,19.63
			c2.59,6.01-0.07,14.36-4.47,17.79c-4.4,3.43-9.84,3.02-14.76,1.45"/>
		<path class="st3" d="M512.98,502.4c-3.51,10.51-4.79,21.71-3.72,32.71"/>
		<path class="st3" d="M519.54,502.4c-4.52,10.46-4.88,21.82-1.02,32.42"/>
		<path class="st3" d="M477.58,459.38c-11.98,2.3-25.35-4.16-31.36-18.33c-6.01-14.16-1.93-35.42,9.39-41.15
			c-10.07-9.81-21.01-21.49-22.6-38.12c-1.12-11.74,2.84-23.34,7.93-32.99c8.31-15.77,19.91-28.34,33.11-35.88
			c4.14-2.37,8.78-4.26,13.08-2.51c5.74,2.33,9.21,10.83,9.2,18.91s-2.83,15.7-6.27,22.32c8.72-1.71,16.73,9.14,18.15,20.87
			c1.41,11.74-2.17,23.55-6.76,33.7c5.91,4.79,8.39,15,7.82,24.27c-0.58,9.26-3.66,17.86-6.68,26.21c4.68,1.86,4.9,11.65,1.39,16.22
			C500.47,457.45,495.02,456.04,477.58,459.38z"/>
		<path class="st3" d="M269.52,537.5c-0.51-20.58-0.87-42.25,5.13-60.47c0.2-0.62,0.4-1.46,0.08-1.95
			c-0.32-0.49-0.83,0.79-0.39,0.77"/>
		<path class="st3" d="M281.33,541.9c-2.77-20.8-3.41-42.99-1.87-64.42"/>
		<path class="st3" d="M262.01,355.54c2.03-7.56,8.44-11.7,14.07-10.25c5.64,1.45,10.29,7.59,12.75,14.9
			c4.28,12.75,2.45,27.69,0.99,41.65c-0.24,2.31-0.47,4.71,0.04,6.93c0.71,3.09,2.66,5.2,4.36,7.38c5.26,6.74,8.76,18.96,4.06,26.49
			c-0.85,1.37-1.97,2.56-2.32,4.32c-0.32,1.6,0.06,3.29,0.32,4.91c1.2,7.56-0.71,16.08-5.03,20.85c-4.32,4.77-10.92,5.19-15.31,0.54
			c0,0-10.9,13.33-15.43-2.52"/>
		<path class="st3" d="M241.48,478.07c-9.43-5.39-19.31-11.24-25.55-22.59c-6.24-11.34-7.06-29.98,1.01-38.71
			c-9.03-7.48-15.53-20.76-17.31-35.33c-1.77-14.57,1.21-30.15,7.95-41.47c1.38-2.31,2.92-4.51,3.79-7.27
			c1.13-3.61,0.96-7.72,1.06-11.67c0.21-8.55,1.79-17.02,4.59-24.6c3.3-8.95,9.6-17.33,16.65-15.75c4.84,1.08,8.65,6.74,10.57,13.11
			c1.91,6.36,2.25,13.42,2.56,20.32c5.32-3.66,12,1.77,14.47,9.36s1.81,16.41,0.77,24.64c-1.04,8.22-2.42,16.65-1.25,24.83
			c1.99,13.81,11,25.13,10.3,39.19c-0.2,3.94-1.18,7.78-1.05,11.73c0.12,3.64,1.17,7.08,1.83,10.6
			C275.45,453.47,265.51,475.28,241.48,478.07z"/>
		<path class="st3" d="M251.52,476.4c0.35,23.78,4.09,47.51,11.05,70.16"/>
		<path class="st3" d="M246.23,533.81c-3.25-18.54-5.1-37.4-5.55-56.3"/>
		<path class="st3" d="M484.04,460.2c-1.8,6.17-0.88,12.15,2.73,17.7"/>
		<path class="st3" d="M516.38,501.82c0,0-11.31,0.61-13.57-3.92"/>
		<path class="st3" d="M317.86,330.1c0,5.88,4.71,10.66,10.5,10.66c2.32,0,4.45-0.77,6.19-2.08c2.09,1.32,4.51,2.08,7.11,2.08
			c4.19,0,7.95-1.96,10.53-5.09c2.37,3.92,6.48,6.51,11.18,6.51c7.35,0,13.3-6.37,13.3-14.21c0-7.85-5.95-14.21-13.3-14.21
			c-3.81,0-7.25,1.72-9.68,4.46c-2.44-4.38-6.92-7.31-12.03-7.31c-5.59,0-10.42,3.5-12.66,8.56c-0.21-0.03-0.43-0.03-0.64-0.03
			C322.57,319.44,317.86,324.22,317.86,330.1z"/>
		<path class="st3" d="M356.36,377.66c0,5.88,4.71,10.66,10.5,10.66c2.32,0,4.45-0.77,6.19-2.08c2.09,1.32,4.51,2.08,7.11,2.08
			c4.19,0,7.95-1.96,10.53-5.09c2.37,3.92,6.48,6.51,11.18,6.51c7.35,0,13.3-6.37,13.3-14.21c0-7.85-5.95-14.21-13.3-14.21
			c-3.81,0-7.25,1.72-9.68,4.46c-2.44-4.38-6.92-7.31-12.03-7.31c-5.59,0-10.42,3.5-12.66,8.56c-0.21-0.03-0.43-0.03-0.64-0.03
			C361.06,367,356.36,371.77,356.36,377.66z"/>
	</g>
	<path class="st5" d="M357.06,453.12c11.4,13.26,35.75,11.03,35.75,11.03s5.86-23.74-5.54-37c-11.4-13.26-35.75-11.03-35.75-11.03
		S345.66,439.86,357.06,453.12z"/>
	<path class="st5" d="M404.43,421.41c-9.84,9.79-7.43,28.15-7.43,28.15s18.35,2.5,28.19-7.29c9.84-9.79,7.43-28.15,7.43-28.15
		S414.27,411.62,404.43,421.41z"/>
</g>
</svg>
