<?xml version="1.0" encoding="utf-8"?>
<!-- Generator: Adobe Illustrator 27.4.0, SVG Export Plug-In . SVG Version: 6.00 Build 0)  -->
<svg version="1.1" id="레이어_1" xmlns="http://www.w3.org/2000/svg" xmlns:xlink="http://www.w3.org/1999/xlink" x="0px"
	 y="0px" viewBox="0 0 762.52 822.05" style="enable-background:new 0 0 762.52 822.05;" xml:space="preserve">
<style type="text/css">
	.st0{fill:none;stroke:#463C33;stroke-width:3.7343;stroke-miterlimit:10;}
	.st1{fill:none;stroke:#463C33;stroke-width:2.9231;stroke-miterlimit:10;}
	.st2{fill:none;stroke:#463C33;stroke-width:2.6294;stroke-miterlimit:10;}
	.st3{fill:none;stroke:#463C33;stroke-width:2.7692;stroke-linecap:round;stroke-linejoin:round;stroke-dasharray:2.9965,5.9929;}
	.st4{fill:none;}
	.st5{fill:none;stroke:#463C33;stroke-width:4;stroke-linecap:round;stroke-linejoin:round;stroke-miterlimit:10;}
	.st6{fill:#ABB868;}
</style>
<g>
	<circle class="st0" cx="381.26" cy="411.02" r="318.32"/>
	<circle class="st1" cx="381.26" cy="411.02" r="249.17"/>
	<circle class="st2" cx="381.26" cy="411.02" r="224.13"/>
	<g>
		<circle class="st3" cx="381.26" cy="411.02" r="236.06"/>
	</g>
	<path id="SVGID_x5F_1_x5F_" class="st4" d="M641.32,411.56c0,143.54-116.36,259.9-259.9,259.9s-259.9-116.36-259.9-259.9
		s116.36-259.9,259.9-259.9S641.32,268.02,641.32,411.56z"/>
	<text>	<textPath  xlink:href="#SVGID_x5F_1_x5F_" startOffset="96.289%">
<tspan  style="fill:#463C33; font-family:'CenturyGothic-Bold'; font-size:45.3037px;">ODE? SEOUL ODE? SEOUL ODE? SEOUL ODE? SEOUL ODE? SEOUL ODE? SEOUL</tspan>	</textPath>
</text>
	<g>
		<g>
			<line class="st5" x1="204.21" y1="468.81" x2="297.73" y2="471.34"/>
			<g>
				<polyline class="st5" points="199.16,504.2 211.8,365.19 312.89,357.6 				"/>
				<path class="st5" d="M295.2,504.2l17.69-146.59c0,0,63.81-43.44,148.27,0.8l13.49,148.32"/>
				<path class="st5" d="M313.73,357.38l-21.05-27.58c0,0,37.53-30.8,65.71-27.8l7.55,35.62"/>
				<path class="st5" d="M400.52,337.54l5.9-35.54c0,0,48.15,11.11,68.24,20.22l-12.41,32.79l93.29,12.7L570.7,504.2"/>
				<path class="st5" d="M302.78,443.54c0,0,15.16-7.58,58.13-7.58c22.75,0,58.36-5.81,103.63,5.05"/>
				<line class="st5" x1="353.33" y1="504.2" x2="360.89" y2="438.71"/>
				<line class="st5" x1="425.03" y1="504.28" x2="411.03" y2="436.28"/>
				<path class="st5" d="M358.39,468.81c-0.2-0.01,32.86-7.58,55.61,0"/>
				<line class="st5" x1="386.19" y1="438.48" x2="388.72" y2="504.2"/>
				<path class="st5" d="M247.18,365.19c0,0-16.12,138.78-15.16,139.01"/>
				<line class="st5" x1="277.51" y1="365.19" x2="264.87" y2="504.2"/>
				<path class="st5" d="M211.8,398.04c3.59,1.29,93.52,2.53,93.52,2.53"/>
				<line class="st5" x1="205.52" y1="434.5" x2="300.26" y2="438.48"/>
				<line class="st5" x1="494.47" y1="363.87" x2="510.04" y2="506.72"/>
				<line class="st5" x1="525.99" y1="365.8" x2="545.42" y2="506.72"/>
				<line class="st5" x1="467.15" y1="395.3" x2="555.53" y2="398.04"/>
				<line class="st5" x1="471.5" y1="430.12" x2="558.06" y2="430.9"/>
				<line class="st5" x1="474.24" y1="469.02" x2="563.11" y2="468.81"/>
				<path class="st5" d="M407.16,425.58"/>
				<path class="st5" d="M391.24,426.42"/>
				<path class="st5" d="M393.94,395.25"/>
				<path class="st5" d="M408.45,395.85"/>
				<path class="st5" d="M395.52,405.81"/>
				<path class="st5" d="M406.9,411.7"/>
				<path class="st5" d="M393.36,410.93"/>
				<path class="st5" d="M411.57,427.89"/>
				<path class="st5" d="M423.7,400.15"/>
				<path class="st5" d="M424.49,431.06"/>
				<path class="st5" d="M414.25,397.28"/>
			</g>
		</g>
		<path class="st5" d="M348.62,418.58c-10.15,0-18.38-6.55-18.38-14.62s8.23-14.62,18.38-14.62"/>
		<ellipse class="st5" cx="371.03" cy="405.63" rx="12.64" ry="15.16"/>
		<g>
			<path class="st5" d="M412.95,418.84h-6.64c-5.83,0-10.59-3.4-10.59-7.57v-12.39c0-4.16,4.77-7.57,10.59-7.57h6.64"/>
			<path class="st5" d="M409.94,406.61h-11.31c-0.42,0-0.76-0.34-0.76-0.76v0c0-0.42,0.34-0.76,0.76-0.76h11.31
				c0.42,0,0.76,0.34,0.76,0.76v0C410.7,406.27,410.36,406.61,409.94,406.61z"/>
		</g>
		<g>
			
				<rect x="431.76" y="388.35" transform="matrix(0.8898 0.4563 -0.4563 0.8898 232.1893 -152.4215)" class="st5" width="0" height="32.6"/>
			
				<rect x="432.66" y="387.63" transform="matrix(-0.8898 0.4563 -0.4563 -0.8898 1001.9554 565.9431)" class="st5" width="0" height="32.6"/>
		</g>
		<line class="st5" x1="199.16" y1="506.72" x2="570.7" y2="506.72"/>
	</g>
	<path class="st6" d="M537.61,348.17c-14.98,8.81-37.15-1.1-37.15-1.1s2.11-24.2,17.08-33.01c14.98-8.81,37.15,1.1,37.15,1.1
		S552.59,339.36,537.61,348.17z"/>
	<path class="st6" d="M503.26,303.15c6.11,12.36-2.05,28.85-2.05,28.85s-18.06-3.54-24.16-15.9c-6.11-12.36,2.05-28.85,2.05-28.85
		S497.15,290.8,503.26,303.15z"/>
</g>
</svg>
