<?xml version="1.0" encoding="utf-8"?>
<!-- Generator: Adobe Illustrator 27.4.0, SVG Export Plug-In . SVG Version: 6.00 Build 0)  -->
<svg version="1.1" id="레이어_1" xmlns="http://www.w3.org/2000/svg" xmlns:xlink="http://www.w3.org/1999/xlink" x="0px"
	 y="0px" viewBox="0 0 762.52 822.05" style="enable-background:new 0 0 762.52 822.05;" xml:space="preserve">
<style type="text/css">
	.st0{fill:none;stroke:#463C33;stroke-width:3;stroke-miterlimit:10;}
	.st1{fill:none;stroke:#463C33;stroke-width:3;stroke-linecap:round;stroke-linejoin:round;stroke-dasharray:2.9989,5.9977;}
	.st2{fill:none;}
	.st3{fill:none;stroke:#463C33;stroke-width:4;stroke-miterlimit:10;}
	.st4{fill:none;stroke:#463C33;stroke-width:4;stroke-linecap:round;stroke-linejoin:round;stroke-miterlimit:10;}
	.st5{fill:#ABB868;}
</style>
<g>
	<g>
		<g>
			<circle class="st0" cx="381.26" cy="411.02" r="320.5"/>
			<circle class="st0" cx="381.26" cy="411.02" r="250.88"/>
			<circle class="st0" cx="381.26" cy="411.02" r="225.67"/>
			<g>
				<circle class="st1" cx="381.26" cy="411.02" r="237.68"/>
			</g>
		</g>
		<path id="SVGID_x5F_1_x5F_" class="st2" d="M643.47,410.52c0,144.52-117.16,261.68-261.68,261.68S120.1,555.05,120.1,410.52
			s117.16-261.68,261.68-261.68S643.47,266,643.47,410.52z"/>
		<text>		<textPath  xlink:href="#SVGID_x5F_1_x5F_" startOffset="96.289%">
<tspan  style="fill:#463C33; font-family:'CenturyGothic-Bold'; font-size:45.6148px;">ODE? SEOUL ODE? SEOUL ODE? SEOUL ODE? SEOUL ODE? SEOUL ODE? SEOUL</tspan>		</textPath>
</text>
	</g>
	<g>
		<path class="st3" d="M214.14,470.69c0,0-2.84-164.06,93.56-180.64c0,0,73.72-6.76,85.06,103.17"/>
		<path class="st4" d="M347,481.8c0,0,58.16-154.76,132.6-150.6c0,0,88.01,11.07,93.67,158.19"/>
		<path class="st4" d="M230.55,369.87c0,0-2.2,89.84,32.64,51.49c0,0,20.32-58.5,46.45-69.34c0,0,29.03-17.81,20.32,20.53
			c0,0-12.6,38.35,21.28,3.49c0,0,19.17-13.94,23.62,38.35"/>
		<path class="st4" d="M380.28,412.78c0,0,10.29,44.97,34.82,19.11c0,0,38.16-66.74,55.44-15.59c0,0-3.65,54.54,29.41,38.3
			s37.57,16.09,37.57,16.09s28.05,43.53,25.32-46.13"/>
		<path class="st4" d="M208.13,496.98h72.83c0,0,9.39-9.7-1.95-29.1c-11.34-19.4-19.85-3.23-19.85-3.23s-5.67-42.03-25.52-6.47
			c0,0-5.67,12.93-5.67,22.63c0,0-22.68-16.17-34.02,0c0,0-8.51,9.81,0,14.6C193.95,495.42,199.62,496.98,208.13,496.98z"/>
		<path class="st4" d="M369.88,522.29c0,0,53.39,5.06,71.18,2.53c17.8-2.53,20.34-22.78,20.34-22.78s10.17-22.78-25.42-22.78
			c0,0,7.63-30.37-27.97-27.84c0,0-22.88,5.06-22.88,17.72c0,0-12.71-15.18-33.05,2.53c0,0-10.17,12.65-7.63,17.72
			c0,0-14.78-1.46-20.1,8.13c0,0-12.95,24.77,7.39,24.77c20.34,0,22.88,0,22.88,0H369.88z"/>
		<line class="st4" x1="285.98" y1="486.86" x2="341.91" y2="486.86"/>
		<line class="st4" x1="463.94" y1="491.92" x2="573.26" y2="491.92"/>
	</g>
	<path class="st5" d="M430.41,332.52c-15.08,8.87-37.4-1.11-37.4-1.11s2.12-24.36,17.2-33.23c15.08-8.87,37.4,1.11,37.4,1.11
		S445.49,323.65,430.41,332.52z"/>
	<path class="st5" d="M395.82,287.19c6.15,12.44-2.06,29.05-2.06,29.05s-18.18-3.56-24.33-16s2.06-29.05,2.06-29.05
		S389.67,274.75,395.82,287.19z"/>
</g>
</svg>
