<?xml version="1.0" encoding="utf-8"?>
<!-- Generator: Adobe Illustrator 27.4.0, SVG Export Plug-In . SVG Version: 6.00 Build 0)  -->
<svg version="1.1" id="레이어_1" xmlns="http://www.w3.org/2000/svg" xmlns:xlink="http://www.w3.org/1999/xlink" x="0px"
	 y="0px" viewBox="0 0 762.52 822.05" style="enable-background:new 0 0 762.52 822.05;" xml:space="preserve">
<style type="text/css">
	.st0{fill:none;stroke:#463C33;stroke-width:3;stroke-miterlimit:10;}
	.st1{fill:none;stroke:#463C33;stroke-width:3;stroke-linecap:round;stroke-linejoin:round;stroke-dasharray:2.9982,5.9965;}
	.st2{fill:#463C33;}
	.st3{fill:none;stroke:#463C33;stroke-width:4;stroke-linecap:round;stroke-linejoin:round;stroke-miterlimit:10;}
	.st4{fill:#ABB868;}
</style>
<g>
	<circle class="st0" cx="381.26" cy="411.02" r="320.44"/>
	<circle class="st0" cx="381.26" cy="411.02" r="250.83"/>
	<circle class="st0" cx="381.26" cy="411.02" r="225.63"/>
	<g>
		<circle class="st1" cx="381.26" cy="411.02" r="237.63"/>
	</g>
</g>
<g>
	<path class="st2" d="M348.55,117.23c4.61-0.5,8.75,0.73,12.43,3.71c3.68,2.97,5.78,6.86,6.3,11.65c0.52,4.75-0.68,8.95-3.59,12.6
		s-6.7,5.73-11.37,6.24c-4.89,0.53-9.13-0.71-12.74-3.74c-3.6-3.03-5.66-6.86-6.17-11.51c-0.34-3.11,0.1-6.06,1.32-8.84
		s3.07-5.07,5.54-6.89C342.75,118.64,345.51,117.57,348.55,117.23z M349.14,123.31c-3.01,0.33-5.43,1.65-7.26,3.97
		c-1.82,2.32-2.56,5.1-2.21,8.33c0.39,3.6,2,6.31,4.81,8.12c2.19,1.42,4.58,1.99,7.18,1.7c2.94-0.32,5.33-1.66,7.16-4.01
		c1.84-2.35,2.58-5.08,2.25-8.2c-0.34-3.1-1.67-5.61-3.98-7.53S352.13,122.98,349.14,123.31z"/>
	<path class="st2" d="M374.63,116.12l7.39,0.15c4.76,0.1,8.29,0.76,10.58,1.98c2.29,1.23,4.16,3.18,5.6,5.87
		c1.45,2.69,2.13,5.8,2.06,9.35c-0.05,2.52-0.52,4.83-1.4,6.93c-0.88,2.1-2.07,3.83-3.58,5.2c-1.5,1.37-3.12,2.3-4.85,2.8
		c-1.73,0.5-4.72,0.71-8.96,0.62l-7.5-0.15L374.63,116.12z M380.7,122.26l-0.41,20.66l2.89,0.06c2.85,0.06,4.92-0.23,6.22-0.86
		c1.3-0.63,2.37-1.71,3.22-3.24c0.85-1.53,1.29-3.42,1.34-5.68c0.07-3.48-0.85-6.19-2.75-8.15c-1.72-1.76-4.51-2.68-8.39-2.75
		L380.7,122.26z"/>
	<path class="st2" d="M409.08,117.54l17.75,2.18l-0.75,6.06l-11.6-1.43l-0.72,5.88l11.6,1.43l-0.73,5.95l-11.6-1.43l-1.05,8.55
		l11.6,1.43l-0.75,6.08l-17.75-2.18L409.08,117.54z"/>
	<path class="st2" d="M437.25,130.28l-5.7-1.24c0.58-2.8,2.04-4.9,4.38-6.3c2.34-1.4,5.1-1.76,8.28-1.07
		c2.04,0.44,3.7,1.2,4.98,2.27c1.27,1.07,2.19,2.4,2.74,4.01c0.55,1.61,0.66,3.2,0.32,4.76c-0.19,0.86-0.51,1.67-0.96,2.43
		c-0.46,0.77-1.08,1.52-1.86,2.26c-0.46,0.43-1.48,1.11-3.06,2.02c-1.51,0.87-2.48,1.51-2.9,1.91c-0.42,0.4-0.83,0.97-1.21,1.71
		c-0.39,0.74-0.76,1.79-1.12,3.17l-5.9-1.28l0.19-0.98c0.42-1.94,1.16-3.63,2.22-5.07c1.06-1.43,2.53-2.67,4.43-3.72
		c1.83-1.02,2.96-1.74,3.39-2.18c0.43-0.44,0.72-1,0.87-1.68c0.2-0.93-0.02-1.8-0.65-2.61c-0.64-0.81-1.61-1.36-2.91-1.65
		c-1.33-0.29-2.52-0.13-3.54,0.47C438.18,128.12,437.53,129.04,437.25,130.28z M437.73,148.09c1.06,0.23,1.88,0.79,2.47,1.68
		c0.59,0.89,0.77,1.85,0.55,2.88c-0.22,1.03-0.79,1.83-1.68,2.4c-0.9,0.57-1.87,0.74-2.92,0.52s-1.85-0.79-2.43-1.68
		s-0.75-1.85-0.52-2.88c0.22-1.03,0.78-1.83,1.66-2.4C435.74,148.03,436.7,147.86,437.73,148.09z"/>
	<path class="st2" d="M489.82,141.8l-5.74,2.22c-0.74-2.68-1.9-4.31-3.47-4.89c-0.77-0.28-1.47-0.31-2.11-0.08
		c-0.64,0.23-1.05,0.6-1.25,1.12s-0.2,1.07-0.02,1.66c0.25,0.79,1.19,2.63,2.83,5.53c1.54,2.69,2.46,4.37,2.76,5.03
		c0.74,1.64,1.16,3.09,1.25,4.37c0.09,1.28-0.1,2.56-0.58,3.86c-0.93,2.52-2.57,4.28-4.92,5.28s-4.93,0.98-7.73-0.05
		c-2.19-0.81-3.9-2.05-5.12-3.72c-1.23-1.67-2-3.87-2.3-6.6l6.01-1.15c0.47,3.26,1.67,5.25,3.6,5.96c1,0.37,1.96,0.39,2.86,0.06
		c0.9-0.33,1.49-0.88,1.77-1.65c0.26-0.7,0.26-1.49,0-2.38c-0.26-0.89-1-2.37-2.23-4.46c-2.34-3.97-3.72-6.87-4.15-8.71
		c-0.43-1.84-0.37-3.5,0.17-4.98c0.79-2.13,2.27-3.66,4.46-4.58c2.19-0.92,4.47-0.95,6.86-0.07c1.53,0.57,2.86,1.46,3.99,2.68
		C487.88,137.47,488.9,139.32,489.82,141.8z"/>
	<path class="st2" d="M499.43,141.06l16.16,7.66l-2.61,5.51l-10.56-5.01l-2.54,5.35l10.56,5.01l-2.56,5.41l-10.57-5.01l-3.69,7.79
		l10.57,5.01l-2.62,5.53l-16.16-7.66L499.43,141.06z"/>
	<path class="st2" d="M536.95,160.1c3.93,2.45,6.42,5.99,7.48,10.6c1.05,4.61,0.3,8.96-2.25,13.06c-2.53,4.06-6.07,6.62-10.61,7.68
		c-4.54,1.07-8.81,0.36-12.79-2.13c-4.17-2.6-6.74-6.21-7.7-10.81c-0.96-4.61-0.2-8.89,2.27-12.86c1.66-2.66,3.83-4.7,6.5-6.13
		c2.68-1.43,5.55-2.09,8.61-1.99C531.53,157.62,534.36,158.48,536.95,160.1z M533.67,165.24c-2.57-1.6-5.29-2.06-8.16-1.36
		s-5.16,2.42-6.88,5.18c-1.92,3.07-2.33,6.19-1.24,9.36c0.84,2.47,2.37,4.39,4.59,5.78c2.51,1.56,5.21,1.99,8.11,1.28
		c2.9-0.71,5.17-2.4,6.83-5.06c1.65-2.65,2.16-5.44,1.52-8.38C537.8,169.09,536.21,166.83,533.67,165.24z"/>
	<path class="st2" d="M557.85,175.19l4.85,3.95l-13.36,16.44c-1.15,1.42-1.84,2.52-2.07,3.31c-0.23,0.79-0.2,1.59,0.08,2.4
		s0.83,1.55,1.64,2.21c0.85,0.69,1.75,1.09,2.68,1.2c0.93,0.11,1.77-0.04,2.49-0.45c0.73-0.41,1.78-1.47,3.17-3.17l12.87-15.83
		l4.85,3.95l-12.32,15.15c-2.08,2.56-3.67,4.21-4.76,4.97c-1.09,0.76-2.42,1.27-3.98,1.53s-3.05,0.18-4.47-0.24
		c-1.42-0.42-2.83-1.2-4.24-2.34c-1.84-1.5-3.1-3.23-3.78-5.18c-0.68-1.96-0.79-3.81-0.34-5.56c0.45-1.75,1.9-4.14,4.37-7.17
		L557.85,175.19z"/>
	<path class="st2" d="M582.01,195.68l4.46,4.36l-18.73,19.18l6.5,6.35l-4.15,4.25l-10.96-10.7L582.01,195.68z"/>
	<path class="st2" d="M617.37,234.02c2.78,3.71,3.82,7.91,3.13,12.59c-0.69,4.68-2.96,8.47-6.83,11.36
		c-3.83,2.86-8.05,3.97-12.67,3.32c-4.62-0.65-8.34-2.86-11.15-6.61c-2.95-3.94-4.03-8.23-3.26-12.87s3.03-8.36,6.78-11.17
		c2.51-1.88,5.27-3,8.28-3.36c3.01-0.36,5.93,0.06,8.75,1.26C613.21,229.75,615.54,231.57,617.37,234.02z M612.45,237.63
		c-1.82-2.43-4.19-3.84-7.11-4.23c-2.93-0.39-5.69,0.39-8.29,2.34c-2.9,2.17-4.42,4.93-4.54,8.27c-0.11,2.61,0.62,4.96,2.19,7.05
		c1.77,2.37,4.14,3.74,7.09,4.13c2.96,0.39,5.69-0.36,8.2-2.24c2.5-1.87,3.98-4.29,4.46-7.26
		C614.91,242.72,614.24,240.03,612.45,237.63z"/>
	<path class="st2" d="M631.63,255.97l3.62,6.44c2.33,4.15,3.55,7.52,3.66,10.12c0.11,2.6-0.63,5.2-2.22,7.81s-3.92,4.78-7.01,6.52
		c-2.2,1.24-4.43,2.01-6.68,2.31c-2.25,0.31-4.35,0.16-6.29-0.44s-3.56-1.52-4.87-2.76c-1.31-1.24-3-3.71-5.08-7.4l-3.67-6.54
		L631.63,255.97z M629.42,264.31l-18.01,10.13l1.42,2.52c1.4,2.48,2.69,4.13,3.89,4.93s2.67,1.18,4.42,1.13
		c1.75-0.05,3.61-0.62,5.57-1.73c3.03-1.7,4.91-3.87,5.62-6.51c0.64-2.37,0.02-5.25-1.88-8.62L629.42,264.31z"/>
	<path class="st2" d="M647.9,286.4l7.1,16.41l-5.6,2.42l-4.64-10.73l-5.44,2.35l4.65,10.73l-5.5,2.38l-4.65-10.73l-7.91,3.42
		l4.64,10.73l-5.62,2.43l-7.1-16.41L647.9,286.4z"/>
	<path class="st2" d="M636.06,326.59c0.34,1.03,0.27,2.02-0.2,2.98s-1.2,1.6-2.2,1.93c-1,0.33-1.98,0.25-2.92-0.24
		c-0.95-0.49-1.59-1.24-1.92-2.25c-0.33-1.02-0.26-2,0.22-2.94c0.48-0.95,1.22-1.58,2.22-1.91c1-0.33,1.97-0.26,2.91,0.22
		S635.73,325.59,636.06,326.59z M651.18,317.17l-1.82-5.54c2.71-0.92,5.26-0.72,7.65,0.59c2.39,1.31,4.09,3.51,5.11,6.6
		c0.65,1.99,0.84,3.8,0.56,5.44c-0.28,1.64-0.97,3.1-2.08,4.39c-1.11,1.29-2.42,2.19-3.95,2.69c-0.83,0.27-1.7,0.41-2.59,0.4
		s-1.86-0.16-2.89-0.46c-0.61-0.18-1.7-0.72-3.29-1.62c-1.52-0.86-2.56-1.37-3.12-1.53c-0.56-0.16-1.26-0.22-2.09-0.18
		c-0.83,0.04-1.93,0.25-3.31,0.64l-1.88-5.74l0.95-0.33c1.89-0.62,3.72-0.84,5.49-0.65c1.77,0.19,3.59,0.83,5.45,1.94
		c1.8,1.07,3,1.67,3.6,1.82c0.59,0.15,1.22,0.11,1.89-0.1c0.9-0.3,1.54-0.92,1.92-1.88c0.38-0.96,0.36-2.08-0.05-3.35
		c-0.42-1.3-1.16-2.24-2.19-2.82C653.51,316.89,652.39,316.79,651.18,317.17z"/>
	<path class="st2" d="M667.84,368.34l-4.82-3.83c1.94-1.99,2.76-3.82,2.46-5.47c-0.14-0.81-0.48-1.43-1-1.86
		c-0.52-0.44-1.05-0.6-1.59-0.51c-0.54,0.1-1.02,0.37-1.44,0.82c-0.55,0.61-1.67,2.36-3.34,5.24c-1.54,2.69-2.52,4.33-2.94,4.92
		c-1.04,1.47-2.08,2.57-3.13,3.29s-2.26,1.21-3.62,1.45c-2.65,0.47-4.99-0.05-7.04-1.57c-2.05-1.52-3.34-3.75-3.87-6.69
		c-0.41-2.3-0.2-4.4,0.62-6.3c0.82-1.91,2.33-3.68,4.52-5.33l4.03,4.6c-2.57,2.06-3.68,4.1-3.32,6.12c0.19,1.05,0.65,1.88,1.4,2.49
		c0.74,0.61,1.51,0.84,2.32,0.7c0.73-0.13,1.41-0.53,2.05-1.2s1.54-2.06,2.71-4.18c2.24-4.02,4.04-6.69,5.42-7.99
		c1.37-1.3,2.83-2.09,4.38-2.37c2.24-0.4,4.31,0.11,6.21,1.53c1.91,1.42,3.08,3.38,3.53,5.88c0.29,1.61,0.19,3.21-0.3,4.8
		C670.59,364.47,669.51,366.29,667.84,368.34z"/>
	<path class="st2" d="M673.34,376.23l1.59,17.81l-6.08,0.54l-1.04-11.64l-5.9,0.52l1.04,11.65l-5.97,0.53L655.95,384l-8.58,0.76
		l1.04,11.65l-6.1,0.54l-1.58-17.81L673.34,376.23z"/>
	<path class="st2" d="M675.96,418.18c-0.11,4.63-1.89,8.58-5.33,11.83s-7.57,4.82-12.39,4.7c-4.78-0.12-8.78-1.86-12.01-5.23
		c-3.23-3.37-4.78-7.4-4.67-12.1c0.12-4.92,1.92-8.96,5.4-12.12c3.48-3.17,7.56-4.69,12.23-4.58c3.13,0.08,5.99,0.91,8.58,2.49
		c2.59,1.58,4.62,3.71,6.09,6.4C675.34,412.24,676.04,415.12,675.96,418.18z M669.86,417.96c0.08-3.03-0.92-5.6-2.97-7.72
		c-2.06-2.12-4.71-3.22-7.96-3.3c-3.62-0.09-6.52,1.14-8.69,3.69c-1.7,1.98-2.58,4.28-2.64,6.89c-0.07,2.96,0.93,5.5,3.02,7.63
		s4.69,3.24,7.83,3.32c3.12,0.08,5.78-0.91,7.99-2.95C668.64,423.48,669.79,420.96,669.86,417.96z"/>
	<path class="st2" d="M673.59,443.82l-0.93,6.19l-20.95-3.15c-1.8-0.27-3.1-0.31-3.9-0.1c-0.79,0.2-1.47,0.63-2.03,1.29
		c-0.56,0.66-0.91,1.5-1.07,2.53c-0.16,1.09-0.05,2.06,0.33,2.92s0.93,1.5,1.66,1.92c0.73,0.42,2.17,0.79,4.34,1.12l20.18,3.03
		l-0.93,6.19l-19.31-2.9c-3.26-0.49-5.49-1.01-6.7-1.57c-1.21-0.56-2.32-1.44-3.34-2.65c-1.02-1.21-1.71-2.54-2.07-3.97
		c-0.36-1.44-0.41-3.05-0.14-4.84c0.35-2.35,1.2-4.31,2.54-5.89c1.34-1.58,2.88-2.62,4.61-3.12c1.73-0.5,4.53-0.47,8.39,0.11
		L673.59,443.82z"/>
	<path class="st2" d="M668.23,475.07l-1.49,6.06l-26.04-6.4l-2.17,8.82l-5.77-1.42l3.66-14.88L668.23,475.07z"/>
	<path class="st2" d="M653.08,525.05c-1.8,4.27-4.89,7.3-9.27,9.07c-4.38,1.77-8.8,1.73-13.25-0.14c-4.41-1.85-7.5-4.94-9.28-9.25
		c-1.78-4.32-1.76-8.64,0.06-12.97c1.9-4.53,5.05-7.64,9.45-9.32s8.75-1.62,13.06,0.19c2.89,1.21,5.25,3.03,7.08,5.44
		c1.84,2.42,2.95,5.14,3.34,8.18C654.66,519.29,654.27,522.22,653.08,525.05z M647.48,522.62c1.17-2.79,1.19-5.55,0.05-8.27
		c-1.14-2.72-3.21-4.71-6.21-5.97c-3.34-1.4-6.48-1.31-9.44,0.27c-2.3,1.22-3.96,3.04-4.97,5.45c-1.15,2.73-1.14,5.46,0.03,8.21
		c1.16,2.75,3.19,4.73,6.08,5.94c2.87,1.21,5.71,1.26,8.52,0.17C644.33,527.32,646.32,525.39,647.48,522.62z"/>
	<path class="st2" d="M641.36,548.45l-3.73,6.38c-2.4,4.11-4.69,6.87-6.88,8.27c-2.19,1.4-4.8,2.08-7.85,2.03
		c-3.05-0.05-6.11-0.96-9.17-2.75c-2.18-1.27-3.97-2.8-5.38-4.59c-1.4-1.79-2.34-3.68-2.8-5.65c-0.46-1.98-0.49-3.85-0.08-5.6
		s1.68-4.46,3.82-8.13l3.78-6.47L641.36,548.45z M633.04,550.76l-17.84-10.42l-1.46,2.5c-1.44,2.46-2.2,4.41-2.28,5.85
		s0.34,2.9,1.26,4.38s2.36,2.8,4.31,3.94c3,1.75,5.82,2.28,8.46,1.56c2.37-0.64,4.54-2.64,6.49-5.98L633.04,550.76z"/>
	<path class="st2" d="M623.32,577.88l-10.56,14.43l-4.92-3.6l6.9-9.43l-4.78-3.5l-6.91,9.43l-4.83-3.54l6.91-9.43l-6.95-5.09
		l-6.91,9.43l-4.94-3.62l10.56-14.43L623.32,577.88z"/>
	<path class="st2" d="M582.69,587.98c-0.72,0.81-1.61,1.26-2.67,1.34s-1.99-0.22-2.78-0.92c-0.79-0.7-1.22-1.58-1.28-2.64
		s0.26-2,0.97-2.8s1.59-1.24,2.65-1.3c1.06-0.07,1.98,0.25,2.77,0.95c0.79,0.7,1.22,1.57,1.28,2.62
		C583.7,586.27,583.38,587.19,582.69,587.98z M598.48,596.24l3.86-4.38c2.16,1.87,3.29,4.17,3.37,6.89c0.08,2.73-0.95,5.31-3.1,7.75
		c-1.38,1.57-2.85,2.65-4.4,3.24c-1.55,0.59-3.16,0.74-4.84,0.44c-1.67-0.3-3.11-0.98-4.32-2.04c-0.66-0.58-1.21-1.25-1.66-2.03
		s-0.8-1.68-1.07-2.73c-0.15-0.61-0.25-1.83-0.28-3.66c-0.03-1.75-0.11-2.9-0.26-3.46c-0.15-0.56-0.45-1.2-0.9-1.89
		s-1.2-1.54-2.23-2.53l3.99-4.53l0.77,0.65c1.49,1.32,2.61,2.78,3.34,4.41c0.74,1.62,1.1,3.51,1.09,5.68c0,2.09,0.08,3.43,0.25,4.02
		s0.52,1.11,1.04,1.58c0.71,0.63,1.58,0.86,2.6,0.7c1.02-0.16,1.97-0.74,2.86-1.74c0.9-1.02,1.34-2.13,1.32-3.32
		C599.9,598.11,599.42,597.09,598.48,596.24z"/>
	<path class="st2" d="M562.89,636.55l0.85-6.1c2.7,0.65,4.69,0.43,5.96-0.66c0.62-0.53,0.98-1.14,1.09-1.81
		c0.11-0.67-0.02-1.21-0.37-1.63c-0.36-0.42-0.84-0.69-1.44-0.82c-0.81-0.17-2.88-0.24-6.21-0.21c-3.1,0.04-5.01,0.03-5.74-0.03
		c-1.79-0.14-3.27-0.49-4.43-1.03c-1.16-0.54-2.19-1.33-3.09-2.38c-1.75-2.04-2.49-4.33-2.23-6.87s1.53-4.78,3.8-6.73
		c1.77-1.52,3.68-2.41,5.74-2.67c2.06-0.26,4.35,0.13,6.89,1.19l-1.91,5.81c-3.08-1.17-5.4-1.08-6.96,0.25
		c-0.81,0.7-1.29,1.52-1.44,2.47c-0.15,0.95,0.05,1.73,0.58,2.35c0.48,0.56,1.18,0.95,2.08,1.15s2.56,0.28,4.98,0.21
		c4.6-0.12,7.82,0.08,9.64,0.6c1.82,0.52,3.24,1.38,4.27,2.57c1.48,1.72,2.09,3.76,1.84,6.13c-0.25,2.36-1.34,4.37-3.27,6.03
		c-1.24,1.07-2.67,1.79-4.28,2.18S565.5,636.94,562.89,636.55z"/>
	<path class="st2" d="M558.89,645.29l-14.53,10.43l-3.56-4.96l9.5-6.82l-3.45-4.81l-9.5,6.82l-3.49-4.87l9.5-6.82l-5.02-7l-9.5,6.82
		l-3.57-4.97l14.53-10.43L558.89,645.29z"/>
	<path class="st2" d="M524.05,668.9c-4.05,2.25-8.35,2.72-12.89,1.41c-4.54-1.31-7.99-4.08-10.33-8.29
		c-2.32-4.18-2.85-8.51-1.58-13.01s3.95-7.88,8.06-10.16c4.3-2.39,8.69-2.89,13.19-1.5c4.5,1.39,7.88,4.13,10.15,8.22
		c1.52,2.74,2.26,5.62,2.21,8.66c-0.05,3.03-0.86,5.86-2.43,8.5C528.85,665.35,526.72,667.41,524.05,668.9z M521.14,663.54
		c2.65-1.47,4.37-3.63,5.15-6.48c0.78-2.85,0.38-5.69-1.2-8.53c-1.76-3.17-4.29-5.04-7.59-5.62c-2.57-0.46-4.99-0.05-7.28,1.22
		c-2.58,1.44-4.27,3.59-5.05,6.47c-0.78,2.88-0.41,5.69,1.11,8.43c1.51,2.72,3.71,4.52,6.59,5.39S518.52,664.99,521.14,663.54z"/>
	<path class="st2" d="M500.69,679.88l-5.81,2.33L487,662.55c-0.68-1.69-1.31-2.83-1.89-3.42c-0.58-0.58-1.29-0.95-2.14-1.09
		c-0.85-0.15-1.76-0.03-2.72,0.36c-1.02,0.41-1.8,1-2.35,1.76c-0.55,0.76-0.82,1.56-0.81,2.4c0.01,0.84,0.42,2.27,1.24,4.31
		l7.6,18.94l-5.81,2.33l-7.27-18.12c-1.23-3.06-1.91-5.25-2.04-6.57s0.07-2.73,0.6-4.22s1.32-2.76,2.38-3.8
		c1.05-1.04,2.42-1.9,4.1-2.57c2.2-0.88,4.33-1.15,6.37-0.79s3.71,1.16,5.03,2.4s2.7,3.67,4.15,7.3L500.69,679.88z"/>
	<path class="st2" d="M471.04,691.07l-5.98,1.78l-7.65-25.7l-8.71,2.59l-1.7-5.7l14.68-4.37L471.04,691.07z"/>
	<path class="st2" d="M420.27,703.29c-4.59,0.62-8.77-0.52-12.52-3.4c-3.75-2.88-5.95-6.72-6.59-11.5
		c-0.63-4.74,0.46-8.97,3.28-12.68s6.56-5.89,11.21-6.51c4.87-0.65,9.15,0.49,12.82,3.43c3.67,2.94,5.82,6.72,6.44,11.36
		c0.42,3.1,0.05,6.06-1.11,8.87s-2.94,5.15-5.37,7.02C426.04,701.75,423.31,702.89,420.27,703.29z M419.53,697.24
		c3-0.4,5.39-1.79,7.16-4.15c1.77-2.36,2.44-5.16,2-8.38c-0.48-3.59-2.15-6.26-5.01-8c-2.22-1.37-4.63-1.88-7.22-1.53
		c-2.93,0.39-5.29,1.79-7.06,4.18c-1.78,2.4-2.46,5.14-2.04,8.25c0.41,3.09,1.8,5.57,4.17,7.43
		C413.89,696.9,416.56,697.63,419.53,697.24z"/>
	<path class="st2" d="M394.53,704.88l-7.39,0.12c-4.76,0.08-8.31-0.46-10.64-1.6c-2.33-1.14-4.27-3.03-5.81-5.66
		s-2.34-5.72-2.4-9.27c-0.04-2.52,0.34-4.85,1.14-6.98c0.8-2.13,1.93-3.9,3.39-5.32c1.45-1.42,3.04-2.41,4.75-2.97
		s4.69-0.88,8.93-0.95l7.5-0.12L394.53,704.88z M388.24,698.97l-0.33-20.66l-2.89,0.05c-2.85,0.05-4.91,0.41-6.18,1.08
		c-1.27,0.67-2.31,1.79-3.1,3.35s-1.17,3.47-1.13,5.73c0.06,3.48,1.07,6.16,3.05,8.04c1.78,1.7,4.61,2.51,8.48,2.45L388.24,698.97z"
		/>
	<path class="st2" d="M359.74,704.45l-17.8-1.75l0.6-6.07l11.63,1.15l0.58-5.9l-11.63-1.15l0.59-5.96l11.63,1.15l0.84-8.58
		l-11.63-1.15l0.6-6.09l17.8,1.75L359.74,704.45z"/>
	<path class="st2" d="M331.25,692.4l5.73,1.1c-0.51,2.81-1.92,4.95-4.22,6.41c-2.31,1.46-5.05,1.88-8.25,1.27
		c-2.06-0.39-3.73-1.11-5.03-2.14c-1.3-1.04-2.24-2.35-2.84-3.95c-0.59-1.6-0.74-3.18-0.44-4.75c0.17-0.86,0.47-1.68,0.9-2.46
		c0.44-0.78,1.04-1.55,1.8-2.31c0.45-0.44,1.45-1.14,3.01-2.1c1.49-0.91,2.44-1.57,2.85-1.98c0.41-0.41,0.8-0.99,1.17-1.74
		c0.37-0.75,0.72-1.81,1.05-3.2l5.93,1.14l-0.17,0.99c-0.38,1.95-1.07,3.66-2.09,5.12s-2.47,2.74-4.34,3.83
		c-1.81,1.06-2.92,1.81-3.34,2.26c-0.42,0.45-0.69,1.02-0.83,1.7c-0.18,0.93,0.06,1.8,0.71,2.6c0.66,0.8,1.64,1.32,2.95,1.58
		c1.34,0.26,2.52,0.07,3.53-0.55C330.37,694.58,331,693.64,331.25,692.4z M330.34,674.6c-1.06-0.2-1.9-0.74-2.51-1.62
		s-0.82-1.83-0.62-2.86s0.74-1.85,1.63-2.44c0.88-0.59,1.85-0.79,2.9-0.59c1.05,0.2,1.87,0.74,2.47,1.62
		c0.6,0.88,0.79,1.83,0.59,2.87s-0.73,1.85-1.6,2.44C332.33,674.61,331.38,674.8,330.34,674.6z"/>
	<path class="st2" d="M278.43,682.17l5.69-2.36c0.8,2.66,2,4.26,3.59,4.8c0.77,0.26,1.48,0.27,2.11,0.03
		c0.63-0.25,1.04-0.63,1.22-1.15c0.18-0.52,0.17-1.07-0.02-1.66c-0.27-0.78-1.26-2.6-2.97-5.46c-1.61-2.65-2.57-4.31-2.88-4.96
		c-0.78-1.62-1.24-3.06-1.36-4.33c-0.12-1.27,0.04-2.56,0.49-3.87c0.87-2.54,2.47-4.34,4.79-5.4c2.32-1.06,4.9-1.1,7.73-0.14
		c2.21,0.75,3.95,1.95,5.21,3.59s2.09,3.82,2.47,6.54l-5.98,1.3c-0.55-3.25-1.8-5.21-3.74-5.87c-1.01-0.35-1.96-0.34-2.86,0.01
		c-0.89,0.35-1.47,0.92-1.73,1.69c-0.24,0.7-0.22,1.49,0.06,2.37c0.28,0.88,1.06,2.35,2.34,4.4c2.44,3.91,3.89,6.78,4.36,8.61
		c0.47,1.83,0.46,3.49-0.05,4.98c-0.73,2.15-2.18,3.71-4.35,4.69c-2.16,0.98-4.45,1.06-6.85,0.23c-1.55-0.53-2.9-1.39-4.05-2.59
		C280.48,686.45,279.41,684.62,278.43,682.17z"/>
	<path class="st2" d="M268.84,683.14l-16.34-7.26l2.48-5.58l10.68,4.75l2.4-5.41l-10.68-4.75l2.43-5.47l10.68,4.75l3.5-7.88
		l-10.68-4.75l2.49-5.6l16.34,7.26L268.84,683.14z"/>
	<path class="st2" d="M230.87,665.02c-3.99-2.36-6.57-5.83-7.73-10.41s-0.52-8.95,1.93-13.11c2.43-4.12,5.9-6.76,10.42-7.94
		c4.52-1.18,8.8-0.57,12.84,1.81c4.23,2.5,6.89,6.04,7.96,10.62c1.07,4.58,0.42,8.89-1.96,12.91c-1.59,2.7-3.71,4.79-6.35,6.28
		s-5.49,2.23-8.56,2.2S233.5,666.58,230.87,665.02z M234.03,659.8c2.61,1.54,5.34,1.93,8.19,1.17c2.85-0.76,5.1-2.55,6.76-5.35
		c1.84-3.12,2.18-6.25,1.01-9.38c-0.9-2.45-2.48-4.33-4.73-5.67c-2.55-1.5-5.26-1.86-8.14-1.08c-2.88,0.78-5.11,2.52-6.71,5.22
		c-1.59,2.68-2.02,5.49-1.32,8.41C229.8,656.05,231.44,658.28,234.03,659.8z"/>
	<path class="st2" d="M209.6,650.44l-4.95-3.83l12.96-16.75c1.12-1.44,1.78-2.56,1.99-3.35s0.16-1.59-0.14-2.4
		c-0.3-0.81-0.87-1.53-1.69-2.17c-0.87-0.67-1.77-1.05-2.71-1.14c-0.94-0.09-1.76,0.08-2.48,0.51c-0.72,0.43-1.75,1.51-3.09,3.25
		l-12.49,16.14l-4.95-3.83l11.95-15.45c2.02-2.61,3.56-4.3,4.64-5.08c1.07-0.78,2.39-1.32,3.94-1.62s3.05-0.26,4.48,0.13
		c1.43,0.38,2.86,1.13,4.29,2.24c1.88,1.45,3.18,3.15,3.9,5.09s0.88,3.79,0.48,5.55s-1.8,4.19-4.19,7.27L209.6,650.44z"/>
	<path class="st2" d="M184.94,630.53l-4.56-4.25l18.26-19.63l-6.65-6.19l4.05-4.35l11.22,10.44L184.94,630.53z"/>
	<path class="st2" d="M148.68,593.06c-2.87-3.64-4.01-7.81-3.44-12.51c0.57-4.7,2.76-8.54,6.55-11.52
		c3.76-2.96,7.95-4.16,12.59-3.62s8.41,2.65,11.31,6.34c3.04,3.86,4.23,8.13,3.57,12.78c-0.66,4.66-2.83,8.43-6.5,11.33
		c-2.46,1.94-5.19,3.12-8.2,3.56c-3,0.43-5.93,0.08-8.77-1.05S150.57,595.47,148.68,593.06z M153.52,589.34
		c1.87,2.38,4.28,3.73,7.21,4.05c2.93,0.32,5.68-0.53,8.23-2.54c2.85-2.24,4.29-5.03,4.34-8.38c0.05-2.61-0.74-4.94-2.36-6.99
		c-1.83-2.32-4.23-3.64-7.19-3.96c-2.97-0.31-5.68,0.5-8.14,2.44c-2.45,1.93-3.88,4.38-4.28,7.37
		C150.93,584.31,151.66,586.98,153.52,589.34z"/>
	<path class="st2" d="M133.9,571.48l-3.78-6.35c-2.43-4.09-3.73-7.43-3.9-10.03s0.51-5.21,2.02-7.86c1.52-2.65,3.8-4.88,6.85-6.69
		c2.17-1.29,4.38-2.12,6.62-2.48s4.35-0.26,6.3,0.29c1.95,0.55,3.6,1.44,4.94,2.64c1.34,1.21,3.09,3.63,5.26,7.28l3.83,6.44
		L133.9,571.48z M135.91,563.09l17.76-10.56l-1.48-2.49c-1.46-2.45-2.79-4.06-4.01-4.83c-1.22-0.77-2.7-1.11-4.45-1.02
		c-1.75,0.09-3.59,0.71-5.53,1.87c-2.99,1.78-4.81,3.99-5.46,6.64c-0.59,2.39,0.11,5.25,2.09,8.58L135.91,563.09z"/>
	<path class="st2" d="M116.9,541.45l-7.5-16.23l5.54-2.56l4.91,10.61l5.38-2.49l-4.91-10.61l5.44-2.51l4.91,10.61l7.82-3.62
		l-4.91-10.61l5.56-2.57l7.5,16.23L116.9,541.45z"/>
	<path class="st2" d="M112.86,510.78l1.95,5.5c-2.68,0.98-5.24,0.85-7.66-0.4c-2.42-1.25-4.18-3.41-5.27-6.47
		c-0.7-1.97-0.93-3.78-0.7-5.42c0.24-1.64,0.89-3.12,1.97-4.44c1.08-1.32,2.37-2.25,3.88-2.78c0.83-0.29,1.68-0.45,2.58-0.46
		s1.86,0.11,2.9,0.39c0.61,0.16,1.72,0.67,3.33,1.54c1.54,0.83,2.59,1.31,3.15,1.46s1.26,0.19,2.09,0.13
		c0.83-0.06,1.93-0.3,3.29-0.72l2.02,5.69l-0.94,0.36c-1.87,0.67-3.7,0.93-5.47,0.79c-1.78-0.14-3.61-0.74-5.5-1.81
		c-1.83-1.02-3.04-1.6-3.64-1.73c-0.6-0.13-1.23-0.08-1.88,0.15c-0.9,0.32-1.52,0.96-1.88,1.93c-0.36,0.97-0.31,2.08,0.13,3.34
		c0.46,1.29,1.21,2.21,2.26,2.77C110.54,511.12,111.66,511.19,112.86,510.78z M127.75,500.98c-0.36-1.02-0.32-2.02,0.12-2.99
		c0.44-0.97,1.16-1.63,2.16-1.98c0.99-0.35,1.97-0.3,2.93,0.17s1.62,1.2,1.98,2.21c0.36,1.01,0.31,1.99-0.15,2.95
		s-1.18,1.61-2.17,1.96c-0.99,0.35-1.96,0.3-2.91-0.15C128.75,502.7,128.1,501.98,127.75,500.98z"/>
	<path class="st2" d="M94.95,460.04l4.92,3.71c-1.89,2.04-2.66,3.88-2.33,5.53c0.16,0.8,0.51,1.41,1.04,1.84
		c0.53,0.42,1.07,0.58,1.61,0.47c0.54-0.11,1.01-0.4,1.42-0.86c0.54-0.63,1.61-2.4,3.21-5.32c1.47-2.73,2.41-4.39,2.82-4.99
		c1-1.49,2.02-2.62,3.05-3.37c1.04-0.75,2.23-1.26,3.58-1.54c2.63-0.54,4.99-0.07,7.08,1.4c2.09,1.47,3.43,3.67,4.03,6.6
		c0.47,2.29,0.31,4.39-0.46,6.32s-2.24,3.74-4.39,5.43l-4.15-4.5c2.52-2.12,3.58-4.19,3.17-6.2c-0.21-1.05-0.7-1.87-1.46-2.46
		c-0.76-0.59-1.53-0.8-2.33-0.64c-0.73,0.15-1.4,0.57-2.02,1.25c-0.62,0.69-1.49,2.1-2.61,4.24c-2.14,4.08-3.88,6.79-5.22,8.12
		c-1.34,1.34-2.78,2.16-4.32,2.48c-2.23,0.45-4.31,0-6.25-1.38c-1.94-1.37-3.16-3.3-3.67-5.79c-0.33-1.6-0.27-3.2,0.18-4.8
		C92.3,463.98,93.33,462.13,94.95,460.04z"/>
	<path class="st2" d="M89.26,452.27l-2.02-17.77l6.06-0.69l1.32,11.62l5.89-0.67l-1.32-11.62l5.95-0.68l1.32,11.62l8.56-0.97
		l-1.32-11.62l6.08-0.69l2.02,17.77L89.26,452.27z"/>
	<path class="st2" d="M85.64,409.89c0.08-4.63,1.82-8.59,5.23-11.87c3.41-3.28,7.53-4.88,12.35-4.8c4.78,0.08,8.8,1.79,12.05,5.13
		c3.26,3.34,4.85,7.36,4.77,12.06c-0.08,4.92-1.85,8.97-5.3,12.17c-3.45,3.2-7.52,4.76-12.19,4.68c-3.13-0.05-6-0.85-8.6-2.41
		s-4.65-3.67-6.14-6.35C86.31,415.81,85.59,412.95,85.64,409.89z M91.74,410.05c-0.05,3.03,0.96,5.6,3.04,7.7
		c2.07,2.1,4.74,3.18,7.99,3.23c3.62,0.06,6.51-1.2,8.66-3.76c1.68-1.99,2.54-4.3,2.58-6.91c0.05-2.96-0.98-5.49-3.08-7.61
		c-2.1-2.12-4.72-3.2-7.85-3.25c-3.12-0.05-5.77,0.95-7.97,3.01C92.91,404.52,91.79,407.05,91.74,410.05z"/>
	<path class="st2" d="M87.38,384.7l0.78-6.21l21.02,2.64c1.81,0.23,3.11,0.23,3.9,0.01c0.79-0.22,1.46-0.67,2-1.34
		c0.54-0.67,0.88-1.52,1-2.56c0.14-1.09,0-2.06-0.4-2.91c-0.4-0.85-0.97-1.48-1.7-1.88c-0.73-0.4-2.19-0.73-4.37-1.01l-20.24-2.54
		l0.78-6.21l19.38,2.43c3.27,0.41,5.52,0.88,6.74,1.41c1.22,0.53,2.35,1.38,3.4,2.57c1.05,1.19,1.77,2.49,2.17,3.92
		c0.4,1.43,0.48,3.04,0.26,4.84c-0.3,2.36-1.09,4.34-2.4,5.95c-1.3,1.61-2.81,2.69-4.54,3.23c-1.72,0.55-4.52,0.58-8.39,0.09
		L87.38,384.7z"/>
	<path class="st2" d="M91.98,353.34l1.34-6.09l26.19,5.76l1.95-8.87l5.81,1.28l-3.29,14.96L91.98,353.34z"/>
	<path class="st2" d="M105.9,303c1.69-4.31,4.71-7.41,9.05-9.29c4.34-1.88,8.76-1.94,13.25-0.18c4.45,1.74,7.62,4.75,9.5,9.02
		c1.88,4.27,1.97,8.59,0.25,12.96c-1.79,4.58-4.87,7.76-9.22,9.55s-8.71,1.83-13.06,0.12c-2.92-1.14-5.32-2.9-7.22-5.27
		c-1.89-2.37-3.07-5.07-3.54-8.1S104.79,305.85,105.9,303z M111.56,305.28c-1.11,2.82-1.05,5.58,0.16,8.27
		c1.21,2.69,3.33,4.63,6.35,5.82c3.37,1.32,6.52,1.16,9.43-0.5c2.27-1.28,3.88-3.14,4.84-5.57c1.08-2.75,1-5.49-0.23-8.21
		s-3.31-4.65-6.22-5.79c-2.9-1.14-5.74-1.12-8.52,0.04S112.66,302.49,111.56,305.28z"/>
	<path class="st2" d="M117.05,279.33l3.57-6.47c2.3-4.17,4.53-6.98,6.68-8.44s4.75-2.2,7.8-2.23c3.05-0.03,6.13,0.82,9.24,2.53
		c2.21,1.22,4.04,2.71,5.49,4.46s2.43,3.62,2.93,5.58c0.51,1.97,0.58,3.83,0.22,5.6s-1.57,4.5-3.62,8.22l-3.62,6.56L117.05,279.33z
		 M125.3,276.81l18.09,9.98l1.4-2.53c1.38-2.5,2.09-4.46,2.14-5.9c0.05-1.44-0.41-2.89-1.37-4.35c-0.96-1.46-2.43-2.74-4.4-3.83
		c-3.04-1.68-5.88-2.13-8.49-1.36c-2.36,0.7-4.47,2.75-6.34,6.14L125.3,276.81z"/>
	<path class="st2" d="M134.37,249.46l10.21-14.68l5.01,3.48l-6.67,9.6l4.86,3.38l6.67-9.6l4.92,3.42l-6.67,9.6l7.08,4.92l6.67-9.6
		l5.03,3.5l-10.21,14.68L134.37,249.46z"/>
	<path class="st2" d="M158.75,230.51l-3.75,4.47c-2.21-1.82-3.39-4.08-3.54-6.81s0.82-5.33,2.91-7.82c1.35-1.6,2.79-2.72,4.32-3.35
		s3.15-0.81,4.83-0.55s3.14,0.9,4.36,1.94c0.67,0.56,1.24,1.23,1.71,1.98c0.47,0.76,0.85,1.66,1.14,2.7
		c0.17,0.61,0.29,1.82,0.37,3.65c0.07,1.74,0.18,2.9,0.34,3.46c0.16,0.56,0.47,1.18,0.94,1.87s1.23,1.51,2.29,2.47l-3.88,4.62
		l-0.78-0.63c-1.52-1.28-2.67-2.72-3.45-4.32c-0.78-1.6-1.19-3.49-1.23-5.65c-0.05-2.09-0.16-3.43-0.35-4.02
		c-0.19-0.58-0.55-1.1-1.08-1.55c-0.73-0.61-1.6-0.82-2.62-0.64c-1.02,0.18-1.95,0.79-2.81,1.81c-0.88,1.05-1.29,2.16-1.24,3.35
		C157.28,228.67,157.79,229.68,158.75,230.51z M174.74,238.38c0.7-0.83,1.58-1.3,2.64-1.41c1.06-0.11,1.99,0.18,2.8,0.85
		c0.81,0.68,1.25,1.55,1.34,2.61c0.09,1.06-0.21,2-0.9,2.82c-0.69,0.82-1.56,1.27-2.62,1.37c-1.06,0.09-1.99-0.2-2.79-0.88
		s-1.26-1.54-1.35-2.59C173.76,240.11,174.06,239.19,174.74,238.38z"/>
	<path class="st2" d="M193.37,189.33l-0.7,6.12c-2.72-0.59-4.7-0.32-5.94,0.81c-0.61,0.55-0.96,1.16-1.05,1.83
		c-0.09,0.67,0.04,1.21,0.41,1.62c0.37,0.41,0.85,0.67,1.46,0.78c0.81,0.15,2.88,0.17,6.21,0.06c3.1-0.12,5.01-0.15,5.73-0.11
		c1.79,0.1,3.28,0.41,4.45,0.92c1.17,0.51,2.22,1.28,3.15,2.3c1.8,1.99,2.6,4.26,2.39,6.81c-0.21,2.55-1.42,4.82-3.63,6.82
		c-1.73,1.56-3.62,2.5-5.67,2.81s-4.36-0.03-6.91-1.02l1.77-5.86c3.11,1.09,5.43,0.95,6.95-0.42c0.79-0.72,1.25-1.55,1.38-2.5
		s-0.09-1.73-0.64-2.34c-0.5-0.55-1.2-0.92-2.1-1.1c-0.91-0.18-2.57-0.21-4.98-0.09c-4.6,0.23-7.81,0.11-9.65-0.37
		c-1.83-0.48-3.28-1.3-4.33-2.47c-1.52-1.69-2.19-3.71-1.99-6.08c0.2-2.37,1.24-4.4,3.12-6.1c1.21-1.1,2.62-1.86,4.23-2.29
		S190.75,189,193.37,189.33z"/>
	<path class="st2" d="M197.17,180.48l14.27-10.77l3.68,4.87l-9.33,7.04l3.57,4.73l9.33-7.04l3.61,4.78l-9.33,7.04l5.19,6.88
		l9.33-7.04l3.69,4.89l-14.27,10.77L197.17,180.48z"/>
	<path class="st2" d="M231.39,156.06c3.99-2.35,8.28-2.92,12.86-1.72c4.58,1.2,8.09,3.88,10.53,8.04c2.42,4.12,3.06,8.44,1.9,12.96
		c-1.16,4.52-3.76,7.97-7.81,10.35c-4.24,2.49-8.62,3.1-13.15,1.82c-4.53-1.28-7.98-3.94-10.35-7.97c-1.59-2.7-2.4-5.57-2.42-8.6
		c-0.03-3.03,0.71-5.88,2.22-8.55C226.68,159.72,228.76,157.61,231.39,156.06z M234.43,161.35c-2.61,1.54-4.28,3.74-4.99,6.6
		c-0.71,2.86-0.24,5.7,1.41,8.5c1.84,3.12,4.41,4.93,7.72,5.43c2.58,0.4,4.99-0.07,7.25-1.4c2.55-1.5,4.18-3.7,4.89-6.6
		c0.71-2.9,0.27-5.7-1.32-8.4c-1.58-2.69-3.82-4.43-6.72-5.23C239.76,159.47,237.02,159.83,234.43,161.35z"/>
	<path class="st2" d="M254.47,144.51l5.75-2.47l8.37,19.46c0.72,1.68,1.38,2.8,1.97,3.37c0.59,0.57,1.31,0.92,2.17,1.04
		c0.85,0.12,1.76-0.02,2.71-0.43c1.01-0.43,1.78-1.04,2.31-1.82c0.53-0.78,0.78-1.58,0.75-2.42c-0.03-0.84-0.48-2.26-1.34-4.28
		l-8.06-18.74l5.75-2.47l7.71,17.94c1.3,3.03,2.03,5.2,2.2,6.52c0.16,1.32,0,2.73-0.49,4.24c-0.49,1.5-1.25,2.79-2.28,3.85
		c-1.03,1.06-2.38,1.96-4.04,2.67c-2.18,0.94-4.3,1.25-6.34,0.95c-2.05-0.31-3.74-1.06-5.09-2.27c-1.34-1.21-2.79-3.61-4.33-7.19
		L254.47,144.51z"/>
	<path class="st2" d="M283.85,132.6l5.93-1.93l8.28,25.5l8.64-2.81l1.84,5.65l-14.57,4.73L283.85,132.6z"/>
</g>
<g>
	<path class="st3" d="M476.16,459.55c-1.29,10.82,0.15,21.56,4.26,31.75"/>
	<path class="st3" d="M228.68,554.72c-6.68-8.2-11.57-19.27-13.85-31.35c5.63,6.07,11.25,12.15,16.88,18.22
		c1.28,1.38,2.64,2.81,4.23,3.17c3.57,0.8,6.51-3.92,8.17-8.45c1.67-4.53,3.17-9.82,6.49-11.85c0.43,5.36,0.86,10.72,1.29,16.07
		c0.14,1.72,0.3,3.53,1.02,4.94c1.68,3.28,5.26,2.6,7.9,1.02c7.19-4.3,13.05-12.87,15.84-23.18c4.17,5.07,4.87,14.88,1.5,21.02
		c7.55-3.82,14.18-11.17,18.59-20.62c-1.16,8.06,2.05,16.95,7.35,20.35c0.29-4.47,0.73-9.07,2.36-12.93
		c1.63-3.86,4.73-6.81,7.87-6.12c7.42,1.63,7.31,18.88,14.12,23.35c0.31-4.21,0.99-8.37,2.02-12.35c0.38-1.47,0.89-3.04,1.89-3.72
		c2.09-1.41,4.09,1.91,5.6,4.38c3.82,6.27,10.22,9.16,15.91,7.17c5.69-1.99,10.4-8.75,11.71-16.82c3.15,0,4.55,5.42,5.45,9.68
		c0.89,4.26,3.53,9.29,6.39,7.43c0.91-0.59,1.53-1.78,2.12-2.92c1.69-3.29,3.38-6.58,5.07-9.87c4.75,11.79,15.54,17.96,24.76,14.17
		c-3.34-5.69,0.31-16.06,5.54-15.74c-1.96,5.12,0.44,12.05,4.24,14.3c3.8,2.25,8.32,0.6,11.67-2.78c3.35-3.39,5.77-8.28,8.05-13.13
		c1.05,8.39,9.23,11.46,14.61,7.61c5.38-3.85,8.49-11.88,11.27-19.43c3.02,7.56,4.43,16.4,3.98,25.06
		c7.62-6.74,15.6-12.66,23.86-17.69c-0.42,3.36,0.03,6.92,1.25,9.85c2.17-7.34,6.14-13.59,11.07-17.42
		c-0.41,8.3,0.21,18.94,5.8,21.56c5.01,2.35,9.86-3.99,12.87-10.13c3-6.14,6.34-13.42,11.6-14.07c-6.7,8.45-5.82,25.87,1.65,32.9"/>
	<g>
		<path class="st2" d="M299.37,471.53v6.75h8.72v-6.75h5.98v24.82h-20.67v-24.82H299.37z M293.39,502.46h20.67v5.69h-7.31v6.11
			h-5.98v-6.11h-7.38V502.46z M314.06,514.27v24.75h-5.98v-19.05h-14.69v-5.69H314.06z M299.37,490.65h8.72v-6.68h-8.72V490.65z"/>
		<path class="st2" d="M321.3,492.83l12.16-23.06l12.09,23.06l-4.85,3.51l-7.24-14.83l-7.24,14.83L321.3,492.83z M356.39,471.53
			v40.64h-5.98v-25.59h-6.68v-5.69h6.68v-9.35H356.39z"/>
		<path class="st2" d="M384.01,473.85c2.3,2.39,3.44,5.27,3.44,8.65c0,3.28-1.15,6.11-3.44,8.51c-2.34,2.39-5.11,3.58-8.3,3.58
			c-3.23,0-6-1.19-8.3-3.58c-2.3-2.39-3.45-5.23-3.45-8.51c0-3.38,1.15-6.26,3.45-8.65c2.3-2.34,5.06-3.52,8.3-3.52
			C378.9,470.33,381.67,471.51,384.01,473.85z M365.38,502.46h20.67v5.69h-7.31v6.11h-5.98v-6.11h-7.38V502.46z M380.07,523.69
			v-3.73h-14.69v-5.69h20.67v15.12h-14.69v3.93h14.69v5.7h-20.67v-15.33H380.07z M371.57,478c-1.08,1.27-1.62,2.77-1.62,4.5
			c0,1.69,0.54,3.16,1.62,4.43c1.13,1.31,2.51,1.97,4.15,1.97c1.59,0,2.95-0.66,4.08-1.97c1.13-1.27,1.69-2.74,1.69-4.43
			c0-1.73-0.56-3.23-1.69-4.5c-1.12-1.31-2.48-1.97-4.08-1.97C374.07,476.03,372.69,476.69,371.57,478z"/>
		<path class="st2" d="M427.46,471.53v24.82h-5.97v-19.12h-8.72v19.12h-5.97v-19.12H392.1v-5.69H427.46z M406.79,502.46h20.67v5.69
			h-7.31v6.11h-5.98v-6.11h-7.38V502.46z M427.46,514.27v24.75h-20.67v-24.75H427.46z M412.77,533.32h8.72v-13.36h-8.72V533.32z"/>
		<path class="st2" d="M455.09,473.85c2.3,2.39,3.44,5.27,3.44,8.65c0,3.28-1.15,6.11-3.44,8.51c-2.34,2.39-5.11,3.58-8.3,3.58
			c-3.23,0-6-1.19-8.3-3.58c-2.3-2.39-3.45-5.23-3.45-8.51c0-3.38,1.15-6.26,3.45-8.65c2.3-2.34,5.06-3.52,8.3-3.52
			C449.98,470.33,452.74,471.51,455.09,473.85z M436.46,502.46h20.67v5.69h-20.67V502.46z M442.64,478
			c-1.08,1.27-1.62,2.77-1.62,4.5c0,1.69,0.54,3.16,1.62,4.43c1.13,1.31,2.51,1.97,4.15,1.97c1.59,0,2.95-0.66,4.08-1.97
			c1.13-1.27,1.69-2.74,1.69-4.43c0-1.73-0.56-3.23-1.69-4.5c-1.12-1.31-2.48-1.97-4.08-1.97
			C445.15,476.03,443.77,476.69,442.64,478z M463.8,471.53h5.98v40.64h-5.98V471.53z"/>
		<path class="st2" d="M477.02,492.83l12.16-23.06l12.09,23.06l-4.85,3.51l-7.24-14.83l-7.24,14.83L477.02,492.83z M478.78,502.46
			h20.67v5.69h-7.31v6.11h-5.98v-6.11h-7.38V502.46z M499.45,514.27v5.69h-2.46v13.36h2.46v5.7h-20.67v-5.7h2.46v-13.36h-2.46v-5.69
			H499.45z M487.22,533.32h3.8v-13.36h-3.8V533.32z"/>
	</g>
	<path class="st3" d="M509.63,419.87c3.44-5.36,7.01-10.85,11.66-13.99c4.65-3.14,10.71-3.39,14.61,1.32
		c3.59,4.33,4.49,11.8,3.46,18.25c-1.04,6.45-3.68,12.13-6.28,17.66c6.11,3.2,11.3,10.7,12.04,19.71c0.74,9-3.97,18.74-10.46,19.63
		c2.59,6.01-0.07,14.36-4.47,17.79c-4.4,3.43-9.84,3.02-14.76,1.45"/>
	<path class="st3" d="M512.98,502.4c-3.51,10.51-4.79,21.71-3.72,32.71"/>
	<path class="st3" d="M519.54,502.4c-4.52,10.46-4.88,21.82-1.02,32.42"/>
	<path class="st3" d="M477.58,459.38c-11.98,2.3-25.35-4.16-31.36-18.33c-6.01-14.16-1.93-35.42,9.39-41.15
		c-10.07-9.81-21.01-21.49-22.6-38.12c-1.12-11.74,2.84-23.34,7.93-32.99c8.31-15.77,19.91-28.34,33.11-35.88
		c4.14-2.37,8.78-4.26,13.08-2.51c5.74,2.33,9.21,10.83,9.2,18.91s-2.83,15.7-6.27,22.32c8.72-1.71,16.73,9.14,18.15,20.87
		c1.41,11.74-2.17,23.55-6.76,33.7c5.91,4.79,8.39,15,7.82,24.27c-0.58,9.26-3.66,17.86-6.68,26.21c4.68,1.86,4.9,11.65,1.39,16.22
		C500.47,457.45,495.02,456.04,477.58,459.38z"/>
	<path class="st3" d="M269.52,537.5c-0.51-20.58-0.87-42.25,5.13-60.47c0.2-0.62,0.4-1.46,0.08-1.95c-0.32-0.49-0.83,0.79-0.39,0.77
		"/>
	<path class="st3" d="M281.33,541.9c-2.77-20.8-3.41-42.99-1.87-64.42"/>
	<path class="st3" d="M262.01,355.54c2.03-7.56,8.44-11.7,14.07-10.25c5.64,1.45,10.29,7.59,12.75,14.9
		c4.28,12.75,2.45,27.69,0.99,41.65c-0.24,2.31-0.47,4.71,0.04,6.93c0.71,3.09,2.66,5.2,4.36,7.38c5.26,6.74,8.76,18.96,4.06,26.49
		c-0.85,1.37-1.97,2.56-2.32,4.32c-0.32,1.6,0.06,3.29,0.32,4.91c1.2,7.56-0.71,16.08-5.03,20.85c-4.32,4.77-10.92,5.19-15.31,0.54
		c0,0-10.9,13.33-15.43-2.52"/>
	<path class="st3" d="M241.48,478.07c-9.43-5.39-19.31-11.24-25.55-22.59c-6.24-11.34-7.06-29.98,1.01-38.71
		c-9.03-7.48-15.53-20.76-17.31-35.33c-1.77-14.57,1.21-30.15,7.95-41.47c1.38-2.31,2.92-4.51,3.79-7.27
		c1.13-3.61,0.96-7.72,1.06-11.67c0.21-8.55,1.79-17.02,4.59-24.6c3.3-8.95,9.6-17.33,16.65-15.75c4.84,1.08,8.65,6.74,10.57,13.11
		c1.91,6.36,2.25,13.42,2.56,20.32c5.32-3.66,12,1.77,14.47,9.36s1.81,16.41,0.77,24.64c-1.04,8.22-2.42,16.65-1.25,24.83
		c1.99,13.81,11,25.13,10.3,39.19c-0.2,3.94-1.18,7.78-1.05,11.73c0.12,3.64,1.17,7.08,1.83,10.6
		C275.45,453.47,265.51,475.28,241.48,478.07z"/>
	<path class="st3" d="M251.52,476.4c0.35,23.78,4.09,47.51,11.05,70.16"/>
	<path class="st3" d="M246.23,533.81c-3.25-18.54-5.1-37.4-5.55-56.3"/>
	<path class="st3" d="M484.04,460.2c-1.8,6.17-0.88,12.15,2.73,17.7"/>
	<path class="st3" d="M516.38,501.82c0,0-11.31,0.61-13.57-3.92"/>
	<path class="st3" d="M317.86,330.1c0,5.88,4.71,10.66,10.5,10.66c2.32,0,4.45-0.77,6.19-2.08c2.09,1.32,4.51,2.08,7.11,2.08
		c4.19,0,7.95-1.96,10.53-5.09c2.37,3.92,6.48,6.51,11.18,6.51c7.35,0,13.3-6.37,13.3-14.21c0-7.85-5.95-14.21-13.3-14.21
		c-3.81,0-7.25,1.72-9.68,4.46c-2.44-4.38-6.92-7.31-12.03-7.31c-5.59,0-10.42,3.5-12.66,8.56c-0.21-0.03-0.43-0.03-0.64-0.03
		C322.57,319.44,317.86,324.22,317.86,330.1z"/>
	<path class="st3" d="M356.36,377.66c0,5.88,4.71,10.66,10.5,10.66c2.32,0,4.45-0.77,6.19-2.08c2.09,1.32,4.51,2.08,7.11,2.08
		c4.19,0,7.95-1.96,10.53-5.09c2.37,3.92,6.48,6.51,11.18,6.51c7.35,0,13.3-6.37,13.3-14.21c0-7.85-5.95-14.21-13.3-14.21
		c-3.81,0-7.25,1.72-9.68,4.46c-2.44-4.38-6.92-7.31-12.03-7.31c-5.59,0-10.42,3.5-12.66,8.56c-0.21-0.03-0.43-0.03-0.64-0.03
		C361.06,367,356.36,371.77,356.36,377.66z"/>
</g>
<path class="st4" d="M357.06,453.12c11.4,13.26,35.75,11.03,35.75,11.03s5.86-23.74-5.54-37c-11.4-13.26-35.75-11.03-35.75-11.03
	S345.66,439.86,357.06,453.12z"/>
<path class="st4" d="M404.43,421.41c-9.84,9.79-7.43,28.15-7.43,28.15s18.35,2.5,28.19-7.29c9.84-9.79,7.43-28.15,7.43-28.15
	S414.27,411.62,404.43,421.41z"/>
</svg>
