<?xml version="1.0" encoding="utf-8"?>
<!-- Generator: Adobe Illustrator 27.4.0, SVG Export Plug-In . SVG Version: 6.00 Build 0)  -->
<svg version="1.1" id="레이어_1" xmlns="http://www.w3.org/2000/svg" xmlns:xlink="http://www.w3.org/1999/xlink" x="0px"
	 y="0px" viewBox="0 0 762.52 822.05" style="enable-background:new 0 0 762.52 822.05;" xml:space="preserve">
<style type="text/css">
	.st0{fill:none;stroke:#463C33;stroke-width:3;stroke-miterlimit:10;}
	.st1{fill:none;stroke:#463C33;stroke-width:3;stroke-linecap:round;stroke-linejoin:round;stroke-dasharray:2.9962,5.9925;}
	.st2{fill:#463C33;}
	.st3{fill:none;stroke:#463C33;stroke-width:4;stroke-linecap:round;stroke-linejoin:round;stroke-miterlimit:10;}
	.st4{fill:#ABB868;}
</style>
<g>
	<circle class="st0" cx="395.06" cy="399.18" r="320.22"/>
	<circle class="st0" cx="395.06" cy="399.18" r="250.66"/>
	<circle class="st0" cx="395.06" cy="399.18" r="225.48"/>
	<g>
		<circle class="st1" cx="395.06" cy="399.18" r="237.47"/>
	</g>
</g>
<g>
	<path class="st2" d="M364.5,106.45c4.6-0.5,8.75,0.73,12.42,3.7c3.68,2.97,5.78,6.85,6.3,11.65c0.52,4.75-0.68,8.95-3.59,12.59
		c-2.91,3.65-6.7,5.72-11.36,6.23c-4.88,0.53-9.13-0.71-12.73-3.74c-3.6-3.02-5.65-6.86-6.16-11.51c-0.34-3.11,0.1-6.06,1.32-8.83
		c1.22-2.77,3.06-5.07,5.53-6.88C358.71,107.86,361.46,106.78,364.5,106.45z M365.09,112.52c-3.01,0.33-5.43,1.65-7.25,3.97
		c-1.82,2.32-2.56,5.09-2.21,8.32c0.39,3.6,2,6.3,4.81,8.12c2.19,1.42,4.58,1.99,7.18,1.7c2.94-0.32,5.32-1.66,7.16-4
		c1.84-2.35,2.58-5.08,2.24-8.19c-0.34-3.1-1.67-5.6-3.98-7.52C370.73,112.99,368.08,112.2,365.09,112.52z"/>
	<path class="st2" d="M390.56,105.34l7.38,0.15c4.76,0.1,8.28,0.76,10.57,1.98c2.29,1.23,4.15,3.18,5.6,5.87
		c1.44,2.69,2.13,5.8,2.06,9.35c-0.05,2.52-0.52,4.83-1.4,6.93c-0.88,2.1-2.07,3.83-3.57,5.19c-1.5,1.36-3.12,2.3-4.85,2.8
		c-1.73,0.5-4.71,0.71-8.95,0.62l-7.49-0.15L390.56,105.34z M396.63,111.47l-0.41,20.65l2.89,0.06c2.85,0.06,4.92-0.23,6.22-0.86
		c1.3-0.63,2.37-1.71,3.21-3.23s1.29-3.42,1.34-5.68c0.07-3.47-0.85-6.19-2.75-8.14c-1.72-1.76-4.51-2.67-8.38-2.75L396.63,111.47z"
		/>
	<path class="st2" d="M424.99,106.75l17.74,2.18l-0.74,6.05l-11.6-1.43l-0.72,5.88l11.6,1.43l-0.73,5.94l-11.59-1.43l-1.05,8.55
		l11.6,1.43l-0.75,6.07l-17.74-2.18L424.99,106.75z"/>
	<path class="st2" d="M453.14,119.48l-5.7-1.24c0.58-2.8,2.04-4.9,4.38-6.3c2.34-1.4,5.1-1.76,8.27-1.06
		c2.04,0.44,3.7,1.2,4.97,2.27c1.27,1.07,2.18,2.4,2.74,4.01c0.55,1.61,0.66,3.2,0.32,4.76c-0.19,0.86-0.51,1.67-0.96,2.43
		c-0.46,0.77-1.08,1.52-1.86,2.26c-0.46,0.43-1.48,1.11-3.06,2.02c-1.51,0.87-2.48,1.51-2.9,1.91c-0.42,0.4-0.83,0.97-1.21,1.71
		c-0.39,0.74-0.76,1.79-1.12,3.17l-5.89-1.28l0.19-0.98c0.42-1.94,1.16-3.63,2.22-5.06c1.05-1.43,2.53-2.67,4.43-3.72
		c1.83-1.01,2.96-1.74,3.39-2.18c0.43-0.44,0.72-1,0.87-1.68c0.2-0.93-0.02-1.8-0.65-2.61c-0.63-0.81-1.6-1.36-2.91-1.65
		c-1.33-0.29-2.51-0.13-3.54,0.47C454.08,117.33,453.42,118.25,453.14,119.48z M453.62,137.28c1.06,0.23,1.88,0.79,2.47,1.68
		s0.77,1.85,0.55,2.87s-0.79,1.83-1.68,2.4c-0.9,0.57-1.87,0.74-2.91,0.52c-1.04-0.23-1.85-0.79-2.42-1.68
		c-0.57-0.89-0.75-1.85-0.52-2.88c0.22-1.03,0.78-1.83,1.66-2.39S452.59,137.06,453.62,137.28z"/>
	<path class="st2" d="M505.68,131l-5.74,2.22c-0.74-2.68-1.9-4.31-3.47-4.89c-0.77-0.28-1.47-0.31-2.11-0.08
		c-0.64,0.23-1.05,0.6-1.25,1.12c-0.19,0.52-0.2,1.07-0.02,1.65c0.25,0.79,1.19,2.63,2.83,5.53c1.54,2.69,2.46,4.36,2.75,5.03
		c0.74,1.63,1.16,3.09,1.25,4.36c0.09,1.28-0.1,2.56-0.58,3.85c-0.93,2.52-2.57,4.28-4.92,5.28c-2.35,1-4.92,0.98-7.72-0.05
		c-2.19-0.81-3.89-2.05-5.12-3.72c-1.23-1.67-1.99-3.87-2.3-6.59l6.01-1.15c0.47,3.26,1.67,5.24,3.6,5.96
		c1,0.37,1.96,0.39,2.85,0.06c0.9-0.33,1.49-0.88,1.77-1.65c0.26-0.7,0.26-1.49,0-2.37c-0.26-0.89-1-2.37-2.23-4.45
		c-2.34-3.96-3.72-6.87-4.15-8.71c-0.43-1.84-0.37-3.5,0.17-4.98c0.79-2.13,2.27-3.66,4.46-4.58c2.19-0.92,4.47-0.95,6.85-0.07
		c1.53,0.57,2.86,1.46,3.98,2.68S504.76,128.52,505.68,131z"/>
	<path class="st2" d="M515.29,130.26l16.15,7.65l-2.61,5.51l-10.56-5l-2.54,5.35l10.56,5l-2.56,5.41l-10.56-5l-3.69,7.78l10.56,5
		l-2.62,5.53l-16.15-7.65L515.29,130.26z"/>
	<path class="st2" d="M552.78,149.29c3.93,2.45,6.42,5.98,7.47,10.59c1.05,4.61,0.3,8.96-2.25,13.05c-2.53,4.05-6.06,6.61-10.6,7.68
		c-4.54,1.07-8.8,0.36-12.78-2.12c-4.17-2.6-6.73-6.2-7.69-10.81s-0.2-8.89,2.27-12.85c1.66-2.66,3.82-4.7,6.5-6.12
		c2.67-1.43,5.54-2.09,8.6-1.99C547.35,146.81,550.18,147.67,552.78,149.29z M549.49,154.42c-2.57-1.6-5.29-2.06-8.16-1.36
		s-5.16,2.42-6.88,5.18c-1.92,3.07-2.33,6.19-1.24,9.35c0.84,2.47,2.37,4.39,4.59,5.77c2.51,1.56,5.21,1.99,8.1,1.28
		s5.17-2.4,6.83-5.05c1.65-2.64,2.16-5.44,1.52-8.38C553.63,158.28,552.04,156.01,549.49,154.42z"/>
	<path class="st2" d="M573.66,164.37l4.85,3.94l-13.35,16.42c-1.15,1.41-1.84,2.52-2.07,3.3c-0.23,0.79-0.2,1.59,0.08,2.4
		c0.29,0.81,0.83,1.55,1.64,2.2c0.85,0.69,1.74,1.09,2.68,1.2c0.93,0.11,1.76-0.04,2.49-0.45c0.73-0.41,1.78-1.47,3.17-3.17
		l12.86-15.82l4.85,3.94l-12.31,15.14c-2.08,2.56-3.66,4.21-4.76,4.97c-1.09,0.76-2.42,1.26-3.98,1.53
		c-1.56,0.26-3.05,0.18-4.47-0.24c-1.42-0.42-2.83-1.2-4.24-2.34c-1.84-1.5-3.1-3.22-3.78-5.18c-0.68-1.96-0.79-3.81-0.34-5.56
		c0.45-1.75,1.9-4.14,4.36-7.17L573.66,164.37z"/>
	<path class="st2" d="M597.81,184.84l4.46,4.35l-18.72,19.17l6.5,6.34l-4.15,4.25l-10.95-10.7L597.81,184.84z"/>
	<path class="st2" d="M633.14,223.17c2.77,3.71,3.82,7.9,3.13,12.58c-0.69,4.68-2.96,8.46-6.82,11.35
		c-3.83,2.86-8.05,3.97-12.67,3.32s-8.33-2.85-11.14-6.61c-2.94-3.93-4.03-8.22-3.26-12.86c0.77-4.64,3.03-8.36,6.77-11.16
		c2.51-1.88,5.26-2.99,8.27-3.35s5.92,0.06,8.74,1.26C628.99,218.89,631.31,220.72,633.14,223.17z M628.22,226.76
		c-1.82-2.43-4.19-3.83-7.11-4.22c-2.92-0.39-5.69,0.39-8.29,2.33c-2.9,2.17-4.41,4.92-4.54,8.27c-0.11,2.6,0.62,4.95,2.19,7.04
		c1.77,2.37,4.13,3.74,7.09,4.13s5.69-0.36,8.19-2.24c2.5-1.87,3.98-4.29,4.45-7.25C630.68,231.85,630.02,229.17,628.22,226.76z"/>
	<path class="st2" d="M647.39,245.09l3.62,6.43c2.33,4.15,3.55,7.52,3.66,10.11c0.11,2.59-0.63,5.19-2.21,7.8
		c-1.58,2.61-3.92,4.78-7.01,6.52c-2.2,1.24-4.42,2.01-6.68,2.31s-4.35,0.16-6.29-0.44c-1.94-0.6-3.56-1.52-4.87-2.76
		c-1.31-1.24-3-3.7-5.08-7.4l-3.67-6.53L647.39,245.09z M645.18,253.43l-18,10.12l1.42,2.52c1.4,2.48,2.69,4.12,3.89,4.92
		c1.2,0.8,2.67,1.17,4.42,1.13c1.75-0.05,3.6-0.62,5.57-1.73c3.03-1.7,4.9-3.87,5.62-6.5c0.64-2.37,0.02-5.24-1.88-8.62
		L645.18,253.43z"/>
	<path class="st2" d="M663.65,275.51l7.1,16.4l-5.6,2.42l-4.64-10.72l-5.43,2.35l4.64,10.72l-5.49,2.38l-4.64-10.72l-7.9,3.42
		l4.64,10.72l-5.62,2.43l-7.1-16.4L663.65,275.51z"/>
	<path class="st2" d="M651.81,315.65c0.34,1.03,0.27,2.02-0.2,2.98c-0.47,0.96-1.2,1.6-2.2,1.93c-1,0.33-1.97,0.25-2.92-0.24
		s-1.59-1.24-1.92-2.25c-0.33-1.02-0.26-2,0.22-2.94c0.48-0.95,1.22-1.58,2.22-1.91c1-0.33,1.97-0.25,2.91,0.22
		C650.85,313.91,651.48,314.65,651.81,315.65z M666.92,306.23l-1.81-5.54c2.71-0.92,5.25-0.72,7.65,0.59
		c2.39,1.31,4.09,3.51,5.1,6.59c0.65,1.99,0.84,3.8,0.56,5.44c-0.28,1.64-0.97,3.1-2.07,4.39c-1.11,1.29-2.42,2.19-3.94,2.69
		c-0.83,0.27-1.69,0.41-2.58,0.4c-0.89,0-1.85-0.16-2.89-0.46c-0.6-0.18-1.7-0.71-3.29-1.61c-1.52-0.86-2.55-1.37-3.11-1.53
		c-0.56-0.16-1.25-0.22-2.09-0.18c-0.83,0.04-1.93,0.25-3.3,0.64l-1.88-5.73l0.94-0.33c1.89-0.62,3.72-0.84,5.49-0.65
		c1.77,0.19,3.59,0.83,5.45,1.94c1.8,1.06,3,1.67,3.59,1.82c0.59,0.15,1.22,0.11,1.89-0.1c0.9-0.3,1.54-0.92,1.92-1.88
		c0.38-0.96,0.36-2.07-0.05-3.34c-0.42-1.3-1.16-2.24-2.19-2.82S668.13,305.84,666.92,306.23z"/>
	<path class="st2" d="M683.58,357.36l-4.82-3.83c1.93-1.99,2.75-3.81,2.46-5.47c-0.14-0.8-0.48-1.42-1-1.86s-1.05-0.6-1.59-0.51
		c-0.54,0.1-1.02,0.37-1.44,0.82c-0.55,0.61-1.67,2.36-3.34,5.24c-1.54,2.69-2.52,4.33-2.94,4.92c-1.03,1.47-2.08,2.56-3.13,3.29
		c-1.05,0.72-2.26,1.21-3.62,1.45c-2.64,0.47-4.99-0.05-7.04-1.57s-3.34-3.75-3.86-6.69c-0.41-2.3-0.21-4.4,0.61-6.3
		c0.82-1.9,2.33-3.68,4.52-5.32l4.03,4.6c-2.57,2.06-3.68,4.1-3.31,6.12c0.19,1.05,0.65,1.88,1.39,2.49
		c0.74,0.61,1.51,0.84,2.32,0.7c0.73-0.13,1.41-0.53,2.05-1.2c0.63-0.67,1.54-2.06,2.71-4.18c2.24-4.02,4.04-6.69,5.41-7.99
		c1.37-1.3,2.83-2.09,4.38-2.37c2.23-0.4,4.3,0.11,6.21,1.53c1.9,1.42,3.08,3.38,3.53,5.88c0.29,1.61,0.19,3.21-0.3,4.79
		C686.32,353.49,685.24,355.31,683.58,357.36z"/>
	<path class="st2" d="M689.08,365.28l1.58,17.8l-6.07,0.54l-1.04-11.64l-5.9,0.52l1.04,11.64l-5.96,0.53l-1.04-11.64l-8.58,0.76
		l1.04,11.64l-6.1,0.54l-1.58-17.8L689.08,365.28z"/>
	<path class="st2" d="M691.69,407.16c-0.11,4.63-1.89,8.57-5.32,11.82c-3.43,3.25-7.56,4.82-12.38,4.7c-4.78-0.12-8.78-1.86-12-5.23
		c-3.23-3.37-4.78-7.4-4.67-12.09c0.12-4.91,1.92-8.95,5.4-12.12c3.48-3.17,7.55-4.69,12.22-4.58c3.13,0.08,5.99,0.9,8.58,2.48
		s4.62,3.71,6.09,6.4C691.07,401.23,691.77,404.11,691.69,407.16z M685.6,406.95c0.07-3.03-0.92-5.6-2.97-7.72
		c-2.06-2.12-4.71-3.21-7.96-3.29c-3.62-0.09-6.51,1.14-8.68,3.69c-1.7,1.98-2.58,4.27-2.64,6.89c-0.07,2.95,0.93,5.5,3.02,7.63
		c2.08,2.13,4.69,3.24,7.82,3.31c3.11,0.08,5.78-0.91,7.99-2.95C684.38,412.46,685.52,409.95,685.6,406.95z"/>
	<path class="st2" d="M689.33,432.82L688.4,439l-20.93-3.15c-1.8-0.27-3.1-0.31-3.9-0.1c-0.79,0.2-1.47,0.63-2.03,1.29
		c-0.56,0.66-0.91,1.5-1.07,2.53c-0.16,1.09-0.05,2.06,0.33,2.92c0.38,0.86,0.93,1.5,1.66,1.91c0.72,0.42,2.17,0.79,4.34,1.11
		l20.16,3.03l-0.93,6.18l-19.3-2.9c-3.26-0.49-5.49-1.01-6.7-1.57c-1.21-0.56-2.32-1.44-3.34-2.65c-1.02-1.21-1.71-2.53-2.07-3.97
		c-0.36-1.44-0.41-3.05-0.14-4.84c0.35-2.35,1.2-4.31,2.54-5.89c1.34-1.58,2.88-2.62,4.61-3.12c1.73-0.5,4.53-0.47,8.39,0.11
		L689.33,432.82z"/>
	<path class="st2" d="M683.97,464.05l-1.49,6.05l-26.02-6.4l-2.17,8.82l-5.77-1.42l3.65-14.87L683.97,464.05z"/>
	<path class="st2" d="M668.83,513.99c-1.79,4.27-4.88,7.29-9.26,9.06c-4.38,1.77-8.8,1.73-13.24-0.14c-4.4-1.85-7.49-4.93-9.27-9.25
		c-1.78-4.31-1.76-8.63,0.06-12.96c1.9-4.53,5.05-7.64,9.44-9.32c4.39-1.68,8.74-1.62,13.05,0.2c2.89,1.21,5.25,3.03,7.08,5.44
		s2.95,5.14,3.33,8.18C670.41,508.24,670.01,511.17,668.83,513.99z M663.23,511.57c1.17-2.79,1.19-5.55,0.05-8.27
		c-1.14-2.72-3.21-4.71-6.21-5.97c-3.34-1.4-6.48-1.31-9.43,0.27c-2.3,1.22-3.96,3.04-4.97,5.45c-1.15,2.72-1.14,5.46,0.03,8.2
		c1.16,2.75,3.19,4.72,6.07,5.94c2.87,1.21,5.71,1.26,8.51,0.17C660.09,516.26,662.07,514.33,663.23,511.57z"/>
	<path class="st2" d="M657.11,537.38l-3.72,6.37c-2.4,4.11-4.69,6.86-6.88,8.27c-2.18,1.4-4.8,2.08-7.85,2.03
		c-3.05-0.05-6.1-0.96-9.16-2.75c-2.18-1.27-3.97-2.8-5.37-4.59c-1.4-1.79-2.33-3.67-2.79-5.65c-0.46-1.98-0.49-3.84-0.08-5.6
		s1.68-4.46,3.82-8.12l3.78-6.47L657.11,537.38z M648.8,539.69l-17.83-10.42l-1.46,2.5c-1.44,2.46-2.2,4.41-2.28,5.85
		s0.34,2.9,1.26,4.38s2.36,2.79,4.31,3.93c3,1.75,5.82,2.27,8.45,1.56c2.37-0.64,4.53-2.64,6.49-5.98L648.8,539.69z"/>
	<path class="st2" d="M639.1,566.76l-10.55,14.42l-4.92-3.6l6.9-9.43l-4.78-3.5l-6.9,9.43l-4.83-3.54l6.9-9.43l-6.95-5.09l-6.9,9.43
		l-4.94-3.61l10.55-14.42L639.1,566.76z"/>
	<path class="st2" d="M598.48,576.89c-0.72,0.81-1.61,1.26-2.67,1.34c-1.06,0.08-1.99-0.23-2.78-0.92c-0.79-0.7-1.22-1.58-1.28-2.64
		c-0.06-1.06,0.26-2,0.97-2.8c0.71-0.8,1.59-1.24,2.65-1.3c1.06-0.07,1.98,0.25,2.77,0.95c0.79,0.7,1.22,1.57,1.28,2.62
		S599.18,576.1,598.48,576.89z M614.26,585.14l3.86-4.37c2.16,1.87,3.29,4.16,3.37,6.89c0.08,2.72-0.95,5.3-3.1,7.74
		c-1.38,1.57-2.85,2.65-4.4,3.24c-1.55,0.59-3.16,0.74-4.84,0.44c-1.67-0.3-3.11-0.98-4.31-2.04c-0.66-0.58-1.21-1.25-1.66-2.02
		c-0.45-0.77-0.8-1.68-1.07-2.72c-0.15-0.61-0.25-1.83-0.28-3.66c-0.02-1.74-0.11-2.9-0.26-3.46c-0.15-0.56-0.45-1.19-0.9-1.89
		c-0.45-0.7-1.19-1.54-2.22-2.53l3.99-4.52l0.77,0.65c1.49,1.31,2.61,2.78,3.34,4.4c0.74,1.62,1.1,3.51,1.09,5.68
		c0,2.09,0.08,3.43,0.25,4.02c0.17,0.59,0.52,1.11,1.04,1.57c0.71,0.63,1.58,0.86,2.6,0.7c1.02-0.16,1.97-0.74,2.85-1.74
		c0.9-1.02,1.34-2.13,1.32-3.32S615.2,585.99,614.26,585.14z"/>
	<path class="st2" d="M578.7,625.42l0.84-6.1c2.7,0.65,4.68,0.43,5.96-0.66c0.62-0.53,0.98-1.13,1.09-1.81s-0.01-1.21-0.37-1.63
		c-0.36-0.42-0.84-0.69-1.44-0.82c-0.81-0.17-2.88-0.24-6.21-0.21c-3.1,0.04-5.01,0.03-5.73-0.03c-1.79-0.14-3.26-0.49-4.42-1.02
		c-1.16-0.54-2.19-1.33-3.09-2.38c-1.75-2.04-2.49-4.32-2.23-6.86s1.53-4.78,3.79-6.73c1.77-1.52,3.68-2.41,5.74-2.67
		s4.35,0.13,6.88,1.19l-1.91,5.81c-3.08-1.17-5.4-1.08-6.95,0.25c-0.81,0.7-1.29,1.52-1.44,2.47c-0.15,0.95,0.05,1.73,0.58,2.35
		c0.48,0.56,1.18,0.95,2.08,1.15s2.56,0.28,4.97,0.21c4.6-0.12,7.81,0.08,9.63,0.6s3.24,1.38,4.27,2.57
		c1.48,1.72,2.09,3.76,1.84,6.12c-0.25,2.36-1.34,4.37-3.27,6.02c-1.24,1.07-2.67,1.79-4.28,2.18
		C583.42,625.82,581.31,625.81,578.7,625.42z"/>
	<path class="st2" d="M574.7,634.16l-14.52,10.42l-3.55-4.95l9.49-6.81l-3.45-4.81l-9.49,6.81l-3.49-4.86l9.49-6.81l-5.02-7
		l-9.49,6.81l-3.57-4.97l14.52-10.42L574.7,634.16z"/>
	<path class="st2" d="M539.91,657.74c-4.05,2.25-8.34,2.72-12.88,1.41c-4.54-1.31-7.99-4.07-10.33-8.29
		c-2.32-4.17-2.85-8.51-1.58-13c1.27-4.49,3.95-7.87,8.05-10.15c4.29-2.39,8.69-2.89,13.18-1.5c4.49,1.39,7.87,4.13,10.15,8.21
		c1.52,2.74,2.26,5.62,2.21,8.65c-0.05,3.03-0.86,5.86-2.43,8.49C544.7,654.19,542.58,656.25,539.91,657.74z M537,652.38
		c2.65-1.47,4.36-3.63,5.14-6.47c0.78-2.84,0.38-5.69-1.2-8.53c-1.76-3.16-4.29-5.03-7.58-5.61c-2.57-0.46-4.99-0.05-7.28,1.22
		c-2.58,1.44-4.26,3.59-5.04,6.47c-0.78,2.88-0.41,5.68,1.11,8.42c1.51,2.72,3.71,4.52,6.59,5.39
		C531.63,654.13,534.38,653.83,537,652.38z"/>
	<path class="st2" d="M516.57,668.71l-5.8,2.33l-7.88-19.64c-0.68-1.69-1.31-2.83-1.89-3.41c-0.58-0.58-1.29-0.95-2.14-1.09
		c-0.85-0.15-1.76-0.03-2.72,0.36c-1.02,0.41-1.8,0.99-2.35,1.76s-0.82,1.56-0.81,2.4c0.01,0.84,0.42,2.27,1.24,4.31l7.59,18.92
		l-5.8,2.33l-7.27-18.11c-1.23-3.06-1.91-5.25-2.04-6.57c-0.13-1.32,0.07-2.73,0.6-4.22s1.32-2.76,2.37-3.79s2.42-1.89,4.1-2.57
		c2.2-0.88,4.32-1.15,6.36-0.79c2.04,0.36,3.71,1.16,5.03,2.4c1.31,1.24,2.7,3.67,4.15,7.29L516.57,668.71z"/>
	<path class="st2" d="M486.91,679.91l-5.97,1.78l-7.65-25.68l-8.7,2.59l-1.7-5.69l14.67-4.37L486.91,679.91z"/>
	<path class="st2" d="M436.21,692.12c-4.59,0.62-8.76-0.52-12.51-3.4c-3.75-2.88-5.94-6.71-6.58-11.49
		c-0.63-4.74,0.46-8.96,3.28-12.68c2.82-3.72,6.55-5.88,11.2-6.51c4.87-0.65,9.14,0.49,12.82,3.43c3.67,2.94,5.82,6.72,6.44,11.35
		c0.42,3.1,0.05,6.06-1.11,8.86c-1.15,2.8-2.94,5.14-5.36,7.02C441.97,690.57,439.24,691.71,436.21,692.12z M435.46,686.06
		c3-0.4,5.39-1.79,7.15-4.15c1.77-2.36,2.43-5.15,2-8.37c-0.48-3.59-2.15-6.25-5-8c-2.22-1.36-4.63-1.87-7.22-1.53
		c-2.93,0.39-5.28,1.79-7.06,4.18s-2.46,5.14-2.04,8.24c0.41,3.09,1.8,5.56,4.16,7.42C429.82,685.73,432.49,686.46,435.46,686.06z"
		/>
	<path class="st2" d="M410.45,693.71l-7.38,0.12c-4.76,0.08-8.3-0.46-10.63-1.6c-2.33-1.14-4.27-3.03-5.81-5.66
		c-1.54-2.63-2.34-5.72-2.4-9.26c-0.04-2.52,0.34-4.85,1.14-6.97s1.93-3.9,3.38-5.32s3.03-2.41,4.74-2.97
		c1.71-0.56,4.68-0.88,8.92-0.95l7.49-0.12L410.45,693.71z M404.16,687.8l-0.33-20.65l-2.89,0.05c-2.85,0.05-4.91,0.41-6.18,1.08
		c-1.27,0.67-2.3,1.79-3.09,3.35s-1.17,3.46-1.13,5.72c0.06,3.47,1.07,6.15,3.05,8.04c1.78,1.69,4.6,2.51,8.47,2.45L404.16,687.8z"
		/>
	<path class="st2" d="M375.71,693.28l-17.78-1.75l0.6-6.07l11.63,1.14l0.58-5.89l-11.63-1.14l0.59-5.96l11.63,1.14l0.84-8.57
		l-11.63-1.14l0.6-6.09l17.78,1.75L375.71,693.28z"/>
	<path class="st2" d="M347.24,681.23l5.73,1.1c-0.51,2.81-1.92,4.95-4.22,6.4c-2.3,1.46-5.05,1.88-8.24,1.27
		c-2.05-0.39-3.73-1.11-5.03-2.14c-1.3-1.03-2.24-2.35-2.83-3.94c-0.59-1.59-0.74-3.18-0.44-4.75c0.17-0.86,0.47-1.68,0.9-2.46
		s1.04-1.55,1.8-2.31c0.45-0.44,1.45-1.14,3.01-2.1c1.49-0.91,2.44-1.57,2.85-1.98s0.8-0.99,1.17-1.74c0.37-0.75,0.72-1.81,1.04-3.2
		l5.92,1.14l-0.17,0.99c-0.37,1.95-1.07,3.66-2.09,5.12c-1.02,1.46-2.47,2.73-4.34,3.82c-1.8,1.06-2.92,1.81-3.33,2.26
		c-0.42,0.45-0.69,1.01-0.82,1.7c-0.18,0.93,0.06,1.8,0.71,2.6c0.66,0.8,1.64,1.32,2.95,1.58c1.34,0.26,2.52,0.07,3.53-0.55
		C346.36,683.41,346.99,682.48,347.24,681.23z M346.33,663.45c-1.06-0.2-1.9-0.74-2.51-1.61c-0.61-0.87-0.82-1.83-0.62-2.86
		c0.2-1.04,0.74-1.85,1.62-2.44c0.88-0.59,1.85-0.79,2.9-0.59c1.05,0.2,1.87,0.74,2.47,1.62c0.59,0.88,0.79,1.83,0.59,2.87
		c-0.2,1.03-0.73,1.85-1.6,2.43C348.31,663.46,347.36,663.65,346.33,663.45z"/>
	<path class="st2" d="M294.45,671.02l5.68-2.36c0.8,2.66,2,4.26,3.59,4.8c0.77,0.26,1.48,0.27,2.11,0.03
		c0.63-0.25,1.04-0.63,1.22-1.15c0.18-0.52,0.17-1.07-0.02-1.65c-0.27-0.78-1.26-2.6-2.96-5.46c-1.61-2.65-2.57-4.3-2.88-4.96
		c-0.78-1.62-1.24-3.06-1.36-4.33c-0.12-1.27,0.04-2.56,0.49-3.87c0.87-2.54,2.46-4.34,4.79-5.4c2.32-1.06,4.9-1.1,7.72-0.14
		c2.21,0.75,3.94,1.95,5.21,3.59c1.27,1.64,2.09,3.82,2.46,6.53l-5.98,1.3c-0.56-3.25-1.8-5.2-3.74-5.86
		c-1.01-0.35-1.96-0.34-2.85,0.01c-0.89,0.35-1.47,0.92-1.73,1.69c-0.24,0.7-0.22,1.49,0.06,2.37c0.28,0.88,1.06,2.34,2.34,4.4
		c2.43,3.9,3.89,6.77,4.36,8.6c0.47,1.83,0.46,3.49-0.05,4.98c-0.73,2.15-2.18,3.71-4.35,4.69s-4.45,1.06-6.85,0.23
		c-1.55-0.53-2.9-1.39-4.05-2.58C296.5,675.29,295.44,673.47,294.45,671.02z"/>
	<path class="st2" d="M284.87,671.99l-16.33-7.25l2.47-5.57l10.68,4.74l2.4-5.41l-10.68-4.74l2.43-5.47l10.68,4.74l3.5-7.87
		l-10.68-4.74l2.48-5.59l16.33,7.25L284.87,671.99z"/>
	<path class="st2" d="M246.92,653.89c-3.99-2.36-6.56-5.82-7.73-10.41c-1.17-4.58-0.52-8.95,1.93-13.1
		c2.43-4.11,5.9-6.76,10.41-7.94s8.79-0.57,12.83,1.81c4.23,2.5,6.88,6.04,7.96,10.62c1.07,4.58,0.42,8.88-1.96,12.9
		c-1.59,2.7-3.71,4.79-6.35,6.28s-5.49,2.22-8.55,2.2C252.4,656.23,249.55,655.44,246.92,653.89z M250.08,648.67
		c2.61,1.54,5.34,1.93,8.19,1.16c2.85-0.76,5.1-2.55,6.75-5.34c1.84-3.12,2.18-6.24,1.01-9.38c-0.9-2.44-2.48-4.33-4.73-5.66
		c-2.54-1.5-5.26-1.86-8.13-1.08c-2.88,0.78-5.11,2.52-6.7,5.22c-1.58,2.68-2.02,5.49-1.32,8.41
		C245.85,644.92,247.49,647.15,250.08,648.67z"/>
	<path class="st2" d="M225.67,639.31l-4.95-3.83l12.95-16.74c1.12-1.44,1.78-2.56,1.99-3.35c0.21-0.79,0.16-1.59-0.14-2.4
		c-0.3-0.81-0.87-1.53-1.69-2.16c-0.87-0.67-1.77-1.05-2.71-1.14c-0.94-0.09-1.76,0.08-2.48,0.51c-0.72,0.43-1.75,1.51-3.09,3.25
		l-12.48,16.13l-4.95-3.83l11.94-15.44c2.02-2.61,3.56-4.3,4.63-5.08c1.07-0.78,2.39-1.32,3.94-1.62c1.55-0.3,3.04-0.26,4.47,0.13
		c1.43,0.38,2.86,1.13,4.29,2.24c1.88,1.45,3.18,3.15,3.9,5.09c0.72,1.94,0.88,3.79,0.48,5.55c-0.4,1.76-1.8,4.18-4.19,7.27
		L225.67,639.31z"/>
	<path class="st2" d="M201.04,619.45l-4.56-4.24l18.25-19.62l-6.65-6.18l4.05-4.35l11.21,10.43L201.04,619.45z"/>
	<path class="st2" d="M164.78,581.98c-2.86-3.64-4.01-7.81-3.44-12.5s2.76-8.53,6.54-11.51c3.75-2.95,7.95-4.16,12.58-3.62
		s8.4,2.65,11.3,6.34c3.04,3.86,4.23,8.12,3.57,12.78s-2.83,8.43-6.5,11.32c-2.46,1.94-5.19,3.12-8.19,3.55
		c-3,0.43-5.92,0.08-8.77-1.05C169.04,586.15,166.67,584.39,164.78,581.98z M169.61,578.26c1.87,2.38,4.28,3.73,7.21,4.05
		c2.93,0.32,5.67-0.53,8.23-2.54c2.84-2.24,4.29-5.03,4.34-8.38c0.05-2.61-0.74-4.93-2.36-6.99c-1.83-2.32-4.22-3.64-7.19-3.95
		c-2.96-0.31-5.68,0.5-8.14,2.43c-2.45,1.93-3.87,4.38-4.27,7.36S167.76,575.91,169.61,578.26z"/>
	<path class="st2" d="M150.01,560.42l-3.77-6.34c-2.43-4.09-3.73-7.43-3.9-10.02c-0.17-2.59,0.51-5.21,2.02-7.85
		c1.52-2.64,3.8-4.87,6.85-6.69c2.17-1.29,4.37-2.12,6.62-2.48c2.25-0.36,4.34-0.26,6.3,0.29c1.95,0.55,3.6,1.43,4.94,2.64
		c1.34,1.2,3.09,3.63,5.26,7.27l3.83,6.44L150.01,560.42z M152.01,552.03l17.75-10.56l-1.48-2.49c-1.46-2.45-2.79-4.06-4.01-4.83
		s-2.7-1.11-4.44-1.02c-1.74,0.09-3.59,0.71-5.53,1.86c-2.99,1.78-4.81,3.99-5.46,6.64c-0.58,2.38,0.11,5.24,2.09,8.57
		L152.01,552.03z"/>
	<path class="st2" d="M133.01,530.41l-7.5-16.22l5.53-2.56l4.9,10.6l5.37-2.48l-4.9-10.6l5.43-2.51l4.9,10.6l7.82-3.61l-4.9-10.6
		l5.55-2.57l7.5,16.22L133.01,530.41z"/>
	<path class="st2" d="M128.98,499.76l1.95,5.49c-2.68,0.98-5.23,0.85-7.66-0.4c-2.42-1.25-4.18-3.41-5.26-6.47
		c-0.7-1.97-0.93-3.78-0.7-5.42c0.24-1.64,0.89-3.12,1.97-4.44c1.08-1.32,2.37-2.25,3.88-2.78c0.83-0.29,1.68-0.45,2.57-0.47
		c0.89-0.02,1.86,0.11,2.9,0.39c0.61,0.16,1.72,0.67,3.33,1.53c1.54,0.82,2.59,1.31,3.15,1.46c0.56,0.15,1.26,0.19,2.09,0.13
		c0.83-0.06,1.93-0.3,3.29-0.72l2.02,5.68l-0.94,0.36c-1.87,0.67-3.7,0.93-5.47,0.79s-3.6-0.74-5.49-1.8
		c-1.83-1.02-3.04-1.6-3.64-1.73c-0.6-0.13-1.23-0.08-1.88,0.15c-0.89,0.32-1.52,0.96-1.88,1.93c-0.36,0.97-0.31,2.08,0.14,3.34
		c0.46,1.29,1.21,2.21,2.26,2.76C126.65,500.1,127.78,500.17,128.98,499.76z M143.85,489.97c-0.36-1.02-0.32-2.01,0.12-2.98
		c0.44-0.97,1.16-1.63,2.15-1.98c0.99-0.35,1.97-0.3,2.93,0.17c0.96,0.46,1.62,1.2,1.97,2.2s0.31,1.99-0.15,2.95
		c-0.46,0.96-1.18,1.61-2.17,1.96s-1.96,0.3-2.91-0.15S144.21,490.96,143.85,489.97z"/>
	<path class="st2" d="M111.07,449.06l4.91,3.71c-1.89,2.04-2.66,3.88-2.32,5.53c0.16,0.8,0.51,1.41,1.04,1.83
		c0.53,0.42,1.07,0.58,1.61,0.47c0.54-0.11,1.01-0.4,1.42-0.86c0.54-0.62,1.61-2.4,3.21-5.32c1.47-2.73,2.41-4.39,2.82-4.99
		c1-1.49,2.01-2.61,3.05-3.36c1.04-0.75,2.23-1.26,3.58-1.54c2.63-0.54,4.99-0.07,7.08,1.4s3.43,3.67,4.03,6.59
		c0.47,2.28,0.31,4.39-0.46,6.31c-0.77,1.92-2.24,3.73-4.39,5.43l-4.14-4.5c2.52-2.12,3.57-4.19,3.16-6.2
		c-0.21-1.05-0.7-1.87-1.46-2.46c-0.76-0.59-1.53-0.8-2.33-0.64c-0.73,0.15-1.4,0.57-2.02,1.25c-0.62,0.69-1.49,2.1-2.61,4.24
		c-2.14,4.08-3.87,6.78-5.21,8.12c-1.34,1.34-2.78,2.16-4.32,2.47c-2.22,0.45-4.3,0-6.24-1.38c-1.94-1.37-3.16-3.3-3.67-5.79
		c-0.33-1.6-0.27-3.2,0.18-4.8S109.46,451.15,111.07,449.06z"/>
	<path class="st2" d="M105.39,441.29l-2.02-17.76l6.06-0.69l1.32,11.61l5.88-0.67l-1.32-11.61l5.95-0.68l1.32,11.61l8.56-0.97
		l-1.32-11.61l6.08-0.69l2.02,17.76L105.39,441.29z"/>
	<path class="st2" d="M101.76,398.93c0.08-4.63,1.82-8.59,5.22-11.86c3.41-3.28,7.52-4.88,12.34-4.8c4.78,0.08,8.79,1.79,12.05,5.13
		c3.25,3.34,4.84,7.36,4.77,12.05c-0.08,4.91-1.84,8.97-5.29,12.16c-3.45,3.2-7.51,4.76-12.18,4.68c-3.13-0.05-6-0.85-8.6-2.41
		s-4.65-3.67-6.14-6.35C102.43,404.86,101.71,401.99,101.76,398.93z M107.86,399.1c-0.05,3.03,0.96,5.59,3.04,7.69
		c2.07,2.1,4.73,3.17,7.98,3.23c3.62,0.06,6.5-1.19,8.65-3.76c1.68-1.99,2.54-4.3,2.58-6.91c0.05-2.96-0.98-5.49-3.08-7.6
		c-2.1-2.11-4.72-3.2-7.85-3.25c-3.12-0.05-5.77,0.95-7.96,3.01C109.03,393.57,107.91,396.1,107.86,399.1z"/>
	<path class="st2" d="M103.5,373.76l0.78-6.2l21,2.63c1.81,0.23,3.11,0.23,3.9,0.01c0.79-0.22,1.45-0.67,1.99-1.34s0.87-1.52,1-2.55
		c0.14-1.09,0-2.06-0.4-2.91c-0.4-0.85-0.97-1.47-1.7-1.87s-2.19-0.73-4.37-1.01l-20.23-2.54l0.78-6.2l19.36,2.43
		c3.27,0.41,5.51,0.88,6.73,1.4c1.22,0.53,2.35,1.38,3.4,2.57c1.05,1.19,1.77,2.49,2.17,3.92c0.4,1.43,0.48,3.04,0.26,4.83
		c-0.3,2.36-1.09,4.34-2.39,5.95s-2.81,2.69-4.53,3.23c-1.72,0.55-4.52,0.58-8.39,0.09L103.5,373.76z"/>
	<path class="st2" d="M108.1,342.4l1.34-6.09l26.17,5.76l1.95-8.87l5.8,1.28l-3.29,14.95L108.1,342.4z"/>
	<path class="st2" d="M122,292.12c1.69-4.31,4.7-7.41,9.04-9.29c4.34-1.88,8.75-1.94,13.24-0.18c4.45,1.74,7.61,4.75,9.49,9.02
		c1.88,4.27,1.97,8.59,0.26,12.95c-1.79,4.58-4.86,7.76-9.21,9.55c-4.35,1.79-8.7,1.83-13.05,0.13c-2.91-1.14-5.32-2.9-7.21-5.26
		c-1.89-2.37-3.07-5.07-3.53-8.09C120.56,297.9,120.89,294.96,122,292.12z M127.66,294.4c-1.1,2.82-1.05,5.58,0.16,8.27
		c1.21,2.69,3.33,4.63,6.35,5.81c3.37,1.32,6.51,1.15,9.42-0.5c2.27-1.28,3.88-3.14,4.83-5.57c1.08-2.75,1-5.48-0.23-8.2
		s-3.3-4.64-6.22-5.79c-2.9-1.14-5.74-1.12-8.51,0.04C130.69,289.63,128.75,291.61,127.66,294.4z"/>
	<path class="st2" d="M133.14,268.46l3.57-6.46c2.3-4.17,4.52-6.98,6.67-8.43c2.15-1.45,4.75-2.2,7.8-2.22
		c3.05-0.03,6.12,0.81,9.23,2.53c2.21,1.22,4.04,2.71,5.48,4.46s2.42,3.61,2.93,5.58s0.58,3.83,0.22,5.59
		c-0.36,1.76-1.57,4.5-3.62,8.21l-3.62,6.56L133.14,268.46z M141.39,265.95l18.08,9.98l1.4-2.53c1.38-2.49,2.09-4.46,2.14-5.9
		c0.05-1.44-0.41-2.89-1.37-4.35c-0.96-1.46-2.43-2.74-4.4-3.83c-3.04-1.68-5.87-2.13-8.49-1.35c-2.35,0.7-4.47,2.75-6.34,6.14
		L141.39,265.95z"/>
	<path class="st2" d="M150.45,238.61l10.2-14.67l5.01,3.48l-6.67,9.59l4.86,3.38l6.67-9.59l4.92,3.42l-6.67,9.59l7.07,4.92
		l6.67-9.59l5.02,3.49l-10.2,14.67L150.45,238.61z"/>
	<path class="st2" d="M174.81,219.67l-3.75,4.46c-2.21-1.81-3.39-4.08-3.54-6.8c-0.15-2.72,0.82-5.33,2.91-7.81
		c1.34-1.6,2.79-2.72,4.32-3.35c1.54-0.63,3.14-0.81,4.82-0.55c1.68,0.26,3.14,0.9,4.36,1.93c0.67,0.56,1.24,1.22,1.71,1.98
		c0.47,0.76,0.84,1.66,1.14,2.7c0.17,0.61,0.29,1.82,0.37,3.65c0.07,1.74,0.18,2.89,0.34,3.45s0.47,1.18,0.94,1.87
		c0.47,0.69,1.23,1.51,2.28,2.47l-3.88,4.62l-0.78-0.63c-1.52-1.28-2.67-2.72-3.45-4.32c-0.78-1.6-1.19-3.48-1.23-5.65
		c-0.05-2.09-0.16-3.43-0.35-4.01c-0.19-0.58-0.55-1.1-1.08-1.55c-0.73-0.61-1.6-0.82-2.61-0.64c-1.02,0.18-1.95,0.79-2.81,1.81
		c-0.88,1.05-1.29,2.16-1.24,3.35C173.34,217.84,173.85,218.84,174.81,219.67z M190.78,227.53c0.7-0.83,1.57-1.3,2.63-1.41
		c1.06-0.11,1.99,0.18,2.8,0.85c0.81,0.68,1.25,1.55,1.34,2.61c0.09,1.06-0.21,2-0.9,2.82c-0.69,0.82-1.56,1.27-2.61,1.36
		c-1.06,0.09-1.99-0.2-2.79-0.88s-1.26-1.54-1.35-2.58C189.81,229.27,190.11,228.34,190.78,227.53z"/>
	<path class="st2" d="M209.41,178.52l-0.7,6.12c-2.71-0.59-4.69-0.32-5.94,0.81c-0.61,0.55-0.96,1.16-1.05,1.83
		c-0.09,0.67,0.04,1.21,0.41,1.62c0.37,0.41,0.85,0.67,1.46,0.78c0.81,0.15,2.88,0.17,6.21,0.06c3.1-0.12,5.01-0.15,5.73-0.11
		c1.79,0.1,3.27,0.41,4.45,0.92c1.17,0.51,2.22,1.28,3.15,2.3c1.8,1.99,2.6,4.26,2.39,6.8c-0.21,2.54-1.42,4.82-3.63,6.82
		c-1.73,1.56-3.62,2.5-5.67,2.81c-2.05,0.31-4.35-0.03-6.91-1.02l1.77-5.85c3.11,1.09,5.42,0.95,6.94-0.42
		c0.79-0.72,1.25-1.55,1.38-2.5c0.12-0.95-0.09-1.73-0.64-2.33c-0.5-0.55-1.2-0.92-2.1-1.1c-0.91-0.18-2.56-0.21-4.98-0.09
		c-4.6,0.23-7.81,0.11-9.64-0.37c-1.83-0.48-3.27-1.3-4.33-2.46c-1.52-1.69-2.18-3.71-1.99-6.08s1.24-4.4,3.12-6.1
		c1.21-1.1,2.62-1.86,4.23-2.29C204.67,178.24,206.79,178.19,209.41,178.52z"/>
	<path class="st2" d="M213.17,169.69l14.26-10.77l3.67,4.87l-9.32,7.04l3.57,4.72l9.32-7.04l3.61,4.78l-9.32,7.04l5.19,6.87
		l9.32-7.04l3.69,4.88l-14.26,10.77L213.17,169.69z"/>
	<path class="st2" d="M247.4,145.27c3.99-2.35,8.27-2.92,12.85-1.72c4.57,1.2,8.08,3.88,10.53,8.03c2.42,4.12,3.06,8.44,1.9,12.95
		s-3.76,7.97-7.8,10.35c-4.23,2.49-8.61,3.1-13.14,1.82s-7.97-3.93-10.34-7.96c-1.59-2.7-2.39-5.56-2.42-8.59
		c-0.03-3.03,0.71-5.88,2.22-8.55C242.69,148.93,244.76,146.82,247.4,145.27z M250.43,150.56c-2.61,1.54-4.27,3.74-4.98,6.6
		c-0.71,2.86-0.24,5.69,1.41,8.49c1.84,3.12,4.41,4.93,7.72,5.43c2.58,0.4,4.99-0.07,7.24-1.4c2.55-1.5,4.17-3.7,4.88-6.59
		c0.71-2.9,0.27-5.69-1.32-8.39c-1.58-2.69-3.82-4.43-6.72-5.23C255.76,148.67,253.02,149.03,250.43,150.56z"/>
	<path class="st2" d="M270.46,133.73l5.74-2.47l8.36,19.45c0.72,1.68,1.38,2.8,1.97,3.37s1.31,0.92,2.17,1.04
		c0.85,0.12,1.76-0.02,2.71-0.43c1.01-0.43,1.78-1.04,2.31-1.82c0.53-0.78,0.78-1.58,0.75-2.42c-0.03-0.83-0.48-2.26-1.34-4.28
		l-8.06-18.73l5.74-2.47l7.71,17.93c1.3,3.03,2.03,5.2,2.2,6.52c0.16,1.32,0,2.73-0.49,4.23c-0.49,1.5-1.25,2.79-2.28,3.85
		c-1.03,1.06-2.37,1.95-4.04,2.67c-2.18,0.94-4.29,1.25-6.34,0.95c-2.05-0.31-3.74-1.06-5.08-2.27s-2.78-3.6-4.33-7.19
		L270.46,133.73z"/>
	<path class="st2" d="M299.82,121.82l5.93-1.93l8.28,25.48l8.63-2.81l1.84,5.65l-14.56,4.73L299.82,121.82z"/>
</g>
<g>
	<path class="st3" d="M271.43,374.85c-9.59-31.18,9.57-43.72,26.45-49.88c17.11-6.24,34.9-2.4,52.01,2.95
		c35.7,11.16,71.03,24.41,105.85,39.7c9.66,4.24,19.48,8.68,29.65,8.82c14.9,0.2,29.17-9,40.58-21.67
		c11.41-12.67,20.38-28.68,29.24-44.53c6.31,11.57,0.97,27.57-4.44,39.91c-6.13,13.99-12.26,27.98-17.7,42.75
		c3.91,8.46,10.05,14.59,15.28,21.68c5.23,7.09,9.84,16.2,9.28,26.08c-14.19-3.72-27.32-12.31-40.7-19.56
		c-38.57-20.88-80.47-30.9-122.12-29.2"/>
	<path class="st3" d="M381.77,379.64c14.83,14.73,22.77,24.59,35.48,42.46c1.16,1.63,2.41,3.76,1.89,5.89
		c-0.29,1.2-1.08,2.05-1.89,2.73c-4.36,3.68-9.97,4-15,2.4s-9.63-4.94-14.16-8.25c-22.91-16.72-34.1-21.7-54.3-50.03"/>
	<path class="st3" d="M271.43,374.85c2.4,7.2,5.82,12.05,10.87,14.58c5.05,2.53,10.6,2.47,16,2.37c15.04-0.27,30.05,0.12,45.08-0.16
		"/>
	<path class="st3" d="M312.21,322.08c-1.52-7.02-0.81-21.26-0.43-28.54c0.37-7.28,3.03-14.8,7.96-18.07
		c0.89-0.59,1.91-1.04,2.87-0.7c0.9,0.32,1.59,1.27,2.2,2.2c11.68,17.46,18.67,40.8,33.25,53.91"/>
	<path class="st3" d="M475.32,374.85c-1.64-4.75-4.03-12.63-4.29-17.85c3.39-2.93,18.25,6.82,21.09,10.65
		C496.58,373.69,492.54,376.26,475.32,374.85z"/>
	<path class="st3" d="M282.89,337.81c8.38,5.25,18.01,6.95,27.14,4.78"/>
	<path class="st3" d="M271.43,353.26c4.44,4.38,11.44,8.1,16.79,9.59c5.29,1.48,13.57,1.1,19.19,0"/>
	<path class="st3" d="M309.81,343.66c0.08,4.79-1.72,14.49-2.4,19.19"/>
	<path class="st3" d="M290.52,342.79c-0.46,5.27-0.93,10.53-1.39,15.8"/>
	<path class="st3" d="M317.32,455.88c0,7.59-6.82,13.76-15.23,13.76c-3.37,0-6.46-0.99-8.97-2.68c-3.03,1.71-6.54,2.68-10.32,2.68
		c-6.07,0-11.53-2.53-15.27-6.57c-3.43,5.06-9.4,8.4-16.2,8.4c-10.66,0-19.29-8.22-19.29-18.34c0-10.13,8.63-18.34,19.29-18.34
		c5.52,0,10.52,2.22,14.03,5.76c3.53-5.65,10.03-9.43,17.44-9.43c8.1,0,15.11,4.51,18.36,11.04c0.3-0.04,0.63-0.04,0.93-0.04
		C310.5,442.12,317.32,448.28,317.32,455.88z"/>
	<path class="st3" d="M415.85,292.6c0,6.23,4.98,11.29,11.13,11.29c2.46,0,4.72-0.81,6.56-2.2c2.21,1.4,4.78,2.2,7.54,2.2
		c4.44,0,8.43-2.08,11.15-5.39c2.51,4.16,6.87,6.9,11.84,6.9c7.79,0,14.09-6.75,14.09-15.06c0-8.31-6.3-15.06-14.09-15.06
		c-4.03,0-7.68,1.82-10.25,4.73c-2.58-4.64-7.33-7.74-12.74-7.74c-5.92,0-11.04,3.7-13.41,9.06c-0.22-0.03-0.46-0.03-0.68-0.03
		C420.84,281.31,415.85,286.37,415.85,292.6z"/>
	<path class="st3" d="M424.79,493.76c0,10.75,8.59,19.47,19.18,19.47c4.25,0,8.13-1.4,11.31-3.79c3.81,2.41,8.24,3.79,12.99,3.79
		c7.65,0,14.53-3.58,19.23-9.29c4.32,7.17,11.84,11.89,20.41,11.89c13.43,0,24.3-11.63,24.3-25.96s-10.87-25.96-24.3-25.96
		c-6.96,0-13.25,3.14-17.67,8.15c-4.45-8-12.64-13.34-21.97-13.34c-10.21,0-19.03,6.39-23.12,15.63c-0.38-0.05-0.79-0.05-1.18-0.05
		C433.38,474.29,424.79,483.01,424.79,493.76z"/>
	<path class="st3" d="M353.49,513.28c0,6.23,4.98,11.29,11.13,11.29c2.46,0,4.72-0.81,6.56-2.2c2.21,1.4,4.78,2.2,7.54,2.2
		c4.44,0,8.43-2.08,11.15-5.39c2.51,4.16,6.87,6.9,11.84,6.9c7.79,0,14.09-6.75,14.09-15.06s-6.3-15.06-14.09-15.06
		c-4.03,0-7.68,1.82-10.25,4.73c-2.58-4.64-7.33-7.74-12.74-7.74c-5.92,0-11.04,3.7-13.41,9.06c-0.22-0.03-0.46-0.03-0.68-0.03
		C358.47,501.99,353.49,507.05,353.49,513.28z"/>
</g>
<path class="st4" d="M238.38,331.59c15.07,8.86,37.37-1.11,37.37-1.11s-2.12-24.34-17.18-33.2c-15.07-8.86-37.37,1.11-37.37,1.11
	S223.32,322.73,238.38,331.59z"/>
<path class="st4" d="M272.94,286.3c-6.14,12.43,2.06,29.02,2.06,29.02s18.16-3.56,24.31-15.99s-2.06-29.02-2.06-29.02
	S279.09,273.87,272.94,286.3z"/>
</svg>
