<?xml version="1.0" encoding="utf-8"?>
<!-- Generator: Adobe Illustrator 27.4.0, SVG Export Plug-In . SVG Version: 6.00 Build 0)  -->
<svg version="1.1" id="레이어_1" xmlns="http://www.w3.org/2000/svg" xmlns:xlink="http://www.w3.org/1999/xlink" x="0px"
	 y="0px" viewBox="0 0 762.52 822.05" style="enable-background:new 0 0 762.52 822.05;" xml:space="preserve">
<style type="text/css">
	.st0{fill:none;stroke:#463C33;stroke-width:3;stroke-miterlimit:10;}
	.st1{fill:none;stroke:#463C33;stroke-width:3;stroke-linecap:round;stroke-linejoin:round;stroke-dasharray:2.9962,5.9925;}
	.st2{fill:none;}
	.st3{fill:none;stroke:#463C33;stroke-width:4;stroke-linecap:round;stroke-linejoin:round;stroke-miterlimit:10;}
	.st4{fill:#ABB868;}
</style>
<g>
	<g>
		<g>
			<circle class="st0" cx="395.06" cy="399.18" r="320.22"/>
			<circle class="st0" cx="395.06" cy="399.18" r="250.66"/>
			<circle class="st0" cx="395.06" cy="399.18" r="225.48"/>
			<g>
				<circle class="st1" cx="395.06" cy="399.18" r="237.47"/>
			</g>
		</g>
		<path id="SVGID_x5F_1_x5F_" class="st2" d="M658.23,399.72c0,144.4-117.06,261.46-261.46,261.46S135.32,544.12,135.32,399.72
			s117.06-261.46,261.46-261.46S658.23,255.32,658.23,399.72z"/>
		<text>		<textPath  xlink:href="#SVGID_x5F_1_x5F_" startOffset="96.289%">
<tspan  style="fill:#463C33; font-family:'CenturyGothic-Bold'; font-size:45.5749px;">ODE? SEOUL ODE? SEOUL ODE? SEOUL ODE? SEOUL ODE? SEOUL ODE? SEOUL</tspan>		</textPath>
</text>
	</g>
	<g>
		<path class="st3" d="M271.43,374.85c-9.59-31.18,9.57-43.72,26.45-49.88c17.11-6.24,34.9-2.4,52.01,2.95
			c35.7,11.16,71.03,24.41,105.85,39.7c9.66,4.24,19.48,8.68,29.65,8.82c14.9,0.2,29.17-9,40.58-21.67
			c11.41-12.67,20.38-28.68,29.24-44.53c6.31,11.57,0.97,27.57-4.44,39.91c-6.13,13.99-12.26,27.98-17.7,42.75
			c3.91,8.46,10.05,14.59,15.28,21.68c5.23,7.09,9.84,16.2,9.28,26.08c-14.19-3.72-27.32-12.31-40.7-19.56
			c-38.57-20.88-80.47-30.9-122.12-29.2"/>
		<path class="st3" d="M381.77,379.64c14.83,14.73,22.77,24.59,35.48,42.46c1.16,1.63,2.41,3.76,1.89,5.89
			c-0.29,1.2-1.08,2.05-1.89,2.73c-4.36,3.68-9.97,4-15,2.4s-9.63-4.94-14.16-8.25c-22.91-16.72-34.1-21.7-54.3-50.03"/>
		<path class="st3" d="M271.43,374.85c2.4,7.2,5.82,12.05,10.87,14.58c5.05,2.53,10.6,2.47,16,2.37
			c15.04-0.27,30.05,0.12,45.08-0.16"/>
		<path class="st3" d="M312.21,322.08c-1.52-7.02-0.81-21.26-0.43-28.54c0.37-7.28,3.03-14.8,7.96-18.07
			c0.89-0.59,1.91-1.04,2.87-0.7c0.9,0.32,1.59,1.27,2.2,2.2c11.68,17.46,18.67,40.8,33.25,53.91"/>
		<path class="st3" d="M475.32,374.85c-1.64-4.75-4.03-12.63-4.29-17.85c3.39-2.93,18.25,6.82,21.09,10.65
			C496.58,373.69,492.54,376.26,475.32,374.85z"/>
		<path class="st3" d="M282.89,337.81c8.38,5.25,18.01,6.95,27.14,4.78"/>
		<path class="st3" d="M271.43,353.26c4.44,4.38,11.44,8.1,16.79,9.59c5.29,1.48,13.57,1.1,19.19,0"/>
		<path class="st3" d="M309.81,343.66c0.08,4.79-1.72,14.49-2.4,19.19"/>
		<path class="st3" d="M290.52,342.79c-0.46,5.27-0.93,10.53-1.39,15.8"/>
		<path class="st3" d="M317.32,455.88c0,7.59-6.82,13.76-15.23,13.76c-3.37,0-6.46-0.99-8.97-2.68c-3.03,1.71-6.54,2.68-10.32,2.68
			c-6.07,0-11.53-2.53-15.27-6.57c-3.43,5.06-9.4,8.4-16.2,8.4c-10.66,0-19.29-8.22-19.29-18.34c0-10.13,8.63-18.34,19.29-18.34
			c5.52,0,10.52,2.22,14.03,5.76c3.53-5.65,10.03-9.43,17.44-9.43c8.1,0,15.11,4.51,18.36,11.04c0.3-0.04,0.63-0.04,0.93-0.04
			C310.5,442.12,317.32,448.28,317.32,455.88z"/>
		<path class="st3" d="M415.85,292.6c0,6.23,4.98,11.29,11.13,11.29c2.46,0,4.72-0.81,6.56-2.2c2.21,1.4,4.78,2.2,7.54,2.2
			c4.44,0,8.43-2.08,11.15-5.39c2.51,4.16,6.87,6.9,11.84,6.9c7.79,0,14.09-6.75,14.09-15.06c0-8.31-6.3-15.06-14.09-15.06
			c-4.03,0-7.68,1.82-10.25,4.73c-2.58-4.64-7.33-7.74-12.74-7.74c-5.92,0-11.04,3.7-13.41,9.06c-0.22-0.03-0.46-0.03-0.68-0.03
			C420.84,281.31,415.85,286.37,415.85,292.6z"/>
		<path class="st3" d="M424.79,493.76c0,10.75,8.59,19.47,19.18,19.47c4.25,0,8.13-1.4,11.31-3.79c3.81,2.41,8.24,3.79,12.99,3.79
			c7.65,0,14.53-3.58,19.23-9.29c4.32,7.17,11.84,11.89,20.41,11.89c13.43,0,24.3-11.63,24.3-25.96s-10.87-25.96-24.3-25.96
			c-6.96,0-13.25,3.14-17.67,8.15c-4.45-8-12.64-13.34-21.97-13.34c-10.21,0-19.03,6.39-23.12,15.63c-0.38-0.05-0.79-0.05-1.18-0.05
			C433.38,474.29,424.79,483.01,424.79,493.76z"/>
		<path class="st3" d="M353.49,513.28c0,6.23,4.98,11.29,11.13,11.29c2.46,0,4.72-0.81,6.56-2.2c2.21,1.4,4.78,2.2,7.54,2.2
			c4.44,0,8.43-2.08,11.15-5.39c2.51,4.16,6.87,6.9,11.84,6.9c7.79,0,14.09-6.75,14.09-15.06s-6.3-15.06-14.09-15.06
			c-4.03,0-7.68,1.82-10.25,4.73c-2.58-4.64-7.33-7.74-12.74-7.74c-5.92,0-11.04,3.7-13.41,9.06c-0.22-0.03-0.46-0.03-0.68-0.03
			C358.47,501.99,353.49,507.05,353.49,513.28z"/>
	</g>
	<path class="st4" d="M238.38,331.59c15.07,8.86,37.37-1.11,37.37-1.11s-2.12-24.34-17.18-33.2c-15.07-8.86-37.37,1.11-37.37,1.11
		S223.32,322.73,238.38,331.59z"/>
	<path class="st4" d="M272.94,286.3c-6.14,12.43,2.06,29.02,2.06,29.02s18.16-3.56,24.31-15.99s-2.06-29.02-2.06-29.02
		S279.09,273.87,272.94,286.3z"/>
</g>
</svg>
