<?xml version="1.0" encoding="utf-8"?>
<!-- Generator: Adobe Illustrator 27.4.0, SVG Export Plug-In . SVG Version: 6.00 Build 0)  -->
<svg version="1.1" id="레이어_1" xmlns="http://www.w3.org/2000/svg" xmlns:xlink="http://www.w3.org/1999/xlink" x="0px"
	 y="0px" viewBox="0 0 762.52 822.05" style="enable-background:new 0 0 762.52 822.05;" xml:space="preserve">
<style type="text/css">
	.st0{fill:#463C33;stroke:#463C33;stroke-width:2;stroke-linecap:round;stroke-linejoin:round;stroke-miterlimit:10;}
	.st1{fill:none;stroke:#463C33;stroke-width:3;stroke-miterlimit:10;}
	.st2{fill:none;stroke:#463C33;stroke-width:3;stroke-linecap:round;stroke-linejoin:round;stroke-dasharray:3.001,6.002;}
	.st3{fill:none;}
	.st4{fill:#ABB868;}
</style>
<g>
	<g>
		<path class="st0" d="M216.36,529.6c0.43,0.26,0.9,0.47,1.36,0.67c7.34,3.1,15.02,5.27,22.83,6.51c5.44,0.86,15.5,3.15,20.62,0.31
			c1.5-0.84,2.61-2.27,3.68-3.66c32.53-42.42,65.38-84.54,98.66-126.31c-0.65,0.82,8.64,15.42,9.58,17.06
			c3.51,6.16,7.05,12.3,10.63,18.41c7.16,12.23,14.47,24.36,21.93,36.38c7.31,11.79,14.76,23.48,22.35,35.07
			c6.1,9.31,12.23,23.74,22.96,27.67c8.29,3.03,17.94,2.05,26.59,2.33c8.36,0.26,16.72-0.28,24.99-1.62
			c0.45-0.07,0.92-0.16,1.25-0.48c0.45-0.44,0.51-1.16,0.54-1.8c0.54-14.92,1.23-29.84,1.82-44.77c0.6-15,1.16-30,1.65-45
			c0.48-14.85,0.89-29.7,1.17-44.56c0.06-2.98,0.11-5.96,0.16-8.94c14,0.41,28,0.88,42,1.32c0.04,0,0.64,0.02,0.64,0.02
			c-0.16-10.59-0.32-21.18-0.48-31.77c-14.58-0.01-29.15-0.03-43.73-0.04c-1.92-8.18-2.12-16.77-0.63-25.04
			c0.02-0.09,0.03-0.18,0.1-0.24c0.08-0.08,0.2-0.08,0.31-0.07c7.07,0.45,14.14,0.9,21.21,1.34c6,0.38,12,0.74,17.99,1.21
			c0.7,0.05,1.4,0.11,2.1,0.12c0.25,0,0.54-0.02,0.68-0.23c0.11-0.15,0.11-0.36,0.1-0.54c-0.05-1.91-0.28-3.82-0.35-5.74
			c-0.08-2.09-0.16-4.18-0.25-6.27c-0.17-4.25-0.34-8.5-0.5-12.76c-13.96-0.53-27.93-0.81-41.89-1.21c-0.07,0-0.14,0-0.21-0.01
			c-1.41-0.04-2.81-0.08-4.22-0.12c0.58-5.48,0.7-10.97,0.7-16.48c-0.08-8.72-0.83-17.42-2.32-26c-0.02-0.13-0.05-0.28-0.14-0.37
			c-0.11-0.11-0.27-0.13-0.42-0.14c-10.47-0.65-20.93-1.34-31.4-2.01c-8.88-0.57-17.76-1.14-26.63-1.71
			c-2.11-0.14-4.45-0.2-6.07,1.22c-1.72,1.51-2.01,4.12-2.17,6.46c-0.78,11.28-1.55,22.56-2.31,33.84
			c8.29,0.62,16.58,1.25,24.88,1.87c5.19,0.39,8.86,0.76,8.87,7.07c0.1,58.69,0.2,117.38,0.29,176.07
			c-0.01-4.11-6.04-11.62-8.05-14.97c-3.54-5.9-7.38-11.59-11.21-17.27c-22.98-34.11-45.96-68.22-68.94-102.32
			c-2.13-3.16-4.39-6.44-7.68-8.18c-8.17-4.32-17.47,2.62-24.12,9.2c-37.6,37.26-72.15,77.96-103.14,121.5
			c-4.8,6.74-9.51,13.55-14.14,20.43c-4.13,6.14-10.22,12.94-12.97,19.89c-0.44,1.12-0.51,2.49,0.12,3.51
			C215.44,528.93,215.87,529.3,216.36,529.6z"/>
		<g>
			<circle class="st1" cx="381.26" cy="411.02" r="318.8"/>
			<circle class="st1" cx="381.26" cy="411.02" r="249.55"/>
			<circle class="st1" cx="381.26" cy="411.02" r="224.47"/>
			<g>
				<circle class="st2" cx="381.26" cy="411.02" r="236.42"/>
			</g>
		</g>
		<path id="SVGID_x5F_1_x5F_" class="st3" d="M641.97,410.16c0,143.76-116.54,260.3-260.3,260.3s-260.3-116.54-260.3-260.3
			s116.54-260.3,260.3-260.3S641.97,266.4,641.97,410.16z"/>
		<text>		<textPath  xlink:href="#SVGID_x5F_1_x5F_" startOffset="96.289%">
<tspan  style="fill:#463C33; font-family:'CenturyGothic-Bold'; font-size:45.3726px;">ODE? SEOUL ODE? SEOUL ODE? SEOUL ODE? SEOUL ODE? SEOUL ODE? SEOUL</tspan>		</textPath>
</text>
	</g>
	<path class="st4" d="M232.83,435.65c15,8.82,37.21-1.1,37.21-1.1s-2.11-24.23-17.11-33.06c-15-8.82-37.21,1.1-37.21,1.1
		S217.83,426.83,232.83,435.65z"/>
	<path class="st4" d="M267.23,390.56c-6.12,12.38,2.05,28.9,2.05,28.9s18.08-3.54,24.2-15.92s-2.05-28.9-2.05-28.9
		S273.35,378.19,267.23,390.56z"/>
</g>
</svg>
