<?xml version="1.0" encoding="utf-8"?>
<!-- Generator: Adobe Illustrator 27.4.0, SVG Export Plug-In . SVG Version: 6.00 Build 0)  -->
<svg version="1.1" id="레이어_1" xmlns="http://www.w3.org/2000/svg" xmlns:xlink="http://www.w3.org/1999/xlink" x="0px"
	 y="0px" viewBox="0 0 762.52 822.05" style="enable-background:new 0 0 762.52 822.05;" xml:space="preserve">
<style type="text/css">
	.st0{fill:none;stroke:#463C33;stroke-width:2.6294;stroke-miterlimit:10;}
	.st1{fill:none;stroke:#463C33;stroke-width:3.7343;stroke-miterlimit:10;}
	.st2{fill:none;stroke:#463C33;stroke-width:2.9231;stroke-miterlimit:10;}
	.st3{fill:none;stroke:#463C33;stroke-width:2.7692;stroke-linecap:round;stroke-linejoin:round;stroke-dasharray:2.9968,5.9937;}
	.st4{fill:none;}
	.st5{fill:none;stroke:#463C33;stroke-width:4;stroke-miterlimit:10;}
	.st6{fill:none;stroke:#463C33;stroke-width:4;stroke-linecap:round;stroke-linejoin:round;stroke-miterlimit:10;}
	.st7{fill:#ABB868;}
</style>
<g>
	<g>
		<circle class="st0" cx="381.26" cy="411.02" r="224.16"/>
		<g>
			<circle class="st1" cx="381.26" cy="411.02" r="318.36"/>
			<circle class="st2" cx="381.26" cy="411.02" r="249.2"/>
			<g>
				<circle class="st3" cx="381.26" cy="411.02" r="236.09"/>
			</g>
			<path id="SVGID_x5F_1_x5F_" class="st4" d="M641.36,411.56c0,143.56-116.38,259.93-259.93,259.93S121.49,555.11,121.49,411.56
				s116.38-259.93,259.93-259.93S641.36,268,641.36,411.56z"/>
			<text>			<textPath  xlink:href="#SVGID_x5F_1_x5F_" startOffset="96.289%">
<tspan  style="fill:#463C33; font-family:'CenturyGothic-Bold'; font-size:45.3097px;">ODE? SEOUL ODE? SEOUL ODE? SEOUL ODE? SEOUL ODE? SEOUL ODE? SEOUL</tspan>			</textPath>
</text>
		</g>
	</g>
	<g>
		<g>
			<path class="st5" d="M323.43,323.16h-9.81c-6.47,0-11.77-4.85-11.77-10.78v-17.06c0-5.93,5.3-10.78,11.77-10.78h9.81
				c6.47,0,11.77,4.85,11.77,10.78v2.6v14.46C335.2,318.31,329.91,323.16,323.43,323.16z"/>
			<line class="st5" x1="301.85" y1="300.51" x2="335.2" y2="300.51"/>
			<line class="st5" x1="318.53" y1="284.54" x2="318.53" y2="300.51"/>
		</g>
		<ellipse class="st5" cx="318.67" cy="387.29" rx="69.07" ry="63.23"/>
		<rect x="310.84" y="451.83" class="st5" width="14.24" height="71.71"/>
		<path class="st5" d="M310.07,453.01l-34.79,47.29c-0.19-0.14-0.36-0.26-0.55-0.38c-0.52-0.33-1.1-0.62-1.69-0.88l34.84-47.36
			L310.07,453.01z"/>
		<path class="st5" d="M356.84,490.83c-0.79,0.36-1.53,0.81-2.22,1.26l-29.05-39.44l2.17-1.36L356.84,490.83z"/>
		<line class="st5" x1="249.6" y1="387.94" x2="387.74" y2="387.94"/>
		<line class="st5" x1="319.38" y1="324.06" x2="319.38" y2="451.83"/>
		<line class="st5" x1="269.54" y1="432.27" x2="367.8" y2="343.62"/>
		<line class="st5" x1="270.96" y1="342.31" x2="367.8" y2="430.97"/>
		<g>
			<path class="st5" d="M388.76,347.72h-9.81c-6.47,0-11.77-4.85-11.77-10.78v-17.06c0-5.93,5.3-10.78,11.77-10.78h9.81
				c6.47,0,11.77,4.85,11.77,10.78v2.6v14.46C400.53,342.87,395.23,347.72,388.76,347.72z"/>
			<line class="st5" x1="367.17" y1="325.07" x2="400.53" y2="325.07"/>
			<line class="st5" x1="383.85" y1="309.1" x2="383.85" y2="325.07"/>
		</g>
		<g>
			<path class="st5" d="M408.69,409h-9.81c-6.47,0-11.77-4.85-11.77-10.78v-17.06c0-5.93,5.3-10.78,11.77-10.78h9.81
				c6.47,0,11.77,4.85,11.77,10.78v2.6v14.46C420.47,404.15,415.17,409,408.69,409z"/>
			<line class="st5" x1="387.11" y1="386.34" x2="420.47" y2="386.34"/>
			<line class="st5" x1="403.79" y1="370.38" x2="403.79" y2="386.34"/>
		</g>
		<g>
			<path class="st5" d="M388.76,467.67h-9.81c-6.47,0-11.77-4.85-11.77-10.78v-17.06c0-5.93,5.3-10.78,11.77-10.78h9.81
				c6.47,0,11.77,4.85,11.77,10.78v2.6v14.46C400.53,462.82,395.23,467.67,388.76,467.67z"/>
			<line class="st5" x1="367.17" y1="445.01" x2="400.53" y2="445.01"/>
			<line class="st5" x1="383.85" y1="429.05" x2="383.85" y2="445.01"/>
		</g>
		<g>
			<path class="st5" d="M259.16,466.36h-9.81c-6.47,0-11.77-4.85-11.77-10.78v-17.06c0-5.93,5.3-10.78,11.77-10.78h9.81
				c6.47,0,11.77,4.85,11.77,10.78v2.6v14.46C270.94,461.51,265.64,466.36,259.16,466.36z"/>
			<line class="st5" x1="237.58" y1="443.71" x2="270.94" y2="443.71"/>
			<line class="st5" x1="254.26" y1="427.74" x2="254.26" y2="443.71"/>
		</g>
		<g>
			<path class="st5" d="M236.38,409h-9.81c-6.47,0-11.77-4.85-11.77-10.78v-17.06c0-5.93,5.3-10.78,11.77-10.78h9.81
				c6.47,0,11.77,4.85,11.77,10.78v2.6v14.46C248.15,404.15,242.85,409,236.38,409z"/>
			<line class="st5" x1="214.8" y1="386.34" x2="248.15" y2="386.34"/>
			<line class="st5" x1="231.47" y1="370.38" x2="231.47" y2="386.34"/>
		</g>
		<g>
			<path class="st5" d="M259.16,347.72h-9.81c-6.47,0-11.77-4.85-11.77-10.78v-17.06c0-5.93,5.3-10.78,11.77-10.78h9.81
				c6.47,0,11.77,4.85,11.77,10.78v2.6v14.46C270.94,342.87,265.64,347.72,259.16,347.72z"/>
			<line class="st5" x1="237.58" y1="325.07" x2="270.94" y2="325.07"/>
			<line class="st5" x1="254.26" y1="309.1" x2="254.26" y2="325.07"/>
		</g>
	</g>
	<path class="st6" d="M281,509.69c0,4.6-3.36,8.66-8.39,10.9c-1.67,1.5-4.32,2.48-7.27,2.48h-49.79c-2.55,0-4.84-0.72-6.51-1.86
		c-1.45-1-2.43-2.36-2.67-3.84v-0.02c-0.41-0.36-0.74-0.72-1.07-1.12c-1.12-1.36-1.74-2.93-1.74-4.63c0-5.27,6.2-9.56,13.83-9.56
		c0.29,0,0.57,0,0.86,0.02c2.93-4.53,9.3-7.65,16.67-7.65c6.72,0,12.62,2.62,15.83,6.53c3.2-2.46,7.73-3.98,12.73-3.98
		c3.53,0,6.82,0.76,9.56,2.07c0.6,0.26,1.17,0.55,1.69,0.88c0.19,0.12,0.36,0.24,0.55,0.38C278.81,502.59,281,505.95,281,509.69z"/>
	<path class="st6" d="M445.81,508.6c0,2.38-0.81,4.6-2.24,6.51c-0.41,0.57-0.86,1.1-1.38,1.6c-0.29,2.1-1.53,3.98-3.41,5.41
		c-2.15,1.62-5.08,2.62-8.35,2.62h-63.84c-3.79,0-7.18-1.38-9.32-3.51c-6.46-3.15-10.76-8.85-10.76-15.33
		c0-5.51,3.12-10.47,8.04-13.76c0.02-0.02,0.05-0.02,0.07-0.05c0.69-0.45,1.43-0.91,2.22-1.26c3.48-1.81,7.66-2.86,12.14-2.86
		c6.41,0,12.23,2.17,16.34,5.63c4.1-5.51,11.66-9.2,20.29-9.2c9.44,0,17.6,4.41,21.39,10.8c0.33-0.05,0.72-0.05,1.07-0.05
		C437.87,495.15,445.81,501.18,445.81,508.6z"/>
	<g>
		<path class="st6" d="M544.29,462.54l-4.75,1.4l-70.51,20.77c-8.54,2.51-17.72,0.31-26.02-5.4c-10.39-7.12-19.4-19.71-23.99-35.3
			l17.74-5.22l5.46,17.26l12.18-3.59l1.5-0.44l-0.52-1.87l-4.29-15.58l12.45-3.66l2.59-0.77l5.11,17.35l15.26-4.5l-5.11-17.35
			l16.35-4.82l4.98,17.38l15.35-4.51l-5.11-17.35l4.77-1.4l13.32-3.93l5.12,17.35l14.89-4.38l-4.32-14.69l18.22-5.37
			C571.93,431.02,562.93,457.06,544.29,462.54z"/>
		<line class="st6" x1="496.71" y1="419.94" x2="493.48" y2="360.32"/>
		<line class="st6" x1="446.93" y1="483.1" x2="442.16" y2="497.41"/>
		<line class="st6" x1="455.38" y1="450.15" x2="454.4" y2="452.45"/>
		<line class="st6" x1="493.48" y1="360.32" x2="463.55" y2="430.91"/>
		<line class="st6" x1="556.63" y1="511.72" x2="537.55" y2="466.41"/>
		<line class="st6" x1="517.75" y1="414.94" x2="493.48" y2="360.32"/>
	</g>
	<path class="st7" d="M443.08,321.58c-14.98,8.81-37.15-1.1-37.15-1.1s2.11-24.2,17.09-33.01c14.98-8.81,37.15,1.1,37.15,1.1
		S458.06,312.77,443.08,321.58z"/>
	<path class="st7" d="M408.72,276.55c6.11,12.36-2.05,28.86-2.05,28.86s-18.06-3.54-24.17-15.9c-6.11-12.36,2.05-28.86,2.05-28.86
		S402.61,264.2,408.72,276.55z"/>
</g>
</svg>
