<?xml version="1.0" encoding="utf-8"?>
<!-- Generator: Adobe Illustrator 27.4.0, SVG Export Plug-In . SVG Version: 6.00 Build 0)  -->
<svg version="1.1" id="레이어_1" xmlns="http://www.w3.org/2000/svg" xmlns:xlink="http://www.w3.org/1999/xlink" x="0px"
	 y="0px" viewBox="0 0 762.52 822.05" style="enable-background:new 0 0 762.52 822.05;" xml:space="preserve">
<style type="text/css">
	.st0{fill:none;stroke:#463C33;stroke-width:4;stroke-linecap:round;stroke-linejoin:round;stroke-miterlimit:10;}
	.st1{fill:none;stroke:#463C33;stroke-width:3;stroke-miterlimit:10;}
	.st2{fill:none;stroke:#463C33;stroke-width:3;stroke-linecap:round;stroke-linejoin:round;stroke-dasharray:2.9931,5.9862;}
	.st3{fill:#463C33;}
	.st4{fill:#ABB868;}
</style>
<g>
	<path class="st0" d="M233.5,468.79c-15.9-10.99-30.4-25.47-42.74-42.65c-1.14-1.59-2.34-3.46-2.24-5.64
		c0.08-1.84,1.08-3.37,2.05-4.7c7.63-10.41,17.11-18.12,26.75-25.07c54.87-39.59,114.66-68.31,176.77-78.53
		c19.35-3.18,44.1-2.73,63.49,0c30.62,4.31,51.92,11.84,79.95,28.6c14.48,8.65,34.37,35.09,43.65,52.08
		c3.53,6.45,6.11,14.9,3.82,22.26c-1.05,3.4-3.03,6.15-5.09,8.63c-7.96,9.62-17.79,16.54-28.28,19.92"/>
	<path class="st0" d="M189.51,421.38c3.72-15.13,23.43-16.24,35.48-17.58c97.37-10.82,195.51-6.44,292.62,7.83
		c20.06,2.95,36.4,7.15,57.56,14.95"/>
	<path class="st0" d="M222.43,387.59c37.62-18.2,56.09-19.84,94.24-24.37c38.15-4.54,76.56-2.37,114.82,0.29
		c52,3.61,105.6,8.65,152.12,39.43"/>
	<path class="st0" d="M267.11,358.99c44.93-22,93.85-28.58,141.78-29.39s118.61,19.6,161.57,47.59"/>
	<path class="st0" d="M210.67,449.98c15.43,5.69,40.88,6.31,55.19-3.19c10-6.64,16.92-14.08,27.11-20.21
		c13.52-8.13,35.02-10.26,49.38-5.2c10.75,3.79,29.95,17.24,39.98,23.4c29,17.82,50.25,16.51,79.95,2.6
		c10.14-4.75,18.86-9.37,29.27-13.48c20.64-8.15,50.69-9.92,71.85,3.08"/>
	<path class="st0" d="M234.18,468.17c12.5,3.64,29.34-1.01,39.98-10.4s18.18-19.16,30.57-23.4c20.64-7.06,33.55,8.74,51.73,23.4
		c18.18,14.65,25.75,22.69,47.03,20.8"/>
	<path class="st0" d="M557.07,440.59c-15.22,10.63-33.67,7.88-50.48,12.85c-25.1,7.43-46.46,36.87-53.71,69.32"/>
	<path class="st0" d="M403.5,478.57c21.16-2.6,26.93,33.44,25.87,49.39"/>
	<path class="st0" d="M534.42,449.97c-8.97,7.56-16.04,18.95-19.88,32.01c-2.77,9.43-2.36,22.96-7.58,30.38"/>
	<path class="st0" d="M234.18,468.17c0,13,5.49,33.07,11.56,39.36c6.07,6.29,13.92,8.63,21.51,10.59
		c78.75,20.33,227.95,9.85,239.71-5.75"/>
	<path class="st0" d="M474.04,520.17c1.41-6.06,2.39-13.29,4.97-18.64c2.58-5.35,7.26-9.57,12-8.45c2.96,0.7,5.52,3.42,7.01,6.86
		s2.08,11.09,1.88,15.03"/>
	<path class="st0" d="M348.98,528.28c-0.73-9.17-1.26-19.37,3.07-26.62c3.35-5.61,9.13-8.14,14.52-7.45
		c3.71,0.47,7.45,2.47,9.75,6.33c1.47,2.48,2.26,5.53,2.9,8.56c1.43,6.73,2.29,13.66,2.55,20.64"/>
	<path class="st0" d="M299.75,522.1c-0.19-9.1-0.12-19.17,4.48-25.97c1.53-2.27,3.48-3.99,5.5-5.47c2.29-1.67,4.74-3.07,7.34-3.46
		c2.6-0.38,5.38,0.35,7.38,2.56c1.48,1.62,2.44,3.9,3.2,6.23c3.17,9.71,3.19,20.62,3.16,31.19"/>
	<path class="st0" d="M255.92,511.02c-0.79-7.69,0.28-16.1,4.24-21.85c3.97-5.75,11.24-7.79,15.96-3.13
		c3.12,3.08,4.59,8.23,5.58,13.19c1.4,7,2.19,14.22,2.33,21.47"/>
	<path class="st0" d="M462.58,511.83"/>
</g>
<g>
	<circle class="st1" cx="381.26" cy="411.02" r="319.89"/>
	<circle class="st1" cx="381.26" cy="411.02" r="250.4"/>
	<circle class="st1" cx="381.26" cy="411.02" r="225.24"/>
	<g>
		<circle class="st2" cx="381.26" cy="411.02" r="237.22"/>
	</g>
</g>
<g>
	<path class="st3" d="M348.34,117.02c4.6-0.5,8.74,0.73,12.41,3.7c3.67,2.97,5.77,6.85,6.29,11.63c0.52,4.74-0.68,8.94-3.58,12.58
		c-2.91,3.64-6.69,5.72-11.35,6.23c-4.88,0.53-9.12-0.71-12.71-3.73s-5.65-6.85-6.15-11.49c-0.34-3.11,0.1-6.05,1.32-8.82
		s3.06-5.06,5.53-6.88S345.3,117.35,348.34,117.02z M348.93,123.08c-3.01,0.33-5.42,1.65-7.25,3.97c-1.82,2.32-2.56,5.09-2.2,8.31
		c0.39,3.59,1.99,6.3,4.8,8.11c2.18,1.42,4.57,1.98,7.17,1.7c2.93-0.32,5.32-1.65,7.15-4c1.83-2.35,2.58-5.07,2.24-8.18
		c-0.34-3.09-1.66-5.6-3.98-7.52C354.56,123.56,351.91,122.76,348.93,123.08z"/>
	<path class="st3" d="M374.37,115.91l7.37,0.15c4.75,0.1,8.27,0.75,10.56,1.98c2.29,1.22,4.15,3.18,5.59,5.86
		c1.44,2.68,2.13,5.79,2.06,9.33c-0.05,2.52-0.52,4.83-1.39,6.92c-0.88,2.09-2.07,3.82-3.57,5.19c-1.5,1.36-3.12,2.29-4.84,2.79
		s-4.71,0.71-8.94,0.62l-7.48-0.15L374.37,115.91z M380.43,122.04l-0.41,20.63l2.89,0.06c2.84,0.06,4.92-0.23,6.21-0.86
		c1.29-0.63,2.36-1.7,3.21-3.23s1.29-3.42,1.34-5.67c0.07-3.47-0.85-6.18-2.75-8.13c-1.71-1.76-4.5-2.67-8.37-2.75L380.43,122.04z"
		/>
	<path class="st3" d="M408.77,117.32l17.72,2.18l-0.74,6.05l-11.58-1.42l-0.72,5.87l11.58,1.42l-0.73,5.94l-11.58-1.42l-1.05,8.54
		l11.58,1.43l-0.75,6.07l-17.72-2.18L408.77,117.32z"/>
	<path class="st3" d="M436.89,130.04l-5.69-1.24c0.58-2.79,2.03-4.89,4.37-6.29c2.34-1.4,5.09-1.75,8.26-1.06
		c2.04,0.44,3.7,1.2,4.97,2.26c1.27,1.06,2.18,2.4,2.73,4.01c0.55,1.61,0.66,3.19,0.32,4.76c-0.19,0.85-0.51,1.66-0.96,2.43
		c-0.46,0.77-1.07,1.52-1.86,2.26c-0.46,0.43-1.48,1.1-3.05,2.02c-1.51,0.87-2.47,1.51-2.89,1.91c-0.42,0.4-0.83,0.97-1.21,1.7
		c-0.39,0.73-0.76,1.79-1.12,3.17l-5.89-1.28l0.19-0.98c0.42-1.94,1.16-3.63,2.21-5.06c1.05-1.43,2.53-2.67,4.42-3.71
		c1.83-1.01,2.96-1.74,3.38-2.18c0.43-0.44,0.72-1,0.87-1.68c0.2-0.93-0.02-1.8-0.65-2.61c-0.64-0.81-1.6-1.36-2.91-1.64
		c-1.33-0.29-2.51-0.13-3.54,0.46C437.82,127.89,437.17,128.81,436.89,130.04z M437.37,147.82c1.06,0.23,1.88,0.79,2.47,1.67
		c0.59,0.89,0.77,1.84,0.55,2.87c-0.22,1.03-0.78,1.83-1.68,2.4c-0.9,0.57-1.87,0.74-2.91,0.52c-1.04-0.23-1.85-0.79-2.42-1.68
		s-0.75-1.85-0.52-2.88c0.22-1.03,0.78-1.83,1.66-2.39C435.38,147.77,436.34,147.6,437.37,147.82z"/>
	<path class="st3" d="M489.37,141.54l-5.73,2.22c-0.74-2.67-1.89-4.3-3.47-4.88c-0.77-0.28-1.47-0.31-2.11-0.08
		c-0.64,0.23-1.05,0.6-1.24,1.12c-0.19,0.51-0.2,1.07-0.02,1.65c0.25,0.79,1.19,2.63,2.83,5.52c1.54,2.69,2.46,4.36,2.75,5.02
		c0.74,1.63,1.16,3.09,1.25,4.36s-0.1,2.56-0.58,3.85c-0.93,2.52-2.57,4.27-4.91,5.27c-2.35,1-4.92,0.98-7.71-0.05
		c-2.19-0.81-3.89-2.05-5.12-3.71c-1.23-1.67-1.99-3.86-2.3-6.58l6-1.15c0.47,3.26,1.67,5.24,3.59,5.95c1,0.37,1.95,0.39,2.85,0.06
		c0.9-0.33,1.49-0.88,1.77-1.64c0.26-0.69,0.26-1.49,0-2.37c-0.26-0.89-1-2.37-2.23-4.45c-2.34-3.96-3.72-6.86-4.15-8.7
		c-0.43-1.84-0.37-3.5,0.17-4.97c0.79-2.13,2.27-3.65,4.45-4.58c2.18-0.92,4.47-0.95,6.85-0.07c1.53,0.57,2.86,1.46,3.98,2.68
		C487.43,137.22,488.45,139.07,489.37,141.54z"/>
	<path class="st3" d="M498.94,140.8l16.13,7.64l-2.61,5.5l-10.55-5l-2.53,5.34l10.55,5l-2.56,5.4l-10.55-5l-3.68,7.77l10.55,5
		l-2.62,5.52l-16.13-7.64L498.94,140.8z"/>
	<path class="st3" d="M536.42,159.81c3.93,2.45,6.41,5.98,7.47,10.58c1.05,4.6,0.3,8.95-2.25,13.04c-2.53,4.05-6.06,6.61-10.59,7.67
		c-4.54,1.07-8.79,0.36-12.77-2.12c-4.17-2.6-6.73-6.2-7.69-10.79c-0.96-4.6-0.2-8.88,2.27-12.84c1.65-2.65,3.82-4.69,6.49-6.12
		s5.54-2.09,8.59-1.99S533.83,158.2,536.42,159.81z M533.14,164.94c-2.57-1.6-5.28-2.06-8.15-1.36c-2.86,0.69-5.15,2.42-6.87,5.17
		c-1.91,3.07-2.33,6.18-1.24,9.34c0.84,2.46,2.37,4.39,4.58,5.77c2.5,1.56,5.2,1.99,8.09,1.28c2.89-0.71,5.17-2.39,6.82-5.05
		c1.65-2.64,2.15-5.43,1.52-8.37C537.27,168.79,535.68,166.53,533.14,164.94z"/>
	<path class="st3" d="M557.29,174.88l4.85,3.94l-13.34,16.41c-1.15,1.41-1.84,2.51-2.07,3.3c-0.23,0.79-0.2,1.59,0.08,2.4
		c0.29,0.81,0.83,1.55,1.63,2.2c0.85,0.69,1.74,1.09,2.68,1.2c0.93,0.11,1.76-0.04,2.49-0.45c0.73-0.41,1.78-1.47,3.16-3.17
		l12.85-15.8l4.85,3.94l-12.3,15.13c-2.08,2.55-3.66,4.21-4.75,4.96c-1.09,0.76-2.42,1.26-3.98,1.52c-1.56,0.26-3.05,0.18-4.46-0.23
		c-1.42-0.42-2.83-1.2-4.23-2.34c-1.84-1.5-3.1-3.22-3.77-5.17c-0.67-1.95-0.79-3.8-0.34-5.55c0.45-1.75,1.9-4.13,4.36-7.16
		L557.29,174.88z"/>
	<path class="st3" d="M581.39,195.31l4.45,4.35l-18.7,19.15l6.49,6.34l-4.15,4.25l-10.94-10.68L581.39,195.31z"/>
	<path class="st3" d="M616.7,233.61c2.77,3.7,3.81,7.89,3.13,12.57s-2.96,8.45-6.81,11.34c-3.82,2.86-8.04,3.96-12.65,3.31
		c-4.61-0.65-8.33-2.85-11.13-6.6c-2.94-3.93-4.03-8.21-3.25-12.85c0.77-4.63,3.03-8.35,6.76-11.15c2.5-1.87,5.26-2.99,8.26-3.35
		c3.01-0.36,5.92,0.06,8.73,1.26C612.55,229.34,614.87,231.17,616.7,233.61z M611.79,237.21c-1.81-2.42-4.18-3.83-7.1-4.22
		c-2.92-0.39-5.68,0.39-8.28,2.33c-2.9,2.17-4.41,4.92-4.54,8.26c-0.11,2.6,0.62,4.95,2.18,7.04c1.77,2.36,4.13,3.74,7.08,4.12
		c2.95,0.38,5.68-0.36,8.18-2.23c2.49-1.86,3.97-4.28,4.45-7.25C614.24,242.29,613.58,239.61,611.79,237.21z"/>
	<path class="st3" d="M630.93,255.52l3.61,6.43c2.33,4.14,3.55,7.51,3.65,10.1c0.1,2.59-0.63,5.19-2.21,7.79
		c-1.58,2.6-3.91,4.77-7,6.51c-2.2,1.23-4.42,2-6.67,2.31c-2.25,0.31-4.34,0.16-6.28-0.44s-3.56-1.52-4.87-2.76s-3-3.7-5.07-7.39
		l-3.67-6.52L630.93,255.52z M628.73,263.85l-17.98,10.11l1.42,2.52c1.39,2.48,2.69,4.12,3.89,4.92s2.67,1.17,4.41,1.13
		c1.74-0.05,3.6-0.62,5.56-1.73c3.03-1.7,4.9-3.87,5.61-6.5c0.64-2.37,0.02-5.24-1.88-8.61L628.73,263.85z"/>
	<path class="st3" d="M647.17,285.9l7.09,16.38l-5.59,2.42l-4.64-10.71l-5.43,2.35l4.64,10.71l-5.49,2.38l-4.64-10.71l-7.9,3.42
		l4.64,10.71l-5.61,2.43l-7.09-16.38L647.17,285.9z"/>
	<path class="st3" d="M635.35,326c0.34,1.03,0.27,2.02-0.2,2.98c-0.47,0.96-1.2,1.6-2.2,1.93s-1.97,0.25-2.92-0.24
		s-1.59-1.23-1.92-2.25s-0.26-1.99,0.22-2.94c0.48-0.94,1.22-1.58,2.22-1.91s1.97-0.25,2.9,0.22
		C634.39,324.26,635.02,325,635.35,326z M650.44,316.59l-1.81-5.53c2.7-0.92,5.25-0.72,7.64,0.59s4.09,3.5,5.1,6.59
		c0.65,1.99,0.84,3.8,0.56,5.43c-0.28,1.63-0.97,3.1-2.07,4.39c-1.11,1.29-2.42,2.18-3.94,2.68c-0.83,0.27-1.69,0.41-2.58,0.4
		c-0.89,0-1.85-0.16-2.89-0.46c-0.6-0.18-1.7-0.71-3.29-1.61c-1.51-0.86-2.55-1.37-3.11-1.53c-0.56-0.16-1.25-0.22-2.08-0.18
		c-0.83,0.04-1.93,0.25-3.3,0.64l-1.88-5.73l0.94-0.33c1.89-0.62,3.71-0.83,5.48-0.65c1.77,0.18,3.58,0.83,5.44,1.94
		c1.8,1.06,3,1.67,3.59,1.82c0.59,0.15,1.22,0.11,1.88-0.1c0.9-0.3,1.54-0.92,1.92-1.88s0.36-2.07-0.05-3.34
		c-0.42-1.3-1.16-2.23-2.19-2.81C652.78,316.31,651.65,316.21,650.44,316.59z"/>
	<path class="st3" d="M667.09,367.67l-4.82-3.82c1.93-1.99,2.75-3.81,2.46-5.46c-0.14-0.8-0.48-1.42-1-1.86
		c-0.52-0.43-1.05-0.6-1.59-0.51c-0.54,0.1-1.02,0.37-1.43,0.82c-0.55,0.61-1.66,2.36-3.33,5.23c-1.54,2.69-2.52,4.33-2.94,4.91
		c-1.03,1.47-2.08,2.56-3.13,3.28c-1.05,0.72-2.26,1.21-3.61,1.45c-2.64,0.47-4.99-0.05-7.03-1.57c-2.05-1.52-3.33-3.74-3.86-6.68
		c-0.41-2.29-0.21-4.39,0.61-6.29c0.82-1.9,2.32-3.67,4.51-5.32l4.03,4.59c-2.57,2.06-3.67,4.09-3.31,6.11
		c0.19,1.05,0.65,1.88,1.39,2.49c0.74,0.61,1.51,0.84,2.31,0.69c0.73-0.13,1.41-0.53,2.04-1.2c0.63-0.67,1.54-2.06,2.71-4.17
		c2.23-4.02,4.03-6.68,5.41-7.98c1.37-1.3,2.83-2.09,4.38-2.37c2.23-0.4,4.3,0.11,6.2,1.53s3.08,3.37,3.52,5.87
		c0.29,1.61,0.19,3.2-0.3,4.79C669.83,363.81,668.75,365.62,667.09,367.67z"/>
	<path class="st3" d="M672.57,375.55l1.58,17.78l-6.07,0.54l-1.04-11.62l-5.89,0.52l1.04,11.62l-5.96,0.53l-1.04-11.62l-8.57,0.76
		l1.04,11.62l-6.09,0.54L640,378.45L672.57,375.55z"/>
	<path class="st3" d="M675.19,417.42c-0.11,4.62-1.89,8.56-5.32,11.81c-3.43,3.25-7.55,4.81-12.37,4.69
		c-4.77-0.12-8.77-1.86-11.99-5.22c-3.22-3.37-4.78-7.39-4.66-12.08c0.12-4.91,1.92-8.94,5.39-12.1s7.54-4.69,12.21-4.57
		c3.13,0.08,5.98,0.9,8.57,2.48c2.58,1.58,4.61,3.71,6.08,6.39C674.57,411.5,675.27,414.37,675.19,417.42z M669.1,417.2
		c0.07-3.03-0.92-5.6-2.97-7.71c-2.05-2.11-4.7-3.21-7.95-3.29c-3.62-0.09-6.51,1.14-8.67,3.68c-1.69,1.98-2.57,4.27-2.64,6.88
		c-0.07,2.95,0.93,5.49,3.01,7.62s4.69,3.23,7.81,3.31c3.11,0.08,5.77-0.9,7.98-2.94S669.03,420.2,669.1,417.2z"/>
	<path class="st3" d="M672.83,443.02l-0.93,6.18l-20.91-3.14c-1.8-0.27-3.1-0.3-3.89-0.1s-1.47,0.63-2.02,1.29
		c-0.56,0.66-0.91,1.5-1.06,2.53c-0.16,1.08-0.05,2.06,0.33,2.92c0.38,0.86,0.93,1.5,1.66,1.91s2.17,0.79,4.34,1.11l20.14,3.02
		l-0.93,6.18l-19.28-2.9c-3.25-0.49-5.48-1.01-6.69-1.57s-2.32-1.44-3.33-2.65s-1.71-2.53-2.07-3.96c-0.36-1.43-0.41-3.04-0.14-4.83
		c0.35-2.35,1.2-4.3,2.54-5.88s2.87-2.61,4.6-3.12c1.73-0.5,4.52-0.47,8.38,0.11L672.83,443.02z"/>
	<path class="st3" d="M667.48,474.21l-1.49,6.04l-25.99-6.39l-2.16,8.81l-5.76-1.42l3.65-14.85L667.48,474.21z"/>
	<path class="st3" d="M652.36,524.11c-1.79,4.27-4.88,7.29-9.25,9.06c-4.38,1.77-8.79,1.73-13.23-0.14
		c-4.4-1.85-7.49-4.93-9.26-9.24c-1.78-4.31-1.75-8.62,0.06-12.94c1.9-4.53,5.04-7.63,9.43-9.31c4.39-1.68,8.73-1.62,13.04,0.19
		c2.88,1.21,5.24,3.02,7.07,5.43c1.83,2.41,2.94,5.13,3.33,8.17S653.54,521.29,652.36,524.11z M646.77,521.69
		c1.17-2.79,1.19-5.54,0.05-8.26c-1.14-2.72-3.21-4.7-6.2-5.96c-3.33-1.4-6.47-1.31-9.42,0.27c-2.3,1.22-3.95,3.04-4.96,5.44
		c-1.14,2.72-1.13,5.45,0.03,8.2c1.16,2.74,3.19,4.72,6.07,5.93c2.87,1.21,5.7,1.26,8.5,0.17
		C643.63,526.38,645.61,524.45,646.77,521.69z"/>
	<path class="st3" d="M640.66,547.47l-3.72,6.37c-2.4,4.1-4.69,6.86-6.87,8.26c-2.18,1.4-4.8,2.08-7.84,2.03
		c-3.04-0.05-6.1-0.96-9.16-2.75c-2.18-1.27-3.96-2.8-5.37-4.59c-1.4-1.79-2.33-3.67-2.79-5.64s-0.49-3.84-0.08-5.59
		c0.41-1.75,1.68-4.46,3.81-8.11l3.77-6.46L640.66,547.47z M632.36,549.78l-17.81-10.4l-1.46,2.5c-1.43,2.46-2.19,4.4-2.28,5.84
		c-0.08,1.44,0.34,2.9,1.26,4.38c0.92,1.48,2.36,2.79,4.3,3.93c3,1.75,5.81,2.27,8.44,1.56c2.37-0.64,4.53-2.63,6.48-5.97
		L632.36,549.78z"/>
	<path class="st3" d="M622.67,576.83l-10.54,14.41l-4.92-3.6l6.89-9.42l-4.77-3.49l-6.89,9.42l-4.83-3.53l6.89-9.42l-6.94-5.08
		l-6.89,9.42l-4.93-3.61l10.54-14.41L622.67,576.83z"/>
	<path class="st3" d="M582.11,586.93c-0.71,0.81-1.6,1.26-2.66,1.34c-1.06,0.08-1.99-0.22-2.77-0.92s-1.21-1.57-1.28-2.64
		c-0.06-1.06,0.26-1.99,0.97-2.79c0.71-0.8,1.59-1.23,2.64-1.3c1.06-0.07,1.98,0.25,2.77,0.94c0.79,0.7,1.22,1.57,1.28,2.61
		C583.12,585.22,582.81,586.14,582.11,586.93z M597.88,595.17l3.85-4.37c2.16,1.87,3.28,4.16,3.37,6.88
		c0.08,2.72-0.95,5.3-3.09,7.73c-1.38,1.57-2.85,2.65-4.4,3.24c-1.55,0.59-3.16,0.74-4.83,0.44c-1.67-0.3-3.11-0.98-4.31-2.04
		c-0.66-0.58-1.21-1.25-1.65-2.02c-0.45-0.77-0.8-1.68-1.07-2.72c-0.15-0.61-0.25-1.83-0.28-3.65c-0.03-1.74-0.11-2.89-0.26-3.46
		c-0.15-0.56-0.45-1.19-0.9-1.89s-1.19-1.54-2.22-2.52l3.98-4.52l0.77,0.65c1.49,1.31,2.6,2.78,3.34,4.4s1.1,3.51,1.09,5.67
		c0,2.09,0.08,3.43,0.25,4.02c0.17,0.59,0.52,1.11,1.04,1.57c0.71,0.63,1.58,0.86,2.6,0.7c1.02-0.16,1.97-0.74,2.85-1.74
		c0.9-1.02,1.34-2.13,1.32-3.32S598.82,596.02,597.88,595.17z"/>
	<path class="st3" d="M562.33,635.43l0.84-6.09c2.7,0.65,4.68,0.43,5.95-0.66c0.62-0.53,0.98-1.13,1.09-1.8
		c0.11-0.67-0.02-1.21-0.37-1.63c-0.36-0.42-0.84-0.69-1.44-0.82c-0.81-0.17-2.88-0.24-6.2-0.21c-3.1,0.04-5,0.03-5.72-0.03
		c-1.79-0.14-3.26-0.49-4.42-1.02c-1.16-0.54-2.19-1.33-3.08-2.38c-1.75-2.03-2.49-4.32-2.22-6.85c0.27-2.54,1.53-4.77,3.79-6.72
		c1.77-1.52,3.68-2.41,5.73-2.67s4.35,0.13,6.87,1.18l-1.91,5.8c-3.08-1.17-5.39-1.08-6.95,0.25c-0.81,0.7-1.29,1.52-1.43,2.46
		c-0.15,0.95,0.05,1.73,0.58,2.35c0.48,0.56,1.17,0.94,2.07,1.15s2.56,0.27,4.97,0.21c4.6-0.12,7.8,0.08,9.62,0.6
		c1.82,0.52,3.24,1.37,4.26,2.57c1.48,1.72,2.09,3.76,1.84,6.12c-0.25,2.36-1.34,4.36-3.26,6.02c-1.24,1.06-2.66,1.79-4.27,2.18
		C567.05,635.82,564.94,635.82,562.33,635.43z"/>
	<path class="st3" d="M558.35,644.16l-14.5,10.41l-3.55-4.95l9.48-6.81l-3.45-4.8l-9.48,6.81l-3.49-4.86l9.48-6.8l-5.02-6.99
		l-9.48,6.81l-3.56-4.97l14.5-10.41L558.35,644.16z"/>
	<path class="st3" d="M523.59,667.72c-4.04,2.25-8.33,2.72-12.87,1.41c-4.54-1.31-7.98-4.07-10.32-8.28
		c-2.32-4.17-2.85-8.5-1.58-12.98c1.26-4.48,3.94-7.87,8.04-10.14c4.29-2.39,8.68-2.88,13.17-1.5c4.49,1.39,7.87,4.12,10.13,8.2
		c1.52,2.73,2.26,5.61,2.21,8.64s-0.85,5.86-2.42,8.48S526.26,666.23,523.59,667.72z M520.69,662.36c2.64-1.47,4.36-3.63,5.14-6.47
		c0.78-2.84,0.38-5.68-1.2-8.52c-1.76-3.16-4.28-5.03-7.57-5.61c-2.56-0.46-4.99-0.05-7.27,1.22c-2.58,1.44-4.26,3.59-5.04,6.46
		c-0.78,2.87-0.41,5.68,1.11,8.41c1.51,2.72,3.71,4.51,6.58,5.38C515.32,664.11,518.07,663.82,520.69,662.36z"/>
	<path class="st3" d="M500.27,678.69l-5.8,2.33l-7.88-19.62c-0.68-1.69-1.31-2.83-1.88-3.41c-0.58-0.58-1.29-0.95-2.14-1.09
		c-0.85-0.15-1.75-0.03-2.72,0.36c-1.02,0.41-1.8,0.99-2.35,1.76c-0.55,0.76-0.82,1.56-0.81,2.4c0.01,0.83,0.42,2.27,1.24,4.3
		l7.59,18.9l-5.8,2.33l-7.26-18.09c-1.23-3.05-1.9-5.24-2.04-6.56c-0.13-1.32,0.07-2.73,0.6-4.22c0.53-1.49,1.32-2.75,2.37-3.79
		s2.42-1.89,4.1-2.57c2.2-0.88,4.32-1.15,6.35-0.79c2.04,0.36,3.71,1.15,5.02,2.39s2.69,3.67,4.14,7.28L500.27,678.69z"/>
	<path class="st3" d="M470.68,689.86l-5.97,1.78l-7.65-25.65l-8.69,2.59l-1.7-5.69l14.66-4.37L470.68,689.86z"/>
	<path class="st3" d="M420,702.07c-4.58,0.62-8.75-0.52-12.5-3.39c-3.75-2.88-5.94-6.7-6.58-11.48c-0.63-4.73,0.46-8.95,3.27-12.66
		s6.55-5.88,11.19-6.5c4.87-0.65,9.13,0.49,12.8,3.42c3.67,2.93,5.81,6.71,6.43,11.34c0.42,3.1,0.05,6.05-1.1,8.85
		c-1.15,2.8-2.94,5.14-5.36,7.01S423.03,701.66,420,702.07z M419.26,696.02c3-0.4,5.38-1.78,7.15-4.14c1.76-2.36,2.43-5.15,2-8.36
		c-0.48-3.58-2.15-6.25-5-7.99c-2.22-1.36-4.62-1.87-7.21-1.52c-2.93,0.39-5.28,1.78-7.05,4.17c-1.78,2.39-2.46,5.14-2.04,8.24
		c0.41,3.08,1.8,5.56,4.16,7.42S416.29,696.42,419.26,696.02z"/>
	<path class="st3" d="M394.45,703.66l-7.37,0.12c-4.75,0.08-8.29-0.46-10.62-1.6c-2.33-1.14-4.26-3.03-5.8-5.65
		c-1.54-2.63-2.34-5.71-2.39-9.25c-0.04-2.52,0.34-4.84,1.14-6.97c0.8-2.12,1.93-3.9,3.38-5.31c1.45-1.42,3.03-2.41,4.74-2.97
		s4.68-0.88,8.92-0.94l7.48-0.12L394.45,703.66z M388.17,697.76l-0.33-20.63l-2.89,0.05c-2.85,0.05-4.9,0.41-6.18,1.08
		c-1.27,0.67-2.3,1.79-3.09,3.34c-0.79,1.56-1.17,3.46-1.13,5.72c0.06,3.47,1.07,6.15,3.04,8.03c1.78,1.69,4.6,2.51,8.47,2.44
		L388.17,697.76z"/>
	<path class="st3" d="M359.54,703.23l-17.77-1.75l0.6-6.06l11.61,1.14l0.58-5.88l-11.61-1.14l0.59-5.95l11.61,1.14l0.84-8.56
		l-11.61-1.14l0.6-6.08l17.77,1.75L359.54,703.23z"/>
	<path class="st3" d="M331.13,691.21l5.72,1.1c-0.51,2.81-1.91,4.94-4.21,6.4c-2.3,1.46-5.05,1.88-8.23,1.27
		c-2.05-0.39-3.73-1.11-5.02-2.14c-1.3-1.03-2.24-2.35-2.83-3.94c-0.59-1.59-0.74-3.17-0.44-4.75c0.17-0.86,0.47-1.68,0.9-2.45
		c0.44-0.78,1.04-1.54,1.8-2.3c0.45-0.44,1.45-1.14,3-2.09c1.49-0.91,2.44-1.57,2.85-1.98c0.41-0.41,0.8-0.99,1.17-1.73
		s0.72-1.81,1.04-3.2l5.92,1.13l-0.17,0.99c-0.37,1.95-1.07,3.65-2.09,5.11c-1.02,1.46-2.46,2.73-4.33,3.82
		c-1.8,1.06-2.91,1.81-3.33,2.26c-0.42,0.45-0.69,1.01-0.82,1.7c-0.18,0.93,0.06,1.79,0.71,2.59c0.65,0.8,1.64,1.32,2.95,1.57
		c1.34,0.26,2.51,0.07,3.52-0.55C330.25,693.38,330.88,692.45,331.13,691.21z M330.21,673.44c-1.06-0.2-1.9-0.74-2.51-1.61
		c-0.61-0.87-0.82-1.82-0.62-2.86s0.74-1.85,1.62-2.44c0.88-0.59,1.85-0.79,2.9-0.59s1.87,0.74,2.46,1.62
		c0.59,0.88,0.79,1.83,0.59,2.86s-0.73,1.84-1.6,2.43C332.2,673.45,331.25,673.64,330.21,673.44z"/>
	<path class="st3" d="M278.39,681.01l5.68-2.36c0.8,2.66,2,4.25,3.59,4.8c0.77,0.26,1.48,0.27,2.11,0.03
		c0.63-0.25,1.04-0.63,1.22-1.15c0.18-0.52,0.17-1.07-0.02-1.65c-0.27-0.78-1.25-2.6-2.96-5.45c-1.61-2.65-2.56-4.3-2.87-4.95
		c-0.78-1.61-1.23-3.06-1.36-4.33c-0.12-1.27,0.04-2.56,0.48-3.86c0.87-2.54,2.46-4.34,4.78-5.39c2.32-1.06,4.89-1.1,7.71-0.14
		c2.2,0.75,3.94,1.95,5.21,3.59c1.27,1.64,2.09,3.81,2.46,6.53l-5.97,1.3c-0.55-3.24-1.8-5.2-3.74-5.86
		c-1.01-0.35-1.96-0.34-2.85,0.01c-0.89,0.35-1.47,0.92-1.73,1.69c-0.24,0.7-0.22,1.49,0.06,2.37s1.06,2.34,2.33,4.39
		c2.43,3.9,3.89,6.77,4.36,8.6c0.47,1.83,0.46,3.49-0.05,4.97c-0.73,2.15-2.18,3.71-4.34,4.68c-2.16,0.98-4.44,1.06-6.84,0.24
		c-1.54-0.53-2.89-1.39-4.05-2.58C280.44,685.28,279.37,683.46,278.39,681.01z"/>
	<path class="st3" d="M268.82,681.98l-16.31-7.24l2.47-5.57l10.67,4.74l2.4-5.4l-10.67-4.74l2.43-5.47l10.67,4.74l3.49-7.86
		l-10.67-4.74l2.48-5.59l16.31,7.24L268.82,681.98z"/>
	<path class="st3" d="M230.91,663.9c-3.98-2.35-6.56-5.82-7.72-10.39c-1.16-4.58-0.52-8.94,1.93-13.09
		c2.43-4.11,5.89-6.75,10.4-7.93c4.51-1.18,8.78-0.57,12.82,1.81c4.23,2.5,6.88,6.03,7.95,10.6c1.07,4.57,0.42,8.87-1.95,12.89
		c-1.59,2.69-3.7,4.78-6.34,6.27s-5.48,2.22-8.54,2.2C236.38,666.24,233.54,665.45,230.91,663.9z M234.06,658.69
		c2.61,1.54,5.33,1.93,8.18,1.16c2.85-0.76,5.09-2.54,6.74-5.34c1.84-3.11,2.17-6.24,1.01-9.37c-0.9-2.44-2.48-4.33-4.72-5.65
		c-2.54-1.5-5.25-1.86-8.12-1.08s-5.1,2.52-6.69,5.21c-1.58,2.68-2.02,5.48-1.32,8.4C229.84,654.94,231.48,657.17,234.06,658.69z"/>
	<path class="st3" d="M209.7,649.36l-4.94-3.82l12.94-16.73c1.11-1.44,1.78-2.56,1.99-3.35c0.21-0.79,0.16-1.59-0.14-2.4
		c-0.3-0.81-0.87-1.53-1.69-2.16c-0.87-0.67-1.77-1.05-2.7-1.14c-0.94-0.09-1.76,0.08-2.48,0.51c-0.72,0.43-1.74,1.51-3.08,3.25
		l-12.46,16.11l-4.94-3.82l11.93-15.42c2.01-2.6,3.56-4.29,4.63-5.08c1.07-0.78,2.38-1.32,3.94-1.62c1.55-0.3,3.04-0.26,4.47,0.13
		c1.43,0.38,2.86,1.13,4.29,2.23c1.88,1.45,3.18,3.14,3.9,5.08c0.72,1.94,0.88,3.78,0.48,5.54c-0.4,1.76-1.8,4.18-4.18,7.26
		L209.7,649.36z"/>
	<path class="st3" d="M185.08,629.5l-4.56-4.24l18.23-19.6l-6.64-6.18l4.04-4.35l11.2,10.42L185.08,629.5z"/>
	<path class="st3" d="M148.85,592.08c-2.86-3.64-4.01-7.8-3.43-12.49s2.75-8.52,6.54-11.5c3.75-2.95,7.94-4.16,12.57-3.62
		c4.63,0.54,8.39,2.65,11.29,6.33c3.04,3.86,4.23,8.11,3.57,12.76c-0.66,4.65-2.82,8.42-6.49,11.31c-2.46,1.93-5.18,3.12-8.18,3.55
		c-3,0.43-5.92,0.08-8.76-1.05C153.1,596.24,150.74,594.48,148.85,592.08z M153.68,588.36c1.87,2.38,4.27,3.73,7.2,4.05
		c2.93,0.32,5.67-0.53,8.22-2.53c2.84-2.24,4.29-5.03,4.33-8.37c0.04-2.6-0.74-4.93-2.35-6.98c-1.83-2.32-4.22-3.64-7.18-3.95
		c-2.96-0.31-5.67,0.5-8.13,2.43c-2.45,1.92-3.87,4.38-4.27,7.35C151.1,583.34,151.82,586.01,153.68,588.36z"/>
	<path class="st3" d="M134.09,570.54l-3.77-6.34c-2.43-4.08-3.73-7.42-3.9-10.01c-0.17-2.59,0.5-5.2,2.02-7.84
		c1.51-2.64,3.79-4.87,6.84-6.68c2.17-1.29,4.37-2.11,6.61-2.47s4.34-0.26,6.29,0.29s3.59,1.43,4.93,2.64
		c1.34,1.2,3.09,3.62,5.25,7.26l3.83,6.43L134.09,570.54z M136.09,562.16l17.73-10.55l-1.48-2.48c-1.46-2.45-2.79-4.05-4.01-4.82
		c-1.22-0.77-2.7-1.11-4.44-1.02c-1.74,0.09-3.58,0.71-5.52,1.86c-2.98,1.77-4.8,3.99-5.45,6.63c-0.58,2.38,0.11,5.24,2.09,8.56
		L136.09,562.16z"/>
	<path class="st3" d="M117.11,540.56l-7.49-16.2l5.53-2.56l4.9,10.59l5.37-2.48l-4.9-10.59l5.43-2.51l4.9,10.59l7.81-3.61
		l-4.9-10.59l5.55-2.57l7.49,16.2L117.11,540.56z"/>
	<path class="st3" d="M113.09,509.97l1.95,5.49c-2.68,0.98-5.23,0.85-7.65-0.4c-2.42-1.25-4.17-3.4-5.26-6.46
		c-0.7-1.97-0.93-3.77-0.7-5.41c0.24-1.64,0.89-3.12,1.96-4.44c1.07-1.32,2.36-2.24,3.87-2.78c0.82-0.29,1.68-0.45,2.57-0.46
		s1.86,0.11,2.9,0.39c0.61,0.16,1.72,0.67,3.33,1.53c1.54,0.82,2.58,1.31,3.15,1.45c0.56,0.15,1.26,0.19,2.09,0.13
		s1.92-0.3,3.28-0.72l2.02,5.68l-0.94,0.36c-1.87,0.67-3.69,0.93-5.47,0.79c-1.77-0.14-3.6-0.74-5.49-1.8
		c-1.82-1.02-3.04-1.59-3.63-1.73c-0.6-0.13-1.22-0.08-1.88,0.15c-0.89,0.32-1.52,0.96-1.88,1.93c-0.36,0.97-0.31,2.08,0.14,3.34
		c0.46,1.29,1.21,2.21,2.26,2.76C110.76,510.3,111.89,510.38,113.09,509.97z M127.94,500.18c-0.36-1.02-0.32-2.01,0.12-2.98
		s1.16-1.63,2.15-1.98c0.99-0.35,1.97-0.3,2.92,0.17s1.62,1.2,1.97,2.2c0.36,1.01,0.31,1.99-0.15,2.94
		c-0.45,0.96-1.18,1.61-2.17,1.96c-0.99,0.35-1.96,0.3-2.91-0.15S128.29,501.18,127.94,500.18z"/>
	<path class="st3" d="M95.19,459.3l4.91,3.7c-1.88,2.04-2.66,3.88-2.32,5.52c0.16,0.8,0.51,1.41,1.04,1.83
		c0.53,0.42,1.07,0.58,1.6,0.47s1.01-0.4,1.41-0.86c0.54-0.62,1.61-2.4,3.2-5.31c1.47-2.72,2.41-4.39,2.82-4.98
		c1-1.49,2.01-2.61,3.05-3.36c1.03-0.75,2.23-1.26,3.58-1.54c2.63-0.54,4.98-0.07,7.07,1.4s3.42,3.66,4.02,6.58
		c0.47,2.28,0.31,4.38-0.46,6.31c-0.77,1.92-2.23,3.73-4.38,5.43l-4.14-4.49c2.52-2.12,3.57-4.18,3.16-6.19
		c-0.21-1.05-0.7-1.86-1.45-2.45c-0.76-0.59-1.53-0.8-2.33-0.64c-0.73,0.15-1.4,0.57-2.01,1.25s-1.48,2.1-2.61,4.24
		c-2.13,4.07-3.87,6.78-5.21,8.11s-2.78,2.16-4.32,2.47c-2.22,0.45-4.3,0-6.24-1.37c-1.94-1.37-3.16-3.3-3.67-5.78
		c-0.33-1.6-0.27-3.2,0.18-4.79C92.54,463.23,93.57,461.38,95.19,459.3z"/>
	<path class="st3" d="M89.5,451.54l-2.02-17.74l6.05-0.69l1.32,11.6l5.88-0.67l-1.32-11.6l5.94-0.68l1.32,11.6l8.55-0.97l-1.32-11.6
		l6.07-0.69l2.02,17.74L89.5,451.54z"/>
	<path class="st3" d="M85.88,409.36c0.08-4.63,1.81-8.58,5.22-11.85c3.4-3.27,7.51-4.87,12.33-4.79c4.77,0.08,8.78,1.79,12.03,5.12
		c3.25,3.34,4.84,7.35,4.76,12.04c-0.08,4.91-1.84,8.96-5.29,12.15s-7.5,4.75-12.17,4.67c-3.13-0.05-5.99-0.85-8.59-2.41
		c-2.6-1.56-4.64-3.67-6.13-6.34C86.55,415.27,85.83,412.41,85.88,409.36z M91.97,409.52c-0.05,3.03,0.96,5.59,3.03,7.68
		s4.73,3.17,7.97,3.22c3.62,0.06,6.5-1.19,8.64-3.75c1.68-1.99,2.54-4.29,2.58-6.9c0.05-2.95-0.98-5.48-3.08-7.59
		c-2.1-2.11-4.71-3.19-7.84-3.24c-3.11-0.05-5.76,0.95-7.95,3.01C93.14,404,92.02,406.53,91.97,409.52z"/>
	<path class="st3" d="M87.61,384.08l0.78-6.2l20.98,2.63c1.81,0.23,3.11,0.23,3.89,0.01c0.79-0.22,1.45-0.67,1.99-1.34
		c0.54-0.67,0.87-1.52,1-2.55c0.14-1.09,0-2.06-0.4-2.91c-0.4-0.85-0.97-1.47-1.7-1.87c-0.73-0.4-2.19-0.73-4.36-1.01l-20.21-2.53
		l0.78-6.2l19.34,2.42c3.26,0.41,5.51,0.88,6.72,1.4c1.22,0.53,2.35,1.38,3.4,2.56c1.05,1.18,1.77,2.49,2.16,3.91
		s0.48,3.03,0.26,4.83c-0.29,2.35-1.09,4.33-2.39,5.94s-2.81,2.68-4.53,3.23c-1.72,0.55-4.51,0.58-8.38,0.09L87.61,384.08z"/>
	<path class="st3" d="M92.2,352.78l1.34-6.08l26.14,5.74l1.95-8.86l5.8,1.27l-3.28,14.94L92.2,352.78z"/>
	<path class="st3" d="M106.08,302.54c1.69-4.31,4.7-7.4,9.03-9.28s8.74-1.94,13.23-0.19c4.44,1.74,7.61,4.74,9.49,9
		c1.88,4.26,1.97,8.58,0.26,12.94c-1.79,4.57-4.86,7.75-9.2,9.54c-4.34,1.79-8.69,1.83-13.04,0.13c-2.91-1.14-5.31-2.89-7.21-5.26
		c-1.89-2.36-3.07-5.06-3.53-8.08C104.64,308.32,104.97,305.39,106.08,302.54z M111.73,304.83c-1.1,2.82-1.05,5.57,0.16,8.26
		c1.21,2.69,3.32,4.62,6.35,5.81c3.37,1.32,6.5,1.15,9.41-0.5c2.27-1.28,3.88-3.13,4.83-5.57c1.08-2.75,1-5.48-0.23-8.19
		c-1.23-2.71-3.3-4.64-6.21-5.78c-2.9-1.13-5.73-1.12-8.5,0.04C114.75,300.06,112.82,302.04,111.73,304.83z"/>
	<path class="st3" d="M117.21,278.89l3.56-6.46c2.3-4.16,4.52-6.97,6.66-8.42c2.15-1.45,4.74-2.19,7.79-2.22s6.12,0.81,9.22,2.52
		c2.21,1.22,4.03,2.7,5.48,4.45c1.44,1.75,2.42,3.61,2.93,5.57c0.51,1.96,0.58,3.83,0.22,5.59s-1.57,4.5-3.61,8.2l-3.62,6.55
		L117.21,278.89z M125.45,276.38l18.06,9.96l1.4-2.53c1.37-2.49,2.09-4.46,2.13-5.89c0.05-1.44-0.41-2.89-1.36-4.35
		c-0.96-1.46-2.42-2.73-4.4-3.82c-3.04-1.68-5.87-2.13-8.48-1.35c-2.35,0.7-4.46,2.74-6.33,6.13L125.45,276.38z"/>
	<path class="st3" d="M134.48,249.09l10.19-14.66l5,3.48l-6.66,9.58l4.86,3.37l6.66-9.58l4.91,3.41l-6.66,9.58l7.06,4.91l6.66-9.58
		l5.02,3.49l-10.19,14.66L134.48,249.09z"/>
	<path class="st3" d="M158.83,230.14l-3.74,4.46c-2.21-1.81-3.38-4.08-3.53-6.8c-0.15-2.72,0.82-5.32,2.9-7.81
		c1.34-1.6,2.78-2.71,4.32-3.34s3.14-0.81,4.82-0.55c1.68,0.26,3.13,0.9,4.36,1.93c0.67,0.56,1.24,1.22,1.7,1.98
		c0.47,0.76,0.84,1.66,1.13,2.69c0.17,0.61,0.29,1.82,0.37,3.64c0.07,1.74,0.18,2.89,0.34,3.45c0.16,0.56,0.47,1.18,0.94,1.87
		c0.47,0.69,1.23,1.51,2.28,2.47l-3.87,4.61l-0.78-0.63c-1.52-1.28-2.67-2.71-3.45-4.31c-0.78-1.6-1.19-3.48-1.23-5.64
		c-0.05-2.09-0.16-3.43-0.35-4.01c-0.19-0.58-0.55-1.1-1.08-1.55c-0.73-0.61-1.6-0.82-2.61-0.64c-1.01,0.18-1.95,0.79-2.81,1.81
		c-0.88,1.04-1.29,2.16-1.23,3.35C157.36,228.31,157.87,229.32,158.83,230.14z M174.79,238c0.7-0.83,1.57-1.3,2.63-1.41
		c1.06-0.11,1.99,0.18,2.8,0.85c0.81,0.68,1.25,1.54,1.34,2.6s-0.21,2-0.9,2.82c-0.69,0.82-1.56,1.27-2.61,1.36
		c-1.05,0.09-1.98-0.2-2.79-0.88c-0.81-0.68-1.25-1.54-1.35-2.58C173.82,239.73,174.11,238.8,174.79,238z"/>
	<path class="st3" d="M193.37,189.05l-0.69,6.11c-2.71-0.59-4.69-0.32-5.93,0.81c-0.61,0.55-0.96,1.16-1.05,1.83
		c-0.09,0.67,0.04,1.21,0.41,1.62c0.37,0.41,0.85,0.67,1.46,0.78c0.81,0.15,2.88,0.17,6.2,0.06c3.09-0.12,5-0.15,5.72-0.11
		c1.79,0.1,3.27,0.41,4.44,0.92c1.17,0.51,2.22,1.28,3.14,2.3c1.8,1.99,2.59,4.26,2.39,6.8c-0.2,2.54-1.41,4.81-3.63,6.81
		c-1.73,1.56-3.62,2.5-5.66,2.81s-4.35-0.03-6.9-1.02l1.77-5.85c3.1,1.09,5.42,0.95,6.94-0.42c0.79-0.72,1.25-1.55,1.37-2.5
		c0.12-0.95-0.09-1.73-0.64-2.33c-0.5-0.55-1.2-0.92-2.1-1.1c-0.9-0.18-2.56-0.21-4.97-0.09c-4.59,0.23-7.8,0.11-9.63-0.36
		c-1.83-0.47-3.27-1.29-4.32-2.46c-1.52-1.68-2.18-3.71-1.99-6.07c0.2-2.36,1.23-4.39,3.12-6.1c1.21-1.09,2.62-1.86,4.22-2.28
		C188.64,188.77,190.75,188.72,193.37,189.05z"/>
	<path class="st3" d="M197.13,180.23l14.24-10.76l3.67,4.86l-9.31,7.03l3.56,4.72l9.31-7.04l3.6,4.77l-9.31,7.04l5.19,6.86
		l9.31-7.04l3.69,4.88l-14.24,10.76L197.13,180.23z"/>
	<path class="st3" d="M231.32,155.82c3.99-2.35,8.27-2.92,12.83-1.72c4.57,1.2,8.07,3.87,10.52,8.02c2.42,4.11,3.05,8.43,1.9,12.94
		c-1.15,4.51-3.75,7.96-7.79,10.34c-4.23,2.49-8.6,3.1-13.13,1.82c-4.52-1.28-7.96-3.93-10.33-7.95c-1.59-2.69-2.39-5.56-2.42-8.58
		c-0.03-3.03,0.71-5.87,2.21-8.54S228.68,157.37,231.32,155.82z M234.35,161.11c-2.61,1.54-4.27,3.73-4.98,6.59
		c-0.71,2.86-0.24,5.69,1.41,8.48c1.83,3.12,4.4,4.92,7.71,5.42c2.57,0.39,4.98-0.07,7.23-1.4c2.54-1.5,4.17-3.69,4.88-6.59
		c0.71-2.89,0.27-5.69-1.32-8.38c-1.58-2.68-3.82-4.42-6.71-5.22C239.67,159.23,236.93,159.59,234.35,161.11z"/>
	<path class="st3" d="M254.34,144.29l5.74-2.47l8.36,19.42c0.72,1.67,1.38,2.79,1.97,3.36c0.59,0.57,1.31,0.91,2.17,1.04
		c0.85,0.12,1.75-0.02,2.71-0.43c1.01-0.43,1.78-1.04,2.3-1.81c0.53-0.78,0.78-1.58,0.75-2.42c-0.03-0.83-0.48-2.26-1.34-4.27
		l-8.05-18.71l5.74-2.47l7.71,17.91c1.3,3.02,2.03,5.19,2.2,6.51c0.16,1.32,0,2.73-0.49,4.23c-0.49,1.5-1.25,2.78-2.28,3.85
		c-1.03,1.06-2.37,1.95-4.03,2.67c-2.18,0.94-4.29,1.25-6.33,0.95c-2.04-0.31-3.74-1.06-5.08-2.27c-1.34-1.21-2.78-3.6-4.32-7.18
		L254.34,144.29z"/>
	<path class="st3" d="M283.67,132.39l5.92-1.92l8.27,25.45l8.63-2.8l1.83,5.64l-14.54,4.73L283.67,132.39z"/>
</g>
<path class="st4" d="M213.93,359.37c15.05,8.85,37.33-1.11,37.33-1.11s-2.12-24.32-17.17-33.17c-15.05-8.85-37.33,1.11-37.33,1.11
	S198.88,350.51,213.93,359.37z"/>
<path class="st4" d="M248.45,314.13c-6.14,12.42,2.06,28.99,2.06,28.99s18.15-3.56,24.28-15.97c6.14-12.42-2.06-28.99-2.06-28.99
	S254.59,301.71,248.45,314.13z"/>
</svg>
