<?xml version="1.0" encoding="utf-8"?>
<!-- Generator: Adobe Illustrator 27.4.0, SVG Export Plug-In . SVG Version: 6.00 Build 0)  -->
<svg version="1.1" id="레이어_1" xmlns="http://www.w3.org/2000/svg" xmlns:xlink="http://www.w3.org/1999/xlink" x="0px"
	 y="0px" viewBox="0 0 762.52 822.05" style="enable-background:new 0 0 762.52 822.05;" xml:space="preserve">
<style type="text/css">
	.st0{fill:none;stroke:#463C33;stroke-width:4;stroke-linecap:round;stroke-linejoin:round;stroke-miterlimit:10;}
	.st1{fill:none;stroke:#463C33;stroke-width:4;stroke-miterlimit:10;}
	.st2{fill:none;stroke:#463C33;stroke-width:3.7343;stroke-miterlimit:10;}
	.st3{fill:none;stroke:#463C33;stroke-width:2.9231;stroke-miterlimit:10;}
	.st4{fill:none;stroke:#463C33;stroke-width:2.6294;stroke-miterlimit:10;}
	.st5{fill:none;stroke:#463C33;stroke-width:2.7692;stroke-linecap:round;stroke-linejoin:round;stroke-dasharray:2.9926,5.9853;}
	.st6{fill:none;}
	.st7{fill:none;stroke:#463C33;stroke-width:3;stroke-linecap:round;stroke-linejoin:round;stroke-miterlimit:10;}
	.st8{fill:#ABB868;}
</style>
<g>
	<g>
		<path class="st0" d="M282.17,430.21c-7.06-45.84-28.56-43.31-28.56-43.31c-50.32-0.53-59.13,92.22-62.66,103.68h45.79"/>
		<path class="st0" d="M267.57,468.44c0,0,54-141.61,76.95-160.01c0,0,51.2-69.98,100.63,61.82l40.42,117.98"/>
		<path class="st0" d="M578.86,490.15c-0.94-0.48-59.57-85.52-59.57-85.52s-21.18-34.38-45.9,5.73l-8.83,14.33"/>
		<path class="st0" d="M306.09,376.43c4.9,5.28,8.43,28.21,4.9,39.67c0,0-4.48,38.69,23.85-19.83c0,0,18.52-54.66,32.64-26.01
			c0,0,17.65,34.38,24.71,0c0,0,9.21-54.72,24.71-17.19c0,0,14.12,57.3,24.71,57.3c10.59,0,12.05-16.24,12.05-16.24"/>
		<path class="st0" d="M203.16,438.75c0,0,13.31,48.81,26.62,11.73c0,0,11.02-33.92,31.78-34.38c0,0,14.53,0.86,15.74,25.04"/>
		<path class="st1" d="M471.76,444.85c0,0,17.97,20.57,23.93-9.82c0,0,4.1-26.66,19.15-5.6c15.05,21.06,17.77-6.09,17.77-6.09"/>
		<path class="st0" d="M254.49,519.24h60.02c0,0,31.78,0,14.12-45.84c0,0-11.16-26.03-29.44-2.23c0,0-13.98-18.18-31.63,8.19
			c0,0-17.68-33.22-29.5,9.06C238.07,488.43,229.78,519.24,254.49,519.24z"/>
		<path class="st0" d="M512.23,375.98c6.72,0,13.45,0,20.17,0c10.1,0,20.36,0.94,30.43-0.55c2.66-0.39,5.4-1.04,7.66-3.33
			c1.2-1.21,2.28-2.98,2.57-5.22c0.33-2.56-0.41-5.16-1.26-7.38c-2.04-5.34-4.83-9.93-8.09-13.32c-2.59-2.7-6-4.63-8.69-2.16
			c-2.73,2.51-3.42,8.28-5.22,12.46c-0.99,2.3-2.65,4.29-4.33,3.65c-1.42-0.54-2.34-2.73-3.07-4.78
			c-3.22-8.99-5.77-18.89-10.37-26.13c-1.55-2.44-3.4-4.59-5.52-5.21c-3.35-0.97-6.67,2.02-9.2,5.71c-3.3,4.8-5.83,10.98-7.29,17.77
			c-0.7,3.24-1.48,7.15-3.52,8.01c-2.46,1.03-4.52-3.25-7-4.17c-1.93-0.72-3.92,0.68-5.61,2.38c-2.01,2.03-4.04,5.34-3.61,9.12
			c0.21,1.8,0.95,3.31,1.75,4.59C497.31,375.93,505.27,375.98,512.23,375.98"/>
	</g>
	<circle class="st2" cx="381.26" cy="411.02" r="319.84"/>
	<circle class="st3" cx="381.26" cy="411.02" r="250.36"/>
	<circle class="st4" cx="381.26" cy="411.02" r="225.21"/>
	<g>
		<circle class="st5" cx="381.26" cy="411.02" r="237.18"/>
	</g>
	<path id="SVGID_x5F_1_x5F_" class="st6" d="M642.56,411.56c0,144.22-116.92,261.14-261.14,261.14S120.28,555.78,120.28,411.56
		S237.2,150.42,381.42,150.42S642.56,267.33,642.56,411.56z"/>
	<text>	<textPath  xlink:href="#SVGID_x5F_1_x5F_" startOffset="96.289%">
<tspan  style="fill:#463C33; font-family:'CenturyGothic-Bold'; font-size:45.5202px;">ODE? SEOUL ODE? SEOUL ODE? SEOUL ODE? SEOUL ODE? SEOUL ODE? SEOUL</tspan>	</textPath>
</text>
	<line class="st7" x1="333.98" y1="490.59" x2="579.01" y2="490.59"/>
	<path class="st8" d="M253.76,372.64c15.05,8.85,37.33-1.11,37.33-1.11s-2.12-24.31-17.16-33.16s-37.33,1.11-37.33,1.11
		S238.71,363.79,253.76,372.64z"/>
	<path class="st8" d="M288.28,327.41c-6.14,12.42,2.06,28.99,2.06,28.99s18.14-3.56,24.28-15.97c6.14-12.42-2.06-28.99-2.06-28.99
		S294.42,314.99,288.28,327.41z"/>
</g>
</svg>
