<?xml version="1.0" encoding="utf-8"?>
<!-- Generator: Adobe Illustrator 27.4.0, SVG Export Plug-In . SVG Version: 6.00 Build 0)  -->
<svg version="1.1" id="레이어_1" xmlns="http://www.w3.org/2000/svg" xmlns:xlink="http://www.w3.org/1999/xlink" x="0px"
	 y="0px" viewBox="0 0 762.52 822.05" style="enable-background:new 0 0 762.52 822.05;" xml:space="preserve">
<style type="text/css">
	.st0{fill:none;stroke:#463C33;stroke-width:4;stroke-linecap:round;stroke-linejoin:round;stroke-miterlimit:10;}
	.st1{fill:none;stroke:#463C33;stroke-width:4;stroke-miterlimit:10;}
	.st2{fill:none;stroke:#463C33;stroke-width:3.7343;stroke-miterlimit:10;}
	.st3{fill:none;stroke:#463C33;stroke-width:2.9231;stroke-miterlimit:10;}
	.st4{fill:none;stroke:#463C33;stroke-width:2.6294;stroke-miterlimit:10;}
	.st5{fill:none;stroke:#463C33;stroke-width:2.7692;stroke-linecap:round;stroke-linejoin:round;stroke-dasharray:2.9926,5.9853;}
	.st6{fill:#463C33;}
	.st7{fill:none;stroke:#463C33;stroke-width:3;stroke-linecap:round;stroke-linejoin:round;stroke-miterlimit:10;}
	.st8{fill:#ABB868;}
</style>
<g>
	<path class="st0" d="M282.17,430.21c-7.06-45.84-28.56-43.31-28.56-43.31c-50.32-0.53-59.13,92.22-62.66,103.68h45.79"/>
	<path class="st0" d="M267.57,468.44c0,0,54-141.61,76.95-160.01c0,0,51.2-69.98,100.63,61.82l40.42,117.98"/>
	<path class="st0" d="M578.86,490.15c-0.94-0.48-59.57-85.52-59.57-85.52s-21.18-34.38-45.9,5.73l-8.83,14.33"/>
	<path class="st0" d="M306.09,376.43c4.9,5.28,8.43,28.21,4.9,39.67c0,0-4.48,38.69,23.85-19.83c0,0,18.52-54.66,32.64-26.01
		c0,0,17.65,34.38,24.71,0c0,0,9.21-54.72,24.71-17.19c0,0,14.12,57.3,24.71,57.3c10.59,0,12.05-16.24,12.05-16.24"/>
	<path class="st0" d="M203.16,438.75c0,0,13.31,48.81,26.62,11.73c0,0,11.02-33.92,31.78-34.38c0,0,14.53,0.86,15.74,25.04"/>
	<path class="st1" d="M471.76,444.85c0,0,17.97,20.57,23.93-9.82c0,0,4.1-26.66,19.15-5.6c15.05,21.06,17.77-6.09,17.77-6.09"/>
	<path class="st0" d="M254.49,519.24h60.02c0,0,31.78,0,14.12-45.84c0,0-11.16-26.03-29.44-2.23c0,0-13.98-18.18-31.63,8.19
		c0,0-17.68-33.22-29.5,9.06C238.07,488.43,229.78,519.24,254.49,519.24z"/>
	<path class="st0" d="M512.23,375.98c6.72,0,13.45,0,20.17,0c10.1,0,20.36,0.94,30.43-0.55c2.66-0.39,5.4-1.04,7.66-3.33
		c1.2-1.21,2.28-2.98,2.57-5.22c0.33-2.56-0.41-5.16-1.26-7.38c-2.04-5.34-4.83-9.93-8.09-13.32c-2.59-2.7-6-4.63-8.69-2.16
		c-2.73,2.51-3.42,8.28-5.22,12.46c-0.99,2.3-2.65,4.29-4.33,3.65c-1.42-0.54-2.34-2.73-3.07-4.78
		c-3.22-8.99-5.77-18.89-10.37-26.13c-1.55-2.44-3.4-4.59-5.52-5.21c-3.35-0.97-6.67,2.02-9.2,5.71c-3.3,4.8-5.83,10.98-7.29,17.77
		c-0.7,3.24-1.48,7.15-3.52,8.01c-2.46,1.03-4.52-3.25-7-4.17c-1.93-0.72-3.92,0.68-5.61,2.38c-2.01,2.03-4.04,5.34-3.61,9.12
		c0.21,1.8,0.95,3.31,1.75,4.59C497.31,375.93,505.27,375.98,512.23,375.98"/>
</g>
<circle class="st2" cx="381.26" cy="411.02" r="319.84"/>
<circle class="st3" cx="381.26" cy="411.02" r="250.36"/>
<circle class="st4" cx="381.26" cy="411.02" r="225.21"/>
<g>
	<circle class="st5" cx="381.26" cy="411.02" r="237.18"/>
</g>
<path class="st6" d="M349.19,118.65c4.6-0.5,8.73,0.73,12.41,3.7c3.67,2.97,5.77,6.85,6.29,11.63c0.52,4.74-0.68,8.94-3.58,12.58
	c-2.91,3.64-6.69,5.72-11.35,6.22c-4.88,0.53-9.12-0.71-12.71-3.73c-3.6-3.02-5.65-6.85-6.15-11.49c-0.34-3.11,0.1-6.05,1.32-8.82
	c1.22-2.77,3.06-5.06,5.53-6.87C343.4,120.05,346.15,118.98,349.19,118.65z M349.78,124.71c-3.01,0.33-5.42,1.65-7.24,3.97
	c-1.82,2.32-2.56,5.09-2.2,8.31c0.39,3.59,1.99,6.3,4.8,8.11c2.18,1.42,4.57,1.98,7.17,1.7c2.93-0.32,5.32-1.65,7.15-4
	c1.83-2.35,2.58-5.07,2.24-8.18c-0.34-3.09-1.66-5.6-3.98-7.51C355.41,125.18,352.76,124.38,349.78,124.71z"/>
<path class="st6" d="M375.22,117.54l7.37,0.15c4.75,0.09,8.27,0.75,10.56,1.98c2.29,1.22,4.15,3.18,5.59,5.86
	c1.44,2.68,2.13,5.79,2.06,9.33c-0.05,2.52-0.51,4.83-1.39,6.92s-2.07,3.82-3.57,5.19c-1.5,1.36-3.12,2.29-4.84,2.79
	s-4.71,0.71-8.94,0.62l-7.48-0.15L375.22,117.54z M381.28,123.66l-0.41,20.62l2.89,0.06c2.84,0.06,4.91-0.23,6.21-0.85
	c1.29-0.63,2.36-1.7,3.21-3.23c0.85-1.53,1.29-3.42,1.34-5.67c0.07-3.47-0.85-6.18-2.75-8.13c-1.71-1.75-4.5-2.67-8.37-2.75
	L381.28,123.66z"/>
<path class="st6" d="M409.61,118.95l17.71,2.18l-0.74,6.04L415,125.75l-0.72,5.87l11.58,1.42l-0.73,5.93l-11.58-1.42l-1.05,8.54
	l11.58,1.42l-0.75,6.07l-17.71-2.18L409.61,118.95z"/>
<path class="st6" d="M437.72,131.66l-5.69-1.24c0.58-2.79,2.03-4.89,4.37-6.29c2.33-1.4,5.09-1.75,8.26-1.06
	c2.04,0.44,3.7,1.2,4.97,2.26c1.27,1.06,2.18,2.4,2.73,4.01c0.55,1.61,0.66,3.19,0.32,4.76c-0.19,0.85-0.51,1.66-0.96,2.43
	c-0.45,0.77-1.07,1.52-1.86,2.26c-0.46,0.43-1.48,1.1-3.05,2.02c-1.51,0.87-2.47,1.51-2.89,1.91c-0.42,0.4-0.83,0.97-1.21,1.7
	c-0.39,0.73-0.76,1.79-1.12,3.17l-5.89-1.28l0.19-0.98c0.42-1.94,1.16-3.63,2.21-5.06c1.05-1.43,2.53-2.67,4.42-3.71
	c1.83-1.01,2.96-1.74,3.38-2.18c0.43-0.44,0.72-1,0.86-1.68c0.2-0.93-0.01-1.8-0.65-2.61c-0.63-0.81-1.6-1.36-2.91-1.64
	c-1.33-0.29-2.51-0.13-3.54,0.46C438.66,129.51,438,130.43,437.72,131.66z M438.2,149.44c1.06,0.23,1.88,0.79,2.47,1.67
	c0.59,0.89,0.77,1.84,0.55,2.87c-0.22,1.03-0.78,1.83-1.68,2.4c-0.9,0.57-1.87,0.74-2.91,0.52c-1.04-0.23-1.85-0.79-2.42-1.68
	c-0.57-0.89-0.75-1.85-0.52-2.88s0.78-1.83,1.66-2.39C436.22,149.39,437.17,149.22,438.2,149.44z"/>
<path class="st6" d="M490.2,143.16l-5.73,2.22c-0.74-2.67-1.89-4.3-3.47-4.88c-0.77-0.28-1.47-0.31-2.11-0.08
	c-0.64,0.23-1.05,0.6-1.24,1.12c-0.19,0.51-0.2,1.06-0.02,1.65c0.25,0.79,1.19,2.63,2.83,5.52c1.54,2.69,2.46,4.36,2.75,5.02
	c0.74,1.63,1.16,3.09,1.25,4.36c0.09,1.27-0.1,2.56-0.58,3.85c-0.93,2.52-2.57,4.27-4.91,5.27c-2.34,1-4.92,0.98-7.71-0.05
	c-2.18-0.81-3.89-2.05-5.12-3.71s-1.99-3.86-2.3-6.58l6-1.15c0.47,3.26,1.67,5.24,3.59,5.95c1,0.37,1.95,0.39,2.85,0.06
	c0.9-0.33,1.49-0.88,1.77-1.64c0.26-0.7,0.26-1.49,0-2.37c-0.26-0.89-1-2.37-2.23-4.45c-2.33-3.96-3.72-6.86-4.14-8.7
	s-0.37-3.5,0.17-4.97c0.79-2.13,2.27-3.65,4.45-4.57c2.18-0.92,4.46-0.95,6.84-0.07c1.53,0.57,2.86,1.46,3.98,2.68
	C488.26,138.84,489.28,140.69,490.2,143.16z"/>
<path class="st6" d="M499.77,142.42l16.13,7.64l-2.61,5.5l-10.55-5l-2.53,5.34l10.55,5l-2.56,5.4l-10.55-5l-3.68,7.77l10.55,5
	l-2.62,5.52l-16.13-7.64L499.77,142.42z"/>
<path class="st6" d="M537.22,161.41c3.92,2.45,6.41,5.97,7.47,10.58c1.05,4.6,0.3,8.95-2.24,13.03c-2.53,4.05-6.06,6.61-10.59,7.67
	s-8.79,0.36-12.77-2.12c-4.16-2.6-6.73-6.19-7.69-10.79c-0.96-4.6-0.2-8.88,2.27-12.84c1.65-2.65,3.82-4.69,6.49-6.12
	c2.67-1.43,5.54-2.09,8.59-1.99C531.8,158.94,534.63,159.8,537.22,161.41z M533.94,166.54c-2.57-1.6-5.28-2.05-8.15-1.36
	c-2.86,0.69-5.15,2.42-6.87,5.17c-1.91,3.07-2.33,6.18-1.24,9.34c0.84,2.46,2.37,4.39,4.58,5.77c2.5,1.56,5.2,1.99,8.09,1.28
	s5.16-2.39,6.82-5.05c1.65-2.64,2.15-5.43,1.52-8.36S536.48,168.13,533.94,166.54z"/>
<path class="st6" d="M558.1,176.49l4.85,3.94l-13.34,16.4c-1.15,1.41-1.84,2.51-2.07,3.3c-0.23,0.79-0.2,1.59,0.08,2.4
	s0.83,1.55,1.63,2.2c0.85,0.69,1.74,1.09,2.67,1.2c0.93,0.11,1.76-0.04,2.49-0.45s1.78-1.47,3.16-3.17l12.85-15.8l4.85,3.94
	l-12.3,15.12c-2.08,2.55-3.66,4.21-4.75,4.96c-1.09,0.76-2.42,1.26-3.97,1.52c-1.56,0.26-3.05,0.18-4.46-0.23
	c-1.42-0.42-2.83-1.2-4.23-2.34c-1.84-1.5-3.1-3.22-3.77-5.17c-0.67-1.95-0.79-3.8-0.34-5.55c0.45-1.75,1.9-4.13,4.36-7.16
	L558.1,176.49z"/>
<path class="st6" d="M582.2,196.92l4.45,4.35l-18.7,19.15l6.49,6.34L570.3,231l-10.94-10.68L582.2,196.92z"/>
<path class="st6" d="M617.49,235.2c2.77,3.7,3.81,7.89,3.13,12.56c-0.69,4.67-2.96,8.45-6.81,11.34c-3.82,2.86-8.04,3.96-12.65,3.31
	s-8.32-2.85-11.13-6.6c-2.94-3.93-4.03-8.21-3.25-12.84c0.77-4.63,3.02-8.35,6.76-11.14c2.5-1.87,5.26-2.99,8.26-3.35
	c3.01-0.36,5.92,0.06,8.73,1.26S615.66,232.75,617.49,235.2z M612.58,238.79c-1.81-2.42-4.18-3.83-7.1-4.22
	c-2.92-0.39-5.68,0.39-8.28,2.33c-2.9,2.17-4.41,4.92-4.54,8.26c-0.11,2.6,0.62,4.95,2.18,7.04c1.77,2.36,4.13,3.74,7.08,4.12
	c2.95,0.38,5.68-0.36,8.18-2.23c2.49-1.86,3.97-4.28,4.45-7.25C615.04,243.87,614.37,241.19,612.58,238.79z"/>
<path class="st6" d="M631.74,257.12l3.61,6.43c2.33,4.14,3.55,7.51,3.65,10.1c0.1,2.59-0.63,5.19-2.21,7.79
	c-1.58,2.6-3.91,4.77-7,6.51c-2.2,1.23-4.42,2-6.67,2.31c-2.25,0.31-4.34,0.16-6.28-0.44c-1.94-0.6-3.56-1.52-4.86-2.76
	c-1.31-1.24-3-3.7-5.07-7.39l-3.67-6.52L631.74,257.12z M629.54,265.45l-17.98,10.11l1.42,2.52c1.39,2.48,2.69,4.12,3.89,4.92
	c1.2,0.8,2.67,1.17,4.41,1.13c1.74-0.05,3.6-0.62,5.56-1.73c3.03-1.7,4.9-3.87,5.61-6.5c0.64-2.37,0.02-5.24-1.88-8.61
	L629.54,265.45z"/>
<path class="st6" d="M647.98,287.5l7.09,16.38l-5.59,2.42l-4.64-10.71l-5.42,2.35l4.64,10.71l-5.49,2.38l-4.64-10.71l-7.89,3.42
	l4.64,10.71l-5.61,2.43l-7.09-16.38L647.98,287.5z"/>
<path class="st6" d="M636.15,327.59c0.34,1.03,0.27,2.02-0.19,2.98c-0.47,0.96-1.2,1.6-2.2,1.92s-1.97,0.25-2.92-0.24
	c-0.95-0.49-1.58-1.23-1.92-2.25c-0.33-1.01-0.26-1.99,0.22-2.94c0.48-0.94,1.22-1.58,2.22-1.91c1-0.33,1.97-0.25,2.9,0.22
	C635.2,325.85,635.83,326.59,636.15,327.59z M651.25,318.18l-1.81-5.53c2.7-0.92,5.25-0.72,7.64,0.59c2.39,1.31,4.09,3.5,5.1,6.59
	c0.65,1.99,0.84,3.79,0.56,5.43c-0.28,1.63-0.97,3.1-2.07,4.39c-1.11,1.29-2.42,2.18-3.94,2.68c-0.83,0.27-1.69,0.41-2.58,0.4
	c-0.89,0-1.85-0.16-2.89-0.46c-0.6-0.18-1.7-0.71-3.29-1.61c-1.51-0.86-2.55-1.37-3.11-1.53c-0.56-0.16-1.25-0.22-2.08-0.18
	c-0.83,0.04-1.93,0.25-3.3,0.64l-1.88-5.72l0.94-0.33c1.89-0.62,3.71-0.83,5.48-0.65s3.58,0.83,5.44,1.94c1.8,1.06,3,1.67,3.59,1.82
	c0.59,0.15,1.22,0.11,1.88-0.1c0.9-0.3,1.54-0.92,1.92-1.88s0.36-2.07-0.05-3.34c-0.42-1.3-1.15-2.23-2.19-2.81
	C653.58,317.9,652.45,317.8,651.25,318.18z"/>
<path class="st6" d="M667.88,369.25l-4.82-3.82c1.93-1.99,2.75-3.81,2.46-5.46c-0.14-0.8-0.48-1.42-1-1.86s-1.05-0.6-1.59-0.51
	c-0.54,0.1-1.02,0.37-1.43,0.82c-0.55,0.61-1.66,2.36-3.33,5.23c-1.54,2.69-2.52,4.32-2.94,4.91c-1.03,1.47-2.07,2.56-3.13,3.28
	s-2.26,1.21-3.61,1.45c-2.64,0.47-4.98-0.05-7.03-1.57c-2.05-1.52-3.33-3.74-3.86-6.68c-0.41-2.29-0.21-4.39,0.61-6.29
	s2.32-3.67,4.51-5.32l4.03,4.59c-2.57,2.06-3.67,4.09-3.31,6.11c0.19,1.05,0.65,1.88,1.39,2.49c0.74,0.61,1.51,0.84,2.31,0.69
	c0.73-0.13,1.41-0.53,2.04-1.2c0.63-0.67,1.54-2.06,2.71-4.17c2.23-4.02,4.03-6.68,5.4-7.98c1.37-1.3,2.83-2.09,4.38-2.37
	c2.23-0.4,4.3,0.11,6.2,1.53c1.9,1.42,3.08,3.37,3.52,5.87c0.29,1.61,0.19,3.2-0.3,4.79C670.63,365.39,669.55,367.21,667.88,369.25z
	"/>
<path class="st6" d="M673.37,377.13l1.58,17.78l-6.07,0.54l-1.04-11.62l-5.89,0.52l1.04,11.62l-5.96,0.53l-1.04-11.62l-8.57,0.76
	l1.04,11.62l-6.09,0.54l-1.58-17.78L673.37,377.13z"/>
<path class="st6" d="M675.99,418.97c-0.11,4.62-1.88,8.56-5.31,11.81c-3.43,3.25-7.55,4.81-12.37,4.69
	c-4.77-0.12-8.77-1.86-11.99-5.22s-4.78-7.39-4.66-12.07c0.12-4.91,1.92-8.94,5.39-12.1s7.54-4.69,12.21-4.57
	c3.13,0.08,5.98,0.9,8.57,2.48c2.58,1.58,4.61,3.71,6.08,6.39C675.37,413.05,676.07,415.91,675.99,418.97z M669.9,418.75
	c0.08-3.03-0.92-5.59-2.97-7.71c-2.05-2.11-4.7-3.21-7.95-3.29c-3.61-0.09-6.51,1.14-8.67,3.68c-1.69,1.98-2.57,4.27-2.64,6.88
	c-0.07,2.95,0.93,5.49,3.01,7.62c2.08,2.13,4.69,3.23,7.81,3.31c3.11,0.08,5.77-0.91,7.98-2.94
	C668.69,424.26,669.83,421.75,669.9,418.75z"/>
<path class="st6" d="M673.63,444.59l-0.93,6.18l-20.91-3.14c-1.8-0.27-3.1-0.3-3.89-0.1s-1.47,0.63-2.02,1.29s-0.91,1.5-1.06,2.53
	c-0.16,1.08-0.05,2.06,0.33,2.92s0.93,1.5,1.66,1.91c0.72,0.42,2.17,0.79,4.34,1.11l20.14,3.02l-0.93,6.18l-19.28-2.89
	c-3.25-0.49-5.48-1.01-6.69-1.57s-2.32-1.44-3.33-2.65c-1.02-1.21-1.71-2.53-2.07-3.96s-0.41-3.04-0.14-4.83
	c0.35-2.34,1.2-4.3,2.54-5.88c1.34-1.58,2.87-2.61,4.6-3.12c1.73-0.5,4.52-0.47,8.38,0.11L673.63,444.59z"/>
<path class="st6" d="M668.28,475.78l-1.49,6.04l-25.99-6.38l-2.16,8.81l-5.76-1.42l3.65-14.85L668.28,475.78z"/>
<path class="st6" d="M653.16,525.67c-1.79,4.26-4.88,7.28-9.25,9.05s-8.79,1.72-13.22-0.14c-4.4-1.85-7.49-4.93-9.26-9.23
	c-1.77-4.31-1.75-8.62,0.06-12.94c1.9-4.52,5.04-7.63,9.43-9.31c4.39-1.68,8.73-1.61,13.03,0.19c2.88,1.21,5.24,3.02,7.07,5.43
	s2.94,5.13,3.33,8.17C654.75,519.93,654.35,522.85,653.16,525.67z M647.58,523.25c1.17-2.79,1.19-5.54,0.05-8.26
	c-1.14-2.72-3.21-4.7-6.2-5.96c-3.33-1.4-6.47-1.31-9.42,0.27c-2.3,1.22-3.95,3.04-4.96,5.44c-1.14,2.72-1.13,5.45,0.03,8.19
	c1.16,2.74,3.18,4.72,6.07,5.93c2.87,1.21,5.7,1.26,8.5,0.17S646.42,526.01,647.58,523.25z"/>
<path class="st6" d="M641.47,549.03l-3.72,6.37c-2.4,4.1-4.69,6.86-6.87,8.26s-4.79,2.08-7.84,2.03c-3.04-0.05-6.1-0.96-9.15-2.75
	c-2.18-1.27-3.96-2.8-5.37-4.59c-1.4-1.79-2.33-3.67-2.79-5.64c-0.46-1.97-0.49-3.84-0.08-5.59c0.41-1.75,1.68-4.46,3.81-8.11
	l3.77-6.46L641.47,549.03z M633.17,551.34l-17.81-10.4l-1.46,2.5c-1.43,2.46-2.19,4.4-2.28,5.84c-0.08,1.44,0.34,2.89,1.26,4.38
	c0.92,1.48,2.36,2.79,4.3,3.93c3,1.75,5.81,2.27,8.44,1.56c2.37-0.64,4.53-2.63,6.48-5.97L633.17,551.34z"/>
<path class="st6" d="M623.48,578.38l-10.54,14.41l-4.92-3.6l6.89-9.42l-4.77-3.49l-6.89,9.42l-4.83-3.53l6.89-9.42l-6.94-5.08
	l-6.89,9.42l-4.93-3.61l10.54-14.4L623.48,578.38z"/>
<path class="st6" d="M582.92,588.48c-0.72,0.81-1.6,1.26-2.66,1.34c-1.06,0.08-1.99-0.22-2.77-0.92c-0.79-0.7-1.21-1.57-1.28-2.64
	c-0.06-1.06,0.26-1.99,0.97-2.79c0.71-0.8,1.59-1.23,2.64-1.3s1.98,0.25,2.77,0.94c0.79,0.7,1.22,1.57,1.28,2.61
	C583.93,586.77,583.62,587.69,582.92,588.48z M598.68,596.72l3.85-4.37c2.16,1.87,3.28,4.16,3.37,6.88c0.08,2.72-0.95,5.3-3.09,7.73
	c-1.38,1.57-2.85,2.65-4.39,3.24c-1.55,0.59-3.16,0.74-4.83,0.44c-1.67-0.3-3.11-0.98-4.31-2.04c-0.66-0.58-1.21-1.25-1.66-2.02
	c-0.45-0.77-0.8-1.68-1.07-2.72c-0.15-0.61-0.25-1.83-0.28-3.65c-0.03-1.74-0.11-2.89-0.26-3.46c-0.15-0.56-0.45-1.19-0.9-1.89
	c-0.45-0.7-1.19-1.54-2.22-2.52l3.98-4.52l0.77,0.64c1.49,1.31,2.6,2.78,3.34,4.4c0.74,1.62,1.1,3.51,1.09,5.67
	c0,2.09,0.08,3.43,0.25,4.02c0.17,0.59,0.52,1.11,1.04,1.57c0.71,0.63,1.58,0.86,2.6,0.7c1.02-0.16,1.97-0.74,2.85-1.74
	c0.9-1.02,1.34-2.13,1.32-3.31C600.11,598.58,599.63,597.57,598.68,596.72z"/>
<path class="st6" d="M563.15,636.97l0.84-6.09c2.7,0.65,4.68,0.43,5.95-0.66c0.62-0.53,0.98-1.13,1.09-1.8
	c0.11-0.67-0.02-1.21-0.37-1.63c-0.36-0.42-0.84-0.69-1.44-0.82c-0.81-0.17-2.87-0.24-6.2-0.21c-3.1,0.04-5,0.03-5.72-0.03
	c-1.79-0.14-3.26-0.48-4.42-1.02c-1.16-0.54-2.19-1.33-3.08-2.38c-1.75-2.03-2.49-4.32-2.22-6.85c0.27-2.54,1.53-4.77,3.79-6.72
	c1.77-1.52,3.68-2.41,5.73-2.67c2.05-0.26,4.35,0.13,6.87,1.18l-1.91,5.8c-3.08-1.17-5.39-1.08-6.94,0.25
	c-0.81,0.7-1.29,1.52-1.43,2.46c-0.15,0.95,0.05,1.73,0.58,2.35c0.48,0.56,1.17,0.94,2.07,1.15c0.9,0.2,2.56,0.27,4.97,0.21
	c4.59-0.12,7.8,0.08,9.62,0.6c1.82,0.52,3.24,1.37,4.26,2.57c1.48,1.72,2.09,3.76,1.84,6.11c-0.25,2.36-1.34,4.36-3.26,6.02
	c-1.24,1.06-2.66,1.79-4.27,2.18C567.87,637.37,565.76,637.36,563.15,636.97z"/>
<path class="st6" d="M559.16,645.7l-14.5,10.41l-3.55-4.95l9.48-6.8l-3.45-4.8l-9.48,6.8l-3.49-4.86l9.48-6.8l-5.02-6.99l-9.48,6.8
	l-3.56-4.97l14.5-10.41L559.16,645.7z"/>
<path class="st6" d="M524.41,669.25c-4.04,2.25-8.33,2.72-12.87,1.41s-7.98-4.07-10.32-8.28c-2.32-4.17-2.85-8.5-1.58-12.98
	c1.26-4.48,3.94-7.86,8.04-10.14c4.29-2.39,8.68-2.88,13.17-1.5c4.49,1.39,7.86,4.12,10.13,8.2c1.52,2.73,2.26,5.61,2.21,8.64
	c-0.05,3.03-0.85,5.85-2.42,8.48C529.2,665.71,527.08,667.77,524.41,669.25z M521.51,663.9c2.64-1.47,4.36-3.63,5.14-6.47
	c0.78-2.84,0.38-5.68-1.2-8.52c-1.76-3.16-4.28-5.03-7.57-5.61c-2.56-0.46-4.98-0.05-7.27,1.22c-2.58,1.43-4.26,3.59-5.04,6.46
	c-0.78,2.87-0.41,5.68,1.11,8.41c1.51,2.72,3.71,4.51,6.58,5.38C516.14,665.65,518.89,665.36,521.51,663.9z"/>
<path class="st6" d="M501.1,680.22l-5.8,2.33l-7.88-19.62c-0.68-1.69-1.31-2.83-1.88-3.41c-0.58-0.58-1.29-0.95-2.14-1.09
	c-0.85-0.15-1.75-0.03-2.72,0.36c-1.02,0.41-1.8,0.99-2.35,1.76c-0.55,0.76-0.82,1.56-0.81,2.4c0.01,0.83,0.42,2.27,1.24,4.3
	l7.59,18.9l-5.8,2.33l-7.26-18.09c-1.23-3.05-1.9-5.24-2.04-6.56c-0.13-1.32,0.07-2.73,0.6-4.21c0.53-1.49,1.32-2.75,2.37-3.79
	s2.42-1.89,4.09-2.57c2.2-0.88,4.32-1.15,6.35-0.79s3.71,1.15,5.02,2.39c1.31,1.24,2.69,3.67,4.14,7.28L501.1,680.22z"/>
<path class="st6" d="M471.51,691.39l-5.96,1.78l-7.64-25.65l-8.69,2.59l-1.7-5.69l14.66-4.37L471.51,691.39z"/>
<path class="st6" d="M420.84,703.6c-4.58,0.61-8.75-0.52-12.49-3.39s-5.94-6.7-6.58-11.47c-0.63-4.73,0.46-8.95,3.27-12.66
	c2.82-3.71,6.55-5.88,11.19-6.5c4.87-0.65,9.13,0.49,12.8,3.42s5.81,6.71,6.43,11.34c0.42,3.1,0.05,6.05-1.1,8.85
	c-1.15,2.8-2.94,5.14-5.36,7.01C426.59,702.06,423.87,703.19,420.84,703.6z M420.1,697.56c3-0.4,5.38-1.78,7.14-4.14
	s2.43-5.15,2-8.36c-0.48-3.58-2.15-6.25-5-7.99c-2.22-1.36-4.62-1.87-7.21-1.52c-2.93,0.39-5.28,1.78-7.05,4.17
	c-1.78,2.39-2.46,5.13-2.04,8.23c0.41,3.08,1.8,5.56,4.16,7.42C414.46,697.22,417.13,697.95,420.1,697.56z"/>
<path class="st6" d="M395.29,705.19l-7.37,0.12c-4.75,0.08-8.29-0.45-10.62-1.59s-4.26-3.02-5.8-5.65s-2.34-5.71-2.39-9.25
	c-0.04-2.52,0.34-4.84,1.14-6.97c0.8-2.12,1.93-3.9,3.38-5.31c1.45-1.42,3.03-2.41,4.74-2.97c1.71-0.56,4.68-0.88,8.91-0.94
	l7.48-0.12L395.29,705.19z M389.02,699.29l-0.33-20.62l-2.89,0.05c-2.84,0.05-4.9,0.41-6.17,1.08c-1.27,0.67-2.3,1.79-3.09,3.34
	c-0.79,1.56-1.17,3.46-1.13,5.71c0.06,3.47,1.07,6.15,3.04,8.03c1.78,1.69,4.6,2.51,8.46,2.44L389.02,699.29z"/>
<path class="st6" d="M360.41,704.76l-17.76-1.75l0.6-6.06l11.61,1.14l0.58-5.88l-11.61-1.14l0.58-5.95l11.61,1.14l0.84-8.56
	l-11.61-1.14l0.6-6.08l17.76,1.75L360.41,704.76z"/>
<path class="st6" d="M331.98,692.74l5.72,1.1c-0.51,2.81-1.91,4.94-4.21,6.4c-2.3,1.46-5.04,1.88-8.23,1.27
	c-2.05-0.39-3.73-1.11-5.02-2.14c-1.3-1.03-2.24-2.35-2.83-3.94c-0.59-1.59-0.74-3.17-0.44-4.75c0.17-0.86,0.47-1.68,0.9-2.45
	c0.44-0.78,1.04-1.54,1.8-2.3c0.45-0.44,1.45-1.14,3-2.09c1.49-0.91,2.44-1.57,2.85-1.98s0.8-0.99,1.17-1.73
	c0.37-0.74,0.72-1.81,1.04-3.19l5.92,1.13l-0.17,0.99c-0.37,1.95-1.07,3.65-2.09,5.11c-1.02,1.46-2.46,2.73-4.33,3.82
	c-1.8,1.06-2.91,1.81-3.33,2.26c-0.42,0.45-0.69,1.01-0.82,1.7c-0.18,0.93,0.06,1.8,0.71,2.59c0.65,0.8,1.64,1.32,2.95,1.57
	c1.34,0.26,2.51,0.07,3.52-0.55C331.1,694.92,331.73,693.98,331.98,692.74z M331.07,674.98c-1.06-0.2-1.9-0.74-2.51-1.61
	c-0.61-0.87-0.82-1.82-0.62-2.86s0.74-1.85,1.62-2.44c0.88-0.59,1.85-0.79,2.9-0.59c1.05,0.2,1.87,0.74,2.46,1.62
	c0.59,0.88,0.79,1.83,0.59,2.86s-0.73,1.84-1.6,2.43C333.05,674.98,332.1,675.18,331.07,674.98z"/>
<path class="st6" d="M279.25,682.54l5.68-2.36c0.8,2.65,2,4.25,3.59,4.79c0.77,0.26,1.48,0.27,2.11,0.03
	c0.63-0.25,1.04-0.63,1.22-1.15c0.18-0.52,0.17-1.07-0.02-1.65c-0.27-0.78-1.25-2.6-2.96-5.45c-1.61-2.65-2.56-4.3-2.87-4.95
	c-0.78-1.61-1.23-3.06-1.36-4.33s0.04-2.56,0.48-3.86c0.87-2.54,2.46-4.33,4.78-5.39c2.32-1.06,4.89-1.1,7.71-0.14
	c2.2,0.75,3.94,1.95,5.21,3.59c1.27,1.64,2.09,3.81,2.46,6.53l-5.97,1.3c-0.55-3.24-1.8-5.2-3.74-5.86
	c-1.01-0.35-1.96-0.34-2.85,0.01c-0.89,0.35-1.47,0.92-1.73,1.69c-0.24,0.7-0.22,1.49,0.06,2.37c0.28,0.88,1.06,2.34,2.33,4.39
	c2.43,3.9,3.89,6.76,4.36,8.59c0.47,1.83,0.46,3.49-0.05,4.97c-0.73,2.15-2.18,3.71-4.34,4.68c-2.16,0.98-4.44,1.06-6.84,0.24
	c-1.54-0.53-2.89-1.39-4.05-2.58S280.23,684.99,279.25,682.54z"/>
<path class="st6" d="M269.7,683.52l-16.31-7.24l2.47-5.57l10.67,4.73l2.4-5.4l-10.67-4.73l2.43-5.46l10.67,4.73l3.49-7.86
	l-10.67-4.73l2.48-5.59l16.31,7.24L269.7,683.52z"/>
<path class="st6" d="M231.8,665.45c-3.98-2.35-6.56-5.82-7.72-10.39c-1.16-4.58-0.52-8.94,1.92-13.08c2.43-4.11,5.89-6.75,10.4-7.93
	s8.78-0.57,12.81,1.81c4.23,2.49,6.88,6.03,7.95,10.6c1.07,4.57,0.42,8.87-1.95,12.89c-1.59,2.69-3.7,4.78-6.34,6.27
	c-2.64,1.49-5.48,2.22-8.54,2.2C237.27,667.79,234.43,667,231.8,665.45z M234.95,660.24c2.61,1.54,5.33,1.92,8.18,1.16
	c2.85-0.76,5.09-2.54,6.74-5.34c1.84-3.11,2.17-6.24,1.01-9.37c-0.9-2.44-2.48-4.33-4.72-5.65c-2.54-1.5-5.25-1.86-8.12-1.08
	s-5.1,2.52-6.69,5.21c-1.58,2.68-2.02,5.48-1.31,8.4C230.73,656.5,232.37,658.72,234.95,660.24z"/>
<path class="st6" d="M210.57,650.9l-4.94-3.82l12.93-16.73c1.11-1.44,1.78-2.56,1.99-3.35c0.21-0.79,0.16-1.59-0.14-2.4
	c-0.3-0.81-0.87-1.53-1.69-2.16c-0.87-0.67-1.77-1.05-2.7-1.14c-0.93-0.09-1.76,0.08-2.48,0.51c-0.72,0.43-1.74,1.51-3.08,3.24
	L198,641.18l-4.94-3.82l11.92-15.42c2.01-2.6,3.55-4.29,4.63-5.08c1.07-0.78,2.38-1.32,3.94-1.62s3.04-0.26,4.47,0.13
	s2.86,1.13,4.29,2.23c1.88,1.45,3.17,3.14,3.9,5.08c0.72,1.94,0.88,3.78,0.48,5.54c-0.4,1.76-1.8,4.18-4.18,7.26L210.57,650.9z"/>
<path class="st6" d="M185.95,631.04l-4.56-4.24l18.23-19.6l-6.64-6.18l4.04-4.35l11.2,10.41L185.95,631.04z"/>
<path class="st6" d="M149.73,593.62c-2.86-3.63-4.01-7.8-3.43-12.48c0.57-4.69,2.75-8.52,6.54-11.5c3.75-2.95,7.94-4.16,12.57-3.62
	c4.63,0.54,8.39,2.65,11.29,6.33c3.04,3.86,4.22,8.11,3.57,12.76c-0.66,4.65-2.82,8.42-6.49,11.31c-2.46,1.93-5.18,3.12-8.18,3.55
	c-3,0.43-5.92,0.08-8.76-1.05C153.98,597.79,151.62,596.03,149.73,593.62z M154.55,589.91c1.87,2.38,4.27,3.73,7.2,4.04
	c2.93,0.32,5.67-0.53,8.22-2.53c2.84-2.24,4.29-5.03,4.33-8.37c0.04-2.6-0.74-4.93-2.35-6.98c-1.83-2.32-4.22-3.64-7.18-3.95
	c-2.96-0.31-5.67,0.5-8.13,2.43c-2.44,1.92-3.87,4.38-4.27,7.35C151.97,584.89,152.7,587.56,154.55,589.91z"/>
<path class="st6" d="M134.97,572.09l-3.77-6.34c-2.43-4.08-3.73-7.42-3.9-10.01c-0.17-2.59,0.5-5.2,2.02-7.84s3.79-4.87,6.84-6.68
	c2.17-1.29,4.37-2.11,6.61-2.47c2.24-0.36,4.34-0.26,6.29,0.29s3.59,1.43,4.93,2.64s3.09,3.62,5.25,7.26l3.83,6.43L134.97,572.09z
	 M136.97,563.71l17.73-10.55l-1.48-2.48c-1.46-2.45-2.79-4.05-4.01-4.82c-1.22-0.77-2.7-1.11-4.44-1.02
	c-1.74,0.09-3.58,0.71-5.52,1.86c-2.98,1.77-4.8,3.99-5.45,6.63c-0.58,2.38,0.11,5.24,2.09,8.56L136.97,563.71z"/>
<path class="st6" d="M117.99,542.12l-7.49-16.2l5.53-2.56l4.9,10.59l5.37-2.48l-4.9-10.59l5.43-2.51l4.9,10.59l7.81-3.61l-4.9-10.59
	l5.55-2.57l7.49,16.2L117.99,542.12z"/>
<path class="st6" d="M113.97,511.53l1.95,5.49c-2.68,0.98-5.23,0.85-7.65-0.4c-2.42-1.25-4.17-3.4-5.26-6.46
	c-0.7-1.97-0.93-3.77-0.7-5.41c0.24-1.64,0.89-3.12,1.96-4.44c1.07-1.32,2.36-2.24,3.87-2.78c0.82-0.29,1.68-0.45,2.57-0.46
	c0.89-0.02,1.86,0.11,2.9,0.39c0.61,0.16,1.72,0.67,3.33,1.53c1.53,0.82,2.58,1.31,3.15,1.45c0.56,0.15,1.26,0.19,2.09,0.13
	c0.83-0.06,1.92-0.3,3.28-0.72l2.02,5.68l-0.94,0.36c-1.87,0.67-3.69,0.93-5.46,0.79c-1.77-0.14-3.6-0.74-5.49-1.8
	c-1.82-1.02-3.03-1.59-3.63-1.73c-0.6-0.13-1.22-0.08-1.88,0.15c-0.89,0.32-1.52,0.96-1.87,1.93c-0.36,0.97-0.31,2.08,0.14,3.34
	c0.46,1.29,1.21,2.21,2.26,2.76C111.65,511.87,112.77,511.94,113.97,511.53z M128.82,501.75c-0.36-1.02-0.32-2.01,0.12-2.98
	c0.44-0.97,1.16-1.63,2.15-1.98c0.99-0.35,1.97-0.3,2.92,0.16c0.96,0.46,1.62,1.2,1.97,2.2c0.36,1.01,0.31,1.99-0.15,2.94
	c-0.45,0.96-1.18,1.61-2.17,1.96c-0.99,0.35-1.96,0.3-2.91-0.15C129.83,503.46,129.18,502.74,128.82,501.75z"/>
<path class="st6" d="M96.07,460.87l4.91,3.7c-1.88,2.04-2.66,3.88-2.32,5.52c0.16,0.8,0.51,1.41,1.04,1.83
	c0.53,0.42,1.07,0.58,1.6,0.47c0.54-0.11,1.01-0.4,1.41-0.86c0.54-0.62,1.61-2.4,3.2-5.31c1.47-2.72,2.41-4.38,2.82-4.98
	c1-1.49,2.01-2.61,3.05-3.36s2.23-1.26,3.58-1.54c2.63-0.54,4.98-0.07,7.07,1.4s3.42,3.66,4.02,6.58c0.47,2.28,0.31,4.38-0.46,6.3
	c-0.77,1.92-2.23,3.73-4.38,5.43l-4.14-4.49c2.52-2.12,3.57-4.18,3.16-6.19c-0.21-1.05-0.7-1.86-1.45-2.45
	c-0.76-0.59-1.53-0.8-2.33-0.64c-0.73,0.15-1.4,0.57-2.01,1.25c-0.62,0.69-1.48,2.1-2.61,4.24c-2.13,4.07-3.87,6.77-5.21,8.11
	c-1.34,1.33-2.78,2.16-4.32,2.47c-2.22,0.45-4.3,0-6.24-1.37c-1.94-1.37-3.16-3.3-3.66-5.78c-0.33-1.6-0.27-3.2,0.18-4.79
	C93.43,464.79,94.46,462.95,96.07,460.87z"/>
<path class="st6" d="M90.39,453.11l-2.02-17.73l6.05-0.69l1.32,11.59l5.87-0.67l-1.32-11.59l5.94-0.68l1.32,11.59l8.55-0.97
	l-1.32-11.59l6.07-0.69l2.02,17.73L90.39,453.11z"/>
<path class="st6" d="M86.77,410.93c0.07-4.62,1.81-8.58,5.22-11.85c3.4-3.27,7.51-4.87,12.33-4.79c4.77,0.08,8.78,1.79,12.03,5.12
	c3.25,3.34,4.84,7.35,4.76,12.03c-0.08,4.91-1.84,8.96-5.29,12.15c-3.45,3.19-7.5,4.75-12.17,4.67c-3.13-0.05-5.99-0.85-8.59-2.41
	c-2.6-1.55-4.64-3.67-6.13-6.34C87.44,416.85,86.72,413.99,86.77,410.93z M92.86,411.1c-0.05,3.03,0.96,5.59,3.03,7.68
	c2.07,2.1,4.73,3.17,7.97,3.22c3.62,0.06,6.5-1.19,8.64-3.75c1.68-1.99,2.54-4.29,2.58-6.9c0.05-2.95-0.98-5.48-3.08-7.59
	c-2.1-2.11-4.71-3.19-7.84-3.24c-3.11-0.05-5.76,0.95-7.95,3.01C94.02,405.58,92.9,408.1,92.86,411.1z"/>
<path class="st6" d="M88.5,385.69l0.78-6.2l20.98,2.63c1.81,0.23,3.1,0.23,3.89,0.01c0.79-0.22,1.45-0.67,1.99-1.34
	c0.54-0.67,0.87-1.52,1-2.55c0.14-1.09,0-2.06-0.4-2.91c-0.4-0.85-0.97-1.47-1.7-1.87c-0.73-0.4-2.19-0.73-4.36-1.01l-20.21-2.53
	l0.78-6.2l19.34,2.42c3.26,0.41,5.51,0.88,6.72,1.4c1.22,0.53,2.35,1.38,3.4,2.56c1.05,1.18,1.77,2.49,2.16,3.91
	c0.4,1.42,0.48,3.03,0.26,4.83c-0.29,2.35-1.09,4.33-2.39,5.94s-2.81,2.68-4.53,3.23c-1.72,0.55-4.51,0.58-8.38,0.09L88.5,385.69z"
	/>
<path class="st6" d="M93.08,354.37l1.34-6.08l26.14,5.74l1.95-8.86l5.8,1.27l-3.28,14.94L93.08,354.37z"/>
<path class="st6" d="M106.97,304.14c1.69-4.31,4.7-7.4,9.03-9.28c4.33-1.88,8.74-1.94,13.22-0.19c4.44,1.74,7.6,4.74,9.48,9
	c1.88,4.26,1.97,8.58,0.26,12.94c-1.79,4.57-4.86,7.75-9.2,9.54c-4.34,1.79-8.69,1.83-13.04,0.13c-2.91-1.14-5.31-2.89-7.2-5.26
	s-3.07-5.06-3.53-8.08C105.53,309.92,105.85,306.98,106.97,304.14z M112.61,306.42c-1.1,2.82-1.05,5.57,0.16,8.26
	c1.21,2.69,3.32,4.62,6.34,5.8c3.37,1.32,6.5,1.15,9.41-0.5c2.27-1.28,3.88-3.13,4.83-5.56c1.08-2.75,1-5.48-0.23-8.19
	s-3.3-4.64-6.21-5.78c-2.9-1.13-5.73-1.12-8.5,0.04S113.7,303.63,112.61,306.42z"/>
<path class="st6" d="M118.08,280.51l3.56-6.46c2.29-4.16,4.52-6.97,6.66-8.42s4.74-2.19,7.79-2.22s6.12,0.81,9.22,2.52
	c2.21,1.22,4.03,2.7,5.48,4.45c1.45,1.75,2.42,3.61,2.93,5.57c0.51,1.96,0.58,3.82,0.22,5.59c-0.36,1.76-1.57,4.5-3.61,8.2
	l-3.61,6.55L118.08,280.51z M126.32,278l18.06,9.96l1.4-2.53c1.37-2.49,2.08-4.46,2.13-5.89s-0.41-2.89-1.36-4.34
	c-0.96-1.46-2.42-2.73-4.4-3.82c-3.04-1.68-5.87-2.13-8.48-1.35c-2.35,0.7-4.46,2.74-6.33,6.13L126.32,278z"/>
<path class="st6" d="M135.36,250.69l10.19-14.66l5,3.48l-6.66,9.58l4.85,3.37l6.66-9.58l4.91,3.41l-6.66,9.58l7.06,4.91l6.66-9.58
	l5.02,3.49l-10.18,14.66L135.36,250.69z"/>
<path class="st6" d="M159.69,231.77l-3.74,4.46c-2.2-1.81-3.38-4.08-3.53-6.79c-0.15-2.72,0.82-5.32,2.9-7.81
	c1.34-1.6,2.78-2.71,4.31-3.34c1.53-0.63,3.14-0.81,4.82-0.55s3.13,0.9,4.36,1.93c0.67,0.56,1.24,1.22,1.7,1.98
	c0.47,0.76,0.84,1.66,1.13,2.69c0.17,0.61,0.29,1.82,0.37,3.64c0.07,1.74,0.18,2.89,0.34,3.45c0.16,0.56,0.47,1.18,0.94,1.87
	c0.47,0.68,1.23,1.51,2.28,2.47l-3.87,4.61l-0.78-0.63c-1.52-1.28-2.67-2.71-3.45-4.31c-0.78-1.6-1.19-3.48-1.23-5.64
	c-0.05-2.09-0.16-3.42-0.35-4.01c-0.19-0.58-0.55-1.1-1.08-1.55c-0.73-0.61-1.6-0.82-2.61-0.64c-1.01,0.18-1.95,0.79-2.81,1.81
	c-0.88,1.04-1.29,2.16-1.23,3.35C158.22,229.94,158.73,230.94,159.69,231.77z M175.65,239.62c0.7-0.83,1.57-1.3,2.63-1.4
	c1.06-0.11,1.99,0.18,2.8,0.85c0.81,0.68,1.25,1.54,1.34,2.6c0.09,1.06-0.21,2-0.9,2.82c-0.69,0.82-1.56,1.27-2.61,1.36
	c-1.05,0.09-1.98-0.2-2.79-0.88c-0.81-0.68-1.25-1.54-1.35-2.58S174.97,240.43,175.65,239.62z"/>
<path class="st6" d="M194.24,190.66l-0.69,6.11c-2.71-0.59-4.69-0.32-5.93,0.81c-0.61,0.55-0.96,1.16-1.05,1.83
	c-0.09,0.67,0.04,1.21,0.41,1.62c0.37,0.41,0.85,0.67,1.46,0.78c0.81,0.15,2.88,0.17,6.2,0.06c3.09-0.12,5-0.15,5.72-0.11
	c1.79,0.1,3.27,0.41,4.44,0.92c1.17,0.51,2.22,1.28,3.14,2.3c1.8,1.99,2.59,4.26,2.39,6.8c-0.2,2.54-1.41,4.81-3.63,6.81
	c-1.73,1.56-3.62,2.5-5.66,2.81c-2.05,0.31-4.35-0.03-6.9-1.02l1.77-5.85c3.1,1.09,5.42,0.95,6.94-0.42
	c0.79-0.72,1.25-1.55,1.37-2.5s-0.09-1.73-0.64-2.33c-0.5-0.55-1.2-0.92-2.1-1.1c-0.9-0.18-2.56-0.21-4.97-0.09
	c-4.59,0.23-7.8,0.11-9.63-0.36c-1.83-0.47-3.27-1.29-4.32-2.46c-1.52-1.68-2.18-3.71-1.99-6.07c0.19-2.36,1.23-4.39,3.12-6.09
	c1.21-1.09,2.62-1.85,4.22-2.28C189.51,190.38,191.62,190.33,194.24,190.66z"/>
<path class="st6" d="M198,181.85l14.24-10.76l3.67,4.86l-9.31,7.03l3.56,4.72l9.31-7.03l3.6,4.77l-9.31,7.03l5.19,6.86l9.31-7.03
	l3.68,4.88l-14.24,10.76L198,181.85z"/>
<path class="st6" d="M232.18,157.44c3.99-2.35,8.26-2.92,12.83-1.72s8.07,3.87,10.52,8.02c2.42,4.11,3.05,8.42,1.9,12.94
	c-1.15,4.51-3.75,7.96-7.79,10.34c-4.23,2.49-8.6,3.1-13.12,1.82c-4.52-1.28-7.96-3.93-10.33-7.95c-1.59-2.69-2.39-5.56-2.42-8.58
	c-0.03-3.03,0.71-5.87,2.21-8.54C227.48,161.1,229.55,158.99,232.18,157.44z M235.21,162.72c-2.61,1.54-4.27,3.73-4.98,6.59
	c-0.71,2.86-0.24,5.69,1.41,8.48c1.83,3.12,4.4,4.92,7.71,5.42c2.57,0.39,4.98-0.07,7.23-1.4c2.54-1.5,4.17-3.69,4.88-6.58
	c0.71-2.89,0.27-5.69-1.32-8.38c-1.58-2.68-3.82-4.42-6.71-5.22S237.8,161.2,235.21,162.72z"/>
<path class="st6" d="M255.18,145.92l5.74-2.47l8.36,19.42c0.72,1.67,1.38,2.79,1.97,3.36c0.59,0.57,1.31,0.91,2.17,1.04
	c0.85,0.12,1.75-0.02,2.71-0.43c1.01-0.43,1.78-1.04,2.3-1.81c0.53-0.78,0.78-1.58,0.75-2.41s-0.48-2.26-1.34-4.27l-8.05-18.71
	l5.74-2.47l7.71,17.9c1.3,3.02,2.03,5.19,2.2,6.51s0,2.73-0.49,4.23s-1.25,2.78-2.28,3.85c-1.03,1.06-2.37,1.95-4.03,2.67
	c-2.18,0.94-4.29,1.25-6.33,0.95s-3.74-1.06-5.08-2.27c-1.34-1.21-2.78-3.6-4.32-7.18L255.18,145.92z"/>
<path class="st6" d="M284.53,134.01l5.92-1.92l8.27,25.45l8.62-2.8l1.83,5.64l-14.54,4.73L284.53,134.01z"/>
<line class="st7" x1="333.98" y1="490.59" x2="579.01" y2="490.59"/>
<path class="st8" d="M253.76,372.64c15.05,8.85,37.33-1.11,37.33-1.11s-2.12-24.31-17.16-33.16s-37.33,1.11-37.33,1.11
	S238.71,363.79,253.76,372.64z"/>
<path class="st8" d="M288.28,327.41c-6.14,12.42,2.06,28.99,2.06,28.99s18.14-3.56,24.28-15.97c6.14-12.42-2.06-28.99-2.06-28.99
	S294.42,314.99,288.28,327.41z"/>
</svg>
