<?xml version="1.0" encoding="utf-8"?>
<!-- Generator: Adobe Illustrator 27.4.0, SVG Export Plug-In . SVG Version: 6.00 Build 0)  -->
<svg version="1.1" id="레이어_1" xmlns="http://www.w3.org/2000/svg" xmlns:xlink="http://www.w3.org/1999/xlink" x="0px"
	 y="0px" viewBox="0 0 762.52 822.05" style="enable-background:new 0 0 762.52 822.05;" xml:space="preserve">
<style type="text/css">
	.st0{fill:none;stroke:#463C33;stroke-width:3;stroke-miterlimit:10;}
	.st1{fill:none;stroke:#463C33;stroke-width:3;stroke-linecap:round;stroke-linejoin:round;stroke-dasharray:3.0057,6.0113;}
	.st2{fill:#463C33;}
	.st3{fill:#463C33;stroke:#463C33;stroke-width:4;stroke-miterlimit:10;}
	.st4{fill:none;stroke:#463C33;stroke-width:4;stroke-miterlimit:10;}
	.st5{fill:none;stroke:#463C33;stroke-width:4;stroke-linecap:round;stroke-linejoin:round;stroke-miterlimit:10;}
	.st6{fill:#ABB868;}
</style>
<g>
	<circle class="st0" cx="381.26" cy="411.02" r="319.3"/>
	<circle class="st0" cx="381.26" cy="411.02" r="249.94"/>
	<circle class="st0" cx="381.26" cy="411.02" r="224.82"/>
	<g>
		<circle class="st1" cx="381.26" cy="411.02" r="236.78"/>
	</g>
</g>
<g>
	<path class="st2" d="M350.76,119.15c4.59-0.5,8.72,0.73,12.39,3.69s5.76,6.83,6.28,11.61c0.52,4.74-0.67,8.92-3.58,12.56
		s-6.68,5.71-11.33,6.21c-4.87,0.53-9.1-0.71-12.69-3.73c-3.59-3.02-5.64-6.84-6.14-11.47c-0.34-3.1,0.1-6.04,1.32-8.8
		c1.22-2.77,3.05-5.05,5.52-6.86C344.98,120.55,347.73,119.48,350.76,119.15z M351.36,125.2c-3,0.33-5.41,1.65-7.23,3.96
		c-1.82,2.31-2.55,5.08-2.2,8.3c0.39,3.59,1.99,6.29,4.79,8.09c2.18,1.41,4.57,1.98,7.16,1.7c2.93-0.32,5.31-1.65,7.14-3.99
		c1.83-2.34,2.58-5.07,2.24-8.17c-0.34-3.09-1.66-5.59-3.97-7.5C356.97,125.67,354.33,124.88,351.36,125.2z"/>
	<path class="st2" d="M376.78,118.04l7.36,0.15c4.74,0.09,8.26,0.75,10.54,1.98c2.28,1.22,4.14,3.17,5.58,5.85s2.12,5.78,2.05,9.32
		c-0.05,2.51-0.51,4.82-1.39,6.91s-2.06,3.82-3.56,5.18s-3.11,2.29-4.83,2.79c-1.72,0.5-4.7,0.7-8.93,0.62l-7.47-0.15L376.78,118.04
		z M382.83,124.15l-0.41,20.59l2.88,0.06c2.84,0.06,4.91-0.23,6.2-0.85c1.29-0.63,2.36-1.7,3.21-3.22c0.84-1.52,1.29-3.41,1.33-5.66
		c0.07-3.46-0.85-6.17-2.75-8.12c-1.71-1.75-4.5-2.67-8.36-2.74L382.83,124.15z"/>
	<path class="st2" d="M411.11,119.45l17.68,2.18l-0.74,6.03l-11.56-1.42l-0.72,5.86l11.56,1.42l-0.73,5.92l-11.56-1.42l-1.05,8.52
		l11.56,1.42l-0.75,6.06l-17.68-2.18L411.11,119.45z"/>
	<path class="st2" d="M439.17,132.14l-5.68-1.23c0.58-2.79,2.03-4.88,4.36-6.28c2.33-1.4,5.08-1.75,8.25-1.06
		c2.04,0.44,3.69,1.2,4.96,2.26c1.27,1.06,2.18,2.4,2.73,4c0.55,1.6,0.66,3.19,0.32,4.75c-0.19,0.85-0.5,1.66-0.96,2.43
		c-0.45,0.76-1.07,1.52-1.85,2.25c-0.46,0.43-1.47,1.1-3.05,2.02c-1.51,0.87-2.47,1.5-2.89,1.9c-0.42,0.4-0.82,0.97-1.21,1.7
		c-0.39,0.73-0.76,1.79-1.12,3.16l-5.88-1.28l0.19-0.98c0.42-1.94,1.16-3.62,2.21-5.05c1.05-1.43,2.52-2.66,4.42-3.71
		c1.82-1.01,2.95-1.73,3.38-2.17c0.43-0.44,0.72-0.99,0.86-1.67c0.2-0.92-0.02-1.79-0.65-2.6c-0.63-0.81-1.6-1.36-2.9-1.64
		c-1.33-0.29-2.51-0.13-3.53,0.46C440.11,129.99,439.46,130.91,439.17,132.14z M439.65,149.89c1.05,0.23,1.88,0.79,2.46,1.67
		c0.59,0.88,0.77,1.84,0.55,2.87c-0.22,1.03-0.78,1.82-1.68,2.39s-1.86,0.74-2.91,0.52c-1.04-0.23-1.85-0.78-2.42-1.67
		c-0.57-0.89-0.75-1.85-0.52-2.87c0.22-1.03,0.77-1.82,1.65-2.39C437.67,149.84,438.62,149.67,439.65,149.89z"/>
	<path class="st2" d="M491.56,143.62l-5.72,2.21c-0.74-2.67-1.89-4.29-3.46-4.87c-0.76-0.28-1.47-0.31-2.1-0.08s-1.05,0.6-1.24,1.11
		s-0.2,1.06-0.02,1.65c0.25,0.79,1.19,2.62,2.82,5.51c1.54,2.68,2.45,4.35,2.75,5.01c0.74,1.63,1.16,3.08,1.25,4.35
		c0.09,1.27-0.1,2.55-0.58,3.84c-0.93,2.51-2.56,4.27-4.9,5.26c-2.34,1-4.91,0.98-7.7-0.05c-2.18-0.81-3.88-2.04-5.11-3.71
		c-1.22-1.67-1.99-3.86-2.3-6.57l5.99-1.15c0.47,3.25,1.67,5.23,3.59,5.94c1,0.37,1.95,0.39,2.84,0.06c0.9-0.33,1.49-0.88,1.77-1.64
		c0.26-0.69,0.26-1.48,0-2.37c-0.26-0.88-1-2.36-2.22-4.44c-2.33-3.95-3.71-6.85-4.14-8.68c-0.43-1.84-0.37-3.49,0.17-4.96
		c0.78-2.12,2.27-3.65,4.45-4.57s4.46-0.94,6.83-0.07c1.53,0.56,2.85,1.46,3.97,2.67S490.64,141.15,491.56,143.62z"/>
	<path class="st2" d="M501.12,142.88l16.1,7.63l-2.6,5.49l-10.53-4.99l-2.53,5.33l10.53,4.99l-2.56,5.39l-10.53-4.99l-3.68,7.76
		l10.53,4.99l-2.61,5.51l-16.1-7.63L501.12,142.88z"/>
	<path class="st2" d="M538.5,161.84c3.92,2.44,6.4,5.96,7.45,10.56c1.05,4.6,0.3,8.93-2.24,13.01c-2.52,4.04-6.05,6.59-10.57,7.66
		c-4.53,1.06-8.78,0.36-12.74-2.12c-4.16-2.59-6.71-6.18-7.67-10.77s-0.2-8.86,2.26-12.82c1.65-2.65,3.81-4.68,6.48-6.11
		c2.67-1.42,5.53-2.08,8.58-1.99S535.91,160.23,538.5,161.84z M535.23,166.96c-2.56-1.6-5.27-2.05-8.13-1.36
		c-2.86,0.69-5.14,2.41-6.86,5.16c-1.91,3.06-2.32,6.17-1.23,9.32c0.84,2.46,2.37,4.38,4.58,5.76c2.5,1.56,5.19,1.98,8.08,1.27
		c2.89-0.71,5.16-2.39,6.81-5.04c1.64-2.64,2.15-5.42,1.52-8.35S537.77,168.55,535.23,166.96z"/>
	<path class="st2" d="M559.33,176.88l4.84,3.93l-13.31,16.38c-1.15,1.41-1.83,2.51-2.06,3.29c-0.23,0.79-0.2,1.58,0.08,2.4
		c0.28,0.81,0.83,1.54,1.63,2.2c0.85,0.69,1.74,1.09,2.67,1.2c0.93,0.11,1.76-0.04,2.48-0.45c0.72-0.41,1.78-1.46,3.16-3.16
		l12.83-15.78l4.84,3.93l-12.28,15.1c-2.07,2.55-3.65,4.2-4.74,4.95c-1.09,0.75-2.41,1.26-3.97,1.52c-1.56,0.26-3.04,0.18-4.46-0.23
		c-1.42-0.42-2.82-1.19-4.22-2.33c-1.84-1.49-3.09-3.21-3.77-5.16c-0.67-1.95-0.79-3.8-0.34-5.54s1.9-4.13,4.35-7.14L559.33,176.88z
		"/>
	<path class="st2" d="M583.41,197.29l4.45,4.34l-18.66,19.11l6.48,6.32l-4.14,4.24l-10.92-10.67L583.41,197.29z"/>
	<path class="st2" d="M618.64,235.5c2.77,3.7,3.81,7.88,3.12,12.54c-0.69,4.66-2.95,8.44-6.8,11.32c-3.81,2.85-8.02,3.96-12.63,3.31
		s-8.31-2.85-11.11-6.59c-2.94-3.92-4.02-8.2-3.25-12.82c0.77-4.62,3.02-8.33,6.75-11.13c2.5-1.87,5.25-2.99,8.25-3.35
		c3-0.36,5.91,0.06,8.71,1.26C614.5,231.24,616.81,233.06,618.64,235.5z M613.73,239.09c-1.81-2.42-4.17-3.82-7.09-4.21
		c-2.92-0.39-5.67,0.39-8.26,2.33c-2.89,2.16-4.4,4.91-4.53,8.24c-0.11,2.6,0.62,4.94,2.18,7.02c1.76,2.36,4.12,3.73,7.07,4.11
		s5.67-0.36,8.17-2.23c2.49-1.86,3.97-4.27,4.44-7.23C616.19,244.16,615.53,241.48,613.73,239.09z"/>
	<path class="st2" d="M632.85,257.36l3.61,6.42c2.33,4.14,3.54,7.5,3.65,10.08c0.1,2.59-0.63,5.18-2.21,7.78
		c-1.58,2.6-3.91,4.77-6.99,6.5c-2.19,1.23-4.41,2-6.66,2.31c-2.25,0.31-4.34,0.16-6.27-0.44c-1.93-0.6-3.55-1.52-4.86-2.75
		c-1.3-1.23-2.99-3.69-5.06-7.38l-3.66-6.51L632.85,257.36z M630.65,265.67l-17.95,10.09l1.41,2.51c1.39,2.48,2.69,4.11,3.88,4.91
		s2.66,1.17,4.4,1.12s3.59-0.62,5.55-1.72c3.02-1.7,4.89-3.86,5.6-6.49c0.64-2.36,0.02-5.23-1.88-8.59L630.65,265.67z"/>
	<path class="st2" d="M649.06,287.69l7.08,16.35l-5.58,2.42l-4.63-10.69l-5.42,2.35l4.63,10.69l-5.48,2.37l-4.63-10.69l-7.88,3.41
		l4.63,10.69l-5.6,2.42l-7.08-16.35L649.06,287.69z"/>
	<path class="st2" d="M637.26,327.71c0.34,1.03,0.27,2.02-0.19,2.97c-0.47,0.95-1.2,1.6-2.2,1.92c-1,0.33-1.97,0.25-2.91-0.24
		c-0.95-0.48-1.58-1.23-1.92-2.24s-0.26-1.99,0.22-2.93c0.48-0.94,1.21-1.58,2.21-1.9c1-0.33,1.96-0.25,2.9,0.22
		C636.31,325.98,636.94,326.71,637.26,327.71z M652.33,318.32l-1.81-5.52c2.7-0.92,5.24-0.72,7.62,0.58s4.08,3.5,5.09,6.57
		c0.65,1.98,0.84,3.79,0.56,5.42c-0.28,1.63-0.96,3.09-2.07,4.38c-1.1,1.29-2.42,2.18-3.93,2.68c-0.83,0.27-1.69,0.41-2.58,0.4
		s-1.85-0.16-2.88-0.46c-0.6-0.18-1.7-0.71-3.28-1.61c-1.51-0.86-2.55-1.37-3.1-1.53c-0.56-0.16-1.25-0.22-2.08-0.18
		c-0.83,0.04-1.93,0.25-3.29,0.64l-1.87-5.71l0.94-0.33c1.88-0.62,3.71-0.83,5.47-0.65c1.76,0.18,3.58,0.83,5.43,1.93
		c1.79,1.06,2.99,1.67,3.58,1.81c0.59,0.15,1.22,0.11,1.88-0.1c0.9-0.29,1.54-0.92,1.92-1.88c0.38-0.96,0.36-2.07-0.05-3.33
		c-0.42-1.29-1.15-2.23-2.19-2.81C654.65,318.04,653.53,317.94,652.33,318.32z"/>
	<path class="st2" d="M668.94,369.3l-4.81-3.81c1.93-1.99,2.75-3.8,2.45-5.45c-0.14-0.8-0.48-1.42-1-1.85
		c-0.52-0.43-1.05-0.6-1.59-0.51s-1.02,0.37-1.43,0.82c-0.55,0.61-1.66,2.35-3.33,5.22c-1.53,2.68-2.51,4.32-2.93,4.9
		c-1.03,1.46-2.07,2.56-3.12,3.28c-1.05,0.72-2.25,1.2-3.61,1.45c-2.64,0.47-4.98-0.05-7.02-1.57c-2.04-1.51-3.33-3.74-3.85-6.67
		c-0.41-2.29-0.21-4.38,0.61-6.28c0.82-1.9,2.32-3.67,4.51-5.31l4.02,4.59c-2.56,2.05-3.67,4.09-3.3,6.1
		c0.19,1.05,0.65,1.88,1.39,2.48c0.74,0.61,1.51,0.84,2.31,0.69c0.73-0.13,1.41-0.53,2.04-1.2s1.53-2.06,2.7-4.16
		c2.23-4.01,4.03-6.67,5.39-7.96c1.37-1.3,2.82-2.08,4.37-2.36c2.23-0.4,4.29,0.11,6.19,1.52c1.9,1.41,3.07,3.37,3.52,5.86
		c0.29,1.6,0.19,3.2-0.29,4.78C671.68,365.45,670.61,367.26,668.94,369.3z"/>
	<path class="st2" d="M674.42,377.16l1.58,17.75l-6.06,0.54l-1.04-11.6l-5.88,0.52l1.04,11.6l-5.95,0.53l-1.03-11.6l-8.55,0.76
		l1.04,11.6l-6.08,0.54l-1.58-17.75L674.42,377.16z"/>
	<path class="st2" d="M677.04,418.96c-0.11,4.62-1.88,8.54-5.31,11.79c-3.42,3.24-7.54,4.8-12.34,4.68
		c-4.76-0.12-8.75-1.85-11.97-5.21c-3.22-3.36-4.77-7.38-4.65-12.05c0.12-4.9,1.91-8.93,5.38-12.08c3.47-3.16,7.53-4.68,12.19-4.56
		c3.12,0.08,5.97,0.9,8.55,2.48c2.58,1.57,4.6,3.7,6.07,6.38C676.42,413.05,677.12,415.91,677.04,418.96z M670.96,418.74
		c0.07-3.02-0.91-5.58-2.96-7.69c-2.05-2.11-4.69-3.2-7.93-3.28c-3.61-0.09-6.49,1.14-8.66,3.68c-1.69,1.97-2.57,4.26-2.63,6.87
		c-0.07,2.95,0.93,5.48,3.01,7.61c2.08,2.12,4.68,3.23,7.8,3.3c3.11,0.08,5.76-0.9,7.96-2.94S670.89,421.73,670.96,418.74z"/>
	<path class="st2" d="M674.69,444.51l-0.92,6.17l-20.87-3.13c-1.8-0.27-3.09-0.3-3.89-0.1c-0.79,0.2-1.47,0.63-2.02,1.29
		s-0.91,1.5-1.06,2.52c-0.16,1.08-0.05,2.05,0.33,2.91c0.38,0.86,0.93,1.49,1.65,1.91c0.72,0.41,2.17,0.78,4.33,1.11l20.11,3.02
		l-0.93,6.17l-19.24-2.89c-3.25-0.49-5.47-1.01-6.68-1.56c-1.2-0.55-2.31-1.44-3.33-2.64s-1.7-2.53-2.07-3.96
		c-0.36-1.43-0.41-3.04-0.14-4.82c0.35-2.34,1.19-4.3,2.53-5.87c1.33-1.57,2.87-2.61,4.6-3.11c1.73-0.5,4.52-0.47,8.36,0.11
		L674.69,444.51z"/>
	<path class="st2" d="M669.35,475.65l-1.48,6.03l-25.94-6.37l-2.16,8.79l-5.75-1.41l3.64-14.83L669.35,475.65z"/>
	<path class="st2" d="M654.26,525.45c-1.79,4.26-4.87,7.27-9.24,9.04c-4.37,1.77-8.77,1.72-13.2-0.14
		c-4.39-1.84-7.47-4.92-9.24-9.22c-1.77-4.3-1.75-8.61,0.06-12.92c1.9-4.52,5.04-7.61,9.41-9.29c4.38-1.68,8.72-1.61,13.01,0.19
		c2.88,1.21,5.23,3.02,7.06,5.42c1.83,2.41,2.94,5.12,3.33,8.15C655.84,519.72,655.44,522.64,654.26,525.45z M648.68,523.04
		c1.17-2.79,1.19-5.53,0.05-8.24s-3.2-4.69-6.19-5.95c-3.33-1.4-6.46-1.31-9.4,0.27c-2.29,1.22-3.94,3.03-4.95,5.44
		c-1.14,2.72-1.13,5.44,0.03,8.18s3.18,4.71,6.06,5.92c2.86,1.2,5.69,1.26,8.49,0.17C645.55,527.72,647.52,525.8,648.68,523.04z"/>
	<path class="st2" d="M642.59,548.77l-3.71,6.36c-2.39,4.1-4.68,6.84-6.86,8.24c-2.18,1.4-4.79,2.07-7.83,2.03
		c-3.04-0.05-6.09-0.96-9.14-2.74c-2.17-1.27-3.96-2.79-5.36-4.58c-1.4-1.78-2.33-3.66-2.79-5.63c-0.46-1.97-0.49-3.83-0.08-5.58
		c0.4-1.75,1.67-4.45,3.8-8.1l3.77-6.45L642.59,548.77z M634.3,551.08l-17.78-10.38l-1.45,2.49c-1.43,2.45-2.19,4.4-2.27,5.83
		c-0.08,1.43,0.34,2.89,1.26,4.37c0.92,1.48,2.35,2.79,4.3,3.92c2.99,1.75,5.8,2.26,8.43,1.55c2.36-0.64,4.52-2.63,6.47-5.96
		L634.3,551.08z"/>
	<path class="st2" d="M624.63,578.08l-10.52,14.38l-4.91-3.59l6.88-9.4l-4.76-3.48l-6.88,9.4l-4.82-3.52l6.88-9.4l-6.93-5.07
		l-6.88,9.4l-4.92-3.6l10.52-14.38L624.63,578.08z"/>
	<path class="st2" d="M584.14,588.16c-0.71,0.81-1.6,1.26-2.66,1.34s-1.98-0.22-2.77-0.92s-1.21-1.57-1.27-2.63
		c-0.06-1.06,0.26-1.99,0.96-2.79s1.58-1.23,2.64-1.3c1.05-0.07,1.98,0.25,2.76,0.94c0.79,0.69,1.21,1.56,1.28,2.61
		C585.15,586.46,584.84,587.37,584.14,588.16z M599.88,596.38l3.84-4.36c2.16,1.86,3.28,4.15,3.36,6.87
		c0.08,2.72-0.95,5.29-3.09,7.72c-1.38,1.57-2.84,2.64-4.39,3.23c-1.54,0.59-3.15,0.74-4.82,0.44c-1.67-0.3-3.1-0.98-4.3-2.03
		c-0.66-0.58-1.21-1.25-1.65-2.02c-0.45-0.77-0.8-1.67-1.07-2.72c-0.15-0.61-0.25-1.82-0.28-3.65c-0.03-1.74-0.11-2.89-0.26-3.45
		c-0.14-0.56-0.44-1.19-0.9-1.88c-0.45-0.7-1.19-1.53-2.22-2.52l3.98-4.51l0.76,0.64c1.49,1.31,2.6,2.77,3.33,4.39
		c0.74,1.61,1.1,3.5,1.09,5.66c0,2.08,0.08,3.42,0.25,4.01c0.17,0.59,0.52,1.11,1.04,1.57c0.71,0.62,1.57,0.86,2.59,0.7
		c1.02-0.16,1.97-0.74,2.85-1.74c0.9-1.02,1.34-2.12,1.31-3.31S600.82,597.23,599.88,596.38z"/>
	<path class="st2" d="M564.41,636.57l0.84-6.08c2.69,0.65,4.67,0.43,5.94-0.66c0.62-0.53,0.98-1.13,1.09-1.8s-0.02-1.21-0.37-1.63
		c-0.36-0.42-0.83-0.69-1.43-0.81c-0.81-0.17-2.87-0.24-6.19-0.21c-3.09,0.04-5,0.03-5.71-0.03c-1.78-0.14-3.25-0.48-4.41-1.02
		c-1.16-0.54-2.18-1.33-3.08-2.37c-1.75-2.03-2.49-4.31-2.22-6.84c0.26-2.53,1.53-4.77,3.78-6.71c1.76-1.52,3.67-2.41,5.72-2.67
		c2.05-0.26,4.34,0.13,6.86,1.18l-1.91,5.79c-3.07-1.16-5.38-1.08-6.93,0.25c-0.81,0.7-1.29,1.52-1.43,2.46s0.05,1.72,0.58,2.34
		c0.48,0.56,1.17,0.94,2.07,1.15c0.9,0.2,2.55,0.27,4.96,0.21c4.59-0.12,7.79,0.08,9.6,0.6c1.81,0.52,3.23,1.37,4.25,2.56
		c1.48,1.72,2.09,3.75,1.84,6.1c-0.25,2.35-1.34,4.36-3.26,6.01c-1.24,1.06-2.66,1.79-4.27,2.18
		C569.12,636.97,567.01,636.97,564.41,636.57z"/>
	<path class="st2" d="M560.43,645.29l-14.47,10.39l-3.55-4.94l9.46-6.79l-3.44-4.79l-9.46,6.79l-3.48-4.85l9.46-6.79l-5.01-6.98
		l-9.46,6.79l-3.56-4.96l14.47-10.39L560.43,645.29z"/>
	<path class="st2" d="M525.74,668.81c-4.04,2.24-8.32,2.71-12.85,1.41c-4.53-1.31-7.96-4.06-10.3-8.26
		c-2.32-4.16-2.84-8.48-1.58-12.96s3.94-7.85,8.02-10.13c4.28-2.38,8.66-2.88,13.14-1.5s7.85,4.11,10.12,8.18
		c1.52,2.73,2.25,5.6,2.21,8.62c-0.05,3.02-0.85,5.84-2.42,8.47C530.52,665.27,528.41,667.32,525.74,668.81z M522.84,663.46
		c2.64-1.47,4.35-3.62,5.13-6.46c0.78-2.84,0.38-5.67-1.2-8.5c-1.75-3.15-4.28-5.02-7.56-5.59c-2.56-0.46-4.98-0.05-7.25,1.22
		c-2.57,1.43-4.25,3.58-5.03,6.45s-0.41,5.67,1.11,8.4c1.51,2.71,3.7,4.5,6.57,5.37C517.49,665.21,520.23,664.92,522.84,663.46z"/>
	<path class="st2" d="M502.5,679.75l-5.79,2.32l-7.87-19.59c-0.68-1.69-1.3-2.82-1.88-3.4s-1.29-0.94-2.14-1.09
		c-0.85-0.15-1.75-0.02-2.71,0.36c-1.02,0.41-1.8,0.99-2.34,1.75c-0.55,0.76-0.82,1.56-0.81,2.39s0.42,2.26,1.23,4.29l7.58,18.87
		l-5.79,2.32l-7.25-18.06c-1.22-3.05-1.9-5.23-2.03-6.55s0.07-2.72,0.59-4.21c0.53-1.49,1.32-2.75,2.37-3.78
		c1.05-1.04,2.41-1.89,4.09-2.56c2.2-0.88,4.31-1.15,6.34-0.79c2.03,0.36,3.7,1.15,5.01,2.39c1.31,1.24,2.69,3.66,4.14,7.27
		L502.5,679.75z"/>
	<path class="st2" d="M472.93,690.91l-5.95,1.78l-7.63-25.6l-8.68,2.59l-1.69-5.68l14.63-4.36L472.93,690.91z"/>
	<path class="st2" d="M422.35,703.11c-4.58,0.61-8.74-0.52-12.47-3.39c-3.74-2.87-5.93-6.69-6.57-11.46
		c-0.63-4.72,0.46-8.93,3.27-12.64c2.81-3.71,6.54-5.87,11.17-6.49c4.86-0.65,9.12,0.49,12.78,3.41c3.66,2.93,5.8,6.7,6.42,11.32
		c0.42,3.09,0.05,6.04-1.1,8.83c-1.15,2.8-2.93,5.13-5.34,7S425.37,702.7,422.35,703.11z M421.61,697.07
		c2.99-0.4,5.37-1.78,7.13-4.14c1.76-2.36,2.43-5.14,2-8.35c-0.48-3.58-2.14-6.24-4.99-7.97c-2.21-1.36-4.61-1.87-7.2-1.52
		c-2.92,0.39-5.27,1.78-7.04,4.17c-1.77,2.39-2.45,5.13-2.04,8.22c0.41,3.08,1.8,5.55,4.15,7.4S418.64,697.47,421.61,697.07z"/>
	<path class="st2" d="M396.87,704.7l-7.36,0.12c-4.74,0.08-8.28-0.45-10.6-1.59c-2.32-1.14-4.25-3.02-5.79-5.64
		c-1.54-2.62-2.33-5.7-2.39-9.24c-0.04-2.51,0.34-4.83,1.14-6.95s1.92-3.89,3.37-5.3s3.02-2.4,4.73-2.96
		c1.71-0.56,4.67-0.88,8.9-0.94l7.47-0.12L396.87,704.7z M390.61,698.81l-0.33-20.59l-2.88,0.05c-2.84,0.05-4.89,0.4-6.16,1.08
		c-1.27,0.67-2.3,1.79-3.09,3.34c-0.79,1.55-1.16,3.46-1.13,5.71c0.06,3.46,1.07,6.14,3.04,8.02c1.77,1.69,4.59,2.5,8.45,2.44
		L390.61,698.81z"/>
	<path class="st2" d="M362.03,704.27l-17.73-1.74l0.59-6.05l11.59,1.14l0.58-5.87l-11.59-1.14l0.58-5.94l11.59,1.14l0.84-8.55
		l-11.59-1.14l0.6-6.07l17.73,1.74L362.03,704.27z"/>
	<path class="st2" d="M333.67,692.28l5.71,1.09c-0.51,2.8-1.91,4.93-4.21,6.38c-2.3,1.45-5.04,1.88-8.22,1.27
		c-2.05-0.39-3.72-1.1-5.01-2.13c-1.29-1.03-2.24-2.34-2.83-3.93c-0.59-1.59-0.74-3.17-0.44-4.74c0.16-0.86,0.46-1.67,0.9-2.45
		s1.03-1.54,1.8-2.3c0.45-0.44,1.45-1.14,3-2.09c1.48-0.91,2.43-1.56,2.84-1.97c0.41-0.41,0.8-0.99,1.17-1.73
		c0.37-0.74,0.72-1.81,1.04-3.19l5.91,1.13l-0.17,0.99c-0.37,1.95-1.07,3.65-2.08,5.1c-1.02,1.46-2.46,2.73-4.32,3.81
		c-1.8,1.06-2.91,1.81-3.32,2.25c-0.42,0.45-0.69,1.01-0.82,1.7c-0.18,0.93,0.06,1.79,0.71,2.59c0.65,0.79,1.63,1.32,2.94,1.57
		c1.34,0.26,2.51,0.07,3.52-0.55C332.79,694.45,333.42,693.52,333.67,692.28z M332.75,674.55c-1.06-0.2-1.9-0.74-2.5-1.61
		c-0.61-0.87-0.81-1.82-0.62-2.85s0.74-1.84,1.62-2.43s1.85-0.79,2.89-0.59c1.05,0.2,1.87,0.74,2.46,1.61s0.79,1.83,0.59,2.86
		c-0.2,1.03-0.73,1.84-1.6,2.43C334.73,674.55,333.78,674.74,332.75,674.55z"/>
	<path class="st2" d="M281.03,682.11l5.67-2.36c0.8,2.65,2,4.25,3.58,4.79c0.77,0.26,1.47,0.27,2.1,0.03s1.04-0.63,1.21-1.14
		c0.18-0.52,0.17-1.07-0.02-1.65c-0.27-0.78-1.25-2.59-2.96-5.44c-1.6-2.64-2.56-4.29-2.87-4.94c-0.78-1.61-1.23-3.05-1.35-4.32
		c-0.12-1.27,0.04-2.55,0.48-3.86c0.87-2.53,2.46-4.33,4.77-5.38c2.32-1.05,4.88-1.1,7.7-0.14c2.2,0.75,3.93,1.94,5.2,3.58
		c1.27,1.63,2.08,3.81,2.46,6.51l-5.96,1.29c-0.55-3.24-1.8-5.19-3.73-5.85c-1.01-0.34-1.96-0.34-2.85,0.01s-1.46,0.92-1.73,1.68
		c-0.24,0.7-0.22,1.49,0.06,2.37c0.28,0.88,1.06,2.34,2.33,4.38c2.43,3.89,3.88,6.75,4.35,8.58c0.47,1.83,0.46,3.48-0.05,4.97
		c-0.73,2.14-2.17,3.7-4.33,4.68c-2.16,0.98-4.43,1.05-6.83,0.24c-1.54-0.53-2.89-1.38-4.04-2.57
		C283.07,686.37,282.01,684.55,281.03,682.11z"/>
	<path class="st2" d="M271.49,683.09l-16.29-7.23l2.47-5.56l10.65,4.72l2.39-5.4l-10.65-4.72l2.42-5.46l10.65,4.72l3.48-7.85
		l-10.65-4.72l2.47-5.58l16.29,7.23L271.49,683.09z"/>
	<path class="st2" d="M233.65,665.05c-3.98-2.35-6.55-5.8-7.71-10.37c-1.16-4.57-0.52-8.92,1.92-13.06
		c2.42-4.1,5.88-6.74,10.38-7.92s8.76-0.57,12.79,1.8c4.22,2.49,6.87,6.02,7.94,10.58c1.07,4.56,0.42,8.85-1.94,12.87
		c-1.59,2.69-3.69,4.78-6.33,6.26c-2.63,1.49-5.47,2.22-8.53,2.2C239.12,667.39,236.28,666.6,233.65,665.05z M236.8,659.85
		c2.6,1.54,5.32,1.92,8.16,1.16c2.84-0.76,5.08-2.54,6.73-5.33c1.83-3.11,2.17-6.23,1-9.35c-0.9-2.44-2.47-4.32-4.72-5.64
		c-2.54-1.5-5.24-1.86-8.11-1.07s-5.09,2.52-6.68,5.2c-1.58,2.68-2.02,5.47-1.31,8.39S234.22,658.33,236.8,659.85z"/>
	<path class="st2" d="M212.45,650.53l-4.93-3.81l12.91-16.7c1.11-1.44,1.77-2.55,1.98-3.34c0.21-0.79,0.16-1.59-0.14-2.39
		s-0.86-1.52-1.68-2.16c-0.87-0.67-1.77-1.05-2.7-1.13c-0.93-0.09-1.76,0.08-2.47,0.51c-0.71,0.43-1.74,1.51-3.08,3.24l-12.43,16.09
		l-4.93-3.81l11.9-15.4c2.01-2.6,3.55-4.29,4.62-5.07c1.07-0.78,2.38-1.32,3.93-1.62c1.55-0.3,3.04-0.26,4.46,0.12
		c1.43,0.38,2.85,1.12,4.28,2.23c1.87,1.45,3.17,3.14,3.89,5.07c0.72,1.93,0.88,3.78,0.48,5.53c-0.4,1.75-1.79,4.17-4.17,7.25
		L212.45,650.53z"/>
	<path class="st2" d="M187.87,630.71l-4.55-4.23l18.19-19.57l-6.63-6.16l4.03-4.34l11.18,10.39L187.87,630.71z"/>
	<path class="st2" d="M151.7,593.36c-2.86-3.63-4-7.78-3.43-12.46c0.57-4.68,2.75-8.51,6.52-11.48c3.74-2.95,7.92-4.15,12.54-3.62
		s8.38,2.64,11.27,6.32c3.03,3.85,4.22,8.1,3.56,12.74s-2.81,8.41-6.48,11.29c-2.45,1.93-5.17,3.11-8.17,3.55s-5.91,0.09-8.74-1.04
		C155.95,597.52,153.59,595.76,151.7,593.36z M156.52,589.65c1.87,2.37,4.27,3.72,7.19,4.04c2.92,0.32,5.66-0.53,8.2-2.53
		c2.84-2.23,4.28-5.02,4.32-8.35c0.04-2.6-0.74-4.92-2.35-6.97c-1.82-2.31-4.21-3.63-7.17-3.94c-2.96-0.31-5.66,0.5-8.11,2.43
		c-2.44,1.92-3.86,4.37-4.26,7.34S154.67,587.3,156.52,589.65z"/>
	<path class="st2" d="M136.97,571.87l-3.76-6.32c-2.43-4.08-3.72-7.41-3.89-9.99s0.5-5.19,2.01-7.83c1.51-2.64,3.79-4.86,6.82-6.67
		c2.16-1.29,4.36-2.11,6.6-2.47s4.33-0.26,6.28,0.29c1.95,0.55,3.59,1.43,4.92,2.63c1.33,1.2,3.08,3.62,5.25,7.25l3.82,6.42
		L136.97,571.87z M138.97,563.5l17.69-10.53l-1.48-2.48c-1.45-2.44-2.79-4.04-4-4.81c-1.21-0.77-2.69-1.1-4.43-1.02
		c-1.74,0.09-3.58,0.71-5.51,1.86c-2.98,1.77-4.79,3.98-5.44,6.62c-0.58,2.38,0.11,5.23,2.09,8.54L138.97,563.5z"/>
	<path class="st2" d="M120.03,541.97l-7.48-16.17l5.52-2.55l4.89,10.57l5.36-2.48l-4.89-10.57l5.42-2.51l4.89,10.57l7.79-3.61
		l-4.89-10.57l5.54-2.56l7.48,16.17L120.03,541.97z"/>
	<path class="st2" d="M116,511.41l1.95,5.48c-2.67,0.98-5.22,0.85-7.64-0.39c-2.42-1.25-4.17-3.39-5.25-6.45
		c-0.7-1.97-0.93-3.77-0.7-5.4c0.23-1.64,0.89-3.11,1.96-4.43c1.07-1.31,2.36-2.24,3.87-2.77c0.82-0.29,1.68-0.45,2.57-0.46
		s1.85,0.11,2.89,0.39c0.61,0.16,1.71,0.67,3.32,1.53c1.53,0.82,2.58,1.3,3.14,1.45c0.56,0.15,1.26,0.19,2.08,0.13
		s1.92-0.3,3.28-0.72l2.01,5.67l-0.93,0.36c-1.87,0.66-3.69,0.92-5.46,0.78s-3.59-0.74-5.48-1.8c-1.82-1.02-3.03-1.59-3.63-1.73
		c-0.6-0.13-1.22-0.08-1.88,0.15c-0.89,0.32-1.52,0.96-1.87,1.92c-0.35,0.97-0.31,2.08,0.14,3.33c0.46,1.28,1.21,2.2,2.26,2.75
		C113.68,511.75,114.8,511.82,116,511.41z M130.82,501.65c-0.36-1.02-0.32-2.01,0.12-2.97c0.44-0.96,1.16-1.62,2.15-1.98
		s1.96-0.3,2.92,0.16c0.96,0.46,1.61,1.19,1.97,2.2c0.36,1,0.31,1.98-0.15,2.94c-0.45,0.95-1.18,1.61-2.17,1.96
		c-0.99,0.35-1.96,0.3-2.9-0.15C131.82,503.36,131.17,502.64,130.82,501.65z"/>
	<path class="st2" d="M98.12,460.87l4.9,3.69c-1.88,2.03-2.65,3.87-2.32,5.51c0.16,0.8,0.51,1.41,1.04,1.83
		c0.53,0.42,1.07,0.58,1.6,0.47s1.01-0.39,1.41-0.86c0.54-0.62,1.6-2.39,3.2-5.3c1.47-2.72,2.4-4.38,2.81-4.98
		c0.99-1.49,2.01-2.61,3.04-3.36c1.03-0.75,2.22-1.26,3.57-1.54c2.62-0.54,4.98-0.07,7.06,1.39c2.08,1.46,3.42,3.65,4.02,6.57
		c0.47,2.28,0.31,4.38-0.46,6.29c-0.77,1.92-2.23,3.72-4.37,5.42l-4.13-4.48c2.51-2.12,3.56-4.18,3.15-6.18
		c-0.21-1.04-0.7-1.86-1.45-2.45c-0.75-0.59-1.53-0.8-2.33-0.64c-0.72,0.15-1.39,0.57-2.01,1.25c-0.61,0.69-1.48,2.09-2.6,4.23
		c-2.13,4.07-3.86,6.76-5.2,8.1c-1.34,1.33-2.77,2.16-4.31,2.47c-2.22,0.45-4.29,0-6.23-1.37c-1.93-1.37-3.15-3.29-3.66-5.77
		c-0.33-1.6-0.27-3.19,0.18-4.79S96.51,462.95,98.12,460.87z"/>
	<path class="st2" d="M92.45,453.13l-2.02-17.7l6.04-0.69l1.32,11.57l5.86-0.67l-1.32-11.57l5.93-0.68l1.32,11.57l8.53-0.97
		l-1.32-11.57l6.06-0.69l2.02,17.7L92.45,453.13z"/>
	<path class="st2" d="M88.82,412.08c-0.07-4.62,1.53-8.62,4.82-11.99c3.29-3.38,7.34-5.1,12.14-5.18c4.76-0.08,8.82,1.5,12.17,4.72
		c3.35,3.22,5.06,7.18,5.14,11.85c0.08,4.9-1.55,9-4.88,12.29c-3.33,3.3-7.33,4.98-11.99,5.06c-3.12,0.05-6-0.66-8.65-2.12
		c-2.64-1.47-4.75-3.51-6.32-6.13C89.68,417.96,88.87,415.13,88.82,412.08z M94.9,412.04c0.05,3.02,1.14,5.54,3.27,7.57
		c2.13,2.02,4.82,3.01,8.06,2.96c3.61-0.06,6.44-1.4,8.5-4.03c1.61-2.04,2.39-4.36,2.35-6.97c-0.05-2.95-1.15-5.44-3.32-7.48
		c-2.16-2.04-4.81-3.03-7.93-2.98c-3.11,0.05-5.72,1.14-7.84,3.26C95.88,406.5,94.85,409.05,94.9,412.04z"/>
	<path class="st2" d="M90.54,385.8l0.77-6.19l20.94,2.62c1.8,0.23,3.1,0.23,3.89,0c0.79-0.22,1.45-0.67,1.99-1.34
		c0.54-0.67,0.87-1.52,1-2.55c0.14-1.09,0-2.05-0.4-2.9c-0.4-0.85-0.97-1.47-1.7-1.87c-0.73-0.4-2.18-0.73-4.35-1l-20.17-2.52
		l0.77-6.19l19.31,2.41c3.26,0.41,5.5,0.87,6.71,1.4c1.22,0.52,2.35,1.38,3.39,2.56s1.77,2.48,2.16,3.9s0.48,3.03,0.26,4.82
		c-0.29,2.35-1.09,4.33-2.38,5.93s-2.8,2.68-4.52,3.23c-1.72,0.55-4.5,0.58-8.36,0.09L90.54,385.8z"/>
	<path class="st2" d="M95.11,354.55l1.33-6.07l26.09,5.73l1.94-8.84l5.79,1.27l-3.27,14.91L95.11,354.55z"/>
	<path class="st2" d="M108.95,304.4c1.68-4.3,4.69-7.39,9.01-9.27c4.32-1.88,8.72-1.94,13.2-0.19c4.44,1.73,7.59,4.73,9.47,8.99
		c1.88,4.25,1.96,8.56,0.26,12.92c-1.78,4.56-4.84,7.74-9.18,9.52s-8.67,1.83-13.01,0.13c-2.91-1.14-5.3-2.89-7.19-5.25
		c-1.89-2.36-3.06-5.05-3.53-8.07C107.52,310.17,107.84,307.24,108.95,304.4z M114.59,306.68c-1.1,2.81-1.05,5.56,0.16,8.24
		c1.21,2.68,3.32,4.61,6.33,5.79c3.36,1.31,6.49,1.15,9.39-0.5c2.26-1.28,3.87-3.13,4.82-5.56c1.07-2.74,1-5.47-0.23-8.18
		c-1.23-2.71-3.3-4.63-6.2-5.77c-2.89-1.13-5.72-1.12-8.49,0.04C117.61,301.92,115.68,303.89,114.59,306.68z"/>
	<path class="st2" d="M120.04,280.81l3.55-6.45c2.29-4.16,4.51-6.96,6.65-8.41s4.73-2.19,7.77-2.22c3.04-0.03,6.11,0.81,9.2,2.52
		c2.2,1.21,4.02,2.7,5.47,4.44c1.44,1.75,2.42,3.6,2.93,5.56c0.51,1.96,0.58,3.82,0.22,5.58c-0.36,1.76-1.56,4.49-3.6,8.19
		l-3.61,6.54L120.04,280.81z M128.26,278.3l18.03,9.94l1.39-2.53c1.37-2.49,2.08-4.45,2.13-5.88s-0.41-2.88-1.36-4.34
		c-0.96-1.46-2.42-2.73-4.39-3.81c-3.03-1.67-5.86-2.12-8.46-1.35c-2.35,0.7-4.45,2.74-6.32,6.12L128.26,278.3z"/>
	<path class="st2" d="M137.27,251.06l10.16-14.64l4.99,3.47l-6.64,9.57l4.85,3.37l6.64-9.57l4.9,3.4l-6.64,9.57l7.05,4.9l6.64-9.57
		l5.01,3.48l-10.16,14.64L137.27,251.06z"/>
	<path class="st2" d="M161.57,232.14l-3.74,4.45c-2.2-1.81-3.38-4.07-3.53-6.78c-0.15-2.71,0.81-5.31,2.9-7.79
		c1.34-1.6,2.78-2.71,4.31-3.34c1.53-0.63,3.13-0.81,4.81-0.56c1.68,0.26,3.13,0.9,4.35,1.93c0.67,0.56,1.24,1.22,1.7,1.98
		c0.47,0.76,0.84,1.65,1.13,2.69c0.17,0.6,0.29,1.82,0.37,3.64c0.07,1.74,0.18,2.89,0.34,3.44s0.47,1.18,0.94,1.86
		c0.47,0.68,1.23,1.5,2.28,2.46l-3.86,4.61l-0.78-0.62c-1.52-1.27-2.67-2.71-3.44-4.31c-0.77-1.6-1.18-3.47-1.23-5.63
		c-0.05-2.08-0.16-3.42-0.35-4c-0.19-0.58-0.55-1.1-1.08-1.54c-0.73-0.61-1.59-0.82-2.61-0.64c-1.01,0.18-1.95,0.78-2.8,1.8
		c-0.88,1.04-1.29,2.16-1.23,3.34C160.1,230.31,160.61,231.32,161.57,232.14z M177.5,239.97c0.69-0.83,1.57-1.29,2.62-1.4
		c1.06-0.11,1.99,0.18,2.79,0.85c0.8,0.68,1.25,1.54,1.34,2.6c0.09,1.06-0.21,2-0.9,2.81c-0.68,0.82-1.55,1.27-2.61,1.36
		c-1.05,0.09-1.98-0.2-2.79-0.87c-0.8-0.67-1.25-1.53-1.34-2.58C176.54,241.7,176.83,240.78,177.5,239.97z"/>
	<path class="st2" d="M196.05,191.09l-0.69,6.1c-2.71-0.59-4.68-0.32-5.92,0.81c-0.6,0.55-0.95,1.16-1.05,1.83
		c-0.09,0.67,0.05,1.21,0.41,1.62c0.37,0.41,0.85,0.67,1.45,0.78c0.81,0.15,2.87,0.16,6.19,0.06c3.09-0.12,4.99-0.16,5.71-0.11
		c1.79,0.1,3.27,0.4,4.43,0.91s2.21,1.27,3.14,2.29c1.8,1.99,2.59,4.25,2.39,6.78c-0.2,2.54-1.41,4.8-3.62,6.8
		c-1.73,1.56-3.61,2.49-5.65,2.81c-2.04,0.31-4.34-0.03-6.89-1.01l1.76-5.84c3.1,1.09,5.41,0.95,6.92-0.42
		c0.79-0.72,1.25-1.55,1.37-2.49s-0.09-1.72-0.64-2.33c-0.5-0.55-1.19-0.91-2.1-1.1c-0.9-0.18-2.56-0.21-4.96-0.09
		c-4.58,0.23-7.79,0.11-9.61-0.36c-1.83-0.47-3.26-1.29-4.32-2.46c-1.52-1.68-2.18-3.7-1.98-6.06c0.19-2.36,1.23-4.39,3.11-6.08
		c1.21-1.09,2.61-1.85,4.21-2.28S193.43,190.76,196.05,191.09z"/>
	<path class="st2" d="M199.8,182.29l14.21-10.74l3.67,4.85l-9.29,7.02l3.56,4.71l9.29-7.02l3.6,4.76l-9.29,7.02l5.18,6.85l9.29-7.02
		l3.68,4.87l-14.21,10.74L199.8,182.29z"/>
	<path class="st2" d="M233.89,157.93c3.98-2.34,8.25-2.92,12.81-1.73c4.56,1.19,8.06,3.86,10.5,8c2.42,4.1,3.05,8.41,1.9,12.92
		s-3.74,7.95-7.77,10.32c-4.22,2.49-8.59,3.09-13.1,1.82c-4.51-1.27-7.95-3.92-10.32-7.93c-1.58-2.69-2.39-5.54-2.42-8.57
		c-0.03-3.02,0.71-5.86,2.21-8.52C229.2,161.58,231.26,159.48,233.89,157.93z M236.92,163.2c-2.6,1.53-4.26,3.73-4.96,6.58
		c-0.71,2.85-0.24,5.68,1.41,8.47c1.83,3.11,4.4,4.91,7.7,5.41c2.57,0.39,4.98-0.07,7.22-1.4c2.54-1.5,4.16-3.69,4.87-6.58
		s0.27-5.68-1.32-8.37c-1.58-2.68-3.81-4.41-6.7-5.21C242.23,161.32,239.5,161.69,236.92,163.2z"/>
	<path class="st2" d="M256.87,146.41l5.73-2.47l8.35,19.38c0.72,1.67,1.37,2.79,1.96,3.35c0.59,0.57,1.31,0.91,2.16,1.04
		c0.85,0.12,1.75-0.02,2.7-0.43c1-0.43,1.77-1.04,2.3-1.81c0.53-0.77,0.78-1.58,0.75-2.41c-0.03-0.83-0.48-2.25-1.34-4.26
		l-8.04-18.67l5.73-2.47l7.7,17.87c1.3,3.02,2.03,5.18,2.19,6.5c0.16,1.31,0,2.72-0.49,4.22s-1.25,2.78-2.27,3.84
		c-1.02,1.06-2.37,1.95-4.02,2.66c-2.17,0.94-4.28,1.25-6.32,0.95s-3.73-1.06-5.07-2.26c-1.34-1.2-2.78-3.59-4.32-7.16
		L256.87,146.41z"/>
	<path class="st2" d="M286.14,134.52l5.91-1.92l8.27,25.4l8.61-2.8l1.83,5.63l-14.52,4.73L286.14,134.52z"/>
</g>
<g>
	<path class="st3" d="M515.86,372.09l-193.82-54.4c-3.41-0.96-7.05,0.83-8.09,3.96l0,0c-1.04,3.14,0.9,6.49,4.31,7.45l193.82,54.4
		c3.41,0.96,7.05-0.83,8.09-3.96l0,0C521.22,376.39,519.28,373.04,515.86,372.09z"/>
	<path class="st3" d="M243.61,371.23l72.76-51.38c2.03-1.44,4.97-1.08,6.54,0.79l2.22,2.66c1.56,1.87,1.17,4.58-0.86,6.01
		l-72.76,51.38c-2.03,1.44-4.97,1.08-6.54-0.79l-2.22-2.66C241.19,375.37,241.58,372.66,243.61,371.23z"/>
	<line class="st4" x1="267.11" y1="371.47" x2="268.73" y2="466.91"/>
	<line class="st4" x1="495.69" y1="378.93" x2="498.93" y2="462.44"/>
	<path class="st4" d="M371.1,385.2l-61.51,2.02c-5.22,0.17-9.64-3.62-9.83-8.42l-0.31-7.9c-0.19-4.8,3.93-8.87,9.15-9.04l61.51-2.02
		c5.22-0.17,9.64,3.62,9.83,8.42l0.31,7.9C380.44,380.96,376.32,385.03,371.1,385.2z"/>
	<path class="st4" d="M458.68,359.54h-15.16c-3.41,0-6.2-2.79-6.2-6.2v-23.39c0-3.41,2.79-6.2,6.2-6.2h15.16
		c3.41,0,6.2,2.79,6.2,6.2v23.39C464.89,356.75,462.1,359.54,458.68,359.54z"/>
	<polygon class="st4" points="464.99,420.96 295.31,420.96 306.97,405.31 452.04,404.01 	"/>
	<line class="st4" x1="315.74" y1="420.68" x2="315.74" y2="466.91"/>
	<line class="st4" x1="445.43" y1="420.68" x2="447.05" y2="466.91"/>
	<line class="st5" x1="335.2" y1="434.1" x2="335.2" y2="466.91"/>
	<line class="st5" x1="375.73" y1="434.1" x2="375.73" y2="466.91"/>
	<line class="st5" x1="335.2" y1="434.1" x2="375.73" y2="434.1"/>
	<line class="st5" x1="344.92" y1="466.91" x2="344.92" y2="434.1"/>
	<line class="st5" x1="366" y1="466.91" x2="366" y2="434.1"/>
	<line class="st5" x1="395.18" y1="453.49" x2="437.33" y2="453.49"/>
	<line class="st5" x1="403.28" y1="450.51" x2="403.28" y2="440.07"/>
	<line class="st5" x1="429.22" y1="453.49" x2="429.22" y2="440.07"/>
	<line class="st5" x1="403.28" y1="440.07" x2="429.22" y2="440.07"/>
	<line class="st5" x1="416.25" y1="453.49" x2="416.25" y2="440.07"/>
	<line class="st5" x1="301.15" y1="447.53" x2="284.94" y2="447.53"/>
	<line class="st5" x1="284.3" y1="430.72" x2="284.94" y2="447.53"/>
	<line class="st5" x1="301.15" y1="431.12" x2="301.15" y2="447.53"/>
	<line class="st5" x1="284.3" y1="430.72" x2="300.34" y2="430.72"/>
	<line class="st5" x1="481.1" y1="449.02" x2="464.89" y2="449.02"/>
	<line class="st5" x1="464.24" y1="432.21" x2="464.89" y2="449.02"/>
	<line class="st5" x1="481.1" y1="432.61" x2="481.1" y2="449.02"/>
	<line class="st5" x1="464.24" y1="432.21" x2="480.29" y2="432.21"/>
	<line class="st5" x1="218.48" y1="466.91" x2="550.8" y2="466.91"/>
	<line class="st5" x1="195.78" y1="498.23" x2="571.88" y2="499.72"/>
	<line class="st5" x1="249.28" y1="468.4" x2="224.96" y2="498.23"/>
	<line class="st5" x1="283.32" y1="466.91" x2="268.73" y2="498.23"/>
	<line class="st5" x1="318.99" y1="466.91" x2="310.88" y2="498.23"/>
	<line class="st5" x1="356.27" y1="468.4" x2="356.27" y2="498.23"/>
	<line class="st5" x1="393.56" y1="468.4" x2="396.8" y2="498.23"/>
	<line class="st5" x1="429.22" y1="468.4" x2="438.95" y2="498.23"/>
	<line class="st5" x1="464.89" y1="466.91" x2="485.96" y2="499.72"/>
	<line class="st5" x1="503.79" y1="468.4" x2="542.7" y2="499.72"/>
</g>
<path class="st6" d="M235.92,340.96c15.02,8.84,37.26-1.1,37.26-1.1s-2.11-24.27-17.14-33.11c-15.02-8.84-37.26,1.1-37.26,1.1
	S220.9,332.12,235.92,340.96z"/>
<path class="st6" d="M270.38,295.8c-6.13,12.39,2.05,28.94,2.05,28.94s18.11-3.55,24.24-15.94s-2.05-28.94-2.05-28.94
	S276.51,283.4,270.38,295.8z"/>
</svg>
