<?xml version="1.0" encoding="utf-8"?>
<!-- Generator: Adobe Illustrator 27.4.0, SVG Export Plug-In . SVG Version: 6.00 Build 0)  -->
<svg version="1.1" id="레이어_1" xmlns="http://www.w3.org/2000/svg" xmlns:xlink="http://www.w3.org/1999/xlink" x="0px"
	 y="0px" viewBox="0 0 762.52 822.05" style="enable-background:new 0 0 762.52 822.05;" xml:space="preserve">
<style type="text/css">
	.st0{fill:none;stroke:#463C33;stroke-width:3;stroke-miterlimit:10;}
	.st1{fill:none;stroke:#463C33;stroke-width:3;stroke-linecap:round;stroke-linejoin:round;stroke-dasharray:3.0057,6.0113;}
	.st2{fill:none;}
	.st3{fill:#463C33;stroke:#463C33;stroke-width:4;stroke-miterlimit:10;}
	.st4{fill:none;stroke:#463C33;stroke-width:4;stroke-miterlimit:10;}
	.st5{fill:none;stroke:#463C33;stroke-width:4;stroke-linecap:round;stroke-linejoin:round;stroke-miterlimit:10;}
	.st6{fill:#ABB868;}
</style>
<g>
	<g>
		<g>
			<circle class="st0" cx="381.26" cy="411.02" r="319.3"/>
			<circle class="st0" cx="381.26" cy="411.02" r="249.94"/>
			<circle class="st0" cx="381.26" cy="411.02" r="224.82"/>
			<g>
				<circle class="st1" cx="381.26" cy="411.02" r="236.78"/>
			</g>
		</g>
		<path id="SVGID_x5F_1_x5F_" class="st2" d="M643.67,411.56c0,143.98-116.72,260.7-260.7,260.7s-260.7-116.72-260.7-260.7
			s116.72-260.7,260.7-260.7S643.67,267.58,643.67,411.56z"/>
		<text>		<textPath  xlink:href="#SVGID_x5F_1_x5F_" startOffset="96.289%">
<tspan  style="fill:#463C33; font-family:'CenturyGothic-Bold'; font-size:45.4428px;">ODE? SEOUL ODE? SEOUL ODE? SEOUL ODE? SEOUL ODE? SEOUL ODE? SEOUL</tspan>		</textPath>
</text>
	</g>
	<g>
		<path class="st3" d="M515.86,372.09l-193.82-54.4c-3.41-0.96-7.05,0.83-8.09,3.96l0,0c-1.04,3.14,0.9,6.49,4.31,7.45l193.82,54.4
			c3.41,0.96,7.05-0.83,8.09-3.96l0,0C521.22,376.39,519.28,373.04,515.86,372.09z"/>
		<path class="st3" d="M243.61,371.23l72.76-51.38c2.03-1.44,4.97-1.08,6.54,0.79l2.22,2.66c1.56,1.87,1.17,4.58-0.86,6.01
			l-72.76,51.38c-2.03,1.44-4.97,1.08-6.54-0.79l-2.22-2.66C241.19,375.37,241.58,372.66,243.61,371.23z"/>
		<line class="st4" x1="267.11" y1="371.47" x2="268.73" y2="466.91"/>
		<line class="st4" x1="495.69" y1="378.93" x2="498.93" y2="462.44"/>
		<path class="st4" d="M371.1,385.2l-61.51,2.02c-5.22,0.17-9.64-3.62-9.83-8.42l-0.31-7.9c-0.19-4.8,3.93-8.87,9.15-9.04
			l61.51-2.02c5.22-0.17,9.64,3.62,9.83,8.42l0.31,7.9C380.44,380.96,376.32,385.03,371.1,385.2z"/>
		<path class="st4" d="M458.68,359.54h-15.16c-3.41,0-6.2-2.79-6.2-6.2v-23.39c0-3.41,2.79-6.2,6.2-6.2h15.16
			c3.41,0,6.2,2.79,6.2,6.2v23.39C464.89,356.75,462.1,359.54,458.68,359.54z"/>
		<polygon class="st4" points="464.99,420.96 295.31,420.96 306.97,405.31 452.04,404.01 		"/>
		<line class="st4" x1="315.74" y1="420.68" x2="315.74" y2="466.91"/>
		<line class="st4" x1="445.43" y1="420.68" x2="447.05" y2="466.91"/>
		<line class="st5" x1="335.2" y1="434.1" x2="335.2" y2="466.91"/>
		<line class="st5" x1="375.73" y1="434.1" x2="375.73" y2="466.91"/>
		<line class="st5" x1="335.2" y1="434.1" x2="375.73" y2="434.1"/>
		<line class="st5" x1="344.92" y1="466.91" x2="344.92" y2="434.1"/>
		<line class="st5" x1="366" y1="466.91" x2="366" y2="434.1"/>
		<line class="st5" x1="395.18" y1="453.49" x2="437.33" y2="453.49"/>
		<line class="st5" x1="403.28" y1="450.51" x2="403.28" y2="440.07"/>
		<line class="st5" x1="429.22" y1="453.49" x2="429.22" y2="440.07"/>
		<line class="st5" x1="403.28" y1="440.07" x2="429.22" y2="440.07"/>
		<line class="st5" x1="416.25" y1="453.49" x2="416.25" y2="440.07"/>
		<line class="st5" x1="301.15" y1="447.53" x2="284.94" y2="447.53"/>
		<line class="st5" x1="284.3" y1="430.72" x2="284.94" y2="447.53"/>
		<line class="st5" x1="301.15" y1="431.12" x2="301.15" y2="447.53"/>
		<line class="st5" x1="284.3" y1="430.72" x2="300.34" y2="430.72"/>
		<line class="st5" x1="481.1" y1="449.02" x2="464.89" y2="449.02"/>
		<line class="st5" x1="464.24" y1="432.21" x2="464.89" y2="449.02"/>
		<line class="st5" x1="481.1" y1="432.61" x2="481.1" y2="449.02"/>
		<line class="st5" x1="464.24" y1="432.21" x2="480.29" y2="432.21"/>
		<line class="st5" x1="218.48" y1="466.91" x2="550.8" y2="466.91"/>
		<line class="st5" x1="195.78" y1="498.23" x2="571.88" y2="499.72"/>
		<line class="st5" x1="249.28" y1="468.4" x2="224.96" y2="498.23"/>
		<line class="st5" x1="283.32" y1="466.91" x2="268.73" y2="498.23"/>
		<line class="st5" x1="318.99" y1="466.91" x2="310.88" y2="498.23"/>
		<line class="st5" x1="356.27" y1="468.4" x2="356.27" y2="498.23"/>
		<line class="st5" x1="393.56" y1="468.4" x2="396.8" y2="498.23"/>
		<line class="st5" x1="429.22" y1="468.4" x2="438.95" y2="498.23"/>
		<line class="st5" x1="464.89" y1="466.91" x2="485.96" y2="499.72"/>
		<line class="st5" x1="503.79" y1="468.4" x2="542.7" y2="499.72"/>
	</g>
	<path class="st6" d="M235.92,340.96c15.02,8.84,37.26-1.1,37.26-1.1s-2.11-24.27-17.14-33.11c-15.02-8.84-37.26,1.1-37.26,1.1
		S220.9,332.12,235.92,340.96z"/>
	<path class="st6" d="M270.38,295.8c-6.13,12.39,2.05,28.94,2.05,28.94s18.11-3.55,24.24-15.94s-2.05-28.94-2.05-28.94
		S276.51,283.4,270.38,295.8z"/>
</g>
</svg>
