<?xml version="1.0" encoding="utf-8"?>
<!-- Generator: Adobe Illustrator 27.4.0, SVG Export Plug-In . SVG Version: 6.00 Build 0)  -->
<svg version="1.1" id="레이어_1" xmlns="http://www.w3.org/2000/svg" xmlns:xlink="http://www.w3.org/1999/xlink" x="0px"
	 y="0px" viewBox="0 0 762.52 822.05" style="enable-background:new 0 0 762.52 822.05;" xml:space="preserve">
<style type="text/css">
	.st0{fill:none;stroke:#463C33;stroke-width:3;stroke-miterlimit:10;}
	.st1{fill:none;stroke:#463C33;stroke-width:3;stroke-linecap:round;stroke-linejoin:round;stroke-dasharray:2.9982,5.9965;}
	.st2{fill:none;}
	.st3{fill:none;stroke:#463C33;stroke-width:4;stroke-linecap:round;stroke-linejoin:round;stroke-miterlimit:10;}
	.st4{fill:#ABB868;}
</style>
<g>
	<g>
		<circle class="st0" cx="381.26" cy="411.02" r="320.44"/>
		<circle class="st0" cx="381.26" cy="411.02" r="250.83"/>
		<circle class="st0" cx="381.26" cy="411.02" r="225.63"/>
		<g>
			<circle class="st1" cx="381.26" cy="411.02" r="237.63"/>
		</g>
	</g>
	<path id="SVGID_x5F_1_x5F_" class="st2" d="M642.47,410.7c0,144.49-117.14,261.63-261.63,261.63S119.21,555.19,119.21,410.7
		s117.14-261.63,261.63-261.63S642.47,266.2,642.47,410.7z"/>
	<text>	<textPath  xlink:href="#SVGID_x5F_1_x5F_" startOffset="96.289%">
<tspan  style="fill:#463C33; font-family:'CenturyGothic-Bold'; font-size:45.6054px;">ODE? SEOUL ODE? SEOUL ODE? SEOUL ODE? SEOUL ODE? SEOUL ODE? SEOUL</tspan>	</textPath>
</text>
	<g>
		<g>
			<path class="st3" d="M216.31,448.66c28.06-44.42,52.07-79.78,84.38-118.1c14.97-17.75,32.94-35.84,52.3-31.5
				c24.21,5.42,37,41.65,49.38,71.31c11.22,26.89,19.44,43.46,35.43,65.08"/>
			<path class="st3" d="M410.85,380.41c13.7-8.28,25.46-28.59,40.06-24.29c9.55,2.82,15.71,15.35,21.56,26.29
				c14.62,27.3,76.1,95.65,97.28,112.48"/>
			<path class="st3" d="M251.66,432.15c18.18-6.9,30.47-13.83,42.55-34.08c7.39-12.39,13.24-26.87,22.3-36.84
				c1.11-1.22,2.4-2.43,3.81-2.29c2.61,0.25,4.41,3.49,4.39,7.16c-0.02,3.66-9.43,26.42-4.71,36.33
				c6.54,13.74,14.14-16.51,17.72-26.88c2.24-6.5,4.27-13.49,8.1-18.33c1.28-1.62,3.12-1.45,4.82-1.03
				c7.25,1.79,7.07,52.84,14.29,14.96c1.61-7.64,3.21-15.29,4.82-22.93c9.5-57.9,30.38,24.48,37.45,31.08"/>
			<path class="st3" d="M327.76,491.7c5.57,1.33,10.29-8.07,8.79-15.71c-1.5-7.64-7.27-12.41-12.9-13.11
				c-5.63-0.7-11.19,1.83-16.53,4.4c3.94-7.04,1.79-18.37-3.45-23.48c-5.24-5.11-12.45-4.79-18.32-1.26s-10.64,9.82-15.07,16.26
				c-2.23-15.44-12.78-27.68-24.02-27.86c-11.24-0.17-21.99,11.74-24.46,27.11c1.58,1.56-13.63-13.93-20.44-7.78
				c-7,6.31-5.51,23.66-0.03,31.86c-2.36-0.85-4.86-1.7-7.2-0.74c-2.34,0.96-4.33,4.47-3.54,7.71c0.59,2.42,2.4,3.75,4.11,4.64
				c10.89,5.69,22.94,2.97,34.55,2.41c18.96-0.92,37.81,4.13,56.77,4.78C302.42,501.49,318.89,498.72,327.76,491.7z"/>
			<path class="st3" d="M378.9,494.89c8.41-15.73,21.88-35.51,32.88-47.7c5.17-5.73,10.93-11.2,17.49-11.97
				c7.6-0.89,14.81,4.68,21.01,10.9c14.81,14.85,23.76,26.22,32.29,48.77"/>
			<path class="st3" d="M397.75,465.17c-2.39,4.14-0.85,11.61,2.54,14.03c2.64,1.88,5.74-0.53,8.18-2.85
				c4.12-3.92,8.25-7.83,12.37-11.75c4.37-4.15,9.59-8.5,14.62-6.21c2.84,1.3,4.98,4.5,7.29,7.16s5.26,4.96,8.16,3.94
				c1.52-0.54,2.87-2.25,4.43-2.09c10.74,1.08,8.38,24.19,20.16,14.29"/>
			<path class="st3" d="M421.83,372.96c0.74,4.66,1.77,9.88,4.78,12.12c4.7,3.49,9.9-2.69,14.98-4.91
				c9.94-4.34,19.66,7.13,26.2,18.48c6.54,11.34,13.7,24.67,24.08,25.73c1.41,0.14,2.89,0.06,4.15,0.94
				c1.58,1.1,2.47,3.43,3.36,5.56c5.87,14.09,18.53,57.41,32.67,27.69"/>
			<path class="st3" d="M565.04,504.8"/>
			<path class="st3" d="M520.27,442.05"/>
		</g>
		<line class="st3" x1="324.7" y1="494.89" x2="569.75" y2="494.89"/>
	</g>
	<path class="st4" d="M548.25,416.64c-15.08,8.87-37.4-1.11-37.4-1.11s2.12-24.36,17.2-33.23s37.4,1.11,37.4,1.11
		S563.33,407.77,548.25,416.64z"/>
	<path class="st4" d="M513.67,371.32c6.15,12.44-2.06,29.04-2.06,29.04s-18.18-3.56-24.33-16c-6.15-12.44,2.06-29.04,2.06-29.04
		S507.52,358.88,513.67,371.32z"/>
</g>
</svg>
