<?xml version="1.0" encoding="utf-8"?>
<!-- Generator: Adobe Illustrator 27.4.0, SVG Export Plug-In . SVG Version: 6.00 Build 0)  -->
<svg version="1.1" id="레이어_1" xmlns="http://www.w3.org/2000/svg" xmlns:xlink="http://www.w3.org/1999/xlink" x="0px"
	 y="0px" viewBox="0 0 762.52 822.05" style="enable-background:new 0 0 762.52 822.05;" xml:space="preserve">
<style type="text/css">
	.st0{fill:none;stroke:#463C33;stroke-width:3;stroke-miterlimit:10;}
	.st1{fill:none;stroke:#463C33;stroke-width:3;stroke-linecap:round;stroke-linejoin:round;stroke-dasharray:2.9969,5.9937;}
	.st2{fill:none;}
	.st3{fill:none;stroke:#463C33;stroke-width:4;stroke-linecap:round;stroke-linejoin:round;stroke-miterlimit:10;}
	.st4{fill:#ABB868;}
</style>
<g>
	<g>
		<g>
			<circle class="st0" cx="381.26" cy="411.02" r="318.36"/>
			<circle class="st0" cx="381.26" cy="411.02" r="249.2"/>
			<circle class="st0" cx="381.26" cy="411.02" r="224.16"/>
			<g>
				<circle class="st1" cx="381.26" cy="411.02" r="236.09"/>
			</g>
		</g>
		<path id="SVGID_x5F_1_x5F_" class="st2" d="M639.74,410.53c0,143.56-116.38,259.94-259.94,259.94S119.87,554.09,119.87,410.53
			s116.38-259.94,259.94-259.94S639.74,266.97,639.74,410.53z"/>
		<text>		<textPath  xlink:href="#SVGID_x5F_1_x5F_" startOffset="96.289%">
<tspan  style="fill:#463C33; font-family:'CenturyGothic-Bold'; font-size:45.3098px;">ODE? SEOUL ODE? SEOUL ODE? SEOUL ODE? SEOUL ODE? SEOUL ODE? SEOUL</tspan>		</textPath>
</text>
	</g>
	<g>
		<path class="st3" d="M309.77,562.84c0,0,38.97-18.14,55.98-27.23"/>
		<path class="st3" d="M323.04,570.11c0,0,42.58-0.9,61.1-11.35"/>
		<g>
			<g>
				<path class="st3" d="M420.44,468.92c0,0-78.95,38.54-47.13,77.24c0,0,63.63,54.18,100.75,15.48c0,0,29.76-44.47,6.93-82.22
					C480.98,479.42,478.18,449.74,420.44,468.92z"/>
				<path class="st3" d="M462.27,462.47c0,0,11.78-20.8-9.43-26.6c0,0-28.87-2.66-75.41,32.54c-2.88,2.18-84.11,42.8-78.58,71.89
					c0,0-3.1,45.35,72.8,35.29c0,0,20.22-3.32,34.8-8.63"/>
				<path class="st3" d="M311.98,513.24c0,0-18.05-32.72,19.14-69.4c9.79-9.66,23.41-19.59,42.2-29.26c0,0,79.54-36.21,79.54-12.3
					c0,0.69,11.91,24.09-4.65,33.67"/>
				<path class="st3" d="M434.93,394.48c0,0,19.22-17.95,13.27-47.31c0,0-21.07-26.07-82.44,16.79c0,0-56.07,35.13-45.47,62.22
					c0,0,0.45,19.83,10.83,17.65"/>
				<path class="st3" d="M435.64,339.32c0,0,19.9-29.17-7.96-33.08c0,0-38.46,7.71-59.67,23.19c0,0-26.51,19.35-26.51,27.09
					c0,0-15.49,19.53-5.1,31.05"/>
				<path class="st3" d="M420.44,307.91c0,0,13.38-26.3,1.68-29.48c0,0-42.24-2.13-72.04,34.11c0,0-22.28,25.46,3.12,28.92"/>
				<path class="st3" d="M416.22,278.41c0,0,1.7-30.77-28.56-13.1c-30.26,17.68-50.19,34.21-37.58,47.23"/>
				<path class="st3" d="M361.61,282.6c0,0-17.01-5.38,0-19.91s4.15-27.46,4.15-27.46s4.61-17.11,16.69-4.03s15.15,8.44,13.61,30.11
					"/>
			</g>
			<path class="st3" d="M309.77,492.62c0,0,76.3-75.06,145.97-79.91"/>
			<path class="st3" d="M309.77,480.52c0,0,63.03-70.22,142.66-77.49"/>
			<path class="st3" d="M309.77,502.49c0-0.18,92.89-77.65,145.97-81.29"/>
			<path class="st3" d="M303.14,550.74c0,0,56.58-58.37,97.96-70.35"/>
			<path class="st3" d="M319.73,422.4c0,0,79.62-75.06,126.07-70.22"/>
			<path class="st3" d="M326.36,432.09c0,0,71.92-61.81,122.22-64.8"/>
			<path class="st3" d="M336.31,371.55c-3.32,0,56.4-53.27,102.85-53.27"/>
			<path class="st3" d="M341.18,332.95c0,0,44.9-43.72,84.71-41.3"/>
		</g>
	</g>
	<path class="st4" d="M281.04,408.69c16.83,4.33,35.4-11.33,35.4-11.33s-8.72-22.67-25.55-27c-16.83-4.33-35.4,11.33-35.4,11.33
		S264.21,404.36,281.04,408.69z"/>
	<path class="st4" d="M301.62,355.92c-2.45,13.57,9.94,27.16,9.94,27.16s16.38-8.39,18.83-21.96c2.45-13.57-9.94-27.16-9.94-27.16
		S304.07,342.35,301.62,355.92z"/>
</g>
</svg>
