<?xml version="1.0" encoding="utf-8"?>
<!-- Generator: Adobe Illustrator 27.4.0, SVG Export Plug-In . SVG Version: 6.00 Build 0)  -->
<svg version="1.1" id="레이어_1" xmlns="http://www.w3.org/2000/svg" xmlns:xlink="http://www.w3.org/1999/xlink" x="0px"
	 y="0px" viewBox="0 0 762.52 822.05" style="enable-background:new 0 0 762.52 822.05;" xml:space="preserve">
<style type="text/css">
	.st0{fill:none;stroke:#463C33;stroke-width:3;stroke-miterlimit:10;}
	.st1{fill:none;stroke:#463C33;stroke-width:3;stroke-linecap:round;stroke-linejoin:round;stroke-dasharray:2.9969,5.9937;}
	.st2{fill:#463C33;}
	.st3{fill:none;stroke:#463C33;stroke-width:4;stroke-linecap:round;stroke-linejoin:round;stroke-miterlimit:10;}
	.st4{fill:#ABB868;}
</style>
<g>
	<circle class="st0" cx="381.26" cy="411.02" r="318.36"/>
	<circle class="st0" cx="381.26" cy="411.02" r="249.2"/>
	<circle class="st0" cx="381.26" cy="411.02" r="224.16"/>
	<g>
		<circle class="st1" cx="381.26" cy="411.02" r="236.09"/>
	</g>
</g>
<g>
	<path class="st2" d="M347.69,118.97c4.58-0.5,8.69,0.73,12.35,3.68c3.66,2.95,5.74,6.81,6.26,11.58c0.52,4.72-0.67,8.89-3.57,12.52
		s-6.66,5.69-11.29,6.2c-4.86,0.53-9.07-0.71-12.65-3.71c-3.58-3.01-5.62-6.82-6.13-11.44c-0.34-3.09,0.1-6.02,1.31-8.78
		c1.21-2.76,3.05-5.04,5.5-6.84C341.93,120.37,344.67,119.3,347.69,118.97z M348.29,125.01c-2.99,0.33-5.4,1.64-7.21,3.95
		s-2.54,5.06-2.19,8.27c0.39,3.58,1.98,6.27,4.78,8.07c2.17,1.41,4.55,1.97,7.14,1.69c2.92-0.32,5.29-1.65,7.12-3.98
		c1.82-2.34,2.57-5.05,2.23-8.14c-0.34-3.08-1.66-5.57-3.96-7.48C353.88,125.47,351.25,124.68,348.29,125.01z"/>
	<path class="st2" d="M373.6,117.87l7.34,0.15c4.73,0.09,8.23,0.75,10.51,1.97c2.28,1.22,4.13,3.16,5.57,5.83
		c1.44,2.67,2.12,5.77,2.05,9.29c-0.05,2.51-0.51,4.8-1.39,6.89c-0.87,2.08-2.06,3.81-3.55,5.16c-1.49,1.36-3.1,2.28-4.82,2.78
		c-1.72,0.5-4.69,0.7-8.9,0.62l-7.45-0.15L373.6,117.87z M379.63,123.96l-0.41,20.53l2.88,0.06c2.83,0.06,4.89-0.23,6.18-0.85
		c1.29-0.62,2.35-1.7,3.2-3.21s1.29-3.4,1.33-5.64c0.07-3.45-0.84-6.15-2.74-8.1c-1.71-1.75-4.48-2.66-8.33-2.74L379.63,123.96z"/>
	<path class="st2" d="M407.86,119.27l17.63,2.17l-0.74,6.02l-11.53-1.42l-0.72,5.84l11.53,1.42l-0.73,5.91l-11.53-1.42l-1.04,8.5
		l11.53,1.42l-0.74,6.04l-17.63-2.17L407.86,119.27z"/>
	<path class="st2" d="M435.84,131.92l-5.66-1.23c0.57-2.78,2.02-4.87,4.35-6.26s5.07-1.75,8.22-1.06c2.03,0.44,3.68,1.19,4.94,2.25
		c1.26,1.06,2.17,2.39,2.72,3.99c0.55,1.6,0.66,3.18,0.32,4.73c-0.18,0.85-0.5,1.66-0.96,2.42c-0.45,0.76-1.07,1.51-1.85,2.25
		c-0.46,0.43-1.47,1.1-3.04,2.01c-1.5,0.87-2.46,1.5-2.88,1.9c-0.42,0.4-0.82,0.96-1.21,1.7c-0.38,0.73-0.76,1.78-1.12,3.15
		l-5.86-1.27l0.19-0.98c0.42-1.93,1.15-3.61,2.2-5.03c1.05-1.42,2.52-2.66,4.4-3.7c1.82-1.01,2.94-1.73,3.37-2.17
		s0.71-0.99,0.86-1.67c0.2-0.92-0.02-1.79-0.65-2.6c-0.63-0.81-1.6-1.35-2.89-1.64c-1.33-0.29-2.5-0.13-3.52,0.46
		S436.13,130.7,435.84,131.92z M436.32,149.62c1.05,0.23,1.87,0.78,2.46,1.67c0.58,0.88,0.77,1.83,0.54,2.86
		c-0.22,1.02-0.78,1.82-1.67,2.39c-0.89,0.57-1.86,0.74-2.9,0.51c-1.04-0.23-1.84-0.78-2.41-1.67c-0.57-0.89-0.74-1.84-0.52-2.86
		c0.22-1.02,0.77-1.82,1.65-2.38C434.35,149.57,435.3,149.4,436.32,149.62z"/>
	<path class="st2" d="M488.06,143.36l-5.71,2.21c-0.73-2.66-1.88-4.28-3.45-4.86c-0.76-0.28-1.46-0.31-2.1-0.08s-1.05,0.6-1.24,1.11
		c-0.19,0.51-0.2,1.06-0.02,1.65c0.25,0.78,1.18,2.61,2.81,5.5c1.53,2.67,2.45,4.34,2.74,5c0.74,1.62,1.15,3.07,1.24,4.34
		c0.09,1.27-0.1,2.55-0.58,3.83c-0.92,2.5-2.55,4.25-4.89,5.25c-2.33,0.99-4.89,0.98-7.68-0.05c-2.17-0.8-3.87-2.04-5.09-3.7
		c-1.22-1.66-1.98-3.85-2.29-6.55l5.97-1.14c0.47,3.24,1.67,5.21,3.58,5.92c1,0.37,1.94,0.39,2.84,0.06
		c0.89-0.33,1.48-0.88,1.76-1.64c0.26-0.69,0.25-1.48,0-2.36c-0.26-0.88-1-2.36-2.22-4.43c-2.32-3.94-3.7-6.83-4.13-8.66
		s-0.37-3.48,0.17-4.95c0.78-2.12,2.26-3.63,4.43-4.55c2.17-0.92,4.44-0.94,6.81-0.07c1.52,0.56,2.84,1.45,3.96,2.67
		C486.12,139.06,487.14,140.9,488.06,143.36z"/>
	<path class="st2" d="M497.61,142.63l16.06,7.6l-2.6,5.48l-10.5-4.97l-2.52,5.32l10.5,4.97l-2.55,5.38l-10.5-4.97l-3.67,7.74
		l10.5,4.97l-2.6,5.5l-16.06-7.6L497.61,142.63z"/>
	<path class="st2" d="M534.88,161.54c3.91,2.44,6.38,5.95,7.43,10.53c1.05,4.58,0.3,8.91-2.23,12.97
		c-2.51,4.03-6.03,6.58-10.54,7.64c-4.51,1.06-8.75,0.36-12.71-2.11c-4.14-2.59-6.7-6.17-7.65-10.74c-0.96-4.58-0.2-8.84,2.26-12.78
		c1.65-2.64,3.8-4.67,6.46-6.09c2.66-1.42,5.51-2.08,8.55-1.98C529.49,159.08,532.3,159.93,534.88,161.54z M531.62,166.65
		c-2.56-1.59-5.26-2.05-8.11-1.35s-5.13,2.41-6.84,5.15c-1.9,3.05-2.32,6.15-1.23,9.3c0.84,2.45,2.36,4.37,4.56,5.74
		c2.49,1.56,5.18,1.98,8.06,1.27c2.88-0.71,5.14-2.38,6.79-5.02c1.64-2.63,2.14-5.4,1.51-8.33
		C535.73,170.48,534.15,168.23,531.62,166.65z"/>
	<path class="st2" d="M555.63,176.52l4.82,3.92l-13.27,16.33c-1.14,1.41-1.83,2.5-2.06,3.28c-0.23,0.78-0.2,1.58,0.08,2.39
		c0.28,0.81,0.83,1.54,1.63,2.19c0.85,0.69,1.73,1.09,2.66,1.2s1.75-0.04,2.48-0.45s1.77-1.46,3.15-3.15l12.79-15.73l4.82,3.92
		l-12.24,15.06c-2.06,2.54-3.64,4.19-4.73,4.94c-1.09,0.75-2.41,1.26-3.96,1.52c-1.55,0.26-3.03,0.18-4.44-0.23
		s-2.82-1.19-4.21-2.33c-1.83-1.49-3.08-3.2-3.76-5.15c-0.67-1.94-0.79-3.79-0.34-5.52c0.44-1.74,1.89-4.11,4.34-7.12L555.63,176.52
		z"/>
	<path class="st2" d="M579.63,196.86l4.43,4.33l-18.61,19.06l6.46,6.31l-4.13,4.23l-10.89-10.63L579.63,196.86z"/>
	<path class="st2" d="M614.77,234.96c2.76,3.69,3.8,7.85,3.12,12.5c-0.68,4.65-2.94,8.41-6.78,11.28c-3.8,2.85-8,3.95-12.59,3.3
		c-4.59-0.65-8.29-2.84-11.08-6.57c-2.93-3.91-4.01-8.17-3.24-12.78c0.77-4.61,3.01-8.31,6.73-11.09c2.49-1.86,5.23-2.98,8.23-3.34
		s5.89,0.06,8.69,1.25C610.64,230.71,612.95,232.52,614.77,234.96z M609.88,238.54c-1.8-2.41-4.16-3.81-7.07-4.2
		s-5.65,0.39-8.24,2.32c-2.88,2.16-4.39,4.9-4.51,8.22c-0.11,2.59,0.62,4.92,2.17,7c1.76,2.35,4.11,3.72,7.05,4.1
		c2.94,0.38,5.65-0.36,8.15-2.22c2.48-1.86,3.95-4.26,4.42-7.21C612.32,243.6,611.67,240.93,609.88,238.54z"/>
	<path class="st2" d="M628.94,256.75l3.6,6.4c2.32,4.12,3.53,7.47,3.64,10.05c0.11,2.58-0.63,5.16-2.2,7.76s-3.89,4.75-6.96,6.48
		c-2.19,1.23-4.4,2-6.64,2.3c-2.24,0.3-4.32,0.16-6.25-0.44c-1.93-0.6-3.54-1.51-4.84-2.74s-2.98-3.68-5.05-7.35l-3.65-6.49
		L628.94,256.75z M626.75,265.04l-17.89,10.07l1.41,2.51c1.39,2.47,2.68,4.1,3.87,4.89c1.19,0.79,2.66,1.17,4.39,1.12
		c1.74-0.05,3.58-0.62,5.54-1.72c3.01-1.69,4.87-3.85,5.59-6.47c0.64-2.36,0.02-5.21-1.87-8.57L626.75,265.04z"/>
	<path class="st2" d="M645.11,286.99l7.06,16.3l-5.56,2.41l-4.62-10.66l-5.4,2.34l4.62,10.66l-5.46,2.37l-4.62-10.66l-7.86,3.4
		l4.62,10.66l-5.58,2.42l-7.06-16.3L645.11,286.99z"/>
	<path class="st2" d="M633.34,326.9c0.34,1.02,0.27,2.01-0.19,2.96c-0.46,0.95-1.19,1.59-2.19,1.92s-1.96,0.25-2.91-0.24
		c-0.94-0.48-1.58-1.23-1.91-2.24c-0.33-1.01-0.26-1.98,0.22-2.92c0.48-0.94,1.21-1.57,2.21-1.9s1.96-0.25,2.89,0.22
		S633.02,325.9,633.34,326.9z M648.36,317.53l-1.81-5.51c2.69-0.91,5.22-0.72,7.6,0.58c2.38,1.3,4.07,3.49,5.08,6.55
		c0.65,1.98,0.83,3.78,0.56,5.4c-0.27,1.63-0.96,3.08-2.06,4.37c-1.1,1.28-2.41,2.17-3.92,2.67c-0.83,0.27-1.68,0.4-2.57,0.4
		c-0.89,0-1.84-0.16-2.87-0.46c-0.6-0.18-1.69-0.71-3.27-1.6c-1.51-0.86-2.54-1.36-3.1-1.52c-0.56-0.16-1.25-0.22-2.07-0.18
		c-0.83,0.04-1.92,0.25-3.28,0.63l-1.87-5.7l0.94-0.33c1.88-0.62,3.7-0.83,5.46-0.65s3.57,0.83,5.42,1.93
		c1.79,1.06,2.98,1.66,3.57,1.81s1.22,0.11,1.88-0.1c0.9-0.29,1.54-0.92,1.91-1.87s0.36-2.06-0.05-3.32
		c-0.42-1.29-1.15-2.22-2.18-2.8C650.68,317.25,649.57,317.15,648.36,317.53z"/>
	<path class="st2" d="M664.93,368.33l-4.79-3.8c1.92-1.98,2.74-3.79,2.44-5.44c-0.14-0.8-0.47-1.42-0.99-1.85
		c-0.52-0.43-1.05-0.6-1.58-0.5c-0.54,0.1-1.01,0.37-1.43,0.82c-0.55,0.61-1.66,2.35-3.32,5.21c-1.53,2.68-2.5,4.31-2.92,4.89
		c-1.03,1.46-2.06,2.55-3.11,3.27c-1.05,0.72-2.25,1.2-3.6,1.44c-2.63,0.47-4.96-0.05-7-1.56c-2.04-1.51-3.32-3.73-3.84-6.65
		c-0.41-2.28-0.21-4.37,0.61-6.26c0.81-1.89,2.31-3.66,4.49-5.29l4.01,4.57c-2.56,2.05-3.65,4.08-3.29,6.08
		c0.19,1.05,0.65,1.87,1.39,2.48c0.74,0.6,1.5,0.83,2.3,0.69c0.73-0.13,1.4-0.53,2.03-1.2s1.53-2.05,2.7-4.15
		c2.22-4,4.01-6.65,5.38-7.94c1.36-1.29,2.82-2.08,4.35-2.36c2.22-0.4,4.28,0.11,6.17,1.52c1.89,1.41,3.06,3.36,3.51,5.84
		c0.29,1.6,0.19,3.19-0.29,4.77C667.66,364.49,666.59,366.3,664.93,368.33z"/>
	<path class="st2" d="M670.4,376.2l1.58,17.69l-6.04,0.54l-1.03-11.57l-5.86,0.52l1.03,11.57l-5.93,0.53l-1.03-11.57l-8.53,0.76
		l1.03,11.57l-6.06,0.54l-1.58-17.7L670.4,376.2z"/>
	<path class="st2" d="M673.01,417.84c-0.11,4.6-1.88,8.52-5.29,11.75c-3.41,3.23-7.52,4.79-12.31,4.67
		c-4.75-0.12-8.73-1.85-11.93-5.2c-3.21-3.35-4.76-7.35-4.64-12.02c0.12-4.88,1.91-8.9,5.36-12.05s7.51-4.67,12.15-4.55
		c3.11,0.08,5.95,0.9,8.53,2.47c2.57,1.57,4.59,3.69,6.05,6.36C672.39,411.95,673.09,414.8,673.01,417.84z M666.96,417.63
		c0.07-3.01-0.91-5.57-2.96-7.67c-2.04-2.1-4.68-3.19-7.91-3.27c-3.6-0.09-6.48,1.13-8.63,3.67c-1.69,1.97-2.56,4.25-2.62,6.85
		c-0.07,2.94,0.93,5.46,3,7.58c2.07,2.12,4.67,3.21,7.78,3.29c3.1,0.08,5.74-0.9,7.94-2.93
		C665.75,423.12,666.88,420.61,666.96,417.63z"/>
	<path class="st2" d="M670.67,443.35l-0.92,6.15l-20.81-3.12c-1.79-0.27-3.08-0.3-3.87-0.1c-0.79,0.2-1.46,0.63-2.02,1.29
		c-0.55,0.66-0.91,1.49-1.06,2.51c-0.16,1.08-0.05,2.05,0.33,2.9c0.38,0.85,0.93,1.49,1.65,1.9c0.72,0.41,2.16,0.78,4.32,1.11
		l20.05,3.01l-0.92,6.15l-19.19-2.88c-3.24-0.49-5.46-1-6.66-1.56s-2.31-1.43-3.32-2.63s-1.7-2.52-2.06-3.94s-0.41-3.03-0.14-4.81
		c0.35-2.33,1.19-4.28,2.52-5.85c1.33-1.57,2.86-2.6,4.58-3.11c1.72-0.5,4.5-0.46,8.34,0.11L670.67,443.35z"/>
	<path class="st2" d="M665.35,474.4l-1.48,6.02l-25.87-6.35l-2.15,8.77l-5.74-1.41l3.63-14.78L665.35,474.4z"/>
	<path class="st2" d="M650.33,524.03c-1.78,4.25-4.85,7.25-9.21,9.02c-4.36,1.76-8.74,1.72-13.16-0.14
		c-4.38-1.84-7.45-4.9-9.22-9.19c-1.77-4.29-1.75-8.58,0.06-12.88c1.89-4.5,5.02-7.59,9.38-9.27s8.69-1.61,12.97,0.19
		c2.87,1.2,5.22,3.01,7.04,5.4s2.93,5.11,3.32,8.13S651.5,521.23,650.33,524.03z M644.76,521.62c1.17-2.78,1.18-5.52,0.04-8.22
		c-1.14-2.7-3.19-4.68-6.17-5.93c-3.32-1.39-6.44-1.3-9.38,0.27c-2.29,1.22-3.93,3.02-4.94,5.42c-1.14,2.71-1.13,5.43,0.03,8.16
		c1.16,2.73,3.17,4.69,6.04,5.9c2.86,1.2,5.68,1.25,8.46,0.16C641.64,526.29,643.61,524.38,644.76,521.62z"/>
	<path class="st2" d="M638.69,547.29l-3.7,6.34c-2.38,4.08-4.66,6.83-6.83,8.22c-2.17,1.39-4.77,2.07-7.8,2.02
		c-3.03-0.04-6.07-0.96-9.11-2.73c-2.17-1.26-3.95-2.79-5.34-4.56s-2.32-3.65-2.78-5.62c-0.46-1.96-0.49-3.82-0.08-5.56
		c0.4-1.74,1.67-4.44,3.79-8.08l3.75-6.43L638.69,547.29z M630.43,549.59l-17.73-10.35l-1.45,2.48c-1.43,2.45-2.18,4.38-2.26,5.81
		c-0.08,1.43,0.34,2.88,1.25,4.36s2.34,2.78,4.28,3.91c2.98,1.74,5.79,2.26,8.41,1.55c2.36-0.64,4.5-2.62,6.44-5.95L630.43,549.59z"
		/>
	<path class="st2" d="M620.79,576.51l-10.49,14.34l-4.89-3.58l6.86-9.38l-4.75-3.47l-6.86,9.38l-4.8-3.51l6.86-9.38l-6.91-5.05
		l-6.86,9.38l-4.91-3.59l10.49-14.34L620.79,576.51z"/>
	<path class="st2" d="M580.42,586.57c-0.71,0.81-1.59,1.25-2.65,1.33c-1.06,0.08-1.98-0.22-2.76-0.92
		c-0.79-0.69-1.21-1.57-1.27-2.62c-0.06-1.06,0.26-1.98,0.96-2.78s1.58-1.23,2.63-1.29c1.05-0.07,1.97,0.25,2.75,0.94
		s1.21,1.56,1.28,2.6S581.12,585.79,580.42,586.57z M596.12,594.77l3.83-4.35c2.15,1.85,3.27,4.14,3.35,6.85
		c0.08,2.71-0.94,5.28-3.08,7.7c-1.38,1.56-2.83,2.63-4.37,3.22c-1.54,0.59-3.14,0.73-4.81,0.44c-1.67-0.3-3.09-0.97-4.29-2.03
		c-0.65-0.58-1.2-1.25-1.65-2.01c-0.45-0.77-0.8-1.67-1.06-2.71c-0.15-0.61-0.25-1.82-0.28-3.63c-0.03-1.73-0.11-2.88-0.26-3.44
		c-0.14-0.56-0.44-1.19-0.89-1.88s-1.19-1.53-2.21-2.51l3.96-4.5l0.76,0.64c1.48,1.31,2.59,2.77,3.33,4.38
		c0.73,1.61,1.1,3.49,1.08,5.65c0,2.08,0.08,3.41,0.25,4c0.17,0.58,0.52,1.11,1.04,1.56c0.71,0.62,1.57,0.86,2.58,0.7
		c1.01-0.16,1.96-0.74,2.84-1.73c0.9-1.02,1.33-2.12,1.31-3.3C597.53,596.63,597.05,595.61,596.12,594.77z"/>
	<path class="st2" d="M560.76,634.85l0.84-6.06c2.68,0.65,4.66,0.43,5.92-0.66c0.62-0.53,0.98-1.13,1.09-1.8s-0.02-1.21-0.37-1.62
		c-0.36-0.41-0.83-0.68-1.43-0.81c-0.8-0.17-2.86-0.23-6.17-0.21c-3.08,0.04-4.98,0.03-5.7-0.03c-1.78-0.14-3.25-0.48-4.4-1.02
		c-1.15-0.54-2.18-1.32-3.07-2.36c-1.74-2.02-2.48-4.3-2.22-6.82c0.26-2.52,1.52-4.75,3.77-6.69c1.76-1.51,3.66-2.4,5.7-2.66
		c2.04-0.26,4.33,0.13,6.84,1.18l-1.9,5.78c-3.06-1.16-5.37-1.07-6.91,0.26c-0.81,0.69-1.28,1.51-1.43,2.45
		c-0.14,0.94,0.05,1.72,0.58,2.33c0.48,0.56,1.17,0.94,2.06,1.14c0.9,0.2,2.54,0.27,4.95,0.21c4.57-0.12,7.76,0.08,9.57,0.59
		c1.81,0.52,3.22,1.37,4.24,2.55c1.47,1.71,2.08,3.74,1.83,6.09c-0.25,2.35-1.33,4.34-3.25,5.99c-1.23,1.06-2.65,1.78-4.25,2.17
		C565.45,635.24,563.35,635.24,560.76,634.85z"/>
	<path class="st2" d="M556.81,643.52l-14.43,10.37l-3.54-4.92l9.43-6.78l-3.43-4.78l-9.43,6.78l-3.47-4.83l9.43-6.78l-5-6.95
		l-9.43,6.78l-3.55-4.94l14.43-10.36L556.81,643.52z"/>
	<path class="st2" d="M522.23,666.98c-4.02,2.24-8.29,2.71-12.81,1.41s-7.94-4.04-10.27-8.23c-2.31-4.15-2.84-8.46-1.58-12.92
		s3.92-7.83,8-10.1c4.27-2.38,8.64-2.88,13.1-1.5s7.83,4.1,10.09,8.16c1.51,2.72,2.25,5.58,2.2,8.6c-0.05,3.01-0.85,5.83-2.41,8.44
		C527,663.45,524.89,665.5,522.23,666.98z M519.34,661.65c2.63-1.46,4.33-3.61,5.11-6.44s0.38-5.65-1.2-8.48
		c-1.75-3.14-4.26-5-7.54-5.58c-2.55-0.45-4.96-0.05-7.23,1.21c-2.57,1.43-4.24,3.57-5.01,6.44c-0.77,2.86-0.4,5.65,1.11,8.37
		c1.51,2.71,3.69,4.49,6.55,5.35C514,663.39,516.74,663.1,519.34,661.65z"/>
	<path class="st2" d="M499.03,677.9l-5.77,2.32l-7.85-19.53c-0.68-1.68-1.3-2.81-1.88-3.39c-0.57-0.58-1.28-0.94-2.13-1.09
		c-0.85-0.14-1.75-0.02-2.71,0.36c-1.01,0.41-1.79,0.99-2.34,1.75c-0.54,0.76-0.81,1.55-0.81,2.38c0.01,0.83,0.42,2.26,1.23,4.28
		l7.56,18.81l-5.77,2.32l-7.24-18c-1.22-3.04-1.9-5.21-2.03-6.53c-0.13-1.32,0.07-2.71,0.59-4.2c0.52-1.48,1.31-2.74,2.36-3.77
		c1.05-1.03,2.41-1.88,4.08-2.56c2.19-0.88,4.3-1.14,6.32-0.79c2.03,0.35,3.69,1.15,5,2.38c1.31,1.23,2.68,3.65,4.13,7.25
		L499.03,677.9z"/>
	<path class="st2" d="M469.58,689.03l-5.94,1.77l-7.62-25.52l-8.65,2.58l-1.69-5.66l14.58-4.35L469.58,689.03z"/>
	<path class="st2" d="M419.16,701.21c-4.56,0.61-8.71-0.51-12.44-3.37s-5.91-6.67-6.55-11.42c-0.63-4.71,0.45-8.91,3.25-12.6
		s6.51-5.85,11.14-6.48c4.84-0.65,9.09,0.48,12.74,3.4s5.79,6.68,6.41,11.28c0.42,3.08,0.05,6.02-1.09,8.81s-2.92,5.11-5.33,6.98
		C424.88,699.67,422.17,700.8,419.16,701.21z M418.42,695.19c2.99-0.4,5.36-1.78,7.11-4.13c1.75-2.35,2.42-5.12,1.99-8.33
		c-0.48-3.57-2.14-6.22-4.98-7.95c-2.21-1.36-4.6-1.86-7.17-1.51c-2.91,0.39-5.25,1.78-7.02,4.16c-1.77,2.38-2.44,5.11-2.03,8.2
		c0.41,3.07,1.79,5.53,4.14,7.38C412.81,694.86,415.46,695.59,418.42,695.19z"/>
	<path class="st2" d="M393.61,702.8l-7.34,0.12c-4.73,0.08-8.25-0.45-10.57-1.59s-4.24-3.01-5.77-5.63
		c-1.53-2.62-2.33-5.69-2.38-9.21c-0.04-2.51,0.34-4.82,1.14-6.93c0.8-2.12,1.92-3.88,3.36-5.29c1.44-1.41,3.02-2.39,4.72-2.95
		c1.7-0.56,4.66-0.87,8.87-0.94l7.45-0.12L393.61,702.8z M387.37,696.93l-0.33-20.53l-2.88,0.05c-2.83,0.05-4.88,0.4-6.15,1.07
		c-1.27,0.67-2.29,1.78-3.08,3.33s-1.16,3.44-1.12,5.69c0.06,3.46,1.07,6.12,3.03,7.99c1.77,1.68,4.58,2.5,8.43,2.43L387.37,696.93z
		"/>
	<path class="st2" d="M359.01,702.39l-17.68-1.73l0.59-6.03l11.56,1.13l0.57-5.86l-11.56-1.13l0.58-5.92l11.56,1.13l0.83-8.52
		l-11.56-1.13l0.59-6.06l17.68,1.73L359.01,702.39z"/>
	<path class="st2" d="M330.73,690.43l5.69,1.09c-0.5,2.79-1.9,4.92-4.19,6.37c-2.29,1.45-5.02,1.87-8.19,1.26
		c-2.04-0.39-3.71-1.1-5-2.13c-1.29-1.03-2.23-2.33-2.82-3.92s-0.74-3.16-0.44-4.72c0.16-0.85,0.46-1.67,0.9-2.44
		c0.43-0.77,1.03-1.54,1.79-2.29c0.44-0.44,1.44-1.14,2.99-2.09c1.48-0.9,2.42-1.56,2.83-1.97c0.41-0.41,0.8-0.98,1.16-1.73
		c0.37-0.74,0.71-1.8,1.04-3.18l5.89,1.13l-0.17,0.98c-0.37,1.94-1.06,3.64-2.08,5.09s-2.45,2.72-4.31,3.8
		c-1.79,1.05-2.9,1.8-3.31,2.25s-0.69,1.01-0.82,1.69c-0.18,0.93,0.06,1.79,0.71,2.58s1.63,1.31,2.93,1.56
		c1.33,0.25,2.5,0.07,3.51-0.55C329.85,692.6,330.48,691.67,330.73,690.43z M329.81,672.76c-1.06-0.2-1.89-0.74-2.5-1.6
		c-0.61-0.87-0.81-1.82-0.62-2.84s0.73-1.84,1.61-2.43c0.88-0.59,1.84-0.79,2.88-0.59c1.04,0.2,1.86,0.74,2.45,1.61
		c0.59,0.87,0.79,1.82,0.59,2.85s-0.73,1.84-1.59,2.42C331.79,672.76,330.84,672.95,329.81,672.76z"/>
	<path class="st2" d="M278.24,680.31l5.65-2.35c0.8,2.64,1.99,4.23,3.57,4.77c0.77,0.26,1.47,0.27,2.1,0.03s1.03-0.63,1.21-1.14
		c0.18-0.52,0.17-1.06-0.02-1.64c-0.27-0.78-1.25-2.58-2.95-5.42c-1.6-2.63-2.55-4.28-2.86-4.93c-0.78-1.61-1.23-3.04-1.35-4.31
		c-0.12-1.26,0.04-2.55,0.48-3.84c0.86-2.53,2.45-4.32,4.76-5.37c2.31-1.05,4.87-1.1,7.68-0.14c2.19,0.75,3.92,1.94,5.18,3.57
		s2.08,3.79,2.45,6.49l-5.94,1.29c-0.55-3.23-1.79-5.17-3.72-5.83c-1.01-0.34-1.95-0.34-2.84,0.01s-1.46,0.91-1.72,1.68
		c-0.24,0.7-0.22,1.48,0.06,2.36c0.28,0.88,1.05,2.33,2.33,4.37c2.42,3.88,3.87,6.73,4.34,8.55c0.47,1.82,0.46,3.47-0.05,4.95
		c-0.73,2.14-2.17,3.69-4.32,4.66s-4.42,1.05-6.81,0.24c-1.54-0.52-2.88-1.38-4.03-2.57C280.28,684.56,279.22,682.75,278.24,680.31z
		"/>
	<path class="st2" d="M268.73,681.29l-16.24-7.2l2.46-5.54l10.62,4.71l2.39-5.38l-10.62-4.71l2.41-5.44l10.62,4.71l3.47-7.83
		l-10.62-4.71l2.47-5.56l16.24,7.2L268.73,681.29z"/>
	<path class="st2" d="M230.99,663.32c-3.97-2.34-6.53-5.79-7.69-10.34c-1.16-4.55-0.52-8.9,1.91-13.03
		c2.41-4.09,5.86-6.72,10.35-7.9c4.49-1.17,8.74-0.58,12.76,1.79c4.21,2.48,6.85,6,7.92,10.55c1.07,4.55,0.42,8.83-1.94,12.83
		c-1.58,2.68-3.68,4.76-6.3,6.25c-2.62,1.48-5.46,2.22-8.5,2.19C236.45,665.65,233.61,664.86,230.99,663.32z M234.13,658.13
		c2.6,1.53,5.31,1.91,8.14,1.15c2.83-0.76,5.07-2.53,6.71-5.32c1.83-3.1,2.16-6.21,1-9.32c-0.9-2.43-2.47-4.31-4.7-5.62
		c-2.53-1.49-5.23-1.85-8.09-1.07c-2.86,0.78-5.08,2.51-6.66,5.19c-1.57,2.67-2.01,5.46-1.3,8.36
		C229.92,654.4,231.56,656.61,234.13,658.13z"/>
	<path class="st2" d="M209.85,648.84l-4.92-3.8l12.87-16.65c1.11-1.43,1.77-2.55,1.97-3.33c0.21-0.79,0.16-1.58-0.14-2.39
		c-0.3-0.8-0.86-1.52-1.68-2.15c-0.86-0.67-1.76-1.04-2.69-1.13s-1.75,0.08-2.46,0.51c-0.71,0.43-1.74,1.5-3.07,3.23l-12.39,16.04
		l-4.92-3.8l11.86-15.35c2-2.59,3.54-4.28,4.6-5.05c1.07-0.78,2.37-1.32,3.92-1.61c1.54-0.3,3.03-0.26,4.45,0.12
		c1.42,0.38,2.84,1.12,4.27,2.22c1.87,1.44,3.16,3.13,3.88,5.05c0.72,1.93,0.88,3.76,0.48,5.51c-0.4,1.75-1.79,4.16-4.16,7.23
		L209.85,648.84z"/>
	<path class="st2" d="M185.34,629.09l-4.54-4.22l18.13-19.51l-6.61-6.14l4.02-4.33l11.15,10.36L185.34,629.09z"/>
	<path class="st2" d="M149.28,591.88c-2.85-3.62-3.99-7.76-3.42-12.42c0.57-4.67,2.73-8.48,6.5-11.45c3.73-2.94,7.9-4.14,12.51-3.61
		c4.61,0.53,8.35,2.63,11.24,6.29c3.02,3.84,4.21,8.07,3.56,12.7c-0.65,4.63-2.8,8.38-6.45,11.26c-2.44,1.93-5.16,3.11-8.14,3.54
		c-2.98,0.43-5.89,0.09-8.72-1.04S151.17,594.27,149.28,591.88z M154.09,588.18c1.86,2.37,4.25,3.71,7.17,4.02
		c2.92,0.32,5.64-0.53,8.18-2.53c2.83-2.23,4.26-5,4.31-8.33c0.04-2.59-0.74-4.91-2.35-6.95c-1.82-2.31-4.2-3.62-7.15-3.93
		c-2.95-0.31-5.64,0.5-8.09,2.43c-2.43,1.92-3.85,4.36-4.24,7.32C151.52,583.19,152.24,585.84,154.09,588.18z"/>
	<path class="st2" d="M134.59,570.46l-3.76-6.3c-2.42-4.06-3.72-7.38-3.89-9.96c-0.17-2.58,0.5-5.18,2.01-7.81
		c1.51-2.63,3.77-4.85,6.8-6.65c2.15-1.28,4.35-2.11,6.58-2.47c2.23-0.36,4.32-0.27,6.26,0.28c1.94,0.55,3.58,1.42,4.91,2.62
		c1.33,1.2,3.08,3.61,5.23,7.23l3.81,6.4L134.59,570.46z M136.57,562.11l17.64-10.51l-1.47-2.47c-1.45-2.43-2.78-4.03-3.99-4.79
		c-1.21-0.76-2.68-1.1-4.42-1.01c-1.73,0.09-3.57,0.71-5.49,1.86c-2.97,1.77-4.78,3.97-5.42,6.6c-0.58,2.37,0.11,5.21,2.08,8.52
		L136.57,562.11z"/>
	<path class="st2" d="M117.67,540.63l-7.47-16.12l5.5-2.55l4.88,10.54l5.34-2.47l-4.88-10.54l5.4-2.5l4.88,10.54l7.77-3.6
		l-4.88-10.54l5.52-2.56l7.47,16.12L117.67,540.63z"/>
	<path class="st2" d="M113.65,510.19l1.94,5.46c-2.67,0.98-5.2,0.85-7.61-0.39c-2.41-1.24-4.16-3.38-5.24-6.42
		c-0.7-1.96-0.93-3.76-0.7-5.39c0.23-1.63,0.88-3.1,1.95-4.42c1.07-1.31,2.35-2.23,3.85-2.77c0.82-0.29,1.67-0.45,2.56-0.46
		c0.89-0.02,1.85,0.11,2.88,0.38c0.61,0.16,1.71,0.67,3.31,1.52c1.53,0.82,2.57,1.3,3.13,1.44c0.56,0.15,1.25,0.19,2.08,0.13
		s1.91-0.3,3.27-0.72l2.01,5.65l-0.93,0.35c-1.86,0.66-3.67,0.92-5.44,0.78c-1.76-0.14-3.58-0.74-5.46-1.79
		c-1.82-1.01-3.02-1.59-3.62-1.72c-0.6-0.13-1.22-0.08-1.87,0.15c-0.89,0.32-1.51,0.96-1.86,1.92c-0.35,0.96-0.31,2.07,0.14,3.32
		c0.46,1.28,1.21,2.19,2.25,2.75C111.34,510.53,112.46,510.6,113.65,510.19z M128.43,500.44c-0.36-1.01-0.32-2,0.12-2.97
		c0.44-0.96,1.15-1.62,2.14-1.97c0.99-0.35,1.96-0.3,2.91,0.16c0.95,0.46,1.61,1.19,1.96,2.19c0.36,1,0.31,1.98-0.14,2.93
		c-0.45,0.95-1.17,1.6-2.16,1.95c-0.99,0.35-1.95,0.3-2.89-0.14C129.43,502.15,128.78,501.43,128.43,500.44z"/>
	<path class="st2" d="M95.81,459.8l4.89,3.68c-1.87,2.03-2.64,3.86-2.31,5.5c0.16,0.8,0.51,1.4,1.04,1.82
		c0.53,0.42,1.06,0.57,1.6,0.46c0.53-0.11,1-0.39,1.41-0.85c0.54-0.62,1.6-2.39,3.18-5.29c1.46-2.71,2.4-4.37,2.8-4.96
		c0.99-1.49,2-2.6,3.03-3.35c1.03-0.75,2.22-1.26,3.56-1.53c2.62-0.54,4.96-0.07,7.04,1.38c2.08,1.46,3.41,3.64,4.01,6.55
		c0.47,2.27,0.31,4.36-0.45,6.28c-0.77,1.91-2.22,3.71-4.36,5.4l-4.12-4.47c2.5-2.11,3.55-4.17,3.14-6.16
		c-0.21-1.04-0.7-1.86-1.45-2.44c-0.75-0.58-1.53-0.8-2.32-0.63c-0.72,0.15-1.39,0.56-2,1.25c-0.61,0.68-1.48,2.09-2.59,4.22
		c-2.12,4.05-3.85,6.75-5.18,8.07c-1.33,1.33-2.76,2.15-4.29,2.46c-2.21,0.45-4.28,0-6.21-1.36c-1.93-1.36-3.15-3.28-3.65-5.75
		c-0.33-1.59-0.27-3.18,0.17-4.77C93.18,463.71,94.2,461.88,95.81,459.8z"/>
	<path class="st2" d="M90.15,452.09l-2.02-17.65l6.02-0.69l1.32,11.54l5.85-0.67L100,433.08l5.91-0.68l1.32,11.54l8.51-0.97
		l-1.32-11.54l6.04-0.69l2.02,17.65L90.15,452.09z"/>
	<path class="st2" d="M86.51,411.15c-0.07-4.6,1.53-8.59,4.81-11.96s7.32-5.09,12.11-5.17c4.75-0.08,8.79,1.49,12.14,4.71
		c3.34,3.22,5.05,7.15,5.13,11.82c0.08,4.88-1.54,8.97-4.87,12.26c-3.32,3.29-7.31,4.97-11.96,5.04c-3.11,0.05-5.98-0.66-8.62-2.12
		s-4.74-3.5-6.31-6.11C87.37,417.01,86.56,414.19,86.51,411.15z M92.57,411.11c0.05,3.01,1.14,5.53,3.26,7.54
		c2.13,2.02,4.81,3,8.04,2.95c3.6-0.06,6.42-1.4,8.48-4.01c1.6-2.03,2.39-4.35,2.34-6.95c-0.05-2.94-1.15-5.42-3.31-7.46
		c-2.16-2.03-4.79-3.02-7.9-2.97c-3.1,0.05-5.7,1.13-7.81,3.25C93.56,405.58,92.53,408.13,92.57,411.11z"/>
	<path class="st2" d="M88.22,384.98l0.77-6.17l20.88,2.6c1.8,0.22,3.09,0.23,3.88,0c0.79-0.22,1.45-0.67,1.98-1.34s0.87-1.52,1-2.54
		c0.14-1.08,0-2.05-0.4-2.89c-0.4-0.84-0.96-1.46-1.7-1.86c-0.73-0.4-2.18-0.73-4.34-1l-20.12-2.5l0.77-6.17l19.25,2.4
		c3.25,0.4,5.48,0.87,6.69,1.39c1.21,0.52,2.34,1.37,3.38,2.55c1.04,1.18,1.76,2.48,2.16,3.89c0.4,1.42,0.48,3.02,0.26,4.8
		c-0.29,2.34-1.08,4.31-2.38,5.91c-1.29,1.6-2.79,2.67-4.5,3.22c-1.71,0.55-4.49,0.58-8.34,0.1L88.22,384.98z"/>
	<path class="st2" d="M92.76,353.8l1.33-6.05l26.02,5.7l1.93-8.82l5.77,1.26l-3.26,14.87L92.76,353.8z"/>
	<path class="st2" d="M106.54,303.81c1.68-4.29,4.67-7.37,8.98-9.24c4.31-1.87,8.7-1.94,13.16-0.2c4.42,1.73,7.57,4.71,9.45,8.95
		c1.87,4.24,1.96,8.53,0.27,12.88c-1.78,4.55-4.83,7.72-9.15,9.5c-4.32,1.78-8.65,1.83-12.97,0.14c-2.9-1.13-5.29-2.87-7.17-5.23
		c-1.88-2.35-3.06-5.03-3.52-8.04C105.11,309.56,105.43,306.64,106.54,303.81z M112.16,306.08c-1.1,2.81-1.04,5.55,0.16,8.22
		c1.2,2.67,3.31,4.6,6.32,5.77c3.35,1.31,6.47,1.14,9.36-0.5c2.26-1.27,3.86-3.12,4.8-5.54c1.07-2.74,0.99-5.45-0.24-8.15
		c-1.23-2.7-3.29-4.61-6.19-5.75c-2.88-1.13-5.71-1.11-8.46,0.05C115.17,301.33,113.24,303.3,112.16,306.08z"/>
	<path class="st2" d="M117.6,280.26l3.54-6.43c2.28-4.14,4.49-6.94,6.63-8.39c2.14-1.45,4.72-2.19,7.75-2.22
		c3.03-0.03,6.09,0.8,9.18,2.5c2.2,1.21,4.01,2.69,5.45,4.43s2.41,3.59,2.92,5.54c0.51,1.95,0.58,3.81,0.22,5.56
		c-0.36,1.75-1.56,4.48-3.59,8.17l-3.59,6.53L117.6,280.26z M125.79,277.75l17.98,9.9l1.39-2.52c1.37-2.48,2.07-4.44,2.12-5.87
		c0.05-1.43-0.41-2.87-1.36-4.32c-0.95-1.45-2.41-2.72-4.38-3.8c-3.03-1.67-5.84-2.11-8.44-1.34c-2.34,0.7-4.44,2.73-6.29,6.11
		L125.79,277.75z"/>
	<path class="st2" d="M134.76,250.59l10.13-14.6l4.98,3.46l-6.62,9.54l4.83,3.35l6.62-9.54l4.89,3.39l-6.62,9.54l7.03,4.88
		l6.62-9.54l5,3.47l-10.13,14.6L134.76,250.59z"/>
	<path class="st2" d="M158.97,231.74l-3.72,4.44c-2.2-1.8-3.37-4.06-3.52-6.76c-0.15-2.71,0.81-5.3,2.88-7.77
		c1.34-1.59,2.77-2.7,4.29-3.33c1.53-0.63,3.12-0.81,4.8-0.56c1.67,0.26,3.12,0.9,4.34,1.92c0.67,0.56,1.23,1.22,1.7,1.97
		s0.84,1.65,1.13,2.68c0.17,0.6,0.29,1.81,0.37,3.63c0.07,1.73,0.18,2.88,0.34,3.43c0.16,0.56,0.47,1.18,0.94,1.86
		s1.23,1.5,2.27,2.45l-3.85,4.6l-0.78-0.62c-1.51-1.27-2.66-2.7-3.43-4.29c-0.77-1.59-1.18-3.46-1.23-5.62
		c-0.05-2.08-0.16-3.41-0.35-3.99c-0.19-0.58-0.55-1.09-1.08-1.54c-0.72-0.61-1.59-0.82-2.6-0.63c-1.01,0.18-1.94,0.78-2.79,1.8
		c-0.87,1.04-1.28,2.15-1.23,3.33C157.5,229.91,158.01,230.91,158.97,231.74z M174.86,239.54c0.69-0.82,1.56-1.29,2.62-1.4
		c1.05-0.11,1.98,0.17,2.78,0.85c0.8,0.67,1.25,1.54,1.34,2.59c0.09,1.05-0.21,1.99-0.89,2.8s-1.55,1.27-2.6,1.36
		c-1.05,0.09-1.98-0.2-2.78-0.87c-0.8-0.67-1.25-1.53-1.34-2.57C173.9,241.26,174.19,240.34,174.86,239.54z"/>
	<path class="st2" d="M193.33,190.79l-0.69,6.08c-2.7-0.58-4.67-0.31-5.91,0.81c-0.6,0.54-0.95,1.15-1.04,1.82
		c-0.09,0.67,0.05,1.21,0.41,1.61c0.37,0.4,0.85,0.66,1.45,0.78c0.81,0.14,2.87,0.16,6.17,0.05c3.08-0.12,4.98-0.16,5.7-0.11
		c1.78,0.1,3.26,0.4,4.42,0.91c1.17,0.51,2.21,1.27,3.13,2.29c1.79,1.98,2.59,4.23,2.38,6.76c-0.2,2.53-1.4,4.79-3.6,6.78
		c-1.72,1.56-3.6,2.49-5.64,2.8c-2.04,0.31-4.33-0.02-6.87-1.01l1.75-5.82c3.09,1.08,5.39,0.94,6.9-0.43
		c0.79-0.71,1.24-1.54,1.36-2.49c0.12-0.94-0.09-1.72-0.63-2.32c-0.49-0.55-1.19-0.91-2.09-1.09c-0.9-0.18-2.55-0.21-4.95-0.09
		c-4.57,0.23-7.76,0.12-9.58-0.35s-3.26-1.29-4.3-2.45c-1.51-1.67-2.17-3.69-1.98-6.04c0.19-2.35,1.23-4.37,3.1-6.07
		c1.2-1.09,2.6-1.85,4.2-2.28S190.72,190.46,193.33,190.79z"/>
	<path class="st2" d="M197.06,182.01l14.17-10.72l3.66,4.83l-9.26,7.01l3.55,4.69l9.26-7.01l3.59,4.75l-9.26,7.01l5.17,6.83
		l9.26-7.01l3.67,4.85l-14.17,10.72L197.06,182.01z"/>
	<path class="st2" d="M231.04,157.71c3.97-2.34,8.22-2.91,12.77-1.73c4.55,1.19,8.04,3.85,10.47,7.98c2.41,4.09,3.05,8.38,1.9,12.88
		c-1.14,4.49-3.73,7.93-7.74,10.29c-4.21,2.48-8.56,3.09-13.06,1.82c-4.5-1.27-7.93-3.9-10.29-7.9c-1.58-2.68-2.39-5.53-2.42-8.54
		c-0.03-3.01,0.7-5.85,2.2-8.5C226.37,161.35,228.42,159.26,231.04,157.71z M234.06,162.97c-2.59,1.53-4.24,3.72-4.95,6.56
		c-0.7,2.85-0.24,5.66,1.41,8.44c1.83,3.1,4.39,4.9,7.68,5.39c2.56,0.39,4.96-0.07,7.2-1.4c2.53-1.49,4.15-3.68,4.85-6.56
		c0.7-2.88,0.26-5.66-1.32-8.34c-1.57-2.67-3.8-4.4-6.69-5.19S236.63,161.45,234.06,162.97z"/>
	<path class="st2" d="M253.95,146.22l5.71-2.46l8.33,19.32c0.72,1.66,1.37,2.78,1.96,3.34s1.31,0.91,2.16,1.03
		c0.85,0.12,1.75-0.02,2.69-0.43c1-0.43,1.77-1.03,2.29-1.81c0.53-0.77,0.77-1.57,0.75-2.4s-0.48-2.25-1.34-4.25l-8.03-18.61
		l5.71-2.46l7.68,17.82c1.3,3.01,2.03,5.17,2.19,6.48c0.16,1.31,0,2.71-0.49,4.21c-0.49,1.5-1.24,2.77-2.26,3.83
		c-1.02,1.06-2.36,1.94-4.01,2.66c-2.17,0.94-4.27,1.25-6.3,0.95s-3.72-1.05-5.06-2.25c-1.34-1.2-2.77-3.58-4.31-7.14L253.95,146.22
		z"/>
	<path class="st2" d="M283.13,134.34l5.89-1.92l8.26,25.33l8.58-2.8l1.83,5.62l-14.47,4.72L283.13,134.34z"/>
</g>
<g>
	<path class="st3" d="M309.77,562.84c0,0,38.97-18.14,55.98-27.23"/>
	<path class="st3" d="M323.04,570.11c0,0,42.58-0.9,61.1-11.35"/>
	<g>
		<g>
			<path class="st3" d="M420.44,468.92c0,0-78.95,38.54-47.13,77.24c0,0,63.63,54.18,100.75,15.48c0,0,29.76-44.47,6.93-82.22
				C480.98,479.42,478.18,449.74,420.44,468.92z"/>
			<path class="st3" d="M462.27,462.47c0,0,11.78-20.8-9.43-26.6c0,0-28.87-2.66-75.41,32.54c-2.88,2.18-84.11,42.8-78.58,71.89
				c0,0-3.1,45.35,72.8,35.29c0,0,20.22-3.32,34.8-8.63"/>
			<path class="st3" d="M311.98,513.24c0,0-18.05-32.72,19.14-69.4c9.79-9.66,23.41-19.59,42.2-29.26c0,0,79.54-36.21,79.54-12.3
				c0,0.69,11.91,24.09-4.65,33.67"/>
			<path class="st3" d="M434.93,394.48c0,0,19.22-17.95,13.27-47.31c0,0-21.07-26.07-82.44,16.79c0,0-56.07,35.13-45.47,62.22
				c0,0,0.45,19.83,10.83,17.65"/>
			<path class="st3" d="M435.64,339.32c0,0,19.9-29.17-7.96-33.08c0,0-38.46,7.71-59.67,23.19c0,0-26.51,19.35-26.51,27.09
				c0,0-15.49,19.53-5.1,31.05"/>
			<path class="st3" d="M420.44,307.91c0,0,13.38-26.3,1.68-29.48c0,0-42.24-2.13-72.04,34.11c0,0-22.28,25.46,3.12,28.92"/>
			<path class="st3" d="M416.22,278.41c0,0,1.7-30.77-28.56-13.1c-30.26,17.68-50.19,34.21-37.58,47.23"/>
			<path class="st3" d="M361.61,282.6c0,0-17.01-5.38,0-19.91s4.15-27.46,4.15-27.46s4.61-17.11,16.69-4.03s15.15,8.44,13.61,30.11"
				/>
		</g>
		<path class="st3" d="M309.77,492.62c0,0,76.3-75.06,145.97-79.91"/>
		<path class="st3" d="M309.77,480.52c0,0,63.03-70.22,142.66-77.49"/>
		<path class="st3" d="M309.77,502.49c0-0.18,92.89-77.65,145.97-81.29"/>
		<path class="st3" d="M303.14,550.74c0,0,56.58-58.37,97.96-70.35"/>
		<path class="st3" d="M319.73,422.4c0,0,79.62-75.06,126.07-70.22"/>
		<path class="st3" d="M326.36,432.09c0,0,71.92-61.81,122.22-64.8"/>
		<path class="st3" d="M336.31,371.55c-3.32,0,56.4-53.27,102.85-53.27"/>
		<path class="st3" d="M341.18,332.95c0,0,44.9-43.72,84.71-41.3"/>
	</g>
</g>
<path class="st4" d="M281.04,408.69c16.83,4.33,35.4-11.33,35.4-11.33s-8.72-22.67-25.55-27c-16.83-4.33-35.4,11.33-35.4,11.33
	S264.21,404.36,281.04,408.69z"/>
<path class="st4" d="M301.62,355.92c-2.45,13.57,9.94,27.16,9.94,27.16s16.38-8.39,18.83-21.96c2.45-13.57-9.94-27.16-9.94-27.16
	S304.07,342.35,301.62,355.92z"/>
</svg>
