<?xml version="1.0" encoding="utf-8"?>
<!-- Generator: Adobe Illustrator 27.4.0, SVG Export Plug-In . SVG Version: 6.00 Build 0)  -->
<svg version="1.1" id="레이어_1" xmlns="http://www.w3.org/2000/svg" xmlns:xlink="http://www.w3.org/1999/xlink" x="0px"
	 y="0px" viewBox="0 0 762.52 822.05" style="enable-background:new 0 0 762.52 822.05;" xml:space="preserve">
<style type="text/css">
	.st0{fill:none;stroke:#463C33;stroke-width:3;stroke-miterlimit:10;}
	.st1{fill:none;stroke:#463C33;stroke-width:3;stroke-linecap:round;stroke-linejoin:round;stroke-dasharray:3.0072,6.0144;}
	.st2{fill:#463C33;}
	.st3{fill:#ABB868;}
	.st4{fill:none;stroke:#463C33;stroke-width:4;stroke-linecap:round;stroke-linejoin:round;stroke-miterlimit:10;}
</style>
<g>
	<circle class="st0" cx="381.26" cy="411.02" r="319.46"/>
	<circle class="st0" cx="381.26" cy="411.02" r="250.06"/>
	<circle class="st0" cx="381.26" cy="411.02" r="224.94"/>
	<g>
		<circle class="st1" cx="381.26" cy="411.02" r="236.9"/>
	</g>
</g>
<g>
	<path class="st2" d="M350.78,118.99c4.59-0.5,8.72,0.73,12.39,3.69s5.76,6.84,6.29,11.62c0.52,4.74-0.68,8.92-3.58,12.56
		c-2.9,3.64-6.68,5.71-11.33,6.22c-4.87,0.53-9.11-0.71-12.7-3.73c-3.59-3.02-5.64-6.84-6.15-11.48c-0.34-3.1,0.1-6.04,1.32-8.81
		c1.22-2.77,3.06-5.06,5.52-6.87C345,120.4,347.74,119.33,350.78,118.99z M351.37,125.05c-3,0.33-5.42,1.65-7.24,3.96
		c-1.82,2.31-2.55,5.08-2.2,8.3c0.39,3.59,1.99,6.29,4.8,8.1c2.18,1.41,4.57,1.98,7.16,1.7c2.93-0.32,5.31-1.65,7.14-4
		c1.83-2.34,2.58-5.07,2.24-8.17c-0.34-3.09-1.66-5.59-3.97-7.51S354.35,124.72,351.37,125.05z"/>
	<path class="st2" d="M376.78,117.89l7.36,0.15c4.75,0.1,8.26,0.75,10.54,1.98c2.28,1.22,4.14,3.17,5.58,5.85
		c1.44,2.68,2.12,5.79,2.05,9.32c-0.05,2.52-0.51,4.82-1.39,6.91c-0.88,2.09-2.07,3.82-3.57,5.18c-1.5,1.36-3.11,2.29-4.84,2.79
		s-4.7,0.71-8.93,0.62l-7.47-0.15L376.78,117.89z M382.83,124l-0.41,20.6l2.88,0.06c2.84,0.06,4.91-0.23,6.2-0.85
		c1.29-0.63,2.36-1.7,3.21-3.23s1.29-3.41,1.33-5.66c0.07-3.47-0.85-6.17-2.75-8.12c-1.71-1.75-4.5-2.67-8.36-2.75L382.83,124z"/>
	<path class="st2" d="M411.12,119.3l17.69,2.18l-0.74,6.04l-11.57-1.42l-0.72,5.86l11.57,1.42l-0.73,5.93l-11.57-1.42l-1.05,8.53
		l11.57,1.42l-0.75,6.06l-17.69-2.18L411.12,119.3z"/>
	<path class="st2" d="M439.2,132l-5.68-1.24c0.58-2.79,2.03-4.89,4.37-6.28c2.33-1.4,5.08-1.75,8.25-1.06
		c2.04,0.44,3.69,1.2,4.96,2.26c1.27,1.06,2.18,2.4,2.73,4s0.66,3.19,0.32,4.75c-0.19,0.85-0.51,1.66-0.96,2.43
		c-0.45,0.76-1.07,1.52-1.85,2.26c-0.46,0.43-1.47,1.1-3.05,2.02c-1.51,0.87-2.47,1.5-2.89,1.9c-0.42,0.4-0.82,0.97-1.21,1.7
		s-0.76,1.79-1.12,3.16l-5.88-1.28l0.19-0.98c0.42-1.94,1.16-3.62,2.21-5.05s2.53-2.67,4.42-3.71c1.83-1.01,2.95-1.74,3.38-2.17
		c0.43-0.44,0.72-1,0.86-1.67c0.2-0.93-0.02-1.79-0.65-2.61c-0.63-0.81-1.6-1.36-2.9-1.64c-1.33-0.29-2.51-0.13-3.53,0.46
		S439.49,130.76,439.2,132z M439.68,149.75c1.06,0.23,1.88,0.79,2.46,1.67c0.59,0.89,0.77,1.84,0.55,2.87
		c-0.22,1.03-0.78,1.83-1.68,2.4s-1.87,0.74-2.91,0.52c-1.04-0.23-1.85-0.78-2.42-1.67c-0.57-0.89-0.75-1.85-0.52-2.87
		c0.22-1.03,0.78-1.82,1.66-2.39C437.7,149.7,438.66,149.53,439.68,149.75z"/>
	<path class="st2" d="M491.62,143.48l-5.73,2.22c-0.74-2.67-1.89-4.3-3.46-4.88c-0.77-0.28-1.47-0.31-2.1-0.08
		c-0.64,0.23-1.05,0.6-1.24,1.11c-0.19,0.51-0.2,1.06-0.02,1.65c0.25,0.79,1.19,2.62,2.82,5.52c1.54,2.68,2.45,4.35,2.75,5.01
		c0.74,1.63,1.16,3.08,1.25,4.35c0.09,1.27-0.1,2.55-0.58,3.84c-0.93,2.51-2.56,4.27-4.91,5.26c-2.34,1-4.91,0.98-7.7-0.05
		c-2.18-0.81-3.88-2.04-5.11-3.71c-1.22-1.67-1.99-3.86-2.3-6.58l5.99-1.15c0.47,3.25,1.67,5.23,3.59,5.94
		c1,0.37,1.95,0.39,2.85,0.06c0.9-0.33,1.49-0.88,1.77-1.64c0.26-0.69,0.26-1.48,0-2.37c-0.26-0.88-1-2.36-2.22-4.44
		c-2.33-3.95-3.71-6.85-4.14-8.69c-0.43-1.84-0.37-3.49,0.17-4.96c0.78-2.12,2.27-3.65,4.45-4.57s4.46-0.94,6.84-0.07
		c1.53,0.56,2.85,1.46,3.98,2.68S490.7,141.01,491.62,143.48z"/>
	<path class="st2" d="M501.18,142.74l16.11,7.63l-2.6,5.5l-10.53-4.99l-2.53,5.34l10.53,4.99l-2.56,5.4l-10.53-4.99l-3.68,7.76
		l10.53,4.99l-2.61,5.52l-16.11-7.63L501.18,142.74z"/>
	<path class="st2" d="M538.58,161.71c3.92,2.44,6.41,5.97,7.46,10.56s0.3,8.94-2.24,13.02c-2.52,4.04-6.05,6.6-10.58,7.66
		c-4.53,1.06-8.78,0.36-12.75-2.12c-4.16-2.59-6.72-6.19-7.68-10.78c-0.96-4.59-0.2-8.87,2.26-12.82c1.65-2.65,3.81-4.69,6.48-6.11
		c2.67-1.42,5.53-2.09,8.58-1.99C533.17,159.24,535.99,160.1,538.58,161.71z M535.31,166.84c-2.56-1.6-5.28-2.05-8.14-1.36
		s-5.15,2.42-6.86,5.17c-1.91,3.06-2.32,6.17-1.23,9.33c0.84,2.46,2.37,4.38,4.58,5.76c2.5,1.56,5.2,1.99,8.08,1.27
		c2.89-0.71,5.16-2.39,6.81-5.04c1.64-2.64,2.15-5.42,1.52-8.35S537.85,168.42,535.31,166.84z"/>
	<path class="st2" d="M559.42,176.76l4.84,3.94l-13.32,16.39c-1.15,1.41-1.83,2.51-2.06,3.3c-0.23,0.79-0.2,1.58,0.08,2.4
		s0.83,1.54,1.63,2.2c0.85,0.69,1.74,1.09,2.67,1.2s1.76-0.04,2.49-0.45c0.72-0.41,1.78-1.47,3.16-3.16l12.83-15.78l4.84,3.94
		l-12.28,15.11c-2.07,2.55-3.65,4.2-4.74,4.96s-2.41,1.26-3.97,1.52s-3.04,0.18-4.46-0.23c-1.42-0.42-2.83-1.19-4.23-2.33
		c-1.84-1.49-3.09-3.22-3.77-5.17c-0.67-1.95-0.79-3.8-0.34-5.54c0.45-1.75,1.9-4.13,4.35-7.15L559.42,176.76z"/>
	<path class="st2" d="M583.51,197.18l4.45,4.34l-18.67,19.12l6.48,6.33l-4.14,4.24l-10.93-10.67L583.51,197.18z"/>
	<path class="st2" d="M618.76,235.41c2.77,3.7,3.81,7.88,3.12,12.55s-2.95,8.44-6.8,11.32c-3.82,2.86-8.03,3.96-12.64,3.31
		c-4.61-0.65-8.31-2.85-11.12-6.59c-2.94-3.92-4.02-8.2-3.25-12.83c0.77-4.63,3.02-8.34,6.75-11.13c2.5-1.87,5.25-2.99,8.25-3.35
		c3-0.36,5.91,0.06,8.72,1.26C614.62,231.14,616.94,232.96,618.76,235.41z M613.85,239c-1.81-2.42-4.17-3.82-7.09-4.21
		c-2.92-0.39-5.67,0.39-8.27,2.33c-2.89,2.16-4.4,4.91-4.53,8.25c-0.11,2.6,0.62,4.94,2.18,7.03c1.77,2.36,4.12,3.73,7.07,4.12
		c2.95,0.38,5.67-0.36,8.17-2.23c2.49-1.86,3.97-4.28,4.44-7.24C616.31,244.07,615.65,241.4,613.85,239z"/>
	<path class="st2" d="M632.98,257.28l3.61,6.42c2.33,4.14,3.54,7.5,3.65,10.09c0.1,2.59-0.63,5.18-2.21,7.78s-3.91,4.77-6.99,6.5
		c-2.19,1.23-4.41,2-6.66,2.31c-2.25,0.31-4.34,0.16-6.27-0.44c-1.93-0.6-3.55-1.52-4.86-2.75c-1.3-1.23-2.99-3.69-5.07-7.38
		l-3.66-6.52L632.98,257.28z M630.78,265.6l-17.96,10.1l1.42,2.52c1.39,2.48,2.69,4.11,3.88,4.91c1.2,0.8,2.67,1.17,4.41,1.13
		c1.74-0.05,3.59-0.62,5.56-1.72c3.02-1.7,4.89-3.86,5.61-6.49c0.64-2.36,0.02-5.23-1.88-8.6L630.78,265.6z"/>
	<path class="st2" d="M649.2,287.62l7.08,16.36l-5.58,2.42l-4.63-10.7l-5.42,2.35l4.63,10.7l-5.48,2.37l-4.63-10.7l-7.88,3.41
		l4.63,10.7l-5.6,2.43l-7.08-16.36L649.2,287.62z"/>
	<path class="st2" d="M637.39,327.67c0.34,1.03,0.27,2.02-0.19,2.97c-0.47,0.95-1.2,1.6-2.2,1.92c-1,0.33-1.97,0.25-2.92-0.24
		c-0.94-0.48-1.58-1.23-1.92-2.25c-0.33-1.01-0.26-1.99,0.22-2.93c0.48-0.94,1.21-1.58,2.21-1.91c1-0.33,1.96-0.25,2.9,0.22
		C636.44,325.93,637.07,326.67,637.39,327.67z M652.47,318.27l-1.81-5.53c2.7-0.92,5.24-0.72,7.63,0.58
		c2.39,1.31,4.08,3.5,5.09,6.58c0.65,1.98,0.84,3.79,0.56,5.42c-0.28,1.63-0.96,3.09-2.07,4.38c-1.1,1.29-2.42,2.18-3.93,2.68
		c-0.83,0.27-1.69,0.41-2.58,0.4c-0.89,0-1.85-0.16-2.88-0.46c-0.6-0.18-1.7-0.71-3.28-1.61c-1.51-0.86-2.55-1.37-3.11-1.53
		c-0.56-0.16-1.25-0.22-2.08-0.18c-0.83,0.04-1.93,0.25-3.3,0.64l-1.87-5.72l0.94-0.33c1.88-0.62,3.71-0.83,5.48-0.65
		c1.77,0.18,3.58,0.83,5.43,1.93c1.8,1.06,2.99,1.67,3.59,1.82c0.59,0.15,1.22,0.11,1.88-0.1c0.9-0.29,1.54-0.92,1.92-1.88
		c0.38-0.96,0.36-2.07-0.05-3.33c-0.42-1.29-1.15-2.23-2.19-2.81C654.79,317.99,653.67,317.89,652.47,318.27z"/>
	<path class="st2" d="M669.09,369.28l-4.81-3.82c1.93-1.99,2.75-3.81,2.45-5.45c-0.14-0.8-0.48-1.42-1-1.85
		c-0.52-0.43-1.05-0.6-1.59-0.51c-0.54,0.1-1.02,0.37-1.43,0.82c-0.55,0.61-1.66,2.35-3.33,5.23c-1.53,2.68-2.51,4.32-2.93,4.91
		c-1.03,1.46-2.07,2.56-3.12,3.28c-1.05,0.72-2.25,1.21-3.61,1.45c-2.64,0.47-4.98-0.05-7.02-1.57c-2.05-1.52-3.33-3.74-3.85-6.67
		c-0.41-2.29-0.21-4.38,0.61-6.28c0.82-1.9,2.32-3.67,4.51-5.31l4.02,4.59c-2.56,2.06-3.67,4.09-3.31,6.1
		c0.19,1.05,0.65,1.88,1.39,2.48c0.74,0.61,1.51,0.84,2.31,0.69c0.73-0.13,1.41-0.53,2.04-1.2s1.53-2.06,2.71-4.17
		c2.23-4.01,4.03-6.67,5.4-7.97s2.83-2.09,4.37-2.36c2.23-0.4,4.29,0.11,6.19,1.52c1.9,1.41,3.07,3.37,3.52,5.86
		c0.29,1.6,0.19,3.2-0.29,4.78S670.75,367.23,669.09,369.28z"/>
	<path class="st2" d="M674.57,377.15l1.58,17.76l-6.06,0.54l-1.04-11.61l-5.88,0.52l1.04,11.61l-5.95,0.53l-1.04-11.61l-8.56,0.76
		l1.04,11.61l-6.08,0.54l-1.58-17.76L674.57,377.15z"/>
	<path class="st2" d="M677.19,418.96c-0.11,4.62-1.88,8.55-5.31,11.79c-3.43,3.24-7.54,4.8-12.35,4.69
		c-4.76-0.12-8.76-1.86-11.97-5.22c-3.22-3.36-4.77-7.38-4.66-12.06c0.12-4.9,1.91-8.93,5.38-12.09s7.53-4.68,12.19-4.57
		c3.12,0.08,5.97,0.9,8.55,2.48c2.58,1.57,4.61,3.7,6.07,6.38C676.57,413.05,677.27,415.91,677.19,418.96z M671.11,418.75
		c0.07-3.02-0.91-5.59-2.96-7.7c-2.05-2.11-4.7-3.21-7.94-3.28c-3.61-0.09-6.5,1.14-8.66,3.68c-1.69,1.97-2.57,4.26-2.63,6.87
		c-0.07,2.95,0.93,5.48,3.01,7.61c2.08,2.13,4.68,3.23,7.8,3.3c3.11,0.08,5.76-0.9,7.97-2.94
		C669.9,424.25,671.04,421.74,671.11,418.75z"/>
	<path class="st2" d="M674.83,444.55l-0.93,6.17l-20.88-3.14c-1.8-0.27-3.09-0.3-3.89-0.1c-0.79,0.2-1.47,0.63-2.02,1.29
		c-0.55,0.66-0.91,1.5-1.06,2.52c-0.16,1.08-0.05,2.05,0.33,2.91c0.38,0.86,0.93,1.49,1.65,1.91c0.72,0.42,2.17,0.79,4.33,1.11
		l20.12,3.02l-0.93,6.17l-19.25-2.89c-3.25-0.49-5.48-1.01-6.68-1.56c-1.2-0.56-2.31-1.44-3.33-2.64c-1.02-1.21-1.7-2.53-2.07-3.96
		c-0.36-1.43-0.41-3.04-0.14-4.83c0.35-2.34,1.2-4.3,2.53-5.87c1.34-1.57,2.87-2.61,4.6-3.11s4.52-0.47,8.37,0.11L674.83,444.55z"/>
	<path class="st2" d="M669.49,475.71l-1.48,6.04l-25.96-6.38l-2.16,8.8l-5.76-1.41l3.64-14.83L669.49,475.71z"/>
	<path class="st2" d="M654.4,525.51c-1.79,4.26-4.87,7.28-9.24,9.04c-4.37,1.77-8.78,1.72-13.21-0.14
		c-4.39-1.84-7.48-4.92-9.25-9.22c-1.77-4.3-1.75-8.61,0.06-12.93c1.9-4.52,5.04-7.62,9.42-9.3c4.38-1.68,8.72-1.61,13.02,0.19
		c2.88,1.21,5.23,3.02,7.06,5.42c1.83,2.41,2.94,5.13,3.33,8.16S655.58,522.7,654.4,525.51z M648.82,523.09
		c1.17-2.79,1.19-5.54,0.05-8.25c-1.14-2.71-3.21-4.7-6.19-5.95c-3.33-1.4-6.46-1.31-9.41,0.27c-2.29,1.22-3.95,3.03-4.96,5.44
		c-1.14,2.72-1.13,5.45,0.03,8.18c1.16,2.74,3.18,4.71,6.06,5.92c2.87,1.2,5.7,1.26,8.49,0.17
		C645.68,527.78,647.66,525.85,648.82,523.09z"/>
	<path class="st2" d="M642.72,548.84l-3.71,6.36c-2.39,4.1-4.68,6.85-6.86,8.25c-2.18,1.4-4.79,2.08-7.83,2.03s-6.09-0.96-9.14-2.74
		c-2.17-1.27-3.96-2.79-5.36-4.58c-1.4-1.79-2.33-3.66-2.79-5.64c-0.46-1.97-0.49-3.83-0.08-5.58c0.4-1.75,1.67-4.45,3.8-8.1
		l3.77-6.46L642.72,548.84z M634.43,551.15l-17.79-10.39l-1.46,2.49c-1.43,2.45-2.19,4.4-2.27,5.83c-0.08,1.43,0.34,2.89,1.26,4.37
		c0.92,1.48,2.35,2.79,4.3,3.92c2.99,1.75,5.81,2.27,8.43,1.56c2.36-0.64,4.52-2.63,6.47-5.97L634.43,551.15z"/>
	<path class="st2" d="M624.75,578.17l-10.52,14.39l-4.91-3.59l6.88-9.41l-4.77-3.49l-6.88,9.41l-4.82-3.53l6.88-9.41l-6.93-5.07
		l-6.88,9.41l-4.93-3.6l10.53-14.39L624.75,578.17z"/>
	<path class="st2" d="M584.23,588.27c-0.71,0.81-1.6,1.26-2.66,1.34c-1.06,0.08-1.98-0.22-2.77-0.92c-0.79-0.7-1.21-1.57-1.27-2.63
		c-0.06-1.06,0.26-1.99,0.96-2.79c0.71-0.8,1.58-1.23,2.64-1.3s1.98,0.25,2.76,0.94c0.79,0.69,1.22,1.56,1.28,2.61
		C585.24,586.57,584.93,587.49,584.23,588.27z M599.98,596.5l3.85-4.36c2.16,1.86,3.28,4.15,3.36,6.87
		c0.08,2.72-0.95,5.29-3.09,7.72c-1.38,1.57-2.84,2.64-4.39,3.23c-1.55,0.59-3.16,0.74-4.83,0.44c-1.67-0.3-3.11-0.98-4.3-2.03
		c-0.66-0.58-1.21-1.25-1.65-2.02c-0.45-0.77-0.8-1.67-1.07-2.72c-0.15-0.61-0.25-1.83-0.28-3.65c-0.03-1.74-0.11-2.89-0.26-3.45
		c-0.15-0.56-0.45-1.19-0.9-1.89c-0.45-0.69-1.19-1.53-2.22-2.52l3.98-4.51l0.76,0.64c1.49,1.31,2.6,2.77,3.34,4.39
		c0.74,1.62,1.1,3.5,1.09,5.67c-0.01,2.09,0.08,3.42,0.25,4.01c0.17,0.59,0.52,1.11,1.04,1.57c0.71,0.63,1.58,0.86,2.59,0.7
		c1.02-0.16,1.97-0.74,2.85-1.74c0.9-1.02,1.34-2.12,1.31-3.31C601.4,598.37,600.92,597.35,599.98,596.5z"/>
	<path class="st2" d="M564.5,636.69l0.84-6.08c2.69,0.65,4.67,0.43,5.94-0.66c0.62-0.53,0.98-1.13,1.09-1.8
		c0.11-0.67-0.02-1.21-0.37-1.63c-0.36-0.42-0.83-0.69-1.43-0.82c-0.81-0.17-2.87-0.23-6.19-0.21c-3.09,0.04-5,0.03-5.72-0.03
		c-1.79-0.14-3.26-0.48-4.41-1.02c-1.16-0.54-2.18-1.33-3.08-2.37c-1.75-2.03-2.49-4.31-2.22-6.84c0.27-2.53,1.53-4.77,3.79-6.71
		c1.76-1.52,3.67-2.41,5.72-2.67s4.34,0.13,6.87,1.18l-1.91,5.8c-3.07-1.16-5.38-1.08-6.94,0.26c-0.81,0.7-1.29,1.52-1.43,2.46
		c-0.15,0.95,0.05,1.73,0.58,2.34c0.48,0.56,1.17,0.94,2.07,1.15c0.9,0.2,2.55,0.27,4.96,0.21c4.59-0.12,7.79,0.08,9.61,0.6
		s3.23,1.37,4.26,2.56c1.48,1.72,2.09,3.75,1.84,6.11c-0.25,2.35-1.34,4.36-3.26,6.01c-1.24,1.06-2.66,1.79-4.27,2.18
		C569.22,637.09,567.11,637.09,564.5,636.69z"/>
	<path class="st2" d="M560.52,645.41l-14.48,10.4l-3.55-4.94l9.47-6.8l-3.44-4.8l-9.47,6.8l-3.48-4.85l9.47-6.8l-5.01-6.98
		l-9.47,6.8l-3.56-4.96l14.48-10.4L560.52,645.41z"/>
	<path class="st2" d="M525.82,668.94c-4.04,2.25-8.32,2.72-12.85,1.41c-4.53-1.31-7.97-4.06-10.31-8.26
		c-2.32-4.17-2.84-8.49-1.58-12.97c1.26-4.48,3.94-7.86,8.03-10.13c4.28-2.38,8.67-2.88,13.15-1.5c4.48,1.38,7.86,4.11,10.12,8.19
		c1.52,2.73,2.25,5.61,2.21,8.63c-0.05,3.02-0.85,5.85-2.42,8.47C530.6,665.4,528.48,667.46,525.82,668.94z M522.92,663.59
		c2.64-1.47,4.35-3.62,5.13-6.46c0.78-2.84,0.38-5.67-1.2-8.5c-1.76-3.16-4.28-5.02-7.56-5.6c-2.56-0.46-4.98-0.05-7.26,1.22
		c-2.58,1.43-4.25,3.58-5.03,6.46s-0.41,5.67,1.11,8.4c1.51,2.72,3.7,4.51,6.58,5.37C517.56,665.34,520.3,665.05,522.92,663.59z"/>
	<path class="st2" d="M502.53,679.9l-5.79,2.32l-7.87-19.6c-0.68-1.69-1.3-2.82-1.88-3.4c-0.58-0.58-1.29-0.94-2.14-1.09
		s-1.75-0.03-2.71,0.36c-1.02,0.41-1.8,0.99-2.35,1.75c-0.55,0.76-0.82,1.56-0.81,2.39c0.01,0.83,0.42,2.27,1.23,4.3l7.58,18.88
		l-5.79,2.33l-7.25-18.07c-1.22-3.05-1.9-5.23-2.03-6.55c-0.13-1.32,0.07-2.72,0.59-4.21c0.53-1.49,1.32-2.75,2.37-3.79
		c1.05-1.04,2.42-1.89,4.09-2.56c2.2-0.88,4.31-1.15,6.34-0.79c2.03,0.36,3.7,1.15,5.01,2.39c1.31,1.24,2.69,3.66,4.14,7.27
		L502.53,679.9z"/>
	<path class="st2" d="M472.98,691.06l-5.96,1.78l-7.64-25.61l-8.68,2.59l-1.69-5.68l14.64-4.37L472.98,691.06z"/>
	<path class="st2" d="M422.37,703.26c-4.58,0.61-8.74-0.52-12.48-3.39s-5.93-6.69-6.57-11.46c-0.63-4.72,0.46-8.94,3.27-12.65
		c2.81-3.71,6.54-5.87,11.18-6.49c4.86-0.65,9.12,0.49,12.79,3.41s5.81,6.7,6.43,11.32c0.42,3.09,0.05,6.04-1.1,8.84
		c-1.15,2.8-2.93,5.13-5.35,7C428.12,701.71,425.4,702.85,422.37,703.26z M421.63,697.22c3-0.4,5.38-1.78,7.14-4.14
		s2.43-5.14,2-8.35c-0.48-3.58-2.14-6.24-4.99-7.98c-2.21-1.36-4.62-1.87-7.2-1.52c-2.92,0.39-5.27,1.78-7.04,4.17
		s-2.45,5.13-2.04,8.22c0.41,3.08,1.8,5.55,4.16,7.41C416,696.89,418.66,697.62,421.63,697.22z"/>
	<path class="st2" d="M396.85,704.85l-7.36,0.12c-4.75,0.08-8.28-0.45-10.61-1.59c-2.33-1.14-4.26-3.02-5.79-5.65
		s-2.33-5.71-2.39-9.24c-0.04-2.52,0.34-4.83,1.14-6.96s1.93-3.89,3.38-5.31c1.45-1.42,3.03-2.4,4.73-2.96
		c1.71-0.56,4.67-0.88,8.9-0.94l7.47-0.12L396.85,704.85z M390.58,698.96l-0.33-20.6l-2.89,0.05c-2.84,0.05-4.9,0.41-6.17,1.08
		c-1.27,0.67-2.3,1.79-3.09,3.34c-0.79,1.55-1.17,3.46-1.13,5.71c0.06,3.47,1.07,6.14,3.04,8.02c1.77,1.69,4.59,2.5,8.45,2.44
		L390.58,698.96z"/>
	<path class="st2" d="M362.02,704.43l-17.74-1.74l0.59-6.05l11.6,1.14l0.58-5.88l-11.6-1.14l0.58-5.94l11.6,1.14l0.84-8.55
		l-11.6-1.14l0.6-6.08l17.74,1.74L362.02,704.43z"/>
	<path class="st2" d="M333.65,692.42l5.71,1.09c-0.51,2.8-1.91,4.93-4.21,6.39s-5.04,1.88-8.22,1.27c-2.05-0.39-3.72-1.11-5.02-2.14
		c-1.29-1.03-2.24-2.34-2.83-3.93c-0.59-1.59-0.74-3.17-0.44-4.74c0.16-0.86,0.46-1.67,0.9-2.45c0.44-0.78,1.03-1.54,1.8-2.3
		c0.45-0.44,1.45-1.14,3-2.09c1.48-0.91,2.43-1.56,2.84-1.98c0.41-0.41,0.8-0.99,1.17-1.73c0.37-0.74,0.72-1.81,1.04-3.19l5.91,1.13
		l-0.17,0.99c-0.37,1.95-1.07,3.65-2.09,5.1c-1.02,1.46-2.46,2.73-4.33,3.82c-1.8,1.06-2.91,1.81-3.33,2.26
		c-0.42,0.45-0.69,1.01-0.82,1.7c-0.18,0.93,0.06,1.79,0.71,2.59c0.65,0.8,1.63,1.32,2.94,1.57c1.34,0.26,2.51,0.07,3.52-0.55
		C332.76,694.6,333.39,693.66,333.65,692.42z M332.73,674.68c-1.06-0.2-1.9-0.74-2.51-1.61s-0.82-1.82-0.62-2.85
		s0.74-1.84,1.62-2.44s1.85-0.79,2.89-0.59c1.05,0.2,1.87,0.74,2.46,1.61c0.59,0.88,0.79,1.83,0.59,2.86s-0.73,1.84-1.6,2.43
		C334.71,674.69,333.76,674.88,332.73,674.68z"/>
	<path class="st2" d="M280.98,682.25l5.67-2.36c0.8,2.65,2,4.25,3.58,4.79c0.77,0.26,1.47,0.27,2.11,0.03
		c0.63-0.25,1.04-0.63,1.21-1.15c0.18-0.52,0.17-1.07-0.02-1.65c-0.27-0.78-1.25-2.59-2.96-5.44c-1.6-2.64-2.56-4.29-2.87-4.95
		c-0.78-1.61-1.23-3.05-1.36-4.32c-0.12-1.27,0.04-2.56,0.48-3.86c0.87-2.54,2.46-4.33,4.77-5.38c2.32-1.05,4.88-1.1,7.7-0.14
		c2.2,0.75,3.93,1.95,5.2,3.58c1.27,1.64,2.09,3.81,2.46,6.52l-5.96,1.29c-0.55-3.24-1.8-5.19-3.74-5.85
		c-1.01-0.34-1.96-0.34-2.85,0.01c-0.89,0.35-1.46,0.92-1.73,1.69c-0.24,0.7-0.22,1.49,0.06,2.37s1.06,2.34,2.33,4.39
		c2.43,3.89,3.88,6.76,4.35,8.58c0.47,1.83,0.46,3.48-0.05,4.97c-0.73,2.14-2.18,3.7-4.33,4.68c-2.16,0.98-4.44,1.05-6.83,0.24
		c-1.54-0.53-2.89-1.39-4.04-2.58S281.96,684.69,280.98,682.25z"/>
	<path class="st2" d="M271.41,683.22l-16.29-7.23l2.47-5.56l10.65,4.73l2.4-5.4l-10.65-4.73l2.42-5.46l10.65,4.73l3.48-7.85
		l-10.65-4.73l2.48-5.58l16.29,7.23L271.41,683.22z"/>
	<path class="st2" d="M233.55,665.17c-3.98-2.35-6.55-5.81-7.71-10.38s-0.52-8.93,1.92-13.07c2.42-4.1,5.88-6.75,10.39-7.92
		c4.5-1.18,8.77-0.57,12.8,1.8c4.22,2.49,6.87,6.02,7.94,10.59s0.42,8.86-1.95,12.87c-1.59,2.69-3.7,4.78-6.33,6.27
		s-5.48,2.22-8.53,2.2C239.02,667.51,236.18,666.72,233.55,665.17z M236.7,659.96c2.6,1.54,5.33,1.92,8.17,1.16
		c2.84-0.76,5.09-2.54,6.73-5.33c1.84-3.11,2.17-6.23,1.01-9.36c-0.9-2.44-2.47-4.32-4.72-5.65c-2.54-1.5-5.24-1.86-8.11-1.08
		s-5.1,2.52-6.68,5.21c-1.58,2.68-2.02,5.47-1.31,8.39C232.48,656.23,234.12,658.44,236.7,659.96z"/>
	<path class="st2" d="M212.34,650.63l-4.94-3.82l12.92-16.71c1.11-1.44,1.77-2.55,1.98-3.35c0.21-0.79,0.16-1.59-0.14-2.39
		c-0.3-0.8-0.87-1.52-1.69-2.16c-0.87-0.67-1.77-1.05-2.7-1.13c-0.93-0.09-1.76,0.08-2.47,0.51c-0.71,0.43-1.74,1.51-3.08,3.24
		l-12.44,16.09l-4.94-3.82l11.91-15.4c2.01-2.6,3.55-4.29,4.62-5.07c1.07-0.78,2.38-1.32,3.93-1.62c1.55-0.3,3.04-0.26,4.46,0.12
		c1.43,0.38,2.85,1.13,4.28,2.23c1.87,1.45,3.17,3.14,3.89,5.07c0.72,1.93,0.88,3.78,0.48,5.53c-0.4,1.75-1.79,4.17-4.18,7.25
		L212.34,650.63z"/>
	<path class="st2" d="M187.75,630.8l-4.55-4.23L201.4,607l-6.63-6.17l4.04-4.34l11.19,10.4L187.75,630.8z"/>
	<path class="st2" d="M151.58,593.46c-2.86-3.63-4-7.79-3.43-12.47c0.57-4.68,2.75-8.51,6.53-11.49c3.74-2.95,7.93-4.15,12.55-3.62
		c4.62,0.54,8.38,2.64,11.28,6.32c3.03,3.85,4.22,8.1,3.56,12.74c-0.66,4.65-2.82,8.41-6.48,11.29c-2.45,1.93-5.18,3.11-8.17,3.55
		c-2.99,0.43-5.91,0.09-8.75-1.04S153.47,595.86,151.58,593.46z M156.41,589.75c1.87,2.38,4.27,3.72,7.19,4.04
		c2.93,0.32,5.66-0.53,8.21-2.53c2.84-2.23,4.28-5.02,4.33-8.36c0.04-2.6-0.74-4.92-2.35-6.97c-1.82-2.32-4.21-3.63-7.17-3.94
		c-2.96-0.31-5.66,0.5-8.12,2.43c-2.44,1.92-3.86,4.37-4.26,7.34C153.83,584.73,154.55,587.4,156.41,589.75z"/>
	<path class="st2" d="M136.85,571.95l-3.77-6.33c-2.43-4.08-3.73-7.41-3.9-9.99s0.5-5.2,2.02-7.83c1.51-2.64,3.79-4.86,6.83-6.67
		c2.16-1.29,4.36-2.11,6.6-2.47c2.24-0.36,4.33-0.26,6.28,0.29c1.95,0.55,3.59,1.43,4.92,2.63c1.34,1.2,3.08,3.62,5.25,7.25
		l3.82,6.42L136.85,571.95z M138.84,563.58l17.7-10.54l-1.48-2.48c-1.45-2.44-2.79-4.05-4-4.81c-1.21-0.77-2.69-1.11-4.43-1.02
		c-1.74,0.09-3.58,0.71-5.51,1.86c-2.98,1.77-4.79,3.98-5.44,6.62c-0.58,2.38,0.11,5.23,2.09,8.55L138.84,563.58z"/>
	<path class="st2" d="M119.88,542.02l-7.49-16.18l5.52-2.55l4.9,10.58l5.36-2.48l-4.89-10.58l5.42-2.51l4.89,10.58l7.8-3.61
		l-4.89-10.58l5.54-2.56l7.49,16.18L119.88,542.02z"/>
	<path class="st2" d="M115.85,511.44l1.95,5.48c-2.68,0.98-5.22,0.85-7.64-0.4c-2.42-1.25-4.17-3.4-5.25-6.45
		c-0.7-1.97-0.93-3.77-0.7-5.41c0.23-1.64,0.89-3.12,1.96-4.43c1.07-1.32,2.36-2.24,3.87-2.78c0.82-0.29,1.68-0.45,2.57-0.46
		s1.85,0.11,2.89,0.39c0.61,0.16,1.71,0.67,3.32,1.53c1.53,0.82,2.58,1.31,3.14,1.45c0.56,0.15,1.26,0.19,2.08,0.13
		c0.83-0.06,1.92-0.3,3.28-0.72l2.01,5.67l-0.93,0.36c-1.87,0.66-3.69,0.92-5.46,0.78c-1.77-0.14-3.6-0.74-5.48-1.8
		c-1.82-1.02-3.03-1.59-3.63-1.73c-0.6-0.13-1.22-0.08-1.88,0.15c-0.89,0.32-1.52,0.96-1.87,1.92c-0.36,0.97-0.31,2.08,0.14,3.33
		c0.46,1.28,1.21,2.2,2.26,2.76C113.53,511.78,114.65,511.85,115.85,511.44z M130.68,501.67c-0.36-1.02-0.32-2.01,0.12-2.98
		c0.44-0.97,1.16-1.62,2.15-1.98c0.99-0.35,1.96-0.3,2.92,0.16c0.96,0.46,1.61,1.19,1.97,2.2c0.36,1,0.31,1.98-0.15,2.94
		c-0.45,0.96-1.18,1.61-2.17,1.96c-0.99,0.35-1.96,0.3-2.9-0.15C131.68,503.38,131.04,502.66,130.68,501.67z"/>
	<path class="st2" d="M97.97,460.87l4.9,3.7c-1.88,2.03-2.65,3.87-2.32,5.51c0.16,0.8,0.51,1.41,1.04,1.83
		c0.53,0.42,1.07,0.58,1.6,0.47c0.54-0.11,1.01-0.4,1.41-0.86c0.54-0.62,1.6-2.39,3.2-5.31c1.47-2.72,2.41-4.38,2.81-4.98
		c1-1.49,2.01-2.61,3.04-3.36c1.03-0.75,2.22-1.26,3.57-1.54c2.62-0.54,4.98-0.07,7.06,1.39c2.08,1.46,3.42,3.66,4.02,6.57
		c0.47,2.28,0.31,4.38-0.46,6.3c-0.77,1.92-2.23,3.73-4.38,5.42l-4.14-4.49c2.51-2.12,3.56-4.18,3.15-6.18
		c-0.21-1.05-0.7-1.86-1.45-2.45c-0.75-0.59-1.53-0.8-2.33-0.64c-0.72,0.15-1.4,0.57-2.01,1.25c-0.61,0.69-1.48,2.1-2.6,4.23
		c-2.13,4.07-3.86,6.77-5.2,8.1c-1.34,1.33-2.77,2.16-4.31,2.47c-2.22,0.45-4.29,0-6.23-1.37c-1.93-1.37-3.15-3.29-3.66-5.77
		c-0.33-1.6-0.27-3.19,0.18-4.79S96.36,462.95,97.97,460.87z"/>
	<path class="st2" d="M92.29,453.13l-2.02-17.71l6.04-0.69l1.32,11.58l5.87-0.67l-1.32-11.58l5.93-0.68l1.32,11.58l8.54-0.97
		l-1.32-11.58l6.07-0.69l2.02,17.71L92.29,453.13z"/>
	<path class="st2" d="M88.67,410.96c0.08-4.62,1.81-8.56,5.21-11.84c3.4-3.27,7.5-4.87,12.31-4.79c4.77,0.08,8.77,1.78,12.02,5.12
		c3.25,3.33,4.83,7.34,4.76,12.02c-0.08,4.9-1.84,8.95-5.28,12.13c-3.44,3.19-7.49,4.74-12.15,4.67c-3.12-0.05-5.98-0.85-8.58-2.41
		c-2.59-1.55-4.64-3.66-6.13-6.33S88.62,414.01,88.67,410.96z M94.75,411.13c-0.05,3.02,0.96,5.58,3.03,7.67
		c2.07,2.09,4.72,3.17,7.96,3.22c3.61,0.06,6.49-1.19,8.63-3.75c1.68-1.99,2.53-4.29,2.58-6.89c0.05-2.95-0.98-5.48-3.07-7.58
		c-2.1-2.11-4.71-3.19-7.83-3.24c-3.11-0.05-5.75,0.95-7.94,3.01S94.8,408.14,94.75,411.13z"/>
	<path class="st2" d="M90.4,385.76l0.77-6.19l20.95,2.62c1.8,0.23,3.1,0.23,3.89,0.01c0.79-0.22,1.45-0.67,1.99-1.34
		c0.54-0.67,0.87-1.52,1-2.55c0.14-1.09,0-2.05-0.4-2.9c-0.4-0.85-0.97-1.47-1.7-1.87c-0.73-0.4-2.19-0.73-4.36-1l-20.18-2.53
		l0.77-6.19l19.32,2.42c3.26,0.41,5.5,0.87,6.72,1.4c1.22,0.53,2.35,1.38,3.39,2.56c1.05,1.18,1.77,2.48,2.16,3.91
		c0.4,1.42,0.48,3.03,0.26,4.82c-0.29,2.35-1.09,4.33-2.39,5.93c-1.3,1.61-2.8,2.68-4.52,3.23c-1.72,0.55-4.51,0.58-8.37,0.09
		L90.4,385.76z"/>
	<path class="st2" d="M94.96,354.5l1.33-6.07l26.11,5.73l1.94-8.85l5.79,1.27l-3.28,14.92L94.96,354.5z"/>
	<path class="st2" d="M108.82,304.32c1.68-4.3,4.69-7.39,9.01-9.27s8.73-1.94,13.21-0.19c4.44,1.74,7.6,4.73,9.48,8.99
		s1.97,8.56,0.26,12.92c-1.79,4.56-4.85,7.74-9.19,9.53c-4.34,1.79-8.68,1.83-13.02,0.13c-2.91-1.14-5.31-2.89-7.2-5.25
		c-1.89-2.36-3.07-5.05-3.53-8.07C107.38,310.09,107.71,307.16,108.82,304.32z M114.46,306.6c-1.1,2.81-1.05,5.56,0.16,8.25
		c1.21,2.68,3.32,4.62,6.34,5.8c3.36,1.32,6.5,1.15,9.4-0.5c2.26-1.28,3.87-3.13,4.82-5.56c1.07-2.75,1-5.47-0.23-8.18
		c-1.23-2.71-3.3-4.63-6.21-5.77c-2.89-1.13-5.73-1.12-8.49,0.04S115.55,303.81,114.46,306.6z"/>
	<path class="st2" d="M119.93,280.69l3.56-6.45c2.29-4.16,4.51-6.96,6.65-8.41c2.14-1.45,4.74-2.19,7.78-2.22
		c3.04-0.03,6.11,0.81,9.21,2.52c2.2,1.21,4.03,2.7,5.47,4.45c1.44,1.75,2.42,3.61,2.93,5.57c0.51,1.96,0.58,3.82,0.22,5.58
		c-0.36,1.76-1.56,4.49-3.6,8.19l-3.61,6.55L119.93,280.69z M128.16,278.18l18.04,9.95l1.39-2.53c1.37-2.49,2.08-4.45,2.13-5.89
		c0.05-1.44-0.41-2.88-1.36-4.34c-0.96-1.46-2.42-2.73-4.39-3.82c-3.04-1.67-5.86-2.12-8.47-1.35c-2.35,0.7-4.46,2.74-6.32,6.12
		L128.16,278.18z"/>
	<path class="st2" d="M137.17,250.93l10.17-14.64l5,3.47l-6.65,9.57l4.85,3.37l6.65-9.57l4.9,3.41l-6.65,9.57l7.06,4.9l6.65-9.57
		l5.01,3.48l-10.17,14.64L137.17,250.93z"/>
	<path class="st2" d="M161.47,232.03l-3.74,4.46c-2.2-1.81-3.38-4.07-3.53-6.79c-0.15-2.72,0.82-5.31,2.9-7.8
		c1.34-1.6,2.78-2.71,4.31-3.34s3.14-0.81,4.81-0.56c1.68,0.26,3.13,0.9,4.35,1.93c0.67,0.56,1.24,1.22,1.7,1.98
		c0.47,0.76,0.84,1.65,1.13,2.69c0.17,0.61,0.29,1.82,0.37,3.64c0.07,1.74,0.18,2.89,0.34,3.44c0.16,0.56,0.47,1.18,0.94,1.86
		c0.47,0.68,1.23,1.5,2.28,2.46l-3.87,4.61L172.7,240c-1.52-1.27-2.67-2.71-3.44-4.31s-1.18-3.48-1.23-5.64
		c-0.05-2.09-0.16-3.42-0.35-4c-0.19-0.58-0.55-1.1-1.08-1.54c-0.73-0.61-1.6-0.82-2.61-0.64c-1.01,0.18-1.95,0.79-2.8,1.81
		c-0.88,1.04-1.29,2.16-1.23,3.34C160,230.2,160.51,231.2,161.47,232.03z M177.41,239.87c0.69-0.83,1.57-1.3,2.63-1.4
		c1.06-0.11,1.99,0.18,2.79,0.85c0.81,0.68,1.25,1.54,1.34,2.6s-0.21,2-0.9,2.81c-0.68,0.82-1.55,1.27-2.61,1.36
		s-1.98-0.2-2.79-0.88c-0.81-0.68-1.25-1.53-1.34-2.58C176.45,241.59,176.74,240.67,177.41,239.87z"/>
	<path class="st2" d="M195.97,190.96l-0.69,6.1c-2.71-0.59-4.68-0.32-5.93,0.81c-0.6,0.55-0.95,1.16-1.05,1.83
		c-0.09,0.67,0.04,1.21,0.41,1.62c0.37,0.41,0.85,0.67,1.45,0.78c0.81,0.15,2.88,0.16,6.2,0.06c3.09-0.12,5-0.15,5.72-0.11
		c1.79,0.1,3.27,0.4,4.44,0.91s2.22,1.27,3.14,2.3c1.8,1.99,2.59,4.25,2.39,6.79c-0.2,2.54-1.41,4.8-3.62,6.8
		c-1.73,1.56-3.61,2.49-5.66,2.81c-2.04,0.31-4.34-0.03-6.89-1.01l1.76-5.84c3.1,1.09,5.41,0.95,6.93-0.42
		c0.79-0.72,1.25-1.55,1.37-2.5c0.12-0.95-0.09-1.72-0.63-2.33c-0.5-0.55-1.2-0.91-2.1-1.1c-0.9-0.18-2.56-0.21-4.97-0.09
		c-4.58,0.23-7.79,0.11-9.62-0.36c-1.83-0.47-3.27-1.29-4.32-2.46c-1.52-1.68-2.18-3.7-1.99-6.06c0.19-2.36,1.23-4.39,3.11-6.09
		c1.21-1.09,2.61-1.85,4.21-2.28C191.25,190.68,193.36,190.63,195.97,190.96z"/>
	<path class="st2" d="M199.73,182.15l14.22-10.75l3.67,4.85l-9.3,7.03l3.56,4.71l9.3-7.03l3.6,4.76l-9.3,7.03l5.18,6.85l9.3-7.03
		l3.68,4.87l-14.22,10.75L199.73,182.15z"/>
	<path class="st2" d="M233.86,157.77c3.98-2.34,8.25-2.92,12.82-1.72s8.06,3.86,10.5,8.01c2.42,4.11,3.05,8.41,1.9,12.92
		s-3.74,7.95-7.78,10.33c-4.22,2.49-8.59,3.09-13.11,1.82c-4.51-1.27-7.95-3.92-10.32-7.94c-1.58-2.69-2.39-5.55-2.42-8.57
		s0.71-5.87,2.21-8.53C229.17,161.42,231.23,159.32,233.86,157.77z M236.89,163.05c-2.6,1.53-4.26,3.73-4.97,6.58
		c-0.71,2.86-0.24,5.68,1.41,8.47c1.83,3.11,4.4,4.92,7.7,5.41c2.57,0.39,4.98-0.07,7.23-1.4c2.54-1.5,4.16-3.69,4.87-6.58
		c0.71-2.89,0.27-5.68-1.32-8.37c-1.58-2.68-3.81-4.42-6.71-5.21S239.47,161.53,236.89,163.05z"/>
	<path class="st2" d="M256.83,146.26l5.73-2.47l8.35,19.4c0.72,1.67,1.37,2.79,1.96,3.36c0.59,0.57,1.31,0.91,2.16,1.04
		c0.85,0.12,1.75-0.02,2.7-0.43c1.01-0.43,1.77-1.04,2.3-1.81s0.78-1.58,0.75-2.41c-0.03-0.83-0.48-2.25-1.34-4.27l-8.05-18.68
		l5.73-2.47l7.7,17.88c1.3,3.02,2.03,5.18,2.19,6.5c0.16,1.32,0,2.72-0.49,4.22c-0.49,1.5-1.25,2.78-2.27,3.84
		c-1.03,1.06-2.37,1.95-4.03,2.66c-2.18,0.94-4.28,1.25-6.32,0.95s-3.73-1.06-5.07-2.26c-1.34-1.2-2.78-3.59-4.32-7.17
		L256.83,146.26z"/>
	<path class="st2" d="M286.12,134.37l5.91-1.92l8.27,25.42l8.61-2.8l1.83,5.64l-14.52,4.73L286.12,134.37z"/>
</g>
<path class="st3" d="M253.7,439.43c15.03,8.84,37.28-1.1,37.28-1.1s-2.11-24.28-17.14-33.13s-37.28,1.1-37.28,1.1
	S238.67,430.58,253.7,439.43z"/>
<path class="st3" d="M288.18,394.25c-6.13,12.4,2.05,28.95,2.05,28.95s18.12-3.55,24.25-15.95s-2.05-28.95-2.05-28.95
	S294.31,381.85,288.18,394.25z"/>
<g>
	<g>
		<path class="st4" d="M383.99,441.96V268.99l-34.13-7.77c0,0,7.18,73.85-25.14,163.25s-125.72-7.77-125.72-7.77l0.05,81.38"/>
		<path class="st4" d="M389.38,441.96V267.44l34.13-7.77c0,0-7.18,73.85,25.14,163.25s118.54-6.23,118.54-6.23l-0.14,80.38"/>
		<path class="st4" d="M324.04,426.07c5.11,1.88,59.94,4.03,59.94,4.03"/>
		<line class="st4" x1="391.9" y1="430.1" x2="451.06" y2="429.03"/>
		<line class="st4" x1="263.04" y1="461.07" x2="263.35" y2="497.17"/>
		<line class="st4" x1="496.77" y1="460.77" x2="496.04" y2="497.07"/>
		<path class="st4" d="M330.04,481.07c0,0-1.73-13.85,12.64-13.85s14.37,0,14.37,0h75.33c0,0,8.3,6.08,8.67,13.85"/>
		<path class="st4" d="M297.15,507.96c0,0-2.85-25.19,19.93-25.19s22.78,0,22.78,0h119.43c0,0,13.24,8.4,13.82,25.19"/>
		<path class="st4" d="M376.55,465.83v-13.95c0-5.76,4.61-10.47,10.23-10.47h0c5.63,0,10.23,4.71,10.23,10.47v13.95"/>
		<line class="st4" x1="224.14" y1="438.07" x2="224.04" y2="498.07"/>
		<line class="st4" x1="245.69" y1="453.62" x2="246.04" y2="498.07"/>
		<line class="st4" x1="513.3" y1="457.51" x2="513.04" y2="497.07"/>
		<line class="st4" x1="540.25" y1="443.9" x2="540.04" y2="496.07"/>
		<line class="st4" x1="360.04" y1="264.07" x2="360.64" y2="426.41"/>
		<line class="st4" x1="371.04" y1="266.07" x2="371.42" y2="428.35"/>
		<line class="st4" x1="348.07" y1="329.24" x2="348.07" y2="426.41"/>
		<line class="st4" x1="401.95" y1="265.1" x2="402.04" y2="429.07"/>
		<line class="st4" x1="414.04" y1="262.07" x2="415.04" y2="429.07"/>
		<line class="st4" x1="428.89" y1="346.73" x2="428.89" y2="428.35"/>
		<line class="st4" x1="198.99" y1="467.22" x2="262.04" y2="484.07"/>
		<line class="st4" x1="497.14" y1="488.6" x2="565.39" y2="469.17"/>
		<line class="st4" x1="351.04" y1="287.07" x2="383.99" y2="290.37"/>
		<line class="st4" x1="349.86" y1="311.74" x2="382.19" y2="317.57"/>
		<line class="st4" x1="348.07" y1="338.95" x2="383.99" y2="346.73"/>
		<line class="st4" x1="340.88" y1="370.05" x2="383.99" y2="373.94"/>
		<line class="st4" x1="333.7" y1="399.2" x2="383.99" y2="405.03"/>
		<line class="st4" x1="389.38" y1="290.37" x2="422.04" y2="286.07"/>
		<line class="st4" x1="389.38" y1="319.52" x2="424.04" y2="314.07"/>
		<line class="st4" x1="389.38" y1="346.73" x2="427.09" y2="340.9"/>
		<line class="st4" x1="389.38" y1="373.94" x2="432.48" y2="368.11"/>
		<line class="st4" x1="391.17" y1="405.03" x2="440.04" y2="399.07"/>
	</g>
	<line class="st4" x1="199.04" y1="498.07" x2="297.04" y2="498.07"/>
	<line class="st4" x1="297.04" y1="510.07" x2="473.04" y2="510.07"/>
	<line class="st4" x1="471.04" y1="497.07" x2="567.04" y2="497.07"/>
</g>
</svg>
