<?xml version="1.0" encoding="utf-8"?>
<!-- Generator: Adobe Illustrator 27.4.0, SVG Export Plug-In . SVG Version: 6.00 Build 0)  -->
<svg version="1.1" id="레이어_1" xmlns="http://www.w3.org/2000/svg" xmlns:xlink="http://www.w3.org/1999/xlink" x="0px"
	 y="0px" viewBox="0 0 762.52 822.05" style="enable-background:new 0 0 762.52 822.05;" xml:space="preserve">
<style type="text/css">
	.st0{fill:none;stroke:#463C33;stroke-width:3;stroke-miterlimit:10;}
	.st1{fill:none;stroke:#463C33;stroke-width:3;stroke-linecap:round;stroke-linejoin:round;stroke-dasharray:3.0072,6.0144;}
	.st2{fill:none;}
	.st3{fill:#ABB868;}
	.st4{fill:none;stroke:#463C33;stroke-width:4;stroke-linecap:round;stroke-linejoin:round;stroke-miterlimit:10;}
</style>
<g>
	<g>
		<circle class="st0" cx="381.26" cy="411.02" r="319.46"/>
		<circle class="st0" cx="381.26" cy="411.02" r="250.06"/>
		<circle class="st0" cx="381.26" cy="411.02" r="224.94"/>
		<g>
			<circle class="st1" cx="381.26" cy="411.02" r="236.9"/>
		</g>
	</g>
	<path id="SVGID_x5F_1_x5F_" class="st2" d="M643.81,411.56c0,144.05-116.78,260.83-260.83,260.83S122.14,555.62,122.14,411.56
		s116.78-260.83,260.83-260.83S643.81,267.51,643.81,411.56z"/>
	<text>	<textPath  xlink:href="#SVGID_x5F_1_x5F_" startOffset="96.289%">
<tspan  style="fill:#463C33; font-family:'CenturyGothic-Bold'; font-size:45.4664px;">ODE? SEOUL ODE? SEOUL ODE? SEOUL ODE? SEOUL ODE? SEOUL ODE? SEOUL</tspan>	</textPath>
</text>
	<path class="st3" d="M253.7,439.43c15.03,8.84,37.28-1.1,37.28-1.1s-2.11-24.28-17.14-33.13s-37.28,1.1-37.28,1.1
		S238.67,430.58,253.7,439.43z"/>
	<path class="st3" d="M288.18,394.25c-6.13,12.4,2.05,28.95,2.05,28.95s18.12-3.55,24.25-15.95s-2.05-28.95-2.05-28.95
		S294.31,381.85,288.18,394.25z"/>
	<g>
		<g>
			<path class="st4" d="M383.99,441.96V268.99l-34.13-7.77c0,0,7.18,73.85-25.14,163.25s-125.72-7.77-125.72-7.77l0.05,81.38"/>
			<path class="st4" d="M389.38,441.96V267.44l34.13-7.77c0,0-7.18,73.85,25.14,163.25s118.54-6.23,118.54-6.23l-0.14,80.38"/>
			<path class="st4" d="M324.04,426.07c5.11,1.88,59.94,4.03,59.94,4.03"/>
			<line class="st4" x1="391.9" y1="430.1" x2="451.06" y2="429.03"/>
			<line class="st4" x1="263.04" y1="461.07" x2="263.35" y2="497.17"/>
			<line class="st4" x1="496.77" y1="460.77" x2="496.04" y2="497.07"/>
			<path class="st4" d="M330.04,481.07c0,0-1.73-13.85,12.64-13.85s14.37,0,14.37,0h75.33c0,0,8.3,6.08,8.67,13.85"/>
			<path class="st4" d="M297.15,507.96c0,0-2.85-25.19,19.93-25.19s22.78,0,22.78,0h119.43c0,0,13.24,8.4,13.82,25.19"/>
			<path class="st4" d="M376.55,465.83v-13.95c0-5.76,4.61-10.47,10.23-10.47h0c5.63,0,10.23,4.71,10.23,10.47v13.95"/>
			<line class="st4" x1="224.14" y1="438.07" x2="224.04" y2="498.07"/>
			<line class="st4" x1="245.69" y1="453.62" x2="246.04" y2="498.07"/>
			<line class="st4" x1="513.3" y1="457.51" x2="513.04" y2="497.07"/>
			<line class="st4" x1="540.25" y1="443.9" x2="540.04" y2="496.07"/>
			<line class="st4" x1="360.04" y1="264.07" x2="360.64" y2="426.41"/>
			<line class="st4" x1="371.04" y1="266.07" x2="371.42" y2="428.35"/>
			<line class="st4" x1="348.07" y1="329.24" x2="348.07" y2="426.41"/>
			<line class="st4" x1="401.95" y1="265.1" x2="402.04" y2="429.07"/>
			<line class="st4" x1="414.04" y1="262.07" x2="415.04" y2="429.07"/>
			<line class="st4" x1="428.89" y1="346.73" x2="428.89" y2="428.35"/>
			<line class="st4" x1="198.99" y1="467.22" x2="262.04" y2="484.07"/>
			<line class="st4" x1="497.14" y1="488.6" x2="565.39" y2="469.17"/>
			<line class="st4" x1="351.04" y1="287.07" x2="383.99" y2="290.37"/>
			<line class="st4" x1="349.86" y1="311.74" x2="382.19" y2="317.57"/>
			<line class="st4" x1="348.07" y1="338.95" x2="383.99" y2="346.73"/>
			<line class="st4" x1="340.88" y1="370.05" x2="383.99" y2="373.94"/>
			<line class="st4" x1="333.7" y1="399.2" x2="383.99" y2="405.03"/>
			<line class="st4" x1="389.38" y1="290.37" x2="422.04" y2="286.07"/>
			<line class="st4" x1="389.38" y1="319.52" x2="424.04" y2="314.07"/>
			<line class="st4" x1="389.38" y1="346.73" x2="427.09" y2="340.9"/>
			<line class="st4" x1="389.38" y1="373.94" x2="432.48" y2="368.11"/>
			<line class="st4" x1="391.17" y1="405.03" x2="440.04" y2="399.07"/>
		</g>
		<line class="st4" x1="199.04" y1="498.07" x2="297.04" y2="498.07"/>
		<line class="st4" x1="297.04" y1="510.07" x2="473.04" y2="510.07"/>
		<line class="st4" x1="471.04" y1="497.07" x2="567.04" y2="497.07"/>
	</g>
</g>
</svg>
