<?xml version="1.0" encoding="utf-8"?>
<!-- Generator: Adobe Illustrator 27.4.0, SVG Export Plug-In . SVG Version: 6.00 Build 0)  -->
<svg version="1.1" id="레이어_1" xmlns="http://www.w3.org/2000/svg" xmlns:xlink="http://www.w3.org/1999/xlink" x="0px"
	 y="0px" viewBox="0 0 762.52 822.05" style="enable-background:new 0 0 762.52 822.05;" xml:space="preserve">
<style type="text/css">
	.st0{fill:none;stroke:#463C33;stroke-width:4;stroke-linecap:round;stroke-linejoin:round;stroke-miterlimit:10;}
	.st1{fill:none;stroke:#463C33;stroke-width:3;stroke-miterlimit:10;}
	.st2{fill:none;stroke:#463C33;stroke-width:3;stroke-linecap:round;stroke-linejoin:round;stroke-dasharray:2.9931,5.9862;}
	.st3{fill:none;}
	.st4{fill:#ABB868;}
</style>
<g>
	<g>
		<path class="st0" d="M326.32,424.39c-7.53-2.17-14.89-4.83-22.01-8.13c-9.78-4.53-19.42-10.99-26.08-19.58
			c-16.53-21.3-1.22-44.12,19.24-55.07c15.53-8.32,32.88-12.98,50.3-15.05c29.67-3.52,61.43-1,88.95,11.81
			c16.06,7.47,33.9,18.42,40.58,35.76c7.37,19.14-2.94,39.95-19.95,49.86c-0.52,0.31-1.06,0.6-1.59,0.89
			c-17.05,9.11-37.21,10.36-56.16,9.44C375.31,433.14,350,431.21,326.32,424.39z"/>
		<path class="st0" d="M537.17,409.06c0,0,46.22,15.85,35.24,53.16c-4.82,16.36-17.6,28.71-31.8,37.41
			c-16.77,10.28-35.62,17.46-53.49,25.8c-46.95,21.91-98.95,24.2-149.45,15.93c-15.41-2.52-30.69-5.82-45.78-9.8
			c-25.17-6.63-57.42-12.65-72.58-36.18c-13.66-21.2-7.92-50.14,0.46-72.35c2.59-6.86,6.3-13.42,11.65-18.43
			c1.49,10.74,6.55,19.95,10.93,29.69c15.65,34.81,47.95,62.46,86.76,66.72c24.6,2.7,49.43,1.88,74.09,0.5
			c22.79-1.28,46.18-2.25,68.8-6.74c20.62-4.09,44.01-10.55,56.06-29.33c7.52-11.72,6.58-27.94-5.94-35.79"/>
		<path class="st0" d="M274.01,390.07c0,0,39.38-32.39,108.85-30.82c0,0,85.33,17.22,94.16,42.11"/>
		<path class="st0" d="M290.18,407.16c0,0,76.49-31.83,81.95-39.77c0,0,35.97,48.05,84.47,58.74c0,0,22.64,19.55,25.97,31.69"/>
		<path class="st0" d="M301.18,314.09c0,0,25.55,9.39,28.88,14.58"/>
		<path class="st0" d="M244.1,403.22c0,0,14.46-7.24,28.43-8.51"/>
		<path class="st0" d="M274.82,446.41c0,0,15.12-19.31,39-26.33"/>
		<path class="st0" d="M417.83,494.5c4.88-12.98,18.65-19.75,30.74-24.54c33.67-13.34,72.09-24.99,88.61-60.7
			c9.17-19.82,3.29-41.4-9.51-58.09c-11.66-15.2-28.13-28.63-45-37.67c-20.46-10.97-42.99-18.19-66.13-20.39
			c-24.33-2.32-48.69,1.61-72.26,7.49c-13.55,3.38-26.87,7.61-40.02,12.32c-33.53,11.99-71.11,32.68-73.61,72.71
			c-1.17,18.67,9.46,34.81,23.07,46.61c14.68,12.72,32.36,18.83,48.71,28.7c3.37,2.04,6.64,4.25,9.7,6.72
			c7.59,6.13,15.24,14.51,17.53,24.27c2.35,9.99,5.67-7.03,6.45-9.32c1.65-4.88,3.48-9.7,5.48-14.44
			c4.65-11.02,10.12-21.94,16.86-31.85"/>
		<path class="st0" d="M392.43,439.61c0,0,15.88,31.32,20.33,55.5"/>
		<path class="st0" d="M481.33,394.37c0,0,33.04,1.19,55.83,14.69"/>
		<path class="st0" d="M471.28,363.07c0,0,24.01-21.04,47.56-22.15"/>
		<path class="st0" d="M435.72,337.92c0,0,9.95-20.91,30.68-25.5"/>
		<line class="st0" x1="385.28" y1="322.09" x2="381.89" y2="293.66"/>
	</g>
	<g>
		<circle class="st1" cx="381.26" cy="411.02" r="319.89"/>
		<circle class="st1" cx="381.26" cy="411.02" r="250.4"/>
		<circle class="st1" cx="381.26" cy="411.02" r="225.24"/>
		<g>
			<circle class="st2" cx="381.26" cy="411.02" r="237.22"/>
		</g>
	</g>
	<path id="SVGID_x5F_1_x5F_" class="st3" d="M641.76,409.98c0,144.25-116.94,261.18-261.18,261.18S119.4,554.23,119.4,409.98
		S236.33,148.8,380.58,148.8S641.76,265.73,641.76,409.98z"/>
	<text>	<textPath  xlink:href="#SVGID_x5F_1_x5F_" startOffset="96.289%">
<tspan  style="fill:#463C33; font-family:'CenturyGothic-Bold'; font-size:45.5273px;">ODE? SEOUL ODE? SEOUL ODE? SEOUL ODE? SEOUL ODE? SEOUL ODE? SEOUL</tspan>	</textPath>
</text>
	<path class="st4" d="M234.17,318.29c15.05,8.85,37.33-1.11,37.33-1.11s-2.12-24.32-17.17-33.17c-15.05-8.85-37.33,1.11-37.33,1.11
		S219.12,309.44,234.17,318.29z"/>
	<path class="st4" d="M271.1,277.84c-6.14,12.42,2.06,28.99,2.06,28.99s18.15-3.56,24.28-15.97c6.14-12.42-2.06-28.99-2.06-28.99
		S277.23,265.42,271.1,277.84z"/>
</g>
</svg>
