<?xml version="1.0" encoding="utf-8"?>
<!-- Generator: Adobe Illustrator 27.4.0, SVG Export Plug-In . SVG Version: 6.00 Build 0)  -->
<svg version="1.1" id="레이어_1" xmlns="http://www.w3.org/2000/svg" xmlns:xlink="http://www.w3.org/1999/xlink" x="0px"
	 y="0px" viewBox="0 0 762.52 822.05" style="enable-background:new 0 0 762.52 822.05;" xml:space="preserve">
<style type="text/css">
	.st0{fill:none;stroke:#463C33;stroke-width:3.7343;stroke-miterlimit:10;}
	.st1{fill:none;stroke:#463C33;stroke-width:2.9231;stroke-miterlimit:10;}
	.st2{fill:none;stroke:#463C33;stroke-width:2.6294;stroke-miterlimit:10;}
	.st3{fill:none;stroke:#463C33;stroke-width:2.7692;stroke-linecap:round;stroke-linejoin:round;stroke-dasharray:2.9953,5.9905;}
	.st4{fill:#463C33;}
	.st5{fill:#FFFFFF;stroke:#463C33;stroke-width:4;stroke-miterlimit:10;}
	.st6{fill:none;stroke:#463C33;stroke-width:4;stroke-miterlimit:10;}
	.st7{fill:#ABB868;}
</style>
<circle class="st0" cx="381.26" cy="411.02" r="318.19"/>
<circle class="st1" cx="381.26" cy="411.02" r="249.07"/>
<circle class="st2" cx="381.26" cy="411.02" r="224.05"/>
<g>
	<circle class="st3" cx="381.26" cy="411.02" r="235.96"/>
</g>
<g>
	<path class="st4" d="M347.97,120.81c4.57-0.5,8.69,0.73,12.34,3.68s5.74,6.81,6.26,11.57c0.52,4.72-0.67,8.89-3.56,12.51
		s-6.65,5.69-11.29,6.19c-4.85,0.53-9.07-0.71-12.65-3.71c-3.58-3-5.62-6.82-6.12-11.43c-0.34-3.09,0.1-6.02,1.31-8.77
		c1.21-2.76,3.04-5.04,5.5-6.84S344.95,121.14,347.97,120.81z M348.56,126.84c-2.99,0.33-5.4,1.64-7.21,3.95
		c-1.81,2.3-2.54,5.06-2.19,8.27c0.39,3.58,1.98,6.26,4.78,8.06c2.17,1.41,4.55,1.97,7.13,1.69c2.92-0.32,5.29-1.65,7.11-3.98
		c1.82-2.33,2.57-5.05,2.23-8.14c-0.34-3.08-1.66-5.57-3.96-7.48S351.53,126.52,348.56,126.84z"/>
	<path class="st4" d="M373.87,119.71l7.33,0.15c4.73,0.09,8.23,0.75,10.5,1.97c2.27,1.22,4.13,3.16,5.56,5.83
		c1.43,2.67,2.12,5.76,2.05,9.29c-0.05,2.51-0.51,4.8-1.38,6.88c-0.87,2.08-2.06,3.8-3.55,5.16c-1.49,1.36-3.1,2.28-4.82,2.78
		s-4.68,0.7-8.89,0.62l-7.44-0.15L373.87,119.71z M379.89,125.8l-0.41,20.52l2.87,0.06c2.83,0.06,4.89-0.23,6.18-0.85
		c1.29-0.62,2.35-1.7,3.19-3.21c0.84-1.52,1.28-3.4,1.33-5.64c0.07-3.45-0.84-6.15-2.74-8.09c-1.71-1.75-4.48-2.66-8.33-2.73
		L379.89,125.8z"/>
	<path class="st4" d="M408.11,121.11l17.62,2.17l-0.74,6.01l-11.52-1.42l-0.72,5.84l11.52,1.42l-0.73,5.9l-11.52-1.42l-1.04,8.49
		l11.52,1.42l-0.74,6.04l-17.62-2.17L408.11,121.11z"/>
	<path class="st4" d="M436.05,133.75l-5.66-1.23c0.57-2.78,2.02-4.87,4.35-6.26c2.32-1.39,5.06-1.74,8.22-1.06
		c2.03,0.44,3.68,1.19,4.94,2.25c1.26,1.06,2.17,2.39,2.72,3.99c0.55,1.6,0.66,3.17,0.32,4.73c-0.18,0.85-0.5,1.66-0.96,2.42
		c-0.45,0.76-1.07,1.51-1.85,2.25c-0.46,0.43-1.47,1.1-3.04,2.01c-1.5,0.87-2.46,1.5-2.88,1.9c-0.42,0.4-0.82,0.96-1.21,1.7
		c-0.39,0.73-0.76,1.78-1.12,3.15l-5.86-1.27l0.19-0.98c0.42-1.93,1.15-3.61,2.2-5.03c1.05-1.42,2.52-2.66,4.4-3.69
		c1.82-1.01,2.94-1.73,3.37-2.16c0.43-0.44,0.71-0.99,0.86-1.67c0.2-0.92-0.02-1.79-0.65-2.6c-0.63-0.81-1.6-1.35-2.89-1.64
		c-1.33-0.29-2.5-0.13-3.52,0.46C436.98,131.61,436.33,132.52,436.05,133.75z M436.53,151.44c1.05,0.23,1.87,0.78,2.46,1.67
		c0.58,0.88,0.77,1.83,0.54,2.86c-0.22,1.02-0.78,1.82-1.67,2.39s-1.86,0.74-2.89,0.51s-1.84-0.78-2.41-1.67s-0.74-1.84-0.52-2.86
		c0.22-1.02,0.77-1.82,1.65-2.38C434.55,151.39,435.5,151.22,436.53,151.44z"/>
	<path class="st4" d="M488.26,145.19l-5.7,2.21c-0.73-2.66-1.88-4.28-3.45-4.86c-0.76-0.28-1.46-0.31-2.1-0.08
		c-0.64,0.23-1.05,0.6-1.24,1.11c-0.19,0.51-0.2,1.06-0.02,1.64c0.25,0.78,1.18,2.61,2.81,5.49c1.53,2.67,2.44,4.34,2.74,4.99
		c0.74,1.62,1.15,3.07,1.24,4.34c0.09,1.27-0.1,2.54-0.58,3.83c-0.92,2.5-2.55,4.25-4.89,5.24c-2.33,0.99-4.89,0.98-7.67-0.05
		c-2.17-0.8-3.87-2.03-5.09-3.69c-1.22-1.66-1.98-3.84-2.29-6.55l5.97-1.14c0.47,3.24,1.66,5.21,3.58,5.92
		c1,0.37,1.94,0.39,2.84,0.06c0.89-0.33,1.48-0.88,1.76-1.64c0.26-0.69,0.25-1.48,0-2.36c-0.26-0.88-1-2.36-2.21-4.42
		c-2.32-3.94-3.7-6.82-4.12-8.65c-0.43-1.83-0.37-3.48,0.17-4.94c0.78-2.12,2.26-3.63,4.43-4.55c2.17-0.92,4.44-0.94,6.81-0.07
		c1.52,0.56,2.84,1.45,3.96,2.66C486.32,140.89,487.34,142.73,488.26,145.19z"/>
	<path class="st4" d="M497.8,144.46l16.05,7.6l-2.59,5.48l-10.49-4.97l-2.52,5.32l10.49,4.97l-2.55,5.38l-10.49-4.97l-3.66,7.73
		l10.49,4.97l-2.6,5.5l-16.05-7.6L497.8,144.46z"/>
	<path class="st4" d="M535.06,163.36c3.9,2.44,6.38,5.94,7.43,10.52c1.05,4.58,0.3,8.9-2.23,12.97c-2.51,4.03-6.02,6.57-10.54,7.63
		c-4.51,1.06-8.75,0.36-12.7-2.11c-4.14-2.58-6.69-6.16-7.65-10.74c-0.95-4.57-0.2-8.83,2.25-12.77c1.65-2.64,3.8-4.67,6.46-6.08
		s5.51-2.08,8.55-1.98C529.67,160.9,532.48,161.75,535.06,163.36z M531.8,168.46c-2.55-1.59-5.26-2.04-8.1-1.35
		c-2.85,0.69-5.13,2.41-6.83,5.15c-1.9,3.05-2.31,6.15-1.23,9.29c0.84,2.45,2.36,4.36,4.56,5.74c2.49,1.55,5.18,1.98,8.05,1.27
		c2.88-0.71,5.14-2.38,6.78-5.02c1.64-2.63,2.14-5.4,1.51-8.32C535.91,172.29,534.33,170.04,531.8,168.46z"/>
	<path class="st4" d="M555.79,178.33l4.82,3.92l-13.27,16.32c-1.14,1.41-1.83,2.5-2.06,3.28c-0.23,0.78-0.2,1.58,0.08,2.39
		c0.28,0.81,0.82,1.54,1.63,2.19c0.85,0.69,1.73,1.09,2.66,1.2c0.93,0.11,1.75-0.04,2.47-0.45c0.72-0.41,1.77-1.46,3.15-3.15
		l12.78-15.72l4.82,3.92l-12.23,15.05c-2.06,2.54-3.64,4.19-4.72,4.94c-1.09,0.75-2.4,1.26-3.95,1.52
		c-1.55,0.26-3.03,0.18-4.44-0.23c-1.41-0.42-2.81-1.19-4.21-2.32c-1.83-1.49-3.08-3.2-3.75-5.15c-0.67-1.94-0.79-3.78-0.34-5.52
		c0.44-1.74,1.89-4.11,4.33-7.12L555.79,178.33z"/>
	<path class="st4" d="M579.79,198.66l4.43,4.33l-18.6,19.05l6.46,6.3l-4.12,4.22l-10.89-10.63L579.79,198.66z"/>
	<path class="st4" d="M614.91,236.74c2.76,3.68,3.8,7.85,3.11,12.5c-0.68,4.65-2.94,8.41-6.78,11.28c-3.8,2.84-8,3.94-12.58,3.3
		s-8.28-2.83-11.07-6.57c-2.93-3.91-4.01-8.17-3.24-12.78c0.77-4.61,3.01-8.31,6.73-11.09c2.49-1.86,5.23-2.98,8.22-3.33
		c2.99-0.36,5.89,0.06,8.69,1.25C610.77,232.49,613.08,234.31,614.91,236.74z M610.02,240.32c-1.8-2.41-4.16-3.81-7.06-4.2
		c-2.91-0.39-5.65,0.39-8.23,2.32c-2.88,2.16-4.38,4.89-4.51,8.22c-0.11,2.59,0.62,4.92,2.17,7c1.76,2.35,4.11,3.72,7.05,4.1
		s5.65-0.36,8.14-2.22c2.48-1.86,3.95-4.26,4.42-7.21C612.46,245.37,611.8,242.7,610.02,240.32z"/>
	<path class="st4" d="M629.06,258.52l3.6,6.39c2.32,4.12,3.53,7.47,3.63,10.05c0.11,2.58-0.63,5.16-2.2,7.75s-3.89,4.75-6.96,6.48
		c-2.18,1.23-4.4,2-6.63,2.3c-2.24,0.3-4.32,0.16-6.25-0.44c-1.93-0.6-3.54-1.51-4.84-2.74s-2.98-3.68-5.05-7.35l-3.65-6.49
		L629.06,258.52z M626.88,266.81l-17.88,10.06l1.41,2.51c1.39,2.47,2.68,4.1,3.87,4.89c1.19,0.79,2.65,1.17,4.39,1.12
		c1.74-0.05,3.58-0.62,5.54-1.72c3.01-1.69,4.87-3.85,5.58-6.46c0.64-2.35,0.02-5.21-1.87-8.56L626.88,266.81z"/>
	<path class="st4" d="M645.23,288.74l7.06,16.29l-5.56,2.41l-4.61-10.65l-5.4,2.34l4.61,10.65l-5.46,2.36l-4.61-10.65l-7.85,3.4
		l4.61,10.65l-5.58,2.42l-7.06-16.29L645.23,288.74z"/>
	<path class="st4" d="M633.46,328.6c0.33,1.02,0.27,2.01-0.19,2.96s-1.19,1.59-2.19,1.92c-1,0.33-1.96,0.25-2.9-0.23
		s-1.58-1.23-1.91-2.24c-0.33-1.01-0.26-1.98,0.22-2.92c0.48-0.94,1.21-1.57,2.21-1.9c0.99-0.33,1.96-0.25,2.89,0.22
		C632.51,326.88,633.14,327.61,633.46,328.6z M648.47,319.24l-1.8-5.5c2.69-0.91,5.22-0.72,7.6,0.58c2.38,1.3,4.07,3.48,5.07,6.55
		c0.65,1.98,0.83,3.78,0.56,5.4c-0.27,1.63-0.96,3.08-2.06,4.36s-2.41,2.17-3.92,2.67c-0.83,0.27-1.68,0.4-2.57,0.4
		s-1.84-0.16-2.87-0.45c-0.6-0.18-1.69-0.71-3.27-1.6c-1.51-0.86-2.54-1.36-3.09-1.52c-0.56-0.16-1.25-0.22-2.07-0.18
		c-0.83,0.04-1.92,0.25-3.28,0.63l-1.87-5.69l0.94-0.33c1.88-0.62,3.7-0.83,5.45-0.65s3.56,0.83,5.41,1.93
		c1.79,1.06,2.98,1.66,3.57,1.81c0.59,0.15,1.22,0.11,1.88-0.1c0.9-0.29,1.53-0.92,1.91-1.87c0.38-0.95,0.36-2.06-0.05-3.32
		c-0.42-1.29-1.15-2.22-2.18-2.8C650.79,318.96,649.68,318.86,648.47,319.24z"/>
	<path class="st4" d="M665.04,370.04l-4.79-3.8c1.92-1.98,2.74-3.79,2.44-5.43c-0.14-0.8-0.47-1.42-0.99-1.85
		c-0.52-0.43-1.05-0.6-1.58-0.5s-1.01,0.37-1.43,0.82c-0.55,0.61-1.65,2.34-3.31,5.21c-1.53,2.67-2.5,4.3-2.92,4.89
		c-1.03,1.46-2.06,2.55-3.11,3.27c-1.05,0.72-2.25,1.2-3.59,1.44c-2.63,0.47-4.96-0.05-7-1.56c-2.04-1.51-3.32-3.72-3.84-6.64
		c-0.41-2.28-0.21-4.37,0.61-6.26c0.81-1.89,2.31-3.66,4.49-5.29l4.01,4.57c-2.55,2.05-3.65,4.07-3.29,6.08
		c0.19,1.05,0.65,1.87,1.39,2.47c0.74,0.6,1.5,0.83,2.3,0.69c0.73-0.13,1.4-0.53,2.03-1.2c0.63-0.67,1.53-2.05,2.69-4.15
		c2.22-4,4.01-6.64,5.37-7.94c1.36-1.29,2.81-2.08,4.35-2.35c2.22-0.4,4.28,0.11,6.17,1.52c1.89,1.41,3.06,3.35,3.5,5.84
		c0.29,1.6,0.19,3.19-0.29,4.76C667.77,366.2,666.7,368.01,665.04,370.04z"/>
	<path class="st4" d="M670.5,377.88l1.58,17.69l-6.03,0.54l-1.03-11.56l-5.86,0.52l1.03,11.56l-5.92,0.53l-1.03-11.56l-8.52,0.76
		l1.03,11.56l-6.06,0.54l-1.58-17.69L670.5,377.88z"/>
	<path class="st4" d="M673.12,419.53c-0.11,4.6-1.87,8.52-5.29,11.75c-3.41,3.23-7.51,4.79-12.3,4.67
		c-4.75-0.12-8.72-1.85-11.93-5.19c-3.21-3.35-4.75-7.35-4.64-12.01c0.12-4.88,1.91-8.9,5.36-12.04c3.45-3.15,7.5-4.66,12.14-4.55
		c3.11,0.08,5.95,0.9,8.52,2.46c2.57,1.57,4.59,3.69,6.05,6.36C672.5,413.63,673.19,416.49,673.12,419.53z M667.06,419.31
		c0.07-3.01-0.91-5.57-2.95-7.67c-2.04-2.1-4.68-3.19-7.91-3.27c-3.6-0.09-6.47,1.13-8.63,3.67c-1.68,1.97-2.56,4.25-2.62,6.84
		c-0.07,2.94,0.93,5.46,3,7.58c2.07,2.12,4.66,3.21,7.77,3.29c3.09,0.08,5.74-0.9,7.93-2.93
		C665.86,424.8,666.99,422.29,667.06,419.31z"/>
	<path class="st4" d="M670.78,445.02l-0.92,6.15l-20.8-3.12c-1.79-0.27-3.08-0.3-3.87-0.1s-1.46,0.63-2.01,1.29
		s-0.91,1.49-1.06,2.51c-0.16,1.08-0.05,2.05,0.33,2.9c0.38,0.85,0.93,1.49,1.65,1.9c0.72,0.41,2.16,0.78,4.31,1.11l20.04,3
		l-0.92,6.14l-19.18-2.88c-3.24-0.49-5.45-1-6.65-1.56c-1.2-0.55-2.31-1.43-3.32-2.63c-1.01-1.2-1.7-2.52-2.06-3.94
		c-0.36-1.43-0.41-3.03-0.14-4.81c0.35-2.33,1.19-4.28,2.52-5.85c1.33-1.57,2.86-2.6,4.58-3.1c1.72-0.5,4.5-0.47,8.33,0.11
		L670.78,445.02z"/>
	<path class="st4" d="M665.47,476.02l-1.48,6.01l-25.86-6.34l-2.15,8.76l-5.73-1.41l3.62-14.78L665.47,476.02z"/>
	<path class="st4" d="M650.44,525.66c-1.78,4.24-4.85,7.25-9.2,9.01c-4.35,1.76-8.74,1.72-13.16-0.14c-4.38-1.84-7.45-4.9-9.21-9.18
		c-1.77-4.29-1.75-8.58,0.06-12.87c1.89-4.5,5.02-7.59,9.38-9.26s8.69-1.61,12.97,0.19c2.87,1.2,5.21,3,7.04,5.4
		c1.82,2.4,2.93,5.1,3.32,8.12S651.62,522.86,650.44,525.66z M644.88,523.25c1.17-2.78,1.18-5.51,0.04-8.22
		c-1.14-2.7-3.19-4.68-6.17-5.93c-3.32-1.39-6.44-1.3-9.37,0.27c-2.29,1.22-3.93,3.02-4.94,5.42c-1.14,2.71-1.13,5.42,0.03,8.15
		c1.16,2.73,3.17,4.69,6.04,5.9c2.85,1.2,5.67,1.25,8.46,0.17S643.73,526,644.88,523.25z"/>
	<path class="st4" d="M638.82,548.88l-3.7,6.33c-2.38,4.08-4.66,6.82-6.83,8.22c-2.17,1.39-4.77,2.07-7.8,2.02s-6.06-0.96-9.11-2.73
		c-2.17-1.26-3.94-2.78-5.34-4.56c-1.39-1.78-2.32-3.65-2.78-5.61c-0.46-1.96-0.49-3.82-0.08-5.56s1.67-4.43,3.79-8.07l3.75-6.43
		L638.82,548.88z M630.57,551.18l-17.72-10.34l-1.45,2.48c-1.43,2.44-2.18,4.38-2.26,5.81c-0.08,1.43,0.34,2.88,1.25,4.35
		s2.34,2.78,4.28,3.91c2.98,1.74,5.78,2.26,8.4,1.55c2.35-0.64,4.5-2.62,6.44-5.94L630.57,551.18z"/>
	<path class="st4" d="M620.94,578.09l-10.48,14.33l-4.89-3.58l6.85-9.37l-4.75-3.47l-6.85,9.37l-4.8-3.51l6.85-9.37l-6.91-5.05
		l-6.85,9.37l-4.91-3.59l10.48-14.33L620.94,578.09z"/>
	<path class="st4" d="M580.59,588.15c-0.71,0.81-1.59,1.25-2.65,1.33c-1.05,0.08-1.97-0.22-2.76-0.91
		c-0.79-0.69-1.21-1.57-1.27-2.62c-0.06-1.06,0.26-1.98,0.96-2.78c0.7-0.8,1.58-1.23,2.63-1.29c1.05-0.07,1.97,0.25,2.75,0.94
		c0.79,0.69,1.21,1.56,1.28,2.6S581.29,587.36,580.59,588.15z M596.28,596.34l3.83-4.35c2.15,1.85,3.27,4.14,3.35,6.84
		s-0.94,5.27-3.07,7.69c-1.37,1.56-2.83,2.63-4.37,3.22c-1.54,0.59-3.14,0.73-4.81,0.44s-3.09-0.97-4.29-2.02
		c-0.65-0.58-1.2-1.25-1.65-2.01s-0.8-1.67-1.06-2.71c-0.15-0.61-0.25-1.82-0.28-3.63c-0.03-1.73-0.11-2.88-0.26-3.44
		c-0.14-0.56-0.44-1.19-0.89-1.88c-0.45-0.69-1.19-1.53-2.21-2.51l3.96-4.5l0.76,0.64c1.48,1.31,2.59,2.76,3.32,4.37
		s1.1,3.49,1.08,5.64c0,2.08,0.08,3.41,0.25,4c0.17,0.58,0.52,1.11,1.04,1.56c0.71,0.62,1.57,0.86,2.58,0.7s1.96-0.73,2.84-1.73
		c0.9-1.02,1.33-2.12,1.31-3.3S597.21,597.18,596.28,596.34z"/>
	<path class="st4" d="M560.94,636.4l0.84-6.06c2.68,0.65,4.66,0.43,5.92-0.66c0.62-0.53,0.98-1.13,1.09-1.79
		c0.11-0.67-0.02-1.21-0.37-1.62c-0.36-0.41-0.83-0.68-1.43-0.81c-0.8-0.16-2.86-0.23-6.17-0.21c-3.08,0.04-4.98,0.03-5.7-0.03
		c-1.78-0.14-3.24-0.48-4.4-1.02s-2.17-1.32-3.07-2.36c-1.74-2.02-2.48-4.29-2.21-6.82c0.26-2.52,1.52-4.75,3.77-6.68
		c1.76-1.51,3.66-2.4,5.7-2.66c2.04-0.26,4.32,0.13,6.84,1.18l-1.9,5.77c-3.06-1.16-5.36-1.07-6.91,0.26
		c-0.81,0.69-1.28,1.51-1.43,2.45s0.05,1.72,0.58,2.33c0.48,0.56,1.17,0.94,2.06,1.14c0.9,0.2,2.54,0.27,4.94,0.21
		c4.57-0.12,7.76,0.08,9.57,0.59s3.22,1.37,4.24,2.55c1.47,1.71,2.08,3.74,1.83,6.08c-0.25,2.34-1.33,4.34-3.25,5.99
		c-1.23,1.06-2.65,1.78-4.25,2.17S563.54,636.79,560.94,636.4z"/>
	<path class="st4" d="M556.98,645.08l-14.42,10.36l-3.54-4.92l9.43-6.77l-3.43-4.78l-9.43,6.77l-3.47-4.83l9.43-6.77l-4.99-6.95
		l-9.43,6.77l-3.55-4.94L538,618.67L556.98,645.08z"/>
	<path class="st4" d="M522.44,668.51c-4.02,2.24-8.29,2.71-12.8,1.41c-4.51-1.3-7.94-4.04-10.27-8.23
		c-2.31-4.15-2.84-8.45-1.58-12.91c1.26-4.46,3.92-7.83,7.99-10.09c4.27-2.38,8.63-2.87,13.1-1.5c4.46,1.38,7.83,4.09,10.09,8.15
		c1.51,2.72,2.25,5.58,2.2,8.59c-0.04,3.01-0.85,5.82-2.41,8.44C527.2,664.99,525.1,667.04,522.44,668.51z M519.55,663.19
		c2.63-1.46,4.33-3.61,5.11-6.44c0.77-2.83,0.38-5.65-1.19-8.47c-1.75-3.14-4.26-5-7.54-5.57c-2.55-0.45-4.96-0.05-7.23,1.22
		c-2.57,1.43-4.23,3.57-5.01,6.43c-0.77,2.86-0.4,5.65,1.11,8.37c1.51,2.71,3.69,4.49,6.55,5.35
		C514.21,664.93,516.95,664.64,519.55,663.19z"/>
	<path class="st4" d="M499.26,679.43l-5.77,2.32l-7.84-19.52c-0.68-1.68-1.3-2.81-1.88-3.39c-0.57-0.58-1.28-0.94-2.13-1.08
		s-1.75-0.02-2.7,0.36c-1.01,0.41-1.79,0.99-2.33,1.75c-0.54,0.76-0.81,1.55-0.81,2.38s0.42,2.26,1.23,4.28l7.56,18.8l-5.77,2.32
		l-7.23-17.99c-1.22-3.04-1.9-5.21-2.03-6.52c-0.13-1.31,0.07-2.71,0.59-4.19c0.52-1.48,1.31-2.74,2.36-3.77
		c1.05-1.03,2.4-1.88,4.07-2.56c2.19-0.88,4.29-1.14,6.32-0.79c2.03,0.35,3.69,1.15,5,2.38c1.31,1.23,2.68,3.64,4.13,7.24
		L499.26,679.43z"/>
	<path class="st4" d="M469.79,690.57l-5.93,1.77l-7.62-25.51l-8.64,2.58l-1.69-5.66l14.58-4.35L469.79,690.57z"/>
	<path class="st4" d="M419.42,702.73c-4.56,0.61-8.7-0.51-12.43-3.37s-5.91-6.66-6.55-11.41c-0.63-4.71,0.45-8.9,3.25-12.6
		c2.8-3.69,6.51-5.85,11.13-6.47c4.84-0.65,9.08,0.48,12.74,3.4s5.79,6.67,6.41,11.28c0.42,3.08,0.05,6.02-1.09,8.8
		c-1.14,2.79-2.92,5.11-5.32,6.97S422.44,702.33,419.42,702.73z M418.68,696.72c2.98-0.4,5.35-1.78,7.11-4.12
		c1.75-2.35,2.42-5.12,1.99-8.32c-0.48-3.56-2.14-6.21-4.98-7.94c-2.21-1.35-4.6-1.86-7.17-1.51c-2.91,0.39-5.25,1.78-7.01,4.16
		c-1.76,2.38-2.44,5.11-2.03,8.19c0.41,3.07,1.79,5.53,4.14,7.38C413.08,696.39,415.73,697.12,418.68,696.72z"/>
	<path class="st4" d="M393.87,704.33l-7.33,0.12c-4.73,0.08-8.25-0.45-10.57-1.59s-4.24-3.01-5.77-5.62
		c-1.53-2.61-2.32-5.68-2.38-9.21c-0.04-2.51,0.34-4.82,1.14-6.93c0.8-2.11,1.92-3.88,3.36-5.29c1.44-1.41,3.01-2.39,4.71-2.95
		c1.7-0.56,4.66-0.87,8.87-0.94l7.44-0.12L393.87,704.33z M387.62,698.47l-0.33-20.52l-2.87,0.05c-2.83,0.05-4.88,0.4-6.14,1.07
		s-2.29,1.78-3.08,3.33s-1.16,3.44-1.12,5.69c0.06,3.45,1.06,6.11,3.03,7.99c1.77,1.68,4.57,2.49,8.42,2.43L387.62,698.47z"/>
	<path class="st4" d="M359.31,703.92l-17.67-1.73l0.59-6.03l11.55,1.13l0.57-5.85l-11.55-1.13l0.58-5.92l11.55,1.13l0.83-8.52
		l-11.55-1.13l0.59-6.05l17.67,1.73L359.31,703.92z"/>
	<path class="st4" d="M331.05,691.98l5.69,1.09c-0.5,2.79-1.9,4.92-4.19,6.36c-2.29,1.45-5.02,1.87-8.19,1.26
		c-2.04-0.39-3.71-1.1-5-2.13c-1.29-1.03-2.23-2.33-2.82-3.92c-0.59-1.58-0.74-3.16-0.44-4.72c0.16-0.85,0.46-1.67,0.89-2.44
		c0.43-0.77,1.03-1.54,1.79-2.29c0.44-0.44,1.44-1.14,2.99-2.09c1.48-0.9,2.42-1.56,2.83-1.97c0.41-0.41,0.8-0.98,1.16-1.72
		s0.71-1.8,1.04-3.18l5.89,1.13l-0.17,0.98c-0.37,1.94-1.06,3.63-2.08,5.08s-2.45,2.72-4.31,3.8c-1.79,1.05-2.9,1.8-3.31,2.25
		c-0.42,0.45-0.69,1.01-0.82,1.69c-0.18,0.93,0.06,1.79,0.71,2.58c0.65,0.79,1.63,1.31,2.93,1.56c1.33,0.25,2.5,0.07,3.5-0.55
		C330.17,694.14,330.79,693.21,331.05,691.98z M330.12,674.31c-1.06-0.2-1.89-0.74-2.5-1.6c-0.61-0.87-0.81-1.81-0.62-2.84
		c0.2-1.03,0.73-1.84,1.61-2.43c0.88-0.59,1.84-0.79,2.88-0.59s1.86,0.74,2.45,1.61c0.59,0.87,0.79,1.82,0.59,2.85
		s-0.73,1.83-1.59,2.42C332.1,674.31,331.15,674.5,330.12,674.31z"/>
	<path class="st4" d="M278.58,681.86l5.65-2.35c0.8,2.64,1.99,4.23,3.57,4.77c0.77,0.26,1.47,0.27,2.1,0.03
		c0.63-0.25,1.03-0.63,1.21-1.14c0.18-0.52,0.17-1.06-0.02-1.64c-0.27-0.78-1.25-2.58-2.95-5.42c-1.6-2.63-2.55-4.27-2.86-4.92
		c-0.78-1.6-1.23-3.04-1.35-4.3c-0.12-1.26,0.04-2.55,0.48-3.84c0.86-2.53,2.45-4.31,4.75-5.37s4.86-1.1,7.67-0.14
		c2.19,0.75,3.92,1.94,5.18,3.57c1.26,1.63,2.08,3.79,2.45,6.49l-5.94,1.29c-0.55-3.23-1.79-5.17-3.72-5.83
		c-1.01-0.34-1.95-0.34-2.84,0.01s-1.46,0.91-1.72,1.68c-0.24,0.7-0.22,1.48,0.06,2.36s1.05,2.33,2.33,4.37
		c2.42,3.88,3.87,6.73,4.34,8.55c0.47,1.82,0.46,3.47-0.05,4.95c-0.73,2.13-2.17,3.69-4.31,4.66c-2.15,0.97-4.42,1.05-6.81,0.24
		c-1.54-0.52-2.88-1.38-4.03-2.56C280.62,686.11,279.56,684.3,278.58,681.86z"/>
	<path class="st4" d="M269.08,682.84l-16.23-7.19l2.45-5.54l10.61,4.7l2.38-5.38l-10.61-4.7l2.41-5.44l10.61,4.7l3.47-7.82
		l-10.61-4.7l2.46-5.56l16.23,7.19L269.08,682.84z"/>
	<path class="st4" d="M231.36,664.88c-3.96-2.34-6.53-5.78-7.69-10.33c-1.16-4.55-0.53-8.89,1.91-13.02
		c2.41-4.09,5.86-6.72,10.34-7.89c4.48-1.17,8.73-0.58,12.75,1.79c4.21,2.48,6.84,5.99,7.91,10.54c1.07,4.55,0.42,8.82-1.93,12.82
		c-1.58,2.68-3.68,4.76-6.3,6.25c-2.62,1.48-5.45,2.21-8.5,2.19S233.98,666.43,231.36,664.88z M234.49,659.7
		c2.59,1.53,5.31,1.91,8.14,1.15c2.83-0.76,5.06-2.53,6.7-5.31c1.83-3.1,2.16-6.21,1-9.32c-0.9-2.43-2.47-4.3-4.7-5.62
		c-2.53-1.49-5.22-1.85-8.08-1.07s-5.08,2.51-6.66,5.19c-1.57,2.67-2.01,5.45-1.3,8.36S231.92,658.18,234.49,659.7z"/>
	<path class="st4" d="M210.23,650.42l-4.92-3.8l12.86-16.65c1.11-1.43,1.77-2.54,1.97-3.33c0.21-0.79,0.16-1.58-0.14-2.38
		c-0.3-0.8-0.86-1.52-1.68-2.15c-0.86-0.67-1.76-1.04-2.69-1.13c-0.93-0.09-1.75,0.08-2.46,0.51c-0.71,0.43-1.73,1.5-3.07,3.23
		l-12.38,16.04l-4.92-3.8l11.85-15.35c2-2.59,3.53-4.27,4.6-5.05c1.07-0.78,2.37-1.32,3.92-1.61s3.03-0.26,4.45,0.12
		c1.42,0.38,2.84,1.12,4.27,2.22c1.87,1.44,3.16,3.12,3.88,5.05c0.72,1.93,0.88,3.76,0.48,5.51c-0.4,1.75-1.79,4.16-4.16,7.23
		L210.23,650.42z"/>
	<path class="st4" d="M185.75,630.69l-4.54-4.21l18.12-19.51l-6.61-6.14l4.02-4.33l11.15,10.35L185.75,630.69z"/>
	<path class="st4" d="M149.68,593.5c-2.85-3.62-3.99-7.75-3.42-12.42c0.57-4.66,2.73-8.48,6.49-11.44c3.73-2.94,7.89-4.14,12.5-3.61
		c4.6,0.53,8.35,2.63,11.23,6.29c3.02,3.83,4.21,8.07,3.56,12.69c-0.65,4.63-2.8,8.38-6.45,11.25c-2.44,1.93-5.15,3.11-8.14,3.54
		c-2.98,0.43-5.88,0.09-8.71-1.04C153.92,597.64,151.57,595.88,149.68,593.5z M154.48,589.8c1.86,2.36,4.25,3.7,7.17,4.02
		c2.91,0.32,5.64-0.53,8.17-2.52c2.83-2.23,4.26-5,4.31-8.33c0.04-2.59-0.74-4.9-2.35-6.94c-1.82-2.31-4.2-3.61-7.15-3.92
		c-2.95-0.31-5.64,0.5-8.08,2.42c-2.43,1.92-3.85,4.36-4.24,7.32C151.92,584.8,152.64,587.46,154.48,589.8z"/>
	<path class="st4" d="M134.99,572.08l-3.75-6.3c-2.42-4.06-3.71-7.38-3.88-9.95c-0.17-2.57,0.5-5.17,2-7.8s3.77-4.84,6.8-6.65
		c2.15-1.28,4.34-2.1,6.58-2.46s4.32-0.27,6.26,0.28s3.58,1.42,4.91,2.62c1.33,1.2,3.07,3.6,5.23,7.22l3.81,6.4L134.99,572.08z
		 M136.98,563.74l17.63-10.5l-1.47-2.47c-1.45-2.43-2.78-4.03-3.99-4.79c-1.21-0.76-2.68-1.1-4.42-1.01
		c-1.73,0.09-3.56,0.71-5.49,1.86c-2.97,1.77-4.77,3.97-5.42,6.6c-0.58,2.37,0.11,5.21,2.08,8.51L136.98,563.74z"/>
	<path class="st4" d="M118.09,542.3l-7.47-16.11l5.5-2.55l4.88,10.53l5.34-2.47l-4.88-10.53l5.4-2.5l4.88,10.53l7.76-3.6
		l-4.88-10.53l5.52-2.56l7.47,16.11L118.09,542.3z"/>
	<path class="st4" d="M114.06,511.85l1.94,5.46c-2.66,0.98-5.2,0.85-7.61-0.39c-2.41-1.24-4.15-3.38-5.24-6.42
		c-0.7-1.96-0.93-3.75-0.7-5.39c0.23-1.63,0.88-3.1,1.95-4.41c1.07-1.31,2.35-2.23,3.85-2.77c0.82-0.29,1.67-0.45,2.56-0.46
		c0.89-0.02,1.85,0.11,2.88,0.38c0.6,0.16,1.71,0.67,3.31,1.52c1.53,0.82,2.57,1.3,3.13,1.44c0.56,0.14,1.25,0.19,2.08,0.13
		c0.82-0.06,1.91-0.3,3.27-0.72l2.01,5.65l-0.93,0.35c-1.86,0.66-3.67,0.92-5.44,0.78c-1.76-0.14-3.58-0.74-5.46-1.79
		c-1.82-1.01-3.02-1.58-3.62-1.72c-0.59-0.13-1.22-0.08-1.87,0.15c-0.89,0.32-1.51,0.96-1.86,1.92c-0.35,0.96-0.31,2.07,0.14,3.32
		c0.46,1.28,1.2,2.19,2.25,2.74C111.75,512.19,112.87,512.26,114.06,511.85z M128.83,502.11c-0.36-1.01-0.32-2,0.12-2.96
		c0.44-0.96,1.15-1.62,2.14-1.97c0.99-0.35,1.96-0.3,2.91,0.16c0.95,0.46,1.61,1.19,1.96,2.19s0.31,1.98-0.14,2.93
		s-1.17,1.6-2.16,1.95c-0.99,0.35-1.95,0.3-2.89-0.14C129.83,503.81,129.18,503.09,128.83,502.11z"/>
	<path class="st4" d="M96.23,461.49l4.88,3.68c-1.87,2.03-2.64,3.86-2.3,5.49c0.16,0.8,0.51,1.4,1.04,1.82s1.06,0.57,1.6,0.46
		s1-0.39,1.4-0.85c0.54-0.62,1.6-2.38,3.18-5.29c1.46-2.71,2.39-4.37,2.8-4.96c0.99-1.48,2-2.6,3.03-3.34s2.21-1.26,3.56-1.53
		c2.61-0.54,4.96-0.08,7.03,1.38c2.07,1.46,3.41,3.64,4.01,6.54c0.47,2.27,0.31,4.36-0.45,6.27s-2.22,3.71-4.35,5.4l-4.12-4.47
		c2.5-2.11,3.55-4.16,3.14-6.16c-0.21-1.04-0.7-1.85-1.45-2.44c-0.75-0.58-1.52-0.8-2.32-0.63c-0.72,0.15-1.39,0.56-2,1.25
		c-0.61,0.68-1.48,2.09-2.59,4.22c-2.12,4.05-3.84,6.74-5.17,8.07c-1.33,1.33-2.76,2.15-4.29,2.46c-2.21,0.45-4.28,0-6.2-1.36
		c-1.93-1.36-3.14-3.28-3.65-5.75c-0.33-1.59-0.27-3.18,0.17-4.77C93.6,465.4,94.62,463.57,96.23,461.49z"/>
	<path class="st4" d="M90.57,453.78l-2.02-17.64l6.02-0.69l1.32,11.53l5.84-0.67l-1.32-11.53l5.91-0.68l1.32,11.53l8.5-0.97
		l-1.32-11.53l6.04-0.69l2.02,17.64L90.57,453.78z"/>
	<path class="st4" d="M86.93,412.86c-0.07-4.6,1.53-8.59,4.8-11.95s7.31-5.09,12.1-5.16c4.75-0.08,8.79,1.49,12.13,4.71
		c3.34,3.21,5.05,7.15,5.12,11.81c0.08,4.88-1.54,8.97-4.87,12.25c-3.32,3.28-7.31,4.96-11.95,5.04c-3.11,0.05-5.98-0.66-8.61-2.12
		s-4.73-3.5-6.3-6.1C87.79,418.72,86.98,415.9,86.93,412.86z M92.99,412.83c0.05,3.01,1.14,5.52,3.26,7.54
		c2.13,2.02,4.8,3,8.03,2.95c3.6-0.06,6.42-1.4,8.47-4.01c1.6-2.03,2.38-4.35,2.34-6.94c-0.05-2.94-1.15-5.42-3.31-7.45
		c-2.16-2.03-4.79-3.02-7.9-2.97c-3.1,0.05-5.7,1.13-7.81,3.25C93.97,407.3,92.94,409.85,92.99,412.83z"/>
	<path class="st4" d="M88.64,386.68l0.77-6.17l20.87,2.6c1.8,0.22,3.09,0.23,3.87,0c0.78-0.22,1.45-0.67,1.98-1.34
		c0.54-0.67,0.87-1.51,1-2.54c0.13-1.08,0-2.05-0.4-2.89c-0.4-0.84-0.96-1.46-1.69-1.86s-2.18-0.73-4.34-1l-20.11-2.5l0.77-6.17
		l19.24,2.4c3.25,0.4,5.48,0.87,6.69,1.39c1.21,0.52,2.34,1.37,3.38,2.55c1.04,1.18,1.76,2.47,2.16,3.89s0.48,3.02,0.26,4.8
		c-0.29,2.34-1.08,4.31-2.37,5.91s-2.79,2.67-4.5,3.22c-1.71,0.54-4.49,0.58-8.33,0.1L88.64,386.68z"/>
	<path class="st4" d="M93.17,355.54l1.32-6.05l26.01,5.69l1.93-8.81l5.77,1.26l-3.25,14.86L93.17,355.54z"/>
	<path class="st4" d="M106.93,305.58c1.67-4.29,4.67-7.37,8.97-9.24c4.31-1.87,8.69-1.94,13.16-0.2c4.42,1.73,7.57,4.71,9.44,8.95
		c1.87,4.24,1.96,8.53,0.27,12.87c-1.78,4.55-4.82,7.71-9.14,9.49s-8.64,1.83-12.97,0.14c-2.9-1.13-5.29-2.87-7.17-5.22
		c-1.88-2.35-3.06-5.03-3.52-8.04C105.51,311.33,105.83,308.41,106.93,305.58z M112.55,307.85c-1.1,2.8-1.04,5.54,0.16,8.21
		c1.2,2.67,3.31,4.6,6.32,5.77c3.35,1.31,6.47,1.14,9.36-0.5c2.25-1.27,3.85-3.12,4.8-5.54c1.07-2.73,0.99-5.45-0.24-8.15
		c-1.23-2.7-3.29-4.61-6.19-5.74c-2.88-1.13-5.7-1.11-8.46,0.05C115.56,303.1,113.64,305.07,112.55,307.85z"/>
	<path class="st4" d="M117.98,282.04l3.54-6.43c2.28-4.14,4.49-6.94,6.62-8.38c2.13-1.45,4.72-2.19,7.75-2.22s6.09,0.8,9.17,2.5
		c2.2,1.21,4.01,2.68,5.45,4.43c1.44,1.74,2.41,3.59,2.92,5.54c0.51,1.95,0.58,3.8,0.22,5.56c-0.36,1.75-1.55,4.47-3.59,8.16
		l-3.59,6.52L117.98,282.04z M126.18,279.53l17.98,9.9l1.39-2.52c1.36-2.48,2.07-4.43,2.12-5.86c0.05-1.43-0.41-2.87-1.36-4.32
		c-0.95-1.45-2.41-2.72-4.38-3.8c-3.02-1.67-5.84-2.11-8.44-1.34c-2.34,0.7-4.44,2.73-6.29,6.1L126.18,279.53z"/>
	<path class="st4" d="M135.12,252.41l10.12-14.59l4.98,3.45l-6.62,9.54l4.83,3.35l6.62-9.54l4.89,3.39l-6.62,9.54l7.03,4.88
		l6.62-9.54l5,3.47l-10.12,14.59L135.12,252.41z"/>
	<path class="st4" d="M159.33,233.54l-3.72,4.44c-2.2-1.8-3.37-4.05-3.52-6.76c-0.15-2.7,0.81-5.29,2.88-7.77
		c1.33-1.59,2.77-2.7,4.29-3.33c1.52-0.63,3.12-0.81,4.79-0.56c1.67,0.26,3.12,0.89,4.34,1.92c0.67,0.56,1.23,1.22,1.7,1.97
		c0.46,0.75,0.84,1.65,1.13,2.68c0.17,0.6,0.29,1.81,0.37,3.62c0.07,1.73,0.18,2.88,0.34,3.43c0.16,0.56,0.47,1.17,0.94,1.86
		c0.47,0.68,1.23,1.5,2.27,2.45l-3.85,4.59l-0.78-0.62c-1.51-1.27-2.66-2.7-3.43-4.29c-0.77-1.59-1.18-3.46-1.23-5.61
		c-0.05-2.08-0.16-3.41-0.35-3.99c-0.19-0.58-0.55-1.09-1.08-1.54c-0.72-0.61-1.59-0.82-2.6-0.63s-1.94,0.78-2.79,1.8
		c-0.87,1.04-1.28,2.15-1.23,3.33C157.87,231.72,158.37,232.72,159.33,233.54z M175.21,241.33c0.69-0.82,1.56-1.29,2.62-1.4
		c1.05-0.11,1.98,0.17,2.78,0.85c0.8,0.67,1.25,1.54,1.33,2.59c0.09,1.05-0.21,1.99-0.89,2.8c-0.68,0.81-1.55,1.27-2.6,1.36
		c-1.05,0.09-1.97-0.2-2.78-0.87c-0.8-0.67-1.25-1.53-1.34-2.57C174.25,243.06,174.54,242.14,175.21,241.33z"/>
	<path class="st4" d="M193.64,192.63l-0.69,6.08c-2.7-0.58-4.66-0.31-5.9,0.81c-0.6,0.54-0.95,1.15-1.04,1.82
		c-0.09,0.67,0.05,1.21,0.41,1.61c0.37,0.4,0.85,0.66,1.45,0.78c0.81,0.14,2.86,0.16,6.17,0.05c3.08-0.12,4.98-0.16,5.69-0.11
		c1.78,0.1,3.25,0.4,4.42,0.91c1.17,0.51,2.21,1.27,3.13,2.28c1.79,1.98,2.58,4.23,2.38,6.76c-0.2,2.53-1.4,4.79-3.6,6.78
		c-1.72,1.55-3.6,2.49-5.63,2.8s-4.32-0.02-6.86-1l1.75-5.82c3.09,1.08,5.39,0.94,6.9-0.43c0.79-0.71,1.24-1.54,1.36-2.49
		c0.12-0.94-0.09-1.72-0.63-2.32c-0.49-0.55-1.19-0.91-2.09-1.09c-0.9-0.18-2.55-0.21-4.95-0.09c-4.57,0.24-7.76,0.12-9.58-0.35
		c-1.82-0.47-3.25-1.29-4.3-2.44c-1.51-1.67-2.17-3.68-1.98-6.03s1.22-4.37,3.1-6.07c1.2-1.09,2.6-1.85,4.2-2.28
		S191.04,192.3,193.64,192.63z"/>
	<path class="st4" d="M197.4,183.84l14.16-10.72l3.66,4.83l-9.26,7.01l3.55,4.69l9.26-7.01l3.59,4.74l-9.26,7.01l5.16,6.82
		l9.26-7.01l3.67,4.85l-14.16,10.72L197.4,183.84z"/>
	<path class="st4" d="M231.36,159.54c3.96-2.34,8.22-2.91,12.76-1.73c4.54,1.19,8.04,3.84,10.47,7.97c2.41,4.09,3.05,8.38,1.9,12.87
		c-1.14,4.49-3.72,7.92-7.74,10.29c-4.21,2.48-8.56,3.09-13.05,1.82s-7.93-3.9-10.29-7.9c-1.58-2.68-2.39-5.52-2.42-8.54
		c-0.03-3.01,0.7-5.84,2.19-8.5C226.68,163.19,228.74,161.09,231.36,159.54z M234.38,164.8c-2.59,1.53-4.24,3.72-4.94,6.56
		c-0.7,2.85-0.23,5.66,1.41,8.44c1.83,3.1,4.39,4.89,7.67,5.38c2.56,0.39,4.96-0.08,7.2-1.4c2.53-1.49,4.14-3.68,4.84-6.56
		c0.7-2.88,0.26-5.66-1.32-8.34c-1.57-2.67-3.8-4.39-6.68-5.18C239.67,162.92,236.95,163.28,234.38,164.8z"/>
	<path class="st4" d="M254.25,148.05l5.71-2.46l8.33,19.31c0.72,1.66,1.37,2.78,1.96,3.34c0.59,0.56,1.31,0.91,2.16,1.03
		c0.85,0.12,1.75-0.02,2.69-0.43c1-0.43,1.77-1.03,2.29-1.81c0.53-0.77,0.77-1.57,0.75-2.4c-0.03-0.83-0.48-2.25-1.34-4.25
		l-8.03-18.6l5.71-2.46l7.68,17.81c1.3,3,2.03,5.16,2.19,6.47c0.16,1.31,0,2.71-0.48,4.21c-0.49,1.5-1.24,2.77-2.26,3.83
		c-1.02,1.06-2.36,1.94-4.01,2.66c-2.17,0.93-4.27,1.25-6.3,0.95c-2.03-0.3-3.72-1.05-5.05-2.25c-1.34-1.2-2.77-3.58-4.31-7.14
		L254.25,148.05z"/>
	<path class="st4" d="M283.41,136.19l5.89-1.92l8.26,25.31l8.58-2.8l1.83,5.61l-14.46,4.72L283.41,136.19z"/>
</g>
<g>
	<rect x="250" y="320.24" class="st5" width="264.03" height="12.83"/>
	<path class="st5" d="M316.01,543.77c0,1.28,0.04,2.57,0.13,3.83h-0.13V543.77z"/>
	<path class="st5" d="M449.72,547.6c0.09-1.27,0.13-2.55,0.13-3.83v3.83H449.72z"/>
	<path class="st5" d="M493.86,333.08v177.85h-53.17v33.2c0,1.17-0.04,2.33-0.13,3.47H325.3c-0.09-1.14-0.13-2.29-0.13-3.47v-33.2
		h-56.84V333.08H493.86z"/>
	<rect x="299.5" y="298.24" class="st5" width="163.18" height="22"/>
	<rect x="277.5" y="287.62" class="st5" width="22" height="32.83"/>
	<path class="st5" d="M440.68,419.05v125.08c0,1.17-0.04,2.33-0.13,3.47H325.3c-0.09-1.14-0.13-2.29-0.13-3.47V419.05
		c0-28.13,23.01-51.14,51.14-51.14h13.24C417.67,367.91,440.68,390.92,440.68,419.05z"/>
	<path class="st5" d="M440.68,419.05v125.08c0,1.17-0.04,2.33-0.13,3.47H325.3c-0.09-1.14-0.13-2.29-0.13-3.47V419.05
		c0-28.13,23.01-51.14,51.14-51.14h13.24C417.67,367.91,440.68,390.92,440.68,419.05z"/>
	<path class="st6" d="M449.85,413.92v97.01h-9.17v33.2c0,1.17-0.04,2.33-0.13,3.47H325.3c-0.09-1.14-0.13-2.29-0.13-3.47v-33.2
		h-9.17v-97.01c0-31.35,25.65-57,57-57h19.84C424.2,356.91,449.85,382.56,449.85,413.92z"/>
	<path class="st5" d="M429.5,438.49v100.88c0,2.82-0.29,5.57-0.83,8.23h-91.49c-0.53-2.66-0.83-5.41-0.83-8.23V438.49
		c0-22.68,18.55-41.24,41.24-41.24h10.67C410.95,397.25,429.5,415.81,429.5,438.49z"/>
	<path class="st5" d="M325.3,547.6h-9.17c-0.09-1.27-0.13-2.55-0.13-3.83v3.83h-56.84v-36.67h66.01v33.2
		C325.17,545.31,325.21,546.46,325.3,547.6z"/>
	<path class="st5" d="M506.69,510.93v36.67h-56.84v-3.83c0,1.28-0.04,2.57-0.13,3.83h-9.17c0.09-1.14,0.13-2.29,0.13-3.47v-33.2
		H506.69z"/>
	<polyline class="st6" points="277.5,287.62 288.5,274.77 299.5,287.62 	"/>
	<rect x="462.69" y="287.62" class="st5" width="22" height="32.83"/>
	<polyline class="st6" points="462.69,287.62 473.69,274.77 484.69,287.62 	"/>
	<line class="st6" x1="268.33" y1="349.58" x2="493.86" y2="349.58"/>
	<line class="st6" x1="268.33" y1="371.58" x2="332.51" y2="371.58"/>
	<line class="st6" x1="431.52" y1="371.58" x2="493.86" y2="371.58"/>
	<line class="st6" x1="268.33" y1="393.58" x2="319.67" y2="393.58"/>
	<line class="st6" x1="446.19" y1="393.58" x2="493.86" y2="393.58"/>
	<line class="st6" x1="268.33" y1="421.09" x2="316.01" y2="421.09"/>
	<line class="st6" x1="449.85" y1="421.09" x2="493.86" y2="421.09"/>
	<line class="st6" x1="268.33" y1="446.76" x2="316.01" y2="446.76"/>
	<line class="st6" x1="449.85" y1="446.76" x2="493.86" y2="446.76"/>
	<line class="st6" x1="268.33" y1="477.92" x2="316.01" y2="477.92"/>
	<line class="st6" x1="449.85" y1="477.92" x2="493.86" y2="477.92"/>
	<line class="st6" x1="305" y1="333.08" x2="305" y2="349.58"/>
	<line class="st6" x1="325.17" y1="349.58" x2="325.17" y2="371.58"/>
	<line class="st6" x1="281.17" y1="371.58" x2="281.17" y2="393.58"/>
	<line class="st6" x1="295.84" y1="393.58" x2="295.84" y2="421.09"/>
	<line class="st6" x1="279.34" y1="421.09" x2="279.34" y2="446.76"/>
	<line class="st6" x1="301.34" y1="446.76" x2="301.34" y2="477.92"/>
	<line class="st6" x1="286.67" y1="477.92" x2="286.67" y2="510.93"/>
	<line class="st6" x1="460.85" y1="477.92" x2="460.85" y2="510.93"/>
	<line class="st6" x1="473.69" y1="446.76" x2="473.69" y2="477.92"/>
	<line class="st6" x1="466.35" y1="421.09" x2="466.35" y2="446.76"/>
	<line class="st6" x1="482.86" y1="393.58" x2="482.86" y2="421.09"/>
	<line class="st6" x1="460.85" y1="371.58" x2="460.85" y2="393.58"/>
	<line class="st6" x1="422.35" y1="349.58" x2="422.35" y2="364.25"/>
	<line class="st6" x1="481.02" y1="351.41" x2="481.02" y2="369.75"/>
	<line class="st6" x1="449.85" y1="333.08" x2="449.85" y2="349.58"/>
	<line class="st6" x1="376.51" y1="333.08" x2="376.51" y2="349.58"/>
	<line class="st6" x1="380.18" y1="356.91" x2="380.18" y2="367.91"/>
	<line class="st6" x1="352.68" y1="362.41" x2="356.34" y2="371.58"/>
	<line class="st6" x1="328.84" y1="378.92" x2="336.17" y2="386.25"/>
	<line class="st6" x1="317.84" y1="402.75" x2="327.01" y2="404.58"/>
	<line class="st6" x1="316.01" y1="432.09" x2="325.17" y2="432.09"/>
	<line class="st6" x1="316.01" y1="459.59" x2="325.17" y2="459.59"/>
	<line class="st6" x1="316.01" y1="483.43" x2="325.17" y2="483.43"/>
	<line class="st6" x1="316.01" y1="499.93" x2="325.17" y2="499.93"/>
	<line class="st6" x1="413.18" y1="360.58" x2="409.51" y2="371.58"/>
	<line class="st6" x1="437.02" y1="378.92" x2="429.68" y2="386.25"/>
	<line class="st6" x1="438.85" y1="406.42" x2="449.85" y2="404.58"/>
	<line class="st6" x1="440.68" y1="430.25" x2="449.85" y2="430.25"/>
	<line class="st6" x1="440.68" y1="457.76" x2="449.85" y2="457.76"/>
	<line class="st6" x1="440.68" y1="483.43" x2="449.85" y2="483.43"/>
	<line class="st6" x1="440.68" y1="499.93" x2="449.85" y2="499.93"/>
	<line class="st6" x1="316.01" y1="510.93" x2="316.01" y2="545.76"/>
	<line class="st6" x1="449.85" y1="510.93" x2="449.85" y2="545.76"/>
</g>
<path class="st7" d="M549.92,504.97c-14.97,8.81-37.13-1.1-37.13-1.1s2.11-24.19,17.08-32.99c14.97-8.81,37.13,1.1,37.13,1.1
	S564.89,496.16,549.92,504.97z"/>
<path class="st7" d="M528.95,455.67c1.17,13.73-12.44,26.1-12.44,26.1s-15.51-9.88-16.68-23.61c-1.17-13.73,12.44-26.1,12.44-26.1
	S527.78,441.94,528.95,455.67z"/>
</svg>
