<?xml version="1.0" encoding="utf-8"?>
<!-- Generator: Adobe Illustrator 27.4.0, SVG Export Plug-In . SVG Version: 6.00 Build 0)  -->
<svg version="1.1" id="레이어_1" xmlns="http://www.w3.org/2000/svg" xmlns:xlink="http://www.w3.org/1999/xlink" x="0px"
	 y="0px" viewBox="0 0 762.52 822.05" style="enable-background:new 0 0 762.52 822.05;" xml:space="preserve">
<style type="text/css">
	.st0{fill:none;stroke:#463C33;stroke-width:3.7343;stroke-miterlimit:10;}
	.st1{fill:none;stroke:#463C33;stroke-width:2.9231;stroke-miterlimit:10;}
	.st2{fill:none;stroke:#463C33;stroke-width:2.6294;stroke-miterlimit:10;}
	.st3{fill:none;stroke:#463C33;stroke-width:2.7692;stroke-linecap:round;stroke-linejoin:round;stroke-dasharray:2.9953,5.9905;}
	.st4{fill:none;}
	.st5{fill:#FFFFFF;stroke:#463C33;stroke-width:4;stroke-miterlimit:10;}
	.st6{fill:none;stroke:#463C33;stroke-width:4;stroke-miterlimit:10;}
	.st7{fill:#ABB868;}
</style>
<g>
	<circle class="st0" cx="381.26" cy="411.02" r="318.19"/>
	<circle class="st1" cx="381.26" cy="411.02" r="249.07"/>
	<circle class="st2" cx="381.26" cy="411.02" r="224.05"/>
	<g>
		<circle class="st3" cx="381.26" cy="411.02" r="235.96"/>
	</g>
	<path id="SVGID_x5F_1_x5F_" class="st4" d="M639.87,412.22c0,143.48-116.32,259.8-259.8,259.8s-259.8-116.32-259.8-259.8
		s116.32-259.8,259.8-259.8S639.87,268.73,639.87,412.22z"/>
	<text>	<textPath  xlink:href="#SVGID_x5F_1_x5F_" startOffset="96.289%">
<tspan  style="fill:#463C33; font-family:'CenturyGothic-Bold'; font-size:45.2858px;">ODE? SEOUL ODE? SEOUL ODE? SEOUL ODE? SEOUL ODE? SEOUL ODE? SEOUL</tspan>	</textPath>
</text>
	<g>
		<rect x="250" y="320.24" class="st5" width="264.03" height="12.83"/>
		<path class="st5" d="M316.01,543.77c0,1.28,0.04,2.57,0.13,3.83h-0.13V543.77z"/>
		<path class="st5" d="M449.72,547.6c0.09-1.27,0.13-2.55,0.13-3.83v3.83H449.72z"/>
		<path class="st5" d="M493.86,333.08v177.85h-53.17v33.2c0,1.17-0.04,2.33-0.13,3.47H325.3c-0.09-1.14-0.13-2.29-0.13-3.47v-33.2
			h-56.84V333.08H493.86z"/>
		<rect x="299.5" y="298.24" class="st5" width="163.18" height="22"/>
		<rect x="277.5" y="287.62" class="st5" width="22" height="32.83"/>
		<path class="st5" d="M440.68,419.05v125.08c0,1.17-0.04,2.33-0.13,3.47H325.3c-0.09-1.14-0.13-2.29-0.13-3.47V419.05
			c0-28.13,23.01-51.14,51.14-51.14h13.24C417.67,367.91,440.68,390.92,440.68,419.05z"/>
		<path class="st5" d="M440.68,419.05v125.08c0,1.17-0.04,2.33-0.13,3.47H325.3c-0.09-1.14-0.13-2.29-0.13-3.47V419.05
			c0-28.13,23.01-51.14,51.14-51.14h13.24C417.67,367.91,440.68,390.92,440.68,419.05z"/>
		<path class="st6" d="M449.85,413.92v97.01h-9.17v33.2c0,1.17-0.04,2.33-0.13,3.47H325.3c-0.09-1.14-0.13-2.29-0.13-3.47v-33.2
			h-9.17v-97.01c0-31.35,25.65-57,57-57h19.84C424.2,356.91,449.85,382.56,449.85,413.92z"/>
		<path class="st5" d="M429.5,438.49v100.88c0,2.82-0.29,5.57-0.83,8.23h-91.49c-0.53-2.66-0.83-5.41-0.83-8.23V438.49
			c0-22.68,18.55-41.24,41.24-41.24h10.67C410.95,397.25,429.5,415.81,429.5,438.49z"/>
		<path class="st5" d="M325.3,547.6h-9.17c-0.09-1.27-0.13-2.55-0.13-3.83v3.83h-56.84v-36.67h66.01v33.2
			C325.17,545.31,325.21,546.46,325.3,547.6z"/>
		<path class="st5" d="M506.69,510.93v36.67h-56.84v-3.83c0,1.28-0.04,2.57-0.13,3.83h-9.17c0.09-1.14,0.13-2.29,0.13-3.47v-33.2
			H506.69z"/>
		<polyline class="st6" points="277.5,287.62 288.5,274.77 299.5,287.62 		"/>
		<rect x="462.69" y="287.62" class="st5" width="22" height="32.83"/>
		<polyline class="st6" points="462.69,287.62 473.69,274.77 484.69,287.62 		"/>
		<line class="st6" x1="268.33" y1="349.58" x2="493.86" y2="349.58"/>
		<line class="st6" x1="268.33" y1="371.58" x2="332.51" y2="371.58"/>
		<line class="st6" x1="431.52" y1="371.58" x2="493.86" y2="371.58"/>
		<line class="st6" x1="268.33" y1="393.58" x2="319.67" y2="393.58"/>
		<line class="st6" x1="446.19" y1="393.58" x2="493.86" y2="393.58"/>
		<line class="st6" x1="268.33" y1="421.09" x2="316.01" y2="421.09"/>
		<line class="st6" x1="449.85" y1="421.09" x2="493.86" y2="421.09"/>
		<line class="st6" x1="268.33" y1="446.76" x2="316.01" y2="446.76"/>
		<line class="st6" x1="449.85" y1="446.76" x2="493.86" y2="446.76"/>
		<line class="st6" x1="268.33" y1="477.92" x2="316.01" y2="477.92"/>
		<line class="st6" x1="449.85" y1="477.92" x2="493.86" y2="477.92"/>
		<line class="st6" x1="305" y1="333.08" x2="305" y2="349.58"/>
		<line class="st6" x1="325.17" y1="349.58" x2="325.17" y2="371.58"/>
		<line class="st6" x1="281.17" y1="371.58" x2="281.17" y2="393.58"/>
		<line class="st6" x1="295.84" y1="393.58" x2="295.84" y2="421.09"/>
		<line class="st6" x1="279.34" y1="421.09" x2="279.34" y2="446.76"/>
		<line class="st6" x1="301.34" y1="446.76" x2="301.34" y2="477.92"/>
		<line class="st6" x1="286.67" y1="477.92" x2="286.67" y2="510.93"/>
		<line class="st6" x1="460.85" y1="477.92" x2="460.85" y2="510.93"/>
		<line class="st6" x1="473.69" y1="446.76" x2="473.69" y2="477.92"/>
		<line class="st6" x1="466.35" y1="421.09" x2="466.35" y2="446.76"/>
		<line class="st6" x1="482.86" y1="393.58" x2="482.86" y2="421.09"/>
		<line class="st6" x1="460.85" y1="371.58" x2="460.85" y2="393.58"/>
		<line class="st6" x1="422.35" y1="349.58" x2="422.35" y2="364.25"/>
		<line class="st6" x1="481.02" y1="351.41" x2="481.02" y2="369.75"/>
		<line class="st6" x1="449.85" y1="333.08" x2="449.85" y2="349.58"/>
		<line class="st6" x1="376.51" y1="333.08" x2="376.51" y2="349.58"/>
		<line class="st6" x1="380.18" y1="356.91" x2="380.18" y2="367.91"/>
		<line class="st6" x1="352.68" y1="362.41" x2="356.34" y2="371.58"/>
		<line class="st6" x1="328.84" y1="378.92" x2="336.17" y2="386.25"/>
		<line class="st6" x1="317.84" y1="402.75" x2="327.01" y2="404.58"/>
		<line class="st6" x1="316.01" y1="432.09" x2="325.17" y2="432.09"/>
		<line class="st6" x1="316.01" y1="459.59" x2="325.17" y2="459.59"/>
		<line class="st6" x1="316.01" y1="483.43" x2="325.17" y2="483.43"/>
		<line class="st6" x1="316.01" y1="499.93" x2="325.17" y2="499.93"/>
		<line class="st6" x1="413.18" y1="360.58" x2="409.51" y2="371.58"/>
		<line class="st6" x1="437.02" y1="378.92" x2="429.68" y2="386.25"/>
		<line class="st6" x1="438.85" y1="406.42" x2="449.85" y2="404.58"/>
		<line class="st6" x1="440.68" y1="430.25" x2="449.85" y2="430.25"/>
		<line class="st6" x1="440.68" y1="457.76" x2="449.85" y2="457.76"/>
		<line class="st6" x1="440.68" y1="483.43" x2="449.85" y2="483.43"/>
		<line class="st6" x1="440.68" y1="499.93" x2="449.85" y2="499.93"/>
		<line class="st6" x1="316.01" y1="510.93" x2="316.01" y2="545.76"/>
		<line class="st6" x1="449.85" y1="510.93" x2="449.85" y2="545.76"/>
	</g>
	<path class="st7" d="M549.92,504.97c-14.97,8.81-37.13-1.1-37.13-1.1s2.11-24.19,17.08-32.99c14.97-8.81,37.13,1.1,37.13,1.1
		S564.89,496.16,549.92,504.97z"/>
	<path class="st7" d="M528.95,455.67c1.17,13.73-12.44,26.1-12.44,26.1s-15.51-9.88-16.68-23.61c-1.17-13.73,12.44-26.1,12.44-26.1
		S527.78,441.94,528.95,455.67z"/>
</g>
</svg>
