<?xml version="1.0" encoding="utf-8"?>
<!-- Generator: Adobe Illustrator 27.4.0, SVG Export Plug-In . SVG Version: 6.00 Build 0)  -->
<svg version="1.1" id="레이어_1" xmlns="http://www.w3.org/2000/svg" xmlns:xlink="http://www.w3.org/1999/xlink" x="0px"
	 y="0px" viewBox="0 0 762.52 822.05" style="enable-background:new 0 0 762.52 822.05;" xml:space="preserve">
<style type="text/css">
	.st0{fill:none;stroke:#463C33;stroke-width:3;stroke-miterlimit:10;}
	.st1{fill:none;stroke:#463C33;stroke-width:3;stroke-linecap:round;stroke-linejoin:round;stroke-dasharray:3.0043,6.0085;}
	.st2{fill:#463C33;}
	.st3{fill:none;stroke:#463C33;stroke-width:4;stroke-linejoin:round;stroke-miterlimit:10;}
	.st4{fill:#ABB868;}
</style>
<g>
	<circle class="st0" cx="381.26" cy="411.02" r="319.15"/>
	<circle class="st0" cx="381.26" cy="411.02" r="249.82"/>
	<circle class="st0" cx="381.26" cy="411.02" r="224.72"/>
	<g>
		<circle class="st1" cx="381.26" cy="411.02" r="236.67"/>
	</g>
</g>
<g>
	<path class="st2" d="M349.62,118.25c4.59-0.5,8.72,0.73,12.38,3.69s5.76,6.83,6.28,11.61c0.52,4.73-0.68,8.92-3.58,12.55
		c-2.9,3.63-6.67,5.7-11.32,6.21c-4.87,0.53-9.1-0.71-12.69-3.73c-3.59-3.01-5.64-6.84-6.14-11.47c-0.34-3.1,0.1-6.04,1.32-8.8
		c1.22-2.77,3.05-5.05,5.51-6.86C343.85,119.65,346.59,118.58,349.62,118.25z M350.21,124.29c-3,0.33-5.41,1.65-7.23,3.96
		c-1.82,2.31-2.55,5.07-2.2,8.29c0.39,3.59,1.99,6.28,4.79,8.09c2.18,1.41,4.56,1.98,7.15,1.7c2.93-0.32,5.31-1.65,7.14-3.99
		c1.83-2.34,2.57-5.06,2.24-8.16c-0.34-3.09-1.66-5.59-3.97-7.5C355.83,124.76,353.19,123.97,350.21,124.29z"/>
	<path class="st2" d="M375.57,117.14l7.36,0.15c4.74,0.09,8.25,0.75,10.53,1.97c2.28,1.22,4.14,3.17,5.58,5.85
		c1.44,2.68,2.12,5.78,2.05,9.31c-0.05,2.51-0.51,4.81-1.39,6.9s-2.06,3.82-3.56,5.18s-3.11,2.29-4.83,2.79s-4.7,0.71-8.92,0.62
		l-7.47-0.15L375.57,117.14z M381.61,123.25l-0.41,20.58l2.88,0.06c2.84,0.06,4.9-0.23,6.2-0.85c1.29-0.63,2.36-1.7,3.2-3.22
		c0.84-1.52,1.29-3.41,1.33-5.66c0.07-3.46-0.85-6.17-2.74-8.12c-1.71-1.75-4.5-2.67-8.35-2.74L381.61,123.25z"/>
	<path class="st2" d="M409.91,118.55l17.68,2.17l-0.74,6.03l-11.56-1.42l-0.72,5.86l11.56,1.42l-0.73,5.92l-11.56-1.42l-1.05,8.52
		l11.56,1.42l-0.74,6.05l-17.68-2.17L409.91,118.55z"/>
	<path class="st2" d="M437.96,131.23l-5.68-1.23c0.58-2.79,2.03-4.88,4.36-6.28s5.08-1.75,8.24-1.06c2.04,0.44,3.69,1.2,4.96,2.26
		c1.27,1.06,2.18,2.4,2.73,4c0.55,1.6,0.66,3.18,0.32,4.75c-0.19,0.85-0.5,1.66-0.96,2.42c-0.45,0.76-1.07,1.52-1.85,2.25
		c-0.46,0.43-1.47,1.1-3.05,2.02c-1.5,0.87-2.47,1.5-2.89,1.9c-0.42,0.4-0.82,0.97-1.21,1.7c-0.39,0.73-0.76,1.79-1.12,3.16
		l-5.87-1.28l0.19-0.98c0.42-1.94,1.16-3.62,2.21-5.05c1.05-1.43,2.52-2.66,4.41-3.7c1.82-1.01,2.95-1.73,3.38-2.17
		s0.71-0.99,0.86-1.67c0.2-0.92-0.02-1.79-0.65-2.6c-0.63-0.81-1.6-1.36-2.9-1.64c-1.33-0.29-2.51-0.13-3.53,0.46
		C438.9,129.09,438.25,130,437.96,131.23z M438.44,148.97c1.05,0.23,1.88,0.79,2.46,1.67c0.59,0.88,0.77,1.84,0.55,2.87
		c-0.22,1.03-0.78,1.82-1.68,2.39c-0.9,0.57-1.86,0.74-2.9,0.51s-1.85-0.78-2.42-1.67c-0.57-0.89-0.75-1.85-0.52-2.87
		c0.22-1.03,0.77-1.82,1.65-2.39C436.46,148.92,437.42,148.75,438.44,148.97z"/>
	<path class="st2" d="M490.33,142.71l-5.72,2.21c-0.74-2.67-1.89-4.29-3.46-4.87c-0.76-0.28-1.46-0.31-2.1-0.08s-1.05,0.6-1.24,1.11
		c-0.19,0.51-0.2,1.06-0.02,1.65c0.25,0.79,1.19,2.62,2.82,5.51c1.54,2.68,2.45,4.35,2.74,5.01c0.74,1.63,1.16,3.08,1.25,4.35
		s-0.1,2.55-0.58,3.84c-0.93,2.51-2.56,4.26-4.9,5.26c-2.34,1-4.91,0.98-7.7-0.05c-2.18-0.81-3.88-2.04-5.1-3.71
		s-1.99-3.86-2.29-6.57l5.99-1.15c0.47,3.25,1.67,5.23,3.59,5.94c1,0.37,1.95,0.39,2.84,0.06c0.9-0.33,1.49-0.88,1.77-1.64
		c0.26-0.69,0.25-1.48,0-2.37c-0.26-0.88-1-2.36-2.22-4.44c-2.33-3.95-3.71-6.84-4.14-8.68s-0.37-3.49,0.17-4.96
		c0.78-2.12,2.27-3.64,4.44-4.56c2.18-0.92,4.46-0.94,6.83-0.07c1.53,0.56,2.85,1.46,3.97,2.67S489.41,140.24,490.33,142.71z"/>
	<path class="st2" d="M499.88,141.96l16.09,7.62l-2.6,5.49l-10.52-4.98l-2.53,5.33l10.52,4.98l-2.55,5.39l-10.52-4.98l-3.67,7.76
		l10.52,4.98l-2.61,5.51l-16.09-7.62L499.88,141.96z"/>
	<path class="st2" d="M537.24,160.92c3.92,2.44,6.4,5.96,7.45,10.55s0.3,8.93-2.24,13.01c-2.52,4.04-6.04,6.59-10.57,7.65
		c-4.53,1.06-8.77,0.36-12.74-2.12c-4.16-2.59-6.71-6.18-7.67-10.77c-0.96-4.59-0.2-8.86,2.26-12.81c1.65-2.65,3.81-4.68,6.47-6.1
		c2.67-1.42,5.52-2.08,8.57-1.98S534.66,159.31,537.24,160.92z M533.97,166.04c-2.56-1.6-5.27-2.05-8.13-1.36
		c-2.86,0.69-5.14,2.41-6.86,5.16c-1.91,3.06-2.32,6.17-1.23,9.32c0.84,2.46,2.36,4.38,4.57,5.75c2.5,1.56,5.19,1.98,8.08,1.27
		c2.89-0.71,5.15-2.39,6.8-5.04c1.64-2.63,2.15-5.42,1.52-8.35C538.09,169.88,536.51,167.62,533.97,166.04z"/>
	<path class="st2" d="M558.06,175.95l4.84,3.93l-13.31,16.37c-1.15,1.41-1.83,2.51-2.06,3.29c-0.23,0.79-0.2,1.58,0.08,2.4
		c0.28,0.81,0.83,1.54,1.63,2.2c0.85,0.69,1.74,1.09,2.67,1.2c0.93,0.11,1.76-0.04,2.48-0.45s1.78-1.46,3.16-3.16l12.82-15.77
		l4.84,3.93l-12.27,15.09c-2.07,2.55-3.65,4.2-4.74,4.95c-1.09,0.75-2.41,1.26-3.97,1.52c-1.56,0.26-3.04,0.18-4.45-0.23
		c-1.42-0.42-2.82-1.19-4.22-2.33c-1.84-1.49-3.09-3.21-3.76-5.16c-0.67-1.95-0.79-3.79-0.34-5.54c0.45-1.74,1.89-4.12,4.35-7.14
		L558.06,175.95z"/>
	<path class="st2" d="M582.13,196.35l4.44,4.34l-18.66,19.11l6.47,6.32l-4.14,4.24l-10.92-10.66L582.13,196.35z"/>
	<path class="st2" d="M617.35,234.54c2.77,3.7,3.81,7.87,3.12,12.54c-0.69,4.66-2.95,8.43-6.8,11.31
		c-3.81,2.85-8.02,3.96-12.62,3.31c-4.6-0.65-8.31-2.84-11.11-6.59c-2.93-3.92-4.02-8.19-3.25-12.82c0.77-4.62,3.02-8.33,6.75-11.12
		c2.5-1.87,5.25-2.98,8.25-3.34c3-0.36,5.9,0.06,8.71,1.26C613.2,230.29,615.52,232.1,617.35,234.54z M612.44,238.13
		c-1.81-2.42-4.17-3.82-7.08-4.21c-2.91-0.39-5.67,0.39-8.26,2.33c-2.89,2.16-4.4,4.91-4.53,8.24c-0.11,2.6,0.62,4.94,2.18,7.02
		c1.76,2.36,4.12,3.73,7.07,4.11s5.67-0.36,8.17-2.23c2.49-1.86,3.96-4.27,4.44-7.23C614.89,243.2,614.23,240.53,612.44,238.13z"/>
	<path class="st2" d="M631.53,256.37l3.61,6.41c2.32,4.13,3.54,7.49,3.64,10.08c0.11,2.58-0.63,5.18-2.2,7.77s-3.9,4.76-6.98,6.5
		c-2.19,1.23-4.41,2-6.66,2.31c-2.25,0.31-4.33,0.16-6.27-0.44c-1.93-0.6-3.55-1.52-4.85-2.75c-1.3-1.23-2.99-3.69-5.06-7.37
		l-3.66-6.51L631.53,256.37z M629.34,264.68l-17.94,10.09l1.41,2.51c1.39,2.47,2.69,4.11,3.88,4.9c1.19,0.8,2.66,1.17,4.4,1.12
		c1.74-0.05,3.59-0.62,5.55-1.72c3.02-1.7,4.88-3.86,5.6-6.48c0.64-2.36,0.02-5.23-1.88-8.59L629.34,264.68z"/>
	<path class="st2" d="M647.75,286.71l7.08,16.34l-5.58,2.42l-4.63-10.69l-5.41,2.34l4.63,10.69l-5.47,2.37l-4.63-10.69l-7.88,3.41
		l4.63,10.69l-5.6,2.42l-7.08-16.34L647.75,286.71z"/>
	<path class="st2" d="M635.96,326.71c0.34,1.03,0.27,2.02-0.19,2.97c-0.47,0.95-1.2,1.59-2.19,1.92c-1,0.33-1.97,0.25-2.91-0.24
		c-0.94-0.48-1.58-1.23-1.91-2.24c-0.33-1.01-0.26-1.99,0.22-2.93s1.21-1.58,2.21-1.9c1-0.33,1.96-0.25,2.9,0.22
		C635,324.98,635.63,325.72,635.96,326.71z M651.02,317.32l-1.81-5.52c2.7-0.92,5.24-0.72,7.62,0.58c2.38,1.3,4.08,3.49,5.09,6.57
		c0.65,1.98,0.84,3.79,0.56,5.42c-0.28,1.63-0.96,3.09-2.07,4.38c-1.1,1.29-2.41,2.18-3.93,2.68c-0.83,0.27-1.69,0.41-2.58,0.4
		c-0.89,0-1.85-0.16-2.88-0.46c-0.6-0.18-1.7-0.71-3.28-1.61c-1.51-0.86-2.54-1.37-3.1-1.53c-0.56-0.16-1.25-0.22-2.08-0.18
		c-0.83,0.04-1.92,0.25-3.29,0.64l-1.87-5.71l0.94-0.33c1.88-0.62,3.71-0.83,5.47-0.65c1.76,0.18,3.57,0.83,5.43,1.93
		c1.79,1.06,2.99,1.67,3.58,1.81s1.22,0.11,1.88-0.1c0.9-0.29,1.54-0.92,1.92-1.88s0.36-2.07-0.05-3.33
		c-0.42-1.29-1.15-2.23-2.19-2.81C653.34,317.04,652.22,316.94,651.02,317.32z"/>
	<path class="st2" d="M667.62,368.29l-4.8-3.81c1.93-1.99,2.74-3.8,2.45-5.45c-0.14-0.8-0.48-1.42-1-1.85s-1.05-0.6-1.59-0.51
		c-0.54,0.1-1.02,0.37-1.43,0.82c-0.55,0.61-1.66,2.35-3.32,5.22c-1.53,2.68-2.51,4.32-2.93,4.9c-1.03,1.46-2.07,2.56-3.12,3.28
		c-1.05,0.72-2.25,1.2-3.6,1.45c-2.63,0.47-4.97-0.05-7.02-1.56c-2.04-1.51-3.33-3.74-3.85-6.66c-0.41-2.29-0.21-4.38,0.61-6.28
		c0.82-1.9,2.32-3.67,4.5-5.31l4.02,4.58c-2.56,2.05-3.66,4.08-3.3,6.1c0.19,1.05,0.65,1.88,1.39,2.48s1.51,0.84,2.31,0.69
		c0.73-0.13,1.41-0.53,2.04-1.2c0.63-0.67,1.53-2.06,2.7-4.16c2.23-4.01,4.02-6.66,5.39-7.96c1.37-1.3,2.82-2.08,4.37-2.36
		c2.23-0.4,4.29,0.11,6.19,1.52s3.07,3.36,3.51,5.86c0.29,1.6,0.19,3.2-0.29,4.78C670.36,364.43,669.29,366.24,667.62,368.29z"/>
	<path class="st2" d="M673.1,376.14l1.58,17.74l-6.05,0.54l-1.03-11.6l-5.88,0.52l1.04,11.6l-5.94,0.53l-1.04-11.6l-8.55,0.76
		l1.03,11.6l-6.07,0.54l-1.58-17.74L673.1,376.14z"/>
	<path class="st2" d="M675.72,417.92c-0.11,4.61-1.88,8.54-5.3,11.78c-3.42,3.24-7.54,4.8-12.34,4.68
		c-4.76-0.12-8.75-1.85-11.96-5.21c-3.22-3.36-4.77-7.37-4.65-12.05c0.12-4.9,1.91-8.92,5.38-12.08c3.46-3.16,7.52-4.68,12.18-4.56
		c3.12,0.08,5.97,0.9,8.55,2.47c2.58,1.57,4.6,3.7,6.07,6.38S675.79,414.87,675.72,417.92z M669.65,417.7
		c0.07-3.02-0.91-5.58-2.96-7.69c-2.05-2.11-4.69-3.2-7.93-3.28c-3.61-0.09-6.49,1.14-8.65,3.67c-1.69,1.97-2.57,4.26-2.63,6.86
		c-0.07,2.94,0.93,5.48,3.01,7.6c2.08,2.12,4.68,3.22,7.79,3.3c3.1,0.08,5.76-0.9,7.96-2.94
		C668.43,423.2,669.57,420.69,669.65,417.7z"/>
	<path class="st2" d="M673.37,443.46l-0.92,6.16l-20.86-3.13c-1.8-0.27-3.09-0.3-3.88-0.1c-0.79,0.2-1.47,0.63-2.02,1.29
		c-0.55,0.66-0.91,1.5-1.06,2.52c-0.16,1.08-0.05,2.05,0.33,2.91c0.38,0.86,0.93,1.49,1.65,1.91c0.72,0.42,2.16,0.79,4.33,1.11
		l20.1,3.02l-0.92,6.16l-19.24-2.89c-3.25-0.49-5.47-1.01-6.67-1.56c-1.2-0.55-2.31-1.43-3.33-2.64c-1.01-1.21-1.7-2.52-2.06-3.95
		c-0.36-1.43-0.41-3.04-0.14-4.82c0.35-2.34,1.19-4.29,2.53-5.87s2.87-2.61,4.59-3.11c1.73-0.5,4.51-0.47,8.36,0.11L673.37,443.46z"
		/>
	<path class="st2" d="M668.03,474.58l-1.48,6.03l-25.93-6.37l-2.16,8.79l-5.75-1.41l3.64-14.82L668.03,474.58z"/>
	<path class="st2" d="M652.95,524.36c-1.79,4.26-4.87,7.27-9.23,9.04s-8.77,1.72-13.2-0.14c-4.39-1.84-7.47-4.92-9.24-9.21
		c-1.77-4.3-1.75-8.6,0.06-12.91c1.9-4.51,5.03-7.61,9.41-9.29c4.38-1.68,8.71-1.61,13.01,0.19c2.88,1.21,5.23,3.01,7.06,5.42
		s2.94,5.12,3.33,8.15C654.53,518.63,654.13,521.55,652.95,524.36z M647.37,521.95c1.17-2.78,1.18-5.53,0.05-8.24
		c-1.14-2.71-3.2-4.69-6.19-5.95c-3.33-1.4-6.46-1.31-9.4,0.27c-2.29,1.22-3.94,3.03-4.95,5.43c-1.14,2.71-1.13,5.44,0.03,8.18
		c1.16,2.73,3.18,4.71,6.06,5.92c2.86,1.2,5.69,1.26,8.48,0.17C644.24,526.63,646.22,524.71,647.37,521.95z"/>
	<path class="st2" d="M641.28,547.67l-3.71,6.35c-2.39,4.09-4.67,6.84-6.85,8.24c-2.18,1.4-4.78,2.07-7.82,2.03
		s-6.08-0.96-9.13-2.74c-2.17-1.27-3.96-2.79-5.35-4.58c-1.4-1.78-2.33-3.66-2.79-5.63c-0.46-1.97-0.49-3.83-0.08-5.58
		s1.67-4.45,3.8-8.09l3.77-6.45L641.28,547.67z M633,549.98l-17.77-10.38l-1.45,2.49c-1.43,2.45-2.19,4.39-2.27,5.83
		s0.34,2.89,1.25,4.37c0.92,1.48,2.35,2.79,4.29,3.92c2.99,1.75,5.8,2.26,8.42,1.55c2.36-0.64,4.52-2.63,6.46-5.96L633,549.98z"/>
	<path class="st2" d="M623.35,576.94l-10.51,14.38l-4.91-3.59l6.87-9.4l-4.76-3.48l-6.87,9.4l-4.82-3.52l6.87-9.4l-6.93-5.07
		l-6.87,9.4l-4.92-3.6l10.51-14.38L623.35,576.94z"/>
	<path class="st2" d="M582.87,587.05c-0.71,0.81-1.6,1.25-2.66,1.34c-1.06,0.08-1.98-0.22-2.77-0.92c-0.79-0.69-1.21-1.57-1.27-2.63
		c-0.06-1.06,0.26-1.99,0.96-2.79c0.7-0.8,1.58-1.23,2.64-1.3s1.97,0.25,2.76,0.94c0.79,0.69,1.21,1.56,1.28,2.61
		C583.88,585.34,583.56,586.26,582.87,587.05z M598.6,595.26l3.84-4.36c2.16,1.86,3.28,4.15,3.36,6.86
		c0.08,2.72-0.94,5.29-3.09,7.72c-1.38,1.56-2.84,2.64-4.38,3.23s-3.15,0.74-4.82,0.44c-1.67-0.3-3.1-0.98-4.3-2.03
		c-0.65-0.58-1.21-1.25-1.65-2.02c-0.45-0.77-0.8-1.67-1.07-2.71c-0.15-0.61-0.25-1.82-0.28-3.64c-0.03-1.74-0.11-2.89-0.26-3.45
		c-0.15-0.56-0.44-1.19-0.9-1.88s-1.19-1.53-2.22-2.52l3.97-4.51l0.76,0.64c1.49,1.31,2.6,2.77,3.33,4.39s1.1,3.5,1.09,5.66
		c0,2.08,0.08,3.42,0.25,4.01c0.17,0.59,0.52,1.11,1.04,1.57c0.71,0.62,1.57,0.86,2.59,0.7c1.02-0.16,1.96-0.74,2.84-1.74
		c0.9-1.02,1.34-2.12,1.31-3.31C600.02,597.13,599.54,596.11,598.6,595.26z"/>
	<path class="st2" d="M563.14,635.43l0.84-6.08c2.69,0.65,4.67,0.43,5.94-0.66c0.62-0.53,0.98-1.13,1.09-1.8s-0.02-1.21-0.37-1.62
		c-0.36-0.42-0.83-0.69-1.43-0.82c-0.81-0.17-2.87-0.23-6.19-0.21c-3.09,0.04-4.99,0.03-5.71-0.03c-1.78-0.14-3.25-0.48-4.41-1.02
		c-1.16-0.54-2.18-1.33-3.08-2.37c-1.75-2.03-2.49-4.31-2.22-6.84c0.26-2.53,1.53-4.76,3.78-6.7c1.76-1.51,3.67-2.4,5.72-2.66
		c2.05-0.26,4.34,0.13,6.86,1.18l-1.9,5.79c-3.07-1.16-5.38-1.08-6.93,0.26c-0.81,0.69-1.29,1.51-1.43,2.46
		c-0.15,0.94,0.05,1.72,0.58,2.34c0.48,0.56,1.17,0.94,2.07,1.15c0.9,0.2,2.55,0.27,4.96,0.21c4.58-0.12,7.78,0.08,9.6,0.6
		c1.81,0.52,3.23,1.37,4.25,2.56c1.47,1.72,2.09,3.75,1.83,6.1c-0.25,2.35-1.34,4.35-3.26,6c-1.23,1.06-2.66,1.79-4.26,2.18
		S565.74,635.83,563.14,635.43z"/>
	<path class="st2" d="M559.19,644.13l-14.47,10.39l-3.54-4.94l9.46-6.79l-3.44-4.79l-9.46,6.79l-3.48-4.85l9.46-6.79l-5.01-6.97
		l-9.46,6.79l-3.56-4.95l14.47-10.39L559.19,644.13z"/>
	<path class="st2" d="M524.51,667.64c-4.03,2.25-8.31,2.71-12.84,1.41c-4.53-1.31-7.96-4.06-10.3-8.26
		c-2.32-4.16-2.84-8.48-1.58-12.95c1.26-4.47,3.93-7.85,8.02-10.12c4.28-2.38,8.66-2.88,13.14-1.5c4.48,1.38,7.85,4.11,10.11,8.18
		c1.52,2.73,2.25,5.6,2.21,8.62c-0.05,3.02-0.85,5.84-2.42,8.46S527.18,666.16,524.51,667.64z M521.62,662.3
		c2.64-1.47,4.35-3.62,5.12-6.46c0.78-2.83,0.38-5.67-1.2-8.5c-1.75-3.15-4.27-5.02-7.56-5.59c-2.56-0.46-4.97-0.05-7.25,1.22
		c-2.57,1.43-4.25,3.58-5.02,6.45s-0.41,5.67,1.11,8.39c1.51,2.71,3.7,4.5,6.57,5.37C516.26,664.04,519,663.75,521.62,662.3z"/>
	<path class="st2" d="M501.25,678.59l-5.78,2.32l-7.86-19.58c-0.68-1.69-1.3-2.82-1.88-3.4c-0.58-0.58-1.29-0.94-2.13-1.09
		c-0.85-0.15-1.75-0.03-2.71,0.36c-1.01,0.41-1.8,0.99-2.34,1.75s-0.82,1.56-0.81,2.39c0.01,0.83,0.42,2.26,1.23,4.29l7.57,18.86
		l-5.78,2.32l-7.25-18.05c-1.22-3.05-1.9-5.23-2.03-6.55c-0.13-1.32,0.07-2.72,0.59-4.21s1.31-2.75,2.37-3.78
		c1.05-1.04,2.41-1.89,4.09-2.56c2.2-0.88,4.31-1.15,6.34-0.79c2.03,0.36,3.7,1.15,5.01,2.39s2.69,3.66,4.14,7.27L501.25,678.59z"/>
	<path class="st2" d="M471.73,689.74l-5.95,1.78l-7.63-25.59l-8.67,2.59l-1.69-5.67l14.62-4.36L471.73,689.74z"/>
	<path class="st2" d="M421.18,701.93c-4.57,0.61-8.73-0.51-12.47-3.38c-3.74-2.87-5.93-6.69-6.56-11.45
		c-0.63-4.72,0.46-8.93,3.26-12.63c2.81-3.7,6.53-5.87,11.17-6.49c4.85-0.65,9.11,0.49,12.77,3.41s5.8,6.7,6.42,11.31
		c0.42,3.09,0.05,6.04-1.1,8.83c-1.15,2.79-2.93,5.13-5.34,6.99C426.91,700.39,424.2,701.53,421.18,701.93z M420.43,695.9
		c2.99-0.4,5.37-1.78,7.13-4.13s2.42-5.14,1.99-8.35c-0.48-3.58-2.14-6.23-4.99-7.97c-2.21-1.36-4.61-1.87-7.19-1.52
		c-2.92,0.39-5.26,1.78-7.03,4.17s-2.45,5.12-2.03,8.22c0.41,3.08,1.8,5.54,4.15,7.4C414.81,695.57,417.47,696.3,420.43,695.9z"/>
	<path class="st2" d="M395.63,703.53l-7.36,0.12c-4.74,0.08-8.27-0.45-10.6-1.59s-4.25-3.02-5.79-5.64
		c-1.54-2.62-2.33-5.7-2.39-9.23c-0.04-2.51,0.34-4.83,1.14-6.95c0.8-2.12,1.92-3.89,3.37-5.3c1.45-1.41,3.02-2.4,4.73-2.96
		c1.71-0.56,4.67-0.88,8.89-0.94l7.47-0.12L395.63,703.53z M389.36,697.64l-0.33-20.58l-2.88,0.05c-2.84,0.05-4.89,0.4-6.16,1.08
		c-1.27,0.67-2.3,1.78-3.08,3.34c-0.79,1.55-1.16,3.45-1.13,5.7c0.06,3.46,1.07,6.13,3.04,8.01c1.77,1.69,4.59,2.5,8.45,2.44
		L389.36,697.64z"/>
	<path class="st2" d="M360.88,703.11l-17.72-1.74l0.59-6.05l11.59,1.14l0.58-5.87l-11.59-1.14l0.58-5.94l11.59,1.14l0.84-8.54
		l-11.59-1.14l0.6-6.07l17.72,1.74L360.88,703.11z"/>
	<path class="st2" d="M332.51,691.11l5.71,1.09c-0.51,2.8-1.91,4.93-4.2,6.38c-2.3,1.45-5.03,1.88-8.21,1.27
		c-2.05-0.39-3.72-1.1-5.01-2.13s-2.23-2.34-2.83-3.93c-0.59-1.59-0.74-3.17-0.44-4.74c0.16-0.86,0.46-1.67,0.9-2.45
		c0.43-0.78,1.03-1.54,1.8-2.3c0.45-0.44,1.45-1.14,3-2.09c1.48-0.91,2.43-1.56,2.84-1.97c0.41-0.41,0.8-0.99,1.17-1.73
		c0.37-0.74,0.71-1.8,1.04-3.19l5.9,1.13l-0.17,0.98c-0.37,1.95-1.07,3.65-2.08,5.1s-2.46,2.72-4.32,3.81
		c-1.8,1.06-2.91,1.81-3.32,2.25c-0.42,0.45-0.69,1.01-0.82,1.69c-0.18,0.93,0.06,1.79,0.71,2.59c0.65,0.79,1.63,1.32,2.94,1.57
		c1.34,0.26,2.51,0.07,3.52-0.55C331.62,693.28,332.25,692.35,332.51,691.11z M331.59,673.39c-1.06-0.2-1.89-0.74-2.5-1.61
		c-0.61-0.87-0.81-1.82-0.62-2.85c0.2-1.03,0.74-1.84,1.62-2.43c0.88-0.59,1.84-0.79,2.89-0.59c1.05,0.2,1.87,0.74,2.46,1.61
		c0.59,0.87,0.79,1.83,0.59,2.86s-0.73,1.84-1.59,2.43C333.57,673.39,332.62,673.59,331.59,673.39z"/>
	<path class="st2" d="M279.89,680.95l5.66-2.36c0.8,2.65,2,4.24,3.58,4.78c0.77,0.26,1.47,0.27,2.1,0.03
		c0.63-0.25,1.04-0.63,1.21-1.14c0.18-0.52,0.17-1.07-0.02-1.65c-0.27-0.78-1.25-2.59-2.96-5.44c-1.6-2.64-2.56-4.29-2.87-4.94
		c-0.78-1.61-1.23-3.05-1.35-4.32s0.04-2.55,0.48-3.85c0.86-2.53,2.45-4.33,4.77-5.38c2.31-1.05,4.88-1.1,7.7-0.14
		c2.2,0.75,3.93,1.94,5.19,3.58c1.26,1.63,2.08,3.8,2.46,6.51l-5.96,1.29c-0.55-3.24-1.8-5.18-3.73-5.84
		c-1.01-0.34-1.96-0.34-2.84,0.01c-0.89,0.35-1.46,0.92-1.73,1.68c-0.24,0.7-0.22,1.49,0.06,2.36s1.06,2.34,2.33,4.38
		c2.43,3.89,3.88,6.75,4.35,8.57c0.47,1.83,0.46,3.48-0.05,4.96c-0.73,2.14-2.17,3.7-4.33,4.67c-2.16,0.97-4.43,1.05-6.83,0.24
		c-1.54-0.53-2.89-1.38-4.04-2.57C281.93,685.21,280.87,683.39,279.89,680.95z"/>
	<path class="st2" d="M270.36,681.93l-16.28-7.22l2.46-5.55l10.64,4.72l2.39-5.39l-10.64-4.72l2.42-5.45l10.64,4.72l3.48-7.85
		l-10.64-4.72l2.47-5.58l16.28,7.22L270.36,681.93z"/>
	<path class="st2" d="M232.53,663.9c-3.98-2.35-6.54-5.8-7.71-10.37s-0.52-8.92,1.92-13.06c2.42-4.1,5.88-6.74,10.38-7.91
		s8.76-0.57,12.79,1.8c4.22,2.49,6.86,6.01,7.93,10.58c1.07,4.56,0.42,8.85-1.94,12.86c-1.58,2.69-3.69,4.77-6.32,6.26
		c-2.63,1.49-5.47,2.22-8.52,2.2C238,666.23,235.16,665.45,232.53,663.9z M235.68,658.7c2.6,1.53,5.32,1.92,8.16,1.16
		c2.84-0.76,5.08-2.54,6.73-5.33c1.83-3.11,2.17-6.22,1-9.35c-0.9-2.44-2.47-4.32-4.71-5.64c-2.54-1.5-5.24-1.85-8.1-1.07
		c-2.87,0.78-5.09,2.51-6.68,5.2c-1.58,2.67-2.01,5.47-1.31,8.38C231.46,654.96,233.1,657.18,235.68,658.7z"/>
	<path class="st2" d="M211.34,649.38l-4.93-3.81l12.9-16.69c1.11-1.44,1.77-2.55,1.98-3.34c0.21-0.79,0.16-1.59-0.14-2.39
		c-0.3-0.8-0.86-1.52-1.68-2.16c-0.87-0.67-1.76-1.05-2.7-1.13c-0.93-0.09-1.76,0.08-2.47,0.51c-0.71,0.43-1.74,1.51-3.08,3.24
		l-12.43,16.08l-4.93-3.81l11.9-15.39c2.01-2.6,3.55-4.29,4.62-5.07c1.07-0.78,2.38-1.32,3.93-1.62s3.03-0.26,4.46,0.12
		c1.42,0.38,2.85,1.12,4.28,2.23c1.87,1.45,3.17,3.14,3.89,5.07s0.88,3.77,0.48,5.53s-1.79,4.17-4.17,7.25L211.34,649.38z"/>
	<path class="st2" d="M186.8,629.59l-4.55-4.23l18.18-19.56l-6.63-6.16l4.03-4.34l11.18,10.39L186.8,629.59z"/>
	<path class="st2" d="M150.64,592.27c-2.86-3.63-4-7.78-3.43-12.46c0.57-4.68,2.74-8.5,6.52-11.48c3.74-2.95,7.92-4.15,12.54-3.62
		c4.62,0.53,8.37,2.64,11.27,6.31c3.03,3.85,4.22,8.09,3.56,12.73c-0.65,4.64-2.81,8.4-6.47,11.28c-2.45,1.93-5.17,3.11-8.16,3.55
		s-5.9,0.09-8.74-1.04C154.89,596.42,152.53,594.66,150.64,592.27z M155.46,588.56c1.87,2.37,4.26,3.72,7.19,4.03
		s5.66-0.53,8.2-2.53c2.83-2.23,4.27-5.02,4.32-8.35c0.04-2.6-0.74-4.92-2.35-6.97c-1.82-2.31-4.21-3.63-7.17-3.94
		c-2.96-0.31-5.66,0.5-8.11,2.43c-2.44,1.92-3.86,4.37-4.26,7.34S153.61,586.21,155.46,588.56z"/>
	<path class="st2" d="M135.91,570.78l-3.76-6.32c-2.43-4.07-3.72-7.4-3.89-9.98c-0.17-2.58,0.5-5.19,2.01-7.83
		c1.51-2.64,3.78-4.86,6.82-6.67c2.16-1.29,4.36-2.11,6.6-2.47c2.24-0.36,4.33-0.26,6.28,0.29s3.59,1.43,4.92,2.63
		s3.08,3.62,5.24,7.25l3.82,6.42L135.91,570.78z M137.91,562.42l17.68-10.53l-1.48-2.48c-1.45-2.44-2.79-4.04-4-4.81
		c-1.21-0.77-2.69-1.1-4.43-1.02c-1.74,0.09-3.57,0.71-5.51,1.86c-2.98,1.77-4.79,3.98-5.44,6.62c-0.58,2.38,0.11,5.22,2.09,8.54
		L137.91,562.42z"/>
	<path class="st2" d="M118.96,540.88l-7.48-16.16l5.52-2.55l4.89,10.57l5.35-2.48l-4.89-10.57l5.41-2.51l4.89,10.57l7.79-3.6
		l-4.89-10.57l5.54-2.56l7.48,16.16L118.96,540.88z"/>
	<path class="st2" d="M114.94,510.36l1.95,5.48c-2.67,0.98-5.22,0.85-7.63-0.39c-2.42-1.24-4.17-3.39-5.25-6.44
		c-0.7-1.96-0.93-3.77-0.7-5.4c0.23-1.64,0.89-3.11,1.96-4.43c1.07-1.31,2.36-2.24,3.86-2.77c0.82-0.29,1.68-0.45,2.57-0.46
		s1.85,0.11,2.89,0.38c0.61,0.16,1.71,0.67,3.32,1.53c1.53,0.82,2.58,1.3,3.14,1.45c0.56,0.15,1.26,0.19,2.08,0.13
		c0.83-0.06,1.92-0.3,3.28-0.72l2.01,5.66l-0.93,0.35c-1.87,0.66-3.68,0.93-5.45,0.79s-3.59-0.74-5.48-1.8
		c-1.82-1.02-3.03-1.59-3.63-1.72c-0.6-0.13-1.22-0.08-1.88,0.15c-0.89,0.32-1.51,0.96-1.87,1.92c-0.35,0.97-0.31,2.08,0.14,3.33
		c0.46,1.28,1.21,2.2,2.25,2.75C112.62,510.7,113.74,510.77,114.94,510.36z M129.76,500.59c-0.36-1.02-0.32-2.01,0.12-2.97
		c0.44-0.96,1.16-1.62,2.15-1.98c0.99-0.35,1.96-0.3,2.92,0.16c0.96,0.46,1.61,1.19,1.97,2.19c0.36,1,0.31,1.98-0.15,2.94
		c-0.45,0.95-1.17,1.61-2.16,1.96c-0.99,0.35-1.96,0.3-2.9-0.15C130.76,502.3,130.11,501.58,129.76,500.59z"/>
	<path class="st2" d="M97.07,459.84l4.9,3.69c-1.88,2.03-2.65,3.87-2.31,5.51c0.16,0.8,0.51,1.41,1.04,1.83s1.06,0.58,1.6,0.47
		c0.54-0.11,1.01-0.39,1.41-0.86c0.54-0.62,1.6-2.39,3.19-5.3c1.47-2.72,2.4-4.38,2.81-4.97c0.99-1.49,2.01-2.61,3.04-3.35
		s2.22-1.26,3.57-1.54c2.62-0.54,4.97-0.07,7.05,1.39s3.42,3.65,4.01,6.57c0.47,2.28,0.31,4.37-0.46,6.29
		c-0.77,1.92-2.23,3.72-4.37,5.42l-4.13-4.48c2.51-2.12,3.56-4.17,3.15-6.18c-0.21-1.04-0.7-1.86-1.45-2.45
		c-0.75-0.59-1.53-0.8-2.33-0.63c-0.72,0.15-1.39,0.56-2.01,1.25c-0.61,0.68-1.48,2.09-2.6,4.23c-2.13,4.06-3.86,6.76-5.19,8.09
		c-1.33,1.33-2.77,2.15-4.31,2.47c-2.22,0.45-4.29,0-6.22-1.37c-1.93-1.37-3.15-3.29-3.66-5.77c-0.33-1.6-0.27-3.19,0.18-4.78
		C94.43,463.76,95.46,461.92,97.07,459.84z"/>
	<path class="st2" d="M91.4,452.11l-2.02-17.7l6.04-0.69l1.32,11.57l5.86-0.67l-1.32-11.57l5.93-0.68l1.32,11.57l8.53-0.97
		l-1.32-11.57l6.06-0.69l2.02,17.7L91.4,452.11z"/>
	<path class="st2" d="M87.77,409.85c0.07-4.62,1.81-8.56,5.2-11.82c3.4-3.27,7.5-4.86,12.3-4.78c4.76,0.08,8.76,1.78,12.01,5.11
		c3.24,3.33,4.83,7.33,4.75,12.01c-0.08,4.9-1.84,8.94-5.28,12.12c-3.44,3.18-7.49,4.74-12.14,4.66c-3.12-0.05-5.98-0.85-8.57-2.4
		c-2.59-1.55-4.63-3.66-6.12-6.33C88.44,415.75,87.72,412.9,87.77,409.85z M93.84,410.02c-0.05,3.02,0.96,5.57,3.03,7.67
		s4.72,3.16,7.96,3.21c3.61,0.06,6.48-1.19,8.62-3.75c1.67-1.99,2.53-4.28,2.57-6.89c0.05-2.95-0.98-5.47-3.07-7.58
		s-4.7-3.19-7.82-3.24c-3.1-0.05-5.75,0.95-7.93,3C95.01,404.51,93.89,407.03,93.84,410.02z"/>
	<path class="st2" d="M89.49,384.81l0.77-6.18l20.93,2.62c1.8,0.23,3.1,0.23,3.89,0s1.45-0.67,1.99-1.34c0.54-0.67,0.87-1.52,1-2.55
		c0.14-1.09,0-2.05-0.4-2.9c-0.4-0.85-0.97-1.47-1.7-1.87c-0.73-0.4-2.18-0.73-4.35-1l-20.16-2.52l0.77-6.18l19.3,2.41
		c3.26,0.41,5.49,0.87,6.71,1.4c1.22,0.52,2.35,1.38,3.39,2.56c1.04,1.18,1.77,2.48,2.16,3.9c0.4,1.42,0.48,3.03,0.26,4.82
		c-0.29,2.35-1.09,4.32-2.38,5.93s-2.8,2.68-4.52,3.22c-1.71,0.55-4.5,0.58-8.36,0.1L89.49,384.81z"/>
	<path class="st2" d="M94.05,353.57l1.33-6.07l26.08,5.72l1.94-8.84l5.78,1.27l-3.27,14.9L94.05,353.57z"/>
	<path class="st2" d="M107.88,303.44c1.68-4.3,4.68-7.39,9-9.26c4.32-1.88,8.72-1.94,13.2-0.19c4.43,1.73,7.59,4.73,9.47,8.98
		c1.88,4.25,1.96,8.56,0.26,12.91c-1.78,4.56-4.84,7.73-9.18,9.52c-4.33,1.78-8.67,1.83-13.01,0.13c-2.91-1.14-5.3-2.88-7.19-5.24
		c-1.89-2.36-3.06-5.05-3.53-8.06C106.45,309.21,106.77,306.28,107.88,303.44z M113.51,305.72c-1.1,2.81-1.05,5.56,0.16,8.24
		c1.21,2.68,3.32,4.61,6.33,5.79c3.36,1.31,6.49,1.15,9.39-0.5c2.26-1.28,3.87-3.13,4.81-5.55c1.07-2.74,0.99-5.47-0.23-8.17
		c-1.23-2.71-3.3-4.63-6.2-5.76c-2.89-1.13-5.72-1.12-8.48,0.04C116.53,300.96,114.6,302.93,113.51,305.72z"/>
	<path class="st2" d="M118.97,279.84l3.55-6.44c2.29-4.15,4.5-6.96,6.65-8.41c2.14-1.45,4.73-2.19,7.77-2.22
		c3.04-0.03,6.1,0.81,9.2,2.51c2.2,1.21,4.02,2.69,5.47,4.44c1.44,1.75,2.42,3.6,2.92,5.56c0.51,1.96,0.58,3.82,0.22,5.57
		c-0.36,1.76-1.56,4.49-3.6,8.19l-3.6,6.54L118.97,279.84z M127.19,277.33l18.03,9.93l1.39-2.53c1.37-2.49,2.08-4.45,2.13-5.88
		c0.05-1.43-0.41-2.88-1.36-4.33c-0.96-1.46-2.42-2.73-4.39-3.81c-3.03-1.67-5.85-2.12-8.46-1.35c-2.35,0.7-4.45,2.74-6.31,6.12
		L127.19,277.33z"/>
	<path class="st2" d="M136.2,250.1l10.16-14.63l4.99,3.47l-6.64,9.56l4.85,3.36l6.64-9.56l4.9,3.4l-6.64,9.56l7.05,4.9l6.64-9.56
		l5.01,3.48l-10.16,14.63L136.2,250.1z"/>
	<path class="st2" d="M160.48,231.19l-3.73,4.45c-2.2-1.81-3.38-4.07-3.53-6.78c-0.15-2.71,0.81-5.31,2.9-7.79
		c1.34-1.6,2.77-2.71,4.3-3.34s3.13-0.81,4.81-0.56c1.68,0.26,3.12,0.9,4.35,1.93c0.67,0.56,1.23,1.22,1.7,1.98
		c0.47,0.76,0.84,1.65,1.13,2.69c0.17,0.6,0.29,1.82,0.37,3.64c0.07,1.74,0.18,2.88,0.34,3.44c0.16,0.56,0.47,1.18,0.94,1.86
		s1.23,1.5,2.28,2.46l-3.86,4.6l-0.78-0.62c-1.52-1.27-2.66-2.71-3.44-4.3c-0.77-1.6-1.18-3.47-1.23-5.63
		c-0.05-2.08-0.16-3.42-0.35-4c-0.19-0.58-0.55-1.1-1.08-1.54c-0.73-0.61-1.59-0.82-2.61-0.64c-1.01,0.18-1.95,0.78-2.8,1.8
		c-0.87,1.04-1.28,2.16-1.23,3.34C159.02,229.36,159.52,230.36,160.48,231.19z M176.41,239.02c0.69-0.83,1.57-1.29,2.62-1.4
		c1.06-0.11,1.99,0.17,2.79,0.85s1.25,1.54,1.34,2.6c0.09,1.06-0.21,1.99-0.9,2.81c-0.68,0.82-1.55,1.27-2.6,1.36
		c-1.05,0.09-1.98-0.2-2.78-0.87c-0.8-0.67-1.25-1.53-1.34-2.57C175.44,240.75,175.73,239.82,176.41,239.02z"/>
	<path class="st2" d="M194.92,190.18l-0.69,6.09c-2.71-0.58-4.68-0.32-5.92,0.81c-0.6,0.55-0.95,1.15-1.04,1.83s0.05,1.21,0.41,1.62
		s0.85,0.67,1.45,0.78c0.81,0.15,2.87,0.16,6.19,0.06c3.09-0.12,4.99-0.16,5.71-0.11c1.79,0.1,3.26,0.4,4.43,0.91
		c1.17,0.51,2.21,1.27,3.14,2.29c1.79,1.99,2.59,4.25,2.39,6.78c-0.2,2.54-1.41,4.8-3.61,6.79c-1.72,1.56-3.61,2.49-5.65,2.8
		c-2.04,0.31-4.34-0.03-6.89-1.01l1.76-5.84c3.1,1.09,5.4,0.94,6.92-0.43c0.79-0.71,1.25-1.55,1.37-2.49s-0.09-1.72-0.63-2.33
		c-0.5-0.55-1.19-0.91-2.1-1.09s-2.56-0.21-4.96-0.09c-4.58,0.23-7.78,0.11-9.61-0.36c-1.83-0.47-3.26-1.29-4.31-2.45
		c-1.52-1.68-2.18-3.7-1.98-6.05c0.19-2.36,1.23-4.38,3.11-6.08c1.21-1.09,2.61-1.85,4.21-2.28
		C190.21,189.9,192.31,189.85,194.92,190.18z"/>
	<path class="st2" d="M198.68,181.38l14.21-10.74l3.67,4.85l-9.29,7.02l3.56,4.71l9.29-7.02l3.6,4.76l-9.29,7.02l5.18,6.85
		l9.29-7.02l3.68,4.87l-14.21,10.74L198.68,181.38z"/>
	<path class="st2" d="M232.77,157.01c3.98-2.34,8.24-2.92,12.8-1.73c4.56,1.19,8.06,3.86,10.5,8c2.42,4.1,3.05,8.41,1.9,12.91
		s-3.74,7.94-7.77,10.32c-4.22,2.49-8.58,3.09-13.09,1.82s-7.95-3.92-10.31-7.93c-1.58-2.69-2.39-5.54-2.42-8.56
		s0.71-5.86,2.21-8.52C228.08,160.66,230.15,158.56,232.77,157.01z M235.8,162.28c-2.6,1.53-4.26,3.73-4.96,6.58
		c-0.71,2.85-0.24,5.67,1.41,8.46c1.83,3.11,4.4,4.91,7.69,5.4c2.57,0.39,4.97-0.07,7.22-1.4c2.54-1.5,4.16-3.69,4.86-6.57
		c0.7-2.89,0.27-5.67-1.32-8.36c-1.58-2.68-3.81-4.41-6.7-5.2C241.11,160.4,238.38,160.77,235.8,162.28z"/>
	<path class="st2" d="M255.72,145.51l5.72-2.47l8.35,19.38c0.72,1.67,1.37,2.79,1.96,3.35c0.59,0.57,1.31,0.91,2.16,1.04
		c0.85,0.12,1.75-0.02,2.7-0.43c1-0.43,1.77-1.04,2.3-1.81c0.53-0.77,0.78-1.58,0.75-2.41c-0.03-0.83-0.48-2.25-1.34-4.26
		l-8.04-18.66l5.72-2.47l7.7,17.86c1.3,3.01,2.03,5.18,2.19,6.49c0.16,1.31,0,2.72-0.49,4.22c-0.49,1.5-1.25,2.78-2.27,3.84
		c-1.02,1.06-2.36,1.95-4.02,2.66c-2.17,0.94-4.28,1.25-6.32,0.95s-3.73-1.06-5.07-2.26c-1.34-1.2-2.78-3.59-4.32-7.16
		L255.72,145.51z"/>
	<path class="st2" d="M285,133.61l5.91-1.92l8.27,25.39l8.6-2.8l1.83,5.63l-14.51,4.72L285,133.61z"/>
</g>
<g>
	<path class="st3" d="M312.75,317.07c-1.38,0.66-2.34,2.09-2.34,3.74v38.64c-25.97-2.58-46.74-6.49-59.03-11.19v-10.33
		c0-2.24-1.84-4.08-4.08-4.08h-1.67c-2.24,0-4.08,1.84-4.08,4.08v4.94c-1.62-1.45-2.46-2.95-2.46-4.5
		C239.08,329.24,268.77,321.27,312.75,317.07z"/>
	<path class="st3" d="M384.21,313.9c27.67,0,53.55,1.3,75.56,3.57c-1.08,0.74-1.77,2.02-1.77,3.42v38.57
		c-19.63,1.97-42.26,3.15-66.41,3.37v-44.47c0-2.31-1.87-4.18-4.18-4.18h-1.48c-2.31,0-4.18,1.87-4.18,4.18v44.5
		c-22.04-0.07-42.9-0.96-61.49-2.51v-39.53c0-2.02-1.43-3.71-3.35-4.11C337.03,314.9,359.93,313.9,384.21,313.9z"/>
	<path class="st3" d="M466.9,318.27c22.58,2.63,40.51,6.35,51.26,10.7c-2.02,0.22-3.59,1.97-3.59,4.03v16.14
		c-10.77,3.69-26.91,6.86-46.74,9.25v-37.51C467.84,319.9,467.49,318.99,466.9,318.27z"/>
	<path class="st3" d="M529.33,338.37c0,2.19-1.72,4.33-4.92,6.35v-11.71c0-0.37-0.05-0.71-0.15-1.06
		C527.56,333.99,529.33,336.16,529.33,338.37z"/>
	<path class="st3" d="M546.55,333.84c0,6.05-8.07,11.71-22.14,16.58v-17.42c0-0.37-0.05-0.71-0.15-1.06
		c-1.65-1.03-3.69-2.02-6.08-2.98c-0.02-0.02-0.02,0-0.02,0c-2.02,0.22-3.59,1.97-3.59,4.03v20.42
		c-12.64,3.44-28.53,6.35-46.74,8.54v-41.08c0-0.98-0.34-1.89-0.93-2.61c-2.31-0.29-4.7-0.54-7.13-0.81
		c-1.08,0.74-1.77,2.02-1.77,3.42v42.16c-20.1,2.04-42.6,3.25-66.41,3.39v-48.09c0-2.31-1.87-4.18-4.18-4.18h-1.48
		c-2.31,0-4.18,1.87-4.18,4.18v48.09c-21.89-0.12-42.68-1.16-61.49-2.9v-42.73c0-2.02-1.43-3.71-3.35-4.11h-0.1
		c-1.38,0.1-2.73,0.25-4.06,0.37c-1.38,0.66-2.34,2.09-2.34,3.74v41.72c-24.11-2.68-44.45-6.57-59.03-11.29v-13.31
		c0-2.24-1.84-4.08-4.08-4.08h-1.67c-2.24,0-4.08,1.84-4.08,4.08v9.62c-9.47-4.16-14.76-8.81-14.76-13.7
		c0-18.03,71.58-32.62,159.88-32.62S546.55,315.81,546.55,333.84z"/>
	<g>
		<path class="st3" d="M231.79,437.15v-45.32c0,0,75.2-41.78,304.65-4.38v49.7C536.44,437.15,414.16,417.48,231.79,437.15z"/>
		<path class="st3" d="M231.78,437.15v12.05c0,0,37.27-4.5,91.9-6.72"/>
		<path class="st3" d="M536.27,437.15v14.71c-31.04-4.8-62.92-7.63-93.79-9.13"/>
		<line class="st3" x1="257.02" y1="383.45" x2="257.02" y2="437.15"/>
		<line class="st3" x1="286.44" y1="377.66" x2="286.44" y2="432.45"/>
		<line class="st3" x1="319.66" y1="373.88" x2="319.66" y2="431.73"/>
		<line class="st3" x1="357.74" y1="371.9" x2="357.74" y2="428.99"/>
		<line class="st3" x1="392.25" y1="372.13" x2="392.25" y2="428.43"/>
		<line class="st3" x1="431.88" y1="373.88" x2="431.88" y2="428.99"/>
		<line class="st3" x1="472.26" y1="377.66" x2="472.26" y2="431.73"/>
		<line class="st3" x1="508.4" y1="381.25" x2="508.04" y2="432.45"/>
	</g>
	<path class="st3" d="M445.7,451.91c0,4.06-1.67,7.75-4.33,10.43c-2.68,2.66-6.37,4.33-10.43,4.33h-95.93
		c-8.12,0-14.76-6.64-14.76-14.76c0-3.57,1.3-6.86,3.42-9.42c0.3-0.34,0.59-0.69,0.91-1.01c2.68-2.66,6.37-4.33,10.43-4.33h95.93
		c4.65,0,8.83,2.19,11.54,5.58C444.47,445.25,445.7,448.44,445.7,451.91z"/>
	<path class="st3" d="M333.78,523.24L333.78,523.24c-3.38,0-6.15-2.77-6.15-6.15v-44.28c0-3.38,2.77-6.15,6.15-6.15l0,0
		c3.38,0,6.15,2.77,6.15,6.15v44.28C339.93,520.48,337.16,523.24,333.78,523.24z"/>
	<path class="st3" d="M432.82,523.24h-1.3c-3.03,0-5.5-2.48-5.5-5.5v-45.57c0-3.03,2.48-5.5,5.5-5.5h1.3c3.03,0,5.5,2.48,5.5,5.5
		v45.57C438.32,520.77,435.85,523.24,432.82,523.24z"/>
	<path class="st3" d="M467.84,320.88v50.52c0,2.34-1.92,4.26-4.26,4.26h-1.33c-2.34,0-4.26-1.92-4.26-4.26v-50.52
		c0-1.4,0.69-2.68,1.77-3.42c2.44,0.27,4.82,0.52,7.13,0.81C467.49,318.99,467.84,319.9,467.84,320.88z"/>
	<path class="st3" d="M466.9,318.27c-2.31-0.29-4.7-0.54-7.13-0.81c0.69-0.54,1.55-0.84,2.48-0.84h1.33
		C464.94,316.63,466.17,317.27,466.9,318.27z"/>
	<path class="st3" d="M320.25,320.81v48.21c0,2.31-1.87,4.18-4.18,4.18h-1.48c-2.31,0-4.18-1.87-4.18-4.18v-48.21
		c0-1.65,0.96-3.07,2.34-3.74c1.33-0.12,2.68-0.27,4.06-0.37h0.1C318.83,317.09,320.25,318.79,320.25,320.81z"/>
	<path class="st3" d="M316.81,316.7c-1.38,0.1-2.73,0.25-4.06,0.37c0.57-0.29,1.18-0.44,1.84-0.44h1.48
		C316.32,316.63,316.59,316.65,316.81,316.7z"/>
	<path class="st3" d="M391.59,318.35v48.21c0,2.31-1.87,4.18-4.18,4.18h-1.48c-2.31,0-4.18-1.87-4.18-4.18v-48.21
		c0-2.31,1.87-4.18,4.18-4.18h1.48C389.72,314.17,391.59,316.04,391.59,318.35z"/>
	<path class="st3" d="M524.41,333.01v45.95c0,2.24-1.84,4.08-4.08,4.08h-1.67c-2.24,0-4.08-1.84-4.08-4.08v-45.95
		c0-2.07,1.57-3.81,3.59-4.03c0,0,0-0.02,0.02,0c2.39,0.96,4.43,1.94,6.08,2.98C524.36,332.29,524.41,332.64,524.41,333.01z"/>
	<path class="st3" d="M524.26,331.95c-1.65-1.03-3.69-2.02-6.08-2.98c0.15-0.05,0.3-0.05,0.47-0.05h1.67
		C522.2,328.92,523.8,330.23,524.26,331.95z"/>
	<path class="st3" d="M251.38,337.93v45.95c0,2.24-1.84,4.08-4.08,4.08h-1.67c-2.24,0-4.08-1.84-4.08-4.08v-45.95
		c0-2.24,1.84-4.08,4.08-4.08h1.67C249.54,333.84,251.38,335.69,251.38,337.93z"/>
	<path class="st3" d="M231.79,416.85c0,0,112.52-40.4,304.65-2.67"/>
	<line class="st3" x1="231.7" y1="449.45" x2="231.7" y2="523.24"/>
	<line class="st3" x1="280.9" y1="444.53" x2="280.9" y2="523.24"/>
	<line class="st3" x1="485.06" y1="444.53" x2="485.06" y2="523.24"/>
	<line class="st3" x1="536.71" y1="454.37" x2="536.71" y2="525.7"/>
	<line class="st3" x1="231.7" y1="523.24" x2="536.71" y2="523.24"/>
</g>
<path class="st4" d="M521.01,292.99c-12.9,11.7-36.69,6.5-36.69,6.5s-2.87-24.18,10.03-35.89c12.9-11.7,36.69-6.5,36.69-6.5
	S533.91,281.29,521.01,292.99z"/>
<path class="st4" d="M478.09,255.81c8.52,10.88,3.88,28.74,3.88,28.74s-18.45,0.21-26.96-10.67c-8.52-10.88-3.88-28.74-3.88-28.74
	S469.58,244.93,478.09,255.81z"/>
</svg>
