<?xml version="1.0" encoding="utf-8"?>
<!-- Generator: Adobe Illustrator 27.4.0, SVG Export Plug-In . SVG Version: 6.00 Build 0)  -->
<svg version="1.1" id="레이어_1" xmlns="http://www.w3.org/2000/svg" xmlns:xlink="http://www.w3.org/1999/xlink" x="0px"
	 y="0px" viewBox="0 0 762.52 822.05" style="enable-background:new 0 0 762.52 822.05;" xml:space="preserve">
<style type="text/css">
	.st0{fill:none;stroke:#463C33;stroke-width:3;stroke-miterlimit:10;}
	.st1{fill:none;stroke:#463C33;stroke-width:3;stroke-linecap:round;stroke-linejoin:round;stroke-dasharray:3.0043,6.0085;}
	.st2{fill:none;}
	.st3{fill:none;stroke:#463C33;stroke-width:4;stroke-linejoin:round;stroke-miterlimit:10;}
	.st4{fill:#ABB868;}
</style>
<g>
	<g>
		<circle class="st0" cx="381.26" cy="411.02" r="319.15"/>
		<circle class="st0" cx="381.26" cy="411.02" r="249.82"/>
		<circle class="st0" cx="381.26" cy="411.02" r="224.72"/>
		<g>
			<circle class="st1" cx="381.26" cy="411.02" r="236.67"/>
		</g>
	</g>
	<path id="SVGID_x5F_1_x5F_" class="st2" d="M642.36,410.53c0,143.91-116.67,260.58-260.58,260.58S121.21,554.44,121.21,410.53
		s116.67-260.58,260.58-260.58S642.36,266.61,642.36,410.53z"/>
	<text>	<textPath  xlink:href="#SVGID_x5F_1_x5F_" startOffset="96.289%">
<tspan  style="fill:#463C33; font-family:'CenturyGothic-Bold'; font-size:45.422px;">ODE? SEOUL ODE? SEOUL ODE? SEOUL ODE? SEOUL ODE? SEOUL ODE? SEOUL</tspan>	</textPath>
</text>
	<g>
		<path class="st3" d="M312.75,317.07c-1.38,0.66-2.34,2.09-2.34,3.74v38.64c-25.97-2.58-46.74-6.49-59.03-11.19v-10.33
			c0-2.24-1.84-4.08-4.08-4.08h-1.67c-2.24,0-4.08,1.84-4.08,4.08v4.94c-1.62-1.45-2.46-2.95-2.46-4.5
			C239.08,329.24,268.77,321.27,312.75,317.07z"/>
		<path class="st3" d="M384.21,313.9c27.67,0,53.55,1.3,75.56,3.57c-1.08,0.74-1.77,2.02-1.77,3.42v38.57
			c-19.63,1.97-42.26,3.15-66.41,3.37v-44.47c0-2.31-1.87-4.18-4.18-4.18h-1.48c-2.31,0-4.18,1.87-4.18,4.18v44.5
			c-22.04-0.07-42.9-0.96-61.49-2.51v-39.53c0-2.02-1.43-3.71-3.35-4.11C337.03,314.9,359.93,313.9,384.21,313.9z"/>
		<path class="st3" d="M466.9,318.27c22.58,2.63,40.51,6.35,51.26,10.7c-2.02,0.22-3.59,1.97-3.59,4.03v16.14
			c-10.77,3.69-26.91,6.86-46.74,9.25v-37.51C467.84,319.9,467.49,318.99,466.9,318.27z"/>
		<path class="st3" d="M529.33,338.37c0,2.19-1.72,4.33-4.92,6.35v-11.71c0-0.37-0.05-0.71-0.15-1.06
			C527.56,333.99,529.33,336.16,529.33,338.37z"/>
		<path class="st3" d="M546.55,333.84c0,6.05-8.07,11.71-22.14,16.58v-17.42c0-0.37-0.05-0.71-0.15-1.06
			c-1.65-1.03-3.69-2.02-6.08-2.98c-0.02-0.02-0.02,0-0.02,0c-2.02,0.22-3.59,1.97-3.59,4.03v20.42
			c-12.64,3.44-28.53,6.35-46.74,8.54v-41.08c0-0.98-0.34-1.89-0.93-2.61c-2.31-0.29-4.7-0.54-7.13-0.81
			c-1.08,0.74-1.77,2.02-1.77,3.42v42.16c-20.1,2.04-42.6,3.25-66.41,3.39v-48.09c0-2.31-1.87-4.18-4.18-4.18h-1.48
			c-2.31,0-4.18,1.87-4.18,4.18v48.09c-21.89-0.12-42.68-1.16-61.49-2.9v-42.73c0-2.02-1.43-3.71-3.35-4.11h-0.1
			c-1.38,0.1-2.73,0.25-4.06,0.37c-1.38,0.66-2.34,2.09-2.34,3.74v41.72c-24.11-2.68-44.45-6.57-59.03-11.29v-13.31
			c0-2.24-1.84-4.08-4.08-4.08h-1.67c-2.24,0-4.08,1.84-4.08,4.08v9.62c-9.47-4.16-14.76-8.81-14.76-13.7
			c0-18.03,71.58-32.62,159.88-32.62S546.55,315.81,546.55,333.84z"/>
		<g>
			<path class="st3" d="M231.79,437.15v-45.32c0,0,75.2-41.78,304.65-4.38v49.7C536.44,437.15,414.16,417.48,231.79,437.15z"/>
			<path class="st3" d="M231.78,437.15v12.05c0,0,37.27-4.5,91.9-6.72"/>
			<path class="st3" d="M536.27,437.15v14.71c-31.04-4.8-62.92-7.63-93.79-9.13"/>
			<line class="st3" x1="257.02" y1="383.45" x2="257.02" y2="437.15"/>
			<line class="st3" x1="286.44" y1="377.66" x2="286.44" y2="432.45"/>
			<line class="st3" x1="319.66" y1="373.88" x2="319.66" y2="431.73"/>
			<line class="st3" x1="357.74" y1="371.9" x2="357.74" y2="428.99"/>
			<line class="st3" x1="392.25" y1="372.13" x2="392.25" y2="428.43"/>
			<line class="st3" x1="431.88" y1="373.88" x2="431.88" y2="428.99"/>
			<line class="st3" x1="472.26" y1="377.66" x2="472.26" y2="431.73"/>
			<line class="st3" x1="508.4" y1="381.25" x2="508.04" y2="432.45"/>
		</g>
		<path class="st3" d="M445.7,451.91c0,4.06-1.67,7.75-4.33,10.43c-2.68,2.66-6.37,4.33-10.43,4.33h-95.93
			c-8.12,0-14.76-6.64-14.76-14.76c0-3.57,1.3-6.86,3.42-9.42c0.3-0.34,0.59-0.69,0.91-1.01c2.68-2.66,6.37-4.33,10.43-4.33h95.93
			c4.65,0,8.83,2.19,11.54,5.58C444.47,445.25,445.7,448.44,445.7,451.91z"/>
		<path class="st3" d="M333.78,523.24L333.78,523.24c-3.38,0-6.15-2.77-6.15-6.15v-44.28c0-3.38,2.77-6.15,6.15-6.15l0,0
			c3.38,0,6.15,2.77,6.15,6.15v44.28C339.93,520.48,337.16,523.24,333.78,523.24z"/>
		<path class="st3" d="M432.82,523.24h-1.3c-3.03,0-5.5-2.48-5.5-5.5v-45.57c0-3.03,2.48-5.5,5.5-5.5h1.3c3.03,0,5.5,2.48,5.5,5.5
			v45.57C438.32,520.77,435.85,523.24,432.82,523.24z"/>
		<path class="st3" d="M467.84,320.88v50.52c0,2.34-1.92,4.26-4.26,4.26h-1.33c-2.34,0-4.26-1.92-4.26-4.26v-50.52
			c0-1.4,0.69-2.68,1.77-3.42c2.44,0.27,4.82,0.52,7.13,0.81C467.49,318.99,467.84,319.9,467.84,320.88z"/>
		<path class="st3" d="M466.9,318.27c-2.31-0.29-4.7-0.54-7.13-0.81c0.69-0.54,1.55-0.84,2.48-0.84h1.33
			C464.94,316.63,466.17,317.27,466.9,318.27z"/>
		<path class="st3" d="M320.25,320.81v48.21c0,2.31-1.87,4.18-4.18,4.18h-1.48c-2.31,0-4.18-1.87-4.18-4.18v-48.21
			c0-1.65,0.96-3.07,2.34-3.74c1.33-0.12,2.68-0.27,4.06-0.37h0.1C318.83,317.09,320.25,318.79,320.25,320.81z"/>
		<path class="st3" d="M316.81,316.7c-1.38,0.1-2.73,0.25-4.06,0.37c0.57-0.29,1.18-0.44,1.84-0.44h1.48
			C316.32,316.63,316.59,316.65,316.81,316.7z"/>
		<path class="st3" d="M391.59,318.35v48.21c0,2.31-1.87,4.18-4.18,4.18h-1.48c-2.31,0-4.18-1.87-4.18-4.18v-48.21
			c0-2.31,1.87-4.18,4.18-4.18h1.48C389.72,314.17,391.59,316.04,391.59,318.35z"/>
		<path class="st3" d="M524.41,333.01v45.95c0,2.24-1.84,4.08-4.08,4.08h-1.67c-2.24,0-4.08-1.84-4.08-4.08v-45.95
			c0-2.07,1.57-3.81,3.59-4.03c0,0,0-0.02,0.02,0c2.39,0.96,4.43,1.94,6.08,2.98C524.36,332.29,524.41,332.64,524.41,333.01z"/>
		<path class="st3" d="M524.26,331.95c-1.65-1.03-3.69-2.02-6.08-2.98c0.15-0.05,0.3-0.05,0.47-0.05h1.67
			C522.2,328.92,523.8,330.23,524.26,331.95z"/>
		<path class="st3" d="M251.38,337.93v45.95c0,2.24-1.84,4.08-4.08,4.08h-1.67c-2.24,0-4.08-1.84-4.08-4.08v-45.95
			c0-2.24,1.84-4.08,4.08-4.08h1.67C249.54,333.84,251.38,335.69,251.38,337.93z"/>
		<path class="st3" d="M231.79,416.85c0,0,112.52-40.4,304.65-2.67"/>
		<line class="st3" x1="231.7" y1="449.45" x2="231.7" y2="523.24"/>
		<line class="st3" x1="280.9" y1="444.53" x2="280.9" y2="523.24"/>
		<line class="st3" x1="485.06" y1="444.53" x2="485.06" y2="523.24"/>
		<line class="st3" x1="536.71" y1="454.37" x2="536.71" y2="525.7"/>
		<line class="st3" x1="231.7" y1="523.24" x2="536.71" y2="523.24"/>
	</g>
	<path class="st4" d="M521.01,292.99c-12.9,11.7-36.69,6.5-36.69,6.5s-2.87-24.18,10.03-35.89c12.9-11.7,36.69-6.5,36.69-6.5
		S533.91,281.29,521.01,292.99z"/>
	<path class="st4" d="M478.09,255.81c8.52,10.88,3.88,28.74,3.88,28.74s-18.45,0.21-26.96-10.67c-8.52-10.88-3.88-28.74-3.88-28.74
		S469.58,244.93,478.09,255.81z"/>
</g>
</svg>
