<?xml version="1.0" encoding="utf-8"?>
<!-- Generator: Adobe Illustrator 27.4.0, SVG Export Plug-In . SVG Version: 6.00 Build 0)  -->
<svg version="1.1" id="레이어_1" xmlns="http://www.w3.org/2000/svg" xmlns:xlink="http://www.w3.org/1999/xlink" x="0px"
	 y="0px" viewBox="0 0 762.52 822.05" style="enable-background:new 0 0 762.52 822.05;" xml:space="preserve">
<style type="text/css">
	.st0{fill:none;stroke:#463C33;stroke-width:3;stroke-miterlimit:10;}
	.st1{fill:none;stroke:#463C33;stroke-width:3;stroke-linecap:round;stroke-linejoin:round;stroke-dasharray:3.0013,6.0026;}
	.st2{fill:none;}
	.st3{fill:none;stroke:#463C33;stroke-width:4;stroke-linecap:round;stroke-linejoin:round;stroke-miterlimit:10;}
	.st4{fill:#ABB868;}
</style>
<g>
	<g>
		<circle class="st0" cx="381.26" cy="411.02" r="318.83"/>
		<circle class="st0" cx="381.26" cy="411.02" r="249.57"/>
		<circle class="st0" cx="381.26" cy="411.02" r="224.5"/>
		<g>
			<circle class="st1" cx="381.26" cy="411.02" r="236.44"/>
		</g>
	</g>
	<path id="SVGID_x5F_1_x5F_" class="st2" d="M638.51,409.17c0,143.77-116.55,260.32-260.32,260.32S117.87,552.94,117.87,409.17
		s116.55-260.32,260.32-260.32S638.51,265.4,638.51,409.17z"/>
	<text>	<textPath  xlink:href="#SVGID_x5F_1_x5F_" startOffset="96.289%">
<tspan  style="fill:#463C33; font-family:'CenturyGothic-Bold'; font-size:45.3767px;">ODE? SEOUL ODE? SEOUL ODE? SEOUL ODE? SEOUL ODE? SEOUL ODE? SEOUL</tspan>	</textPath>
</text>
	<g>
		<g>
			<g>
				<path class="st3" d="M273.19,542.12c-10.94-61.62-8.76-87.99,8.76-121.84"/>
				<path class="st3" d="M304.12,545.58c-21.84-44.38-32.7-75-13.41-120.79"/>
				<path class="st3" d="M278.33,417.44c-5.47,2.91-11.85,3.98-17.71,2.26c-5.87-1.72-11.1-6.39-13.27-12.65
					c-2.36-6.79-0.94-14.63,2.26-20.99c3.2-6.36,8-11.53,12.77-16.56c-9.79-8.87-14.48-24.74-9.65-37.65
					c4.83-12.92,19.81-20.56,31.28-14.64c2.16-9.6,6.45-18.6,12.39-26.01c4.05-5.05,9.24-9.54,15.32-10.24s12.9,3.72,13.53,10.42
					c0.41,4.31-1.69,8.49-1.65,12.82c6.65-4.15,14.15-6.65,21.77-7.23c2.54-0.2,5.17-0.17,7.51,0.95c2.99,1.42,5.12,4.45,6.63,7.64
					c7.31,15.42,2.24,34.93-7.39,48.71c7.2,2.03,10.7,11.1,11.59,19.23c0.87,7.97,0.15,16.44-3.63,23.3
					c-3.78,6.86-11.06,11.72-18.26,10.53c1.2,8.28-3.14,16.79-9.54,21.3s-14.48,5.44-21.99,4.1
					C303.3,431.49,296.25,428.06,278.33,417.44z"/>
				<path class="st3" d="M307.54,434.94c-3.36,4.61-5.77,10.07-6.99,15.83c-0.32,1.52-0.55,3.12-0.14,4.61
					c0.24,0.84,0.67,1.59,1.1,2.33c1.32,2.29,2.65,4.58,3.97,6.87c-5.65,5.95-8.85,14.63-8.58,23.24c0.06,1.93,0.35,4,1.59,5.36
					c1.56,1.72,4.06,1.72,6.24,1.41c3.64-0.53,7.22-1.63,10.58-3.27"/>
				<path class="st3" d="M316.99,490.22c-6.57,6.77-9.14,13.39-10.06,16.54c-3.08,10.54-3.68,32.66-3.08,42.12"/>
				<path class="st3" d="M330.13,494.73c-10.12,20.17-10.05,35.05-2.19,56.41"/>
				<path class="st3" d="M316.99,490.22c2.19,15.79,13.79,3.88,13.82,4.67c0.03,0.79,3.08,3.94,3.7,4.35
					c7.43,5.04,15.58,0.92,21.57-6.07c5.99-6.99,6.79-18.7,1.81-26.6c7.55-4.66,13.89-12.03,16.79-21.02s2.06-19.59-3-27.33
					c-5.06-7.74-14.49-12-22.83-9.47"/>
				<path class="st3" d="M368.29,460.35c4.04-2.82,8.62-4.71,13.35-5.5c2.66-0.44,5.56-0.49,7.84,1.07c2.88,1.97,4.04,6.07,3.88,9.8
					c-0.29,6.87-4.15,12.87-8.12,18.17c4.16,1.08,7.69,4.7,8.98,9.19c1.29,4.49,0.29,9.69-2.54,13.22
					c-2.34,2.92-5.82,4.26-9.12,5.62c-2.07,0.85-19.72,5.88-23.97,3.11"/>
				<path class="st3" d="M338.66,501.09c-0.49,2.86-0.69,5.85-0.06,8.68c0.63,2.83,2.18,5.51,4.51,6.88
					c4.33,2.55,9.59,0.02,13.95-2.49c-1.8,9.98-4.34,20.89-0.64,30.21"/>
				<path class="st3" d="M365.17,517.3c-1.22,13.25,3.82,21.79,10.75,32.7"/>
				<path class="st3" d="M433.06,336.79c-19.71-15.79-33.31,12.74-31.12,21.74c-9.05,2.72-18.63,8.83-20.31,19.01
					c-1.86,11.22,7.31,21.59,17.28,24.66c2.19,0.67,4.9,1.63,5.2,4.11c0.12,1-0.22,1.98-0.54,2.92c-2.73,7.89-4.83,17.12-1.05,24.47
					c2.49,4.85,7.2,7.93,12.1,9.32c4.89,1.39,19.96,2.25,25.01,2.07"/>
				<path class="st3" d="M453.05,271.24c-12.54,2.96-21.55,16.3-23.65,30.25c-2.1,13.96,1.57,28.26,6.98,41.08
					c0.52,1.24,1.08,2.58,0.84,3.93c-0.22,1.28-1.11,2.26-1.91,3.22c-5.18,6.17-8.4,14.31-8.99,22.69c-0.18,2.57-0.1,5.27,1.03,7.52
					c0.92,1.83,2.43,3.18,3.94,4.45c5.04,4.27,10.34,8.16,15.85,11.66c-5.49,7.09-7.82,17.02-6.12,26.15
					c1.69,9.13,7.37,17.26,14.94,21.4c-3.06,7.5-0.56,17.25,5.62,21.86c6.18,4.61,15.31,3.55,20.48-2.38"/>
				<path class="st3" d="M446.91,275.59c3.15-1.87,6.41-3.65,9.93-4.32s7.38-0.11,10.19,2.33c2.44,2.12,3.83,5.4,4.59,8.71
					c1,4.34,1.07,8.88,1.01,13.36c-0.07,5.51-0.32,11.03-1.57,16.16l0,0c12.12,0.01,22.57,11.37,25.63,24.3
					c3.07,12.94,0.01,26.81-5.29,38.84c14.79,5.72,22.1,25.42,19.82,42.52s-9.12,44.31-27.8,43.39"/>
				<path class="st3" d="M490,460.89c2.19,4.51,4.38,24.69,4.38,45.13c0,9.03-2.19,31.59-6.57,38.36"/>
				<path class="st3" d="M479.05,467.66c2.92,30.93,0.76,46.44-8.25,75.91"/>
				<path class="st3" d="M428.68,548.88c7.65-38.07,23.37-62.36,10.95-103.79c10.6,17.3,14.66-2.57,17.52,18.05
					c6.57,47.38,2.83,76.04,2.19,76.71"/>
				<path class="st3" d="M249.1,560.17c10.95,2.26,5.62-24.22,18.37-27.44c-2.15,7.99,6.59,10.16,1.34,16.16
					c11.05-4.34,8.69-5.79,17.47-14.37c1.37,7.71-2.14,16.18-8.33,20.07c8.98-1.04,17.46-6.48,22.71-14.58
					c1.09,5.56,3.6,10.77,7.18,14.86c-0.92-6.8,1.91-14.05,7.03-17.98c0.32,8.83,7.07,16.84,15.03,17.85
					c-0.53-6.32,2.91-12.81,8.17-15.39c2.6,5.75,4.88,7.79,3.01,11.8c7.95-0.42,12.84-1.64,15.13-10.05
					c-0.27,3.97,0.4,8.02,1.93,11.63c0.35,0.83,0.98,1.76,1.79,1.58c0.54-0.13,0.88-0.72,1.15-1.26c1.34-2.69,2.68-5.39,4.02-8.08
					c5.72,4.91,13.08,10.08,19.7,6.82c-3.09-4.41-4.42-10.28-3.58-15.78c3.73,8.66,12.59,14.29,21.26,13.49
					c-2.6-3.1-3.44-7.86-2.09-11.82c1.71,2.65,3.46,5.36,5.86,7.25c2.4,1.9,5.6,2.87,10.15,3.85c3.7-4.36,6.58-9.57,8.4-15.2
					c1.37,6.2,1.69,12.68,0.94,19.01c6.27-3.77,10.87-10.76,12.17-18.5c3.04,4.8,6.72,10.03,11.99,10.67
					c-0.15-4.75-0.29-9.5-0.44-14.25c4.73,9.17,13.68,15.52,23.2,16.49c-0.81-2.71-3.17-4.53-4.23-7.13
					c-1.05-2.61,0.8-6.79,3.16-5.62c0.76,0.38,1.24,1.21,1.73,1.96c3.33,5.18,8.82,8.6,14.56,9.07c1.83-4.06,4.25-7.8,7.14-11.03
					c0.79,4.84,2.04,9.6,3.74,14.15c5.42-1.84,6.66-9.5,8.79-15.3c3.2,3.03,3.51,13.63,2.19,18.05
					c7.23-4.35,17.12-14.35,19.36-23.08c-0.63,7.52-6.15,29.75,0.35,32.11"/>
				<path class="st3" d="M392.6,302.7"/>
				<path class="st3" d="M400.36,273.37"/>
				<path class="st3" d="M393.37,332.58"/>
			</g>
			<line class="st3" x1="251.29" y1="560.17" x2="529.53" y2="560.82"/>
		</g>
		<circle class="st3" cx="392.79" cy="278.38" r="13.67"/>
		<line class="st3" x1="363.19" y1="255.61" x2="372.3" y2="264.72"/>
		<line class="st3" x1="390.52" y1="241.94" x2="390.52" y2="255.61"/>
		<line class="st3" x1="395.07" y1="301.16" x2="397.35" y2="317.1"/>
		<line class="st3" x1="408.74" y1="262.44" x2="417.85" y2="253.33"/>
		<line class="st3" x1="408.74" y1="294.33" x2="420.12" y2="298.88"/>
		<line class="st3" x1="356.35" y1="282.94" x2="370.08" y2="281.08"/>
		<line class="st3" x1="379.13" y1="296.6" x2="370.02" y2="307.99"/>
		<line class="st3" x1="413.29" y1="276.1" x2="426.96" y2="273.83"/>
	</g>
	<path class="st4" d="M547.66,519.18c-13.24,5.23-30.1-4.15-30.1-4.15s4.61-17.88,17.85-23.11c13.24-5.24,30.1,4.15,30.1,4.15
		S560.91,513.95,547.66,519.18z"/>
	<path class="st4" d="M525.08,482.49c3.49,9.77-5.11,21.36-5.11,21.36s-14.27-4.26-17.77-14.04s5.11-21.36,5.11-21.36
		S521.59,472.71,525.08,482.49z"/>
</g>
</svg>
