<?xml version="1.0" encoding="utf-8"?>
<!-- Generator: Adobe Illustrator 27.4.0, SVG Export Plug-In . SVG Version: 6.00 Build 0)  -->
<svg version="1.1" id="레이어_1" xmlns="http://www.w3.org/2000/svg" xmlns:xlink="http://www.w3.org/1999/xlink" x="0px"
	 y="0px" viewBox="0 0 762.52 822.05" style="enable-background:new 0 0 762.52 822.05;" xml:space="preserve">
<style type="text/css">
	.st0{fill:none;stroke:#463C33;stroke-width:3.7343;stroke-miterlimit:10;}
	.st1{fill:none;stroke:#463C33;stroke-width:2.9231;stroke-miterlimit:10;}
	.st2{fill:none;stroke:#463C33;stroke-width:2.6294;stroke-miterlimit:10;}
	.st3{fill:none;stroke:#463C33;stroke-width:2.7692;stroke-linecap:round;stroke-linejoin:round;stroke-dasharray:3.009,6.0179;}
	.st4{fill:#463C33;}
	.st5{fill:none;stroke:#463C33;stroke-width:4;stroke-linejoin:round;stroke-miterlimit:10;}
	.st6{fill:#ABB868;}
</style>
<circle class="st0" cx="381.26" cy="411.02" r="319.65"/>
<circle class="st1" cx="381.26" cy="411.02" r="250.21"/>
<circle class="st2" cx="381.26" cy="411.02" r="225.07"/>
<g>
	<circle class="st3" cx="381.26" cy="411.02" r="237.04"/>
</g>
<g>
	<path class="st4" d="M349.21,118.82c4.6-0.5,8.73,0.73,12.4,3.7c3.67,2.97,5.77,6.84,6.29,11.63c0.52,4.74-0.68,8.93-3.58,12.57
		c-2.9,3.64-6.68,5.71-11.34,6.22c-4.88,0.53-9.11-0.71-12.71-3.73c-3.59-3.02-5.64-6.85-6.15-11.48c-0.34-3.11,0.1-6.04,1.32-8.81
		c1.22-2.77,3.06-5.06,5.52-6.87S346.17,119.15,349.21,118.82z M349.8,124.88c-3.01,0.33-5.42,1.65-7.24,3.96
		c-1.82,2.31-2.55,5.08-2.2,8.31c0.39,3.59,1.99,6.29,4.8,8.1c2.18,1.42,4.57,1.98,7.16,1.7c2.93-0.32,5.31-1.65,7.15-4
		s2.58-5.07,2.24-8.18c-0.34-3.09-1.66-5.6-3.97-7.51S352.78,124.55,349.8,124.88z"/>
	<path class="st4" d="M375.22,117.71l7.37,0.15c4.75,0.09,8.26,0.75,10.55,1.98s4.15,3.18,5.59,5.85c1.44,2.68,2.13,5.79,2.06,9.33
		c-0.05,2.52-0.51,4.82-1.39,6.92c-0.88,2.09-2.07,3.82-3.57,5.18s-3.11,2.29-4.84,2.79c-1.73,0.5-4.71,0.71-8.94,0.62l-7.48-0.15
		L375.22,117.71z M381.28,123.83l-0.41,20.61l2.89,0.06c2.84,0.06,4.91-0.23,6.21-0.85c1.29-0.63,2.36-1.7,3.21-3.23
		c0.84-1.52,1.29-3.41,1.33-5.67c0.07-3.47-0.85-6.18-2.75-8.13c-1.71-1.75-4.5-2.67-8.37-2.75L381.28,123.83z"/>
	<path class="st4" d="M409.59,119.12l17.7,2.18l-0.74,6.04l-11.57-1.42l-0.72,5.86l11.58,1.42l-0.73,5.93l-11.58-1.42l-1.05,8.53
		l11.58,1.42l-0.75,6.06l-17.7-2.18L409.59,119.12z"/>
	<path class="st4" d="M437.69,131.83l-5.69-1.24c0.58-2.79,2.03-4.89,4.37-6.29c2.33-1.4,5.09-1.75,8.26-1.06
		c2.04,0.44,3.7,1.2,4.96,2.26c1.27,1.06,2.18,2.4,2.73,4c0.55,1.61,0.66,3.19,0.32,4.75c-0.19,0.85-0.51,1.66-0.96,2.43
		c-0.45,0.76-1.07,1.52-1.85,2.26c-0.46,0.43-1.48,1.1-3.05,2.02c-1.51,0.87-2.47,1.5-2.89,1.91c-0.42,0.4-0.82,0.97-1.21,1.7
		c-0.39,0.73-0.76,1.79-1.12,3.17l-5.88-1.28l0.19-0.98c0.42-1.94,1.16-3.62,2.21-5.05c1.05-1.43,2.53-2.67,4.42-3.71
		c1.83-1.01,2.95-1.74,3.38-2.17c0.43-0.44,0.72-1,0.86-1.68c0.2-0.93-0.02-1.8-0.65-2.61c-0.63-0.81-1.6-1.36-2.91-1.64
		c-1.33-0.29-2.51-0.13-3.53,0.46C438.62,129.68,437.97,130.6,437.69,131.83z M438.17,149.6c1.06,0.23,1.88,0.79,2.47,1.67
		c0.59,0.89,0.77,1.84,0.55,2.87c-0.22,1.03-0.78,1.83-1.68,2.4c-0.9,0.57-1.87,0.74-2.91,0.52c-1.04-0.23-1.85-0.78-2.42-1.67
		c-0.57-0.89-0.75-1.85-0.52-2.88c0.22-1.03,0.77-1.82,1.66-2.39C436.18,149.54,437.14,149.37,438.17,149.6z"/>
	<path class="st4" d="M490.13,143.32l-5.73,2.22c-0.74-2.67-1.89-4.3-3.46-4.88c-0.77-0.28-1.47-0.31-2.11-0.08
		c-0.64,0.23-1.05,0.6-1.24,1.12c-0.19,0.51-0.2,1.06-0.02,1.65c0.25,0.79,1.19,2.63,2.82,5.52c1.54,2.68,2.46,4.36,2.75,5.02
		c0.74,1.63,1.16,3.08,1.25,4.36c0.09,1.27-0.1,2.56-0.58,3.85c-0.93,2.51-2.57,4.27-4.91,5.27c-2.34,1-4.91,0.98-7.71-0.05
		c-2.18-0.81-3.89-2.04-5.11-3.71c-1.22-1.67-1.99-3.86-2.3-6.58l6-1.15c0.47,3.25,1.67,5.23,3.59,5.94c1,0.37,1.95,0.39,2.85,0.06
		s1.49-0.88,1.77-1.64c0.26-0.69,0.25-1.48,0-2.37c-0.26-0.88-1-2.37-2.22-4.44c-2.33-3.96-3.71-6.85-4.14-8.69
		c-0.43-1.84-0.37-3.49,0.17-4.97c0.79-2.13,2.27-3.65,4.45-4.57c2.18-0.92,4.46-0.94,6.84-0.07c1.53,0.56,2.86,1.46,3.98,2.68
		C488.19,139,489.21,140.85,490.13,143.32z"/>
	<path class="st4" d="M499.7,142.58l16.12,7.64l-2.6,5.5l-10.54-4.99l-2.53,5.34l10.54,4.99l-2.56,5.4l-10.54-4.99l-3.68,7.77
		l10.54,4.99l-2.62,5.52l-16.12-7.64L499.7,142.58z"/>
	<path class="st4" d="M537.12,161.56c3.92,2.45,6.41,5.97,7.46,10.57c1.05,4.6,0.3,8.94-2.24,13.03c-2.52,4.05-6.05,6.6-10.58,7.67
		c-4.53,1.06-8.79,0.36-12.76-2.12c-4.16-2.6-6.72-6.19-7.68-10.79s-0.2-8.87,2.26-12.83c1.65-2.65,3.82-4.69,6.49-6.11
		c2.67-1.42,5.53-2.09,8.59-1.99C531.71,159.09,534.53,159.95,537.12,161.56z M533.85,166.69c-2.57-1.6-5.28-2.05-8.14-1.36
		c-2.86,0.69-5.15,2.42-6.87,5.17c-1.91,3.07-2.33,6.18-1.24,9.33c0.84,2.46,2.37,4.38,4.58,5.76c2.5,1.56,5.2,1.99,8.09,1.27
		s5.16-2.39,6.82-5.04c1.65-2.64,2.15-5.43,1.52-8.36C537.97,170.54,536.39,168.28,533.85,166.69z"/>
	<path class="st4" d="M557.97,176.62l4.84,3.94l-13.33,16.4c-1.15,1.41-1.84,2.51-2.07,3.3c-0.23,0.79-0.2,1.59,0.08,2.4
		s0.83,1.55,1.63,2.2c0.85,0.69,1.74,1.09,2.67,1.2c0.93,0.11,1.76-0.04,2.49-0.45s1.78-1.47,3.16-3.17l12.84-15.79l4.84,3.94
		l-12.29,15.12c-2.07,2.55-3.66,4.2-4.75,4.96s-2.41,1.26-3.97,1.52c-1.56,0.26-3.04,0.18-4.46-0.23c-1.42-0.42-2.83-1.2-4.23-2.33
		c-1.84-1.49-3.1-3.22-3.77-5.17c-0.67-1.95-0.79-3.8-0.34-5.55c0.45-1.75,1.9-4.13,4.35-7.15L557.97,176.62z"/>
	<path class="st4" d="M582.08,197.05l4.45,4.35l-18.68,19.14l6.48,6.33l-4.14,4.24l-10.93-10.68L582.08,197.05z"/>
	<path class="st4" d="M617.35,235.3c2.77,3.7,3.81,7.89,3.13,12.56c-0.69,4.67-2.96,8.45-6.81,11.33
		c-3.82,2.86-8.03,3.96-12.64,3.31c-4.61-0.65-8.32-2.85-11.12-6.6c-2.94-3.93-4.02-8.21-3.25-12.84s3.02-8.34,6.76-11.14
		c2.5-1.87,5.25-2.99,8.26-3.35c3-0.36,5.91,0.06,8.72,1.26C613.2,231.04,615.52,232.86,617.35,235.3z M612.44,238.9
		c-1.81-2.42-4.18-3.83-7.1-4.22s-5.68,0.39-8.27,2.33c-2.89,2.17-4.4,4.92-4.53,8.25c-0.11,2.6,0.62,4.94,2.18,7.03
		c1.77,2.36,4.13,3.73,7.08,4.12c2.95,0.38,5.68-0.36,8.18-2.23c2.49-1.86,3.97-4.28,4.44-7.24S614.23,241.29,612.44,238.9z"/>
	<path class="st4" d="M631.57,257.19l3.61,6.42c2.33,4.14,3.54,7.5,3.65,10.09s-0.63,5.18-2.21,7.79c-1.58,2.6-3.91,4.77-6.99,6.51
		c-2.19,1.23-4.42,2-6.67,2.31c-2.25,0.31-4.34,0.16-6.28-0.44c-1.94-0.6-3.56-1.52-4.86-2.75c-1.31-1.23-3-3.7-5.07-7.38
		l-3.67-6.52L631.57,257.19z M629.37,265.51l-17.97,10.1l1.42,2.52c1.39,2.48,2.69,4.12,3.89,4.91c1.2,0.8,2.67,1.17,4.41,1.13
		c1.74-0.05,3.6-0.62,5.56-1.73c3.02-1.7,4.89-3.86,5.61-6.49c0.64-2.37,0.02-5.23-1.88-8.6L629.37,265.51z"/>
	<path class="st4" d="M647.8,287.55l7.09,16.37l-5.58,2.42l-4.63-10.7l-5.42,2.35l4.63,10.7l-5.48,2.37l-4.63-10.7l-7.89,3.42
		l4.63,10.7l-5.61,2.43l-7.09-16.37L647.8,287.55z"/>
	<path class="st4" d="M635.99,327.61c0.34,1.03,0.27,2.02-0.19,2.97c-0.47,0.96-1.2,1.6-2.2,1.92c-1,0.33-1.97,0.25-2.92-0.24
		c-0.95-0.48-1.58-1.23-1.92-2.25s-0.26-1.99,0.22-2.94c0.48-0.94,1.22-1.58,2.21-1.91c1-0.33,1.97-0.25,2.9,0.22
		C635.03,325.88,635.66,326.62,635.99,327.61z M651.07,318.21l-1.81-5.53c2.7-0.92,5.25-0.72,7.63,0.58c2.39,1.31,4.09,3.5,5.1,6.58
		c0.65,1.98,0.84,3.79,0.56,5.43c-0.28,1.63-0.97,3.09-2.07,4.38c-1.11,1.29-2.42,2.18-3.94,2.68c-0.83,0.27-1.69,0.41-2.58,0.4
		c-0.89,0-1.85-0.16-2.88-0.46c-0.6-0.18-1.7-0.71-3.29-1.61c-1.51-0.86-2.55-1.37-3.11-1.53s-1.25-0.22-2.08-0.18
		c-0.83,0.04-1.93,0.25-3.3,0.64l-1.88-5.72l0.94-0.33c1.89-0.62,3.71-0.83,5.48-0.65c1.77,0.18,3.58,0.83,5.44,1.94
		c1.8,1.06,2.99,1.67,3.59,1.82c0.59,0.15,1.22,0.11,1.88-0.1c0.9-0.29,1.54-0.92,1.92-1.88c0.38-0.96,0.36-2.07-0.05-3.34
		c-0.42-1.29-1.15-2.23-2.19-2.81C653.4,317.93,652.28,317.83,651.07,318.21z"/>
	<path class="st4" d="M667.71,369.25l-4.81-3.82c1.93-1.99,2.75-3.81,2.45-5.46c-0.14-0.8-0.48-1.42-1-1.86s-1.05-0.6-1.59-0.51
		c-0.54,0.1-1.02,0.37-1.43,0.82c-0.55,0.61-1.66,2.35-3.33,5.23c-1.54,2.69-2.51,4.32-2.94,4.91c-1.03,1.47-2.07,2.56-3.12,3.28
		c-1.05,0.72-2.25,1.21-3.61,1.45c-2.64,0.47-4.98-0.05-7.03-1.57c-2.05-1.52-3.33-3.74-3.86-6.67c-0.41-2.29-0.21-4.39,0.61-6.29
		c0.82-1.9,2.32-3.67,4.51-5.31l4.03,4.59c-2.57,2.06-3.67,4.09-3.31,6.11c0.19,1.05,0.65,1.88,1.39,2.49s1.51,0.84,2.31,0.69
		c0.73-0.13,1.41-0.53,2.04-1.2c0.63-0.67,1.54-2.06,2.71-4.17c2.23-4.02,4.03-6.67,5.4-7.97c1.37-1.3,2.83-2.09,4.37-2.36
		c2.23-0.4,4.3,0.11,6.2,1.52c1.9,1.42,3.07,3.37,3.52,5.87c0.29,1.61,0.19,3.2-0.29,4.79C670.45,365.39,669.37,367.2,667.71,369.25
		z"/>
	<path class="st4" d="M673.19,377.12l1.58,17.77l-6.06,0.54l-1.04-11.62l-5.88,0.52l1.04,11.62l-5.95,0.53l-1.04-11.62l-8.56,0.76
		l1.04,11.62l-6.08,0.54l-1.58-17.77L673.19,377.12z"/>
	<path class="st4" d="M675.81,418.96c-0.11,4.62-1.88,8.55-5.31,11.8c-3.43,3.24-7.55,4.81-12.36,4.69
		c-4.77-0.12-8.76-1.86-11.98-5.22c-3.22-3.36-4.77-7.38-4.66-12.07c0.12-4.9,1.92-8.94,5.39-12.1c3.47-3.16,7.54-4.68,12.2-4.57
		c3.12,0.08,5.98,0.9,8.56,2.48c2.58,1.58,4.61,3.7,6.08,6.39C675.19,413.04,675.89,415.91,675.81,418.96z M669.73,418.75
		c0.07-3.02-0.92-5.59-2.97-7.7c-2.05-2.11-4.7-3.21-7.94-3.29c-3.61-0.09-6.5,1.14-8.67,3.68c-1.69,1.98-2.57,4.27-2.64,6.87
		c-0.07,2.95,0.93,5.49,3.01,7.61c2.08,2.13,4.68,3.23,7.81,3.31c3.11,0.08,5.77-0.9,7.97-2.94
		C668.52,424.25,669.66,421.74,669.73,418.75z"/>
	<path class="st4" d="M673.45,444.57l-0.93,6.17l-20.9-3.14c-1.8-0.27-3.1-0.3-3.89-0.1c-0.79,0.2-1.47,0.63-2.02,1.29
		c-0.55,0.66-0.91,1.5-1.06,2.52c-0.16,1.08-0.05,2.05,0.33,2.91c0.38,0.86,0.93,1.5,1.65,1.91c0.72,0.42,2.17,0.79,4.33,1.11
		l20.13,3.02l-0.93,6.17l-19.26-2.89c-3.25-0.49-5.48-1.01-6.68-1.57c-1.2-0.56-2.31-1.44-3.33-2.65s-1.71-2.53-2.07-3.96
		c-0.36-1.43-0.41-3.04-0.14-4.83c0.35-2.34,1.2-4.3,2.53-5.88c1.34-1.57,2.87-2.61,4.6-3.12s4.52-0.47,8.37,0.11L673.45,444.57z"/>
	<path class="st4" d="M668.11,475.74l-1.48,6.04l-25.97-6.38l-2.16,8.8l-5.76-1.42l3.65-14.84L668.11,475.74z"/>
	<path class="st4" d="M653.01,525.57c-1.79,4.26-4.87,7.28-9.25,9.05s-8.78,1.72-13.22-0.14c-4.4-1.85-7.48-4.92-9.25-9.23
		c-1.77-4.31-1.75-8.62,0.06-12.93c1.9-4.52,5.04-7.62,9.42-9.3c4.38-1.68,8.73-1.61,13.03,0.19c2.88,1.21,5.24,3.02,7.07,5.43
		c1.83,2.41,2.94,5.13,3.33,8.16S654.19,522.76,653.01,525.57z M647.42,523.16c1.17-2.79,1.19-5.54,0.04-8.25
		c-1.14-2.71-3.21-4.7-6.2-5.96c-3.33-1.4-6.47-1.31-9.41,0.27c-2.3,1.22-3.95,3.04-4.96,5.44c-1.14,2.72-1.13,5.45,0.03,8.19
		s3.18,4.71,6.06,5.92c2.87,1.21,5.7,1.26,8.5,0.17C644.29,527.84,646.27,525.92,647.42,523.16z"/>
	<path class="st4" d="M641.32,548.92l-3.71,6.36c-2.39,4.1-4.68,6.85-6.86,8.25c-2.18,1.4-4.79,2.08-7.83,2.03
		c-3.04-0.05-6.09-0.96-9.15-2.75c-2.17-1.27-3.96-2.8-5.36-4.58c-1.4-1.79-2.33-3.67-2.79-5.64s-0.49-3.83-0.08-5.59
		s1.67-4.45,3.81-8.11l3.77-6.46L641.32,548.92z M633.03,551.23l-17.8-10.39l-1.46,2.49c-1.43,2.46-2.19,4.4-2.27,5.84
		c-0.08,1.43,0.34,2.89,1.26,4.37c0.92,1.48,2.35,2.79,4.3,3.92c3,1.75,5.81,2.27,8.44,1.56c2.37-0.64,4.52-2.63,6.47-5.97
		L633.03,551.23z"/>
	<path class="st4" d="M623.33,578.28l-10.53,14.4l-4.91-3.59l6.89-9.41l-4.77-3.49l-6.89,9.41l-4.82-3.53l6.89-9.41l-6.94-5.08
		l-6.89,9.41l-4.93-3.61l10.53-14.4L623.33,578.28z"/>
	<path class="st4" d="M582.8,588.37c-0.71,0.81-1.6,1.26-2.66,1.34c-1.06,0.08-1.98-0.22-2.77-0.92c-0.79-0.7-1.21-1.57-1.27-2.63
		c-0.06-1.06,0.26-1.99,0.96-2.79s1.59-1.23,2.64-1.3c1.05-0.07,1.98,0.25,2.77,0.94c0.79,0.7,1.22,1.57,1.28,2.61
		C583.81,586.67,583.5,587.58,582.8,588.37z M598.55,596.6l3.85-4.37c2.16,1.86,3.28,4.16,3.36,6.88s-0.95,5.3-3.09,7.73
		c-1.38,1.57-2.84,2.64-4.39,3.24c-1.55,0.59-3.16,0.74-4.83,0.44c-1.67-0.3-3.11-0.98-4.31-2.04c-0.66-0.58-1.21-1.25-1.65-2.02
		c-0.45-0.77-0.8-1.68-1.07-2.72c-0.15-0.61-0.25-1.83-0.28-3.65c-0.03-1.74-0.11-2.89-0.26-3.45c-0.15-0.56-0.45-1.19-0.9-1.89
		c-0.45-0.7-1.19-1.54-2.22-2.52l3.98-4.52l0.76,0.64c1.49,1.31,2.6,2.78,3.34,4.39c0.74,1.62,1.1,3.51,1.09,5.67
		c0,2.09,0.08,3.43,0.25,4.01c0.17,0.59,0.52,1.11,1.04,1.57c0.71,0.63,1.58,0.86,2.59,0.7c1.02-0.16,1.97-0.74,2.85-1.74
		c0.9-1.02,1.34-2.13,1.31-3.31S599.49,597.45,598.55,596.6z"/>
	<path class="st4" d="M563.06,636.82l0.84-6.09c2.69,0.65,4.68,0.43,5.95-0.66c0.62-0.53,0.98-1.13,1.09-1.8
		c0.11-0.67-0.02-1.21-0.37-1.63s-0.83-0.69-1.44-0.82c-0.81-0.17-2.87-0.23-6.2-0.21c-3.09,0.04-5,0.03-5.72-0.03
		c-1.79-0.14-3.26-0.48-4.42-1.02s-2.18-1.33-3.08-2.37c-1.75-2.03-2.49-4.32-2.22-6.85c0.27-2.53,1.53-4.77,3.79-6.71
		c1.76-1.52,3.67-2.41,5.73-2.67s4.34,0.13,6.87,1.18l-1.91,5.8c-3.08-1.16-5.39-1.08-6.94,0.26c-0.81,0.7-1.29,1.52-1.43,2.46
		c-0.15,0.95,0.05,1.73,0.58,2.34c0.48,0.56,1.17,0.94,2.07,1.15c0.9,0.2,2.55,0.27,4.97,0.21c4.59-0.12,7.8,0.08,9.61,0.6
		c1.82,0.52,3.24,1.37,4.26,2.56c1.48,1.72,2.09,3.75,1.84,6.11s-1.34,4.36-3.26,6.01c-1.24,1.06-2.66,1.79-4.27,2.18
		C567.78,637.21,565.67,637.21,563.06,636.82z"/>
	<path class="st4" d="M559.08,645.54l-14.49,10.4l-3.55-4.94l9.47-6.8l-3.45-4.8l-9.47,6.8l-3.48-4.85l9.47-6.8l-5.01-6.98
		l-9.47,6.8l-3.56-4.96l14.49-10.4L559.08,645.54z"/>
	<path class="st4" d="M524.32,669.1c-4.04,2.25-8.33,2.72-12.86,1.41c-4.53-1.31-7.97-4.07-10.31-8.27
		c-2.32-4.17-2.84-8.49-1.58-12.97c1.26-4.48,3.94-7.86,8.03-10.14c4.29-2.38,8.67-2.88,13.16-1.5c4.48,1.39,7.86,4.12,10.13,8.19
		c1.52,2.73,2.25,5.61,2.21,8.63s-0.85,5.85-2.42,8.48C529.11,665.56,526.99,667.61,524.32,669.1z M521.42,663.75
		c2.64-1.47,4.35-3.62,5.13-6.46c0.78-2.84,0.38-5.68-1.2-8.51c-1.76-3.16-4.28-5.03-7.57-5.6c-2.56-0.46-4.98-0.05-7.26,1.22
		c-2.58,1.43-4.26,3.59-5.03,6.46c-0.78,2.87-0.41,5.67,1.11,8.4c1.51,2.72,3.71,4.51,6.58,5.38
		C516.06,665.5,518.81,665.2,521.42,663.75z"/>
	<path class="st4" d="M501.05,680.05l-5.79,2.33l-7.87-19.61c-0.68-1.69-1.31-2.82-1.88-3.41c-0.58-0.58-1.29-0.95-2.14-1.09
		c-0.85-0.15-1.75-0.02-2.72,0.36c-1.02,0.41-1.8,0.99-2.35,1.76c-0.55,0.76-0.82,1.56-0.81,2.39s0.42,2.27,1.24,4.3l7.58,18.89
		l-5.79,2.33l-7.26-18.08c-1.23-3.05-1.9-5.24-2.03-6.56c-0.13-1.32,0.07-2.72,0.59-4.21c0.53-1.49,1.32-2.75,2.37-3.79
		c1.05-1.04,2.42-1.89,4.09-2.56c2.2-0.88,4.32-1.15,6.35-0.79c2.03,0.36,3.71,1.15,5.02,2.39c1.31,1.24,2.69,3.66,4.14,7.28
		L501.05,680.05z"/>
	<path class="st4" d="M471.45,691.22l-5.96,1.78l-7.64-25.63l-8.68,2.59l-1.69-5.68l14.65-4.37L471.45,691.22z"/>
	<path class="st4" d="M420.84,703.42c-4.58,0.61-8.74-0.52-12.49-3.39c-3.74-2.87-5.93-6.7-6.57-11.47
		c-0.63-4.73,0.46-8.94,3.27-12.65c2.81-3.71,6.54-5.88,11.18-6.5c4.86-0.65,9.13,0.49,12.79,3.42c3.67,2.93,5.81,6.71,6.43,11.33
		c0.42,3.1,0.05,6.04-1.1,8.84s-2.93,5.13-5.35,7C426.59,701.88,423.87,703.02,420.84,703.42z M420.1,697.38
		c3-0.4,5.38-1.78,7.14-4.14s2.43-5.14,2-8.36c-0.48-3.58-2.15-6.24-5-7.98c-2.22-1.36-4.62-1.87-7.2-1.52
		c-2.92,0.39-5.27,1.78-7.05,4.17s-2.45,5.13-2.04,8.23c0.41,3.08,1.8,5.55,4.16,7.41S417.13,697.78,420.1,697.38z"/>
	<path class="st4" d="M395.28,705.01l-7.37,0.12c-4.75,0.08-8.29-0.45-10.61-1.59s-4.26-3.02-5.8-5.65s-2.33-5.71-2.39-9.25
		c-0.04-2.52,0.34-4.84,1.14-6.96c0.8-2.12,1.93-3.89,3.38-5.31c1.45-1.42,3.03-2.4,4.74-2.96c1.71-0.56,4.68-0.88,8.91-0.94
		l7.48-0.12L395.28,705.01z M389.01,699.12l-0.33-20.61l-2.89,0.05c-2.84,0.05-4.9,0.41-6.17,1.08c-1.27,0.67-2.3,1.79-3.09,3.34
		c-0.79,1.55-1.17,3.46-1.13,5.71c0.06,3.47,1.07,6.14,3.04,8.02c1.78,1.69,4.6,2.51,8.46,2.44L389.01,699.12z"/>
	<path class="st4" d="M360.43,704.59l-17.75-1.75l0.6-6.06l11.61,1.14l0.58-5.88l-11.61-1.14l0.58-5.95l11.61,1.14l0.84-8.56
		l-11.61-1.14l0.6-6.08l17.75,1.74L360.43,704.59z"/>
	<path class="st4" d="M332.04,692.58l5.72,1.1c-0.51,2.81-1.91,4.94-4.21,6.39c-2.3,1.46-5.04,1.88-8.23,1.27
		c-2.05-0.39-3.72-1.11-5.02-2.14s-2.24-2.34-2.83-3.94c-0.59-1.59-0.74-3.17-0.44-4.74c0.16-0.86,0.46-1.67,0.9-2.45
		c0.44-0.78,1.03-1.54,1.8-2.3c0.45-0.44,1.45-1.14,3-2.09c1.49-0.91,2.43-1.57,2.84-1.98c0.41-0.41,0.8-0.99,1.17-1.73
		s0.72-1.81,1.04-3.19l5.91,1.13l-0.17,0.99c-0.37,1.95-1.07,3.65-2.09,5.11c-1.02,1.46-2.46,2.73-4.33,3.82
		c-1.8,1.06-2.91,1.81-3.33,2.26c-0.42,0.45-0.69,1.01-0.82,1.7c-0.18,0.93,0.06,1.79,0.71,2.59c0.65,0.8,1.64,1.32,2.94,1.57
		c1.34,0.26,2.51,0.07,3.52-0.55C331.15,694.75,331.79,693.82,332.04,692.58z M331.12,674.83c-1.06-0.2-1.9-0.74-2.51-1.61
		c-0.61-0.87-0.82-1.82-0.62-2.86c0.2-1.03,0.74-1.85,1.62-2.44c0.88-0.59,1.85-0.79,2.89-0.59c1.05,0.2,1.87,0.74,2.46,1.61
		s0.79,1.83,0.59,2.86c-0.2,1.03-0.73,1.84-1.6,2.43S332.15,675.02,331.12,674.83z"/>
	<path class="st4" d="M279.34,682.39l5.67-2.36c0.8,2.65,2,4.25,3.58,4.79c0.77,0.26,1.47,0.27,2.11,0.03
		c0.63-0.25,1.04-0.63,1.21-1.15s0.17-1.07-0.02-1.65c-0.27-0.78-1.25-2.6-2.96-5.45c-1.6-2.65-2.56-4.29-2.87-4.95
		c-0.78-1.61-1.23-3.05-1.36-4.33c-0.12-1.27,0.04-2.56,0.48-3.86c0.87-2.54,2.46-4.33,4.78-5.39s4.89-1.1,7.71-0.14
		c2.2,0.75,3.94,1.95,5.2,3.58c1.27,1.64,2.09,3.81,2.46,6.52l-5.97,1.29c-0.55-3.24-1.8-5.19-3.74-5.85
		c-1.01-0.34-1.96-0.34-2.85,0.01c-0.89,0.35-1.46,0.92-1.73,1.69c-0.24,0.7-0.22,1.49,0.06,2.37c0.28,0.88,1.06,2.34,2.33,4.39
		c2.43,3.9,3.88,6.76,4.36,8.59s0.46,3.48-0.05,4.97c-0.73,2.14-2.18,3.71-4.34,4.68c-2.16,0.98-4.44,1.05-6.84,0.24
		c-1.54-0.53-2.89-1.39-4.04-2.58C281.39,686.66,280.32,684.84,279.34,682.39z"/>
	<path class="st4" d="M269.77,683.36l-16.3-7.24l2.47-5.56l10.66,4.73l2.4-5.4l-10.66-4.73l2.42-5.46l10.66,4.73l3.49-7.86
		l-10.66-4.73l2.48-5.58l16.3,7.24L269.77,683.36z"/>
	<path class="st4" d="M231.89,665.3c-3.98-2.35-6.55-5.81-7.72-10.38s-0.52-8.93,1.92-13.08c2.42-4.11,5.89-6.75,10.39-7.92
		c4.51-1.18,8.77-0.57,12.81,1.81c4.22,2.49,6.87,6.02,7.94,10.59c1.07,4.57,0.42,8.86-1.95,12.88c-1.59,2.69-3.7,4.78-6.33,6.27
		c-2.63,1.49-5.48,2.22-8.54,2.2C237.36,667.64,234.52,666.85,231.89,665.3z M235.04,660.09c2.6,1.54,5.33,1.92,8.17,1.16
		s5.09-2.54,6.74-5.33c1.84-3.11,2.17-6.23,1.01-9.36c-0.9-2.44-2.47-4.32-4.72-5.65c-2.54-1.5-5.25-1.86-8.12-1.08
		c-2.87,0.78-5.1,2.52-6.69,5.21c-1.58,2.68-2.02,5.48-1.31,8.39C230.82,656.35,232.46,658.57,235.04,660.09z"/>
	<path class="st4" d="M210.67,650.75l-4.94-3.82l12.93-16.72c1.11-1.44,1.77-2.56,1.98-3.35c0.21-0.79,0.16-1.59-0.14-2.4
		c-0.3-0.81-0.87-1.53-1.69-2.16c-0.87-0.67-1.77-1.05-2.7-1.14s-1.76,0.08-2.47,0.51c-0.72,0.43-1.74,1.51-3.08,3.24l-12.45,16.1
		l-4.94-3.82l11.92-15.41c2.01-2.6,3.55-4.29,4.62-5.07c1.07-0.78,2.38-1.32,3.93-1.62c1.55-0.3,3.04-0.26,4.47,0.13
		c1.43,0.38,2.85,1.13,4.28,2.23c1.87,1.45,3.17,3.14,3.9,5.08c0.72,1.93,0.88,3.78,0.48,5.54c-0.4,1.76-1.8,4.17-4.18,7.26
		L210.67,650.75z"/>
	<path class="st4" d="M186.09,630.93l-4.55-4.24l18.21-19.59l-6.64-6.17l4.04-4.34L208.34,607L186.09,630.93z"/>
	<path class="st4" d="M149.88,593.54c-2.86-3.63-4-7.79-3.43-12.48c0.57-4.68,2.75-8.51,6.53-11.49c3.75-2.95,7.93-4.16,12.56-3.62
		s8.39,2.64,11.28,6.32c3.03,3.85,4.22,8.11,3.56,12.75s-2.82,8.41-6.48,11.3c-2.46,1.93-5.18,3.12-8.17,3.55
		c-2.99,0.43-5.91,0.09-8.75-1.04C154.14,597.7,151.77,595.94,149.88,593.54z M154.71,589.82c1.87,2.38,4.27,3.72,7.2,4.04
		s5.66-0.53,8.21-2.53c2.84-2.24,4.28-5.02,4.33-8.36c0.04-2.6-0.74-4.93-2.35-6.98c-1.82-2.32-4.22-3.63-7.18-3.94
		c-2.96-0.31-5.67,0.5-8.12,2.43c-2.44,1.92-3.87,4.37-4.27,7.35C152.13,584.81,152.85,587.47,154.71,589.82z"/>
	<path class="st4" d="M135.14,572.02l-3.77-6.33c-2.43-4.08-3.73-7.41-3.9-10s0.5-5.2,2.02-7.84c1.51-2.64,3.79-4.87,6.83-6.68
		c2.16-1.29,4.37-2.11,6.61-2.47c2.24-0.36,4.34-0.26,6.29,0.29c1.95,0.55,3.59,1.43,4.93,2.63s3.09,3.62,5.25,7.26l3.83,6.43
		L135.14,572.02z M137.13,563.64l17.71-10.54l-1.48-2.48c-1.45-2.44-2.79-4.05-4-4.82c-1.22-0.77-2.69-1.11-4.44-1.02
		c-1.74,0.09-3.58,0.71-5.52,1.86c-2.98,1.77-4.8,3.98-5.45,6.63c-0.58,2.38,0.11,5.23,2.09,8.55L137.13,563.64z"/>
	<path class="st4" d="M118.16,542.06l-7.49-16.19l5.52-2.56l4.9,10.58l5.36-2.48l-4.9-10.58l5.42-2.51l4.9,10.58l7.8-3.61
		l-4.9-10.58l5.54-2.56l7.49,16.19L118.16,542.06z"/>
	<path class="st4" d="M114.14,511.49l1.95,5.48c-2.68,0.98-5.22,0.85-7.64-0.4c-2.42-1.25-4.17-3.4-5.26-6.45
		c-0.7-1.97-0.93-3.77-0.7-5.41s0.89-3.12,1.96-4.43c1.07-1.32,2.36-2.24,3.87-2.78c0.82-0.29,1.68-0.45,2.57-0.46
		s1.85,0.11,2.9,0.39c0.61,0.16,1.72,0.67,3.33,1.53c1.53,0.82,2.58,1.31,3.14,1.45c0.56,0.15,1.26,0.19,2.09,0.13
		c0.83-0.06,1.92-0.3,3.28-0.72l2.02,5.67l-0.93,0.36c-1.87,0.66-3.69,0.93-5.46,0.78c-1.77-0.14-3.6-0.74-5.48-1.8
		c-1.82-1.02-3.03-1.59-3.63-1.73c-0.6-0.13-1.22-0.08-1.88,0.15c-0.89,0.32-1.52,0.96-1.87,1.93c-0.36,0.97-0.31,2.08,0.14,3.33
		c0.46,1.28,1.21,2.2,2.26,2.76C111.82,511.83,112.94,511.9,114.14,511.49z M128.99,501.72c-0.36-1.02-0.32-2.01,0.12-2.98
		c0.44-0.97,1.16-1.62,2.15-1.98c0.99-0.35,1.97-0.3,2.92,0.16c0.96,0.46,1.61,1.19,1.97,2.2s0.31,1.98-0.15,2.94
		s-1.18,1.61-2.17,1.96c-0.99,0.35-1.96,0.3-2.9-0.15C129.99,503.43,129.34,502.71,128.99,501.72z"/>
	<path class="st4" d="M96.25,460.87l4.9,3.7c-1.88,2.04-2.65,3.87-2.32,5.52c0.16,0.8,0.51,1.41,1.04,1.83
		c0.53,0.42,1.07,0.58,1.6,0.47c0.54-0.11,1.01-0.39,1.41-0.86c0.54-0.62,1.6-2.39,3.2-5.31c1.47-2.72,2.41-4.38,2.81-4.98
		c1-1.49,2.01-2.61,3.04-3.36c1.03-0.75,2.23-1.26,3.57-1.54c2.63-0.54,4.98-0.07,7.06,1.39c2.08,1.46,3.42,3.66,4.02,6.58
		c0.47,2.28,0.31,4.38-0.46,6.3c-0.77,1.92-2.23,3.73-4.38,5.42l-4.14-4.49c2.51-2.12,3.57-4.18,3.16-6.19
		c-0.21-1.05-0.7-1.86-1.45-2.45c-0.75-0.59-1.53-0.8-2.33-0.64c-0.73,0.15-1.4,0.57-2.01,1.25c-0.62,0.69-1.48,2.1-2.6,4.23
		c-2.13,4.07-3.86,6.77-5.2,8.1c-1.34,1.33-2.77,2.16-4.31,2.47c-2.22,0.45-4.3,0-6.23-1.37c-1.93-1.37-3.16-3.29-3.66-5.78
		c-0.33-1.6-0.27-3.2,0.18-4.79C93.61,464.79,94.64,462.95,96.25,460.87z"/>
	<path class="st4" d="M90.58,453.15l-2.02-17.72l6.05-0.69l1.32,11.59l5.87-0.67l-1.32-11.59l5.94-0.68l1.32,11.59l8.54-0.97
		l-1.32-11.59l6.07-0.69l2.02,17.72L90.58,453.15z"/>
	<path class="st4" d="M86.95,410.96c0.08-4.62,1.81-8.57,5.21-11.84c3.4-3.27,7.51-4.87,12.32-4.79c4.77,0.08,8.78,1.78,12.02,5.12
		s4.83,7.34,4.76,12.03c-0.08,4.9-1.84,8.95-5.28,12.14c-3.44,3.19-7.5,4.75-12.16,4.67c-3.12-0.05-5.98-0.85-8.58-2.41
		c-2.6-1.55-4.64-3.67-6.13-6.33C87.62,416.87,86.9,414.01,86.95,410.96z M93.03,411.12c-0.05,3.02,0.96,5.58,3.03,7.68
		c2.07,2.09,4.73,3.17,7.97,3.22c3.61,0.06,6.49-1.19,8.64-3.75c1.68-1.99,2.54-4.29,2.58-6.9c0.05-2.95-0.98-5.48-3.08-7.59
		s-4.71-3.19-7.83-3.24c-3.11-0.05-5.76,0.95-7.95,3.01C94.2,405.61,93.08,408.13,93.03,411.12z"/>
	<path class="st4" d="M88.67,385.74l0.77-6.19l20.97,2.62c1.81,0.23,3.1,0.23,3.89,0.01c0.79-0.22,1.45-0.67,1.99-1.34
		c0.54-0.67,0.87-1.52,1-2.55c0.14-1.09,0-2.06-0.4-2.9c-0.4-0.85-0.97-1.47-1.7-1.87c-0.73-0.4-2.19-0.73-4.36-1l-20.2-2.53
		l0.77-6.19l19.33,2.42c3.26,0.41,5.5,0.88,6.72,1.4c1.22,0.53,2.35,1.38,3.4,2.56c1.05,1.18,1.77,2.49,2.16,3.91
		c0.4,1.42,0.48,3.03,0.26,4.82c-0.29,2.35-1.09,4.33-2.39,5.94s-2.81,2.68-4.52,3.23c-1.72,0.55-4.51,0.58-8.37,0.09L88.67,385.74z
		"/>
	<path class="st4" d="M93.25,354.43l1.33-6.07l26.12,5.74l1.94-8.85l5.79,1.27l-3.28,14.93L93.25,354.43z"/>
	<path class="st4" d="M107.12,304.23c1.69-4.31,4.69-7.4,9.02-9.28s8.73-1.94,13.22-0.19c4.44,1.74,7.6,4.74,9.48,9
		c1.88,4.26,1.97,8.57,0.26,12.93c-1.79,4.57-4.85,7.74-9.19,9.53c-4.34,1.79-8.68,1.83-13.03,0.13c-2.91-1.14-5.31-2.89-7.2-5.25
		c-1.89-2.36-3.07-5.05-3.53-8.08C105.68,310,106.01,307.07,107.12,304.23z M112.76,306.51c-1.1,2.82-1.05,5.57,0.16,8.25
		c1.21,2.69,3.32,4.62,6.34,5.8c3.36,1.32,6.5,1.15,9.4-0.5c2.27-1.28,3.87-3.13,4.82-5.56c1.07-2.75,1-5.48-0.23-8.19
		s-3.3-4.63-6.21-5.77c-2.9-1.13-5.73-1.12-8.5,0.04C115.78,301.75,113.85,303.72,112.76,306.51z"/>
	<path class="st4" d="M118.23,280.61l3.56-6.45c2.29-4.16,4.51-6.96,6.66-8.42c2.15-1.45,4.74-2.19,7.78-2.22s6.11,0.81,9.21,2.52
		c2.2,1.22,4.03,2.7,5.47,4.45c1.44,1.75,2.42,3.61,2.93,5.57c0.51,1.96,0.58,3.82,0.22,5.58c-0.36,1.76-1.56,4.49-3.61,8.2
		l-3.61,6.55L118.23,280.61z M126.46,278.1l18.05,9.95l1.39-2.53c1.37-2.49,2.08-4.45,2.13-5.89c0.05-1.44-0.41-2.88-1.36-4.34
		s-2.42-2.73-4.4-3.82c-3.04-1.67-5.86-2.12-8.47-1.35c-2.35,0.7-4.46,2.74-6.32,6.13L126.46,278.1z"/>
	<path class="st4" d="M135.48,250.84l10.18-14.65l5,3.47l-6.65,9.58l4.85,3.37l6.65-9.58l4.91,3.41l-6.65,9.58l7.06,4.9l6.65-9.58
		l5.02,3.48l-10.18,14.65L135.48,250.84z"/>
	<path class="st4" d="M159.81,231.9l-3.74,4.46c-2.2-1.81-3.38-4.07-3.53-6.79c-0.15-2.72,0.82-5.32,2.9-7.8
		c1.34-1.6,2.78-2.71,4.31-3.34c1.53-0.63,3.14-0.81,4.82-0.56c1.68,0.26,3.13,0.9,4.35,1.93c0.67,0.56,1.24,1.22,1.7,1.98
		c0.47,0.76,0.84,1.66,1.13,2.69c0.17,0.61,0.29,1.82,0.37,3.64c0.07,1.74,0.18,2.89,0.34,3.45c0.16,0.56,0.47,1.18,0.94,1.86
		c0.47,0.68,1.23,1.51,2.28,2.46l-3.87,4.61l-0.78-0.63c-1.52-1.28-2.67-2.71-3.44-4.31c-0.78-1.6-1.18-3.48-1.23-5.64
		c-0.05-2.09-0.16-3.42-0.35-4.01c-0.19-0.58-0.55-1.1-1.08-1.55c-0.73-0.61-1.6-0.82-2.61-0.64c-1.01,0.18-1.95,0.79-2.81,1.81
		c-0.88,1.04-1.29,2.16-1.23,3.34C158.34,230.07,158.85,231.07,159.81,231.9z M175.76,239.74c0.69-0.83,1.57-1.3,2.63-1.4
		c1.06-0.11,1.99,0.18,2.79,0.85c0.81,0.68,1.25,1.54,1.34,2.6c0.09,1.06-0.21,2-0.9,2.81s-1.56,1.27-2.61,1.36
		c-1.05,0.09-1.98-0.2-2.79-0.88c-0.81-0.68-1.25-1.54-1.35-2.58C174.79,241.47,175.08,240.55,175.76,239.74z"/>
	<path class="st4" d="M194.33,190.81l-0.69,6.1c-2.71-0.59-4.69-0.32-5.93,0.81c-0.61,0.55-0.95,1.16-1.05,1.83
		c-0.09,0.67,0.04,1.21,0.41,1.62c0.37,0.41,0.85,0.67,1.46,0.78c0.81,0.15,2.88,0.16,6.2,0.06c3.09-0.12,5-0.15,5.72-0.11
		c1.79,0.1,3.27,0.41,4.44,0.91c1.17,0.51,2.22,1.28,3.14,2.3c1.8,1.99,2.59,4.25,2.39,6.79c-0.2,2.54-1.41,4.81-3.62,6.8
		c-1.73,1.56-3.61,2.5-5.66,2.81s-4.34-0.03-6.9-1.02l1.77-5.85c3.1,1.09,5.41,0.95,6.93-0.42c0.79-0.72,1.25-1.55,1.37-2.5
		s-0.09-1.73-0.64-2.33c-0.5-0.55-1.2-0.91-2.1-1.1c-0.9-0.18-2.56-0.21-4.97-0.09c-4.59,0.23-7.8,0.11-9.62-0.36
		s-3.27-1.29-4.32-2.46c-1.52-1.68-2.18-3.7-1.99-6.06c0.19-2.36,1.23-4.39,3.11-6.09c1.21-1.09,2.62-1.85,4.22-2.28
		C189.61,190.53,191.72,190.48,194.33,190.81z"/>
	<path class="st4" d="M198.09,182l14.23-10.75l3.67,4.86l-9.3,7.03l3.56,4.71l9.3-7.03l3.6,4.77l-9.3,7.03l5.18,6.86l9.3-7.03
		l3.68,4.87l-14.23,10.75L198.09,182z"/>
	<path class="st4" d="M232.22,157.62c3.98-2.35,8.26-2.92,12.82-1.73c4.56,1.2,8.07,3.87,10.51,8.01c2.42,4.11,3.05,8.42,1.9,12.93
		c-1.15,4.51-3.75,7.96-7.78,10.33c-4.23,2.49-8.6,3.1-13.12,1.82c-4.52-1.27-7.96-3.92-10.33-7.94c-1.59-2.69-2.39-5.55-2.42-8.58
		c-0.03-3.03,0.71-5.87,2.21-8.53C227.53,161.28,229.59,159.17,232.22,157.62z M235.25,162.9c-2.61,1.53-4.26,3.73-4.97,6.59
		c-0.71,2.86-0.24,5.68,1.41,8.48c1.83,3.11,4.4,4.92,7.7,5.41c2.57,0.39,4.98-0.07,7.23-1.4c2.54-1.5,4.17-3.69,4.87-6.58
		c0.71-2.89,0.27-5.68-1.32-8.38c-1.58-2.68-3.81-4.42-6.71-5.21C240.57,161.02,237.83,161.38,235.25,162.9z"/>
	<path class="st4" d="M255.26,146.08l5.73-2.47l8.35,19.41c0.72,1.67,1.37,2.79,1.97,3.36c0.59,0.57,1.31,0.91,2.16,1.04
		c0.85,0.12,1.75-0.02,2.71-0.43c1.01-0.43,1.77-1.04,2.3-1.81c0.53-0.77,0.78-1.58,0.75-2.41c-0.03-0.83-0.48-2.26-1.34-4.27
		l-8.05-18.69l5.73-2.47l7.7,17.89c1.3,3.02,2.03,5.19,2.19,6.5c0.16,1.32,0,2.72-0.49,4.23c-0.49,1.5-1.25,2.78-2.27,3.84
		c-1.03,1.06-2.37,1.95-4.03,2.67c-2.18,0.94-4.29,1.25-6.33,0.95c-2.04-0.31-3.73-1.06-5.07-2.27c-1.34-1.2-2.78-3.6-4.32-7.17
		L255.26,146.08z"/>
	<path class="st4" d="M284.54,134.19l5.91-1.92l8.27,25.43l8.62-2.8l1.83,5.64l-14.53,4.73L284.54,134.19z"/>
</g>
<g>
	<line class="st5" x1="526.34" y1="457.72" x2="526.34" y2="498.21"/>
	<line class="st5" x1="549.24" y1="460.01" x2="549.24" y2="500.5"/>
	<g>
		<path class="st5" d="M565.28,496.65c0-59.54-85.08-112.21-184.33-112.21c-100.7,0-182.09,45.8-182.09,112.21"/>
		<path class="st5" d="M285.88,398.18c0-59.45,43.06-107.63,96.18-107.63s96.18,48.19,96.18,107.63c0,0.86-0.01,1.71-0.03,2.56"/>
		<polyline class="st5" points="253.7,415 253.7,364.68 317.94,364.68 317.94,391.04 		"/>
		<polyline class="st5" points="501.06,411.95 501.06,361.63 436.82,361.63 436.82,387.99 		"/>
		<path class="st5" d="M364.17,384.02v-23.37c0-8.87,7.45-16.13,16.55-16.13h0c9.1,0,16.55,7.26,16.55,16.13v23.37
			c0,0.55-0.03,1.1-0.09,1.64"/>
		<rect x="189.7" y="457.72" class="st5" width="382.85" height="40.48"/>
		<line class="st5" x1="221.76" y1="457.72" x2="221.76" y2="498.21"/>
		<line class="st5" x1="246.95" y1="457.72" x2="246.95" y2="498.21"/>
		<line class="st5" x1="272.14" y1="460.01" x2="272.14" y2="500.5"/>
		<line class="st5" x1="297.33" y1="455.43" x2="297.33" y2="495.92"/>
		<line class="st5" x1="320.23" y1="460.01" x2="320.23" y2="500.5"/>
		<line class="st5" x1="343.14" y1="460.01" x2="343.14" y2="500.5"/>
		<line class="st5" x1="366.04" y1="460.01" x2="366.04" y2="500.5"/>
		<line class="st5" x1="388.94" y1="460.01" x2="388.94" y2="500.5"/>
		<line class="st5" x1="411.84" y1="460.01" x2="411.84" y2="500.5"/>
		<line class="st5" x1="434.74" y1="460.01" x2="434.74" y2="500.5"/>
		<line class="st5" x1="457.64" y1="457.72" x2="457.64" y2="498.21"/>
		<line class="st5" x1="480.54" y1="457.72" x2="480.54" y2="498.21"/>
		<line class="st5" x1="503.44" y1="457.72" x2="503.44" y2="498.21"/>
		<line class="st5" x1="274.08" y1="365.09" x2="274.08" y2="404.5"/>
		<line class="st5" x1="297.33" y1="366.16" x2="297.33" y2="396.09"/>
		<line class="st5" x1="458.53" y1="361.63" x2="458.53" y2="395.97"/>
		<line class="st5" x1="482.83" y1="361.54" x2="482.83" y2="404.5"/>
	</g>
</g>
<path class="st6" d="M517.23,348.33c-15.04,8.85-37.3-1.1-37.3-1.1s2.12-24.3,17.15-33.14c15.04-8.85,37.3,1.1,37.3,1.1
	S532.27,339.48,517.23,348.33z"/>
<path class="st6" d="M482.73,303.12c6.13,12.41-2.05,28.97-2.05,28.97s-18.13-3.55-24.27-15.96c-6.13-12.41,2.05-28.97,2.05-28.97
	S476.6,290.71,482.73,303.12z"/>
</svg>
