<?xml version="1.0" encoding="utf-8"?>
<!-- Generator: Adobe Illustrator 27.4.0, SVG Export Plug-In . SVG Version: 6.00 Build 0)  -->
<svg version="1.1" id="레이어_1" xmlns="http://www.w3.org/2000/svg" xmlns:xlink="http://www.w3.org/1999/xlink" x="0px"
	 y="0px" viewBox="0 0 762.52 822.05" style="enable-background:new 0 0 762.52 822.05;" xml:space="preserve">
<style type="text/css">
	.st0{fill:none;stroke:#463C33;stroke-width:3.7343;stroke-miterlimit:10;}
	.st1{fill:none;stroke:#463C33;stroke-width:2.9231;stroke-miterlimit:10;}
	.st2{fill:none;stroke:#463C33;stroke-width:2.6294;stroke-miterlimit:10;}
	.st3{fill:none;stroke:#463C33;stroke-width:2.7692;stroke-linecap:round;stroke-linejoin:round;stroke-dasharray:3.009,6.0179;}
	.st4{fill:none;}
	.st5{fill:none;stroke:#463C33;stroke-width:4;stroke-linejoin:round;stroke-miterlimit:10;}
	.st6{fill:#ABB868;}
</style>
<g>
	<g>
		<circle class="st0" cx="381.26" cy="411.02" r="319.65"/>
		<circle class="st1" cx="381.26" cy="411.02" r="250.21"/>
		<circle class="st2" cx="381.26" cy="411.02" r="225.07"/>
		<g>
			<circle class="st3" cx="381.26" cy="411.02" r="237.04"/>
		</g>
		<path id="SVGID_x5F_1_x5F_" class="st4" d="M642.41,411.56c0,144.14-116.85,260.98-260.98,260.98S120.44,555.7,120.44,411.56
			s116.85-260.98,260.98-260.98S642.41,267.42,642.41,411.56z"/>
		<text>		<textPath  xlink:href="#SVGID_x5F_1_x5F_" startOffset="96.289%">
<tspan  style="fill:#463C33; font-family:'CenturyGothic-Bold'; font-size:45.4927px;">ODE? SEOUL ODE? SEOUL ODE? SEOUL ODE? SEOUL ODE? SEOUL ODE? SEOUL</tspan>		</textPath>
</text>
	</g>
	<g>
		<line class="st5" x1="526.34" y1="457.72" x2="526.34" y2="498.21"/>
		<line class="st5" x1="549.24" y1="460.01" x2="549.24" y2="500.5"/>
		<g>
			<path class="st5" d="M565.28,496.65c0-59.54-85.08-112.21-184.33-112.21c-100.7,0-182.09,45.8-182.09,112.21"/>
			<path class="st5" d="M285.88,398.18c0-59.45,43.06-107.63,96.18-107.63s96.18,48.19,96.18,107.63c0,0.86-0.01,1.71-0.03,2.56"/>
			<polyline class="st5" points="253.7,415 253.7,364.68 317.94,364.68 317.94,391.04 			"/>
			<polyline class="st5" points="501.06,411.95 501.06,361.63 436.82,361.63 436.82,387.99 			"/>
			<path class="st5" d="M364.17,384.02v-23.37c0-8.87,7.45-16.13,16.55-16.13h0c9.1,0,16.55,7.26,16.55,16.13v23.37
				c0,0.55-0.03,1.1-0.09,1.64"/>
			<rect x="189.7" y="457.72" class="st5" width="382.85" height="40.48"/>
			<line class="st5" x1="221.76" y1="457.72" x2="221.76" y2="498.21"/>
			<line class="st5" x1="246.95" y1="457.72" x2="246.95" y2="498.21"/>
			<line class="st5" x1="272.14" y1="460.01" x2="272.14" y2="500.5"/>
			<line class="st5" x1="297.33" y1="455.43" x2="297.33" y2="495.92"/>
			<line class="st5" x1="320.23" y1="460.01" x2="320.23" y2="500.5"/>
			<line class="st5" x1="343.14" y1="460.01" x2="343.14" y2="500.5"/>
			<line class="st5" x1="366.04" y1="460.01" x2="366.04" y2="500.5"/>
			<line class="st5" x1="388.94" y1="460.01" x2="388.94" y2="500.5"/>
			<line class="st5" x1="411.84" y1="460.01" x2="411.84" y2="500.5"/>
			<line class="st5" x1="434.74" y1="460.01" x2="434.74" y2="500.5"/>
			<line class="st5" x1="457.64" y1="457.72" x2="457.64" y2="498.21"/>
			<line class="st5" x1="480.54" y1="457.72" x2="480.54" y2="498.21"/>
			<line class="st5" x1="503.44" y1="457.72" x2="503.44" y2="498.21"/>
			<line class="st5" x1="274.08" y1="365.09" x2="274.08" y2="404.5"/>
			<line class="st5" x1="297.33" y1="366.16" x2="297.33" y2="396.09"/>
			<line class="st5" x1="458.53" y1="361.63" x2="458.53" y2="395.97"/>
			<line class="st5" x1="482.83" y1="361.54" x2="482.83" y2="404.5"/>
		</g>
	</g>
	<path class="st6" d="M517.23,348.33c-15.04,8.85-37.3-1.1-37.3-1.1s2.12-24.3,17.15-33.14c15.04-8.85,37.3,1.1,37.3,1.1
		S532.27,339.48,517.23,348.33z"/>
	<path class="st6" d="M482.73,303.12c6.13,12.41-2.05,28.97-2.05,28.97s-18.13-3.55-24.27-15.96c-6.13-12.41,2.05-28.97,2.05-28.97
		S476.6,290.71,482.73,303.12z"/>
</g>
</svg>
