<?xml version="1.0" encoding="utf-8"?>
<!-- Generator: Adobe Illustrator 27.4.0, SVG Export Plug-In . SVG Version: 6.00 Build 0)  -->
<svg version="1.1" id="레이어_1" xmlns="http://www.w3.org/2000/svg" xmlns:xlink="http://www.w3.org/1999/xlink" x="0px"
	 y="0px" viewBox="0 0 762.52 822.05" style="enable-background:new 0 0 762.52 822.05;" xml:space="preserve">
<style type="text/css">
	.st0{fill:none;stroke:#463C33;stroke-width:3;stroke-miterlimit:10;}
	.st1{fill:none;stroke:#463C33;stroke-width:3;stroke-linecap:round;stroke-linejoin:round;stroke-dasharray:3.0013,6.0026;}
	.st2{fill:#463C33;}
	.st3{fill:none;stroke:#463C33;stroke-width:4;stroke-linecap:round;stroke-linejoin:round;stroke-miterlimit:10;}
	.st4{fill:#ABB868;}
</style>
<g>
	<circle class="st0" cx="381.26" cy="411.02" r="318.83"/>
	<circle class="st0" cx="381.26" cy="411.02" r="249.57"/>
	<circle class="st0" cx="381.26" cy="411.02" r="224.5"/>
	<g>
		<circle class="st1" cx="381.26" cy="411.02" r="236.44"/>
	</g>
</g>
<g>
	<path class="st2" d="M346.03,117.18c4.58-0.5,8.71,0.73,12.37,3.69c3.66,2.96,5.75,6.82,6.27,11.6c0.52,4.73-0.67,8.91-3.57,12.54
		c-2.9,3.63-6.67,5.7-11.31,6.21c-4.86,0.53-9.09-0.71-12.67-3.72c-3.58-3.01-5.63-6.83-6.14-11.45c-0.34-3.1,0.1-6.03,1.31-8.79
		s3.05-5.05,5.51-6.85S343,117.52,346.03,117.18z M346.62,123.23c-3,0.33-5.41,1.65-7.22,3.95c-1.82,2.31-2.55,5.07-2.2,8.29
		c0.39,3.58,1.99,6.28,4.79,8.08c2.18,1.41,4.56,1.98,7.15,1.69c2.92-0.32,5.3-1.65,7.13-3.99c1.83-2.34,2.57-5.06,2.23-8.16
		c-0.34-3.08-1.66-5.58-3.96-7.49S349.59,122.9,346.62,123.23z"/>
	<path class="st2" d="M371.98,116.08l7.35,0.15c4.74,0.09,8.24,0.75,10.52,1.97c2.28,1.22,4.14,3.17,5.57,5.84
		c1.44,2.67,2.12,5.77,2.05,9.3c-0.05,2.51-0.51,4.81-1.39,6.9c-0.88,2.09-2.06,3.81-3.56,5.17c-1.5,1.36-3.1,2.29-4.83,2.79
		c-1.72,0.5-4.69,0.7-8.91,0.62l-7.46-0.15L371.98,116.08z M378.02,122.18l-0.41,20.56l2.88,0.06c2.84,0.06,4.9-0.23,6.19-0.85
		c1.29-0.62,2.36-1.7,3.2-3.22c0.84-1.52,1.29-3.41,1.33-5.65c0.07-3.46-0.85-6.16-2.74-8.11c-1.71-1.75-4.49-2.66-8.34-2.74
		L378.02,122.18z"/>
	<path class="st2" d="M406.29,117.48l17.66,2.17l-0.74,6.03l-11.54-1.42l-0.72,5.85l11.54,1.42l-0.73,5.92l-11.54-1.42l-1.05,8.51
		l11.54,1.42l-0.74,6.05l-17.66-2.17L406.29,117.48z"/>
	<path class="st2" d="M434.31,130.16l-5.67-1.23c0.58-2.79,2.03-4.88,4.36-6.27c2.33-1.39,5.07-1.75,8.23-1.06
		c2.04,0.44,3.69,1.19,4.95,2.26s2.17,2.39,2.73,3.99c0.55,1.6,0.66,3.18,0.32,4.74c-0.19,0.85-0.5,1.66-0.96,2.42
		s-1.07,1.51-1.85,2.25c-0.46,0.43-1.47,1.1-3.04,2.01c-1.5,0.87-2.47,1.5-2.88,1.9c-0.42,0.4-0.82,0.97-1.21,1.7
		c-0.39,0.73-0.76,1.79-1.12,3.16l-5.87-1.28l0.19-0.98c0.42-1.93,1.16-3.61,2.21-5.04s2.52-2.66,4.41-3.7
		c1.82-1.01,2.95-1.73,3.37-2.17c0.43-0.44,0.71-0.99,0.86-1.67c0.2-0.92-0.01-1.79-0.65-2.6s-1.6-1.36-2.9-1.64
		c-1.33-0.29-2.5-0.13-3.52,0.46C435.25,128.01,434.6,128.93,434.31,130.16z M434.79,147.88c1.05,0.23,1.87,0.79,2.46,1.67
		c0.59,0.88,0.77,1.84,0.54,2.86c-0.22,1.03-0.78,1.82-1.68,2.39s-1.86,0.74-2.9,0.51c-1.04-0.23-1.84-0.78-2.42-1.67
		c-0.57-0.89-0.74-1.84-0.52-2.87c0.22-1.02,0.77-1.82,1.65-2.38C432.81,147.83,433.77,147.66,434.79,147.88z"/>
	<path class="st2" d="M486.6,141.61l-5.71,2.21c-0.74-2.67-1.89-4.29-3.46-4.87c-0.76-0.28-1.46-0.31-2.1-0.08
		c-0.64,0.23-1.05,0.6-1.24,1.11c-0.19,0.51-0.19,1.06-0.02,1.65c0.25,0.78,1.19,2.62,2.82,5.5c1.54,2.68,2.45,4.35,2.74,5
		c0.74,1.63,1.15,3.08,1.25,4.35c0.09,1.27-0.1,2.55-0.58,3.84c-0.93,2.51-2.56,4.26-4.9,5.25s-4.9,0.98-7.69-0.05
		c-2.18-0.8-3.88-2.04-5.1-3.7c-1.22-1.66-1.99-3.85-2.29-6.56l5.98-1.15c0.47,3.25,1.67,5.22,3.58,5.93c1,0.37,1.95,0.39,2.84,0.06
		c0.9-0.33,1.48-0.88,1.76-1.64c0.26-0.69,0.25-1.48,0-2.36c-0.26-0.88-1-2.36-2.22-4.43c-2.33-3.95-3.71-6.84-4.13-8.67
		s-0.37-3.49,0.17-4.95c0.78-2.12,2.26-3.64,4.44-4.56s4.45-0.94,6.82-0.07c1.53,0.56,2.85,1.45,3.97,2.67
		C484.66,137.3,485.68,139.14,486.6,141.61z"/>
	<path class="st2" d="M496.17,140.88l16.08,7.62l-2.6,5.49L499.13,149l-2.52,5.33l10.51,4.98l-2.55,5.39l-10.51-4.98l-3.67,7.75
		l10.51,4.98l-2.61,5.51l-16.08-7.62L496.17,140.88z"/>
	<path class="st2" d="M533.5,159.81c3.91,2.44,6.39,5.96,7.44,10.54c1.05,4.59,0.3,8.92-2.24,12.99c-2.52,4.04-6.04,6.58-10.56,7.65
		c-4.52,1.06-8.76,0.36-12.73-2.11c-4.15-2.59-6.71-6.18-7.66-10.76c-0.96-4.58-0.2-8.85,2.26-12.8c1.65-2.64,3.81-4.68,6.47-6.1
		c2.66-1.42,5.52-2.08,8.57-1.98C528.1,157.35,530.91,158.2,533.5,159.81z M530.23,164.93c-2.56-1.6-5.27-2.05-8.12-1.36
		c-2.85,0.69-5.14,2.41-6.85,5.16c-1.91,3.06-2.32,6.16-1.23,9.31c0.84,2.46,2.36,4.37,4.57,5.75c2.5,1.56,5.19,1.98,8.07,1.27
		c2.88-0.71,5.15-2.39,6.8-5.03c1.64-2.63,2.15-5.41,1.51-8.34C534.34,168.77,532.76,166.51,530.23,164.93z"/>
	<path class="st2" d="M554.27,174.82l4.83,3.93l-13.29,16.35c-1.14,1.41-1.83,2.51-2.06,3.29c-0.23,0.78-0.2,1.58,0.08,2.39
		c0.28,0.81,0.83,1.54,1.63,2.19c0.85,0.69,1.74,1.09,2.67,1.2c0.93,0.11,1.76-0.04,2.48-0.45s1.77-1.46,3.15-3.16l12.8-15.75
		l4.83,3.93l-12.26,15.08c-2.07,2.54-3.65,4.19-4.73,4.95s-2.41,1.26-3.96,1.52s-3.04,0.18-4.45-0.23
		c-1.41-0.42-2.82-1.19-4.22-2.33c-1.83-1.49-3.09-3.21-3.76-5.16c-0.67-1.95-0.79-3.79-0.34-5.53c0.45-1.74,1.89-4.12,4.34-7.13
		L554.27,174.82z"/>
	<path class="st2" d="M578.34,195.21l4.44,4.33l-18.64,19.09l6.47,6.32l-4.13,4.23l-10.91-10.65L578.34,195.21z"/>
	<path class="st2" d="M613.52,233.37c2.76,3.69,3.8,7.87,3.12,12.52c-0.68,4.66-2.95,8.42-6.79,11.3c-3.81,2.85-8.01,3.95-12.61,3.3
		s-8.3-2.84-11.1-6.58c-2.93-3.92-4.01-8.18-3.25-12.8s3.02-8.32,6.74-11.11c2.5-1.87,5.24-2.98,8.24-3.34c3-0.36,5.9,0.06,8.7,1.25
		S611.7,230.93,613.52,233.37z M608.62,236.95c-1.81-2.42-4.17-3.82-7.08-4.21c-2.91-0.39-5.66,0.39-8.25,2.32
		c-2.88,2.16-4.39,4.9-4.52,8.23c-0.11,2.59,0.62,4.93,2.18,7.01c1.76,2.36,4.12,3.72,7.06,4.11c2.94,0.38,5.66-0.36,8.16-2.23
		c2.48-1.86,3.96-4.27,4.43-7.22C611.07,242.01,610.41,239.34,608.62,236.95z"/>
	<path class="st2" d="M627.69,255.17l3.6,6.41c2.32,4.13,3.54,7.48,3.64,10.07c0.11,2.58-0.63,5.17-2.2,7.77
		c-1.57,2.6-3.9,4.76-6.98,6.49c-2.19,1.23-4.4,2-6.65,2.3s-4.33,0.16-6.26-0.44c-1.93-0.6-3.55-1.51-4.85-2.75
		c-1.3-1.23-2.99-3.69-5.06-7.37l-3.66-6.5L627.69,255.17z M625.5,263.47l-17.92,10.08l1.41,2.51c1.39,2.47,2.68,4.1,3.88,4.9
		s2.66,1.17,4.4,1.12c1.74-0.05,3.59-0.62,5.55-1.72c3.02-1.7,4.88-3.86,5.59-6.48c0.64-2.36,0.02-5.22-1.87-8.58L625.5,263.47z"/>
	<path class="st2" d="M643.88,285.45l7.07,16.33l-5.57,2.41l-4.62-10.67l-5.41,2.34l4.62,10.67l-5.47,2.37l-4.62-10.67l-7.87,3.41
		l4.62,10.67l-5.59,2.42l-7.07-16.33L643.88,285.45z"/>
	<path class="st2" d="M632.11,325.44c0.34,1.02,0.27,2.01-0.19,2.97c-0.47,0.95-1.2,1.59-2.19,1.92c-1,0.33-1.97,0.25-2.91-0.24
		s-1.58-1.23-1.91-2.24s-0.26-1.99,0.22-2.93c0.48-0.94,1.21-1.58,2.21-1.9c1-0.33,1.96-0.25,2.89,0.22
		C631.16,323.71,631.79,324.45,632.11,325.44z M647.15,316.06l-1.81-5.52c2.69-0.91,5.23-0.72,7.61,0.58
		c2.38,1.3,4.08,3.49,5.08,6.56c0.65,1.98,0.83,3.78,0.56,5.41s-0.96,3.09-2.06,4.37c-1.1,1.29-2.41,2.18-3.93,2.67
		c-0.83,0.27-1.69,0.4-2.57,0.4c-0.89,0-1.85-0.16-2.88-0.46c-0.6-0.18-1.69-0.71-3.28-1.61c-1.51-0.86-2.54-1.37-3.1-1.53
		s-1.25-0.22-2.08-0.18c-0.83,0.04-1.92,0.25-3.29,0.63l-1.87-5.71l0.94-0.33c1.88-0.62,3.7-0.83,5.46-0.65
		c1.76,0.18,3.57,0.83,5.42,1.93c1.79,1.06,2.99,1.66,3.58,1.81c0.59,0.15,1.22,0.11,1.88-0.1c0.9-0.29,1.54-0.92,1.92-1.88
		c0.38-0.96,0.36-2.07-0.05-3.33c-0.42-1.29-1.15-2.23-2.18-2.81C649.48,315.78,648.36,315.68,647.15,316.06z"/>
	<path class="st2" d="M663.74,366.94l-4.8-3.81c1.93-1.98,2.74-3.8,2.45-5.44c-0.14-0.8-0.48-1.42-1-1.85
		c-0.52-0.43-1.05-0.6-1.59-0.5s-1.01,0.37-1.43,0.82c-0.55,0.61-1.66,2.35-3.32,5.22c-1.53,2.68-2.51,4.31-2.93,4.9
		c-1.03,1.46-2.07,2.55-3.12,3.27c-1.05,0.72-2.25,1.2-3.6,1.45c-2.63,0.47-4.97-0.05-7.01-1.56c-2.04-1.51-3.32-3.73-3.85-6.66
		c-0.41-2.29-0.21-4.38,0.61-6.27c0.82-1.9,2.32-3.66,4.5-5.3l4.02,4.58c-2.56,2.05-3.66,4.08-3.3,6.09
		c0.19,1.05,0.65,1.87,1.39,2.48s1.51,0.83,2.31,0.69c0.73-0.13,1.41-0.53,2.04-1.2s1.53-2.06,2.7-4.16
		c2.22-4.01,4.02-6.66,5.39-7.95s2.82-2.08,4.36-2.36c2.22-0.4,4.28,0.11,6.18,1.52s3.07,3.36,3.51,5.85
		c0.29,1.6,0.19,3.19-0.29,4.77S665.4,364.9,663.74,366.94z"/>
	<path class="st2" d="M669.21,374.79l1.58,17.72l-6.05,0.54l-1.04-11.59l-5.87,0.52l1.04,11.59l-5.94,0.53l-1.04-11.59l-8.54,0.76
		l1.03,11.59l-6.07,0.54l-1.58-17.72L669.21,374.79z"/>
	<path class="st2" d="M671.83,416.53c-0.11,4.61-1.88,8.53-5.3,11.77c-3.42,3.24-7.53,4.79-12.33,4.68
		c-4.75-0.12-8.74-1.85-11.95-5.2c-3.21-3.35-4.76-7.37-4.65-12.04c0.12-4.89,1.91-8.91,5.37-12.07c3.46-3.15,7.52-4.67,12.17-4.56
		c3.12,0.08,5.96,0.9,8.54,2.47s4.6,3.69,6.06,6.37C671.21,410.62,671.91,413.48,671.83,416.53z M665.77,416.31
		c0.07-3.02-0.91-5.58-2.96-7.68c-2.05-2.11-4.69-3.2-7.92-3.28c-3.6-0.09-6.48,1.14-8.64,3.67c-1.69,1.97-2.56,4.26-2.63,6.86
		c-0.07,2.94,0.93,5.47,3.01,7.59c2.08,2.12,4.67,3.22,7.79,3.3c3.1,0.08,5.75-0.9,7.95-2.93
		C664.56,421.81,665.69,419.3,665.77,416.31z"/>
	<path class="st2" d="M669.49,442.04l-0.92,6.16l-20.84-3.13c-1.8-0.27-3.09-0.3-3.88-0.1c-0.79,0.2-1.46,0.63-2.02,1.29
		c-0.55,0.66-0.91,1.5-1.06,2.52c-0.16,1.08-0.05,2.05,0.33,2.91c0.38,0.86,0.93,1.49,1.65,1.91c0.72,0.42,2.16,0.78,4.32,1.11
		l20.08,3.01l-0.92,6.16L647,460.99c-3.24-0.49-5.46-1.01-6.67-1.56c-1.2-0.55-2.31-1.43-3.32-2.64c-1.01-1.21-1.7-2.52-2.06-3.95
		c-0.36-1.43-0.41-3.03-0.14-4.82c0.35-2.34,1.19-4.29,2.53-5.86c1.33-1.57,2.86-2.61,4.59-3.11s4.51-0.47,8.35,0.11L669.49,442.04z
		"/>
	<path class="st2" d="M664.16,473.14l-1.48,6.03l-25.91-6.36l-2.16,8.78l-5.75-1.41l3.63-14.8L664.16,473.14z"/>
	<path class="st2" d="M649.1,522.87c-1.79,4.25-4.86,7.26-9.22,9.03c-4.36,1.77-8.76,1.72-13.18-0.14c-4.39-1.84-7.46-4.91-9.23-9.2
		s-1.75-8.59,0.06-12.9c1.89-4.51,5.03-7.6,9.4-9.28s8.7-1.61,12.99,0.19c2.87,1.21,5.22,3.01,7.05,5.41
		c1.83,2.4,2.93,5.12,3.32,8.14C650.67,517.15,650.28,520.06,649.1,522.87z M643.53,520.46c1.17-2.78,1.18-5.53,0.04-8.23
		c-1.14-2.71-3.2-4.69-6.18-5.94c-3.32-1.4-6.45-1.31-9.39,0.27c-2.29,1.22-3.94,3.03-4.95,5.43c-1.14,2.71-1.13,5.44,0.03,8.17
		c1.16,2.73,3.18,4.7,6.05,5.91c2.86,1.2,5.68,1.26,8.47,0.17S642.37,523.21,643.53,520.46z"/>
	<path class="st2" d="M637.45,546.14l-3.7,6.35c-2.39,4.09-4.67,6.84-6.84,8.23s-4.78,2.07-7.81,2.03s-6.08-0.96-9.13-2.74
		c-2.17-1.27-3.95-2.79-5.35-4.57c-1.4-1.78-2.33-3.66-2.79-5.62c-0.46-1.97-0.49-3.83-0.08-5.57c0.4-1.75,1.67-4.44,3.8-8.09
		l3.76-6.44L637.45,546.14z M629.18,548.44l-17.76-10.36l-1.45,2.49c-1.43,2.45-2.19,4.39-2.27,5.82c-0.08,1.43,0.34,2.88,1.25,4.36
		c0.92,1.48,2.35,2.78,4.29,3.91c2.99,1.74,5.79,2.26,8.42,1.55c2.36-0.64,4.51-2.63,6.46-5.96L629.18,548.44z"/>
	<path class="st2" d="M619.51,575.42l-10.5,14.36l-4.9-3.58l6.87-9.39l-4.76-3.48l-6.87,9.39l-4.81-3.52l6.87-9.39l-6.92-5.06
		l-6.87,9.39l-4.92-3.6l10.5-14.36L619.51,575.42z"/>
	<path class="st2" d="M579.09,585.5c-0.71,0.81-1.6,1.25-2.66,1.34c-1.06,0.08-1.98-0.22-2.77-0.92c-0.79-0.69-1.21-1.57-1.27-2.63
		c-0.06-1.06,0.26-1.99,0.96-2.78c0.7-0.8,1.58-1.23,2.63-1.3s1.97,0.25,2.76,0.94c0.79,0.69,1.21,1.56,1.28,2.6
		C580.1,583.8,579.78,584.71,579.09,585.5z M594.8,593.71l3.84-4.35c2.15,1.86,3.27,4.14,3.36,6.86s-0.94,5.28-3.08,7.71
		c-1.38,1.56-2.84,2.64-4.38,3.23c-1.54,0.59-3.15,0.73-4.82,0.44s-3.1-0.97-4.3-2.03c-0.65-0.58-1.2-1.25-1.65-2.02
		c-0.45-0.77-0.8-1.67-1.07-2.71c-0.15-0.61-0.25-1.82-0.28-3.64c-0.03-1.74-0.11-2.88-0.26-3.45c-0.15-0.56-0.44-1.19-0.9-1.88
		c-0.45-0.69-1.19-1.53-2.21-2.51l3.97-4.5l0.76,0.64c1.49,1.31,2.59,2.77,3.33,4.38c0.73,1.61,1.1,3.5,1.09,5.65
		c0,2.08,0.08,3.42,0.25,4s0.52,1.11,1.04,1.57c0.71,0.62,1.57,0.86,2.59,0.7s1.96-0.74,2.84-1.73c0.9-1.02,1.34-2.12,1.31-3.3
		C596.22,595.57,595.74,594.55,594.8,593.71z"/>
	<path class="st2" d="M559.41,633.82l0.84-6.07c2.69,0.65,4.67,0.43,5.93-0.66c0.62-0.53,0.98-1.13,1.09-1.8s-0.02-1.21-0.37-1.62
		s-0.83-0.69-1.43-0.81c-0.8-0.17-2.87-0.23-6.18-0.21c-3.09,0.04-4.99,0.03-5.71-0.03c-1.78-0.14-3.25-0.48-4.41-1.02
		c-1.15-0.54-2.18-1.33-3.08-2.37c-1.74-2.03-2.48-4.3-2.22-6.83c0.26-2.53,1.52-4.76,3.78-6.7c1.76-1.51,3.66-2.4,5.71-2.66
		s4.33,0.13,6.85,1.18l-1.9,5.79c-3.07-1.16-5.38-1.08-6.92,0.26c-0.81,0.69-1.28,1.51-1.43,2.46c-0.15,0.94,0.05,1.72,0.58,2.34
		c0.48,0.56,1.17,0.94,2.07,1.14c0.9,0.2,2.55,0.27,4.95,0.21c4.58-0.12,7.78,0.08,9.59,0.59c1.81,0.52,3.23,1.37,4.25,2.56
		c1.47,1.71,2.09,3.75,1.83,6.09c-0.25,2.35-1.33,4.35-3.25,6c-1.23,1.06-2.65,1.79-4.26,2.17
		C564.11,634.22,562.01,634.21,559.41,633.82z"/>
	<path class="st2" d="M555.44,642.53l-14.45,10.38l-3.54-4.93l9.45-6.79l-3.44-4.79l-9.45,6.79l-3.48-4.84l9.45-6.79l-5-6.96
		l-9.45,6.79l-3.55-4.95l14.45-10.38L555.44,642.53z"/>
	<path class="st2" d="M520.8,666.01c-4.03,2.24-8.31,2.71-12.83,1.41c-4.52-1.3-7.95-4.05-10.29-8.25
		c-2.31-4.16-2.84-8.47-1.58-12.94s3.93-7.84,8.01-10.11c4.28-2.38,8.65-2.88,13.12-1.5c4.47,1.38,7.84,4.11,10.1,8.17
		c1.52,2.72,2.25,5.59,2.21,8.61c-0.05,3.02-0.85,5.84-2.41,8.46C525.58,662.48,523.46,664.53,520.8,666.01z M517.91,660.68
		c2.64-1.47,4.34-3.62,5.12-6.45c0.78-2.83,0.38-5.66-1.2-8.49c-1.75-3.15-4.27-5.01-7.55-5.59c-2.55-0.46-4.97-0.05-7.24,1.22
		c-2.57,1.43-4.24,3.58-5.02,6.44c-0.78,2.87-0.4,5.66,1.11,8.38c1.51,2.71,3.7,4.5,6.56,5.36
		C512.56,662.42,515.3,662.13,517.91,660.68z"/>
	<path class="st2" d="M497.57,676.95l-5.78,2.32l-7.86-19.56c-0.68-1.68-1.3-2.82-1.88-3.4s-1.29-0.94-2.13-1.09
		c-0.85-0.14-1.75-0.02-2.71,0.36c-1.01,0.41-1.79,0.99-2.34,1.75c-0.55,0.76-0.82,1.56-0.81,2.39c0.01,0.83,0.42,2.26,1.23,4.29
		l7.57,18.84l-5.78,2.32l-7.25-18.03c-1.22-3.04-1.9-5.22-2.03-6.54c-0.13-1.32,0.07-2.72,0.59-4.2s1.31-2.74,2.36-3.78
		s2.41-1.89,4.08-2.56c2.19-0.88,4.3-1.14,6.33-0.79c2.03,0.35,3.7,1.15,5,2.38s2.69,3.65,4.13,7.26L497.57,676.95z"/>
	<path class="st2" d="M468.05,688.11l-5.94,1.77l-7.63-25.56l-8.66,2.58l-1.69-5.67l14.61-4.36L468.05,688.11z"/>
	<path class="st2" d="M417.57,700.28c-4.57,0.61-8.72-0.51-12.46-3.38s-5.92-6.68-6.56-11.44c-0.63-4.71,0.45-8.92,3.26-12.62
		s6.52-5.86,11.15-6.48c4.85-0.65,9.1,0.48,12.76,3.41s5.8,6.69,6.42,11.3c0.42,3.09,0.05,6.03-1.1,8.82
		c-1.15,2.79-2.93,5.12-5.34,6.99S420.59,699.88,417.57,700.28z M416.83,694.26c2.99-0.4,5.36-1.78,7.12-4.13s2.42-5.13,1.99-8.34
		c-0.48-3.57-2.14-6.23-4.99-7.96c-2.21-1.36-4.61-1.86-7.19-1.52c-2.92,0.39-5.26,1.78-7.03,4.16c-1.77,2.38-2.45,5.12-2.03,8.21
		c0.41,3.07,1.8,5.54,4.15,7.39S413.87,694.65,416.83,694.26z"/>
	<path class="st2" d="M392.02,701.88l-7.35,0.12c-4.74,0.08-8.27-0.45-10.59-1.59c-2.32-1.14-4.25-3.01-5.78-5.63
		c-1.53-2.62-2.33-5.69-2.39-9.22c-0.04-2.51,0.34-4.83,1.14-6.94c0.8-2.12,1.92-3.88,3.37-5.29c1.45-1.41,3.02-2.4,4.72-2.96
		s4.67-0.87,8.89-0.94l7.46-0.12L392.02,701.88z M385.76,696l-0.33-20.56l-2.88,0.05c-2.84,0.05-4.89,0.4-6.15,1.08
		c-1.27,0.67-2.29,1.78-3.08,3.33s-1.16,3.45-1.13,5.7c0.06,3.46,1.07,6.13,3.03,8c1.77,1.69,4.58,2.5,8.44,2.44L385.76,696z"/>
	<path class="st2" d="M357.34,701.46l-17.71-1.74l0.59-6.04l11.58,1.13l0.57-5.87l-11.58-1.13l0.58-5.93l11.58,1.13l0.84-8.53
		l-11.58-1.13l0.59-6.06l17.71,1.73L357.34,701.46z"/>
	<path class="st2" d="M329.02,689.49l5.7,1.09c-0.51,2.8-1.9,4.92-4.2,6.38c-2.29,1.45-5.03,1.87-8.21,1.27
		c-2.05-0.39-3.71-1.1-5.01-2.13c-1.29-1.03-2.23-2.34-2.82-3.92c-0.59-1.59-0.74-3.16-0.44-4.73c0.16-0.86,0.46-1.67,0.9-2.45
		c0.43-0.77,1.03-1.54,1.79-2.3c0.45-0.44,1.44-1.14,2.99-2.09c1.48-0.91,2.43-1.56,2.84-1.97c0.41-0.41,0.8-0.99,1.17-1.73
		c0.37-0.74,0.71-1.8,1.04-3.18l5.9,1.13l-0.17,0.98c-0.37,1.94-1.07,3.64-2.08,5.1c-1.01,1.45-2.45,2.72-4.32,3.81
		c-1.8,1.05-2.9,1.81-3.32,2.25c-0.42,0.45-0.69,1.01-0.82,1.69c-0.18,0.93,0.06,1.79,0.71,2.58c0.65,0.79,1.63,1.32,2.94,1.57
		c1.33,0.26,2.51,0.07,3.51-0.55C328.14,691.66,328.77,690.73,329.02,689.49z M328.1,671.78c-1.06-0.2-1.89-0.74-2.5-1.61
		c-0.61-0.87-0.81-1.82-0.62-2.85c0.2-1.03,0.74-1.84,1.62-2.43c0.88-0.59,1.84-0.79,2.89-0.59c1.04,0.2,1.86,0.74,2.46,1.61
		c0.59,0.87,0.79,1.82,0.59,2.85c-0.2,1.03-0.73,1.84-1.59,2.42C330.07,671.79,329.13,671.98,328.1,671.78z"/>
	<path class="st2" d="M276.45,679.34l5.66-2.35c0.8,2.65,1.99,4.24,3.58,4.78c0.77,0.26,1.47,0.27,2.1,0.03s1.03-0.63,1.21-1.14
		s0.17-1.07-0.02-1.65c-0.27-0.78-1.25-2.59-2.95-5.43c-1.6-2.64-2.56-4.28-2.87-4.93c-0.78-1.61-1.23-3.05-1.35-4.31
		c-0.12-1.27,0.04-2.55,0.48-3.85c0.86-2.53,2.45-4.32,4.76-5.37s4.87-1.1,7.69-0.14c2.2,0.75,3.93,1.94,5.19,3.57
		s2.08,3.8,2.46,6.5l-5.95,1.29c-0.55-3.23-1.8-5.18-3.73-5.84c-1.01-0.34-1.96-0.34-2.84,0.01c-0.89,0.35-1.46,0.91-1.72,1.68
		c-0.24,0.7-0.22,1.49,0.06,2.36s1.06,2.33,2.33,4.38c2.43,3.89,3.88,6.74,4.35,8.57s0.46,3.48-0.05,4.96
		c-0.73,2.14-2.17,3.7-4.32,4.67c-2.15,0.97-4.43,1.05-6.82,0.24c-1.54-0.53-2.88-1.38-4.03-2.57
		C278.49,683.6,277.43,681.78,276.45,679.34z"/>
	<path class="st2" d="M266.9,680.31l-16.26-7.21l2.46-5.55l10.63,4.72l2.39-5.39l-10.63-4.72l2.42-5.45l10.63,4.72l3.48-7.84
		l-10.63-4.72l2.47-5.57l16.26,7.21L266.9,680.31z"/>
	<path class="st2" d="M229.11,662.31c-3.97-2.34-6.54-5.79-7.7-10.36c-1.16-4.56-0.52-8.91,1.92-13.04
		c2.42-4.1,5.87-6.73,10.36-7.91c4.49-1.17,8.75-0.57,12.77,1.8c4.21,2.49,6.86,6.01,7.93,10.57s0.42,8.84-1.94,12.85
		c-1.58,2.68-3.69,4.77-6.31,6.26c-2.63,1.49-5.46,2.22-8.51,2.19C234.57,664.64,231.73,663.85,229.11,662.31z M232.25,657.11
		c2.6,1.53,5.32,1.92,8.15,1.15c2.84-0.76,5.08-2.54,6.72-5.32c1.83-3.1,2.17-6.22,1-9.34c-0.9-2.43-2.47-4.31-4.71-5.63
		c-2.53-1.49-5.23-1.85-8.1-1.07s-5.09,2.51-6.67,5.2c-1.58,2.67-2.01,5.46-1.31,8.37C228.04,653.38,229.68,655.59,232.25,657.11z"
		/>
	<path class="st2" d="M207.97,647.82l-4.93-3.81l12.89-16.68c1.11-1.44,1.77-2.55,1.98-3.34c0.21-0.79,0.16-1.59-0.14-2.39
		c-0.3-0.8-0.86-1.52-1.68-2.15c-0.86-0.67-1.76-1.05-2.7-1.13s-1.75,0.08-2.47,0.51s-1.74,1.51-3.07,3.24l-12.41,16.06l-4.93-3.81
		l11.88-15.38c2-2.6,3.54-4.28,4.61-5.06c1.07-0.78,2.38-1.32,3.92-1.62c1.55-0.3,3.03-0.26,4.45,0.12s2.85,1.12,4.27,2.22
		c1.87,1.45,3.17,3.13,3.89,5.06c0.72,1.93,0.88,3.77,0.48,5.52c-0.4,1.75-1.79,4.17-4.17,7.24L207.97,647.82z"/>
	<path class="st2" d="M183.42,628.04l-4.54-4.22l18.16-19.54l-6.62-6.15l4.03-4.33l11.17,10.38L183.42,628.04z"/>
	<path class="st2" d="M147.29,590.75c-2.85-3.62-4-7.77-3.43-12.44c0.57-4.67,2.74-8.49,6.51-11.46c3.74-2.94,7.91-4.15,12.52-3.61
		c4.61,0.53,8.37,2.63,11.26,6.3c3.03,3.84,4.21,8.08,3.56,12.72c-0.65,4.64-2.81,8.39-6.46,11.27c-2.45,1.93-5.17,3.11-8.15,3.54
		c-2.99,0.43-5.9,0.09-8.73-1.04C151.54,594.9,149.18,593.14,147.29,590.75z M152.1,587.05c1.87,2.37,4.26,3.71,7.18,4.03
		c2.92,0.32,5.65-0.53,8.19-2.53c2.83-2.23,4.27-5.01,4.32-8.34c0.04-2.59-0.74-4.91-2.35-6.96c-1.82-2.31-4.21-3.62-7.16-3.93
		c-2.95-0.31-5.65,0.5-8.1,2.43c-2.44,1.92-3.85,4.36-4.25,7.33C149.53,582.04,150.26,584.7,152.1,587.05z"/>
	<path class="st2" d="M132.58,569.29l-3.76-6.32c-2.42-4.07-3.72-7.39-3.89-9.97c-0.17-2.58,0.5-5.18,2.01-7.82
		c1.51-2.63,3.78-4.85,6.81-6.66c2.16-1.29,4.35-2.11,6.59-2.47c2.24-0.36,4.33-0.27,6.27,0.29c1.94,0.55,3.58,1.43,4.92,2.62
		c1.33,1.2,3.08,3.61,5.24,7.24l3.82,6.41L132.58,569.29z M134.57,560.94l17.67-10.52l-1.47-2.47c-1.45-2.44-2.78-4.04-4-4.8
		c-1.21-0.76-2.69-1.1-4.42-1.01s-3.57,0.71-5.5,1.86c-2.97,1.77-4.78,3.97-5.43,6.61c-0.58,2.38,0.11,5.22,2.09,8.53L134.57,560.94
		z"/>
	<path class="st2" d="M115.65,539.44l-7.48-16.14l5.51-2.55l4.89,10.55l5.35-2.48l-4.89-10.55l5.41-2.5l4.89,10.56l7.78-3.6
		l-4.89-10.56l5.53-2.56l7.48,16.14L115.65,539.44z"/>
	<path class="st2" d="M111.62,508.93l1.94,5.47c-2.67,0.98-5.21,0.85-7.62-0.39c-2.41-1.24-4.16-3.39-5.25-6.44
		c-0.7-1.96-0.93-3.76-0.7-5.4c0.23-1.64,0.89-3.11,1.96-4.42c1.07-1.31,2.36-2.24,3.86-2.77c0.82-0.29,1.68-0.45,2.56-0.46
		s1.85,0.11,2.89,0.38c0.61,0.16,1.71,0.67,3.32,1.52c1.53,0.82,2.58,1.3,3.14,1.45c0.56,0.15,1.25,0.19,2.08,0.13
		c0.83-0.06,1.92-0.3,3.27-0.72l2.01,5.66l-0.93,0.36c-1.86,0.66-3.68,0.92-5.45,0.78c-1.77-0.14-3.59-0.74-5.47-1.79
		c-1.82-1.01-3.03-1.59-3.62-1.72s-1.22-0.08-1.88,0.15c-0.89,0.32-1.51,0.96-1.87,1.92s-0.31,2.07,0.14,3.33
		c0.46,1.28,1.21,2.2,2.25,2.75C109.31,509.27,110.43,509.34,111.62,508.93z M126.43,499.18c-0.36-1.02-0.32-2.01,0.12-2.97
		c0.44-0.96,1.16-1.62,2.14-1.97c0.99-0.35,1.96-0.3,2.92,0.16c0.96,0.46,1.61,1.19,1.97,2.19c0.36,1,0.31,1.98-0.14,2.93
		c-0.45,0.95-1.17,1.61-2.16,1.96c-0.99,0.35-1.95,0.3-2.9-0.15C127.42,500.88,126.78,500.16,126.43,499.18z"/>
	<path class="st2" d="M93.77,458.46l4.89,3.69c-1.88,2.03-2.65,3.87-2.31,5.5c0.16,0.8,0.51,1.41,1.04,1.83s1.06,0.58,1.6,0.46
		c0.54-0.11,1-0.39,1.41-0.85c0.54-0.62,1.6-2.39,3.19-5.3c1.46-2.72,2.4-4.37,2.8-4.97c0.99-1.49,2-2.6,3.03-3.35
		c1.03-0.75,2.22-1.26,3.56-1.53c2.62-0.54,4.97-0.07,7.05,1.39c2.08,1.46,3.42,3.65,4.01,6.56c0.47,2.27,0.31,4.37-0.45,6.29
		c-0.77,1.92-2.22,3.72-4.37,5.41l-4.13-4.48c2.51-2.11,3.56-4.17,3.15-6.17c-0.21-1.04-0.7-1.86-1.45-2.44
		c-0.75-0.59-1.53-0.8-2.32-0.63c-0.72,0.15-1.39,0.56-2.01,1.25c-0.61,0.69-1.48,2.09-2.6,4.22c-2.12,4.06-3.85,6.75-5.19,8.08
		s-2.77,2.15-4.3,2.47c-2.21,0.45-4.29,0-6.22-1.37c-1.93-1.36-3.15-3.28-3.66-5.76c-0.33-1.59-0.27-3.19,0.17-4.78
		C91.13,462.38,92.16,460.55,93.77,458.46z"/>
	<path class="st2" d="M88.1,450.74l-2.02-17.68l6.03-0.69l1.32,11.56l5.86-0.67l-1.32-11.56l5.92-0.68l1.32,11.56l8.52-0.97
		l-1.32-11.56l6.05-0.69l2.02,17.68L88.1,450.74z"/>
	<path class="st2" d="M84.47,408.55c0.07-4.61,1.81-8.55,5.2-11.81s7.49-4.86,12.29-4.78c4.76,0.08,8.75,1.78,11.99,5.11
		c3.24,3.33,4.82,7.33,4.75,12c-0.08,4.89-1.84,8.93-5.27,12.11s-7.48,4.73-12.13,4.66c-3.12-0.05-5.97-0.85-8.56-2.4
		c-2.59-1.55-4.63-3.66-6.11-6.32C85.13,414.45,84.42,411.59,84.47,408.55z M90.54,408.71c-0.05,3.02,0.96,5.57,3.02,7.66
		c2.06,2.09,4.71,3.16,7.95,3.21c3.6,0.06,6.48-1.19,8.61-3.74c1.67-1.98,2.53-4.28,2.57-6.88c0.05-2.94-0.98-5.46-3.07-7.57
		s-4.7-3.18-7.81-3.23c-3.1-0.05-5.74,0.95-7.93,3C91.7,403.21,90.58,405.73,90.54,408.71z"/>
	<path class="st2" d="M86.18,383.53l0.77-6.18l20.91,2.61c1.8,0.22,3.1,0.23,3.88,0c0.79-0.22,1.45-0.67,1.98-1.34
		c0.54-0.67,0.87-1.52,1-2.54c0.14-1.08,0-2.05-0.4-2.9s-0.97-1.47-1.7-1.86s-2.18-0.73-4.35-1l-20.15-2.51l0.77-6.18l19.28,2.4
		c3.25,0.41,5.49,0.87,6.7,1.39c1.21,0.52,2.34,1.38,3.39,2.56c1.04,1.18,1.76,2.48,2.16,3.9c0.4,1.42,0.48,3.02,0.26,4.81
		c-0.29,2.35-1.09,4.32-2.38,5.92s-2.8,2.68-4.51,3.22s-4.5,0.58-8.35,0.1L86.18,383.53z"/>
	<path class="st2" d="M90.74,352.3l1.33-6.06l26.06,5.71l1.94-8.83l5.78,1.27l-3.26,14.89L90.74,352.3z"/>
	<path class="st2" d="M104.54,302.25c1.68-4.29,4.68-7.38,8.99-9.26c4.32-1.88,8.71-1.94,13.18-0.19c4.43,1.73,7.58,4.72,9.46,8.97
		c1.88,4.25,1.96,8.55,0.26,12.9c-1.78,4.56-4.84,7.73-9.16,9.51s-8.66,1.83-12.99,0.14c-2.9-1.13-5.3-2.88-7.18-5.24
		c-1.89-2.36-3.06-5.04-3.53-8.05S103.43,305.08,104.54,302.25z M110.17,304.52c-1.1,2.81-1.04,5.55,0.16,8.23
		c1.21,2.68,3.31,4.61,6.33,5.78c3.36,1.31,6.48,1.14,9.38-0.5c2.26-1.28,3.86-3.13,4.81-5.55c1.07-2.74,0.99-5.46-0.23-8.16
		c-1.23-2.7-3.29-4.62-6.2-5.75c-2.89-1.13-5.71-1.11-8.48,0.05C113.18,299.77,111.26,301.74,110.17,304.52z"/>
	<path class="st2" d="M115.62,278.66l3.55-6.44c2.29-4.15,4.5-6.95,6.64-8.4c2.14-1.45,4.73-2.19,7.76-2.22
		c3.04-0.03,6.1,0.81,9.19,2.51c2.2,1.21,4.02,2.69,5.46,4.44c1.44,1.75,2.42,3.6,2.92,5.55c0.51,1.96,0.58,3.81,0.22,5.57
		c-0.36,1.76-1.56,4.48-3.6,8.18l-3.6,6.53L115.62,278.66z M123.83,276.15l18.01,9.92l1.39-2.52c1.37-2.48,2.08-4.44,2.12-5.88
		c0.05-1.43-0.41-2.88-1.36-4.33c-0.96-1.45-2.42-2.72-4.39-3.81c-3.03-1.67-5.85-2.12-8.45-1.34c-2.34,0.7-4.45,2.74-6.31,6.11
		L123.83,276.15z"/>
	<path class="st2" d="M132.82,248.95l10.14-14.62l4.99,3.46l-6.63,9.56l4.84,3.36l6.63-9.56l4.9,3.4l-6.63,9.56l7.04,4.89l6.63-9.56
		l5.01,3.47l-10.14,14.62L132.82,248.95z"/>
	<path class="st2" d="M157.08,230.05l-3.73,4.45c-2.2-1.81-3.37-4.06-3.52-6.77c-0.15-2.71,0.81-5.3,2.89-7.78
		c1.34-1.6,2.77-2.71,4.3-3.33s3.13-0.81,4.8-0.56c1.67,0.26,3.12,0.9,4.34,1.92c0.67,0.56,1.23,1.22,1.7,1.97
		c0.46,0.76,0.84,1.65,1.13,2.68c0.17,0.6,0.29,1.81,0.37,3.63c0.07,1.73,0.18,2.88,0.34,3.44c0.16,0.56,0.47,1.18,0.94,1.86
		s1.23,1.5,2.28,2.46l-3.86,4.6l-0.78-0.62c-1.52-1.27-2.66-2.7-3.44-4.3c-0.77-1.59-1.18-3.47-1.23-5.62
		c-0.05-2.08-0.16-3.41-0.35-4c-0.19-0.58-0.55-1.09-1.08-1.54c-0.72-0.61-1.59-0.82-2.6-0.64c-1.01,0.18-1.94,0.78-2.8,1.8
		c-0.87,1.04-1.28,2.15-1.23,3.34C155.61,228.23,156.12,229.23,157.08,230.05z M172.99,237.87c0.69-0.83,1.57-1.29,2.62-1.4
		s1.98,0.17,2.79,0.85s1.25,1.54,1.34,2.6c0.09,1.06-0.21,1.99-0.89,2.81c-0.68,0.81-1.55,1.27-2.6,1.36
		c-1.05,0.09-1.98-0.2-2.78-0.87c-0.8-0.67-1.25-1.53-1.34-2.57C172.02,239.6,172.31,238.68,172.99,237.87z"/>
	<path class="st2" d="M191.48,189.08l-0.69,6.09c-2.7-0.58-4.67-0.31-5.91,0.81c-0.6,0.55-0.95,1.15-1.04,1.82
		c-0.09,0.67,0.05,1.21,0.41,1.61c0.37,0.41,0.85,0.66,1.45,0.78c0.81,0.14,2.87,0.16,6.18,0.05c3.08-0.12,4.99-0.16,5.71-0.11
		c1.79,0.1,3.26,0.4,4.43,0.91s2.21,1.27,3.13,2.29c1.79,1.98,2.59,4.24,2.39,6.77c-0.2,2.53-1.41,4.8-3.61,6.79
		c-1.72,1.56-3.6,2.49-5.64,2.8s-4.33-0.02-6.88-1.01l1.76-5.83c3.09,1.08,5.4,0.94,6.91-0.43c0.79-0.71,1.25-1.54,1.37-2.49
		s-0.09-1.72-0.63-2.32c-0.5-0.55-1.19-0.91-2.09-1.09c-0.9-0.18-2.55-0.21-4.96-0.09c-4.58,0.23-7.78,0.12-9.6-0.36
		s-3.26-1.29-4.31-2.45c-1.52-1.68-2.18-3.69-1.98-6.05c0.19-2.35,1.23-4.38,3.1-6.08c1.21-1.09,2.61-1.85,4.21-2.28
		C186.76,188.8,188.87,188.75,191.48,189.08z"/>
	<path class="st2" d="M195.22,180.29l14.19-10.73l3.66,4.84l-9.28,7.02l3.56,4.7l9.28-7.02l3.6,4.75l-9.28,7.02l5.17,6.84l9.28-7.02
		l3.68,4.86l-14.19,10.73L195.22,180.29z"/>
	<path class="st2" d="M229.28,155.94c3.97-2.34,8.24-2.92,12.79-1.73c4.55,1.19,8.05,3.85,10.49,7.99c2.42,4.1,3.05,8.4,1.9,12.9
		c-1.15,4.5-3.73,7.94-7.76,10.31c-4.21,2.48-8.58,3.09-13.08,1.82c-4.51-1.27-7.94-3.91-10.3-7.92c-1.58-2.69-2.39-5.54-2.42-8.55
		c-0.03-3.02,0.71-5.86,2.2-8.51S226.66,157.48,229.28,155.94z M232.3,161.2c-2.6,1.53-4.25,3.72-4.96,6.57
		c-0.71,2.85-0.24,5.67,1.41,8.46c1.83,3.1,4.39,4.9,7.69,5.4c2.56,0.39,4.97-0.07,7.21-1.4c2.53-1.49,4.15-3.68,4.86-6.57
		c0.7-2.88,0.26-5.67-1.32-8.35c-1.58-2.67-3.81-4.4-6.69-5.2C237.61,159.32,234.88,159.69,232.3,161.2z"/>
	<path class="st2" d="M252.2,144.44l5.72-2.46l8.34,19.35c0.72,1.67,1.37,2.78,1.96,3.35c0.59,0.57,1.31,0.91,2.16,1.03
		c0.85,0.12,1.75-0.02,2.7-0.43c1-0.43,1.77-1.04,2.3-1.81c0.53-0.77,0.78-1.58,0.75-2.41c-0.03-0.83-0.48-2.25-1.34-4.26
		l-8.04-18.64l5.72-2.46l7.69,17.84c1.3,3.01,2.03,5.17,2.19,6.49c0.16,1.31,0,2.72-0.49,4.22c-0.49,1.5-1.24,2.78-2.27,3.84
		s-2.36,1.95-4.02,2.66c-2.17,0.94-4.27,1.25-6.31,0.95c-2.04-0.3-3.72-1.06-5.06-2.26c-1.34-1.2-2.78-3.58-4.31-7.15L252.2,144.44z
		"/>
	<path class="st2" d="M281.45,132.55l5.9-1.92l8.26,25.36l8.6-2.8l1.83,5.62l-14.49,4.72L281.45,132.55z"/>
</g>
<g>
	<g>
		<g>
			<path class="st3" d="M273.19,542.12c-10.94-61.62-8.76-87.99,8.76-121.84"/>
			<path class="st3" d="M304.12,545.58c-21.84-44.38-32.7-75-13.41-120.79"/>
			<path class="st3" d="M278.33,417.44c-5.47,2.91-11.85,3.98-17.71,2.26c-5.87-1.72-11.1-6.39-13.27-12.65
				c-2.36-6.79-0.94-14.63,2.26-20.99c3.2-6.36,8-11.53,12.77-16.56c-9.79-8.87-14.48-24.74-9.65-37.65
				c4.83-12.92,19.81-20.56,31.28-14.64c2.16-9.6,6.45-18.6,12.39-26.01c4.05-5.05,9.24-9.54,15.32-10.24s12.9,3.72,13.53,10.42
				c0.41,4.31-1.69,8.49-1.65,12.82c6.65-4.15,14.15-6.65,21.77-7.23c2.54-0.2,5.17-0.17,7.51,0.95c2.99,1.42,5.12,4.45,6.63,7.64
				c7.31,15.42,2.24,34.93-7.39,48.71c7.2,2.03,10.7,11.1,11.59,19.23c0.87,7.97,0.15,16.44-3.63,23.3
				c-3.78,6.86-11.06,11.72-18.26,10.53c1.2,8.28-3.14,16.79-9.54,21.3s-14.48,5.44-21.99,4.1
				C303.3,431.49,296.25,428.06,278.33,417.44z"/>
			<path class="st3" d="M307.54,434.94c-3.36,4.61-5.77,10.07-6.99,15.83c-0.32,1.52-0.55,3.12-0.14,4.61
				c0.24,0.84,0.67,1.59,1.1,2.33c1.32,2.29,2.65,4.58,3.97,6.87c-5.65,5.95-8.85,14.63-8.58,23.24c0.06,1.93,0.35,4,1.59,5.36
				c1.56,1.72,4.06,1.72,6.24,1.41c3.64-0.53,7.22-1.63,10.58-3.27"/>
			<path class="st3" d="M316.99,490.22c-6.57,6.77-9.14,13.39-10.06,16.54c-3.08,10.54-3.68,32.66-3.08,42.12"/>
			<path class="st3" d="M330.13,494.73c-10.12,20.17-10.05,35.05-2.19,56.41"/>
			<path class="st3" d="M316.99,490.22c2.19,15.79,13.79,3.88,13.82,4.67c0.03,0.79,3.08,3.94,3.7,4.35
				c7.43,5.04,15.58,0.92,21.57-6.07c5.99-6.99,6.79-18.7,1.81-26.6c7.55-4.66,13.89-12.03,16.79-21.02s2.06-19.59-3-27.33
				c-5.06-7.74-14.49-12-22.83-9.47"/>
			<path class="st3" d="M368.29,460.35c4.04-2.82,8.62-4.71,13.35-5.5c2.66-0.44,5.56-0.49,7.84,1.07c2.88,1.97,4.04,6.07,3.88,9.8
				c-0.29,6.87-4.15,12.87-8.12,18.17c4.16,1.08,7.69,4.7,8.98,9.19c1.29,4.49,0.29,9.69-2.54,13.22c-2.34,2.92-5.82,4.26-9.12,5.62
				c-2.07,0.85-19.72,5.88-23.97,3.11"/>
			<path class="st3" d="M338.66,501.09c-0.49,2.86-0.69,5.85-0.06,8.68c0.63,2.83,2.18,5.51,4.51,6.88
				c4.33,2.55,9.59,0.02,13.95-2.49c-1.8,9.98-4.34,20.89-0.64,30.21"/>
			<path class="st3" d="M365.17,517.3c-1.22,13.25,3.82,21.79,10.75,32.7"/>
			<path class="st3" d="M433.06,336.79c-19.71-15.79-33.31,12.74-31.12,21.74c-9.05,2.72-18.63,8.83-20.31,19.01
				c-1.86,11.22,7.31,21.59,17.28,24.66c2.19,0.67,4.9,1.63,5.2,4.11c0.12,1-0.22,1.98-0.54,2.92c-2.73,7.89-4.83,17.12-1.05,24.47
				c2.49,4.85,7.2,7.93,12.1,9.32c4.89,1.39,19.96,2.25,25.01,2.07"/>
			<path class="st3" d="M453.05,271.24c-12.54,2.96-21.55,16.3-23.65,30.25c-2.1,13.96,1.57,28.26,6.98,41.08
				c0.52,1.24,1.08,2.58,0.84,3.93c-0.22,1.28-1.11,2.26-1.91,3.22c-5.18,6.17-8.4,14.31-8.99,22.69c-0.18,2.57-0.1,5.27,1.03,7.52
				c0.92,1.83,2.43,3.18,3.94,4.45c5.04,4.27,10.34,8.16,15.85,11.66c-5.49,7.09-7.82,17.02-6.12,26.15
				c1.69,9.13,7.37,17.26,14.94,21.4c-3.06,7.5-0.56,17.25,5.62,21.86c6.18,4.61,15.31,3.55,20.48-2.38"/>
			<path class="st3" d="M446.91,275.59c3.15-1.87,6.41-3.65,9.93-4.32s7.38-0.11,10.19,2.33c2.44,2.12,3.83,5.4,4.59,8.71
				c1,4.34,1.07,8.88,1.01,13.36c-0.07,5.51-0.32,11.03-1.57,16.16l0,0c12.12,0.01,22.57,11.37,25.63,24.3
				c3.07,12.94,0.01,26.81-5.29,38.84c14.79,5.72,22.1,25.42,19.82,42.52s-9.12,44.31-27.8,43.39"/>
			<path class="st3" d="M490,460.89c2.19,4.51,4.38,24.69,4.38,45.13c0,9.03-2.19,31.59-6.57,38.36"/>
			<path class="st3" d="M479.05,467.66c2.92,30.93,0.76,46.44-8.25,75.91"/>
			<path class="st3" d="M428.68,548.88c7.65-38.07,23.37-62.36,10.95-103.79c10.6,17.3,14.66-2.57,17.52,18.05
				c6.57,47.38,2.83,76.04,2.19,76.71"/>
			<path class="st3" d="M249.1,560.17c10.95,2.26,5.62-24.22,18.37-27.44c-2.15,7.99,6.59,10.16,1.34,16.16
				c11.05-4.34,8.69-5.79,17.47-14.37c1.37,7.71-2.14,16.18-8.33,20.07c8.98-1.04,17.46-6.48,22.71-14.58
				c1.09,5.56,3.6,10.77,7.18,14.86c-0.92-6.8,1.91-14.05,7.03-17.98c0.32,8.83,7.07,16.84,15.03,17.85
				c-0.53-6.32,2.91-12.81,8.17-15.39c2.6,5.75,4.88,7.79,3.01,11.8c7.95-0.42,12.84-1.64,15.13-10.05
				c-0.27,3.97,0.4,8.02,1.93,11.63c0.35,0.83,0.98,1.76,1.79,1.58c0.54-0.13,0.88-0.72,1.15-1.26c1.34-2.69,2.68-5.39,4.02-8.08
				c5.72,4.91,13.08,10.08,19.7,6.82c-3.09-4.41-4.42-10.28-3.58-15.78c3.73,8.66,12.59,14.29,21.26,13.49
				c-2.6-3.1-3.44-7.86-2.09-11.82c1.71,2.65,3.46,5.36,5.86,7.25c2.4,1.9,5.6,2.87,10.15,3.85c3.7-4.36,6.58-9.57,8.4-15.2
				c1.37,6.2,1.69,12.68,0.94,19.01c6.27-3.77,10.87-10.76,12.17-18.5c3.04,4.8,6.72,10.03,11.99,10.67
				c-0.15-4.75-0.29-9.5-0.44-14.25c4.73,9.17,13.68,15.52,23.2,16.49c-0.81-2.71-3.17-4.53-4.23-7.13
				c-1.05-2.61,0.8-6.79,3.16-5.62c0.76,0.38,1.24,1.21,1.73,1.96c3.33,5.18,8.82,8.6,14.56,9.07c1.83-4.06,4.25-7.8,7.14-11.03
				c0.79,4.84,2.04,9.6,3.74,14.15c5.42-1.84,6.66-9.5,8.79-15.3c3.2,3.03,3.51,13.63,2.19,18.05c7.23-4.35,17.12-14.35,19.36-23.08
				c-0.63,7.52-6.15,29.75,0.35,32.11"/>
			<path class="st3" d="M392.6,302.7"/>
			<path class="st3" d="M400.36,273.37"/>
			<path class="st3" d="M393.37,332.58"/>
		</g>
		<line class="st3" x1="251.29" y1="560.17" x2="529.53" y2="560.82"/>
	</g>
	<circle class="st3" cx="392.79" cy="278.38" r="13.67"/>
	<line class="st3" x1="363.19" y1="255.61" x2="372.3" y2="264.72"/>
	<line class="st3" x1="390.52" y1="241.94" x2="390.52" y2="255.61"/>
	<line class="st3" x1="395.07" y1="301.16" x2="397.35" y2="317.1"/>
	<line class="st3" x1="408.74" y1="262.44" x2="417.85" y2="253.33"/>
	<line class="st3" x1="408.74" y1="294.33" x2="420.12" y2="298.88"/>
	<line class="st3" x1="356.35" y1="282.94" x2="370.08" y2="281.08"/>
	<line class="st3" x1="379.13" y1="296.6" x2="370.02" y2="307.99"/>
	<line class="st3" x1="413.29" y1="276.1" x2="426.96" y2="273.83"/>
</g>
<path class="st4" d="M547.66,519.18c-13.24,5.23-30.1-4.15-30.1-4.15s4.61-17.88,17.85-23.11c13.24-5.24,30.1,4.15,30.1,4.15
	S560.91,513.95,547.66,519.18z"/>
<path class="st4" d="M525.08,482.49c3.49,9.77-5.11,21.36-5.11,21.36s-14.27-4.26-17.77-14.04s5.11-21.36,5.11-21.36
	S521.59,472.71,525.08,482.49z"/>
</svg>
