<?xml version="1.0" encoding="utf-8"?>
<!-- Generator: Adobe Illustrator 27.4.0, SVG Export Plug-In . SVG Version: 6.00 Build 0)  -->
<svg version="1.1" id="레이어_1" xmlns="http://www.w3.org/2000/svg" xmlns:xlink="http://www.w3.org/1999/xlink" x="0px"
	 y="0px" viewBox="0 0 762.52 822.05" style="enable-background:new 0 0 762.52 822.05;" xml:space="preserve">
<style type="text/css">
	.st0{fill:none;stroke:#463C33;stroke-width:3.7343;stroke-miterlimit:10;}
	.st1{fill:none;stroke:#463C33;stroke-width:2.9231;stroke-miterlimit:10;}
	.st2{fill:none;stroke:#463C33;stroke-width:2.6294;stroke-miterlimit:10;}
	.st3{fill:none;stroke:#463C33;stroke-width:2.7692;stroke-linecap:round;stroke-linejoin:round;stroke-dasharray:2.9969,5.9937;}
	.st4{fill:none;}
	.st5{fill:none;stroke:#463C33;stroke-width:4;stroke-linecap:round;stroke-linejoin:round;stroke-miterlimit:10;}
	.st6{fill:#ABB868;}
</style>
<g>
	<circle class="st0" cx="381.26" cy="411.02" r="320.29"/>
	<circle class="st1" cx="381.26" cy="411.02" r="250.71"/>
	<circle class="st2" cx="381.26" cy="411.02" r="225.52"/>
	<g>
		<circle class="st3" cx="381.26" cy="411.02" r="237.52"/>
	</g>
	<path id="SVGID_x5F_1_x5F_" class="st4" d="M642.93,411.56c0,144.43-117.08,261.51-261.51,261.51S119.91,555.99,119.91,411.56
		s117.08-261.51,261.51-261.51S642.93,267.13,642.93,411.56z"/>
	<text>	<textPath  xlink:href="#SVGID_x5F_1_x5F_" startOffset="96.289%">
<tspan  style="fill:#463C33; font-family:'CenturyGothic-Bold'; font-size:45.5845px;">ODE? SEOUL ODE? SEOUL ODE? SEOUL ODE? SEOUL ODE? SEOUL ODE? SEOUL</tspan>	</textPath>
</text>
	<g>
		<g>
			<line class="st5" x1="236" y1="552.6" x2="236" y2="429.36"/>
			<polyline class="st5" points="217.03,427.66 281.15,427.66 248.98,373.21 217.03,427.66 			"/>
			<line class="st5" x1="266.29" y1="429.36" x2="266.29" y2="472.49"/>
			<polyline class="st5" points="281.63,472.49 281.63,440.26 308.24,440.26 316.13,440.26 316.13,450.92 337.63,450.92 
				337.63,440.26 372.38,440.18 372.38,472.73 			"/>
			<line class="st5" x1="308.24" y1="390.49" x2="308.24" y2="440.26"/>
			<line class="st5" x1="341.18" y1="390.49" x2="341.18" y2="437.89"/>
			<polygon class="st5" points="300.87,390.11 347.86,390.69 325.97,344.98 			"/>
			<polygon class="st5" points="378.55,425.65 391.13,426.21 453.76,427.66 416.43,373.21 			"/>
			<line class="st5" x1="395.78" y1="426.42" x2="395.78" y2="472.49"/>
			<line class="st5" x1="438.27" y1="429.36" x2="438.96" y2="555.36"/>
			<polyline class="st5" points="426.2,512.78 378.55,512.31 402.67,489.08 402.67,472.49 371.73,472.49 371.73,493.35 
				344.45,493.35 344.45,472.49 314.82,472.49 314.82,495.57 289.9,495.57 289.4,472.49 252.39,472.49 251.56,555.36 			"/>
			<line class="st5" x1="426.63" y1="512.8" x2="402.67" y2="489.08"/>
			<line class="st5" x1="387.88" y1="515.49" x2="387.18" y2="555.36"/>
			<path class="st5" d="M416.43,512.75c0.43,3.8,1.82,37.31,2.81,42.61"/>
			<path class="st5" d="M236.76,555.36h282.16l19.09,0c0.41-17.06,0.43-34.14,0.33-51.2c-0.15-26.17-0.7-52.35-2.06-78.48
				c-2.77-53.26-10.09-107.64-28.71-157.75c-1.9-5.1-5.4-9.19-10.03-11.91c-3.46-2.04-12.46-7.28-16.16-3.51
				c-0.71,0.72-1.09,1.69-1.46,2.63c-6.53,16.63-13.22,33.18-19.78,49.8c-2.99,7.57-5.96,15.14-8.82,22.75
				c-10.49,27.92-12.36,48.11-12.36,77.44"/>
			<path class="st5" d="M521.75,551.5c0,0-3.87-125.85-5.35-150.32c0,0,1.82-61.09-12.54-99.42c-0.29-0.77-0.59-1.54-0.89-2.29
				c-15.32-38.13-15.32-45.12-18.73-48.62"/>
			<line class="st5" x1="466.01" y1="296.23" x2="501.68" y2="296.23"/>
			<path class="st5" d="M445.13,358.81c6.82,0,66.58,0,66.58,0"/>
			<line class="st5" x1="442.66" y1="386.35" x2="514.17" y2="386.35"/>
			<path class="st5" d="M452.52,421.41c-4.45-0.37,64.11,0,64.11,0"/>
			<line class="st5" x1="440.19" y1="456.46" x2="519.1" y2="456.46"/>
			<line class="st5" x1="440.19" y1="491.51" x2="519.1" y2="491.51"/>
			<line class="st5" x1="440.19" y1="529.07" x2="519.1" y2="529.07"/>
			<path class="st5" d="M467.32,298.72c3.41,3.5,0,255.39,0,255.39"/>
			<line class="st5" x1="491.98" y1="298.72" x2="494.44" y2="554.11"/>
		</g>
		<path class="st5" d="M356.61,552.86v-34.1c-28.11-26.59-55.17,0-55.17,0v34.1"/>
	</g>
	<path class="st6" d="M259.23,362.3c15.07,8.87,37.38-1.11,37.38-1.11s-2.12-24.35-17.19-33.21c-15.07-8.87-37.38,1.11-37.38,1.11
		S244.16,353.44,259.23,362.3z"/>
	<path class="st6" d="M293.8,317c-6.15,12.43,2.06,29.03,2.06,29.03s18.17-3.56,24.31-15.99c6.15-12.43-2.06-29.03-2.06-29.03
		S299.94,304.57,293.8,317z"/>
</g>
</svg>
