<?xml version="1.0" encoding="utf-8"?>
<!-- Generator: Adobe Illustrator 27.4.0, SVG Export Plug-In . SVG Version: 6.00 Build 0)  -->
<svg version="1.1" id="레이어_1" xmlns="http://www.w3.org/2000/svg" xmlns:xlink="http://www.w3.org/1999/xlink" x="0px"
	 y="0px" viewBox="0 0 762.52 822.05" style="enable-background:new 0 0 762.52 822.05;" xml:space="preserve">
<style type="text/css">
	.st0{fill:none;stroke:#463C33;stroke-width:3.7343;stroke-miterlimit:10;}
	.st1{fill:none;stroke:#463C33;stroke-width:2.9231;stroke-miterlimit:10;}
	.st2{fill:none;stroke:#463C33;stroke-width:2.6294;stroke-miterlimit:10;}
	.st3{fill:none;stroke:#463C33;stroke-width:2.7692;stroke-linecap:round;stroke-linejoin:round;stroke-dasharray:2.9969,5.9937;}
	.st4{fill:#463C33;}
	.st5{fill:none;stroke:#463C33;stroke-width:4;stroke-linecap:round;stroke-linejoin:round;stroke-miterlimit:10;}
	.st6{fill:#ABB868;}
</style>
<circle class="st0" cx="381.26" cy="411.02" r="320.29"/>
<circle class="st1" cx="381.26" cy="411.02" r="250.71"/>
<circle class="st2" cx="381.26" cy="411.02" r="225.52"/>
<g>
	<circle class="st3" cx="381.26" cy="411.02" r="237.52"/>
</g>
<g>
	<path class="st4" d="M349.14,118.23c4.6-0.5,8.75,0.73,12.42,3.7c3.68,2.97,5.78,6.86,6.3,11.65c0.52,4.75-0.68,8.95-3.59,12.59
		c-2.91,3.65-6.7,5.72-11.36,6.23c-4.89,0.53-9.13-0.71-12.73-3.74c-3.6-3.02-5.66-6.86-6.16-11.51c-0.34-3.11,0.1-6.06,1.32-8.83
		s3.07-5.07,5.53-6.88C343.35,119.64,346.1,118.56,349.14,118.23z M349.74,124.3c-3.01,0.33-5.43,1.65-7.25,3.97
		c-1.82,2.32-2.56,5.09-2.21,8.32c0.39,3.6,2,6.31,4.81,8.12c2.19,1.42,4.58,1.99,7.18,1.7c2.94-0.32,5.33-1.66,7.16-4.01
		c1.84-2.35,2.58-5.08,2.24-8.19c-0.34-3.1-1.67-5.61-3.98-7.52C355.37,124.77,352.72,123.98,349.74,124.3z"/>
	<path class="st4" d="M375.21,117.12l7.38,0.15c4.76,0.1,8.28,0.76,10.57,1.98c2.29,1.23,4.16,3.18,5.6,5.87
		c1.44,2.69,2.13,5.8,2.06,9.35c-0.05,2.52-0.52,4.83-1.4,6.93c-0.88,2.1-2.07,3.83-3.57,5.19c-1.5,1.37-3.12,2.3-4.85,2.8
		s-4.71,0.71-8.95,0.62l-7.49-0.15L375.21,117.12z M381.28,123.25l-0.41,20.65l2.89,0.06c2.85,0.06,4.92-0.23,6.22-0.86
		c1.3-0.63,2.37-1.71,3.21-3.23c0.85-1.53,1.29-3.42,1.34-5.68c0.07-3.48-0.85-6.19-2.75-8.15c-1.72-1.76-4.51-2.68-8.38-2.75
		L381.28,123.25z"/>
	<path class="st4" d="M409.65,118.53l17.74,2.18l-0.75,6.05l-11.6-1.43l-0.72,5.88l11.6,1.43l-0.73,5.94l-11.6-1.43l-1.05,8.55
		l11.6,1.43l-0.75,6.08l-17.74-2.18L409.65,118.53z"/>
	<path class="st4" d="M437.8,131.27l-5.7-1.24c0.58-2.8,2.04-4.9,4.38-6.3c2.34-1.4,5.1-1.76,8.27-1.06c2.04,0.44,3.7,1.2,4.97,2.27
		s2.18,2.4,2.74,4.01c0.55,1.61,0.66,3.2,0.32,4.76c-0.19,0.86-0.51,1.67-0.96,2.43c-0.46,0.77-1.08,1.52-1.86,2.26
		c-0.46,0.43-1.48,1.11-3.06,2.02c-1.51,0.87-2.48,1.51-2.9,1.91c-0.42,0.4-0.83,0.97-1.21,1.71s-0.76,1.79-1.12,3.17l-5.89-1.28
		l0.19-0.98c0.42-1.94,1.16-3.63,2.22-5.06c1.06-1.43,2.53-2.67,4.43-3.72c1.83-1.01,2.96-1.74,3.39-2.18
		c0.43-0.44,0.72-1,0.87-1.68c0.2-0.93-0.01-1.8-0.65-2.61c-0.64-0.81-1.61-1.36-2.91-1.65c-1.33-0.29-2.51-0.13-3.54,0.47
		C438.74,129.11,438.08,130.03,437.8,131.27z M438.28,149.07c1.06,0.23,1.88,0.79,2.47,1.68s0.77,1.85,0.55,2.88
		c-0.22,1.03-0.79,1.83-1.68,2.4c-0.9,0.57-1.87,0.74-2.91,0.52s-1.85-0.79-2.42-1.68c-0.57-0.89-0.75-1.85-0.52-2.88
		c0.22-1.03,0.78-1.83,1.66-2.4C436.29,149.02,437.25,148.85,438.28,149.07z"/>
	<path class="st4" d="M490.35,142.78l-5.74,2.22c-0.74-2.68-1.9-4.31-3.47-4.89c-0.77-0.28-1.47-0.31-2.11-0.08
		c-0.64,0.23-1.05,0.6-1.25,1.12c-0.19,0.52-0.2,1.07-0.02,1.65c0.25,0.79,1.19,2.63,2.83,5.53c1.54,2.69,2.46,4.37,2.75,5.03
		c0.74,1.64,1.16,3.09,1.25,4.37c0.09,1.28-0.1,2.56-0.58,3.85c-0.93,2.52-2.57,4.28-4.92,5.28c-2.35,1-4.92,0.98-7.72-0.05
		c-2.19-0.81-3.9-2.05-5.12-3.72c-1.23-1.67-2-3.87-2.3-6.59l6.01-1.15c0.48,3.26,1.67,5.25,3.6,5.96c1,0.37,1.96,0.39,2.85,0.06
		c0.9-0.33,1.49-0.88,1.77-1.65c0.26-0.7,0.26-1.49,0-2.37c-0.26-0.89-1-2.37-2.23-4.45c-2.34-3.96-3.72-6.87-4.15-8.71
		c-0.43-1.84-0.37-3.5,0.17-4.98c0.79-2.13,2.27-3.66,4.46-4.58c2.19-0.92,4.47-0.95,6.85-0.07c1.53,0.57,2.86,1.46,3.99,2.68
		C488.41,138.46,489.43,140.31,490.35,142.78z"/>
	<path class="st4" d="M499.96,142.05l16.15,7.65l-2.61,5.51l-10.56-5l-2.54,5.35l10.56,5l-2.56,5.41l-10.56-5l-3.69,7.78l10.56,5
		l-2.62,5.53l-16.15-7.65L499.96,142.05z"/>
	<path class="st4" d="M537.46,161.07c3.93,2.45,6.42,5.98,7.48,10.59c1.05,4.61,0.3,8.96-2.25,13.05
		c-2.53,4.05-6.06,6.61-10.61,7.68c-4.54,1.07-8.8,0.36-12.78-2.12c-4.17-2.6-6.74-6.2-7.7-10.81s-0.2-8.89,2.27-12.85
		c1.66-2.66,3.82-4.7,6.5-6.12c2.67-1.43,5.54-2.09,8.6-1.99C532.04,158.6,534.87,159.46,537.46,161.07z M534.18,166.21
		c-2.57-1.6-5.29-2.06-8.16-1.36c-2.87,0.69-5.16,2.42-6.88,5.18c-1.92,3.07-2.33,6.19-1.24,9.35c0.84,2.47,2.37,4.39,4.59,5.78
		c2.51,1.56,5.21,1.99,8.11,1.28c2.9-0.71,5.17-2.4,6.83-5.05c1.65-2.64,2.16-5.44,1.52-8.38
		C538.31,170.07,536.72,167.8,534.18,166.21z"/>
	<path class="st4" d="M558.35,176.16l4.85,3.95l-13.36,16.43c-1.15,1.42-1.84,2.52-2.07,3.3c-0.23,0.79-0.2,1.59,0.08,2.4
		c0.28,0.81,0.83,1.55,1.64,2.2c0.85,0.69,1.75,1.09,2.68,1.2c0.93,0.11,1.76-0.04,2.49-0.45c0.73-0.41,1.78-1.47,3.17-3.17
		l12.87-15.82l4.85,3.95l-12.31,15.15c-2.08,2.56-3.66,4.21-4.76,4.97c-1.09,0.76-2.42,1.27-3.98,1.53
		c-1.56,0.26-3.05,0.18-4.47-0.24c-1.42-0.42-2.83-1.2-4.24-2.34c-1.84-1.5-3.1-3.22-3.78-5.18c-0.68-1.96-0.79-3.81-0.34-5.56
		c0.45-1.75,1.9-4.14,4.36-7.17L558.35,176.16z"/>
	<path class="st4" d="M582.5,196.64l4.46,4.35l-18.72,19.17l6.5,6.35l-4.15,4.25l-10.96-10.7L582.5,196.64z"/>
	<path class="st4" d="M617.84,234.97c2.78,3.71,3.82,7.9,3.13,12.58c-0.69,4.68-2.96,8.46-6.82,11.35
		c-3.83,2.86-8.05,3.97-12.67,3.32s-8.33-2.85-11.15-6.61c-2.94-3.94-4.03-8.22-3.26-12.86c0.77-4.64,3.03-8.36,6.77-11.16
		c2.51-1.88,5.27-2.99,8.28-3.35c3.01-0.36,5.92,0.06,8.74,1.26S616.01,232.52,617.84,234.97z M612.92,238.57
		c-1.82-2.43-4.19-3.83-7.11-4.23c-2.92-0.39-5.69,0.39-8.29,2.33c-2.9,2.17-4.41,4.93-4.54,8.27c-0.11,2.6,0.62,4.95,2.19,7.05
		c1.77,2.37,4.13,3.74,7.09,4.13c2.96,0.38,5.69-0.36,8.2-2.24c2.5-1.87,3.98-4.29,4.45-7.26
		C615.38,243.66,614.72,240.97,612.92,238.57z"/>
	<path class="st4" d="M632.09,256.9l3.62,6.44c2.33,4.15,3.55,7.52,3.66,10.11s-0.63,5.19-2.21,7.8c-1.58,2.61-3.92,4.78-7.01,6.52
		c-2.2,1.24-4.43,2.01-6.68,2.31c-2.25,0.31-4.35,0.16-6.29-0.44c-1.94-0.6-3.56-1.52-4.87-2.76s-3-3.7-5.08-7.4l-3.67-6.53
		L632.09,256.9z M629.89,265.24l-18,10.12l1.42,2.52c1.4,2.48,2.69,4.12,3.89,4.92s2.67,1.17,4.42,1.13
		c1.75-0.05,3.6-0.62,5.57-1.73c3.03-1.7,4.9-3.87,5.62-6.51c0.64-2.37,0.02-5.24-1.88-8.62L629.89,265.24z"/>
	<path class="st4" d="M648.35,287.32l7.1,16.4l-5.6,2.42l-4.64-10.72l-5.43,2.35l4.64,10.72l-5.5,2.38l-4.64-10.72l-7.9,3.42
		l4.64,10.72l-5.62,2.43l-7.1-16.4L648.35,287.32z"/>
	<path class="st4" d="M636.52,327.5c0.34,1.03,0.27,2.02-0.19,2.98c-0.47,0.96-1.2,1.6-2.2,1.93c-1,0.33-1.98,0.25-2.92-0.24
		c-0.95-0.49-1.59-1.24-1.92-2.25c-0.33-1.02-0.26-2,0.22-2.94s1.22-1.58,2.22-1.91c1-0.33,1.97-0.25,2.91,0.22
		C635.56,325.76,636.2,326.49,636.52,327.5z M651.64,318.07l-1.81-5.54c2.71-0.92,5.25-0.72,7.65,0.59s4.09,3.51,5.1,6.6
		c0.65,1.99,0.84,3.8,0.56,5.44c-0.28,1.64-0.97,3.1-2.08,4.39s-2.42,2.19-3.95,2.69c-0.83,0.27-1.69,0.41-2.58,0.4
		c-0.89,0-1.86-0.16-2.89-0.46c-0.6-0.18-1.7-0.72-3.29-1.62c-1.52-0.86-2.55-1.37-3.11-1.53c-0.56-0.16-1.26-0.22-2.09-0.18
		c-0.83,0.04-1.93,0.25-3.3,0.64l-1.88-5.73l0.94-0.33c1.89-0.62,3.72-0.84,5.49-0.65c1.77,0.19,3.59,0.83,5.45,1.94
		c1.8,1.07,3,1.67,3.59,1.82c0.59,0.15,1.22,0.11,1.89-0.1c0.9-0.3,1.54-0.92,1.92-1.88c0.38-0.96,0.36-2.07-0.05-3.34
		c-0.42-1.3-1.16-2.24-2.19-2.82C653.97,317.79,652.85,317.69,651.64,318.07z"/>
	<path class="st4" d="M668.29,369.19l-4.82-3.83c1.94-1.99,2.75-3.81,2.46-5.47c-0.14-0.8-0.48-1.42-1-1.86s-1.05-0.6-1.59-0.51
		c-0.54,0.1-1.02,0.37-1.44,0.82c-0.55,0.61-1.67,2.36-3.34,5.24c-1.54,2.69-2.52,4.33-2.94,4.92c-1.03,1.47-2.08,2.56-3.13,3.29
		c-1.05,0.72-2.26,1.21-3.62,1.45c-2.64,0.47-4.99-0.05-7.04-1.57c-2.05-1.52-3.34-3.75-3.86-6.69c-0.41-2.3-0.21-4.4,0.62-6.3
		s2.33-3.68,4.52-5.32l4.03,4.6c-2.57,2.06-3.68,4.1-3.32,6.12c0.19,1.05,0.65,1.88,1.4,2.49c0.74,0.61,1.51,0.84,2.32,0.7
		c0.73-0.13,1.41-0.53,2.05-1.2c0.63-0.67,1.54-2.06,2.71-4.18c2.24-4.02,4.04-6.69,5.41-7.99c1.37-1.3,2.83-2.09,4.38-2.37
		c2.24-0.4,4.3,0.11,6.21,1.53c1.9,1.42,3.08,3.38,3.53,5.88c0.29,1.61,0.19,3.21-0.3,4.8
		C671.04,365.33,669.96,367.14,668.29,369.19z"/>
	<path class="st4" d="M673.79,377.11l1.58,17.8l-6.07,0.54l-1.04-11.64l-5.9,0.52l1.04,11.64l-5.96,0.53l-1.04-11.64l-8.58,0.76
		l1.04,11.64l-6.1,0.54l-1.58-17.8L673.79,377.11z"/>
	<path class="st4" d="M676.41,419.01c-0.11,4.63-1.89,8.57-5.32,11.82c-3.43,3.25-7.56,4.82-12.38,4.7c-4.78-0.12-8.78-1.86-12-5.23
		c-3.23-3.37-4.78-7.4-4.67-12.09c0.12-4.91,1.92-8.95,5.4-12.12c3.48-3.17,7.55-4.69,12.23-4.58c3.13,0.08,5.99,0.9,8.58,2.48
		c2.59,1.58,4.62,3.71,6.09,6.4C675.79,413.08,676.48,415.95,676.41,419.01z M670.31,418.79c0.08-3.03-0.92-5.6-2.97-7.72
		c-2.06-2.12-4.71-3.21-7.96-3.29c-3.62-0.09-6.51,1.14-8.68,3.69c-1.7,1.98-2.58,4.27-2.64,6.89c-0.07,2.95,0.93,5.5,3.02,7.63
		s4.69,3.24,7.82,3.31c3.12,0.08,5.78-0.91,7.99-2.95C669.1,424.31,670.24,421.79,670.31,418.79z"/>
	<path class="st4" d="M674.04,444.67l-0.93,6.18l-20.94-3.15c-1.8-0.27-3.1-0.3-3.9-0.1c-0.8,0.2-1.47,0.63-2.03,1.29
		c-0.56,0.66-0.91,1.5-1.07,2.53c-0.16,1.08-0.05,2.06,0.33,2.92c0.38,0.86,0.93,1.5,1.66,1.92c0.72,0.42,2.17,0.79,4.34,1.11
		l20.17,3.03l-0.93,6.19l-19.3-2.9c-3.26-0.49-5.49-1.01-6.7-1.57s-2.32-1.44-3.34-2.65s-1.71-2.53-2.07-3.97
		c-0.36-1.44-0.41-3.05-0.14-4.84c0.35-2.35,1.2-4.31,2.54-5.89c1.34-1.58,2.88-2.62,4.61-3.12c1.73-0.5,4.53-0.47,8.39,0.11
		L674.04,444.67z"/>
	<path class="st4" d="M668.68,475.9l-1.49,6.05l-26.02-6.4l-2.17,8.82l-5.77-1.42l3.66-14.87L668.68,475.9z"/>
	<path class="st4" d="M653.54,525.86c-1.79,4.27-4.88,7.29-9.27,9.07c-4.38,1.77-8.8,1.73-13.24-0.14c-4.41-1.85-7.5-4.93-9.27-9.25
		c-1.78-4.31-1.76-8.63,0.06-12.96c1.9-4.53,5.05-7.64,9.44-9.32s8.74-1.62,13.05,0.19c2.89,1.21,5.25,3.03,7.08,5.44
		c1.83,2.41,2.95,5.14,3.34,8.18C655.12,520.11,654.72,523.04,653.54,525.86z M647.94,523.43c1.17-2.79,1.19-5.55,0.05-8.27
		s-3.21-4.71-6.21-5.97c-3.34-1.4-6.48-1.31-9.43,0.27c-2.3,1.22-3.96,3.04-4.97,5.45c-1.15,2.73-1.14,5.46,0.03,8.21
		s3.19,4.72,6.08,5.94c2.87,1.21,5.71,1.26,8.51,0.17C644.8,528.13,646.78,526.2,647.94,523.43z"/>
	<path class="st4" d="M641.82,549.25l-3.72,6.38c-2.4,4.11-4.69,6.86-6.88,8.27c-2.18,1.4-4.8,2.08-7.85,2.03s-6.1-0.96-9.17-2.75
		c-2.18-1.27-3.97-2.8-5.37-4.59c-1.4-1.79-2.34-3.67-2.8-5.65c-0.46-1.98-0.49-3.84-0.08-5.6c0.41-1.75,1.68-4.46,3.82-8.12
		l3.78-6.47L641.82,549.25z M633.51,551.56l-17.84-10.42l-1.46,2.5c-1.44,2.46-2.2,4.41-2.28,5.85c-0.08,1.44,0.34,2.9,1.26,4.38
		c0.92,1.48,2.36,2.79,4.31,3.93c3,1.75,5.82,2.27,8.46,1.56c2.37-0.64,4.53-2.64,6.49-5.98L633.51,551.56z"/>
	<path class="st4" d="M623.8,578.64l-10.56,14.42l-4.92-3.6l6.9-9.43l-4.78-3.5l-6.9,9.43l-4.83-3.54l6.9-9.43l-6.95-5.09l-6.9,9.43
		l-4.94-3.62l10.55-14.42L623.8,578.64z"/>
	<path class="st4" d="M583.17,588.77c-0.72,0.81-1.61,1.26-2.67,1.34c-1.06,0.08-1.99-0.22-2.78-0.92s-1.22-1.58-1.28-2.64
		c-0.06-1.06,0.26-2,0.97-2.8c0.71-0.8,1.59-1.24,2.65-1.3s1.98,0.25,2.77,0.95c0.79,0.7,1.22,1.57,1.28,2.62
		C584.19,587.06,583.87,587.98,583.17,588.77z M598.96,597.02l3.86-4.37c2.16,1.87,3.29,4.16,3.37,6.89
		c0.08,2.73-0.95,5.31-3.1,7.74c-1.38,1.57-2.85,2.65-4.4,3.24c-1.55,0.59-3.16,0.74-4.84,0.44c-1.67-0.3-3.11-0.98-4.31-2.04
		c-0.66-0.58-1.21-1.25-1.66-2.03c-0.45-0.77-0.8-1.68-1.07-2.72c-0.15-0.61-0.25-1.83-0.28-3.66c-0.03-1.74-0.11-2.9-0.26-3.46
		c-0.15-0.56-0.45-1.19-0.9-1.89s-1.2-1.54-2.22-2.53l3.99-4.52l0.77,0.65c1.49,1.32,2.61,2.78,3.34,4.4
		c0.74,1.62,1.1,3.51,1.09,5.68c0,2.09,0.08,3.43,0.25,4.02c0.17,0.59,0.52,1.11,1.04,1.58c0.71,0.63,1.58,0.86,2.6,0.7
		c1.02-0.16,1.97-0.74,2.86-1.74c0.9-1.02,1.34-2.13,1.32-3.32C600.38,598.89,599.9,597.87,598.96,597.02z"/>
	<path class="st4" d="M563.38,637.31l0.84-6.1c2.7,0.65,4.69,0.43,5.96-0.66c0.62-0.53,0.98-1.13,1.09-1.81s-0.02-1.21-0.37-1.63
		c-0.36-0.42-0.84-0.69-1.44-0.82c-0.81-0.17-2.88-0.24-6.21-0.21c-3.1,0.04-5.01,0.03-5.73-0.03c-1.79-0.14-3.26-0.49-4.42-1.02
		c-1.16-0.54-2.19-1.33-3.09-2.38c-1.75-2.04-2.49-4.32-2.23-6.86s1.53-4.78,3.8-6.73c1.77-1.52,3.68-2.41,5.74-2.67
		s4.35,0.13,6.88,1.19l-1.91,5.81c-3.08-1.17-5.4-1.08-6.95,0.25c-0.81,0.7-1.29,1.52-1.44,2.47c-0.15,0.95,0.05,1.73,0.58,2.35
		c0.48,0.56,1.18,0.95,2.08,1.15c0.9,0.2,2.56,0.28,4.98,0.21c4.6-0.12,7.81,0.08,9.63,0.6c1.82,0.52,3.24,1.38,4.27,2.57
		c1.48,1.72,2.09,3.76,1.84,6.12c-0.25,2.36-1.34,4.37-3.27,6.03c-1.24,1.07-2.67,1.79-4.28,2.18S566,637.7,563.38,637.31z"/>
	<path class="st4" d="M559.39,646.05l-14.52,10.42l-3.56-4.96l9.49-6.81l-3.45-4.81l-9.49,6.81l-3.49-4.86l9.49-6.81l-5.02-7
		l-9.49,6.81l-3.57-4.97l14.52-10.42L559.39,646.05z"/>
	<path class="st4" d="M524.59,669.63c-4.05,2.25-8.34,2.72-12.89,1.41c-4.54-1.31-7.99-4.07-10.33-8.29
		c-2.32-4.18-2.85-8.51-1.58-13c1.27-4.49,3.95-7.88,8.05-10.16c4.3-2.39,8.69-2.89,13.18-1.5s7.88,4.13,10.15,8.21
		c1.52,2.74,2.26,5.62,2.21,8.65c-0.05,3.03-0.86,5.86-2.43,8.49S527.26,668.14,524.59,669.63z M521.68,664.27
		c2.65-1.47,4.36-3.63,5.14-6.48s0.38-5.69-1.2-8.53c-1.76-3.16-4.29-5.04-7.58-5.61c-2.57-0.46-4.99-0.05-7.28,1.22
		c-2.58,1.44-4.26,3.59-5.04,6.47s-0.41,5.69,1.11,8.42c1.51,2.72,3.71,4.52,6.59,5.39S519.06,665.73,521.68,664.27z"/>
	<path class="st4" d="M501.24,680.61l-5.8,2.33l-7.89-19.65c-0.68-1.69-1.31-2.83-1.88-3.41c-0.58-0.58-1.29-0.95-2.14-1.09
		c-0.85-0.15-1.76-0.03-2.72,0.36c-1.02,0.41-1.8,1-2.35,1.76c-0.55,0.76-0.82,1.56-0.81,2.4s0.42,2.27,1.24,4.31l7.6,18.93
		l-5.8,2.33l-7.27-18.12c-1.23-3.06-1.91-5.25-2.04-6.57c-0.13-1.32,0.07-2.73,0.6-4.22c0.53-1.49,1.32-2.76,2.37-3.79
		c1.05-1.04,2.42-1.9,4.1-2.57c2.2-0.88,4.32-1.15,6.36-0.79s3.71,1.16,5.03,2.4c1.31,1.24,2.7,3.67,4.15,7.29L501.24,680.61z"/>
	<path class="st4" d="M471.58,691.81l-5.97,1.78l-7.65-25.68l-8.7,2.59l-1.7-5.7l14.68-4.37L471.58,691.81z"/>
	<path class="st4" d="M420.87,704.02c-4.59,0.62-8.76-0.52-12.51-3.4c-3.75-2.88-5.94-6.71-6.58-11.49
		c-0.63-4.74,0.46-8.96,3.28-12.68c2.82-3.72,6.56-5.89,11.21-6.51c4.87-0.65,9.14,0.49,12.82,3.43c3.67,2.94,5.82,6.72,6.44,11.35
		c0.42,3.1,0.05,6.06-1.11,8.86s-2.94,5.14-5.36,7.02S423.9,703.61,420.87,704.02z M420.12,697.96c3-0.4,5.39-1.79,7.16-4.15
		s2.43-5.15,2-8.38c-0.48-3.59-2.15-6.25-5-8c-2.22-1.36-4.63-1.87-7.22-1.53c-2.93,0.39-5.28,1.79-7.06,4.18
		c-1.78,2.39-2.46,5.14-2.04,8.25c0.41,3.09,1.8,5.56,4.16,7.43C414.48,697.63,417.15,698.36,420.12,697.96z"/>
	<path class="st4" d="M395.1,705.61l-7.38,0.12c-4.76,0.08-8.3-0.46-10.64-1.6c-2.33-1.14-4.27-3.03-5.81-5.66s-2.34-5.72-2.4-9.27
		c-0.04-2.52,0.34-4.85,1.14-6.98c0.8-2.13,1.93-3.9,3.38-5.32c1.45-1.42,3.03-2.41,4.74-2.97c1.71-0.56,4.69-0.88,8.93-0.95
		l7.49-0.12L395.1,705.61z M388.82,699.7l-0.33-20.65l-2.89,0.05c-2.85,0.05-4.91,0.41-6.18,1.08c-1.27,0.67-2.3,1.79-3.1,3.35
		s-1.17,3.47-1.13,5.72c0.06,3.48,1.07,6.16,3.05,8.04c1.78,1.69,4.6,2.51,8.48,2.45L388.82,699.7z"/>
	<path class="st4" d="M360.33,705.18l-17.79-1.75l0.6-6.07l11.63,1.15l0.58-5.89l-11.63-1.14l0.59-5.96l11.63,1.15l0.84-8.57
		l-11.63-1.14l0.6-6.09l17.79,1.75L360.33,705.18z"/>
	<path class="st4" d="M331.88,693.13l5.73,1.1c-0.51,2.81-1.92,4.95-4.22,6.4c-2.3,1.46-5.05,1.88-8.24,1.27
		c-2.05-0.39-3.73-1.11-5.03-2.14c-1.3-1.04-2.24-2.35-2.84-3.94c-0.59-1.59-0.74-3.18-0.44-4.75c0.17-0.86,0.47-1.68,0.9-2.46
		s1.04-1.55,1.8-2.31c0.45-0.44,1.45-1.14,3.01-2.1c1.49-0.91,2.44-1.57,2.85-1.98c0.41-0.41,0.8-0.99,1.17-1.74
		c0.37-0.74,0.72-1.81,1.04-3.2l5.92,1.14l-0.17,0.99c-0.38,1.95-1.07,3.66-2.09,5.12c-1.02,1.46-2.47,2.73-4.34,3.83
		c-1.8,1.06-2.92,1.81-3.33,2.26c-0.42,0.45-0.69,1.02-0.82,1.7c-0.18,0.93,0.06,1.8,0.71,2.6c0.66,0.8,1.64,1.32,2.95,1.57
		c1.34,0.26,2.52,0.07,3.53-0.55C331,695.31,331.63,694.38,331.88,693.13z M330.97,675.35c-1.06-0.2-1.9-0.74-2.51-1.62
		c-0.61-0.87-0.82-1.83-0.62-2.86c0.2-1.04,0.74-1.85,1.62-2.44c0.88-0.59,1.85-0.79,2.9-0.59c1.05,0.2,1.87,0.74,2.47,1.62
		s0.79,1.83,0.59,2.87c-0.2,1.04-0.73,1.85-1.6,2.44S332,675.55,330.97,675.35z"/>
	<path class="st4" d="M279.06,682.91l5.69-2.36c0.8,2.66,2,4.26,3.59,4.8c0.77,0.26,1.48,0.27,2.11,0.03
		c0.63-0.25,1.04-0.63,1.22-1.15c0.18-0.52,0.17-1.07-0.02-1.65c-0.27-0.78-1.25-2.6-2.96-5.46c-1.61-2.65-2.57-4.3-2.88-4.96
		c-0.78-1.62-1.24-3.06-1.36-4.33c-0.12-1.27,0.04-2.56,0.49-3.87c0.87-2.54,2.46-4.34,4.79-5.4c2.32-1.06,4.9-1.1,7.72-0.14
		c2.21,0.75,3.94,1.95,5.21,3.59s2.09,3.82,2.46,6.54l-5.98,1.3c-0.56-3.25-1.8-5.2-3.74-5.87c-1.01-0.35-1.96-0.34-2.85,0.01
		c-0.89,0.35-1.47,0.92-1.73,1.69c-0.24,0.7-0.22,1.49,0.06,2.37c0.28,0.88,1.06,2.35,2.34,4.4c2.44,3.91,3.89,6.77,4.36,8.61
		c0.47,1.83,0.46,3.49-0.05,4.98c-0.73,2.15-2.18,3.71-4.35,4.69c-2.16,0.98-4.45,1.06-6.85,0.23c-1.55-0.53-2.9-1.39-4.05-2.58
		C281.11,687.18,280.04,685.36,279.06,682.91z"/>
	<path class="st4" d="M269.49,683.89l-16.33-7.25l2.48-5.57l10.68,4.74l2.4-5.41l-10.68-4.74l2.43-5.47l10.68,4.74l3.5-7.87
		l-10.68-4.74l2.48-5.59l16.33,7.25L269.49,683.89z"/>
	<path class="st4" d="M231.54,665.78c-3.99-2.36-6.57-5.82-7.73-10.41c-1.17-4.58-0.52-8.95,1.93-13.1
		c2.43-4.12,5.9-6.76,10.42-7.94c4.51-1.18,8.79-0.57,12.83,1.81c4.23,2.5,6.88,6.04,7.96,10.62c1.07,4.58,0.42,8.88-1.96,12.91
		c-1.59,2.7-3.71,4.79-6.35,6.28c-2.64,1.49-5.49,2.22-8.55,2.2C237.02,668.13,234.17,667.34,231.54,665.78z M234.7,660.57
		c2.61,1.54,5.34,1.93,8.19,1.16c2.85-0.76,5.1-2.55,6.75-5.34c1.84-3.12,2.18-6.25,1.01-9.38c-0.9-2.45-2.48-4.33-4.73-5.66
		c-2.55-1.5-5.26-1.86-8.13-1.08c-2.88,0.78-5.11,2.52-6.7,5.22c-1.58,2.68-2.02,5.49-1.32,8.41
		C230.47,656.82,232.11,659.04,234.7,660.57z"/>
	<path class="st4" d="M210.28,651.2l-4.95-3.83l12.95-16.75c1.12-1.44,1.78-2.56,1.99-3.35c0.21-0.79,0.16-1.59-0.14-2.4
		s-0.87-1.53-1.69-2.16c-0.87-0.67-1.77-1.05-2.71-1.14c-0.94-0.09-1.76,0.08-2.48,0.51s-1.75,1.51-3.09,3.25l-12.48,16.13
		l-4.95-3.83l11.94-15.44c2.02-2.61,3.56-4.3,4.63-5.08c1.07-0.78,2.39-1.32,3.94-1.62s3.05-0.26,4.47,0.13
		c1.43,0.38,2.86,1.13,4.29,2.24c1.88,1.45,3.18,3.15,3.9,5.09s0.88,3.79,0.48,5.55c-0.4,1.76-1.8,4.18-4.19,7.27L210.28,651.2z"/>
	<path class="st4" d="M185.63,631.31l-4.56-4.25l18.25-19.62l-6.65-6.19l4.05-4.35l11.21,10.43L185.63,631.31z"/>
	<path class="st4" d="M149.36,593.84c-2.86-3.64-4.01-7.81-3.44-12.5c0.57-4.69,2.76-8.53,6.55-11.51
		c3.76-2.96,7.95-4.16,12.58-3.62c4.63,0.54,8.4,2.65,11.3,6.34c3.04,3.86,4.23,8.12,3.57,12.78c-0.66,4.66-2.83,8.43-6.5,11.32
		c-2.46,1.94-5.19,3.12-8.19,3.55c-3,0.43-5.92,0.08-8.77-1.05C153.62,598.01,151.26,596.24,149.36,593.84z M154.2,590.12
		c1.87,2.38,4.28,3.73,7.21,4.05c2.93,0.32,5.68-0.52,8.23-2.53c2.85-2.24,4.29-5.03,4.34-8.38c0.05-2.61-0.74-4.94-2.36-6.99
		c-1.83-2.32-4.22-3.64-7.19-3.95s-5.68,0.5-8.14,2.43c-2.45,1.93-3.87,4.38-4.28,7.36C151.62,585.09,152.34,587.76,154.2,590.12z"
		/>
	<path class="st4" d="M134.6,572.27l-3.77-6.35c-2.43-4.09-3.73-7.43-3.9-10.02s0.51-5.21,2.02-7.85c1.52-2.64,3.8-4.87,6.85-6.69
		c2.17-1.29,4.38-2.11,6.62-2.48s4.34-0.26,6.3,0.29c1.95,0.55,3.6,1.43,4.94,2.64s3.09,3.63,5.26,7.27l3.83,6.44L134.6,572.27z
		 M136.6,563.88l17.75-10.56l-1.48-2.49c-1.46-2.45-2.79-4.06-4.01-4.83c-1.22-0.77-2.7-1.11-4.44-1.02
		c-1.75,0.09-3.59,0.71-5.53,1.86c-2.99,1.78-4.81,3.99-5.46,6.64c-0.59,2.39,0.11,5.24,2.09,8.57L136.6,563.88z"/>
	<path class="st4" d="M117.6,542.25l-7.5-16.22l5.54-2.56l4.9,10.61l5.37-2.48l-4.9-10.61l5.43-2.51l4.9,10.61l7.82-3.61l-4.9-10.61
		l5.56-2.57l7.5,16.22L117.6,542.25z"/>
	<path class="st4" d="M113.57,511.62l1.95,5.5c-2.68,0.98-5.24,0.85-7.66-0.4c-2.42-1.25-4.18-3.41-5.27-6.47
		c-0.7-1.97-0.93-3.78-0.7-5.42c0.24-1.64,0.89-3.12,1.97-4.44c1.08-1.32,2.37-2.25,3.88-2.78c0.83-0.29,1.68-0.45,2.57-0.47
		c0.89-0.02,1.86,0.11,2.9,0.39c0.61,0.16,1.72,0.67,3.33,1.53c1.54,0.82,2.59,1.31,3.15,1.46s1.26,0.19,2.09,0.13
		s1.93-0.3,3.29-0.72l2.02,5.68l-0.94,0.36c-1.87,0.67-3.7,0.93-5.47,0.79s-3.61-0.74-5.49-1.81c-1.83-1.02-3.04-1.6-3.64-1.73
		c-0.6-0.13-1.23-0.08-1.88,0.15c-0.89,0.32-1.52,0.96-1.88,1.93c-0.36,0.97-0.31,2.08,0.13,3.34c0.46,1.29,1.21,2.21,2.26,2.76
		C111.25,511.96,112.37,512.03,113.57,511.62z M128.45,501.83c-0.36-1.02-0.32-2.01,0.12-2.98c0.44-0.97,1.16-1.63,2.15-1.98
		c0.99-0.35,1.97-0.3,2.93,0.17c0.96,0.46,1.62,1.2,1.97,2.2c0.36,1.01,0.31,1.99-0.15,2.95s-1.18,1.61-2.17,1.96
		c-0.99,0.35-1.96,0.3-2.91-0.15C129.45,503.54,128.8,502.82,128.45,501.83z"/>
	<path class="st4" d="M95.66,460.88l4.91,3.71c-1.89,2.04-2.66,3.88-2.33,5.53c0.16,0.8,0.51,1.41,1.04,1.83
		c0.53,0.42,1.07,0.58,1.61,0.47c0.54-0.11,1.01-0.4,1.42-0.86c0.54-0.63,1.61-2.4,3.21-5.32c1.47-2.73,2.41-4.39,2.82-4.99
		c1-1.49,2.01-2.61,3.05-3.36c1.04-0.75,2.23-1.26,3.58-1.54c2.63-0.54,4.99-0.07,7.08,1.4c2.09,1.47,3.43,3.67,4.03,6.59
		c0.47,2.29,0.31,4.39-0.46,6.31c-0.77,1.92-2.24,3.74-4.39,5.43l-4.14-4.5c2.52-2.12,3.58-4.19,3.17-6.2
		c-0.21-1.05-0.7-1.87-1.46-2.46c-0.76-0.59-1.53-0.8-2.33-0.64c-0.73,0.15-1.4,0.57-2.02,1.25c-0.62,0.69-1.49,2.1-2.61,4.24
		c-2.14,4.08-3.88,6.78-5.22,8.12c-1.34,1.34-2.78,2.16-4.32,2.47c-2.22,0.45-4.31,0-6.24-1.38c-1.94-1.37-3.16-3.3-3.67-5.79
		c-0.33-1.6-0.27-3.2,0.18-4.8C93.01,464.82,94.04,462.97,95.66,460.88z"/>
	<path class="st4" d="M89.98,453.14l-2.02-17.76l6.06-0.69l1.32,11.61l5.88-0.67l-1.32-11.61l5.95-0.68l1.32,11.61l8.56-0.97
		l-1.32-11.61l6.08-0.69l2.02,17.76L89.98,453.14z"/>
	<path class="st4" d="M86.35,410.77c0.08-4.63,1.82-8.59,5.22-11.87c3.41-3.28,7.52-4.88,12.34-4.8c4.78,0.08,8.79,1.79,12.05,5.13
		s4.84,7.36,4.77,12.05c-0.08,4.91-1.84,8.97-5.29,12.17c-3.45,3.2-7.51,4.76-12.19,4.68c-3.13-0.05-6-0.85-8.6-2.41
		s-4.65-3.67-6.14-6.35C87.02,416.7,86.3,413.83,86.35,410.77z M92.45,410.94c-0.05,3.03,0.96,5.6,3.04,7.69
		c2.07,2.1,4.73,3.17,7.98,3.23c3.62,0.06,6.5-1.19,8.65-3.76c1.68-1.99,2.54-4.3,2.58-6.91c0.05-2.96-0.98-5.49-3.08-7.6
		c-2.1-2.11-4.72-3.2-7.85-3.25c-3.12-0.05-5.77,0.95-7.96,3.01C93.62,405.41,92.5,407.94,92.45,410.94z"/>
	<path class="st4" d="M88.09,385.6l0.78-6.21l21.01,2.63c1.81,0.23,3.11,0.23,3.9,0.01c0.79-0.22,1.46-0.67,2-1.34s0.87-1.52,1-2.55
		c0.14-1.09,0-2.06-0.4-2.91c-0.4-0.85-0.97-1.47-1.7-1.87c-0.73-0.4-2.19-0.73-4.37-1.01l-20.24-2.54l0.78-6.21l19.37,2.43
		c3.27,0.41,5.51,0.88,6.73,1.41c1.22,0.53,2.35,1.38,3.4,2.57s1.77,2.49,2.17,3.92c0.4,1.43,0.48,3.04,0.26,4.83
		c-0.3,2.36-1.09,4.34-2.39,5.95c-1.3,1.61-2.81,2.69-4.53,3.23c-1.72,0.55-4.52,0.58-8.39,0.09L88.09,385.6z"/>
	<path class="st4" d="M92.69,354.23l1.34-6.09l26.17,5.76l1.95-8.87l5.8,1.28l-3.29,14.96L92.69,354.23z"/>
	<path class="st4" d="M106.6,303.93c1.69-4.31,4.7-7.41,9.04-9.29c4.34-1.88,8.75-1.94,13.24-0.18c4.45,1.74,7.61,4.75,9.5,9.02
		c1.88,4.27,1.97,8.59,0.26,12.96c-1.79,4.58-4.86,7.76-9.21,9.55c-4.35,1.79-8.7,1.83-13.05,0.13c-2.92-1.14-5.32-2.9-7.21-5.26
		c-1.89-2.37-3.07-5.07-3.54-8.09C105.16,309.72,105.48,306.78,106.6,303.93z M112.25,306.22c-1.1,2.82-1.05,5.58,0.16,8.27
		c1.21,2.69,3.33,4.63,6.35,5.81c3.37,1.32,6.51,1.15,9.42-0.5c2.27-1.28,3.88-3.14,4.84-5.57c1.08-2.75,1-5.49-0.23-8.2
		c-1.23-2.72-3.3-4.64-6.22-5.79c-2.9-1.14-5.74-1.12-8.51,0.04C115.28,301.45,113.35,303.43,112.25,306.22z"/>
	<path class="st4" d="M117.75,280.25l3.57-6.46c2.3-4.17,4.52-6.98,6.67-8.43c2.15-1.45,4.75-2.2,7.8-2.22
		c3.05-0.03,6.13,0.82,9.23,2.53c2.21,1.22,4.04,2.71,5.48,4.46c1.45,1.76,2.42,3.62,2.93,5.58c0.51,1.97,0.58,3.83,0.22,5.59
		c-0.36,1.76-1.57,4.5-3.62,8.21l-3.62,6.56L117.75,280.25z M126,277.74l18.08,9.98l1.4-2.53c1.38-2.49,2.09-4.46,2.14-5.9
		c0.05-1.44-0.41-2.89-1.37-4.35c-0.96-1.46-2.43-2.74-4.4-3.83c-3.04-1.68-5.87-2.13-8.49-1.36c-2.35,0.7-4.47,2.75-6.34,6.14
		L126,277.74z"/>
	<path class="st4" d="M135.04,250.42l10.2-14.68l5.01,3.48l-6.67,9.59l4.86,3.38l6.67-9.59l4.92,3.42l-6.67,9.59l7.07,4.92
		l6.67-9.59l5.03,3.49l-10.2,14.68L135.04,250.42z"/>
	<path class="st4" d="M159.43,231.45l-3.75,4.47c-2.21-1.81-3.39-4.08-3.54-6.81c-0.15-2.72,0.82-5.33,2.91-7.82
		c1.35-1.6,2.79-2.72,4.32-3.35s3.14-0.81,4.83-0.55c1.68,0.26,3.14,0.9,4.36,1.93c0.67,0.56,1.24,1.22,1.71,1.98
		c0.47,0.76,0.84,1.66,1.14,2.7c0.17,0.61,0.29,1.82,0.37,3.65c0.07,1.74,0.18,2.89,0.34,3.45c0.16,0.56,0.47,1.18,0.94,1.87
		c0.47,0.69,1.23,1.51,2.29,2.47l-3.88,4.62l-0.78-0.63c-1.52-1.28-2.67-2.72-3.45-4.32s-1.19-3.49-1.23-5.65
		c-0.05-2.09-0.16-3.43-0.35-4.01c-0.19-0.58-0.55-1.1-1.08-1.55c-0.73-0.61-1.6-0.82-2.62-0.64c-1.02,0.18-1.95,0.79-2.81,1.81
		c-0.88,1.05-1.29,2.16-1.24,3.35S158.47,230.63,159.43,231.45z M175.41,239.32c0.7-0.83,1.57-1.3,2.63-1.41s1.99,0.18,2.8,0.85
		c0.81,0.68,1.25,1.55,1.34,2.61c0.09,1.06-0.21,2-0.9,2.82c-0.69,0.82-1.56,1.27-2.61,1.37c-1.06,0.09-1.99-0.2-2.79-0.88
		c-0.81-0.68-1.26-1.54-1.35-2.58C174.44,241.05,174.73,240.13,175.41,239.32z"/>
	<path class="st4" d="M194.02,190.31l-0.7,6.12c-2.71-0.59-4.69-0.32-5.94,0.81c-0.61,0.55-0.96,1.16-1.05,1.83
		c-0.09,0.67,0.04,1.21,0.41,1.62c0.37,0.41,0.85,0.67,1.46,0.78c0.81,0.15,2.88,0.17,6.21,0.06c3.1-0.12,5.01-0.15,5.73-0.11
		c1.79,0.1,3.28,0.41,4.45,0.92c1.17,0.51,2.22,1.28,3.15,2.3c1.8,1.99,2.6,4.26,2.39,6.81c-0.21,2.54-1.42,4.82-3.63,6.82
		c-1.73,1.56-3.62,2.5-5.67,2.81c-2.05,0.31-4.35-0.03-6.91-1.02l1.77-5.86c3.11,1.09,5.42,0.95,6.95-0.42
		c0.79-0.72,1.25-1.55,1.38-2.5s-0.09-1.73-0.64-2.33c-0.5-0.55-1.2-0.92-2.1-1.1c-0.91-0.18-2.57-0.21-4.98-0.09
		c-4.6,0.23-7.81,0.11-9.64-0.37c-1.83-0.48-3.27-1.3-4.33-2.47c-1.52-1.69-2.18-3.71-1.99-6.08c0.2-2.37,1.24-4.4,3.12-6.1
		c1.21-1.1,2.62-1.86,4.23-2.29C189.28,190.03,191.4,189.98,194.02,190.31z"/>
	<path class="st4" d="M197.81,181.47l14.26-10.77l3.67,4.87l-9.33,7.04l3.57,4.73l9.33-7.04l3.61,4.78l-9.33,7.04l5.19,6.87
		l9.33-7.04l3.69,4.89l-14.26,10.77L197.81,181.47z"/>
	<path class="st4" d="M232.02,157.05c3.99-2.35,8.28-2.92,12.85-1.72c4.57,1.2,8.08,3.88,10.53,8.03c2.42,4.12,3.06,8.44,1.9,12.96
		c-1.16,4.52-3.76,7.97-7.8,10.35c-4.24,2.49-8.62,3.1-13.14,1.82c-4.53-1.28-7.97-3.93-10.34-7.96c-1.59-2.7-2.4-5.56-2.42-8.6
		c-0.03-3.03,0.71-5.88,2.22-8.55S229.38,158.6,232.02,157.05z M235.06,162.34c-2.61,1.54-4.27,3.74-4.98,6.6
		c-0.71,2.86-0.24,5.69,1.41,8.5c1.84,3.12,4.41,4.93,7.72,5.43c2.58,0.4,4.99-0.07,7.24-1.4c2.55-1.5,4.18-3.7,4.88-6.59
		c0.71-2.9,0.27-5.69-1.32-8.39c-1.58-2.69-3.82-4.43-6.72-5.23C240.38,160.46,237.64,160.82,235.06,162.34z"/>
	<path class="st4" d="M255.08,145.51l5.75-2.47l8.37,19.45c0.72,1.68,1.38,2.8,1.97,3.37c0.59,0.57,1.31,0.92,2.17,1.04
		c0.85,0.12,1.76-0.02,2.71-0.43c1.01-0.43,1.78-1.04,2.31-1.82c0.53-0.78,0.78-1.58,0.75-2.42c-0.03-0.83-0.48-2.26-1.34-4.28
		l-8.06-18.73l5.75-2.47l7.71,17.93c1.3,3.03,2.03,5.2,2.2,6.52c0.16,1.32,0,2.73-0.49,4.23c-0.49,1.5-1.25,2.79-2.28,3.85
		c-1.03,1.06-2.37,1.95-4.04,2.67c-2.18,0.94-4.29,1.25-6.34,0.95c-2.05-0.31-3.74-1.06-5.08-2.27c-1.34-1.21-2.79-3.6-4.33-7.19
		L255.08,145.51z"/>
	<path class="st4" d="M284.45,133.6l5.93-1.93l8.28,25.49l8.64-2.81l1.84,5.65l-14.56,4.73L284.45,133.6z"/>
</g>
<g>
	<g>
		<line class="st5" x1="236" y1="552.6" x2="236" y2="429.36"/>
		<polyline class="st5" points="217.03,427.66 281.15,427.66 248.98,373.21 217.03,427.66 		"/>
		<line class="st5" x1="266.29" y1="429.36" x2="266.29" y2="472.49"/>
		<polyline class="st5" points="281.63,472.49 281.63,440.26 308.24,440.26 316.13,440.26 316.13,450.92 337.63,450.92 
			337.63,440.26 372.38,440.18 372.38,472.73 		"/>
		<line class="st5" x1="308.24" y1="390.49" x2="308.24" y2="440.26"/>
		<line class="st5" x1="341.18" y1="390.49" x2="341.18" y2="437.89"/>
		<polygon class="st5" points="300.87,390.11 347.86,390.69 325.97,344.98 		"/>
		<polygon class="st5" points="378.55,425.65 391.13,426.21 453.76,427.66 416.43,373.21 		"/>
		<line class="st5" x1="395.78" y1="426.42" x2="395.78" y2="472.49"/>
		<line class="st5" x1="438.27" y1="429.36" x2="438.96" y2="555.36"/>
		<polyline class="st5" points="426.2,512.78 378.55,512.31 402.67,489.08 402.67,472.49 371.73,472.49 371.73,493.35 
			344.45,493.35 344.45,472.49 314.82,472.49 314.82,495.57 289.9,495.57 289.4,472.49 252.39,472.49 251.56,555.36 		"/>
		<line class="st5" x1="426.63" y1="512.8" x2="402.67" y2="489.08"/>
		<line class="st5" x1="387.88" y1="515.49" x2="387.18" y2="555.36"/>
		<path class="st5" d="M416.43,512.75c0.43,3.8,1.82,37.31,2.81,42.61"/>
		<path class="st5" d="M236.76,555.36h282.16l19.09,0c0.41-17.06,0.43-34.14,0.33-51.2c-0.15-26.17-0.7-52.35-2.06-78.48
			c-2.77-53.26-10.09-107.64-28.71-157.75c-1.9-5.1-5.4-9.19-10.03-11.91c-3.46-2.04-12.46-7.28-16.16-3.51
			c-0.71,0.72-1.09,1.69-1.46,2.63c-6.53,16.63-13.22,33.18-19.78,49.8c-2.99,7.57-5.96,15.14-8.82,22.75
			c-10.49,27.92-12.36,48.11-12.36,77.44"/>
		<path class="st5" d="M521.75,551.5c0,0-3.87-125.85-5.35-150.32c0,0,1.82-61.09-12.54-99.42c-0.29-0.77-0.59-1.54-0.89-2.29
			c-15.32-38.13-15.32-45.12-18.73-48.62"/>
		<line class="st5" x1="466.01" y1="296.23" x2="501.68" y2="296.23"/>
		<path class="st5" d="M445.13,358.81c6.82,0,66.58,0,66.58,0"/>
		<line class="st5" x1="442.66" y1="386.35" x2="514.17" y2="386.35"/>
		<path class="st5" d="M452.52,421.41c-4.45-0.37,64.11,0,64.11,0"/>
		<line class="st5" x1="440.19" y1="456.46" x2="519.1" y2="456.46"/>
		<line class="st5" x1="440.19" y1="491.51" x2="519.1" y2="491.51"/>
		<line class="st5" x1="440.19" y1="529.07" x2="519.1" y2="529.07"/>
		<path class="st5" d="M467.32,298.72c3.41,3.5,0,255.39,0,255.39"/>
		<line class="st5" x1="491.98" y1="298.72" x2="494.44" y2="554.11"/>
	</g>
	<path class="st5" d="M356.61,552.86v-34.1c-28.11-26.59-55.17,0-55.17,0v34.1"/>
</g>
<path class="st6" d="M259.23,362.3c15.07,8.87,37.38-1.11,37.38-1.11s-2.12-24.35-17.19-33.21c-15.07-8.87-37.38,1.11-37.38,1.11
	S244.16,353.44,259.23,362.3z"/>
<path class="st6" d="M293.8,317c-6.15,12.43,2.06,29.03,2.06,29.03s18.17-3.56,24.31-15.99c6.15-12.43-2.06-29.03-2.06-29.03
	S299.94,304.57,293.8,317z"/>
</svg>
