<?xml version="1.0" encoding="utf-8"?>
<!-- Generator: Adobe Illustrator 27.4.0, SVG Export Plug-In . SVG Version: 6.00 Build 0)  -->
<svg version="1.1" id="레이어_1" xmlns="http://www.w3.org/2000/svg" xmlns:xlink="http://www.w3.org/1999/xlink" x="0px"
	 y="0px" viewBox="0 0 762.52 822.05" style="enable-background:new 0 0 762.52 822.05;" xml:space="preserve">
<style type="text/css">
	.st0{fill:none;stroke:#463C33;stroke-width:3;stroke-miterlimit:10;}
	.st1{fill:none;stroke:#463C33;stroke-width:3;stroke-linecap:round;stroke-linejoin:round;stroke-dasharray:2.9942,5.9884;}
	.st2{fill:none;}
	.st3{fill:none;stroke:#463C33;stroke-width:4;stroke-linecap:round;stroke-linejoin:round;stroke-miterlimit:10;}
	.st4{fill:#ABB868;}
</style>
<g>
	<g>
		<circle class="st0" cx="381.26" cy="411.02" r="320.01"/>
		<circle class="st0" cx="381.26" cy="411.02" r="250.49"/>
		<circle class="st0" cx="381.26" cy="411.02" r="225.32"/>
		<g>
			<circle class="st1" cx="381.26" cy="411.02" r="237.31"/>
		</g>
		<path id="SVGID_x5F_1_x5F_" class="st2" d="M641.08,410.52c0,144.3-116.98,261.28-261.28,261.28S118.52,554.83,118.52,410.52
			S235.5,149.24,379.8,149.24S641.08,266.22,641.08,410.52z"/>
		<text>		<textPath  xlink:href="#SVGID_x5F_1_x5F_" startOffset="96.289%">
<tspan  style="fill:#463C33; font-family:'CenturyGothic-Bold'; font-size:45.5444px;">ODE? SEOUL ODE? SEOUL ODE? SEOUL ODE? SEOUL ODE? SEOUL ODE? SEOUL</tspan>		</textPath>
</text>
	</g>
	<g>
		<path class="st3" d="M544.61,479.53c0,7.74-4.26,15.11-12.01,21.84c-4.02-3.59-9.19-5.76-14.87-5.76
			c-6.63,0-12.62,2.99-16.84,7.77c-4.24-7.62-12.04-12.71-20.93-12.71c-9.72,0-18.13,6.08-22.03,14.89
			c-0.37-0.05-0.76-0.05-1.12-0.05c-10.09,0-18.28,8.31-18.28,18.55c0,3.27,0.83,6.33,2.32,8.98c-16.67,2.2-34.68,3.39-53.42,3.39
			c-8.72,0-17.3-0.25-25.64-0.77c0.02-0.12,0.02-0.27,0.05-0.42v-0.02c2.36-3.09,3.73-6.95,3.73-11.16
			c0-10.24-8.19-18.55-18.28-18.55c-0.37,0-0.76,0-1.12,0.05c-3.9-8.81-12.31-14.89-22.03-14.89c-4.46,0-8.65,1.29-12.23,3.54
			c-1.88-0.69-3.92-1.06-6.04-1.06c-0.37,0-0.76,0-1.12,0.05c-3.9-8.81-12.31-14.89-22.03-14.89c-8.89,0-16.69,5.1-20.93,12.71
			c-4.22-4.77-10.21-7.77-16.84-7.77c-4.87,0-9.38,1.61-13.11,4.35c-1.05-2.62-1.58-5.32-1.58-8.06
			c0-31.41,70.38-56.89,157.18-56.89S544.61,448.12,544.61,479.53z"/>
		<ellipse class="st3" cx="325.28" cy="344.72" rx="38.99" ry="50.71"/>
		<ellipse class="st3" cx="394.73" cy="364.51" rx="23.15" ry="33.39"/>
		<ellipse class="st3" cx="506.83" cy="347.19" rx="32.9" ry="53.18"/>
		<line class="st3" x1="335.03" y1="423.63" x2="335.03" y2="394.61"/>
		<line class="st3" x1="398.39" y1="397.23" x2="398.39" y2="421.21"/>
		<line class="st3" x1="511.71" y1="402.59" x2="511.71" y2="445.16"/>
		<path class="st3" d="M365.56,524.05c0,4.2-1.36,8.06-3.73,11.16v0.02c-0.02,0.15-0.02,0.3-0.05,0.42
			c-0.37,2.72-1.63,5.17-3.46,7.03c-2.22,2.25-5.24,3.64-8.6,3.64h-65.8c-3.92,0-7.41-1.9-9.63-4.85c-2.9-1.9-5.39-4.48-7.26-7.52
			H242.5c-3.92,0-7.41-1.9-9.63-4.85c-6.65-4.35-11.09-12.19-11.09-21.12c0-8.46,3.97-15.93,10.04-20.38
			c3.73-2.75,8.24-4.35,13.11-4.35c6.63,0,12.62,2.99,16.84,7.77c4.24-7.62,12.04-12.71,20.93-12.71c9.72,0,18.13,6.08,22.03,14.89
			c0.37-0.05,0.76-0.05,1.12-0.05c2.12,0,4.17,0.37,6.04,1.06c3.58-2.25,7.77-3.54,12.23-3.54c9.72,0,18.13,6.08,22.03,14.89
			c0.37-0.05,0.76-0.05,1.12-0.05C357.37,505.5,365.56,513.81,365.56,524.05z"/>
		<path class="st3" d="M400.18,288.91c0,4.52-3.62,8.19-8.07,8.19c-1.79,0-3.42-0.59-4.76-1.59c-1.6,1.02-3.46,1.59-5.47,1.59
			c-3.22,0-6.11-1.51-8.09-3.91c-1.82,3.01-4.98,5-8.59,5c-5.65,0-10.22-4.89-10.22-10.92s4.57-10.92,10.22-10.92
			c2.93,0,5.57,1.32,7.43,3.43c1.87-3.36,5.32-5.61,9.24-5.61c4.29,0,8.01,2.69,9.73,6.57c0.16-0.02,0.33-0.02,0.49-0.02
			C396.56,280.71,400.18,284.38,400.18,288.91z"/>
		<path class="st3" d="M408.02,313.78c0,5.9,4.72,10.69,10.54,10.69c2.33,0,4.47-0.77,6.21-2.08c2.09,1.33,4.52,2.08,7.14,2.08
			c4.2,0,7.98-1.97,10.56-5.1c2.37,3.94,6.5,6.53,11.21,6.53c7.38,0,13.35-6.39,13.35-14.26s-5.97-14.26-13.35-14.26
			c-3.82,0-7.28,1.73-9.71,4.48c-2.44-4.39-6.94-7.33-12.07-7.33c-5.61,0-10.45,3.51-12.7,8.58c-0.21-0.03-0.44-0.03-0.65-0.03
			C412.74,303.09,408.02,307.88,408.02,313.78z"/>
		<path class="st3" d="M540.88,520.34c0,8.93-4.44,16.77-11.09,21.12c-2.22,2.94-5.7,4.85-9.63,4.85h-65.8
			c-3.36,0-6.38-1.39-8.6-3.64c-1.92-1.95-3.22-4.55-3.51-7.45v-0.02c-0.54-0.69-1-1.41-1.41-2.18c-1.49-2.65-2.32-5.71-2.32-8.98
			c0-10.24,8.19-18.55,18.28-18.55c0.37,0,0.76,0,1.12,0.05c3.9-8.81,12.31-14.89,22.03-14.89c8.89,0,16.69,5.1,20.93,12.71
			c4.22-4.77,10.21-7.77,16.84-7.77c5.68,0,10.84,2.18,14.87,5.76C537.66,505.9,540.88,512.73,540.88,520.34z"/>
		<line class="st3" x1="318.11" y1="426.15" x2="318.11" y2="397.12"/>
		<line class="st3" x1="388.78" y1="398.94" x2="388.78" y2="418.39"/>
		<line class="st3" x1="498.45" y1="401.95" x2="498.45" y2="435.77"/>
		<ellipse class="st3" cx="245.52" cy="378.4" rx="28.58" ry="37.4"/>
		<line class="st3" x1="240.09" y1="415.54" x2="240.09" y2="458.11"/>
		<line class="st3" x1="253.35" y1="414.9" x2="253.35" y2="448.72"/>
		<path class="st3" d="M289.94,458.5c0,0,42.57-17.1,110.23-14.73"/>
		<path class="st3" d="M377.67,510.15c0,0,29.62,5.01,47.71,0"/>
		<path class="st3" d="M448.35,451.08c0,0,61.21,10.27,52.54,28.63"/>
		<path class="st3" d="M392.3,462.93c0,0-92.6,0.52-38.99,20.31"/>
		<path class="st3" d="M410.46,490.45c0,0,79.6-0.88,29.5-20.12"/>
	</g>
	<path class="st4" d="M235.18,329.12c15.06,8.86,37.35-1.11,37.35-1.11s-2.12-24.32-17.17-33.18S218,295.94,218,295.94
		S220.12,320.26,235.18,329.12z"/>
	<path class="st4" d="M269.72,283.86c-6.14,12.42,2.06,29,2.06,29s18.15-3.56,24.29-15.98c6.14-12.42-2.06-29-2.06-29
		S275.86,271.44,269.72,283.86z"/>
</g>
</svg>
