<?xml version="1.0" encoding="utf-8"?>
<!-- Generator: Adobe Illustrator 27.4.0, SVG Export Plug-In . SVG Version: 6.00 Build 0)  -->
<svg version="1.1" id="레이어_1" xmlns="http://www.w3.org/2000/svg" xmlns:xlink="http://www.w3.org/1999/xlink" x="0px"
	 y="0px" viewBox="0 0 762.52 822.05" style="enable-background:new 0 0 762.52 822.05;" xml:space="preserve">
<style type="text/css">
	.st0{fill:none;stroke:#463C33;stroke-width:3;stroke-miterlimit:10;}
	.st1{fill:none;stroke:#463C33;stroke-width:3;stroke-linecap:round;stroke-linejoin:round;stroke-dasharray:2.9942,5.9884;}
	.st2{fill:#463C33;}
	.st3{fill:none;stroke:#463C33;stroke-width:4;stroke-linecap:round;stroke-linejoin:round;stroke-miterlimit:10;}
	.st4{fill:#ABB868;}
</style>
<circle class="st0" cx="381.26" cy="411.02" r="320.01"/>
<circle class="st0" cx="381.26" cy="411.02" r="250.49"/>
<circle class="st0" cx="381.26" cy="411.02" r="225.32"/>
<g>
	<circle class="st1" cx="381.26" cy="411.02" r="237.31"/>
</g>
<g>
	<path class="st2" d="M347.55,117.45c4.6-0.5,8.74,0.73,12.41,3.7c3.67,2.97,5.77,6.85,6.3,11.64c0.52,4.75-0.68,8.94-3.59,12.58
		s-6.69,5.72-11.35,6.23c-4.88,0.53-9.12-0.71-12.72-3.73s-5.65-6.85-6.16-11.5c-0.34-3.11,0.1-6.05,1.32-8.82
		c1.22-2.77,3.06-5.07,5.53-6.88C341.76,118.86,344.51,117.79,347.55,117.45z M348.14,123.52c-3.01,0.33-5.43,1.65-7.25,3.97
		s-2.56,5.09-2.21,8.32c0.39,3.6,1.99,6.3,4.8,8.11c2.18,1.42,4.58,1.98,7.17,1.7c2.94-0.32,5.32-1.65,7.15-4
		c1.83-2.35,2.58-5.08,2.24-8.19c-0.34-3.09-1.66-5.6-3.98-7.52C353.77,123.99,351.12,123.19,348.14,123.52z"/>
	<path class="st2" d="M373.59,116.35l7.38,0.15c4.75,0.1,8.27,0.75,10.56,1.98c2.29,1.22,4.15,3.18,5.59,5.86
		c1.44,2.68,2.13,5.8,2.06,9.34c-0.05,2.52-0.51,4.83-1.39,6.92c-0.88,2.1-2.07,3.83-3.57,5.19c-1.5,1.36-3.12,2.3-4.84,2.79
		c-1.73,0.5-4.71,0.71-8.95,0.62l-7.49-0.15L373.59,116.35z M379.65,122.47l-0.41,20.63l2.89,0.06c2.85,0.06,4.92-0.23,6.21-0.86
		c1.29-0.63,2.37-1.7,3.21-3.23s1.29-3.42,1.34-5.67c0.07-3.47-0.85-6.19-2.75-8.14c-1.71-1.76-4.51-2.67-8.38-2.75L379.65,122.47z"
		/>
	<path class="st2" d="M408,117.76l17.72,2.18l-0.74,6.05l-11.59-1.43l-0.72,5.87l11.59,1.43l-0.73,5.94l-11.59-1.43l-1.05,8.54
		l11.59,1.43l-0.75,6.07l-17.72-2.18L408,117.76z"/>
	<path class="st2" d="M436.13,130.48l-5.69-1.24c0.58-2.8,2.04-4.89,4.37-6.29c2.34-1.4,5.09-1.75,8.26-1.06
		c2.04,0.44,3.7,1.2,4.97,2.26c1.27,1.07,2.18,2.4,2.74,4.01c0.55,1.61,0.66,3.19,0.32,4.76c-0.19,0.85-0.51,1.67-0.96,2.43
		s-1.07,1.52-1.86,2.26c-0.46,0.43-1.48,1.11-3.06,2.02c-1.51,0.87-2.47,1.51-2.9,1.91c-0.42,0.4-0.83,0.97-1.21,1.71
		c-0.39,0.73-0.76,1.79-1.12,3.17l-5.89-1.28l0.19-0.98c0.42-1.94,1.16-3.63,2.21-5.06s2.53-2.67,4.43-3.71
		c1.83-1.01,2.96-1.74,3.39-2.18s0.72-1,0.87-1.68c0.2-0.93-0.02-1.8-0.65-2.61s-1.6-1.36-2.91-1.65c-1.33-0.29-2.51-0.13-3.54,0.46
		C437.06,128.32,436.41,129.24,436.13,130.48z M436.61,148.27c1.06,0.23,1.88,0.79,2.47,1.67c0.59,0.89,0.77,1.84,0.55,2.87
		s-0.79,1.83-1.68,2.4s-1.87,0.74-2.91,0.52c-1.04-0.23-1.85-0.79-2.42-1.68c-0.57-0.89-0.75-1.85-0.52-2.88
		c0.22-1.03,0.78-1.83,1.66-2.39S435.58,148.04,436.61,148.27z"/>
	<path class="st2" d="M488.63,141.98l-5.74,2.22c-0.74-2.67-1.89-4.3-3.47-4.88c-0.77-0.28-1.47-0.31-2.11-0.08
		c-0.64,0.23-1.05,0.6-1.24,1.12c-0.19,0.51-0.2,1.07-0.02,1.65c0.25,0.79,1.19,2.63,2.83,5.52c1.54,2.69,2.46,4.36,2.75,5.02
		c0.74,1.63,1.16,3.09,1.25,4.36c0.09,1.27-0.1,2.56-0.58,3.85c-0.93,2.52-2.57,4.27-4.92,5.27s-4.92,0.98-7.72-0.05
		c-2.19-0.81-3.89-2.05-5.12-3.72c-1.23-1.67-1.99-3.87-2.3-6.59l6-1.15c0.47,3.26,1.67,5.24,3.6,5.95c1,0.37,1.95,0.39,2.85,0.06
		c0.9-0.33,1.49-0.88,1.77-1.65c0.26-0.7,0.26-1.49,0-2.37s-1-2.37-2.23-4.45c-2.34-3.96-3.72-6.86-4.15-8.7
		c-0.43-1.84-0.37-3.5,0.17-4.97c0.79-2.13,2.27-3.65,4.46-4.58c2.18-0.92,4.47-0.95,6.85-0.07c1.53,0.57,2.86,1.46,3.98,2.68
		S487.71,139.51,488.63,141.98z"/>
	<path class="st2" d="M498.23,141.25l16.14,7.65l-2.61,5.51l-10.55-5l-2.53,5.35l10.55,5l-2.56,5.41l-10.55-5l-3.68,7.78l10.55,5
		l-2.62,5.53l-16.14-7.65L498.23,141.25z"/>
	<path class="st2" d="M535.7,160.26c3.93,2.45,6.42,5.98,7.47,10.58c1.05,4.61,0.3,8.95-2.25,13.04c-2.53,4.05-6.06,6.61-10.6,7.67
		c-4.54,1.07-8.79,0.36-12.77-2.12c-4.17-2.6-6.73-6.2-7.69-10.8c-0.96-4.6-0.2-8.88,2.27-12.84c1.66-2.65,3.82-4.69,6.49-6.12
		c2.67-1.43,5.54-2.09,8.6-1.99S533.11,158.64,535.7,160.26z M532.42,165.39c-2.57-1.6-5.29-2.06-8.15-1.36s-5.16,2.42-6.87,5.17
		c-1.92,3.07-2.33,6.18-1.24,9.35c0.84,2.46,2.37,4.39,4.59,5.77c2.51,1.56,5.21,1.99,8.1,1.28c2.89-0.71,5.17-2.39,6.82-5.05
		c1.65-2.64,2.16-5.43,1.52-8.37C536.55,169.24,534.96,166.98,532.42,165.39z"/>
	<path class="st2" d="M556.57,175.34l4.85,3.94l-13.35,16.41c-1.15,1.41-1.84,2.51-2.07,3.3c-0.23,0.79-0.2,1.59,0.08,2.4
		c0.29,0.81,0.83,1.55,1.63,2.2c0.85,0.69,1.74,1.09,2.68,1.2c0.93,0.11,1.76-0.04,2.49-0.45c0.73-0.41,1.78-1.47,3.16-3.17
		l12.86-15.81l4.85,3.94l-12.3,15.13c-2.08,2.55-3.66,4.21-4.75,4.96c-1.09,0.76-2.42,1.26-3.98,1.52
		c-1.56,0.26-3.05,0.18-4.47-0.24c-1.42-0.42-2.83-1.2-4.23-2.34c-1.84-1.5-3.1-3.22-3.77-5.18c-0.68-1.95-0.79-3.8-0.34-5.55
		c0.45-1.75,1.9-4.13,4.36-7.16L556.57,175.34z"/>
	<path class="st2" d="M580.68,195.77l4.46,4.35l-18.71,19.16l6.49,6.34l-4.15,4.25l-10.95-10.69L580.68,195.77z"/>
	<path class="st2" d="M616.01,234.09c2.77,3.71,3.82,7.9,3.13,12.57c-0.69,4.67-2.96,8.45-6.82,11.34
		c-3.82,2.86-8.04,3.97-12.66,3.31c-4.62-0.65-8.33-2.85-11.14-6.61c-2.94-3.93-4.03-8.21-3.25-12.85
		c0.77-4.64,3.03-8.35,6.77-11.15c2.5-1.87,5.26-2.99,8.27-3.35c3.01-0.36,5.92,0.06,8.73,1.26
		C611.86,229.82,614.18,231.64,616.01,234.09z M611.09,237.69c-1.81-2.42-4.18-3.83-7.1-4.22c-2.92-0.39-5.68,0.39-8.28,2.33
		c-2.9,2.17-4.41,4.92-4.54,8.26c-0.11,2.6,0.62,4.95,2.18,7.04c1.77,2.36,4.13,3.74,7.08,4.12c2.96,0.38,5.68-0.36,8.19-2.23
		c2.49-1.87,3.98-4.28,4.45-7.25S612.89,240.09,611.09,237.69z"/>
	<path class="st2" d="M630.25,256l3.62,6.43c2.33,4.15,3.55,7.51,3.65,10.1c0.11,2.59-0.63,5.19-2.21,7.79s-3.91,4.78-7,6.51
		c-2.2,1.24-4.42,2.01-6.67,2.31c-2.25,0.31-4.35,0.16-6.28-0.44c-1.94-0.6-3.56-1.52-4.87-2.76c-1.31-1.24-3-3.7-5.08-7.39
		l-3.67-6.53L630.25,256z M628.04,264.33l-17.99,10.11l1.42,2.52c1.39,2.48,2.69,4.12,3.89,4.92c1.2,0.8,2.67,1.17,4.41,1.13
		s3.6-0.62,5.57-1.73c3.03-1.7,4.9-3.87,5.62-6.5c0.64-2.37,0.02-5.24-1.88-8.61L628.04,264.33z"/>
	<path class="st2" d="M646.5,286.4l7.09,16.39l-5.59,2.42l-4.64-10.71l-5.43,2.35l4.64,10.71l-5.49,2.38l-4.64-10.71l-7.9,3.42
		l4.64,10.71l-5.61,2.43l-7.09-16.39L646.5,286.4z"/>
	<path class="st2" d="M634.67,326.51c0.34,1.03,0.27,2.02-0.2,2.98s-1.2,1.6-2.2,1.93c-1,0.33-1.97,0.25-2.92-0.24
		s-1.59-1.24-1.92-2.25c-0.33-1.01-0.26-1.99,0.22-2.94c0.48-0.94,1.22-1.58,2.22-1.91s1.97-0.25,2.9,0.22
		C633.71,324.77,634.34,325.51,634.67,326.51z M649.77,317.1l-1.81-5.54c2.7-0.92,5.25-0.72,7.64,0.59s4.09,3.5,5.1,6.59
		c0.65,1.99,0.84,3.8,0.56,5.43s-0.97,3.1-2.07,4.39c-1.11,1.29-2.42,2.19-3.94,2.68c-0.83,0.27-1.69,0.41-2.58,0.4
		c-0.89,0-1.85-0.16-2.89-0.46c-0.6-0.18-1.7-0.71-3.29-1.61c-1.51-0.86-2.55-1.37-3.11-1.53c-0.56-0.16-1.25-0.22-2.08-0.18
		c-0.83,0.04-1.93,0.25-3.3,0.64l-1.88-5.73l0.94-0.33c1.89-0.62,3.72-0.84,5.49-0.65c1.77,0.18,3.58,0.83,5.44,1.94
		c1.8,1.06,3,1.67,3.59,1.82s1.22,0.11,1.88-0.1c0.9-0.3,1.54-0.92,1.92-1.88s0.36-2.07-0.05-3.34c-0.42-1.3-1.16-2.23-2.19-2.82
		C652.1,316.81,650.98,316.71,649.77,317.1z"/>
	<path class="st2" d="M666.41,368.2l-4.82-3.82c1.93-1.99,2.75-3.81,2.46-5.46c-0.14-0.8-0.48-1.42-1-1.86
		c-0.52-0.44-1.05-0.6-1.59-0.51c-0.54,0.1-1.02,0.37-1.43,0.82c-0.55,0.61-1.67,2.36-3.33,5.23c-1.54,2.69-2.52,4.33-2.94,4.92
		c-1.03,1.47-2.08,2.56-3.13,3.29c-1.05,0.72-2.26,1.21-3.62,1.45c-2.64,0.47-4.99-0.05-7.04-1.57c-2.05-1.52-3.34-3.75-3.86-6.68
		c-0.41-2.29-0.21-4.39,0.61-6.29s2.33-3.68,4.52-5.32l4.03,4.6c-2.57,2.06-3.67,4.1-3.31,6.11c0.19,1.05,0.65,1.88,1.39,2.49
		c0.74,0.61,1.51,0.84,2.32,0.7c0.73-0.13,1.41-0.53,2.04-1.2c0.63-0.67,1.54-2.06,2.71-4.17c2.23-4.02,4.04-6.68,5.41-7.98
		c1.37-1.3,2.83-2.09,4.38-2.37c2.23-0.4,4.3,0.11,6.2,1.53s3.08,3.37,3.52,5.87c0.29,1.61,0.19,3.2-0.3,4.79
		C669.16,364.33,668.08,366.15,666.41,368.2z"/>
	<path class="st2" d="M671.9,376.08l1.58,17.79l-6.07,0.54l-1.04-11.63l-5.89,0.52l1.04,11.63l-5.96,0.53l-1.04-11.63l-8.57,0.76
		l1.04,11.63l-6.09,0.54l-1.58-17.79L671.9,376.08z"/>
	<path class="st2" d="M674.52,417.97c-0.11,4.63-1.89,8.56-5.32,11.81c-3.43,3.25-7.56,4.81-12.37,4.69
		c-4.77-0.12-8.77-1.86-11.99-5.23c-3.22-3.37-4.78-7.39-4.66-12.08c0.12-4.91,1.92-8.95,5.39-12.11c3.47-3.16,7.54-4.69,12.21-4.57
		c3.13,0.08,5.98,0.9,8.57,2.48c2.59,1.58,4.61,3.71,6.08,6.39C673.9,412.04,674.6,414.91,674.52,417.97z M668.43,417.75
		c0.08-3.03-0.92-5.6-2.97-7.71c-2.05-2.11-4.7-3.21-7.95-3.29c-3.62-0.09-6.51,1.14-8.68,3.68c-1.69,1.98-2.57,4.27-2.64,6.88
		c-0.07,2.95,0.93,5.49,3.02,7.62s4.69,3.23,7.82,3.31c3.11,0.08,5.77-0.9,7.98-2.94S668.36,420.75,668.43,417.75z"/>
	<path class="st2" d="M672.16,443.6l-0.93,6.18l-20.92-3.14c-1.8-0.27-3.1-0.3-3.89-0.1c-0.79,0.2-1.47,0.63-2.03,1.29
		s-0.91,1.5-1.07,2.53c-0.16,1.08-0.05,2.06,0.33,2.92c0.38,0.86,0.93,1.5,1.66,1.91c0.72,0.42,2.17,0.79,4.34,1.11l20.15,3.03
		l-0.93,6.18l-19.29-2.9c-3.25-0.49-5.49-1.01-6.69-1.57c-1.21-0.56-2.32-1.44-3.33-2.65s-1.71-2.53-2.07-3.97s-0.41-3.04-0.14-4.83
		c0.35-2.35,1.2-4.31,2.54-5.88s2.87-2.62,4.61-3.12c1.73-0.5,4.53-0.47,8.38,0.11L672.16,443.6z"/>
	<path class="st2" d="M666.81,474.78l-1.49,6.05l-26-6.39l-2.16,8.81l-5.77-1.42l3.65-14.86L666.81,474.78z"/>
	<path class="st2" d="M651.68,524.7c-1.79,4.27-4.88,7.29-9.26,9.06c-4.38,1.77-8.79,1.73-13.23-0.14c-4.4-1.85-7.49-4.93-9.26-9.24
		s-1.75-8.63,0.06-12.95c1.9-4.53,5.05-7.63,9.44-9.31c4.39-1.68,8.74-1.62,13.04,0.19c2.88,1.21,5.24,3.02,7.08,5.43
		c1.83,2.41,2.94,5.13,3.33,8.17C653.27,518.95,652.87,521.88,651.68,524.7z M646.09,522.28c1.17-2.79,1.19-5.55,0.05-8.26
		c-1.14-2.72-3.21-4.7-6.2-5.96c-3.34-1.4-6.48-1.31-9.42,0.27c-2.3,1.22-3.95,3.04-4.97,5.45c-1.14,2.72-1.13,5.46,0.03,8.2
		c1.16,2.74,3.19,4.72,6.07,5.93c2.87,1.21,5.71,1.26,8.5,0.17C642.95,526.97,644.93,525.04,646.09,522.28z"/>
	<path class="st2" d="M639.98,548.07l-3.72,6.37c-2.4,4.11-4.69,6.86-6.87,8.26c-2.18,1.4-4.8,2.08-7.84,2.03
		c-3.05-0.05-6.1-0.96-9.16-2.75c-2.18-1.27-3.97-2.8-5.37-4.59s-2.33-3.67-2.79-5.65s-0.49-3.84-0.08-5.59s1.68-4.46,3.81-8.12
		l3.78-6.47L639.98,548.07z M631.68,550.38l-17.82-10.41l-1.46,2.5c-1.44,2.46-2.19,4.41-2.28,5.84c-0.08,1.44,0.34,2.9,1.26,4.38
		s2.36,2.79,4.3,3.93c3,1.75,5.81,2.27,8.45,1.56c2.37-0.64,4.53-2.63,6.48-5.98L631.68,550.38z"/>
	<path class="st2" d="M621.98,577.44l-10.54,14.41l-4.92-3.6l6.89-9.42l-4.77-3.49l-6.89,9.42l-4.83-3.53l6.89-9.42l-6.95-5.08
		l-6.89,9.42l-4.94-3.61l10.54-14.41L621.98,577.44z"/>
	<path class="st2" d="M581.39,587.56c-0.72,0.81-1.6,1.26-2.67,1.34c-1.06,0.08-1.99-0.22-2.78-0.92c-0.79-0.7-1.21-1.58-1.28-2.64
		c-0.06-1.06,0.26-1.99,0.97-2.79c0.71-0.8,1.59-1.23,2.64-1.3s1.98,0.25,2.77,0.94c0.79,0.7,1.22,1.57,1.28,2.61
		C582.4,585.85,582.09,586.77,581.39,587.56z M597.16,595.8l3.85-4.37c2.16,1.87,3.28,4.16,3.37,6.88c0.08,2.72-0.95,5.3-3.1,7.74
		c-1.38,1.57-2.85,2.65-4.4,3.24s-3.16,0.74-4.83,0.44s-3.11-0.98-4.31-2.04c-0.66-0.58-1.21-1.25-1.66-2.02
		c-0.45-0.77-0.8-1.68-1.07-2.72c-0.15-0.61-0.25-1.83-0.28-3.65c-0.03-1.74-0.11-2.9-0.26-3.46c-0.15-0.56-0.45-1.19-0.9-1.89
		s-1.19-1.54-2.22-2.52l3.99-4.52l0.76,0.65c1.49,1.31,2.6,2.78,3.34,4.4c0.74,1.62,1.1,3.51,1.09,5.67c0,2.09,0.08,3.43,0.25,4.02
		c0.17,0.59,0.52,1.11,1.04,1.57c0.71,0.63,1.58,0.86,2.6,0.7c1.02-0.16,1.97-0.74,2.85-1.74c0.9-1.02,1.34-2.13,1.32-3.32
		S598.1,596.65,597.16,595.8z"/>
	<path class="st2" d="M561.6,636.07l0.84-6.09c2.7,0.65,4.68,0.43,5.95-0.66c0.62-0.53,0.98-1.13,1.09-1.8
		c0.11-0.67-0.02-1.21-0.37-1.63s-0.84-0.69-1.44-0.82c-0.81-0.17-2.88-0.24-6.2-0.21c-3.1,0.04-5.01,0.03-5.73-0.03
		c-1.79-0.14-3.26-0.49-4.42-1.02c-1.16-0.54-2.19-1.33-3.09-2.38c-1.75-2.04-2.49-4.32-2.22-6.86c0.27-2.54,1.53-4.78,3.79-6.72
		c1.77-1.52,3.68-2.41,5.73-2.67c2.06-0.26,4.35,0.13,6.88,1.19l-1.91,5.81c-3.08-1.17-5.39-1.08-6.95,0.25
		c-0.81,0.7-1.29,1.52-1.44,2.46c-0.15,0.95,0.05,1.73,0.58,2.35c0.48,0.56,1.17,0.94,2.08,1.15c0.9,0.2,2.56,0.28,4.97,0.21
		c4.6-0.12,7.8,0.08,9.62,0.6c1.82,0.52,3.24,1.38,4.26,2.57c1.48,1.72,2.09,3.76,1.84,6.12s-1.34,4.36-3.27,6.02
		c-1.24,1.06-2.66,1.79-4.28,2.18S564.21,636.47,561.6,636.07z"/>
	<path class="st2" d="M557.61,644.81l-14.51,10.41l-3.55-4.95l9.49-6.81l-3.45-4.81l-9.49,6.81l-3.49-4.86l9.49-6.81l-5.02-6.99
		l-9.49,6.81l-3.57-4.97l14.51-10.41L557.61,644.81z"/>
	<path class="st2" d="M522.84,668.37c-4.04,2.25-8.34,2.72-12.88,1.41s-7.98-4.07-10.32-8.28c-2.32-4.17-2.85-8.5-1.58-12.99
		c1.26-4.49,3.95-7.87,8.04-10.15c4.29-2.39,8.68-2.89,13.17-1.5c4.49,1.39,7.87,4.12,10.14,8.2c1.52,2.73,2.26,5.62,2.21,8.64
		s-0.86,5.86-2.42,8.49S525.51,666.89,522.84,668.37z M519.93,663.01c2.65-1.47,4.36-3.63,5.14-6.47c0.78-2.84,0.38-5.68-1.2-8.52
		c-1.76-3.16-4.28-5.03-7.58-5.61c-2.56-0.46-4.99-0.05-7.27,1.22c-2.58,1.44-4.26,3.59-5.04,6.47c-0.78,2.88-0.41,5.68,1.11,8.41
		c1.51,2.72,3.71,4.52,6.59,5.38S517.31,664.47,519.93,663.01z"/>
	<path class="st2" d="M499.54,679.33l-5.8,2.33l-7.88-19.63c-0.68-1.69-1.31-2.83-1.88-3.41c-0.58-0.58-1.29-0.95-2.14-1.09
		c-0.85-0.15-1.76-0.03-2.72,0.36c-1.02,0.41-1.8,0.99-2.35,1.76c-0.55,0.76-0.82,1.56-0.81,2.4c0.01,0.83,0.42,2.27,1.24,4.3
		l7.59,18.91l-5.8,2.33l-7.27-18.1c-1.23-3.05-1.9-5.24-2.04-6.56c-0.13-1.32,0.07-2.73,0.6-4.22s1.32-2.75,2.37-3.79
		c1.05-1.04,2.42-1.89,4.1-2.57c2.2-0.88,4.32-1.15,6.36-0.79c2.04,0.36,3.71,1.15,5.02,2.39c1.31,1.24,2.69,3.67,4.15,7.29
		L499.54,679.33z"/>
	<path class="st2" d="M469.9,690.52l-5.97,1.78l-7.65-25.66l-8.7,2.59l-1.7-5.69l14.66-4.37L469.9,690.52z"/>
	<path class="st2" d="M419.21,702.73c-4.59,0.61-8.75-0.52-12.5-3.4c-3.75-2.88-5.94-6.71-6.58-11.48
		c-0.63-4.73,0.46-8.95,3.28-12.67c2.82-3.71,6.55-5.88,11.2-6.5c4.87-0.65,9.14,0.49,12.81,3.42s5.82,6.71,6.44,11.34
		c0.42,3.1,0.05,6.05-1.1,8.85s-2.94,5.14-5.36,7.01C424.96,701.18,422.24,702.32,419.21,702.73z M418.46,696.68
		c3-0.4,5.38-1.78,7.15-4.14c1.77-2.36,2.43-5.15,2-8.37c-0.48-3.59-2.15-6.25-5-7.99c-2.22-1.36-4.62-1.87-7.21-1.52
		c-2.93,0.39-5.28,1.78-7.05,4.18c-1.78,2.39-2.46,5.14-2.04,8.24c0.41,3.09,1.8,5.56,4.16,7.42S415.49,697.08,418.46,696.68z"/>
	<path class="st2" d="M393.49,704.32l-7.38,0.12c-4.75,0.08-8.3-0.45-10.62-1.6c-2.33-1.14-4.26-3.03-5.8-5.66s-2.34-5.71-2.39-9.26
		c-0.04-2.52,0.34-4.84,1.14-6.97c0.8-2.13,1.93-3.9,3.38-5.32s3.03-2.41,4.74-2.97c1.71-0.56,4.68-0.88,8.92-0.95l7.49-0.12
		L393.49,704.32z M387.21,698.41l-0.33-20.63l-2.89,0.05c-2.85,0.05-4.91,0.41-6.18,1.08s-2.3,1.79-3.09,3.34
		c-0.79,1.56-1.17,3.46-1.13,5.72c0.06,3.47,1.07,6.15,3.04,8.03c1.78,1.69,4.6,2.51,8.47,2.45L387.21,698.41z"/>
	<path class="st2" d="M358.75,703.89l-17.77-1.75l0.6-6.06l11.62,1.14l0.58-5.89l-11.62-1.14l0.59-5.95l11.62,1.14l0.84-8.56
		l-11.62-1.14l0.6-6.09l17.77,1.75L358.75,703.89z"/>
	<path class="st2" d="M330.33,691.86l5.72,1.1c-0.51,2.81-1.91,4.94-4.22,6.4s-5.05,1.88-8.24,1.27c-2.05-0.39-3.73-1.11-5.02-2.14
		c-1.3-1.03-2.24-2.35-2.83-3.94c-0.59-1.59-0.74-3.18-0.44-4.75c0.17-0.86,0.47-1.68,0.9-2.45c0.44-0.78,1.04-1.54,1.8-2.3
		c0.45-0.44,1.45-1.14,3.01-2.1c1.49-0.91,2.44-1.57,2.85-1.98c0.41-0.41,0.8-0.99,1.17-1.73c0.37-0.74,0.72-1.81,1.04-3.2
		l5.92,1.14l-0.17,0.99c-0.37,1.95-1.07,3.66-2.09,5.11c-1.02,1.46-2.46,2.73-4.33,3.82c-1.8,1.06-2.91,1.81-3.33,2.26
		s-0.69,1.01-0.82,1.7c-0.18,0.93,0.06,1.8,0.71,2.59c0.66,0.8,1.64,1.32,2.95,1.57c1.34,0.26,2.51,0.07,3.52-0.55
		C329.45,694.03,330.08,693.1,330.33,691.86z M329.42,674.09c-1.06-0.2-1.9-0.74-2.51-1.61s-0.82-1.82-0.62-2.86
		c0.2-1.03,0.74-1.85,1.62-2.44c0.88-0.59,1.85-0.79,2.9-0.59s1.87,0.74,2.46,1.62s0.79,1.83,0.59,2.87
		c-0.2,1.03-0.73,1.84-1.6,2.43C331.4,674.09,330.45,674.29,329.42,674.09z"/>
	<path class="st2" d="M277.57,681.65l5.68-2.36c0.8,2.66,2,4.26,3.59,4.8c0.77,0.26,1.48,0.27,2.11,0.03s1.04-0.63,1.22-1.15
		c0.18-0.52,0.17-1.07-0.02-1.65c-0.27-0.78-1.25-2.6-2.96-5.45c-1.61-2.65-2.56-4.3-2.88-4.95c-0.78-1.61-1.23-3.06-1.36-4.33
		c-0.12-1.27,0.04-2.56,0.48-3.87c0.87-2.54,2.46-4.34,4.78-5.39c2.32-1.06,4.89-1.1,7.72-0.14c2.21,0.75,3.94,1.95,5.21,3.59
		c1.27,1.64,2.09,3.82,2.46,6.53l-5.97,1.3c-0.55-3.24-1.8-5.2-3.74-5.86c-1.01-0.35-1.96-0.34-2.85,0.01
		c-0.89,0.35-1.47,0.92-1.73,1.69c-0.24,0.7-0.22,1.49,0.06,2.37c0.28,0.88,1.06,2.34,2.34,4.39c2.43,3.9,3.89,6.77,4.36,8.6
		c0.47,1.83,0.46,3.49-0.05,4.98c-0.73,2.15-2.18,3.71-4.34,4.69c-2.16,0.98-4.44,1.06-6.84,0.24c-1.54-0.53-2.89-1.39-4.05-2.58
		C279.62,685.93,278.56,684.11,277.57,681.65z"/>
	<path class="st2" d="M267.99,682.62l-16.32-7.25l2.47-5.57l10.67,4.74l2.4-5.41l-10.67-4.74l2.43-5.47l10.67,4.74l3.49-7.87
		l-10.67-4.74l2.48-5.59l16.32,7.25L267.99,682.62z"/>
	<path class="st2" d="M230.07,664.54c-3.99-2.35-6.56-5.82-7.73-10.4c-1.16-4.58-0.52-8.94,1.93-13.09
		c2.43-4.11,5.9-6.75,10.41-7.93c4.51-1.18,8.78-0.57,12.82,1.81c4.23,2.5,6.88,6.03,7.95,10.61c1.07,4.57,0.42,8.87-1.95,12.89
		c-1.59,2.69-3.7,4.79-6.34,6.28c-2.64,1.49-5.49,2.22-8.55,2.2C235.55,666.88,232.7,666.09,230.07,664.54z M233.23,659.33
		c2.61,1.54,5.33,1.93,8.18,1.16c2.85-0.76,5.1-2.54,6.75-5.34c1.84-3.12,2.18-6.24,1.01-9.37c-0.9-2.44-2.48-4.33-4.73-5.66
		c-2.54-1.5-5.25-1.86-8.13-1.08s-5.11,2.52-6.7,5.21c-1.58,2.68-2.02,5.48-1.32,8.4C229,655.58,230.64,657.8,233.23,659.33z"/>
	<path class="st2" d="M208.83,649.98l-4.94-3.82l12.94-16.73c1.11-1.44,1.78-2.56,1.99-3.35c0.21-0.79,0.16-1.59-0.14-2.4
		c-0.3-0.81-0.87-1.53-1.69-2.16c-0.87-0.67-1.77-1.05-2.7-1.14s-1.76,0.08-2.48,0.51c-0.72,0.43-1.75,1.51-3.09,3.25l-12.47,16.12
		l-4.94-3.82L203.24,621c2.01-2.6,3.56-4.3,4.63-5.08s2.39-1.32,3.94-1.62c1.55-0.3,3.04-0.26,4.47,0.13
		c1.43,0.38,2.86,1.13,4.29,2.23c1.88,1.45,3.18,3.15,3.9,5.08c0.72,1.94,0.88,3.79,0.48,5.54c-0.4,1.76-1.8,4.18-4.18,7.26
		L208.83,649.98z"/>
	<path class="st2" d="M184.2,630.11l-4.56-4.24l18.24-19.6l-6.64-6.18l4.04-4.35l11.2,10.42L184.2,630.11z"/>
	<path class="st2" d="M147.98,592.69c-2.86-3.64-4.01-7.8-3.43-12.49c0.57-4.69,2.75-8.52,6.54-11.5c3.75-2.95,7.94-4.16,12.57-3.62
		c4.63,0.54,8.4,2.65,11.29,6.33c3.04,3.86,4.23,8.11,3.57,12.77c-0.66,4.65-2.82,8.42-6.49,11.31c-2.46,1.93-5.19,3.12-8.18,3.55
		s-5.92,0.08-8.76-1.05C152.24,596.86,149.87,595.09,147.98,592.69z M152.81,588.97c1.87,2.38,4.27,3.73,7.2,4.05
		c2.93,0.32,5.67-0.53,8.22-2.53c2.84-2.24,4.29-5.03,4.34-8.37c0.04-2.6-0.74-4.93-2.36-6.98c-1.83-2.32-4.22-3.64-7.18-3.95
		c-2.96-0.31-5.67,0.5-8.13,2.43c-2.45,1.93-3.87,4.38-4.27,7.36S150.95,586.62,152.81,588.97z"/>
	<path class="st2" d="M133.22,571.14l-3.77-6.34c-2.43-4.09-3.73-7.42-3.9-10.01c-0.17-2.59,0.5-5.2,2.02-7.85
		c1.52-2.64,3.8-4.87,6.84-6.68c2.17-1.29,4.37-2.11,6.61-2.47c2.24-0.36,4.34-0.26,6.29,0.29c1.95,0.55,3.6,1.43,4.93,2.64
		c1.34,1.2,3.09,3.63,5.26,7.27l3.83,6.44L133.22,571.14z M135.22,562.76l17.74-10.55l-1.48-2.48c-1.46-2.45-2.79-4.05-4.01-4.82
		c-1.22-0.77-2.7-1.11-4.44-1.02s-3.58,0.71-5.52,1.86c-2.98,1.78-4.8,3.99-5.46,6.64c-0.58,2.38,0.11,5.24,2.09,8.56L135.22,562.76
		z"/>
	<path class="st2" d="M116.23,541.15l-7.5-16.21l5.53-2.56l4.9,10.6l5.37-2.48l-4.9-10.6l5.43-2.51l4.9,10.6l7.81-3.61l-4.9-10.6
		l5.55-2.57l7.5,16.21L116.23,541.15z"/>
	<path class="st2" d="M112.2,510.52l1.95,5.49c-2.68,0.98-5.23,0.85-7.65-0.4c-2.42-1.25-4.17-3.4-5.26-6.46
		c-0.7-1.97-0.93-3.78-0.7-5.42c0.24-1.64,0.89-3.12,1.96-4.44s2.37-2.24,3.87-2.78c0.82-0.29,1.68-0.45,2.57-0.46
		c0.89-0.02,1.86,0.11,2.9,0.39c0.61,0.16,1.72,0.67,3.33,1.53c1.54,0.82,2.58,1.31,3.15,1.45c0.56,0.15,1.26,0.19,2.09,0.13
		c0.83-0.06,1.92-0.3,3.29-0.72l2.02,5.68l-0.94,0.36c-1.87,0.67-3.69,0.93-5.47,0.79c-1.77-0.14-3.6-0.74-5.49-1.8
		c-1.83-1.02-3.04-1.6-3.64-1.73c-0.6-0.13-1.23-0.08-1.88,0.15c-0.89,0.32-1.52,0.96-1.88,1.93c-0.36,0.97-0.31,2.08,0.14,3.34
		c0.46,1.29,1.21,2.21,2.26,2.76C109.87,510.86,111,510.93,112.2,510.52z M127.06,500.74c-0.36-1.02-0.32-2.01,0.12-2.98
		c0.44-0.97,1.16-1.63,2.15-1.98c0.99-0.35,1.97-0.3,2.93,0.17c0.96,0.46,1.62,1.2,1.97,2.2c0.36,1.01,0.31,1.99-0.15,2.94
		c-0.46,0.96-1.18,1.61-2.17,1.96c-0.99,0.35-1.96,0.3-2.91-0.15C128.06,502.45,127.41,501.73,127.06,500.74z"/>
	<path class="st2" d="M94.3,459.86l4.91,3.7c-1.88,2.04-2.66,3.88-2.32,5.52c0.16,0.8,0.51,1.41,1.04,1.83
		c0.53,0.42,1.07,0.58,1.6,0.47c0.54-0.11,1.01-0.4,1.41-0.86c0.54-0.62,1.61-2.4,3.2-5.32c1.47-2.73,2.41-4.39,2.82-4.99
		c1-1.49,2.01-2.61,3.05-3.36c1.04-0.75,2.23-1.26,3.58-1.54c2.63-0.54,4.99-0.07,7.07,1.4c2.09,1.47,3.43,3.66,4.02,6.59
		c0.47,2.28,0.31,4.39-0.46,6.31c-0.77,1.92-2.23,3.73-4.38,5.43l-4.14-4.5c2.52-2.12,3.57-4.18,3.16-6.19
		c-0.21-1.05-0.7-1.87-1.45-2.45c-0.76-0.59-1.53-0.8-2.33-0.64c-0.73,0.15-1.4,0.57-2.01,1.25c-0.62,0.69-1.49,2.1-2.61,4.24
		c-2.13,4.07-3.87,6.78-5.21,8.11c-1.34,1.33-2.78,2.16-4.32,2.47c-2.22,0.45-4.3,0-6.24-1.37c-1.94-1.37-3.16-3.3-3.67-5.79
		c-0.33-1.6-0.27-3.2,0.18-4.8C91.65,463.79,92.68,461.95,94.3,459.86z"/>
	<path class="st2" d="M88.61,452.1l-2.02-17.74l6.05-0.69l1.32,11.6l5.88-0.67L98.53,433l5.94-0.68l1.32,11.6l8.55-0.97l-1.32-11.6
		l6.08-0.69l2.02,17.74L88.61,452.1z"/>
	<path class="st2" d="M84.99,409.77c0.08-4.63,1.81-8.58,5.22-11.86c3.4-3.28,7.52-4.88,12.33-4.8c4.77,0.08,8.79,1.79,12.04,5.12
		c3.25,3.34,4.84,7.35,4.76,12.04c-0.08,4.91-1.84,8.96-5.29,12.16s-7.51,4.75-12.18,4.68c-3.13-0.05-5.99-0.85-8.59-2.41
		c-2.6-1.56-4.64-3.67-6.14-6.34C85.66,415.69,84.94,412.82,84.99,409.77z M91.08,409.93c-0.05,3.03,0.96,5.59,3.03,7.69
		c2.07,2.1,4.73,3.17,7.98,3.22c3.62,0.06,6.5-1.19,8.65-3.76c1.68-1.99,2.54-4.29,2.58-6.91c0.05-2.95-0.98-5.48-3.08-7.6
		c-2.1-2.11-4.71-3.19-7.84-3.24c-3.11-0.05-5.77,0.95-7.96,3.01C92.25,404.41,91.13,406.94,91.08,409.93z"/>
	<path class="st2" d="M86.72,384.62l0.78-6.2l20.99,2.63c1.81,0.23,3.11,0.23,3.9,0.01c0.79-0.22,1.45-0.67,1.99-1.34
		c0.54-0.67,0.87-1.52,1-2.55c0.14-1.09,0-2.06-0.4-2.91c-0.4-0.85-0.97-1.47-1.7-1.87c-0.73-0.4-2.19-0.73-4.36-1.01l-20.22-2.53
		l0.78-6.2l19.35,2.43c3.27,0.41,5.51,0.88,6.73,1.4c1.22,0.53,2.35,1.38,3.4,2.57s1.77,2.49,2.17,3.91
		c0.4,1.42,0.48,3.03,0.26,4.83c-0.29,2.35-1.09,4.33-2.39,5.94c-1.3,1.61-2.81,2.68-4.53,3.23c-1.72,0.55-4.51,0.58-8.38,0.09
		L86.72,384.62z"/>
	<path class="st2" d="M91.31,353.3l1.34-6.08l26.15,5.75l1.95-8.86l5.8,1.27l-3.28,14.94L91.31,353.3z"/>
	<path class="st2" d="M105.2,303.05c1.69-4.31,4.7-7.41,9.03-9.29c4.33-1.88,8.74-1.94,13.23-0.19c4.45,1.74,7.61,4.74,9.49,9.01
		c1.88,4.27,1.97,8.58,0.26,12.95c-1.79,4.57-4.86,7.75-9.2,9.54c-4.35,1.79-8.69,1.83-13.04,0.13c-2.91-1.14-5.32-2.89-7.21-5.26
		c-1.89-2.37-3.07-5.06-3.53-8.09S104.08,305.89,105.2,303.05z M110.85,305.33c-1.1,2.82-1.05,5.57,0.16,8.26
		c1.21,2.69,3.32,4.62,6.35,5.81c3.37,1.32,6.51,1.15,9.41-0.5c2.27-1.28,3.88-3.14,4.83-5.57c1.08-2.75,1-5.48-0.23-8.19
		c-1.23-2.71-3.3-4.64-6.22-5.78c-2.9-1.13-5.73-1.12-8.51,0.04C113.87,300.56,111.94,302.54,110.85,305.33z"/>
	<path class="st2" d="M116.33,279.38l3.56-6.46c2.3-4.16,4.52-6.97,6.67-8.43c2.15-1.45,4.75-2.2,7.79-2.22s6.12,0.81,9.22,2.52
		c2.21,1.22,4.03,2.7,5.48,4.46c1.45,1.75,2.42,3.61,2.93,5.58c0.51,1.96,0.58,3.83,0.22,5.59c-0.36,1.76-1.57,4.5-3.61,8.21
		l-3.62,6.56L116.33,279.38z M124.57,276.87l18.07,9.97l1.4-2.53c1.38-2.49,2.09-4.46,2.13-5.9c0.05-1.44-0.41-2.89-1.37-4.35
		c-0.96-1.46-2.42-2.73-4.4-3.82c-3.04-1.68-5.87-2.13-8.48-1.35c-2.35,0.7-4.46,2.74-6.33,6.13L124.57,276.87z"/>
	<path class="st2" d="M133.61,249.57l10.19-14.66l5,3.48l-6.66,9.59l4.86,3.38l6.66-9.59l4.91,3.41l-6.66,9.59l7.07,4.91l6.66-9.59
		l5.02,3.49l-10.19,14.66L133.61,249.57z"/>
	<path class="st2" d="M157.97,230.62l-3.75,4.46c-2.21-1.81-3.38-4.08-3.53-6.8c-0.15-2.72,0.82-5.32,2.91-7.81
		c1.34-1.6,2.78-2.72,4.32-3.34c1.53-0.63,3.14-0.81,4.82-0.56c1.68,0.26,3.13,0.9,4.36,1.93c0.67,0.56,1.24,1.22,1.7,1.98
		s0.84,1.66,1.14,2.69c0.17,0.61,0.29,1.82,0.37,3.65c0.07,1.74,0.18,2.89,0.34,3.45c0.16,0.56,0.47,1.18,0.94,1.87
		s1.23,1.51,2.28,2.47l-3.87,4.62l-0.78-0.63c-1.52-1.28-2.67-2.72-3.45-4.32c-0.78-1.6-1.19-3.48-1.23-5.65
		c-0.05-2.09-0.16-3.43-0.35-4.01c-0.19-0.58-0.55-1.1-1.08-1.55c-0.73-0.61-1.6-0.82-2.61-0.64s-1.95,0.79-2.81,1.81
		c-0.88,1.04-1.29,2.16-1.24,3.35C156.5,228.79,157.01,229.79,157.97,230.62z M173.93,238.48c0.7-0.83,1.57-1.3,2.63-1.41
		c1.06-0.11,1.99,0.18,2.8,0.85s1.25,1.55,1.34,2.61c0.09,1.06-0.21,2-0.9,2.82c-0.69,0.82-1.56,1.27-2.61,1.36s-1.98-0.2-2.79-0.88
		c-0.81-0.68-1.25-1.54-1.35-2.58C172.96,240.21,173.26,239.28,173.93,238.48z"/>
	<path class="st2" d="M192.52,189.51l-0.69,6.11c-2.71-0.59-4.69-0.32-5.94,0.81c-0.61,0.55-0.96,1.16-1.05,1.83
		s0.04,1.21,0.41,1.62c0.37,0.41,0.85,0.67,1.46,0.78c0.81,0.15,2.88,0.17,6.21,0.06c3.1-0.12,5-0.15,5.73-0.11
		c1.79,0.1,3.27,0.41,4.44,0.92s2.22,1.28,3.14,2.3c1.8,1.99,2.6,4.26,2.39,6.8c-0.2,2.54-1.41,4.81-3.63,6.81
		c-1.73,1.56-3.62,2.5-5.67,2.81c-2.05,0.31-4.35-0.03-6.9-1.02l1.77-5.85c3.11,1.09,5.42,0.95,6.94-0.42
		c0.79-0.72,1.25-1.55,1.37-2.5s-0.09-1.73-0.64-2.33c-0.5-0.55-1.2-0.92-2.1-1.1c-0.9-0.18-2.56-0.21-4.98-0.09
		c-4.59,0.23-7.8,0.11-9.63-0.36c-1.83-0.47-3.27-1.3-4.32-2.46c-1.52-1.68-2.18-3.71-1.99-6.07s1.23-4.4,3.12-6.1
		c1.21-1.09,2.62-1.86,4.22-2.28C187.79,189.23,189.9,189.18,192.52,189.51z"/>
	<path class="st2" d="M196.3,180.67l14.25-10.76l3.67,4.86l-9.32,7.04l3.57,4.72l9.32-7.04l3.61,4.77l-9.32,7.04l5.19,6.87
		l9.32-7.04l3.69,4.88l-14.25,10.76L196.3,180.67z"/>
	<path class="st2" d="M230.48,156.27c3.99-2.35,8.27-2.92,12.84-1.73s8.08,3.87,10.52,8.02c2.42,4.11,3.06,8.43,1.9,12.95
		c-1.15,4.52-3.75,7.96-7.79,10.34c-4.23,2.49-8.61,3.1-13.13,1.82c-4.52-1.28-7.97-3.93-10.34-7.95c-1.59-2.7-2.39-5.56-2.42-8.59
		c-0.03-3.03,0.71-5.88,2.21-8.54C225.78,159.93,227.84,157.82,230.48,156.27z M233.51,161.56c-2.61,1.54-4.27,3.73-4.98,6.59
		c-0.71,2.86-0.24,5.69,1.41,8.49c1.84,3.12,4.41,4.92,7.71,5.42c2.57,0.39,4.99-0.07,7.24-1.4c2.54-1.5,4.17-3.69,4.88-6.59
		c0.71-2.89,0.27-5.69-1.32-8.38c-1.58-2.68-3.82-4.42-6.72-5.22C238.84,159.67,236.1,160.04,233.51,161.56z"/>
	<path class="st2" d="M253.54,144.72l5.74-2.47l8.36,19.43c0.72,1.67,1.38,2.79,1.97,3.36s1.31,0.91,2.17,1.04
		c0.85,0.12,1.76-0.02,2.71-0.43c1.01-0.43,1.78-1.04,2.31-1.81c0.53-0.78,0.78-1.58,0.75-2.42c-0.03-0.83-0.48-2.26-1.34-4.27
		l-8.05-18.72l5.74-2.47l7.71,17.92c1.3,3.02,2.03,5.19,2.2,6.51c0.16,1.32,0,2.73-0.49,4.23c-0.49,1.5-1.25,2.79-2.28,3.85
		c-1.03,1.06-2.37,1.95-4.03,2.67c-2.18,0.94-4.29,1.25-6.34,0.95c-2.04-0.31-3.74-1.06-5.08-2.27c-1.34-1.21-2.78-3.6-4.32-7.18
		L253.54,144.72z"/>
	<path class="st2" d="M282.86,132.83l5.92-1.93l8.28,25.46l8.63-2.81l1.84,5.65l-14.55,4.73L282.86,132.83z"/>
</g>
<g>
	<path class="st3" d="M544.61,479.53c0,7.74-4.26,15.11-12.01,21.84c-4.02-3.59-9.19-5.76-14.87-5.76c-6.63,0-12.62,2.99-16.84,7.77
		c-4.24-7.62-12.04-12.71-20.93-12.71c-9.72,0-18.13,6.08-22.03,14.89c-0.37-0.05-0.76-0.05-1.12-0.05
		c-10.09,0-18.28,8.31-18.28,18.55c0,3.27,0.83,6.33,2.32,8.98c-16.67,2.2-34.68,3.39-53.42,3.39c-8.72,0-17.3-0.25-25.64-0.77
		c0.02-0.12,0.02-0.27,0.05-0.42v-0.02c2.36-3.09,3.73-6.95,3.73-11.16c0-10.24-8.19-18.55-18.28-18.55c-0.37,0-0.76,0-1.12,0.05
		c-3.9-8.81-12.31-14.89-22.03-14.89c-4.46,0-8.65,1.29-12.23,3.54c-1.88-0.69-3.92-1.06-6.04-1.06c-0.37,0-0.76,0-1.12,0.05
		c-3.9-8.81-12.31-14.89-22.03-14.89c-8.89,0-16.69,5.1-20.93,12.71c-4.22-4.77-10.21-7.77-16.84-7.77c-4.87,0-9.38,1.61-13.11,4.35
		c-1.05-2.62-1.58-5.32-1.58-8.06c0-31.41,70.38-56.89,157.18-56.89S544.61,448.12,544.61,479.53z"/>
	<ellipse class="st3" cx="325.28" cy="344.72" rx="38.99" ry="50.71"/>
	<ellipse class="st3" cx="394.73" cy="364.51" rx="23.15" ry="33.39"/>
	<ellipse class="st3" cx="506.83" cy="347.19" rx="32.9" ry="53.18"/>
	<line class="st3" x1="335.03" y1="423.63" x2="335.03" y2="394.61"/>
	<line class="st3" x1="398.39" y1="397.23" x2="398.39" y2="421.21"/>
	<line class="st3" x1="511.71" y1="402.59" x2="511.71" y2="445.16"/>
	<path class="st3" d="M365.56,524.05c0,4.2-1.36,8.06-3.73,11.16v0.02c-0.02,0.15-0.02,0.3-0.05,0.42
		c-0.37,2.72-1.63,5.17-3.46,7.03c-2.22,2.25-5.24,3.64-8.6,3.64h-65.8c-3.92,0-7.41-1.9-9.63-4.85c-2.9-1.9-5.39-4.48-7.26-7.52
		H242.5c-3.92,0-7.41-1.9-9.63-4.85c-6.65-4.35-11.09-12.19-11.09-21.12c0-8.46,3.97-15.93,10.04-20.38
		c3.73-2.75,8.24-4.35,13.11-4.35c6.63,0,12.62,2.99,16.84,7.77c4.24-7.62,12.04-12.71,20.93-12.71c9.72,0,18.13,6.08,22.03,14.89
		c0.37-0.05,0.76-0.05,1.12-0.05c2.12,0,4.17,0.37,6.04,1.06c3.58-2.25,7.77-3.54,12.23-3.54c9.72,0,18.13,6.08,22.03,14.89
		c0.37-0.05,0.76-0.05,1.12-0.05C357.37,505.5,365.56,513.81,365.56,524.05z"/>
	<path class="st3" d="M400.18,288.91c0,4.52-3.62,8.19-8.07,8.19c-1.79,0-3.42-0.59-4.76-1.59c-1.6,1.02-3.46,1.59-5.47,1.59
		c-3.22,0-6.11-1.51-8.09-3.91c-1.82,3.01-4.98,5-8.59,5c-5.65,0-10.22-4.89-10.22-10.92s4.57-10.92,10.22-10.92
		c2.93,0,5.57,1.32,7.43,3.43c1.87-3.36,5.32-5.61,9.24-5.61c4.29,0,8.01,2.69,9.73,6.57c0.16-0.02,0.33-0.02,0.49-0.02
		C396.56,280.71,400.18,284.38,400.18,288.91z"/>
	<path class="st3" d="M408.02,313.78c0,5.9,4.72,10.69,10.54,10.69c2.33,0,4.47-0.77,6.21-2.08c2.09,1.33,4.52,2.08,7.14,2.08
		c4.2,0,7.98-1.97,10.56-5.1c2.37,3.94,6.5,6.53,11.21,6.53c7.38,0,13.35-6.39,13.35-14.26s-5.97-14.26-13.35-14.26
		c-3.82,0-7.28,1.73-9.71,4.48c-2.44-4.39-6.94-7.33-12.07-7.33c-5.61,0-10.45,3.51-12.7,8.58c-0.21-0.03-0.44-0.03-0.65-0.03
		C412.74,303.09,408.02,307.88,408.02,313.78z"/>
	<path class="st3" d="M540.88,520.34c0,8.93-4.44,16.77-11.09,21.12c-2.22,2.94-5.7,4.85-9.63,4.85h-65.8
		c-3.36,0-6.38-1.39-8.6-3.64c-1.92-1.95-3.22-4.55-3.51-7.45v-0.02c-0.54-0.69-1-1.41-1.41-2.18c-1.49-2.65-2.32-5.71-2.32-8.98
		c0-10.24,8.19-18.55,18.28-18.55c0.37,0,0.76,0,1.12,0.05c3.9-8.81,12.31-14.89,22.03-14.89c8.89,0,16.69,5.1,20.93,12.71
		c4.22-4.77,10.21-7.77,16.84-7.77c5.68,0,10.84,2.18,14.87,5.76C537.66,505.9,540.88,512.73,540.88,520.34z"/>
	<line class="st3" x1="318.11" y1="426.15" x2="318.11" y2="397.12"/>
	<line class="st3" x1="388.78" y1="398.94" x2="388.78" y2="418.39"/>
	<line class="st3" x1="498.45" y1="401.95" x2="498.45" y2="435.77"/>
	<ellipse class="st3" cx="245.52" cy="378.4" rx="28.58" ry="37.4"/>
	<line class="st3" x1="240.09" y1="415.54" x2="240.09" y2="458.11"/>
	<line class="st3" x1="253.35" y1="414.9" x2="253.35" y2="448.72"/>
	<path class="st3" d="M289.94,458.5c0,0,42.57-17.1,110.23-14.73"/>
	<path class="st3" d="M377.67,510.15c0,0,29.62,5.01,47.71,0"/>
	<path class="st3" d="M448.35,451.08c0,0,61.21,10.27,52.54,28.63"/>
	<path class="st3" d="M392.3,462.93c0,0-92.6,0.52-38.99,20.31"/>
	<path class="st3" d="M410.46,490.45c0,0,79.6-0.88,29.5-20.12"/>
</g>
<path class="st4" d="M235.18,329.12c15.06,8.86,37.35-1.11,37.35-1.11s-2.12-24.32-17.17-33.18S218,295.94,218,295.94
	S220.12,320.26,235.18,329.12z"/>
<path class="st4" d="M269.72,283.86c-6.14,12.42,2.06,29,2.06,29s18.15-3.56,24.29-15.98c6.14-12.42-2.06-29-2.06-29
	S275.86,271.44,269.72,283.86z"/>
</svg>
