<?xml version="1.0" encoding="utf-8"?>
<!-- Generator: Adobe Illustrator 27.4.0, SVG Export Plug-In . SVG Version: 6.00 Build 0)  -->
<svg version="1.1" id="레이어_1" xmlns="http://www.w3.org/2000/svg" xmlns:xlink="http://www.w3.org/1999/xlink" x="0px"
	 y="0px" viewBox="0 0 762.52 822.05" style="enable-background:new 0 0 762.52 822.05;" xml:space="preserve">
<style type="text/css">
	.st0{fill:none;stroke:#463C33;stroke-width:3;stroke-miterlimit:10;}
	.st1{fill:none;stroke:#463C33;stroke-width:4;stroke-linecap:round;stroke-linejoin:round;stroke-miterlimit:10;}
	.st2{fill:none;stroke:#463C33;stroke-width:4;stroke-miterlimit:10;}
	.st3{fill:none;stroke:#463C33;stroke-width:3;stroke-linecap:round;stroke-linejoin:round;stroke-miterlimit:10;}
	.st4{fill:#463C33;}
	.st5{fill:#ABB868;}
	.st6{fill:none;stroke:#463C33;stroke-width:3;stroke-linecap:round;stroke-linejoin:round;stroke-dasharray:3.0078,6.0156;}
</style>
<ellipse class="st0" cx="381.26" cy="411.02" rx="318.22" ry="312.94"/>
<ellipse class="st0" cx="381.26" cy="411.02" rx="249.09" ry="244.96"/>
<ellipse class="st0" cx="381.26" cy="411.02" rx="224.06" ry="220.35"/>
<g>
	<rect x="228.04" y="367.43" class="st1" width="310.07" height="37.07"/>
	<rect x="205.46" y="478.16" class="st1" width="354.89" height="37.07"/>
	<polyline class="st1" points="274.74,367.43 274.74,340.97 478.31,340.97 478.31,367.43 	"/>
	<path class="st1" d="M245.58,404.49c-1.24,5.52,0,73.66,0,73.66"/>
	<path class="st1" d="M261.05,404.49c-0.41,5.52,0,73.66,0,73.66"/>
	<line class="st1" x1="320.26" y1="404.49" x2="320.26" y2="478.16"/>
	<line class="st1" x1="337.49" y1="404.49" x2="337.49" y2="478.16"/>
	<line class="st1" x1="421.45" y1="404.49" x2="421.45" y2="478.16"/>
	<line class="st1" x1="437.8" y1="404.49" x2="438.32" y2="476"/>
	<path class="st1" d="M500.59,404.49c1.2,5.52,0.21,71.51,0.21,71.51"/>
	<line class="st1" x1="517.79" y1="404.49" x2="518.3" y2="476"/>
	<path class="st1" d="M290.65,478.16"/>
	<path class="st1" d="M290.65,404.49"/>
	<path class="st1" d="M297.72,404.49c-1.24,5.52-1.86,71.51-1.86,71.51"/>
	<line class="st1" x1="463.31" y1="404.74" x2="464.32" y2="478.16"/>
	<path class="st1" d="M465.55,404.98c0.49-1.56,0.55,72.73,2,73"/>
	<path class="st2" d="M281.82,340.97c0,0,34.5-71.72,93.02-71.61c0,0,62.89-1.7,96.55,71.61"/>
	<path class="st2" d="M374.83,269.36c-35.71,8.41-29.47,59.73-33.81,71.61"/>
	<path class="st2" d="M413.8,337.61"/>
	<path class="st2" d="M413.8,340.97c0,0,7.02-49.26-22.97-68.91"/>
</g>
<path class="st3" d="M294.95,405.51c-1.19,5.27-0.4,70.47-0.4,70.47"/>
<g>
	<path class="st4" d="M347.86,123.93c4.58-0.49,8.69,0.72,12.33,3.62c3.64,2.9,5.72,6.7,6.22,11.38c0.5,4.64-0.71,8.74-3.61,12.31
		c-2.9,3.56-6.67,5.59-11.31,6.09c-4.85,0.52-9.07-0.7-12.63-3.65c-3.57-2.96-5.59-6.71-6.08-11.25c-0.33-3.04,0.12-5.92,1.34-8.63
		c1.22-2.71,3.06-4.96,5.52-6.73S344.83,124.25,347.86,123.93z M348.43,129.86c-2.99,0.32-5.4,1.62-7.22,3.88
		c-1.82,2.27-2.56,4.98-2.22,8.13c0.38,3.52,1.96,6.16,4.75,7.93c2.17,1.39,4.54,1.94,7.12,1.66c2.92-0.31,5.3-1.62,7.13-3.91
		c1.83-2.3,2.58-4.96,2.26-8.01c-0.33-3.03-1.63-5.48-3.93-7.35S351.39,129.54,348.43,129.86z"/>
	<path class="st4" d="M373.68,122.85l7.33,0.15c4.73,0.09,8.23,0.74,10.5,1.94c2.27,1.2,4.13,3.11,5.57,5.73
		c1.44,2.62,2.12,5.67,2.05,9.13c-0.05,2.46-0.51,4.72-1.38,6.77c-0.87,2.05-2.06,3.74-3.55,5.07c-1.49,1.33-3.1,2.24-4.82,2.73
		c-1.72,0.49-4.68,0.69-8.9,0.61l-7.45-0.15L373.68,122.85z M379.71,128.84l-0.4,20.18l2.87,0.06c2.83,0.06,4.89-0.22,6.18-0.84
		c1.29-0.61,2.35-1.67,3.19-3.16s1.28-3.34,1.33-5.55c0.07-3.4-0.85-6.05-2.74-7.96c-1.71-1.72-4.48-2.61-8.33-2.69L379.71,128.84z"
		/>
	<path class="st4" d="M407.83,124.23l17.63,2.14l-0.72,5.92l-11.53-1.4l-0.7,5.74l11.53,1.4l-0.7,5.81l-11.53-1.4l-1.01,8.35
		l11.53,1.4l-0.72,5.94l-17.63-2.14L407.83,124.23z"/>
	<path class="st4" d="M435.79,136.68l-5.67-1.21c0.56-2.74,1.99-4.79,4.3-6.16c2.31-1.37,5.05-1.71,8.21-1.04
		c2.03,0.44,3.68,1.17,4.95,2.22s2.18,2.35,2.74,3.92c0.56,1.57,0.68,3.12,0.35,4.66c-0.18,0.84-0.49,1.63-0.94,2.38
		c-0.45,0.75-1.06,1.49-1.83,2.21c-0.45,0.42-1.46,1.08-3.02,1.98c-1.49,0.85-2.45,1.47-2.86,1.87c-0.42,0.39-0.81,0.95-1.19,1.67
		c-0.38,0.72-0.75,1.75-1.09,3.1l-5.86-1.26l0.18-0.96c0.41-1.9,1.13-3.55,2.17-4.95c1.04-1.4,2.5-2.61,4.37-3.63
		c1.81-0.99,2.93-1.7,3.35-2.13c0.42-0.43,0.71-0.98,0.85-1.64c0.19-0.91-0.03-1.76-0.66-2.56c-0.64-0.8-1.6-1.33-2.9-1.61
		c-1.33-0.28-2.5-0.13-3.51,0.45C436.71,134.57,436.06,135.47,435.79,136.68z M436.38,154.09c1.05,0.23,1.87,0.77,2.46,1.64
		c0.59,0.87,0.78,1.81,0.56,2.81c-0.21,1.01-0.77,1.79-1.66,2.35s-1.85,0.73-2.89,0.5c-1.04-0.22-1.84-0.77-2.42-1.64
		c-0.57-0.87-0.75-1.81-0.54-2.82c0.22-1.01,0.76-1.79,1.63-2.34C434.41,154.04,435.35,153.87,436.38,154.09z"/>
	<path class="st4" d="M487.95,147.96l-5.67,2.17c-0.76-2.62-1.92-4.22-3.49-4.79c-0.76-0.28-1.46-0.3-2.09-0.08
		c-0.63,0.23-1.04,0.59-1.22,1.09s-0.18,1.04,0,1.62c0.25,0.77,1.21,2.58,2.86,5.42c1.56,2.63,2.48,4.28,2.78,4.92
		c0.75,1.6,1.18,3.03,1.28,4.27s-0.08,2.51-0.54,3.77c-0.9,2.47-2.51,4.19-4.83,5.16c-2.32,0.98-4.87,0.96-7.66-0.06
		c-2.18-0.79-3.88-2.01-5.12-3.65s-2.02-3.79-2.35-6.46l5.95-1.12c0.5,3.19,1.71,5.14,3.63,5.83c1,0.36,1.94,0.38,2.83,0.06
		c0.89-0.32,1.47-0.86,1.74-1.61c0.25-0.68,0.24-1.46-0.03-2.32c-0.27-0.87-1.02-2.32-2.25-4.36c-2.36-3.88-3.76-6.73-4.2-8.53
		c-0.44-1.8-0.4-3.43,0.12-4.87c0.76-2.08,2.22-3.58,4.38-4.48c2.16-0.9,4.42-0.92,6.8-0.06c1.53,0.56,2.85,1.43,3.98,2.63
		S487.01,145.53,487.95,147.96z"/>
	<path class="st4" d="M497.42,147.23l16.09,7.52l-2.52,5.4l-10.52-4.91l-2.45,5.24l10.52,4.91l-2.48,5.3l-10.52-4.91l-3.56,7.62
		l10.52,4.91l-2.53,5.42l-16.09-7.52L497.42,147.23z"/>
	<path class="st4" d="M534.73,165.91c3.92,2.41,6.43,5.88,7.53,10.41c1.1,4.53,0.42,8.8-2.05,12.81c-2.45,3.98-5.91,6.48-10.39,7.52
		c-4.48,1.04-8.7,0.34-12.67-2.11c-4.16-2.56-6.74-6.1-7.75-10.62c-1.01-4.52-0.32-8.73,2.08-12.61c1.6-2.6,3.72-4.61,6.35-6
		c2.63-1.4,5.46-2.04,8.48-1.94C529.34,163.47,532.15,164.32,534.73,165.91z M531.55,170.95c-2.56-1.58-5.26-2.03-8.08-1.35
		c-2.83,0.68-5.07,2.37-6.74,5.07c-1.86,3.01-2.22,6.07-1.1,9.18c0.87,2.42,2.4,4.31,4.62,5.68c2.5,1.54,5.18,1.96,8.03,1.27
		s5.08-2.34,6.69-4.95c1.6-2.59,2.06-5.33,1.4-8.22S534.09,172.51,531.55,170.95z"/>
	<path class="st4" d="M555.54,180.73l4.84,3.89l-12.96,16.13c-1.12,1.39-1.78,2.47-2,3.25c-0.22,0.77-0.18,1.56,0.11,2.36
		c0.29,0.8,0.84,1.53,1.65,2.17c0.85,0.68,1.74,1.08,2.66,1.19c0.92,0.11,1.74-0.04,2.45-0.44c0.71-0.4,1.74-1.44,3.08-3.11
		l12.48-15.53l4.84,3.89l-11.95,14.87c-2.02,2.51-3.56,4.13-4.63,4.88s-2.37,1.24-3.91,1.49c-1.54,0.25-3.01,0.17-4.42-0.24
		c-1.41-0.41-2.81-1.19-4.21-2.31c-1.84-1.48-3.11-3.18-3.8-5.1c-0.69-1.92-0.83-3.75-0.42-5.47s1.82-4.07,4.21-7.04L555.54,180.73z
		"/>
	<path class="st4" d="M579.64,200.93l4.45,4.3l-18.2,18.83l6.49,6.27l-4.04,4.18l-10.94-10.57L579.64,200.93z"/>
	<path class="st4" d="M614.9,238.85c2.77,3.68,3.84,7.82,3.22,12.44c-0.62,4.62-2.82,8.34-6.58,11.18
		c-3.73,2.81-7.87,3.88-12.42,3.22c-4.55-0.66-8.23-2.86-11.03-6.58c-2.94-3.9-4.05-8.14-3.35-12.72c0.71-4.58,2.88-8.24,6.53-10.99
		c2.44-1.84,5.14-2.93,8.1-3.28s5.82,0.09,8.61,1.29C610.77,234.61,613.08,236.42,614.9,238.85z M610.11,242.38
		c-1.81-2.4-4.16-3.81-7.04-4.21s-5.59,0.36-8.12,2.27c-2.83,2.13-4.28,4.84-4.37,8.15c-0.08,2.57,0.67,4.89,2.23,6.97
		c1.77,2.35,4.11,3.71,7.02,4.11c2.91,0.39,5.59-0.33,8.03-2.17c2.43-1.83,3.86-4.21,4.3-7.15
		C612.58,247.42,611.9,244.76,610.11,242.38z"/>
	<path class="st4" d="M629.14,260.6l3.6,6.39c2.32,4.12,3.54,7.46,3.67,10.03s-0.58,5.14-2.11,7.71s-3.81,4.71-6.82,6.41
		c-2.15,1.21-4.33,1.96-6.53,2.25c-2.21,0.29-4.27,0.13-6.17-0.48c-1.91-0.61-3.51-1.53-4.8-2.76c-1.29-1.23-2.97-3.68-5.04-7.35
		l-3.66-6.49L629.14,260.6z M627.04,268.83l-17.58,9.91l1.41,2.5c1.39,2.47,2.68,4.1,3.86,4.9c1.18,0.8,2.63,1.18,4.34,1.14
		s3.53-0.59,5.45-1.68c2.96-1.67,4.78-3.8,5.46-6.4c0.61-2.34-0.03-5.19-1.92-8.54L627.04,268.83z"/>
	<path class="st4" d="M645.32,290.83l7.03,16.31l-5.47,2.36l-4.6-10.66l-5.31,2.29l4.6,10.66l-5.37,2.32l-4.6-10.66l-7.73,3.33
		l4.6,10.66l-5.49,2.37l-7.03-16.31L645.32,290.83z"/>
	<path class="st4" d="M633.86,330.57c0.33,1.02,0.27,2.01-0.19,2.95c-0.46,0.95-1.17,1.58-2.15,1.89s-1.93,0.23-2.86-0.26
		c-0.93-0.49-1.56-1.24-1.88-2.25c-0.33-1.01-0.25-1.98,0.21-2.92c0.47-0.93,1.19-1.56,2.17-1.88s1.93-0.24,2.84,0.24
		C632.92,328.83,633.54,329.57,633.86,330.57z M648.64,321.35l-1.78-5.51c2.65-0.89,5.14-0.67,7.48,0.65s4.01,3.52,5,6.59
		c0.64,1.98,0.82,3.78,0.55,5.4s-0.94,3.07-2.03,4.34c-1.08,1.27-2.37,2.15-3.86,2.63c-0.81,0.26-1.66,0.39-2.53,0.38
		c-0.87-0.01-1.82-0.17-2.83-0.48c-0.59-0.18-1.67-0.72-3.22-1.63c-1.48-0.87-2.5-1.38-3.05-1.55c-0.55-0.16-1.23-0.23-2.04-0.2
		c-0.81,0.03-1.89,0.23-3.23,0.6l-1.84-5.7l0.92-0.32c1.85-0.6,3.64-0.8,5.37-0.6c1.73,0.2,3.51,0.86,5.33,1.97
		c1.76,1.07,2.94,1.69,3.52,1.84c0.58,0.15,1.2,0.12,1.85-0.09c0.88-0.29,1.51-0.9,1.88-1.85c0.37-0.95,0.35-2.05-0.05-3.32
		c-0.42-1.29-1.13-2.23-2.15-2.82C650.93,321.09,649.83,320.98,648.64,321.35z"/>
	<path class="st4" d="M664.82,372.31l-4.69-3.85c1.9-1.96,2.71-3.76,2.43-5.4c-0.14-0.8-0.46-1.42-0.97-1.86
		c-0.51-0.44-1.03-0.61-1.56-0.52c-0.53,0.09-1,0.36-1.41,0.8c-0.54,0.6-1.64,2.32-3.29,5.17c-1.52,2.66-2.49,4.27-2.9,4.85
		c-1.02,1.45-2.04,2.52-3.08,3.23s-2.21,1.17-3.54,1.4c-2.59,0.44-4.88-0.11-6.87-1.64c-2-1.53-3.24-3.76-3.74-6.68
		c-0.39-2.28-0.18-4.37,0.63-6.25c0.81-1.88,2.29-3.63,4.45-5.24l3.92,4.61c-2.52,2.02-3.62,4.03-3.27,6.04
		c0.18,1.05,0.63,1.88,1.35,2.49s1.47,0.85,2.26,0.72c0.71-0.12,1.38-0.51,2.01-1.17c0.62-0.66,1.51-2.03,2.67-4.12
		c2.21-3.97,3.98-6.6,5.33-7.87c1.35-1.28,2.78-2.05,4.3-2.3c2.19-0.37,4.21,0.16,6.06,1.59c1.85,1.43,2.99,3.39,3.42,5.88
		c0.27,1.6,0.17,3.19-0.32,4.76C667.52,368.5,666.46,370.29,664.82,372.31z"/>
	<path class="st4" d="M670.13,380.25l1.38,17.7l-5.94,0.46l-0.9-11.57l-5.77,0.45l0.9,11.57l-5.83,0.45l-0.9-11.57l-8.39,0.65
		l0.9,11.57l-5.96,0.46l-1.38-17.7L670.13,380.25z"/>
	<path class="st4" d="M672.2,421.97c-0.18,4.6-1.97,8.49-5.38,11.67c-3.41,3.18-7.46,4.68-12.17,4.49
		c-4.66-0.18-8.55-1.97-11.65-5.37c-3.1-3.39-4.56-7.42-4.38-12.08c0.19-4.88,2.01-8.87,5.46-11.96c3.44-3.1,7.45-4.56,12.01-4.38
		c3.06,0.12,5.84,0.98,8.34,2.59c2.5,1.6,4.46,3.75,5.85,6.44S672.32,418.93,672.2,421.97z M666.24,421.66
		c0.12-3.01-0.81-5.58-2.79-7.71c-1.98-2.13-4.55-3.26-7.72-3.38c-3.54-0.14-6.38,1.04-8.54,3.54c-1.69,1.94-2.58,4.21-2.68,6.81
		c-0.12,2.93,0.83,5.48,2.83,7.62c2,2.15,4.54,3.28,7.59,3.4c3.04,0.12,5.66-0.82,7.85-2.81
		C664.97,427.13,666.13,424.64,666.24,421.66z"/>
	<path class="st4" d="M669.44,447.47l-1.04,6.13l-20.39-3.46c-1.76-0.3-3.03-0.35-3.81-0.17c-0.78,0.19-1.45,0.61-2.01,1.25
		s-0.92,1.48-1.1,2.49c-0.18,1.08-0.1,2.04,0.26,2.9c0.35,0.86,0.88,1.5,1.58,1.93c0.7,0.42,2.11,0.82,4.22,1.18l19.65,3.34
		l-1.04,6.13l-18.8-3.19c-3.17-0.54-5.34-1.1-6.51-1.67c-1.17-0.57-2.24-1.47-3.21-2.69s-1.62-2.54-1.94-3.97
		c-0.32-1.43-0.33-3.03-0.03-4.81c0.4-2.33,1.26-4.26,2.61-5.8c1.34-1.54,2.87-2.55,4.57-3.03c1.71-0.47,4.44-0.39,8.2,0.25
		L669.44,447.47z"/>
	<path class="st4" d="M663.5,478.42l-1.61,5.98l-25.28-6.81l-2.35,8.71l-5.61-1.51l3.96-14.69L663.5,478.42z"/>
	<path class="st4" d="M647.24,527.71c-1.89,4.19-5.02,7.13-9.37,8.8c-4.35,1.67-8.67,1.53-12.97-0.41
		c-4.25-1.92-7.18-5.04-8.78-9.35c-1.6-4.31-1.44-8.59,0.48-12.83c2.01-4.45,5.19-7.46,9.55-9.04s8.62-1.43,12.78,0.45
		c2.79,1.26,5.04,3.1,6.76,5.53c1.72,2.43,2.72,5.15,3,8.17C648.97,522.05,648.49,524.94,647.24,527.71z M641.83,525.2
		c1.24-2.74,1.34-5.47,0.31-8.19c-1.03-2.72-2.99-4.73-5.89-6.04c-3.22-1.46-6.31-1.43-9.25,0.08c-2.29,1.17-3.97,2.93-5.04,5.3
		c-1.21,2.68-1.29,5.39-0.23,8.13c1.05,2.74,2.97,4.74,5.76,6c2.77,1.25,5.55,1.37,8.33,0.34
		C638.6,529.79,640.61,527.92,641.83,525.2z"/>
	<path class="st4" d="M634.97,550.65l-3.88,6.22c-2.5,4.01-4.85,6.69-7.05,8.03s-4.79,1.95-7.78,1.84
		c-2.99-0.11-5.95-1.08-8.89-2.92c-2.09-1.3-3.79-2.86-5.1-4.66c-1.31-1.8-2.16-3.68-2.54-5.65s-0.34-3.81,0.12-5.54
		c0.46-1.73,1.81-4.38,4.04-7.95l3.94-6.32L634.97,550.65z M626.73,552.76l-17.12-10.68l-1.52,2.44c-1.5,2.4-2.31,4.31-2.45,5.73
		c-0.13,1.42,0.23,2.87,1.08,4.36c0.85,1.49,2.21,2.81,4.08,3.98c2.88,1.8,5.63,2.37,8.24,1.73c2.35-0.58,4.54-2.51,6.58-5.77
		L626.73,552.76z"/>
	<path class="st4" d="M616.2,579.32l-10.93,14l-4.7-3.67l7.14-9.15l-4.56-3.56l-7.14,9.15l-4.61-3.6l7.14-9.15l-6.63-5.18
		l-7.14,9.15l-4.71-3.68l10.93-14L616.2,579.32z"/>
	<path class="st4" d="M575.88,588.36c-0.74,0.78-1.63,1.2-2.68,1.26c-1.05,0.06-1.95-0.27-2.7-0.97c-0.75-0.71-1.13-1.58-1.15-2.63
		c-0.02-1.05,0.34-1.96,1.06-2.73c0.73-0.77,1.61-1.18,2.66-1.22s1.94,0.29,2.69,1s1.14,1.57,1.16,2.61
		C576.95,586.7,576.6,587.6,575.88,588.36z M591.09,596.86l3.97-4.22c2.05,1.89,3.07,4.18,3.04,6.87c-0.03,2.69-1.14,5.21-3.36,7.56
		c-1.42,1.51-2.91,2.54-4.46,3.09c-1.55,0.55-3.14,0.65-4.78,0.32c-1.64-0.33-3.02-1.04-4.16-2.11c-0.62-0.59-1.14-1.26-1.55-2.04
		c-0.41-0.77-0.72-1.67-0.94-2.71c-0.13-0.61-0.17-1.81-0.13-3.61c0.04-1.72,0.01-2.86-0.12-3.42c-0.12-0.56-0.39-1.19-0.81-1.88
		s-1.11-1.54-2.09-2.54l4.11-4.37l0.73,0.65c1.42,1.33,2.45,2.8,3.11,4.42c0.66,1.61,0.94,3.49,0.85,5.62
		c-0.09,2.06-0.06,3.38,0.09,3.97s0.47,1.11,0.96,1.58c0.68,0.64,1.52,0.89,2.53,0.75c1.01-0.13,1.97-0.68,2.88-1.65
		c0.93-0.99,1.41-2.07,1.43-3.24C592.42,598.74,591.98,597.72,591.09,596.86z"/>
	<path class="st4" d="M554.41,635.67l1.08-5.98c2.64,0.71,4.6,0.54,5.9-0.5c0.63-0.51,1.02-1.09,1.15-1.75
		c0.13-0.66,0.03-1.2-0.3-1.61s-0.8-0.7-1.39-0.84c-0.79-0.18-2.83-0.3-6.11-0.36c-3.06-0.03-4.94-0.09-5.65-0.17
		c-1.76-0.19-3.2-0.56-4.32-1.12s-2.1-1.36-2.95-2.41c-1.64-2.05-2.28-4.31-1.92-6.8s1.71-4.66,4.02-6.52
		c1.81-1.45,3.73-2.28,5.77-2.49c2.04-0.21,4.29,0.24,6.74,1.33l-2.12,5.67c-2.99-1.22-5.28-1.2-6.87,0.08
		c-0.83,0.67-1.33,1.46-1.52,2.39c-0.18,0.93-0.02,1.7,0.48,2.32c0.45,0.57,1.12,0.96,2,1.18s2.51,0.33,4.9,0.33
		c4.54-0.01,7.7,0.27,9.47,0.83s3.14,1.43,4.1,2.63c1.39,1.73,1.91,3.75,1.57,6.07s-1.5,4.26-3.47,5.84
		c-1.27,1.02-2.7,1.7-4.31,2.04C559.05,636.17,556.97,636.12,554.41,635.67z"/>
	<path class="st4" d="M550.14,644.14L535.38,654l-3.31-4.95l9.65-6.45l-3.21-4.81l-9.65,6.45l-3.25-4.86l9.65-6.45l-4.68-7
		l-9.65,6.45l-3.32-4.97l14.76-9.87L550.14,644.14z"/>
	<path class="st4" d="M514.84,666.37c-4.09,2.1-8.36,2.45-12.81,1.05c-4.44-1.4-7.74-4.2-9.89-8.39c-2.13-4.15-2.48-8.41-1.05-12.78
		c1.43-4.37,4.22-7.62,8.36-9.75c4.34-2.23,8.71-2.61,13.1-1.13s7.63,4.25,9.72,8.31c1.4,2.72,2.01,5.57,1.85,8.54
		c-0.17,2.97-1.08,5.72-2.74,8.26C519.72,663.02,517.54,664.98,514.84,666.37z M512.17,661.04c2.68-1.38,4.46-3.45,5.34-6.22
		c0.88-2.77,0.6-5.57-0.85-8.39c-1.62-3.15-4.04-5.05-7.28-5.7c-2.52-0.52-4.94-0.18-7.25,1.01c-2.61,1.34-4.36,3.41-5.25,6.21
		c-0.88,2.8-0.63,5.56,0.77,8.28c1.39,2.71,3.49,4.53,6.31,5.45C506.79,662.62,509.52,662.4,512.17,661.04z"/>
	<path class="st4" d="M491.36,676.5l-5.84,2.13l-7.08-19.44c-0.61-1.67-1.19-2.8-1.74-3.39c-0.55-0.59-1.25-0.96-2.08-1.13
		s-1.74-0.07-2.71,0.28c-1.02,0.37-1.82,0.93-2.4,1.66c-0.57,0.73-0.87,1.51-0.89,2.33c-0.02,0.82,0.33,2.23,1.07,4.25l6.82,18.72
		l-5.84,2.13l-6.53-17.92c-1.1-3.02-1.69-5.18-1.77-6.48c-0.08-1.3,0.17-2.67,0.75-4.12c0.58-1.45,1.41-2.66,2.49-3.65
		s2.47-1.79,4.16-2.41c2.22-0.81,4.33-1.01,6.33-0.61c2.01,0.4,3.64,1.23,4.89,2.48s2.54,3.66,3.84,7.25L491.36,676.5z"/>
	<path class="st4" d="M461.63,686.65l-5.99,1.58l-6.69-25.31l-8.72,2.3l-1.48-5.61l14.71-3.89L461.63,686.65z"/>
	<path class="st4" d="M410.99,697.22c-4.58,0.48-8.68-0.74-12.32-3.65c-3.64-2.91-5.7-6.71-6.19-11.4
		c-0.49-4.64,0.73-8.74,3.64-12.3s6.69-5.58,11.32-6.06c4.86-0.51,9.06,0.72,12.62,3.69s5.58,6.72,6.05,11.26
		c0.32,3.04-0.14,5.92-1.37,8.63c-1.23,2.71-3.08,4.95-5.54,6.71C416.75,695.87,414.01,696.91,410.99,697.22z M410.43,691.29
		c2.99-0.31,5.4-1.6,7.23-3.86c1.83-2.26,2.57-4.97,2.24-8.13c-0.37-3.52-1.94-6.17-4.73-7.95c-2.16-1.39-4.54-1.95-7.12-1.68
		c-2.92,0.31-5.3,1.6-7.14,3.9c-1.84,2.29-2.6,4.96-2.28,8c0.32,3.03,1.62,5.48,3.91,7.36C404.84,690.82,407.47,691.6,410.43,691.29
		z"/>
	<path class="st4" d="M385.18,698.24l-7.33-0.17c-4.73-0.11-8.23-0.76-10.5-1.96c-2.27-1.2-4.12-3.12-5.55-5.75
		c-1.43-2.63-2.11-5.67-2.03-9.14c0.06-2.46,0.52-4.72,1.4-6.77s2.07-3.74,3.56-5.06c1.5-1.33,3.1-2.24,4.82-2.72
		s4.69-0.68,8.9-0.58l7.44,0.17L385.18,698.24z M379.17,692.23l0.45-20.18l-2.87-0.06c-2.83-0.06-4.89,0.21-6.18,0.82
		c-1.29,0.61-2.36,1.66-3.2,3.15c-0.84,1.49-1.29,3.34-1.34,5.54c-0.08,3.4,0.83,6.05,2.72,7.97c1.7,1.72,4.48,2.63,8.32,2.71
		L379.17,692.23z"/>
	<path class="st4" d="M351.04,696.77l-17.62-2.18l0.73-5.91l11.52,1.43l0.71-5.74l-11.52-1.43l0.72-5.81l11.52,1.43l1.04-8.35
		l-11.52-1.43l0.74-5.94l17.62,2.18L351.04,696.77z"/>
	<path class="st4" d="M323.1,684.25l5.66,1.23c-0.56,2.73-2,4.78-4.32,6.15s-5.05,1.7-8.21,1.02c-2.03-0.44-3.68-1.18-4.95-2.23
		c-1.27-1.05-2.18-2.36-2.73-3.93c-0.56-1.58-0.67-3.13-0.34-4.66c0.18-0.84,0.5-1.63,0.95-2.38c0.45-0.75,1.06-1.48,1.84-2.21
		c0.45-0.42,1.46-1.08,3.03-1.97c1.5-0.85,2.45-1.47,2.87-1.86c0.42-0.39,0.82-0.95,1.2-1.66c0.38-0.72,0.75-1.75,1.1-3.1l5.86,1.27
		l-0.19,0.96c-0.41,1.9-1.14,3.55-2.18,4.95c-1.04,1.4-2.5,2.61-4.38,3.62c-1.81,0.99-2.93,1.69-3.36,2.12
		c-0.42,0.43-0.71,0.97-0.85,1.64c-0.2,0.91,0.02,1.76,0.66,2.56c0.63,0.8,1.6,1.34,2.9,1.62c1.33,0.29,2.5,0.14,3.51-0.44
		C322.18,686.35,322.82,685.46,323.1,684.25z M322.56,666.84c-1.05-0.23-1.87-0.78-2.46-1.65c-0.59-0.87-0.77-1.81-0.55-2.81
		s0.77-1.79,1.66-2.34c0.89-0.56,1.85-0.72,2.89-0.5c1.04,0.23,1.84,0.78,2.41,1.65c0.57,0.87,0.75,1.81,0.53,2.82
		s-0.76,1.79-1.64,2.34C324.53,666.89,323.58,667.06,322.56,666.84z"/>
	<path class="st4" d="M270.95,672.83l5.68-2.16c0.75,2.62,1.91,4.22,3.48,4.8c0.76,0.28,1.46,0.31,2.09,0.08
		c0.63-0.22,1.04-0.59,1.23-1.09c0.18-0.5,0.19-1.04,0-1.62c-0.25-0.77-1.2-2.58-2.85-5.42c-1.55-2.64-2.47-4.28-2.77-4.93
		c-0.75-1.6-1.17-3.03-1.27-4.28c-0.1-1.25,0.08-2.51,0.55-3.77c0.9-2.46,2.52-4.18,4.84-5.15c2.32-0.97,4.87-0.94,7.66,0.08
		c2.18,0.8,3.88,2.02,5.11,3.66s2.01,3.79,2.33,6.46l-5.95,1.11c-0.5-3.19-1.7-5.14-3.61-5.84c-1-0.37-1.94-0.39-2.83-0.07
		s-1.47,0.86-1.75,1.61c-0.25,0.68-0.24,1.45,0.02,2.32c0.26,0.87,1.01,2.33,2.24,4.37c2.35,3.89,3.74,6.74,4.18,8.54
		c0.44,1.81,0.39,3.43-0.14,4.87c-0.76,2.08-2.23,3.57-4.39,4.47c-2.16,0.9-4.43,0.91-6.8,0.04c-1.52-0.56-2.85-1.44-3.97-2.64
		C272.91,677.07,271.88,675.25,270.95,672.83z"/>
	<path class="st4" d="M261.49,673.54l-16.07-7.56l2.54-5.39l10.51,4.94l2.46-5.23l-10.51-4.94l2.49-5.29l10.51,4.94l3.58-7.62
		l-10.51-4.94l2.55-5.41l16.07,7.56L261.49,673.54z"/>
	<path class="st4" d="M224.23,654.76c-3.91-2.42-6.41-5.9-7.5-10.43s-0.4-8.8,2.09-12.8c2.46-3.97,5.93-6.47,10.41-7.5
		c4.48-1.03,8.7-0.31,12.67,2.14c4.15,2.57,6.73,6.12,7.72,10.64c1,4.52,0.3,8.73-2.11,12.61c-1.61,2.6-3.73,4.6-6.36,5.99
		c-2.63,1.39-5.46,2.03-8.49,1.92C229.62,657.21,226.81,656.36,224.23,654.76z M227.42,649.73c2.56,1.58,5.25,2.04,8.08,1.37
		c2.83-0.67,5.08-2.36,6.75-5.05c1.86-3.01,2.24-6.07,1.13-9.18c-0.86-2.42-2.39-4.32-4.6-5.69c-2.5-1.55-5.17-1.98-8.03-1.29
		c-2.86,0.69-5.09,2.33-6.7,4.93c-1.6,2.59-2.08,5.33-1.42,8.22C223.29,645.93,224.89,648.16,227.42,649.73z"/>
	<path class="st4" d="M203.47,639.88l-4.83-3.9l13-16.09c1.12-1.39,1.79-2.47,2.01-3.24c0.22-0.77,0.18-1.56-0.11-2.36
		c-0.29-0.8-0.84-1.53-1.64-2.18c-0.85-0.69-1.73-1.08-2.66-1.2c-0.92-0.11-1.74,0.03-2.45,0.43c-0.71,0.4-1.74,1.44-3.09,3.1
		l-12.52,15.5l-4.83-3.9l11.98-14.84c2.02-2.5,3.57-4.12,4.64-4.86c1.07-0.74,2.37-1.23,3.91-1.48s3.01-0.17,4.41,0.25
		c1.41,0.42,2.81,1.19,4.21,2.32c1.84,1.48,3.1,3.19,3.79,5.11s0.82,3.75,0.4,5.47s-1.83,4.06-4.23,7.03L203.47,639.88z"/>
	<path class="st4" d="M179.42,619.62l-4.44-4.31l18.24-18.78l-6.47-6.29l4.05-4.17l10.91,10.6L179.42,619.62z"/>
	<path class="st4" d="M144.25,581.61c-2.76-3.68-3.82-7.83-3.19-12.45c0.64-4.62,2.84-8.34,6.61-11.16
		c3.74-2.8,7.88-3.86,12.42-3.19s8.22,2.88,11.01,6.61c2.93,3.91,4.03,8.15,3.31,12.73c-0.72,4.58-2.91,8.23-6.56,10.97
		c-2.45,1.83-5.15,2.92-8.11,3.25s-5.82-0.1-8.6-1.31S146.08,584.04,144.25,581.61z M149.06,578.09c1.81,2.41,4.15,3.82,7.02,4.22
		c2.88,0.41,5.59-0.34,8.13-2.25c2.83-2.12,4.3-4.83,4.39-8.13c0.08-2.57-0.65-4.9-2.21-6.97c-1.76-2.35-4.1-3.73-7.01-4.13
		c-2.91-0.4-5.59,0.32-8.04,2.15c-2.44,1.83-3.87,4.21-4.31,7.13C146.6,573.05,147.27,575.71,149.06,578.09z"/>
	<path class="st4" d="M130.07,559.82l-3.58-6.4c-2.31-4.12-3.52-7.47-3.64-10.04c-0.12-2.57,0.59-5.13,2.13-7.7
		c1.54-2.57,3.82-4.7,6.84-6.39c2.15-1.21,4.33-1.95,6.54-2.23c2.21-0.28,4.27-0.12,6.17,0.49s3.5,1.54,4.79,2.77
		c1.29,1.24,2.96,3.69,5.02,7.37l3.64,6.5L130.07,559.82z M132.19,551.59l17.61-9.86l-1.4-2.51c-1.38-2.47-2.66-4.1-3.85-4.91
		c-1.18-0.8-2.63-1.19-4.34-1.16c-1.71,0.03-3.53,0.58-5.46,1.66c-2.96,1.66-4.79,3.79-5.48,6.39c-0.62,2.34,0.01,5.19,1.89,8.55
		L132.19,551.59z"/>
	<path class="st4" d="M113.97,529.54l-6.99-16.33l5.48-2.34l4.57,10.67l5.32-2.28l-4.57-10.67l5.38-2.3l4.57,10.67l7.74-3.31
		l-4.57-10.67l5.5-2.35l6.99,16.33L113.97,529.54z"/>
	<path class="st4" d="M110.74,499.03l1.77,5.52c-2.65,0.88-5.14,0.66-7.48-0.67c-2.34-1.33-4-3.53-4.98-6.6
		c-0.63-1.98-0.81-3.78-0.54-5.4c0.27-1.62,0.95-3.06,2.04-4.33c1.09-1.27,2.37-2.14,3.87-2.62c0.81-0.26,1.66-0.38,2.53-0.37
		s1.81,0.18,2.83,0.49c0.59,0.18,1.66,0.73,3.22,1.64c1.48,0.87,2.5,1.39,3.04,1.56c0.55,0.17,1.23,0.23,2.04,0.21
		c0.81-0.03,1.89-0.23,3.23-0.59l1.83,5.71l-0.93,0.32c-1.85,0.59-3.64,0.79-5.37,0.58c-1.73-0.2-3.51-0.87-5.33-1.99
		c-1.76-1.08-2.93-1.69-3.51-1.85c-0.58-0.15-1.2-0.13-1.85,0.08c-0.88,0.28-1.51,0.9-1.89,1.85c-0.37,0.95-0.36,2.05,0.05,3.32
		c0.41,1.29,1.13,2.23,2.14,2.82C108.45,499.28,109.55,499.39,110.74,499.03z M125.54,489.86c-0.33-1.03-0.26-2.01,0.2-2.95
		c0.46-0.94,1.18-1.57,2.16-1.89s1.93-0.22,2.86,0.27s1.55,1.25,1.88,2.26c0.32,1.01,0.25,1.98-0.22,2.92
		c-0.47,0.93-1.2,1.56-2.18,1.87s-1.93,0.23-2.84-0.25C126.48,491.59,125.86,490.85,125.54,489.86z"/>
	<path class="st4" d="M94.7,448.02l4.68,3.87c-1.91,1.95-2.72,3.75-2.45,5.4c0.13,0.8,0.46,1.42,0.96,1.86
		c0.51,0.44,1.03,0.61,1.55,0.53c0.53-0.09,1-0.35,1.41-0.8c0.55-0.6,1.65-2.32,3.3-5.16c1.53-2.65,2.5-4.27,2.92-4.85
		c1.02-1.44,2.05-2.52,3.09-3.22c1.04-0.71,2.22-1.17,3.55-1.39c2.59-0.43,4.88,0.12,6.87,1.66c1.99,1.54,3.23,3.77,3.72,6.69
		c0.38,2.29,0.17,4.37-0.65,6.25c-0.82,1.88-2.3,3.62-4.46,5.22l-3.9-4.62c2.53-2.01,3.63-4.02,3.29-6.03
		c-0.18-1.05-0.62-1.88-1.34-2.49c-0.72-0.61-1.47-0.85-2.26-0.72c-0.71,0.12-1.38,0.51-2.01,1.17c-0.62,0.66-1.52,2.03-2.69,4.11
		c-2.22,3.96-4,6.58-5.35,7.86c-1.35,1.27-2.79,2.04-4.3,2.29c-2.19,0.37-4.21-0.17-6.06-1.6s-2.98-3.4-3.4-5.89
		c-0.27-1.6-0.16-3.19,0.33-4.76S93.05,450.03,94.7,448.02z"/>
	<path class="st4" d="M89.41,440.05l-1.33-17.71l5.94-0.45l0.87,11.58l5.77-0.43l-0.87-11.58l5.83-0.44l0.87,11.58l8.39-0.63
		l-0.87-11.58l5.96-0.45l1.33,17.71L89.41,440.05z"/>
	<path class="st4" d="M87.45,398.33c0.19-4.6,2-8.48,5.41-11.65c3.41-3.17,7.47-4.66,12.18-4.46c4.66,0.2,8.54,2,11.64,5.4
		c3.09,3.4,4.54,7.43,4.34,12.09c-0.21,4.88-2.04,8.86-5.49,11.95s-7.46,4.54-12.02,4.34c-3.06-0.13-5.83-1-8.34-2.61
		c-2.5-1.61-4.44-3.77-5.83-6.46C87.95,404.23,87.32,401.36,87.45,398.33z M93.4,398.64c-0.13,3.01,0.79,5.58,2.77,7.72
		c1.97,2.14,4.54,3.27,7.71,3.4c3.53,0.15,6.38-1.02,8.55-3.52c1.69-1.94,2.59-4.2,2.7-6.8c0.12-2.93-0.81-5.48-2.81-7.63
		c-2-2.15-4.53-3.29-7.58-3.42c-3.04-0.13-5.66,0.8-7.86,2.79C94.69,393.18,93.53,395.67,93.4,398.64z"/>
	<path class="st4" d="M90.27,372.84l1.06-6.12l20.39,3.52c1.76,0.3,3.02,0.36,3.81,0.18c0.78-0.19,1.45-0.6,2.01-1.25
		s0.93-1.47,1.1-2.49c0.19-1.07,0.1-2.04-0.25-2.9c-0.35-0.86-0.88-1.5-1.57-1.93c-0.7-0.43-2.1-0.82-4.22-1.19l-19.64-3.39
		l1.06-6.12l18.79,3.25c3.17,0.55,5.34,1.11,6.51,1.68c1.17,0.58,2.23,1.47,3.2,2.7c0.97,1.22,1.61,2.55,1.93,3.98
		s0.33,3.03,0.02,4.81c-0.4,2.32-1.28,4.26-2.62,5.8c-1.35,1.54-2.87,2.54-4.58,3.01c-1.71,0.47-4.44,0.38-8.2-0.27L90.27,372.84z"
		/>
	<path class="st4" d="M96.3,341.92l1.63-5.97l25.27,6.88l2.37-8.71l5.6,1.52l-4,14.68L96.3,341.92z"/>
	<path class="st4" d="M112.7,292.66c1.91-4.19,5.04-7.11,9.39-8.77s8.68-1.51,12.96,0.44c4.25,1.93,7.17,5.06,8.76,9.37
		c1.59,4.31,1.42,8.59-0.51,12.83c-2.02,4.44-5.21,7.45-9.57,9.02s-8.62,1.4-12.78-0.49c-2.78-1.27-5.03-3.12-6.75-5.55
		c-1.71-2.43-2.71-5.16-2.98-8.18S111.44,295.43,112.7,292.66z M118.09,295.19c-1.25,2.74-1.36,5.47-0.33,8.19
		c1.02,2.72,2.98,4.74,5.87,6.05c3.22,1.46,6.3,1.45,9.25-0.05c2.3-1.16,3.98-2.92,5.06-5.29c1.22-2.67,1.3-5.38,0.26-8.13
		c-1.04-2.75-2.96-4.75-5.74-6.02c-2.77-1.26-5.55-1.38-8.33-0.36S119.33,292.47,118.09,295.19z"/>
	<path class="st4" d="M125.02,269.76l3.9-6.21c2.51-4,4.87-6.67,7.07-8.01c2.2-1.33,4.79-1.94,7.78-1.82s5.95,1.1,8.89,2.94
		c2.09,1.31,3.78,2.87,5.09,4.67c1.31,1.8,2.15,3.69,2.52,5.65s0.33,3.81-0.14,5.54s-1.82,4.37-4.06,7.94l-3.96,6.31L125.02,269.76z
		 M133.27,267.67l17.09,10.73l1.53-2.43c1.5-2.4,2.33-4.31,2.46-5.73c0.14-1.42-0.22-2.87-1.07-4.36c-0.85-1.49-2.21-2.82-4.07-3.99
		c-2.88-1.81-5.62-2.39-8.23-1.75c-2.35,0.58-4.55,2.5-6.6,5.76L133.27,267.67z"/>
	<path class="st4" d="M143.87,241.14l10.96-13.97l4.69,3.68l-7.17,9.13l4.55,3.57l7.17-9.13l4.6,3.61l-7.17,9.13l6.62,5.2l7.17-9.13
		l4.71,3.69l-10.96,13.97L143.87,241.14z"/>
	<path class="st4" d="M169.03,223.67l-3.98,4.21c-2.05-1.9-3.06-4.19-3.02-6.88c0.03-2.69,1.16-5.2,3.38-7.55
		c1.43-1.51,2.92-2.54,4.47-3.08c1.55-0.54,3.14-0.64,4.78-0.31c1.63,0.34,3.02,1.05,4.16,2.12c0.62,0.59,1.14,1.27,1.54,2.04
		c0.41,0.77,0.72,1.68,0.94,2.71c0.13,0.61,0.16,1.81,0.12,3.61c-0.05,1.72-0.01,2.86,0.11,3.42c0.12,0.56,0.39,1.19,0.8,1.89
		c0.42,0.7,1.11,1.55,2.08,2.55l-4.12,4.35l-0.73-0.66c-1.41-1.33-2.45-2.81-3.1-4.43s-0.93-3.49-0.83-5.63
		c0.09-2.06,0.07-3.38-0.08-3.97c-0.15-0.58-0.47-1.11-0.96-1.58c-0.67-0.64-1.52-0.89-2.53-0.76c-1.01,0.13-1.97,0.68-2.88,1.64
		c-0.93,0.99-1.41,2.06-1.44,3.24C167.7,221.79,168.13,222.8,169.03,223.67z M184.21,232.21c0.74-0.78,1.63-1.2,2.68-1.25
		s1.95,0.27,2.69,0.98c0.75,0.71,1.13,1.59,1.15,2.63c0.02,1.05-0.34,1.96-1.07,2.73c-0.73,0.77-1.62,1.18-2.66,1.21
		c-1.04,0.04-1.94-0.3-2.69-1c-0.75-0.71-1.13-1.58-1.15-2.61S183.49,232.97,184.21,232.21z"/>
	<path class="st4" d="M205.81,184.95l-1.1,5.97c-2.63-0.72-4.6-0.55-5.91,0.49c-0.63,0.51-1.02,1.09-1.16,1.75
		c-0.14,0.66-0.04,1.2,0.3,1.61c0.33,0.42,0.8,0.7,1.38,0.84c0.79,0.19,2.83,0.31,6.11,0.38c3.06,0.04,4.94,0.1,5.65,0.19
		c1.76,0.19,3.2,0.57,4.32,1.13c1.12,0.56,2.1,1.37,2.94,2.42c1.64,2.05,2.27,4.32,1.9,6.81c-0.37,2.49-1.72,4.66-4.03,6.51
		c-1.81,1.45-3.73,2.27-5.77,2.47s-4.29-0.25-6.74-1.35l2.14-5.66c2.99,1.23,5.28,1.21,6.87-0.06c0.83-0.66,1.34-1.46,1.52-2.39
		c0.19-0.93,0.03-1.7-0.47-2.33c-0.45-0.57-1.12-0.96-2-1.19c-0.88-0.22-2.51-0.34-4.9-0.34c-4.54-0.01-7.7-0.29-9.47-0.85
		c-1.77-0.56-3.14-1.44-4.1-2.64c-1.39-1.73-1.9-3.76-1.55-6.07c0.35-2.31,1.51-4.26,3.48-5.83c1.27-1.01,2.71-1.69,4.32-2.03
		S203.25,184.49,205.81,184.95z"/>
	<path class="st4" d="M210.1,176.49l14.79-9.83l3.3,4.96l-9.67,6.43l3.2,4.82l9.67-6.43l3.24,4.87l-9.67,6.43l4.66,7.01l9.67-6.43
		l3.31,4.98l-14.79,9.83L210.1,176.49z"/>
	<path class="st4" d="M245.47,154.35c4.1-2.09,8.37-2.43,12.81-1.02c4.44,1.41,7.73,4.22,9.87,8.42c2.12,4.16,2.46,8.42,1.02,12.79
		s-4.24,7.61-8.39,9.73c-4.35,2.22-8.72,2.58-13.1,1.1s-7.62-4.27-9.69-8.34c-1.39-2.72-2-5.57-1.82-8.54
		c0.17-2.97,1.09-5.72,2.76-8.25C240.58,157.69,242.76,155.73,245.47,154.35z M248.12,159.69c-2.68,1.37-4.47,3.44-5.36,6.2
		s-0.62,5.56,0.83,8.39c1.61,3.15,4.03,5.06,7.27,5.72c2.52,0.52,4.94,0.19,7.25-0.99c2.62-1.33,4.37-3.4,5.26-6.2
		s0.64-5.56-0.75-8.29c-1.38-2.71-3.48-4.53-6.29-5.47C253.51,158.12,250.77,158.33,248.12,159.69z"/>
	<path class="st4" d="M268.95,144.29l5.84-2.11l7.03,19.46c0.61,1.68,1.18,2.81,1.73,3.39c0.55,0.59,1.24,0.96,2.08,1.13
		c0.84,0.17,1.74,0.08,2.71-0.27c1.03-0.37,1.83-0.92,2.4-1.65c0.57-0.73,0.87-1.51,0.9-2.32c0.03-0.82-0.33-2.24-1.05-4.25
		l-6.77-18.74l5.84-2.11l6.48,17.94c1.09,3.03,1.68,5.19,1.76,6.49c0.08,1.3-0.18,2.67-0.76,4.11c-0.58,1.44-1.42,2.66-2.5,3.65
		s-2.47,1.78-4.17,2.4c-2.22,0.8-4.33,1-6.34,0.59c-2-0.41-3.63-1.24-4.89-2.49c-1.25-1.25-2.53-3.67-3.82-7.26L268.95,144.29z"/>
	<path class="st4" d="M298.72,134.22l5.99-1.57l6.62,25.33l8.73-2.28l1.47,5.62l-14.72,3.85L298.72,134.22z"/>
</g>
<path class="st5" d="M531.38,350.07c-14.97,8.66-37.14-1.08-37.14-1.08s2.11-23.79,17.08-32.45c14.97-8.66,37.14,1.08,37.14,1.08
	S546.35,341.41,531.38,350.07z"/>
<path class="st5" d="M497.04,305.81c6.11,12.15-2.04,28.36-2.04,28.36s-18.05-3.48-24.16-15.63s2.04-28.36,2.04-28.36
	S490.93,293.67,497.04,305.81z"/>
<g>
	<ellipse class="st6" cx="380.46" cy="411.39" rx="236.04" ry="232.11"/>
</g>
</svg>
