<?xml version="1.0" encoding="utf-8"?>
<!-- Generator: Adobe Illustrator 27.4.0, SVG Export Plug-In . SVG Version: 6.00 Build 0)  -->
<svg version="1.1" id="레이어_1" xmlns="http://www.w3.org/2000/svg" xmlns:xlink="http://www.w3.org/1999/xlink" x="0px"
	 y="0px" viewBox="0 0 762.52 822.05" style="enable-background:new 0 0 762.52 822.05;" xml:space="preserve">
<style type="text/css">
	.st0{fill:none;stroke:#463C33;stroke-width:3.7343;stroke-miterlimit:10;}
	.st1{fill:none;stroke:#463C33;stroke-width:2.9231;stroke-miterlimit:10;}
	.st2{fill:none;stroke:#463C33;stroke-width:2.6294;stroke-miterlimit:10;}
	.st3{fill:none;stroke:#463C33;stroke-width:2.7692;stroke-linecap:round;stroke-linejoin:round;stroke-dasharray:3.0083,6.0165;}
	.st4{fill:#463C33;}
	.st5{fill:url(#SVGID_1_);}
	.st6{fill:url(#SVGID_00000134243813462576523400000000056453636369032064_);}
	.st7{fill:url(#SVGID_00000065754103493980389280000017004516328770696376_);}
	.st8{fill:url(#SVGID_00000168118756053217360520000006605425829795523514_);}
	.st9{fill:url(#SVGID_00000038399427943022844170000003670096710037219755_);}
	.st10{fill:url(#SVGID_00000037668041207381586030000013714450889546251147_);}
	.st11{fill:url(#SVGID_00000128479167879992766230000013903483473437085620_);}
	.st12{fill:url(#SVGID_00000175291193389070360910000013702207369370325403_);}
	.st13{fill:url(#SVGID_00000076563751382004706600000000636874634977964439_);}
	.st14{fill:url(#SVGID_00000145024759082443596150000003150974713063887288_);}
	.st15{fill:#463C33;stroke:#463C33;stroke-width:1.0318;stroke-miterlimit:10;}
	.st16{fill:#BCC94E;}
	.st17{fill:#789426;}
</style>
<circle class="st0" cx="381.26" cy="411.02" r="321.51"/>
<circle class="st1" cx="381.26" cy="411.02" r="251.67"/>
<circle class="st2" cx="381.26" cy="411.02" r="226.38"/>
<g>
	<circle class="st3" cx="381.26" cy="411.02" r="238.42"/>
</g>
<g>
	<g>
		<path class="st4" d="M348.86,116.58c4.62-0.5,8.78,0.73,12.47,3.72c3.69,2.98,5.8,6.88,6.33,11.69c0.52,4.77-0.68,8.98-3.6,12.64
			c-2.92,3.66-6.72,5.75-11.41,6.26c-4.9,0.54-9.16-0.72-12.78-3.75c-3.61-3.04-5.68-6.89-6.19-11.55c-0.34-3.12,0.1-6.08,1.33-8.87
			c1.23-2.79,3.08-5.09,5.55-6.91C343.04,117.99,345.81,116.91,348.86,116.58z M349.46,122.67c-3.02,0.33-5.45,1.66-7.28,3.99
			c-1.83,2.33-2.57,5.11-2.22,8.36c0.39,3.61,2,6.33,4.83,8.15c2.2,1.42,4.6,1.99,7.21,1.71c2.95-0.32,5.35-1.66,7.19-4.02
			c1.84-2.36,2.59-5.1,2.25-8.22c-0.34-3.11-1.67-5.63-4-7.55C355.11,123.15,352.45,122.35,349.46,122.67z"/>
		<path class="st4" d="M375.03,115.47l7.41,0.15c4.78,0.1,8.31,0.76,10.61,1.99c2.3,1.23,4.17,3.19,5.62,5.89
			c1.45,2.7,2.14,5.82,2.07,9.38c-0.05,2.53-0.52,4.85-1.4,6.96c-0.88,2.11-2.08,3.84-3.59,5.21c-1.51,1.37-3.13,2.31-4.87,2.81
			c-1.74,0.5-4.73,0.71-8.99,0.62l-7.52-0.15L375.03,115.47z M381.12,121.62l-0.41,20.73l2.9,0.06c2.86,0.06,4.94-0.23,6.24-0.86
			c1.3-0.63,2.38-1.71,3.23-3.25c0.85-1.53,1.3-3.43,1.34-5.7c0.07-3.49-0.85-6.21-2.76-8.18c-1.72-1.76-4.53-2.69-8.41-2.76
			L381.12,121.62z"/>
		<path class="st4" d="M409.63,116.89l17.81,2.19l-0.75,6.08l-11.64-1.43l-0.73,5.9l11.64,1.43l-0.73,5.97l-11.64-1.43l-1.06,8.58
			l11.64,1.43l-0.75,6.1l-17.81-2.19L409.63,116.89z"/>
		<path class="st4" d="M437.88,129.67l-5.72-1.24c0.58-2.81,2.04-4.92,4.39-6.32s5.12-1.76,8.3-1.07c2.05,0.45,3.72,1.2,4.99,2.27
			s2.19,2.41,2.75,4.03s0.66,3.21,0.32,4.78c-0.19,0.86-0.51,1.67-0.96,2.44c-0.46,0.77-1.08,1.53-1.87,2.27
			c-0.46,0.43-1.48,1.11-3.07,2.03c-1.52,0.87-2.49,1.51-2.91,1.92c-0.42,0.4-0.83,0.97-1.22,1.71c-0.39,0.74-0.77,1.8-1.13,3.18
			l-5.92-1.29l0.19-0.99c0.42-1.95,1.17-3.65,2.23-5.08s2.54-2.68,4.45-3.73c1.84-1.02,2.97-1.75,3.4-2.19
			c0.43-0.44,0.72-1,0.87-1.69c0.2-0.93-0.02-1.81-0.65-2.62c-0.64-0.82-1.61-1.37-2.92-1.65c-1.34-0.29-2.52-0.14-3.55,0.47
			S438.17,128.43,437.88,129.67z M438.36,147.54c1.06,0.23,1.89,0.79,2.48,1.68c0.59,0.89,0.77,1.85,0.55,2.89
			c-0.22,1.03-0.79,1.84-1.69,2.41c-0.9,0.57-1.88,0.75-2.92,0.52c-1.05-0.23-1.86-0.79-2.44-1.68s-0.75-1.86-0.53-2.89
			c0.22-1.03,0.78-1.83,1.67-2.4C436.37,147.49,437.33,147.32,438.36,147.54z"/>
		<path class="st4" d="M490.63,141.24l-5.76,2.23c-0.74-2.69-1.9-4.32-3.48-4.91c-0.77-0.28-1.48-0.31-2.12-0.08
			c-0.64,0.23-1.06,0.61-1.25,1.12c-0.19,0.52-0.2,1.07-0.02,1.66c0.25,0.79,1.2,2.64,2.84,5.55c1.55,2.7,2.47,4.38,2.76,5.05
			c0.75,1.64,1.16,3.1,1.25,4.38c0.09,1.28-0.1,2.57-0.58,3.87c-0.93,2.53-2.58,4.29-4.94,5.3c-2.36,1-4.94,0.98-7.75-0.05
			c-2.2-0.81-3.91-2.06-5.14-3.73c-1.23-1.68-2-3.88-2.31-6.62l6.03-1.15c0.48,3.27,1.68,5.27,3.61,5.98
			c1.01,0.37,1.96,0.39,2.87,0.06s1.5-0.88,1.78-1.65c0.26-0.7,0.26-1.49,0-2.38s-1-2.38-2.24-4.47c-2.35-3.98-3.74-6.89-4.17-8.74
			s-0.37-3.52,0.18-5c0.79-2.14,2.28-3.67,4.48-4.6c2.19-0.93,4.49-0.95,6.88-0.07c1.54,0.57,2.87,1.47,4,2.69
			C488.68,136.89,489.71,138.75,490.63,141.24z"/>
		<path class="st4" d="M500.28,140.5l16.21,7.68l-2.62,5.53l-10.6-5.02l-2.54,5.37l10.6,5.02l-2.57,5.43l-10.6-5.02l-3.7,7.81
			l10.6,5.02l-2.63,5.55l-16.21-7.68L500.28,140.5z"/>
		<path class="st4" d="M537.92,159.6c3.94,2.46,6.45,6.01,7.5,10.63c1.06,4.63,0.3,8.99-2.26,13.1c-2.54,4.07-6.09,6.64-10.65,7.71
			c-4.56,1.07-8.84,0.36-12.83-2.13c-4.19-2.61-6.76-6.23-7.72-10.85c-0.96-4.62-0.2-8.92,2.28-12.9c1.66-2.67,3.84-4.72,6.52-6.15
			c2.69-1.43,5.57-2.1,8.64-2C532.47,157.11,535.31,157.98,537.92,159.6z M534.62,164.76c-2.58-1.61-5.31-2.07-8.19-1.37
			s-5.18,2.43-6.91,5.2c-1.92,3.08-2.34,6.21-1.24,9.39c0.84,2.48,2.38,4.41,4.61,5.8c2.52,1.57,5.23,2,8.14,1.28
			c2.91-0.71,5.19-2.4,6.86-5.07c1.66-2.65,2.17-5.46,1.53-8.41C538.77,168.63,537.18,166.35,534.62,164.76z"/>
		<path class="st4" d="M558.89,174.75l4.87,3.96l-13.41,16.49c-1.15,1.42-1.85,2.53-2.08,3.32s-0.2,1.6,0.08,2.41
			c0.29,0.82,0.83,1.55,1.64,2.21c0.86,0.7,1.75,1.1,2.69,1.21c0.94,0.11,1.77-0.04,2.5-0.45c0.73-0.41,1.79-1.48,3.18-3.18
			l12.92-15.88l4.87,3.96l-12.36,15.2c-2.09,2.57-3.68,4.23-4.78,4.99c-1.1,0.76-2.43,1.27-4,1.53c-1.57,0.26-3.06,0.18-4.49-0.24
			s-2.84-1.2-4.25-2.35c-1.85-1.5-3.11-3.24-3.79-5.2s-0.79-3.82-0.34-5.58c0.45-1.76,1.91-4.15,4.38-7.19L558.89,174.75z"/>
		<path class="st4" d="M583.13,195.3l4.48,4.37l-18.8,19.24l6.52,6.37l-4.17,4.27l-11-10.74L583.13,195.3z"/>
		<path class="st4" d="M618.6,233.78c2.79,3.72,3.83,7.93,3.14,12.63c-0.69,4.7-2.97,8.49-6.85,11.39
			c-3.84,2.87-8.08,3.98-12.72,3.33c-4.64-0.65-8.37-2.87-11.19-6.64c-2.96-3.95-4.05-8.25-3.27-12.91c0.78-4.66,3.04-8.39,6.8-11.2
			c2.52-1.88,5.29-3.01,8.31-3.37s5.95,0.06,8.78,1.27C614.43,229.49,616.76,231.33,618.6,233.78z M613.66,237.4
			c-1.82-2.44-4.2-3.85-7.14-4.24c-2.94-0.39-5.71,0.39-8.32,2.34c-2.91,2.18-4.43,4.94-4.56,8.3c-0.11,2.61,0.62,4.97,2.19,7.07
			c1.78,2.38,4.15,3.76,7.12,4.14s5.71-0.36,8.23-2.24c2.5-1.87,3.99-4.3,4.47-7.28C616.13,242.51,615.46,239.81,613.66,237.4z"/>
		<path class="st4" d="M632.9,255.8l3.63,6.46c2.34,4.16,3.56,7.55,3.67,10.15c0.11,2.6-0.64,5.21-2.22,7.83
			c-1.59,2.62-3.93,4.8-7.04,6.54c-2.21,1.24-4.44,2.01-6.71,2.32c-2.26,0.31-4.37,0.16-6.31-0.45s-3.58-1.53-4.89-2.77
			c-1.31-1.24-3.01-3.72-5.1-7.43l-3.69-6.56L632.9,255.8z M630.69,264.17l-18.07,10.16l1.42,2.53c1.4,2.49,2.7,4.14,3.91,4.94
			s2.68,1.18,4.43,1.13c1.75-0.05,3.62-0.62,5.59-1.73c3.04-1.71,4.92-3.89,5.64-6.53c0.65-2.38,0.02-5.26-1.89-8.65L630.69,264.17z
			"/>
		<path class="st4" d="M649.23,286.37l7.12,16.47l-5.62,2.43l-4.66-10.77l-5.45,2.36l4.66,10.77l-5.52,2.39l-4.66-10.77l-7.94,3.43
			l4.66,10.77l-5.64,2.44l-7.12-16.47L649.23,286.37z"/>
		<path class="st4" d="M637.34,326.67c0.34,1.03,0.27,2.03-0.2,2.99s-1.21,1.61-2.21,1.93c-1.01,0.33-1.98,0.25-2.93-0.24
			c-0.95-0.49-1.59-1.24-1.93-2.26c-0.33-1.02-0.26-2,0.22-2.95c0.48-0.95,1.22-1.59,2.23-1.92c1-0.33,1.98-0.26,2.92,0.22
			S637.01,325.66,637.34,326.67z M652.51,317.21l-1.82-5.56c2.72-0.92,5.28-0.72,7.68,0.59s4.11,3.52,5.12,6.62
			c0.65,2,0.84,3.81,0.56,5.46c-0.28,1.64-0.97,3.11-2.08,4.41s-2.43,2.19-3.96,2.7c-0.83,0.27-1.7,0.41-2.59,0.4
			c-0.89,0-1.86-0.16-2.9-0.46c-0.61-0.18-1.71-0.72-3.3-1.62c-1.52-0.87-2.56-1.38-3.13-1.54c-0.56-0.16-1.26-0.22-2.09-0.18
			c-0.83,0.04-1.94,0.25-3.32,0.64l-1.88-5.75l0.95-0.33c1.9-0.62,3.73-0.84,5.51-0.65c1.78,0.19,3.6,0.84,5.47,1.95
			c1.81,1.07,3.01,1.68,3.61,1.83c0.6,0.15,1.23,0.12,1.89-0.1c0.91-0.3,1.55-0.93,1.93-1.89c0.38-0.96,0.36-2.08-0.05-3.36
			c-0.43-1.3-1.16-2.25-2.2-2.83S653.73,316.83,652.51,317.21z"/>
		<path class="st4" d="M669.23,368.55l-4.84-3.84c1.94-2,2.77-3.83,2.47-5.49c-0.14-0.81-0.48-1.43-1-1.87s-1.06-0.61-1.6-0.51
			c-0.54,0.1-1.02,0.37-1.44,0.83c-0.56,0.61-1.67,2.37-3.35,5.26c-1.54,2.7-2.53,4.35-2.95,4.94c-1.04,1.47-2.09,2.57-3.14,3.3
			c-1.06,0.73-2.27,1.21-3.63,1.46c-2.65,0.47-5.01-0.05-7.07-1.58s-3.35-3.76-3.88-6.71c-0.41-2.3-0.21-4.41,0.62-6.32
			c0.82-1.91,2.34-3.69,4.54-5.34l4.05,4.62c-2.58,2.07-3.69,4.11-3.33,6.14c0.19,1.06,0.66,1.89,1.4,2.5
			c0.74,0.61,1.52,0.84,2.33,0.7c0.73-0.13,1.42-0.53,2.05-1.21c0.64-0.67,1.54-2.07,2.72-4.19c2.24-4.04,4.06-6.71,5.43-8.02
			c1.38-1.31,2.84-2.1,4.4-2.38c2.24-0.4,4.32,0.11,6.23,1.53c1.91,1.42,3.09,3.39,3.54,5.9c0.29,1.61,0.19,3.22-0.3,4.81
			C671.98,364.67,670.9,366.5,669.23,368.55z"/>
		<path class="st4" d="M674.75,376.47l1.59,17.87l-6.1,0.54l-1.04-11.68l-5.92,0.53l1.04,11.68l-5.99,0.53l-1.04-11.68l-8.61,0.77
			l1.04,11.68l-6.12,0.54l-1.59-17.87L674.75,376.47z"/>
		<path class="st4" d="M677.37,418.56c-0.12,4.65-1.9,8.6-5.35,11.87c-3.45,3.26-7.59,4.83-12.43,4.71
			c-4.79-0.12-8.81-1.87-12.05-5.25s-4.8-7.43-4.68-12.14c0.12-4.93,1.93-8.99,5.42-12.17c3.49-3.18,7.58-4.71,12.27-4.59
			c3.14,0.08,6.01,0.91,8.61,2.5c2.6,1.58,4.63,3.73,6.11,6.42C676.74,412.61,677.44,415.49,677.37,418.56z M671.25,418.34
			c0.08-3.04-0.92-5.62-2.98-7.75c-2.06-2.12-4.73-3.23-7.99-3.31c-3.63-0.09-6.54,1.14-8.72,3.7c-1.7,1.99-2.59,4.29-2.65,6.91
			c-0.07,2.97,0.94,5.52,3.03,7.66c2.09,2.14,4.71,3.25,7.85,3.33c3.13,0.08,5.8-0.91,8.02-2.96
			C670.03,423.88,671.17,421.35,671.25,418.34z"/>
		<path class="st4" d="M674.99,444.32l-0.93,6.21l-21.02-3.16c-1.81-0.27-3.12-0.31-3.91-0.1s-1.48,0.64-2.04,1.3
			c-0.56,0.66-0.92,1.51-1.07,2.54c-0.16,1.09-0.06,2.07,0.33,2.93s0.94,1.5,1.66,1.92c0.73,0.42,2.18,0.79,4.36,1.12l20.24,3.05
			l-0.93,6.21l-19.38-2.92c-3.27-0.49-5.51-1.02-6.72-1.58c-1.21-0.56-2.33-1.45-3.35-2.66s-1.71-2.54-2.08-3.98
			c-0.36-1.44-0.41-3.06-0.14-4.86c0.35-2.36,1.21-4.33,2.55-5.91c1.35-1.58,2.89-2.63,4.63-3.13c1.74-0.51,4.55-0.47,8.42,0.12
			L674.99,444.32z"/>
		<path class="st4" d="M669.6,475.67l-1.49,6.07l-26.12-6.43l-2.18,8.85l-5.79-1.43l3.67-14.93L669.6,475.67z"/>
		<path class="st4" d="M654.39,525.81c-1.8,4.29-4.9,7.32-9.3,9.1c-4.4,1.78-8.83,1.73-13.29-0.15c-4.42-1.86-7.52-4.95-9.3-9.29
			c-1.78-4.33-1.76-8.67,0.06-13.01c1.91-4.55,5.07-7.67,9.48-9.35c4.41-1.69,8.78-1.62,13.1,0.2c2.9,1.22,5.27,3.04,7.11,5.46
			s2.96,5.16,3.35,8.21C655.98,520.04,655.58,522.98,654.39,525.81z M648.77,523.37c1.18-2.8,1.2-5.57,0.05-8.3
			c-1.15-2.73-3.22-4.73-6.23-5.99c-3.35-1.41-6.51-1.32-9.47,0.26c-2.31,1.23-3.97,3.05-4.99,5.47c-1.15,2.73-1.14,5.48,0.03,8.24
			s3.2,4.74,6.1,5.96c2.88,1.21,5.73,1.27,8.54,0.17C645.62,528.09,647.61,526.15,648.77,523.37z"/>
		<path class="st4" d="M642.62,549.29l-3.74,6.4c-2.41,4.12-4.71,6.89-6.91,8.3c-2.19,1.41-4.82,2.09-7.88,2.04
			c-3.06-0.05-6.13-0.97-9.2-2.77c-2.19-1.28-3.98-2.81-5.39-4.61s-2.34-3.69-2.81-5.67s-0.49-3.86-0.08-5.62
			c0.41-1.76,1.69-4.48,3.83-8.15l3.79-6.5L642.62,549.29z M634.28,551.61l-17.9-10.46l-1.47,2.51c-1.44,2.47-2.21,4.43-2.29,5.87
			c-0.08,1.44,0.34,2.91,1.26,4.4s2.37,2.81,4.32,3.95c3.01,1.76,5.84,2.28,8.49,1.57c2.38-0.65,4.55-2.65,6.51-6L634.28,551.61z"/>
		<path class="st4" d="M624.52,578.81l-10.6,14.48l-4.94-3.62l6.93-9.46l-4.79-3.51l-6.93,9.46l-4.85-3.55l6.93-9.46l-6.98-5.11
			l-6.93,9.46l-4.96-3.63l10.6-14.48L624.52,578.81z"/>
		<path class="st4" d="M583.75,588.95c-0.72,0.82-1.61,1.26-2.68,1.35c-1.07,0.08-2-0.23-2.79-0.93c-0.79-0.7-1.22-1.58-1.28-2.65
			s0.26-2,0.97-2.81c0.71-0.8,1.59-1.24,2.66-1.31s1.99,0.25,2.78,0.95c0.79,0.7,1.22,1.58,1.29,2.63
			C584.76,587.23,584.45,588.15,583.75,588.95z M599.59,597.23l3.87-4.39c2.17,1.88,3.3,4.18,3.38,6.92
			c0.08,2.74-0.95,5.33-3.11,7.77c-1.39,1.57-2.86,2.66-4.42,3.25c-1.56,0.59-3.18,0.74-4.86,0.44c-1.68-0.3-3.12-0.98-4.33-2.05
			c-0.66-0.58-1.21-1.26-1.66-2.03c-0.45-0.77-0.81-1.69-1.07-2.73c-0.15-0.61-0.25-1.84-0.28-3.67c-0.02-1.75-0.11-2.91-0.26-3.47
			c-0.15-0.57-0.45-1.2-0.9-1.9c-0.46-0.7-1.2-1.54-2.23-2.54l4.01-4.54l0.77,0.65c1.5,1.32,2.62,2.79,3.36,4.42
			c0.74,1.63,1.1,3.53,1.09,5.7c-0.01,2.1,0.08,3.45,0.25,4.04s0.52,1.12,1.05,1.58c0.71,0.63,1.58,0.87,2.61,0.71
			c1.02-0.16,1.98-0.74,2.87-1.75c0.91-1.03,1.35-2.14,1.32-3.33S600.54,598.09,599.59,597.23z"/>
		<path class="st4" d="M563.85,637.68l0.85-6.12c2.71,0.66,4.7,0.44,5.98-0.66c0.62-0.53,0.99-1.14,1.1-1.81
			c0.11-0.67-0.02-1.22-0.37-1.64c-0.36-0.42-0.84-0.69-1.44-0.82c-0.81-0.17-2.89-0.24-6.23-0.21c-3.11,0.04-5.03,0.03-5.75-0.03
			c-1.8-0.15-3.28-0.49-4.44-1.03s-2.2-1.34-3.1-2.39c-1.76-2.04-2.5-4.34-2.23-6.89s1.54-4.8,3.81-6.75
			c1.78-1.53,3.7-2.42,5.76-2.68c2.07-0.26,4.37,0.14,6.91,1.19l-1.92,5.83c-3.09-1.17-5.42-1.09-6.98,0.25
			c-0.81,0.7-1.29,1.53-1.44,2.48c-0.15,0.95,0.05,1.74,0.58,2.36c0.49,0.56,1.18,0.95,2.08,1.16c0.9,0.2,2.57,0.28,5,0.21
			c4.62-0.12,7.84,0.08,9.67,0.6s3.25,1.38,4.28,2.58c1.49,1.73,2.1,3.78,1.85,6.15c-0.25,2.37-1.35,4.39-3.28,6.05
			c-1.24,1.07-2.68,1.8-4.3,2.19C568.6,638.08,566.48,638.08,563.85,637.68z"/>
		<path class="st4" d="M559.84,646.46l-14.58,10.46l-3.57-4.97l9.53-6.84l-3.46-4.83l-9.53,6.84l-3.5-4.88l9.53-6.84l-5.04-7.03
			l-9.53,6.84l-3.58-4.99l14.58-10.46L559.84,646.46z"/>
		<path class="st4" d="M524.88,670.13c-4.07,2.26-8.38,2.73-12.94,1.41c-4.56-1.32-8.02-4.09-10.37-8.32
			c-2.33-4.19-2.86-8.54-1.58-13.05c1.27-4.51,3.97-7.9,8.08-10.19c4.31-2.4,8.72-2.9,13.23-1.5c4.51,1.4,7.9,4.15,10.18,8.25
			c1.53,2.75,2.26,5.64,2.22,8.69c-0.05,3.04-0.86,5.88-2.44,8.52C529.69,666.58,527.56,668.64,524.88,670.13z M521.96,664.75
			c2.66-1.48,4.38-3.64,5.17-6.5c0.78-2.86,0.38-5.71-1.2-8.56c-1.76-3.18-4.3-5.06-7.61-5.64c-2.58-0.46-5.01-0.05-7.3,1.22
			c-2.59,1.44-4.28,3.61-5.07,6.5s-0.41,5.71,1.12,8.45c1.52,2.73,3.72,4.54,6.61,5.41C516.57,666.51,519.33,666.21,521.96,664.75z"
			/>
		<path class="st4" d="M501.46,681.14l-5.83,2.34l-7.91-19.73c-0.68-1.7-1.31-2.84-1.89-3.43c-0.58-0.59-1.3-0.95-2.15-1.1
			c-0.85-0.15-1.76-0.03-2.73,0.36c-1.02,0.41-1.81,1-2.36,1.76c-0.55,0.77-0.82,1.57-0.82,2.41c0.01,0.84,0.42,2.28,1.24,4.33
			l7.62,19l-5.83,2.34l-7.29-18.19c-1.23-3.07-1.91-5.27-2.04-6.59c-0.13-1.33,0.07-2.74,0.6-4.24c0.53-1.5,1.33-2.77,2.38-3.81
			c1.06-1.04,2.43-1.9,4.12-2.58c2.21-0.89,4.34-1.15,6.39-0.79s3.73,1.16,5.04,2.41c1.32,1.25,2.71,3.69,4.16,7.32L501.46,681.14z"
			/>
		<path class="st4" d="M471.68,692.36l-6,1.78l-7.67-25.78l-8.74,2.6l-1.7-5.72l14.73-4.38L471.68,692.36z"/>
		<path class="st4" d="M420.74,704.61c-4.61,0.62-8.79-0.52-12.56-3.42c-3.76-2.89-5.96-6.74-6.6-11.54c-0.63-4.75,0.46-9,3.3-12.73
			s6.58-5.91,11.25-6.53c4.89-0.65,9.18,0.49,12.87,3.44c3.69,2.95,5.84,6.75,6.46,11.4c0.42,3.12,0.04,6.08-1.11,8.89
			c-1.16,2.81-2.95,5.16-5.39,7.04C426.52,703.06,423.78,704.21,420.74,704.61z M420,698.54c3.02-0.4,5.41-1.79,7.18-4.16
			c1.77-2.37,2.45-5.17,2.01-8.41c-0.48-3.6-2.15-6.28-5.02-8.03c-2.23-1.37-4.64-1.88-7.24-1.54c-2.94,0.39-5.3,1.79-7.09,4.19
			s-2.47,5.16-2.05,8.28c0.41,3.1,1.81,5.59,4.18,7.46C414.33,698.2,417.01,698.93,420,698.54z"/>
		<path class="st4" d="M394.97,706.19l-7.41,0.12c-4.78,0.08-8.34-0.46-10.68-1.6c-2.34-1.15-4.28-3.04-5.83-5.68
			c-1.55-2.64-2.35-5.74-2.41-9.3c-0.04-2.53,0.34-4.87,1.15-7c0.81-2.14,1.94-3.92,3.4-5.34c1.46-1.42,3.05-2.42,4.76-2.98
			c1.72-0.56,4.7-0.88,8.96-0.95l7.52-0.12L394.97,706.19z M388.66,700.26l-0.34-20.73l-2.9,0.05c-2.86,0.05-4.93,0.41-6.21,1.08
			c-1.28,0.68-2.31,1.8-3.11,3.36c-0.79,1.56-1.17,3.48-1.14,5.75c0.06,3.49,1.08,6.18,3.06,8.07c1.79,1.7,4.62,2.52,8.51,2.46
			L388.66,700.26z"/>
		<path class="st4" d="M360,705.75l-17.85-1.76l0.6-6.09l11.67,1.15l0.58-5.91l-11.67-1.15l0.59-5.98l11.67,1.15l0.85-8.6
			l-11.67-1.15l0.6-6.12l17.85,1.76L360,705.75z"/>
		<path class="st4" d="M331.43,693.65l5.75,1.11c-0.51,2.82-1.93,4.96-4.24,6.43c-2.31,1.46-5.07,1.88-8.28,1.27
			c-2.06-0.4-3.74-1.12-5.05-2.15c-1.3-1.04-2.25-2.36-2.84-3.96c-0.59-1.6-0.74-3.19-0.44-4.77c0.17-0.86,0.47-1.68,0.91-2.46
			s1.04-1.55,1.81-2.31c0.45-0.44,1.46-1.15,3.02-2.1c1.49-0.91,2.45-1.57,2.86-1.99c0.41-0.41,0.81-0.99,1.18-1.74
			c0.37-0.75,0.72-1.82,1.05-3.21l5.95,1.14l-0.17,0.99c-0.38,1.96-1.08,3.67-2.1,5.14c-1.02,1.46-2.48,2.74-4.36,3.84
			c-1.81,1.06-2.93,1.82-3.35,2.27s-0.7,1.02-0.83,1.71c-0.18,0.94,0.06,1.8,0.72,2.61s1.64,1.33,2.96,1.58
			c1.35,0.26,2.53,0.07,3.54-0.55S331.17,694.9,331.43,693.65z M330.51,675.8c-1.07-0.21-1.91-0.75-2.52-1.62
			c-0.61-0.88-0.82-1.83-0.62-2.87c0.2-1.04,0.74-1.86,1.63-2.45s1.86-0.79,2.91-0.59c1.05,0.2,1.88,0.74,2.47,1.62
			c0.6,0.88,0.8,1.84,0.6,2.88c-0.2,1.04-0.74,1.85-1.61,2.44C332.51,675.8,331.55,676,330.51,675.8z"/>
		<path class="st4" d="M278.4,683.37l5.71-2.37c0.81,2.67,2.01,4.28,3.6,4.82c0.78,0.27,1.48,0.28,2.12,0.03
			c0.64-0.25,1.04-0.63,1.22-1.15c0.18-0.52,0.17-1.08-0.02-1.66c-0.27-0.78-1.26-2.61-2.97-5.48c-1.61-2.66-2.57-4.32-2.89-4.98
			c-0.78-1.62-1.24-3.07-1.36-4.35c-0.12-1.28,0.04-2.57,0.49-3.88c0.87-2.55,2.48-4.36,4.81-5.42c2.33-1.06,4.92-1.1,7.75-0.13
			c2.21,0.76,3.96,1.96,5.23,3.61s2.1,3.83,2.47,6.56l-6,1.3c-0.56-3.26-1.81-5.22-3.75-5.89c-1.02-0.35-1.97-0.34-2.87,0.01
			c-0.89,0.36-1.47,0.92-1.74,1.7c-0.24,0.71-0.22,1.5,0.06,2.38c0.28,0.88,1.06,2.36,2.34,4.42c2.44,3.92,3.9,6.8,4.38,8.64
			c0.47,1.84,0.46,3.5-0.06,5c-0.74,2.16-2.19,3.72-4.36,4.71s-4.46,1.06-6.88,0.23c-1.55-0.53-2.91-1.4-4.06-2.6
			S279.39,685.83,278.4,683.37z"/>
		<path class="st4" d="M268.8,684.35l-16.39-7.29l2.49-5.59l10.72,4.76l2.41-5.43l-10.72-4.76l2.44-5.49l10.72,4.77l3.51-7.9
			l-10.72-4.76l2.5-5.62l16.39,7.29L268.8,684.35z"/>
		<path class="st4" d="M230.69,666.15c-4-2.37-6.59-5.85-7.76-10.45c-1.17-4.6-0.52-8.98,1.94-13.15c2.44-4.13,5.93-6.78,10.46-7.96
			s8.83-0.57,12.88,1.83c4.25,2.51,6.91,6.06,7.98,10.66c1.07,4.6,0.42,8.92-1.97,12.96c-1.6,2.71-3.72,4.81-6.37,6.3
			s-5.51,2.23-8.59,2.2S233.33,667.71,230.69,666.15z M233.86,660.91c2.62,1.55,5.36,1.94,8.22,1.17c2.86-0.77,5.12-2.55,6.78-5.36
			c1.85-3.13,2.19-6.27,1.02-9.42c-0.9-2.46-2.49-4.35-4.75-5.69c-2.55-1.51-5.28-1.87-8.16-1.09s-5.13,2.53-6.73,5.24
			c-1.59,2.69-2.03,5.51-1.33,8.44S231.27,659.38,233.86,660.91z"/>
		<path class="st4" d="M209.36,651.5l-4.96-3.84l13.01-16.8c1.12-1.45,1.79-2.57,2-3.37c0.21-0.8,0.16-1.6-0.14-2.41
			c-0.31-0.81-0.87-1.54-1.69-2.17c-0.87-0.67-1.78-1.06-2.72-1.14s-1.77,0.08-2.49,0.51c-0.72,0.43-1.75,1.52-3.1,3.26
			l-12.53,16.19l-4.96-3.84l12-15.49c2.02-2.62,3.58-4.31,4.65-5.1c1.08-0.79,2.4-1.33,3.96-1.63c1.56-0.3,3.06-0.26,4.49,0.13
			s2.87,1.13,4.31,2.25c1.88,1.46,3.19,3.16,3.91,5.11c0.73,1.95,0.88,3.8,0.48,5.57c-0.41,1.77-1.81,4.2-4.21,7.3L209.36,651.5z"/>
		<path class="st4" d="M184.62,631.52l-4.58-4.26l18.33-19.69l-6.67-6.21l4.07-4.37l11.25,10.48L184.62,631.52z"/>
		<path class="st4" d="M148.25,593.91c-2.87-3.66-4.02-7.84-3.44-12.55c0.58-4.71,2.77-8.56,6.58-11.55
			c3.77-2.96,7.98-4.18,12.63-3.63c4.65,0.54,8.43,2.67,11.34,6.37c3.05,3.88,4.24,8.15,3.58,12.83c-0.66,4.67-2.84,8.46-6.53,11.36
			c-2.47,1.94-5.21,3.13-8.22,3.57s-5.95,0.08-8.8-1.06S150.15,596.33,148.25,593.91z M153.11,590.18c1.88,2.39,4.29,3.75,7.24,4.07
			c2.94,0.32,5.7-0.53,8.26-2.54c2.86-2.25,4.31-5.05,4.36-8.41c0.05-2.62-0.74-4.96-2.36-7.02c-1.83-2.33-4.24-3.66-7.22-3.97
			c-2.98-0.32-5.7,0.5-8.17,2.44c-2.46,1.93-3.89,4.4-4.3,7.39C150.52,585.13,151.25,587.81,153.11,590.18z"/>
		<path class="st4" d="M133.44,572.25l-3.79-6.37c-2.44-4.11-3.75-7.46-3.91-10.06c-0.17-2.6,0.51-5.23,2.03-7.88
			c1.52-2.66,3.82-4.89,6.88-6.71c2.18-1.29,4.39-2.12,6.65-2.48c2.25-0.36,4.36-0.26,6.32,0.29c1.96,0.56,3.61,1.44,4.95,2.65
			s3.1,3.64,5.28,7.3l3.84,6.47L133.44,572.25z M135.45,563.83l17.82-10.59l-1.48-2.5c-1.46-2.46-2.8-4.07-4.02-4.85
			c-1.22-0.77-2.71-1.12-4.46-1.03c-1.75,0.09-3.6,0.71-5.55,1.87c-3,1.78-4.83,4-5.48,6.66c-0.59,2.39,0.11,5.26,2.1,8.6
			L135.45,563.83z"/>
		<path class="st4" d="M116.37,542.09l-7.52-16.29l5.56-2.57l4.92,10.65l5.4-2.49l-4.92-10.65l5.46-2.52l4.92,10.65l7.85-3.62
			l-4.92-10.65l5.58-2.58l7.52,16.29L116.37,542.09z"/>
		<path class="st4" d="M112.35,511.34l1.96,5.52c-2.69,0.99-5.26,0.85-7.69-0.4s-4.19-3.42-5.28-6.5c-0.7-1.98-0.93-3.79-0.7-5.44
			s0.9-3.13,1.98-4.46s2.38-2.25,3.89-2.79c0.83-0.29,1.69-0.45,2.58-0.46c0.9-0.02,1.87,0.11,2.91,0.39
			c0.61,0.16,1.73,0.68,3.34,1.54c1.54,0.83,2.6,1.32,3.16,1.46c0.57,0.15,1.26,0.19,2.1,0.13c0.83-0.06,1.93-0.3,3.3-0.72
			l2.02,5.71l-0.94,0.36c-1.88,0.67-3.71,0.93-5.49,0.79c-1.78-0.14-3.62-0.75-5.51-1.81c-1.83-1.03-3.05-1.61-3.65-1.74
			c-0.6-0.13-1.23-0.09-1.89,0.15c-0.9,0.32-1.53,0.96-1.89,1.94c-0.36,0.97-0.31,2.09,0.13,3.35c0.46,1.29,1.21,2.22,2.27,2.78
			S111.14,511.75,112.35,511.34z M127.29,501.51c-0.36-1.02-0.32-2.02,0.12-3c0.45-0.97,1.17-1.63,2.16-1.99
			c1-0.35,1.98-0.3,2.94,0.17c0.96,0.46,1.62,1.2,1.98,2.21c0.36,1.01,0.31,2-0.15,2.96c-0.46,0.96-1.18,1.62-2.18,1.97
			c-1,0.35-1.97,0.3-2.92-0.15S127.64,502.51,127.29,501.51z"/>
		<path class="st4" d="M94.39,460.39l4.93,3.72c-1.89,2.05-2.67,3.89-2.34,5.55c0.16,0.8,0.51,1.42,1.05,1.84
			c0.53,0.42,1.07,0.58,1.61,0.47c0.54-0.11,1.01-0.4,1.42-0.86c0.54-0.63,1.62-2.41,3.22-5.34c1.48-2.74,2.42-4.41,2.83-5.01
			c1-1.5,2.02-2.62,3.06-3.38c1.04-0.75,2.24-1.27,3.6-1.54c2.64-0.54,5.01-0.07,7.1,1.41c2.09,1.48,3.44,3.68,4.04,6.62
			c0.47,2.29,0.31,4.41-0.47,6.34c-0.78,1.93-2.25,3.75-4.41,5.45l-4.16-4.52c2.53-2.13,3.59-4.2,3.18-6.22
			c-0.21-1.05-0.7-1.87-1.46-2.47s-1.54-0.81-2.34-0.64c-0.73,0.15-1.4,0.57-2.02,1.26c-0.62,0.69-1.49,2.11-2.62,4.26
			c-2.15,4.09-3.89,6.81-5.24,8.15c-1.35,1.34-2.79,2.17-4.34,2.48c-2.23,0.45-4.32-0.01-6.27-1.38c-1.94-1.38-3.17-3.31-3.68-5.81
			c-0.33-1.61-0.27-3.21,0.18-4.82C91.73,464.34,92.77,462.49,94.39,460.39z"/>
		<path class="st4" d="M88.69,452.62l-2.02-17.83l6.08-0.69l1.32,11.66l5.91-0.67l-1.32-11.66l5.97-0.68l1.32,11.66l8.59-0.97
			l-1.32-11.66l6.1-0.69l2.02,17.83L88.69,452.62z"/>
		<path class="st4" d="M85.07,410.21c0.08-4.65,1.82-8.62,5.24-11.91c3.42-3.29,7.55-4.9,12.39-4.82c4.8,0.08,8.83,1.79,12.1,5.15
			s4.86,7.39,4.79,12.1c-0.08,4.93-1.85,9-5.31,12.21c-3.46,3.21-7.54,4.78-12.23,4.7c-3.14-0.05-6.02-0.86-8.63-2.42
			c-2.61-1.56-4.67-3.69-6.16-6.37C85.74,416.16,85.02,413.28,85.07,410.21z M91.19,410.38c-0.05,3.04,0.97,5.62,3.05,7.72
			c2.08,2.11,4.75,3.19,8.01,3.24c3.63,0.06,6.53-1.2,8.69-3.77c1.69-2,2.55-4.31,2.59-6.94c0.05-2.97-0.98-5.51-3.09-7.63
			c-2.11-2.12-4.74-3.21-7.88-3.26c-3.13-0.05-5.79,0.96-7.99,3.02C92.36,404.83,91.24,407.36,91.19,410.38z"/>
		<path class="st4" d="M86.83,384.79l0.79-6.23l21.09,2.66c1.82,0.23,3.12,0.23,3.91,0.01c0.79-0.22,1.46-0.67,2-1.35
			c0.54-0.67,0.88-1.53,1.01-2.56c0.14-1.09,0.01-2.07-0.4-2.92c-0.4-0.85-0.97-1.48-1.71-1.88c-0.74-0.4-2.2-0.74-4.38-1.01
			l-20.31-2.56l0.78-6.23l19.44,2.45c3.28,0.41,5.53,0.89,6.76,1.41c1.22,0.53,2.36,1.39,3.41,2.58c1.05,1.19,1.78,2.5,2.17,3.93
			c0.4,1.43,0.48,3.05,0.26,4.85c-0.3,2.36-1.1,4.35-2.41,5.97c-1.31,1.61-2.82,2.7-4.55,3.24c-1.73,0.55-4.54,0.58-8.42,0.09
			L86.83,384.79z"/>
		<path class="st4" d="M91.46,353.31l1.35-6.11l26.27,5.79l1.96-8.9l5.83,1.29l-3.31,15.01L91.46,353.31z"/>
		<path class="st4" d="M105.46,302.83c1.7-4.33,4.73-7.44,9.08-9.32c4.36-1.89,8.79-1.94,13.29-0.18c4.46,1.75,7.64,4.77,9.53,9.06
			s1.97,8.62,0.25,13.01c-1.8,4.59-4.89,7.79-9.25,9.58c-4.37,1.79-8.73,1.83-13.1,0.12c-2.93-1.15-5.34-2.91-7.24-5.29
			c-1.9-2.38-3.08-5.09-3.54-8.13C104,308.64,104.33,305.69,105.46,302.83z M111.13,305.13c-1.11,2.83-1.06,5.6,0.15,8.3
			s3.34,4.65,6.37,5.84c3.38,1.33,6.54,1.16,9.46-0.49c2.28-1.28,3.9-3.15,4.86-5.59c1.08-2.76,1.01-5.51-0.23-8.23
			c-1.23-2.73-3.31-4.66-6.24-5.81c-2.91-1.14-5.76-1.13-8.55,0.04C114.17,300.34,112.23,302.33,111.13,305.13z"/>
		<path class="st4" d="M116.66,279.07l3.58-6.49c2.31-4.18,4.55-7,6.7-8.46c2.16-1.46,4.77-2.2,7.83-2.23
			c3.06-0.03,6.15,0.82,9.26,2.54c2.22,1.22,4.05,2.72,5.5,4.48c1.45,1.76,2.43,3.63,2.94,5.6c0.51,1.97,0.58,3.85,0.22,5.62
			c-0.37,1.77-1.58,4.52-3.64,8.24l-3.64,6.58L116.66,279.07z M124.94,276.55l18.15,10.03l1.4-2.54c1.38-2.5,2.1-4.48,2.15-5.92
			c0.05-1.44-0.41-2.9-1.37-4.37c-0.96-1.47-2.43-2.75-4.42-3.85c-3.05-1.69-5.9-2.14-8.52-1.37c-2.36,0.7-4.49,2.75-6.37,6.16
			L124.94,276.55z"/>
		<path class="st4" d="M134.04,249.13l10.25-14.73l5.02,3.5l-6.7,9.63l4.88,3.4l6.7-9.63l4.93,3.43l-6.7,9.63l7.1,4.94l6.7-9.63
			l5.04,3.51l-10.25,14.73L134.04,249.13z"/>
		<path class="st4" d="M158.53,230.11l-3.77,4.48c-2.21-1.82-3.4-4.1-3.55-6.83c-0.15-2.73,0.83-5.35,2.93-7.84
			c1.35-1.61,2.8-2.73,4.34-3.36c1.54-0.63,3.16-0.81,4.84-0.55c1.69,0.26,3.15,0.91,4.38,1.94c0.67,0.57,1.24,1.23,1.71,1.99
			c0.47,0.76,0.85,1.67,1.14,2.71c0.17,0.61,0.29,1.83,0.36,3.66c0.07,1.75,0.18,2.9,0.34,3.47c0.16,0.56,0.48,1.19,0.95,1.88
			c0.47,0.69,1.24,1.52,2.29,2.48l-3.9,4.63l-0.78-0.63c-1.53-1.28-2.68-2.73-3.46-4.34c-0.78-1.61-1.19-3.5-1.23-5.67
			c-0.04-2.1-0.16-3.44-0.35-4.03c-0.19-0.59-0.55-1.1-1.09-1.56c-0.73-0.61-1.6-0.83-2.62-0.65c-1.02,0.18-1.96,0.79-2.82,1.81
			c-0.88,1.05-1.3,2.17-1.24,3.36C157.05,228.27,157.56,229.28,158.53,230.11z M174.56,238.01c0.7-0.83,1.58-1.3,2.65-1.41
			s2,0.18,2.81,0.86c0.81,0.68,1.26,1.55,1.34,2.62c0.09,1.07-0.21,2.01-0.9,2.83c-0.69,0.82-1.57,1.28-2.62,1.37
			c-1.06,0.09-1.99-0.2-2.8-0.88c-0.81-0.68-1.26-1.55-1.35-2.6C173.59,239.75,173.88,238.82,174.56,238.01z"/>
		<path class="st4" d="M193.29,188.82l-0.7,6.14c-2.72-0.59-4.71-0.32-5.96,0.81c-0.61,0.55-0.96,1.16-1.06,1.84
			c-0.09,0.68,0.04,1.22,0.41,1.63c0.37,0.41,0.86,0.67,1.46,0.79c0.82,0.15,2.89,0.17,6.23,0.06c3.11-0.12,5.03-0.15,5.75-0.1
			c1.8,0.1,3.29,0.41,4.46,0.92c1.18,0.51,2.23,1.28,3.16,2.31c1.81,2,2.6,4.28,2.4,6.83c-0.21,2.55-1.42,4.83-3.65,6.84
			c-1.74,1.57-3.64,2.51-5.7,2.82s-4.37-0.03-6.93-1.03l1.78-5.88c3.12,1.1,5.44,0.96,6.97-0.42c0.8-0.72,1.26-1.56,1.38-2.51
			c0.12-0.95-0.09-1.74-0.64-2.34c-0.5-0.55-1.2-0.92-2.11-1.1c-0.91-0.18-2.57-0.22-5-0.1c-4.61,0.23-7.84,0.1-9.68-0.37
			c-1.84-0.48-3.29-1.3-4.34-2.48c-1.53-1.69-2.19-3.73-1.99-6.1c0.2-2.37,1.24-4.42,3.14-6.12c1.22-1.1,2.63-1.86,4.24-2.29
			C188.54,188.53,190.66,188.48,193.29,188.82z"/>
		<path class="st4" d="M197.1,179.94l14.33-10.8l3.69,4.89l-9.37,7.06l3.58,4.75l9.37-7.06l3.62,4.8l-9.37,7.06l5.21,6.9l9.37-7.06
			l3.7,4.91l-14.33,10.8L197.1,179.94z"/>
		<path class="st4" d="M231.46,155.45c4.01-2.36,8.31-2.93,12.9-1.72c4.59,1.21,8.11,3.9,10.56,8.07c2.43,4.14,3.06,8.47,1.9,13.01
			s-3.78,8-7.84,10.38c-4.25,2.5-8.65,3.11-13.19,1.82c-4.54-1.29-8-3.95-10.38-8c-1.59-2.71-2.4-5.59-2.43-8.63
			c-0.02-3.04,0.72-5.9,2.23-8.58S228.81,157.01,231.46,155.45z M234.5,160.76c-2.62,1.54-4.29,3.75-5.01,6.62
			c-0.72,2.87-0.25,5.72,1.41,8.53c1.84,3.13,4.42,4.95,7.74,5.45c2.59,0.4,5.01-0.07,7.27-1.4c2.56-1.5,4.19-3.71,4.91-6.61
			s0.27-5.72-1.32-8.43c-1.58-2.7-3.83-4.45-6.74-5.25S237.1,159.24,234.5,160.76z"/>
		<path class="st4" d="M254.62,143.88l5.77-2.48l8.38,19.53c0.72,1.68,1.38,2.81,1.97,3.38c0.59,0.57,1.32,0.92,2.18,1.05
			s1.76-0.02,2.72-0.43c1.01-0.43,1.79-1.04,2.32-1.82c0.53-0.78,0.79-1.59,0.76-2.43s-0.48-2.27-1.34-4.29l-8.08-18.81l5.77-2.48
			l7.73,18.01c1.3,3.04,2.04,5.22,2.2,6.54c0.16,1.32,0,2.74-0.5,4.25c-0.5,1.51-1.26,2.8-2.29,3.87s-2.38,1.96-4.05,2.68
			c-2.19,0.94-4.31,1.26-6.37,0.95s-3.75-1.07-5.1-2.28c-1.35-1.21-2.79-3.62-4.34-7.22L254.62,143.88z"/>
		<path class="st4" d="M284.11,131.94l5.95-1.93l8.29,25.59l8.67-2.81l1.84,5.68l-14.62,4.74L284.11,131.94z"/>
	</g>
</g>
<g>
	<linearGradient id="SVGID_1_" gradientUnits="userSpaceOnUse" x1="374.5492" y1="510.8143" x2="222.7726" y2="511.2025">
		<stop  offset="0" style="stop-color:#D8E529"/>
		<stop  offset="1" style="stop-color:#6CA34B"/>
	</linearGradient>
	<path class="st5" d="M288.72,509.08c-0.57,0-1.06,0.19-1.46,0.57c-0.4,0.38-0.61,0.84-0.61,1.38c0,0.54,0.2,1,0.61,1.38
		c0.41,0.38,0.9,0.57,1.48,0.57c0.58,0,1.08-0.19,1.49-0.57c0.41-0.38,0.62-0.84,0.62-1.38c0-0.54-0.21-1-0.62-1.38
		S289.3,509.08,288.72,509.08z"/>
	<g>
		
			<linearGradient id="SVGID_00000093159790702496165580000000114644349992366469_" gradientUnits="userSpaceOnUse" x1="373.8067" y1="503.8702" x2="223.5209" y2="504.2546">
			<stop  offset="0" style="stop-color:#D8E529"/>
			<stop  offset="1" style="stop-color:#6CA34B"/>
		</linearGradient>
		<path style="fill:url(#SVGID_00000093159790702496165580000000114644349992366469_);" d="M241.99,495.51
			c-1.65,0-3.18,0.39-4.61,1.17c-1.43,0.78-2.55,1.83-3.36,3.16c-0.82,1.33-1.22,2.79-1.22,4.37c0,2.36,0.88,4.41,2.63,6.13
			c1.75,1.72,3.95,2.58,6.6,2.58c2.53,0,4.67-0.84,6.44-2.51c1.77-1.67,2.66-3.72,2.66-6.14c0-2.44-0.9-4.51-2.69-6.2
			C246.63,496.36,244.48,495.51,241.99,495.51z M246.08,508.23c-1.12,1.08-2.47,1.62-4.07,1.62c-1.41,0-2.65-0.42-3.74-1.25
			c-1.4-1.07-2.1-2.51-2.1-4.35c0-1.64,0.56-3,1.67-4.07c1.11-1.07,2.48-1.6,4.11-1.6c1.61,0,2.99,0.55,4.11,1.64
			c1.13,1.09,1.69,2.43,1.69,4C247.76,505.82,247.2,507.15,246.08,508.23z"/>
		
			<linearGradient id="SVGID_00000029020937460994199320000016229055600939226523_" gradientUnits="userSpaceOnUse" x1="373.7969" y1="503.9069" x2="223.5253" y2="504.2913">
			<stop  offset="0" style="stop-color:#D8E529"/>
			<stop  offset="1" style="stop-color:#6CA34B"/>
		</linearGradient>
		<path style="fill:url(#SVGID_00000029020937460994199320000016229055600939226523_);" d="M263.98,496.82
			c-1.24-0.6-3.15-0.89-5.71-0.89h-3.98v16.56h4.03c2.28,0,3.89-0.14,4.81-0.41c0.93-0.27,1.79-0.76,2.58-1.46
			c0.79-0.71,1.42-1.59,1.87-2.66c0.45-1.07,0.68-2.24,0.68-3.52c0-1.79-0.4-3.36-1.21-4.71
			C266.25,498.39,265.22,497.42,263.98,496.82z M264.21,507.25c-0.44,0.78-1,1.34-1.7,1.67c-0.69,0.33-1.8,0.5-3.34,0.5h-1.56
			v-10.45h1.14c2.08,0,3.6,0.44,4.54,1.31c1.05,0.97,1.57,2.33,1.57,4.09C264.87,505.51,264.65,506.47,264.21,507.25z"/>
		
			<linearGradient id="SVGID_00000057129431660710357480000000224296331055533992_" gradientUnits="userSpaceOnUse" x1="373.7796" y1="503.958" x2="223.5359" y2="504.3422">
			<stop  offset="0" style="stop-color:#D8E529"/>
			<stop  offset="1" style="stop-color:#6CA34B"/>
		</linearGradient>
		<polygon style="fill:url(#SVGID_00000057129431660710357480000000224296331055533992_);" points="271.47,512.49 281.09,512.49 
			281.09,509.39 274.8,509.39 274.8,505.03 281.09,505.03 281.09,502.01 274.8,502.01 274.8,499.01 281.09,499.01 281.09,495.92 
			271.47,495.92 		"/>
		
			<linearGradient id="SVGID_00000130624465525767070650000017783577463487819170_" gradientUnits="userSpaceOnUse" x1="373.8084" y1="501.2107" x2="223.5234" y2="501.595">
			<stop  offset="0" style="stop-color:#D8E529"/>
			<stop  offset="1" style="stop-color:#6CA34B"/>
		</linearGradient>
		<path style="fill:url(#SVGID_00000130624465525767070650000017783577463487819170_);" d="M292.09,495.78
			c-0.79-0.39-1.75-0.59-2.88-0.59c-1.75,0-3.16,0.47-4.23,1.42c-1.07,0.94-1.6,2.14-1.58,3.59h3.14c0.01-0.64,0.25-1.17,0.72-1.57
			c0.47-0.41,1.07-0.61,1.81-0.61c0.72,0,1.29,0.17,1.72,0.5c0.43,0.33,0.64,0.74,0.64,1.22c0,0.35-0.09,0.66-0.26,0.92
			c-0.18,0.26-0.69,0.74-1.53,1.44c-0.88,0.72-1.51,1.49-1.9,2.31c-0.39,0.82-0.59,1.74-0.59,2.74l0.01,0.51h3.25
			c0.03-0.72,0.11-1.28,0.23-1.69c0.12-0.41,0.27-0.73,0.44-0.97c0.18-0.24,0.61-0.66,1.31-1.26c0.73-0.62,1.19-1.07,1.38-1.33
			c0.33-0.45,0.57-0.89,0.72-1.32c0.15-0.43,0.23-0.86,0.23-1.31c0-0.81-0.24-1.58-0.71-2.32
			C293.52,496.73,292.88,496.17,292.09,495.78z"/>
		
			<linearGradient id="SVGID_00000011709474960927794740000005315726641428064900_" gradientUnits="userSpaceOnUse" x1="373.8068" y1="504.0415" x2="223.5235" y2="504.4259">
			<stop  offset="0" style="stop-color:#D8E529"/>
			<stop  offset="1" style="stop-color:#6CA34B"/>
		</linearGradient>
		<path style="fill:url(#SVGID_00000011709474960927794740000005315726641428064900_);" d="M312.52,504.43
			c-0.27-0.26-1.05-0.9-2.33-1.9c-1.37-1.09-2.19-1.8-2.46-2.13c-0.2-0.25-0.3-0.51-0.3-0.79c0-0.28,0.14-0.53,0.42-0.75
			c0.28-0.22,0.64-0.33,1.08-0.33c0.9,0,1.79,0.57,2.66,1.71l2.48-2.06c-0.93-1.01-1.79-1.71-2.58-2.09
			c-0.8-0.38-1.63-0.57-2.51-0.57c-1.37,0-2.52,0.41-3.45,1.23c-0.93,0.82-1.4,1.81-1.4,2.96c0,0.8,0.28,1.59,0.84,2.39
			c0.56,0.8,1.8,1.94,3.72,3.41c1.01,0.77,1.66,1.35,1.96,1.72c0.3,0.37,0.44,0.75,0.44,1.13c0,0.41-0.2,0.78-0.59,1.09
			c-0.39,0.31-0.88,0.47-1.45,0.47c-1.1,0-2.08-0.73-2.93-2.2l-2.82,1.6c0.66,1.24,1.46,2.15,2.39,2.73
			c0.93,0.58,2.02,0.87,3.28,0.87c1.61,0,2.91-0.44,3.91-1.33c1-0.89,1.5-2.01,1.5-3.37c0-0.7-0.14-1.34-0.42-1.93
			C313.68,505.69,313.2,505.07,312.52,504.43z"/>
		
			<linearGradient id="SVGID_00000007392879148903829730000015932754302131348913_" gradientUnits="userSpaceOnUse" x1="373.7928" y1="504.0759" x2="223.5492" y2="504.4602">
			<stop  offset="0" style="stop-color:#D8E529"/>
			<stop  offset="1" style="stop-color:#6CA34B"/>
		</linearGradient>
		<polygon style="fill:url(#SVGID_00000007392879148903829730000015932754302131348913_);" points="317.6,512.49 327.22,512.49 
			327.22,509.39 320.93,509.39 320.93,505.03 327.22,505.03 327.22,502.01 320.93,502.01 320.93,499.01 327.22,499.01 
			327.22,495.92 317.6,495.92 		"/>
		
			<linearGradient id="SVGID_00000174585227102922455720000009501367543779442840_" gradientUnits="userSpaceOnUse" x1="373.8074" y1="504.1175" x2="223.5215" y2="504.5019">
			<stop  offset="0" style="stop-color:#D8E529"/>
			<stop  offset="1" style="stop-color:#6CA34B"/>
		</linearGradient>
		<path style="fill:url(#SVGID_00000174585227102922455720000009501367543779442840_);" d="M338.67,495.51
			c-1.65,0-3.18,0.39-4.61,1.17c-1.43,0.78-2.55,1.83-3.36,3.16c-0.82,1.33-1.22,2.79-1.22,4.37c0,2.36,0.88,4.41,2.63,6.13
			c1.75,1.72,3.95,2.58,6.6,2.58c2.53,0,4.67-0.84,6.44-2.51c1.77-1.67,2.66-3.72,2.66-6.14c0-2.44-0.9-4.51-2.69-6.2
			C343.31,496.36,341.17,495.51,338.67,495.51z M342.76,508.23c-1.12,1.08-2.47,1.62-4.07,1.62c-1.41,0-2.65-0.42-3.74-1.25
			c-1.4-1.07-2.1-2.51-2.1-4.35c0-1.64,0.56-3,1.67-4.07c1.11-1.07,2.48-1.6,4.11-1.6c1.61,0,2.99,0.55,4.11,1.64
			c1.13,1.09,1.69,2.43,1.69,4C344.44,505.82,343.88,507.15,342.76,508.23z"/>
		
			<linearGradient id="SVGID_00000134234315604373651580000012343708741741161380_" gradientUnits="userSpaceOnUse" x1="373.8051" y1="504.3644" x2="223.5398" y2="504.7487">
			<stop  offset="0" style="stop-color:#D8E529"/>
			<stop  offset="1" style="stop-color:#6CA34B"/>
		</linearGradient>
		<path style="fill:url(#SVGID_00000134234315604373651580000012343708741741161380_);" d="M359.41,506.24
			c0,1.11-0.08,1.86-0.24,2.26c-0.16,0.39-0.46,0.72-0.89,0.97c-0.43,0.25-0.94,0.38-1.53,0.38c-0.56,0-1.04-0.11-1.43-0.34
			c-0.4-0.23-0.68-0.53-0.85-0.92s-0.26-1.04-0.26-1.96v-10.71h-3.37v9.88c0,1.97,0.2,3.38,0.61,4.21c0.41,0.83,1.09,1.52,2.03,2.07
			c0.95,0.55,2.06,0.83,3.34,0.83c0.97,0,1.83-0.14,2.56-0.43s1.38-0.73,1.95-1.33c0.56-0.6,0.94-1.22,1.14-1.87
			c0.2-0.65,0.3-1.8,0.3-3.47v-9.88h-3.37V506.24z"/>
		
			<linearGradient id="SVGID_00000133502146011358840900000002126799827211581568_" gradientUnits="userSpaceOnUse" x1="373.8085" y1="504.1996" x2="223.5316" y2="504.584">
			<stop  offset="0" style="stop-color:#D8E529"/>
			<stop  offset="1" style="stop-color:#6CA34B"/>
		</linearGradient>
		<polygon style="fill:url(#SVGID_00000133502146011358840900000002126799827211581568_);" points="370.02,509.48 370.02,495.92 
			366.67,495.92 366.67,512.49 374.91,512.49 374.91,509.48 		"/>
		<path class="st15" d="M235,489.63h-0.33c-0.94,0-1.7-0.78-1.7-1.74v-0.34C232.98,488.7,233.89,489.63,235,489.63z"/>
		<path class="st15" d="M422.44,415.54v0.53C422.37,415.9,422.37,415.71,422.44,415.54z"/>
		<path class="st4" d="M517.28,310.35c-30.7,0-55.58,24.5-55.58,54.71c0,30.22,24.88,54.71,55.58,54.71
			c30.7,0,55.58-24.5,55.58-54.71C572.87,334.84,547.98,310.35,517.28,310.35z M517.28,410.57c-7.55,0-14.66-1.93-20.88-5.34
			c-13.98-7.66-23.49-22.77-23.49-40.16c0-25.13,19.86-45.51,44.37-45.51c24.5,0,44.37,20.37,44.37,45.51
			C561.65,390.19,541.79,410.57,517.28,410.57z"/>
		<g>
			<path class="st16" d="M392.45,376.17c0,20.71,13.84,37.49,30.92,37.49v-90.1C406.29,323.56,392.45,355.46,392.45,376.17z"/>
			<path class="st17" d="M423.37,323.56v90.1c17.08,0,30.92-16.79,30.92-37.49S440.45,323.56,423.37,323.56z"/>
		</g>
		<g>
			<path class="st15" d="M579.94,437.26c1.13,0,2.04-0.94,2.04-2.1v-4.88c0-1.16-0.91-2.1-2.04-2.1H428.28v-14.05l11.57-14.08
				c0.25-0.31,0.22-0.77-0.08-1.03l-1.67-1.44c-0.32-0.27-0.77-0.22-1.02,0.08l-11.02,13.41v-24.04c0-0.51-0.4-0.92-0.9-0.92h-1.82
				c-0.5,0-0.9,0.41-0.9,0.92v25.22l-11.11-13.53c-0.27-0.31-0.72-0.34-1.02-0.08l-1.67,1.44c-0.3,0.27-0.33,0.74-0.08,1.04
				l10.57,12.86v14.2h-14.09c-1.13,0-2.04,0.94-2.04,2.1v4.88c0,1.16,0.91,2.1,2.04,2.1h14.09v36.36l-43.73-58.6
				c-0.26-0.35-0.6-0.62-0.96-0.8c-0.3-0.3-0.7-0.48-1.15-0.48h-5.84c-0.91,0-1.65,0.76-1.65,1.7v65h-60.78v-57.62h50.9
				c1.07,0,1.93-0.89,1.93-1.98v-5.11c0-1.1-0.87-1.98-1.93-1.98h-58.07c-1.09,0-1.97,0.91-1.97,2.03v64.67h-53.76V419.2
				c27.43-3.18,48.72-26.43,48.72-54.63c0-30.38-24.69-55-55.15-55c-30.46,0-55.15,24.62-55.15,55c0,15.39,6.34,29.3,16.56,39.29
				c0.78,0.76,2.01,0.72,2.74-0.08l4.24-4.67c0.7-0.77,0.69-1.96-0.02-2.72c-7.68-8.23-12.4-19.46-12.4-31.82
				c0-25.26,19.71-45.75,44.03-45.75c24.31,0,44.02,20.48,44.02,45.75c0,23.48-17.02,42.83-38.94,45.44
				c-0.21-0.08-0.44-0.12-0.68-0.12H235c-1.12,0-2.02,0.93-2.02,2.08v75.58c0,1.15,0.91,2.08,2.02,2.08h138.29
				c0.91,0,1.65-0.76,1.65-1.7v-58.31l44.01,58.97c0.58,0.78,1.5,1.15,2.39,1.05c0.08,0.01,0.16,0.01,0.24,0.01h4.25
				c1.35,0,2.45-1.12,2.45-2.51v-49.88h84.23v19.89c0,0.81,0.64,1.47,1.44,1.47h1.2c0.13,0.03,0.27,0.05,0.41,0.05h57.01v6.83
				H459.51c-0.95,0-1.71,0.79-1.71,1.76v2.91c-0.01,0.08-0.02,0.16-0.02,0.24v17.7c0,0.92,0.72,1.66,1.61,1.67
				c0.18,0.05,0.38,0.08,0.58,0.08h119.64c1.2,0,2.17-1,2.17-2.23v-4.61c0-1.23-0.97-2.23-2.17-2.23H466.93v-6.22h107.09
				c0.09,0.02,0.19,0.02,0.29,0.02h5.67c0.96,0,1.74-0.8,1.74-1.78V451.3c0-0.98-0.78-1.78-1.74-1.78h-5.67
				c-0.17,0-0.34,0.03-0.49,0.07h-52.15v-12.33H579.94z M422.44,415.54v0.53C422.37,415.9,422.37,415.71,422.44,415.54z"/>
			<path class="st15" d="M422.44,415.54v0.53C422.37,415.9,422.37,415.71,422.44,415.54z"/>
			<path class="st15" d="M422.44,415.54v0.53C422.37,415.9,422.37,415.71,422.44,415.54z"/>
		</g>
		<path class="st17" d="M416.52,379.84c2.77,5.24-0.54,12.57-0.54,12.57s-7.79-1.16-10.56-6.4c-2.77-5.24,0.54-12.57,0.54-12.57
			S413.75,374.6,416.52,379.84z"/>
		<path class="st16" d="M432.36,378.4c-2.77,5.24,0.54,12.57,0.54,12.57s7.79-1.16,10.56-6.4c2.77-5.24-0.54-12.57-0.54-12.57
			S435.13,373.16,432.36,378.4z"/>
	</g>
</g>
</svg>
