<?xml version="1.0" encoding="utf-8"?>
<!-- Generator: Adobe Illustrator 27.4.0, SVG Export Plug-In . SVG Version: 6.00 Build 0)  -->
<svg version="1.1" id="레이어_1" xmlns="http://www.w3.org/2000/svg" xmlns:xlink="http://www.w3.org/1999/xlink" x="0px"
	 y="0px" viewBox="0 0 762.52 822.05" style="enable-background:new 0 0 762.52 822.05;" xml:space="preserve">
<style type="text/css">
	.st0{fill:none;stroke:#463C33;stroke-width:3.7343;stroke-miterlimit:10;}
	.st1{fill:none;stroke:#463C33;stroke-width:2.9231;stroke-miterlimit:10;}
	.st2{fill:none;stroke:#463C33;stroke-width:2.6294;stroke-miterlimit:10;}
	.st3{fill:none;stroke:#463C33;stroke-width:2.7692;stroke-linecap:round;stroke-linejoin:round;stroke-dasharray:3.0083,6.0165;}
	.st4{fill:none;}
	.st5{fill:url(#SVGID_00000147932128457295612190000006259496478920049038_);}
	.st6{fill:url(#SVGID_00000046331570064896434170000017450809328359602879_);}
	.st7{fill:url(#SVGID_00000044163021374324624670000018326144434471039111_);}
	.st8{fill:url(#SVGID_00000029729157772206264540000016155329163756839567_);}
	.st9{fill:url(#SVGID_00000052820796805345908450000010027878025175349930_);}
	.st10{fill:url(#SVGID_00000179643739022086288590000017584846437400660112_);}
	.st11{fill:url(#SVGID_00000152957428126997579990000008653338939551948440_);}
	.st12{fill:url(#SVGID_00000106846394329473988470000016909945097395141540_);}
	.st13{fill:url(#SVGID_00000016769752960290224690000003378807735069987510_);}
	.st14{fill:url(#SVGID_00000006690891522009335970000013786700453227837580_);}
	.st15{fill:#463C33;stroke:#463C33;stroke-width:1.0318;stroke-miterlimit:10;}
	.st16{fill:#463C33;}
	.st17{fill:#BCC94E;}
	.st18{fill:#789426;}
</style>
<g>
	<g>
		<circle class="st0" cx="381.26" cy="411.02" r="321.51"/>
		<circle class="st1" cx="381.26" cy="411.02" r="251.67"/>
		<circle class="st2" cx="381.26" cy="411.02" r="226.38"/>
		<g>
			<circle class="st3" cx="381.26" cy="411.02" r="238.42"/>
		</g>
		<g>
			<path id="SVGID_x5F_1_x5F_" class="st4" d="M643.77,411.02c0,144.98-117.53,262.51-262.51,262.51S118.76,556,118.76,411.02
				s117.53-262.51,262.51-262.51S643.77,266.05,643.77,411.02z"/>
			<text>			<textPath  xlink:href="#SVGID_x5F_1_x5F_" startOffset="96.289%">
<tspan  class="st16" style="font-family:'CenturyGothic-Bold'; font-size:45.7579px;">ODE? SEOUL ODE? SEOUL ODE? SEOUL ODE? SEOUL ODE? SEOUL ODE? SEOUL</tspan>			</textPath>
</text>
		</g>
	</g>
	<g>
		
			<linearGradient id="SVGID_00000170988510947390247600000014199436110103246780_" gradientUnits="userSpaceOnUse" x1="374.5492" y1="510.8143" x2="222.7726" y2="511.2025">
			<stop  offset="0" style="stop-color:#D8E529"/>
			<stop  offset="1" style="stop-color:#6CA34B"/>
		</linearGradient>
		<path style="fill:url(#SVGID_00000170988510947390247600000014199436110103246780_);" d="M288.72,509.08
			c-0.57,0-1.06,0.19-1.46,0.57c-0.4,0.38-0.61,0.84-0.61,1.38c0,0.54,0.2,1,0.61,1.38c0.41,0.38,0.9,0.57,1.48,0.57
			c0.58,0,1.08-0.19,1.49-0.57c0.41-0.38,0.62-0.84,0.62-1.38c0-0.54-0.21-1-0.62-1.38S289.3,509.08,288.72,509.08z"/>
		<g>
			
				<linearGradient id="SVGID_00000061463426780265552210000012843755472062060165_" gradientUnits="userSpaceOnUse" x1="373.8067" y1="503.8702" x2="223.5209" y2="504.2546">
				<stop  offset="0" style="stop-color:#D8E529"/>
				<stop  offset="1" style="stop-color:#6CA34B"/>
			</linearGradient>
			<path style="fill:url(#SVGID_00000061463426780265552210000012843755472062060165_);" d="M241.99,495.51
				c-1.65,0-3.18,0.39-4.61,1.17c-1.43,0.78-2.55,1.83-3.36,3.16c-0.82,1.33-1.22,2.79-1.22,4.37c0,2.36,0.88,4.41,2.63,6.13
				c1.75,1.72,3.95,2.58,6.6,2.58c2.53,0,4.67-0.84,6.44-2.51c1.77-1.67,2.66-3.72,2.66-6.14c0-2.44-0.9-4.51-2.69-6.2
				C246.63,496.36,244.48,495.51,241.99,495.51z M246.08,508.23c-1.12,1.08-2.47,1.62-4.07,1.62c-1.41,0-2.65-0.42-3.74-1.25
				c-1.4-1.07-2.1-2.51-2.1-4.35c0-1.64,0.56-3,1.67-4.07c1.11-1.07,2.48-1.6,4.11-1.6c1.61,0,2.99,0.55,4.11,1.64
				c1.13,1.09,1.69,2.43,1.69,4C247.76,505.82,247.2,507.15,246.08,508.23z"/>
			
				<linearGradient id="SVGID_00000029014330416241852040000012325503989916217984_" gradientUnits="userSpaceOnUse" x1="373.7969" y1="503.9069" x2="223.5253" y2="504.2913">
				<stop  offset="0" style="stop-color:#D8E529"/>
				<stop  offset="1" style="stop-color:#6CA34B"/>
			</linearGradient>
			<path style="fill:url(#SVGID_00000029014330416241852040000012325503989916217984_);" d="M263.98,496.82
				c-1.24-0.6-3.15-0.89-5.71-0.89h-3.98v16.56h4.03c2.28,0,3.89-0.14,4.81-0.41c0.93-0.27,1.79-0.76,2.58-1.46
				c0.79-0.71,1.42-1.59,1.87-2.66c0.45-1.07,0.68-2.24,0.68-3.52c0-1.79-0.4-3.36-1.21-4.71
				C266.25,498.39,265.22,497.42,263.98,496.82z M264.21,507.25c-0.44,0.78-1,1.34-1.7,1.67c-0.69,0.33-1.8,0.5-3.34,0.5h-1.56
				v-10.45h1.14c2.08,0,3.6,0.44,4.54,1.31c1.05,0.97,1.57,2.33,1.57,4.09C264.87,505.51,264.65,506.47,264.21,507.25z"/>
			
				<linearGradient id="SVGID_00000017494864833998520330000010860802154028809651_" gradientUnits="userSpaceOnUse" x1="373.7796" y1="503.958" x2="223.5359" y2="504.3422">
				<stop  offset="0" style="stop-color:#D8E529"/>
				<stop  offset="1" style="stop-color:#6CA34B"/>
			</linearGradient>
			<polygon style="fill:url(#SVGID_00000017494864833998520330000010860802154028809651_);" points="271.47,512.49 281.09,512.49 
				281.09,509.39 274.8,509.39 274.8,505.03 281.09,505.03 281.09,502.01 274.8,502.01 274.8,499.01 281.09,499.01 281.09,495.92 
				271.47,495.92 			"/>
			
				<linearGradient id="SVGID_00000012437514745802493180000011031526425187909787_" gradientUnits="userSpaceOnUse" x1="373.8084" y1="501.2107" x2="223.5234" y2="501.595">
				<stop  offset="0" style="stop-color:#D8E529"/>
				<stop  offset="1" style="stop-color:#6CA34B"/>
			</linearGradient>
			<path style="fill:url(#SVGID_00000012437514745802493180000011031526425187909787_);" d="M292.09,495.78
				c-0.79-0.39-1.75-0.59-2.88-0.59c-1.75,0-3.16,0.47-4.23,1.42c-1.07,0.94-1.6,2.14-1.58,3.59h3.14c0.01-0.64,0.25-1.17,0.72-1.57
				c0.47-0.41,1.07-0.61,1.81-0.61c0.72,0,1.29,0.17,1.72,0.5c0.43,0.33,0.64,0.74,0.64,1.22c0,0.35-0.09,0.66-0.26,0.92
				c-0.18,0.26-0.69,0.74-1.53,1.44c-0.88,0.72-1.51,1.49-1.9,2.31c-0.39,0.82-0.59,1.74-0.59,2.74l0.01,0.51h3.25
				c0.03-0.72,0.11-1.28,0.23-1.69c0.12-0.41,0.27-0.73,0.44-0.97c0.18-0.24,0.61-0.66,1.31-1.26c0.73-0.62,1.19-1.07,1.38-1.33
				c0.33-0.45,0.57-0.89,0.72-1.32c0.15-0.43,0.23-0.86,0.23-1.31c0-0.81-0.24-1.58-0.71-2.32
				C293.52,496.73,292.88,496.17,292.09,495.78z"/>
			
				<linearGradient id="SVGID_00000040533229215468347120000012094778052854229121_" gradientUnits="userSpaceOnUse" x1="373.8068" y1="504.0415" x2="223.5235" y2="504.4259">
				<stop  offset="0" style="stop-color:#D8E529"/>
				<stop  offset="1" style="stop-color:#6CA34B"/>
			</linearGradient>
			<path style="fill:url(#SVGID_00000040533229215468347120000012094778052854229121_);" d="M312.52,504.43
				c-0.27-0.26-1.05-0.9-2.33-1.9c-1.37-1.09-2.19-1.8-2.46-2.13c-0.2-0.25-0.3-0.51-0.3-0.79c0-0.28,0.14-0.53,0.42-0.75
				c0.28-0.22,0.64-0.33,1.08-0.33c0.9,0,1.79,0.57,2.66,1.71l2.48-2.06c-0.93-1.01-1.79-1.71-2.58-2.09
				c-0.8-0.38-1.63-0.57-2.51-0.57c-1.37,0-2.52,0.41-3.45,1.23c-0.93,0.82-1.4,1.81-1.4,2.96c0,0.8,0.28,1.59,0.84,2.39
				c0.56,0.8,1.8,1.94,3.72,3.41c1.01,0.77,1.66,1.35,1.96,1.72c0.3,0.37,0.44,0.75,0.44,1.13c0,0.41-0.2,0.78-0.59,1.09
				c-0.39,0.31-0.88,0.47-1.45,0.47c-1.1,0-2.08-0.73-2.93-2.2l-2.82,1.6c0.66,1.24,1.46,2.15,2.39,2.73
				c0.93,0.58,2.02,0.87,3.28,0.87c1.61,0,2.91-0.44,3.91-1.33c1-0.89,1.5-2.01,1.5-3.37c0-0.7-0.14-1.34-0.42-1.93
				C313.68,505.69,313.2,505.07,312.52,504.43z"/>
			
				<linearGradient id="SVGID_00000062194220519664713740000015290359887888255145_" gradientUnits="userSpaceOnUse" x1="373.7928" y1="504.0759" x2="223.5492" y2="504.4602">
				<stop  offset="0" style="stop-color:#D8E529"/>
				<stop  offset="1" style="stop-color:#6CA34B"/>
			</linearGradient>
			<polygon style="fill:url(#SVGID_00000062194220519664713740000015290359887888255145_);" points="317.6,512.49 327.22,512.49 
				327.22,509.39 320.93,509.39 320.93,505.03 327.22,505.03 327.22,502.01 320.93,502.01 320.93,499.01 327.22,499.01 
				327.22,495.92 317.6,495.92 			"/>
			
				<linearGradient id="SVGID_00000021092866649212201000000002847013936072659870_" gradientUnits="userSpaceOnUse" x1="373.8074" y1="504.1175" x2="223.5215" y2="504.5019">
				<stop  offset="0" style="stop-color:#D8E529"/>
				<stop  offset="1" style="stop-color:#6CA34B"/>
			</linearGradient>
			<path style="fill:url(#SVGID_00000021092866649212201000000002847013936072659870_);" d="M338.67,495.51
				c-1.65,0-3.18,0.39-4.61,1.17c-1.43,0.78-2.55,1.83-3.36,3.16c-0.82,1.33-1.22,2.79-1.22,4.37c0,2.36,0.88,4.41,2.63,6.13
				c1.75,1.72,3.95,2.58,6.6,2.58c2.53,0,4.67-0.84,6.44-2.51c1.77-1.67,2.66-3.72,2.66-6.14c0-2.44-0.9-4.51-2.69-6.2
				C343.31,496.36,341.17,495.51,338.67,495.51z M342.76,508.23c-1.12,1.08-2.47,1.62-4.07,1.62c-1.41,0-2.65-0.42-3.74-1.25
				c-1.4-1.07-2.1-2.51-2.1-4.35c0-1.64,0.56-3,1.67-4.07c1.11-1.07,2.48-1.6,4.11-1.6c1.61,0,2.99,0.55,4.11,1.64
				c1.13,1.09,1.69,2.43,1.69,4C344.44,505.82,343.88,507.15,342.76,508.23z"/>
			
				<linearGradient id="SVGID_00000016055399412020846390000010381030609532315784_" gradientUnits="userSpaceOnUse" x1="373.8051" y1="504.3644" x2="223.5398" y2="504.7487">
				<stop  offset="0" style="stop-color:#D8E529"/>
				<stop  offset="1" style="stop-color:#6CA34B"/>
			</linearGradient>
			<path style="fill:url(#SVGID_00000016055399412020846390000010381030609532315784_);" d="M359.41,506.24
				c0,1.11-0.08,1.86-0.24,2.26c-0.16,0.39-0.46,0.72-0.89,0.97c-0.43,0.25-0.94,0.38-1.53,0.38c-0.56,0-1.04-0.11-1.43-0.34
				c-0.4-0.23-0.68-0.53-0.85-0.92s-0.26-1.04-0.26-1.96v-10.71h-3.37v9.88c0,1.97,0.2,3.38,0.61,4.21
				c0.41,0.83,1.09,1.52,2.03,2.07c0.95,0.55,2.06,0.83,3.34,0.83c0.97,0,1.83-0.14,2.56-0.43s1.38-0.73,1.95-1.33
				c0.56-0.6,0.94-1.22,1.14-1.87c0.2-0.65,0.3-1.8,0.3-3.47v-9.88h-3.37V506.24z"/>
			
				<linearGradient id="SVGID_00000025411929294874171700000001674554819953575339_" gradientUnits="userSpaceOnUse" x1="373.8085" y1="504.1996" x2="223.5316" y2="504.584">
				<stop  offset="0" style="stop-color:#D8E529"/>
				<stop  offset="1" style="stop-color:#6CA34B"/>
			</linearGradient>
			<polygon style="fill:url(#SVGID_00000025411929294874171700000001674554819953575339_);" points="370.02,509.48 370.02,495.92 
				366.67,495.92 366.67,512.49 374.91,512.49 374.91,509.48 			"/>
			<path class="st15" d="M235,489.63h-0.33c-0.94,0-1.7-0.78-1.7-1.74v-0.34C232.98,488.7,233.89,489.63,235,489.63z"/>
			<path class="st15" d="M422.44,415.54v0.53C422.37,415.9,422.37,415.71,422.44,415.54z"/>
			<path class="st16" d="M517.28,310.35c-30.7,0-55.58,24.5-55.58,54.71c0,30.22,24.88,54.71,55.58,54.71
				c30.7,0,55.58-24.5,55.58-54.71C572.87,334.84,547.98,310.35,517.28,310.35z M517.28,410.57c-7.55,0-14.66-1.93-20.88-5.34
				c-13.98-7.66-23.49-22.77-23.49-40.16c0-25.13,19.86-45.51,44.37-45.51c24.5,0,44.37,20.37,44.37,45.51
				C561.65,390.19,541.79,410.57,517.28,410.57z"/>
			<g>
				<path class="st17" d="M392.45,376.17c0,20.71,13.84,37.49,30.92,37.49v-90.1C406.29,323.56,392.45,355.46,392.45,376.17z"/>
				<path class="st18" d="M423.37,323.56v90.1c17.08,0,30.92-16.79,30.92-37.49S440.45,323.56,423.37,323.56z"/>
			</g>
			<g>
				<path class="st15" d="M579.94,437.26c1.13,0,2.04-0.94,2.04-2.1v-4.88c0-1.16-0.91-2.1-2.04-2.1H428.28v-14.05l11.57-14.08
					c0.25-0.31,0.22-0.77-0.08-1.03l-1.67-1.44c-0.32-0.27-0.77-0.22-1.02,0.08l-11.02,13.41v-24.04c0-0.51-0.4-0.92-0.9-0.92h-1.82
					c-0.5,0-0.9,0.41-0.9,0.92v25.22l-11.11-13.53c-0.27-0.31-0.72-0.34-1.02-0.08l-1.67,1.44c-0.3,0.27-0.33,0.74-0.08,1.04
					l10.57,12.86v14.2h-14.09c-1.13,0-2.04,0.94-2.04,2.1v4.88c0,1.16,0.91,2.1,2.04,2.1h14.09v36.36l-43.73-58.6
					c-0.26-0.35-0.6-0.62-0.96-0.8c-0.3-0.3-0.7-0.48-1.15-0.48h-5.84c-0.91,0-1.65,0.76-1.65,1.7v65h-60.78v-57.62h50.9
					c1.07,0,1.93-0.89,1.93-1.98v-5.11c0-1.1-0.87-1.98-1.93-1.98h-58.07c-1.09,0-1.97,0.91-1.97,2.03v64.67h-53.76V419.2
					c27.43-3.18,48.72-26.43,48.72-54.63c0-30.38-24.69-55-55.15-55c-30.46,0-55.15,24.62-55.15,55c0,15.39,6.34,29.3,16.56,39.29
					c0.78,0.76,2.01,0.72,2.74-0.08l4.24-4.67c0.7-0.77,0.69-1.96-0.02-2.72c-7.68-8.23-12.4-19.46-12.4-31.82
					c0-25.26,19.71-45.75,44.03-45.75c24.31,0,44.02,20.48,44.02,45.75c0,23.48-17.02,42.83-38.94,45.44
					c-0.21-0.08-0.44-0.12-0.68-0.12H235c-1.12,0-2.02,0.93-2.02,2.08v75.58c0,1.15,0.91,2.08,2.02,2.08h138.29
					c0.91,0,1.65-0.76,1.65-1.7v-58.31l44.01,58.97c0.58,0.78,1.5,1.15,2.39,1.05c0.08,0.01,0.16,0.01,0.24,0.01h4.25
					c1.35,0,2.45-1.12,2.45-2.51v-49.88h84.23v19.89c0,0.81,0.64,1.47,1.44,1.47h1.2c0.13,0.03,0.27,0.05,0.41,0.05h57.01v6.83
					H459.51c-0.95,0-1.71,0.79-1.71,1.76v2.91c-0.01,0.08-0.02,0.16-0.02,0.24v17.7c0,0.92,0.72,1.66,1.61,1.67
					c0.18,0.05,0.38,0.08,0.58,0.08h119.64c1.2,0,2.17-1,2.17-2.23v-4.61c0-1.23-0.97-2.23-2.17-2.23H466.93v-6.22h107.09
					c0.09,0.02,0.19,0.02,0.29,0.02h5.67c0.96,0,1.74-0.8,1.74-1.78V451.3c0-0.98-0.78-1.78-1.74-1.78h-5.67
					c-0.17,0-0.34,0.03-0.49,0.07h-52.15v-12.33H579.94z M422.44,415.54v0.53C422.37,415.9,422.37,415.71,422.44,415.54z"/>
				<path class="st15" d="M422.44,415.54v0.53C422.37,415.9,422.37,415.71,422.44,415.54z"/>
				<path class="st15" d="M422.44,415.54v0.53C422.37,415.9,422.37,415.71,422.44,415.54z"/>
			</g>
			<path class="st18" d="M416.52,379.84c2.77,5.24-0.54,12.57-0.54,12.57s-7.79-1.16-10.56-6.4c-2.77-5.24,0.54-12.57,0.54-12.57
				S413.75,374.6,416.52,379.84z"/>
			<path class="st17" d="M432.36,378.4c-2.77,5.24,0.54,12.57,0.54,12.57s7.79-1.16,10.56-6.4c2.77-5.24-0.54-12.57-0.54-12.57
				S435.13,373.16,432.36,378.4z"/>
		</g>
	</g>
</g>
</svg>
