<?xml version="1.0" encoding="utf-8"?>
<!-- Generator: Adobe Illustrator 27.4.0, SVG Export Plug-In . SVG Version: 6.00 Build 0)  -->
<svg version="1.1" id="레이어_1" xmlns="http://www.w3.org/2000/svg" xmlns:xlink="http://www.w3.org/1999/xlink" x="0px"
	 y="0px" viewBox="0 0 762.52 822.05" style="enable-background:new 0 0 762.52 822.05;" xml:space="preserve">
<style type="text/css">
	.st0{fill:none;stroke:#463C33;stroke-width:4;stroke-linecap:round;stroke-linejoin:round;stroke-miterlimit:10;}
	.st1{fill:#463C33;stroke:#463C33;stroke-width:4;stroke-linecap:round;stroke-linejoin:round;stroke-miterlimit:10;}
	.st2{fill:none;stroke:#463C33;stroke-width:3.7343;stroke-miterlimit:10;}
	.st3{fill:none;stroke:#463C33;stroke-width:2.9231;stroke-miterlimit:10;}
	.st4{fill:none;stroke:#463C33;stroke-width:2.6294;stroke-miterlimit:10;}
	.st5{fill:none;stroke:#463C33;stroke-width:2.7692;stroke-linecap:round;stroke-linejoin:round;stroke-dasharray:3.002,6.004;}
	.st6{fill:#463C33;}
	.st7{fill:#ABB868;}
</style>
<g>
	<polygon class="st0" points="342.68,306.54 342.68,348.33 430.53,348.33 430.53,306.54 352.67,306.54 	"/>
	<polyline class="st0" points="420.24,306.54 420.24,285.65 363.36,285.65 352.69,285.65 352.67,306.54 	"/>
	<polyline class="st0" points="410.17,285.65 410.17,271.71 376.59,271.71 362.7,271.71 363.36,285.65 	"/>
	<polyline class="st0" points="396.6,271.71 395.37,243.85 383.19,243.85 377.84,243.85 376.47,271.71 	"/>
	<line class="st0" x1="386.04" y1="243.85" x2="386.04" y2="202.2"/>
	<line class="st0" x1="378.71" y1="215.99" x2="393.96" y2="215.99"/>
	<line class="st0" x1="373.71" y1="225.28" x2="398.96" y2="225.28"/>
	<line class="st0" x1="393.96" y1="232.25" x2="378.71" y2="232.25"/>
	<line class="st0" x1="370" y1="349" x2="361.86" y2="402.63"/>
	<line class="st0" x1="404.12" y1="348.55" x2="412" y2="402"/>
	<polygon class="st0" points="346.91,402.8 427.97,402.8 425.59,429.03 359.03,428.39 349.36,428.39 	"/>
	<line class="st0" x1="355.19" y1="469.06" x2="360" y2="429"/>
	<line class="st0" x1="420" y1="468" x2="416" y2="429"/>
	<path class="st0" d="M295.15,496.92c0,0,34.96-36.71,91.29-25.32c0,0,46.32,6.75,61.33,62.47"/>
	<path class="st0" d="M499.29,553.1c-2.5-2.32-5.68-69.42-61.13-83.69c0,0-24.39-4.95-43.67,4.32"/>
	<path class="st0" d="M419.08,448.73c0,0,53.71-15.2,81.23,44.36c0,0,17.58,27.51,26.5,60.02h-193.9"/>
	<polygon class="st1" points="332.68,455.13 334.16,553.1 316.65,553.1 264.11,476.48 264.11,553.1 254.1,553.1 254.5,457.67 
		267.63,457.45 320.17,541.03 322.69,455.13 	"/>
</g>
<ellipse class="st2" cx="395.89" cy="394.55" rx="320.23" ry="317.59"/>
<ellipse class="st3" cx="395.89" cy="394.55" rx="250.66" ry="248.6"/>
<ellipse class="st4" cx="395.89" cy="394.55" rx="225.48" ry="223.62"/>
<g>
	<ellipse class="st5" cx="395.89" cy="394.55" rx="237.47" ry="235.51"/>
</g>
<g>
	<path class="st6" d="M363.84,104.23c4.6-0.5,8.74,0.73,12.41,3.67c3.67,2.95,5.76,6.8,6.28,11.55c0.51,4.71-0.69,8.87-3.61,12.49
		c-2.92,3.62-6.71,5.68-11.37,6.18c-4.89,0.53-9.13-0.71-12.72-3.71s-5.64-6.8-6.14-11.41c-0.33-3.09,0.11-6.01,1.34-8.76
		c1.23-2.75,3.07-5.03,5.54-6.83C358.05,105.62,360.8,104.56,363.84,104.23z M364.43,110.25c-3.01,0.33-5.43,1.64-7.26,3.94
		c-1.83,2.3-2.57,5.05-2.22,8.25c0.39,3.57,1.98,6.25,4.79,8.05c2.18,1.41,4.57,1.97,7.17,1.69c2.94-0.32,5.33-1.64,7.17-3.97
		c1.84-2.33,2.59-5.04,2.26-8.12c-0.33-3.07-1.65-5.56-3.97-7.46C370.06,110.71,367.41,109.92,364.43,110.25z"/>
	<path class="st6" d="M389.84,103.13l7.38,0.15c4.76,0.09,8.28,0.75,10.57,1.96c2.29,1.22,4.16,3.15,5.6,5.82
		c1.44,2.66,2.13,5.75,2.06,9.27c-0.05,2.5-0.51,4.79-1.39,6.87c-0.88,2.08-2.07,3.8-3.57,5.15s-3.12,2.28-4.85,2.77
		c-1.73,0.5-4.71,0.7-8.95,0.62l-7.49-0.15L389.84,103.13z M395.9,109.21l-0.41,20.48l2.89,0.06c2.85,0.06,4.92-0.23,6.22-0.85
		c1.3-0.62,2.37-1.69,3.21-3.21c0.85-1.52,1.29-3.39,1.34-5.63c0.07-3.45-0.85-6.14-2.76-8.08c-1.72-1.74-4.51-2.65-8.38-2.73
		L395.9,109.21z"/>
	<path class="st6" d="M424.24,104.53l17.74,2.17l-0.73,6l-11.6-1.42l-0.71,5.83l11.6,1.42l-0.72,5.89l-11.6-1.42l-1.04,8.48
		l11.6,1.42l-0.74,6.02l-17.74-2.17L424.24,104.53z"/>
	<path class="st6" d="M452.37,117.15l-5.7-1.23c0.57-2.78,2.02-4.86,4.35-6.25c2.33-1.39,5.09-1.74,8.26-1.06
		c2.04,0.44,3.7,1.19,4.98,2.25c1.27,1.06,2.19,2.38,2.75,3.98c0.56,1.6,0.67,3.17,0.33,4.72c-0.18,0.85-0.5,1.65-0.95,2.41
		s-1.07,1.51-1.85,2.24c-0.46,0.43-1.47,1.1-3.05,2.01c-1.51,0.86-2.47,1.5-2.89,1.89c-0.42,0.4-0.82,0.96-1.21,1.69
		c-0.39,0.73-0.76,1.78-1.11,3.15l-5.9-1.27l0.19-0.98c0.42-1.93,1.15-3.6,2.2-5.02c1.05-1.42,2.52-2.65,4.42-3.69
		c1.83-1.01,2.95-1.73,3.38-2.16s0.71-0.99,0.86-1.67c0.2-0.92-0.02-1.78-0.66-2.59c-0.64-0.81-1.61-1.35-2.91-1.63
		c-1.33-0.29-2.51-0.13-3.54,0.46C453.3,115.01,452.65,115.93,452.37,117.15z M452.9,134.81c1.06,0.23,1.88,0.78,2.48,1.66
		c0.59,0.88,0.78,1.83,0.56,2.85c-0.22,1.02-0.78,1.82-1.67,2.38c-0.9,0.57-1.87,0.74-2.91,0.51c-1.04-0.23-1.85-0.78-2.43-1.66
		c-0.58-0.88-0.75-1.84-0.53-2.86c0.22-1.02,0.77-1.81,1.65-2.38C450.92,134.76,451.88,134.59,452.9,134.81z"/>
	<path class="st6" d="M504.88,128.57l-5.72,2.2c-0.75-2.66-1.92-4.27-3.49-4.85c-0.77-0.28-1.47-0.31-2.11-0.08
		c-0.64,0.23-1.05,0.6-1.24,1.11s-0.19,1.06-0.01,1.64c0.25,0.78,1.2,2.61,2.86,5.49c1.55,2.67,2.48,4.33,2.78,4.99
		c0.75,1.62,1.17,3.07,1.27,4.33c0.1,1.27-0.09,2.54-0.56,3.83c-0.92,2.5-2.55,4.25-4.89,5.24c-2.34,0.99-4.91,0.97-7.71-0.05
		c-2.19-0.8-3.9-2.03-5.14-3.69c-1.23-1.66-2.01-3.84-2.33-6.54l6-1.14c0.49,3.24,1.7,5.21,3.62,5.91c1,0.37,1.95,0.39,2.85,0.06
		s1.48-0.87,1.76-1.63c0.25-0.69,0.25-1.48-0.01-2.36c-0.26-0.88-1.01-2.35-2.25-4.42c-2.36-3.94-3.75-6.82-4.19-8.65
		c-0.44-1.83-0.39-3.48,0.15-4.94c0.78-2.11,2.25-3.63,4.43-4.55c2.18-0.92,4.46-0.94,6.85-0.06c1.53,0.56,2.87,1.45,4,2.66
		C502.91,124.28,503.94,126.11,504.88,128.57z"/>
	<path class="st6" d="M514.46,127.84l16.17,7.61l-2.57,5.47l-10.57-4.97l-2.5,5.31l10.57,4.97l-2.53,5.37l-10.57-4.97l-3.63,7.73
		l10.57,4.97l-2.58,5.49l-16.17-7.61L514.46,127.84z"/>
	<path class="st6" d="M551.96,146.73c3.94,2.44,6.45,5.95,7.53,10.53c1.08,4.58,0.36,8.91-2.15,12.97c-2.5,4.03-6,6.57-10.53,7.63
		c-4.52,1.06-8.78,0.35-12.77-2.12c-4.18-2.59-6.76-6.17-7.75-10.75c-0.99-4.58-0.26-8.83,2.18-12.77c1.63-2.64,3.78-4.67,6.44-6.08
		c2.66-1.42,5.52-2.07,8.57-1.97C546.53,144.27,549.35,145.12,551.96,146.73z M548.71,151.84c-2.58-1.6-5.29-2.05-8.15-1.36
		c-2.86,0.69-5.13,2.4-6.83,5.14c-1.89,3.05-2.28,6.15-1.17,9.3c0.86,2.45,2.4,4.37,4.62,5.74c2.51,1.56,5.21,1.98,8.09,1.27
		c2.88-0.71,5.14-2.38,6.78-5.02c1.63-2.63,2.11-5.4,1.46-8.32C552.87,155.67,551.26,153.42,548.71,151.84z"/>
	<path class="st6" d="M572.87,161.73l4.86,3.93l-13.19,16.33c-1.14,1.41-1.82,2.5-2.04,3.29c-0.22,0.78-0.19,1.58,0.1,2.39
		c0.29,0.81,0.84,1.54,1.65,2.19c0.85,0.69,1.75,1.09,2.68,1.2c0.93,0.11,1.76-0.04,2.48-0.45c0.72-0.41,1.77-1.46,3.13-3.15
		l12.71-15.73l4.86,3.93l-12.16,15.06c-2.05,2.54-3.62,4.19-4.7,4.94c-1.08,0.75-2.4,1.26-3.96,1.51c-1.55,0.26-3.04,0.18-4.46-0.24
		c-1.42-0.42-2.83-1.19-4.24-2.33c-1.85-1.49-3.11-3.21-3.8-5.16c-0.69-1.95-0.81-3.79-0.38-5.53c0.43-1.74,1.87-4.12,4.3-7.13
		L572.87,161.73z"/>
	<path class="st6" d="M597.06,182.11l4.47,4.34l-18.51,19.06l6.51,6.32l-4.1,4.23l-10.98-10.67L597.06,182.11z"/>
	<path class="st6" d="M632.48,220.34c2.78,3.7,3.84,7.89,3.19,12.55c-0.66,4.66-2.9,8.43-6.72,11.3c-3.79,2.85-7.98,3.94-12.58,3.28
		c-4.6-0.66-8.31-2.86-11.12-6.61c-2.95-3.93-4.06-8.2-3.32-12.83c0.74-4.62,2.96-8.33,6.67-11.11c2.48-1.86,5.22-2.97,8.21-3.33
		c2.99-0.35,5.89,0.07,8.7,1.27C628.32,216.07,630.64,217.89,632.48,220.34z M627.6,223.92c-1.82-2.42-4.19-3.83-7.1-4.23
		c-2.91-0.4-5.65,0.38-8.23,2.31c-2.87,2.16-4.36,4.9-4.47,8.23c-0.09,2.6,0.65,4.94,2.22,7.03c1.78,2.36,4.13,3.74,7.08,4.13
		c2.94,0.39,5.66-0.35,8.14-2.21c2.47-1.86,3.93-4.26,4.38-7.22C630.08,229,629.41,226.32,627.6,223.92z"/>
	<path class="st6" d="M646.76,242.22l3.62,6.43c2.34,4.15,3.56,7.51,3.68,10.1c0.12,2.59-0.61,5.18-2.17,7.78
		c-1.56,2.6-3.87,4.76-6.94,6.48c-2.18,1.23-4.39,1.99-6.62,2.29c-2.24,0.3-4.32,0.15-6.25-0.46c-1.93-0.61-3.55-1.53-4.85-2.77
		c-1.3-1.24-3-3.7-5.08-7.4l-3.68-6.53L646.76,242.22z M644.6,250.53l-17.84,10.05l1.42,2.52c1.4,2.48,2.7,4.12,3.89,4.92
		s2.66,1.18,4.39,1.14c1.74-0.04,3.58-0.61,5.53-1.71c3-1.69,4.86-3.85,5.56-6.48c0.63-2.36-0.01-5.23-1.91-8.61L644.6,250.53z"/>
	<path class="st6" d="M663.04,272.63l7.09,16.4l-5.55,2.4l-4.64-10.72l-5.39,2.33l4.64,10.72l-5.45,2.36l-4.64-10.72l-7.84,3.39
		l4.64,10.72l-5.57,2.41l-7.09-16.4L663.04,272.63z"/>
	<path class="st6" d="M651.37,312.7c0.33,1.03,0.27,2.02-0.19,2.98c-0.46,0.95-1.19,1.59-2.18,1.92c-0.99,0.32-1.96,0.24-2.9-0.25
		c-0.94-0.49-1.58-1.24-1.91-2.26c-0.33-1.02-0.26-1.99,0.21-2.94s1.21-1.58,2.2-1.9c0.99-0.32,1.95-0.25,2.88,0.23
		C650.42,310.96,651.05,311.7,651.37,312.7z M666.36,303.35l-1.81-5.54c2.68-0.91,5.21-0.7,7.59,0.62c2.38,1.32,4.07,3.52,5.07,6.61
		c0.65,1.99,0.84,3.8,0.56,5.43c-0.27,1.63-0.96,3.09-2.06,4.38c-1.1,1.29-2.4,2.18-3.91,2.67c-0.83,0.27-1.68,0.4-2.56,0.39
		s-1.84-0.17-2.87-0.47c-0.6-0.18-1.69-0.72-3.27-1.63c-1.5-0.87-2.54-1.38-3.09-1.54s-1.25-0.23-2.07-0.19
		c-0.83,0.03-1.92,0.24-3.28,0.62l-1.87-5.73l0.94-0.33c1.88-0.61,3.69-0.82,5.45-0.63c1.76,0.19,3.56,0.85,5.41,1.96
		c1.79,1.07,2.98,1.68,3.57,1.83c0.59,0.15,1.21,0.12,1.87-0.1c0.9-0.29,1.53-0.92,1.91-1.87c0.38-0.96,0.36-2.07-0.06-3.34
		c-0.42-1.3-1.15-2.24-2.18-2.82C668.68,303.08,667.56,302.98,666.36,303.35z"/>
	<path class="st6" d="M682.85,354.53l-4.77-3.85c1.92-1.98,2.74-3.8,2.45-5.45c-0.14-0.81-0.47-1.43-0.99-1.86
		c-0.52-0.44-1.04-0.61-1.58-0.52s-1.01,0.37-1.42,0.82c-0.55,0.61-1.66,2.35-3.32,5.22c-1.53,2.68-2.51,4.32-2.93,4.9
		c-1.03,1.46-2.07,2.55-3.11,3.27c-1.05,0.72-2.24,1.2-3.59,1.43c-2.62,0.46-4.95-0.08-6.98-1.61c-2.03-1.53-3.3-3.76-3.82-6.7
		c-0.4-2.3-0.19-4.4,0.62-6.29s2.32-3.67,4.5-5.3l3.99,4.62c-2.55,2.05-3.65,4.08-3.3,6.1c0.18,1.05,0.64,1.89,1.38,2.5
		c0.73,0.61,1.5,0.85,2.3,0.71c0.72-0.13,1.4-0.52,2.03-1.19s1.53-2.06,2.7-4.16c2.23-4.01,4.02-6.66,5.38-7.96s2.81-2.08,4.35-2.35
		c2.22-0.39,4.27,0.13,6.15,1.56c1.88,1.43,3.05,3.39,3.48,5.89c0.28,1.61,0.18,3.21-0.3,4.79S684.51,352.49,682.85,354.53z"/>
	<path class="st6" d="M688.27,362.45l1.5,17.81l-6.03,0.51l-0.98-11.64l-5.85,0.49l0.98,11.64l-5.92,0.5L671,370.11l-8.51,0.72
		l0.98,11.64l-6.05,0.51l-1.5-17.81L688.27,362.45z"/>
	<path class="st6" d="M690.65,404.41c-0.15,4.63-1.93,8.56-5.36,11.78c-3.43,3.23-7.53,4.77-12.31,4.62
		c-4.74-0.15-8.69-1.92-11.87-5.31s-4.69-7.43-4.54-12.12c0.15-4.91,1.97-8.94,5.44-12.08s7.52-4.64,12.15-4.5
		c3.1,0.1,5.93,0.94,8.49,2.54c2.56,1.6,4.55,3.74,5.99,6.44C690.07,398.48,690.75,401.36,690.65,404.41z M684.61,404.16
		c0.09-3.03-0.87-5.61-2.89-7.74c-2.02-2.13-4.65-3.24-7.87-3.35c-3.59-0.11-6.47,1.1-8.64,3.63c-1.7,1.97-2.58,4.26-2.67,6.87
		c-0.09,2.95,0.89,5.5,2.94,7.65c2.05,2.15,4.63,3.27,7.73,3.36c3.09,0.1,5.74-0.87,7.94-2.89
		C683.36,409.67,684.51,407.15,684.61,404.16z"/>
	<path class="st6" d="M688.1,430.05l-0.98,6.17l-20.73-3.3c-1.79-0.29-3.07-0.33-3.86-0.13c-0.79,0.2-1.47,0.62-2.02,1.28
		c-0.56,0.66-0.92,1.5-1.08,2.52c-0.17,1.08-0.08,2.06,0.29,2.92c0.37,0.86,0.91,1.5,1.62,1.93c0.71,0.42,2.15,0.8,4.29,1.15
		l19.97,3.18l-0.98,6.18l-19.11-3.05c-3.23-0.51-5.43-1.05-6.62-1.62c-1.19-0.57-2.29-1.46-3.28-2.68c-1-1.22-1.67-2.55-2.01-3.98
		c-0.34-1.44-0.37-3.05-0.09-4.84c0.37-2.34,1.23-4.3,2.58-5.87c1.34-1.57,2.88-2.59,4.6-3.09c1.72-0.49,4.5-0.43,8.32,0.18
		L688.1,430.05z"/>
	<path class="st6" d="M682.46,461.24l-1.55,6.04l-25.74-6.61l-2.26,8.79l-5.71-1.46l3.81-14.83L682.46,461.24z"/>
	<path class="st6" d="M666.74,511.02c-1.85,4.25-4.96,7.24-9.34,8.97c-4.38,1.73-8.76,1.64-13.15-0.27c-4.34-1.89-7.37-5-9.06-9.32
		s-1.61-8.64,0.26-12.94c1.96-4.51,5.13-7.58,9.52-9.22s8.71-1.53,12.96,0.32c2.85,1.24,5.16,3.07,6.95,5.5
		c1.78,2.43,2.85,5.16,3.19,8.2S667.96,508.21,666.74,511.02z M661.23,508.54c1.21-2.78,1.27-5.53,0.17-8.26
		c-1.09-2.73-3.12-4.73-6.07-6.02c-3.29-1.43-6.41-1.37-9.37,0.18c-2.3,1.2-3.98,3-5.02,5.4c-1.18,2.71-1.21,5.44-0.1,8.19
		c1.11,2.75,3.09,4.75,5.94,5.98c2.83,1.23,5.65,1.32,8.45,0.25C658.03,513.2,660.03,511.29,661.23,508.54z"/>
	<path class="st6" d="M654.74,534.24l-3.81,6.32c-2.46,4.08-4.78,6.8-6.98,8.18c-2.2,1.38-4.81,2.03-7.84,1.95
		c-3.03-0.08-6.05-1.02-9.06-2.84c-2.14-1.29-3.89-2.84-5.26-4.64c-1.36-1.8-2.26-3.69-2.68-5.67c-0.42-1.98-0.42-3.84,0.02-5.58
		s1.75-4.43,3.93-8.07l3.87-6.42L654.74,534.24z M646.45,536.47l-17.54-10.57l-1.49,2.48c-1.47,2.44-2.26,4.38-2.37,5.81
		s0.28,2.9,1.17,4.38s2.29,2.81,4.21,3.97c2.95,1.78,5.74,2.33,8.37,1.64c2.37-0.62,4.55-2.58,6.55-5.9L646.45,536.47z"/>
	<path class="st6" d="M636.32,563.38l-10.76,14.26l-4.83-3.64l7.04-9.33l-4.69-3.54l-7.04,9.33l-4.74-3.58l7.04-9.33l-6.82-5.14
		l-7.04,9.33l-4.85-3.66l10.76-14.26L636.32,563.38z"/>
	<path class="st6" d="M595.74,573.01c-0.73,0.8-1.62,1.24-2.68,1.31c-1.06,0.07-1.97-0.25-2.75-0.95c-0.77-0.7-1.18-1.58-1.22-2.64
		c-0.04-1.06,0.3-1.98,1.02-2.77c0.72-0.79,1.6-1.21,2.66-1.27s1.97,0.27,2.74,0.97c0.77,0.7,1.18,1.58,1.23,2.62
		C596.78,571.32,596.44,572.23,595.74,573.01z M611.28,581.41l3.92-4.31c2.12,1.88,3.19,4.18,3.22,6.9
		c0.03,2.72-1.05,5.28-3.23,7.68c-1.41,1.55-2.89,2.61-4.44,3.18c-1.55,0.57-3.16,0.7-4.82,0.38c-1.66-0.32-3.08-1.01-4.25-2.08
		c-0.64-0.58-1.18-1.26-1.61-2.04c-0.43-0.77-0.77-1.68-1.01-2.73c-0.14-0.61-0.21-1.83-0.21-3.64c0.01-1.74-0.05-2.89-0.19-3.45
		c-0.13-0.56-0.42-1.19-0.86-1.89c-0.44-0.7-1.16-1.55-2.17-2.54l4.06-4.46l0.75,0.65c1.46,1.33,2.54,2.8,3.24,4.42
		s1.03,3.51,0.98,5.67c-0.05,2.08,0.01,3.42,0.17,4.01c0.16,0.59,0.5,1.11,1.01,1.58c0.7,0.63,1.55,0.88,2.57,0.73
		c1.02-0.15,1.98-0.71,2.88-1.7c0.92-1.01,1.38-2.11,1.38-3.29C612.67,583.28,612.2,582.26,611.28,581.41z"/>
	<path class="st6" d="M575.09,621.1l0.96-6.06c2.68,0.68,4.66,0.49,5.95-0.59c0.63-0.52,1-1.12,1.12-1.78
		c0.12-0.67,0.01-1.21-0.34-1.63c-0.35-0.42-0.82-0.7-1.42-0.83c-0.8-0.17-2.86-0.27-6.18-0.28c-3.09,0.01-4.99-0.03-5.71-0.1
		c-1.78-0.17-3.24-0.52-4.39-1.07s-2.15-1.35-3.03-2.4c-1.71-2.05-2.4-4.33-2.08-6.85c0.32-2.52,1.62-4.74,3.91-6.65
		c1.79-1.49,3.71-2.36,5.77-2.59c2.05-0.24,4.33,0.18,6.83,1.26l-2.02,5.76c-3.05-1.2-5.36-1.14-6.93,0.17
		c-0.82,0.68-1.31,1.5-1.48,2.44c-0.16,0.94,0.01,1.72,0.53,2.34c0.47,0.57,1.15,0.95,2.05,1.17c0.89,0.21,2.54,0.3,4.95,0.27
		c4.59-0.07,7.78,0.17,9.58,0.71c1.8,0.54,3.2,1.41,4.2,2.6c1.44,1.73,2.01,3.77,1.71,6.11c-0.3,2.34-1.42,4.33-3.38,5.96
		c-1.26,1.05-2.69,1.75-4.31,2.12C579.79,621.55,577.68,621.52,575.09,621.1z"/>
	<path class="st6" d="M570.94,629.74l-14.68,10.19l-3.45-4.97l9.6-6.66l-3.35-4.82l-9.6,6.66l-3.39-4.88l9.6-6.66l-4.87-7.02
		l-9.6,6.66l-3.46-4.99l14.68-10.19L570.94,629.74z"/>
	<path class="st6" d="M535.81,652.74c-4.08,2.19-8.38,2.6-12.89,1.25c-4.51-1.36-7.89-4.14-10.15-8.36
		c-2.24-4.18-2.68-8.49-1.33-12.93c1.35-4.45,4.09-7.78,8.23-9.99c4.33-2.32,8.73-2.76,13.18-1.33s7.78,4.2,9.97,8.28
		c1.47,2.74,2.15,5.61,2.04,8.62c-0.1,3.01-0.97,5.81-2.58,8.41S538.5,651.3,535.81,652.74z M533.01,647.38
		c2.67-1.43,4.42-3.55,5.26-6.37s0.49-5.64-1.03-8.49c-1.7-3.16-4.18-5.05-7.46-5.67c-2.55-0.49-4.98-0.11-7.28,1.12
		c-2.6,1.4-4.32,3.52-5.16,6.37s-0.52,5.64,0.95,8.38c1.46,2.72,3.62,4.53,6.47,5.43C527.62,649.06,530.37,648.8,533.01,647.38z"/>
	<path class="st6" d="M512.34,663.35l-5.84,2.24l-7.52-19.6c-0.65-1.69-1.25-2.83-1.82-3.41c-0.57-0.59-1.27-0.96-2.12-1.11
		c-0.85-0.16-1.75-0.05-2.72,0.33c-1.02,0.39-1.82,0.96-2.38,1.72s-0.85,1.54-0.85,2.37c-0.01,0.83,0.38,2.26,1.16,4.29l7.25,18.88
		l-5.84,2.24l-6.93-18.07c-1.17-3.05-1.81-5.23-1.92-6.55s0.12-2.71,0.67-4.18s1.37-2.72,2.44-3.74s2.45-1.85,4.14-2.5
		c2.22-0.85,4.34-1.09,6.37-0.71c2.03,0.38,3.69,1.19,4.98,2.44c1.29,1.25,2.63,3.68,4.01,7.29L512.34,663.35z"/>
	<path class="st6" d="M482.57,674.07l-6,1.69l-7.21-25.58l-8.74,2.46l-1.6-5.67l14.74-4.16L482.57,674.07z"/>
	<path class="st6" d="M431.74,685.54c-4.6,0.55-8.75-0.62-12.46-3.53c-3.71-2.9-5.84-6.73-6.41-11.48
		c-0.56-4.7,0.59-8.88,3.46-12.53c2.87-3.65,6.64-5.75,11.3-6.31c4.88-0.59,9.13,0.6,12.76,3.56c3.63,2.96,5.72,6.74,6.27,11.34
		c0.37,3.08-0.04,6.01-1.23,8.77c-1.19,2.77-3.01,5.06-5.46,6.89C437.52,684.08,434.77,685.18,431.74,685.54z M431.08,679.53
		c3.01-0.36,5.41-1.7,7.21-4.02c1.8-2.32,2.51-5.08,2.12-8.28c-0.43-3.56-2.06-6.23-4.89-7.99c-2.2-1.38-4.6-1.92-7.19-1.6
		c-2.93,0.35-5.31,1.7-7.12,4.06s-2.53,5.07-2.16,8.15c0.37,3.07,1.72,5.54,4.05,7.42C425.45,679.13,428.1,679.89,431.08,679.53z"/>
	<path class="st6" d="M405.54,687.03l-7.38-0.12c-4.76-0.08-8.28-0.72-10.58-1.92c-2.29-1.21-4.17-3.14-5.62-5.8
		c-1.45-2.66-2.15-5.74-2.1-9.26c0.04-2.5,0.5-4.79,1.37-6.88c0.87-2.08,2.06-3.8,3.55-5.16c1.5-1.36,3.11-2.29,4.84-2.79
		s4.71-0.72,8.95-0.65l7.49,0.12L405.54,687.03z M399.45,680.98l0.33-20.48l-2.89-0.05c-2.85-0.04-4.92,0.25-6.21,0.87
		c-1.29,0.63-2.36,1.7-3.2,3.22c-0.84,1.52-1.28,3.4-1.32,5.64c-0.05,3.45,0.87,6.13,2.79,8.07c1.72,1.74,4.52,2.64,8.39,2.7
		L399.45,680.98z"/>
	<path class="st6" d="M371.34,685.94l-17.76-1.96l0.66-6.01l11.61,1.28l0.64-5.83l-11.61-1.28l0.65-5.9l11.61,1.28l0.94-8.49
		l-11.61-1.28l0.67-6.03l17.76,1.96L371.34,685.94z"/>
	<path class="st6" d="M343.05,673.65l5.71,1.16c-0.54,2.78-1.96,4.88-4.28,6.3c-2.32,1.42-5.07,1.8-8.25,1.15
		c-2.05-0.42-3.72-1.15-5-2.19c-1.29-1.04-2.22-2.36-2.8-3.95c-0.58-1.59-0.71-3.16-0.39-4.72c0.17-0.85,0.48-1.66,0.92-2.42
		s1.05-1.52,1.82-2.26c0.45-0.43,1.46-1.11,3.03-2.04c1.5-0.88,2.45-1.52,2.87-1.93c0.42-0.4,0.81-0.97,1.19-1.71
		s0.73-1.79,1.07-3.16l5.91,1.2l-0.18,0.98c-0.39,1.93-1.11,3.61-2.14,5.05c-1.03,1.43-2.49,2.68-4.37,3.74
		c-1.81,1.03-2.93,1.76-3.35,2.2c-0.42,0.44-0.7,1-0.84,1.68c-0.19,0.92,0.04,1.78,0.69,2.58c0.65,0.8,1.62,1.33,2.93,1.6
		c1.34,0.27,2.51,0.1,3.53-0.5C342.14,675.79,342.78,674.88,343.05,673.65z M342.3,655.99c-1.06-0.22-1.89-0.76-2.49-1.63
		s-0.8-1.82-0.59-2.85c0.21-1.02,0.76-1.82,1.65-2.4c0.89-0.58,1.86-0.76,2.9-0.55s1.86,0.76,2.45,1.63
		c0.59,0.88,0.77,1.83,0.57,2.85c-0.21,1.02-0.75,1.82-1.62,2.39S343.33,656.2,342.3,655.99z"/>
	<path class="st6" d="M290.4,662.84l5.7-2.27c0.78,2.65,1.97,4.25,3.55,4.81c0.77,0.27,1.47,0.29,2.11,0.05
		c0.64-0.24,1.04-0.61,1.22-1.12c0.18-0.51,0.18-1.06-0.01-1.64c-0.26-0.78-1.23-2.6-2.92-5.46c-1.58-2.65-2.53-4.3-2.84-4.96
		c-0.77-1.61-1.21-3.05-1.32-4.32c-0.11-1.27,0.06-2.54,0.51-3.83c0.89-2.51,2.5-4.28,4.82-5.29s4.9-1.03,7.71-0.04
		c2.2,0.78,3.92,1.99,5.18,3.63c1.25,1.64,2.06,3.82,2.41,6.52l-5.98,1.21c-0.53-3.23-1.76-5.19-3.69-5.87
		c-1.01-0.36-1.96-0.37-2.85-0.02c-0.89,0.34-1.47,0.89-1.74,1.65c-0.25,0.69-0.23,1.48,0.04,2.36c0.27,0.88,1.04,2.34,2.3,4.39
		c2.4,3.91,3.83,6.77,4.29,8.6c0.46,1.82,0.43,3.47-0.09,4.94c-0.75,2.12-2.21,3.66-4.38,4.6c-2.17,0.94-4.45,0.99-6.84,0.14
		c-1.54-0.54-2.88-1.42-4.03-2.62C292.42,667.12,291.37,665.29,290.4,662.84z"/>
	<path class="st6" d="M280.86,663.7l-16.26-7.41l2.51-5.5l10.63,4.85l2.44-5.34l-10.63-4.85l2.46-5.4l10.63,4.85l3.54-7.77
		l-10.63-4.85l2.52-5.52l16.26,7.41L280.86,663.7z"/>
	<path class="st6" d="M243.14,645.25c-3.97-2.39-6.52-5.87-7.65-10.44c-1.14-4.57-0.47-8.9,2-13c2.45-4.06,5.93-6.64,10.44-7.75
		c4.51-1.11,8.77-0.46,12.79,1.97c4.21,2.54,6.83,6.09,7.88,10.65s0.37,8.83-2.03,12.8c-1.6,2.66-3.73,4.71-6.37,6.16
		c-2.64,1.45-5.49,2.14-8.55,2.08C248.59,647.65,245.76,646.83,243.14,645.25z M246.32,640.11c2.59,1.56,5.31,1.99,8.16,1.26
		s5.1-2.46,6.77-5.22c1.85-3.07,2.21-6.18,1.06-9.31c-0.89-2.44-2.45-4.34-4.69-5.69c-2.53-1.53-5.23-1.92-8.11-1.18
		c-2.87,0.74-5.11,2.44-6.72,5.1c-1.6,2.65-2.05,5.43-1.36,8.34C242.12,636.32,243.75,638.56,246.32,640.11z"/>
	<path class="st6" d="M222.05,630.51l-4.91-3.87l13-16.49c1.12-1.42,1.79-2.52,2-3.31c0.21-0.79,0.17-1.58-0.13-2.39
		c-0.3-0.81-0.86-1.53-1.67-2.17c-0.86-0.68-1.76-1.07-2.69-1.17c-0.93-0.1-1.76,0.06-2.47,0.48c-0.72,0.42-1.75,1.48-3.1,3.19
		l-12.52,15.88l-4.91-3.87l11.98-15.2c2.02-2.56,3.57-4.23,4.65-4.99s2.39-1.28,3.94-1.56c1.55-0.28,3.04-0.21,4.46,0.19
		c1.42,0.4,2.84,1.16,4.27,2.28c1.86,1.47,3.15,3.17,3.86,5.11s0.86,3.78,0.45,5.52c-0.41,1.75-1.82,4.14-4.21,7.18L222.05,630.51z"
		/>
	<path class="st6" d="M197.6,610.4l-4.52-4.29l18.29-19.28l-6.59-6.25l4.05-4.28l11.11,10.54L197.6,610.4z"/>
	<path class="st6" d="M161.75,572.61c-2.83-3.67-3.94-7.84-3.34-12.51c0.6-4.67,2.8-8.46,6.58-11.38c3.75-2.89,7.93-4.04,12.54-3.43
		c4.61,0.6,8.34,2.76,11.2,6.48c3,3.89,4.16,8.16,3.47,12.79c-0.69,4.63-2.86,8.36-6.54,11.19c-2.46,1.89-5.18,3.04-8.17,3.43
		s-5.89,0-8.72-1.17S163.62,575.03,161.75,572.61z M166.58,568.97c1.85,2.4,4.23,3.78,7.15,4.14s5.65-0.44,8.2-2.41
		c2.84-2.19,4.3-4.95,4.37-8.29c0.06-2.6-0.71-4.93-2.3-7c-1.8-2.34-4.18-3.69-7.13-4.04s-5.65,0.42-8.11,2.31
		c-2.45,1.88-3.88,4.31-4.3,7.28C164.05,563.92,164.75,566.59,166.58,568.97z"/>
	<path class="st6" d="M147.21,550.89l-3.7-6.39c-2.39-4.12-3.65-7.47-3.8-10.06s0.54-5.19,2.07-7.8c1.53-2.62,3.81-4.8,6.86-6.57
		c2.16-1.25,4.36-2.04,6.6-2.37c2.23-0.33,4.32-0.2,6.25,0.39c1.94,0.58,3.56,1.49,4.88,2.71c1.32,1.22,3.04,3.67,5.17,7.34
		l3.76,6.48L147.21,550.89z M149.27,542.55l17.72-10.27l-1.45-2.5c-1.43-2.46-2.74-4.09-3.95-4.88c-1.2-0.79-2.67-1.15-4.41-1.09
		c-1.73,0.06-3.57,0.65-5.51,1.78c-2.98,1.73-4.81,3.91-5.48,6.54c-0.6,2.37,0.07,5.23,2.01,8.58L149.27,542.55z"/>
	<path class="st6" d="M130.56,520.67l-7.29-16.31l5.52-2.47l4.77,10.67l5.36-2.4l-4.77-10.67l5.42-2.42l4.77,10.67l7.8-3.48
		l-4.77-10.67l5.54-2.48l7.29,16.31L130.56,520.67z"/>
	<path class="st6" d="M126.88,490.02l1.87,5.52c-2.67,0.94-5.21,0.76-7.6-0.53c-2.39-1.29-4.11-3.47-5.15-6.55
		c-0.67-1.98-0.88-3.79-0.63-5.43c0.25-1.64,0.92-3.1,2-4.4c1.08-1.3,2.38-2.2,3.88-2.71c0.82-0.28,1.68-0.42,2.56-0.42
		c0.89,0,1.84,0.14,2.87,0.44c0.6,0.17,1.7,0.7,3.29,1.59c1.52,0.85,2.55,1.35,3.11,1.51c0.56,0.16,1.25,0.21,2.07,0.17
		c0.82-0.04,1.91-0.27,3.27-0.66l1.94,5.71l-0.93,0.34c-1.87,0.63-3.68,0.86-5.44,0.69c-1.76-0.17-3.57-0.8-5.43-1.89
		c-1.8-1.05-3-1.65-3.59-1.79c-0.59-0.14-1.22-0.1-1.87,0.12c-0.89,0.3-1.52,0.94-1.88,1.9s-0.33,2.08,0.1,3.34
		c0.44,1.29,1.18,2.23,2.21,2.8C124.57,490.32,125.68,490.41,126.88,490.02z M141.75,480.49c-0.35-1.03-0.3-2.02,0.15-2.98
		c0.45-0.96,1.17-1.61,2.16-1.94c0.99-0.34,1.96-0.26,2.9,0.21c0.95,0.48,1.59,1.22,1.93,2.23s0.28,1.99-0.18,2.94
		c-0.46,0.95-1.19,1.59-2.18,1.93s-1.95,0.27-2.89-0.2S142.09,481.49,141.75,480.49z"/>
	<path class="st6" d="M109.77,439.03l4.82,3.79c-1.9,2-2.69,3.83-2.39,5.48c0.15,0.8,0.49,1.42,1.01,1.85
		c0.52,0.43,1.05,0.6,1.59,0.5c0.54-0.1,1.01-0.38,1.42-0.83c0.54-0.62,1.63-2.37,3.26-5.26c1.5-2.7,2.46-4.35,2.87-4.94
		c1.01-1.47,2.04-2.58,3.07-3.31s2.23-1.22,3.57-1.47c2.62-0.49,4.95,0.02,7,1.52c2.05,1.5,3.35,3.72,3.9,6.66
		c0.43,2.29,0.25,4.39-0.55,6.3c-0.79,1.91-2.27,3.69-4.43,5.35l-4.05-4.57c2.53-2.08,3.61-4.12,3.23-6.14
		c-0.2-1.05-0.67-1.88-1.41-2.48s-1.51-0.83-2.31-0.68c-0.72,0.14-1.4,0.54-2.02,1.22c-0.62,0.68-1.5,2.07-2.65,4.19
		c-2.18,4.04-3.94,6.71-5.29,8.02c-1.35,1.31-2.79,2.11-4.32,2.4c-2.21,0.42-4.27-0.08-6.17-1.48c-1.9-1.4-3.09-3.35-3.56-5.85
		c-0.3-1.61-0.22-3.21,0.25-4.8S108.13,441.09,109.77,439.03z"/>
	<path class="st6" d="M104.25,431.17l-1.71-17.79l6.02-0.58l1.12,11.63l5.84-0.56l-1.12-11.63l5.91-0.57l1.12,11.63l8.5-0.82
		l-1.12-11.63l6.04-0.58l1.71,17.79L104.25,431.17z"/>
	<path class="st6" d="M101.37,389.25c0.09-4.63,1.83-8.58,5.22-11.85c3.39-3.27,7.48-4.85,12.26-4.76
		c4.74,0.09,8.71,1.81,11.93,5.17c3.22,3.35,4.78,7.37,4.69,12.06c-0.1,4.91-1.86,8.96-5.29,12.15c-3.43,3.18-7.47,4.73-12.1,4.64
		c-3.1-0.06-5.94-0.87-8.52-2.44s-4.6-3.69-6.07-6.37C102.02,395.17,101.31,392.31,101.37,389.25z M107.42,389.43
		c-0.06,3.03,0.94,5.6,2.98,7.7c2.05,2.1,4.68,3.19,7.9,3.25c3.59,0.07,6.45-1.17,8.59-3.73c1.67-1.99,2.53-4.29,2.59-6.9
		c0.06-2.95-0.95-5.49-3.03-7.61c-2.08-2.12-4.67-3.21-7.77-3.27c-3.09-0.06-5.72,0.94-7.91,2.99
		C108.6,383.91,107.48,386.43,107.42,389.43z"/>
	<path class="st6" d="M103.62,363.59l0.91-6.19l20.77,3.05c1.79,0.26,3.08,0.29,3.87,0.08c0.79-0.21,1.46-0.64,2.01-1.3
		c0.55-0.66,0.9-1.51,1.05-2.53c0.16-1.09,0.05-2.06-0.33-2.92c-0.38-0.86-0.93-1.49-1.65-1.91c-0.72-0.41-2.16-0.78-4.31-1.09
		l-20.01-2.94l0.91-6.19l19.15,2.81c3.23,0.48,5.45,0.99,6.64,1.54c1.2,0.55,2.3,1.43,3.32,2.64c1.01,1.21,1.7,2.53,2.06,3.96
		c0.36,1.43,0.41,3.04,0.15,4.84c-0.35,2.35-1.18,4.31-2.51,5.9s-2.85,2.63-4.57,3.14c-1.72,0.51-4.49,0.49-8.32-0.08L103.62,363.59
		z"/>
	<path class="st6" d="M108.89,332.32l1.48-6.05l25.82,6.3l2.15-8.82l5.72,1.4l-3.63,14.87L108.89,332.32z"/>
	<path class="st6" d="M123.99,282.38c1.8-4.27,4.87-7.3,9.23-9.08c4.36-1.78,8.74-1.75,13.15,0.11c4.37,1.84,7.43,4.91,9.18,9.21
		c1.75,4.3,1.72,8.62-0.1,12.94c-1.9,4.53-5.04,7.64-9.41,9.33c-4.37,1.69-8.69,1.64-12.96-0.16c-2.86-1.2-5.2-3.01-7.01-5.41
		c-1.81-2.41-2.91-5.12-3.29-8.16C122.4,288.12,122.8,285.2,123.99,282.38z M129.53,284.78c-1.17,2.79-1.2,5.55-0.07,8.26
		c1.13,2.71,3.17,4.69,6.14,5.94c3.31,1.39,6.43,1.3,9.36-0.29c2.29-1.23,3.94-3.05,4.95-5.46c1.15-2.72,1.15-5.46,0-8.19
		c-1.15-2.74-3.15-4.71-6.01-5.91c-2.85-1.2-5.67-1.25-8.45-0.15C132.67,280.09,130.7,282.02,129.53,284.78z"/>
	<path class="st6" d="M135.72,258.98l3.73-6.37c2.41-4.1,4.7-6.86,6.88-8.26c2.18-1.4,4.78-2.08,7.81-2.04s6.06,0.95,9.09,2.73
		c2.16,1.27,3.93,2.79,5.31,4.57c1.38,1.78,2.3,3.66,2.75,5.63c0.45,1.97,0.46,3.83,0.05,5.58c-0.41,1.75-1.69,4.45-3.84,8.11
		l-3.79,6.46L135.72,258.98z M143.99,256.66l17.67,10.36l1.46-2.5c1.44-2.46,2.21-4.4,2.3-5.84c0.09-1.43-0.32-2.89-1.23-4.37
		c-0.91-1.48-2.33-2.78-4.26-3.92c-2.97-1.74-5.77-2.26-8.39-1.54c-2.36,0.65-4.52,2.64-6.48,5.98L143.99,256.66z"/>
	<path class="st6" d="M153.79,229.64l10.59-14.39l4.87,3.58l-6.93,9.41l4.73,3.48l6.93-9.41l4.78,3.52l-6.93,9.41l6.88,5.06
		l6.92-9.41l4.89,3.6l-10.59,14.39L153.79,229.64z"/>
	<path class="st6" d="M178.61,211.31l-3.87,4.36c-2.14-1.86-3.24-4.15-3.3-6.86c-0.06-2.71,0.98-5.29,3.14-7.72
		c1.39-1.56,2.86-2.64,4.4-3.23c1.55-0.59,3.15-0.74,4.82-0.44c1.66,0.3,3.09,0.97,4.28,2.03c0.65,0.58,1.19,1.25,1.63,2.02
		s0.79,1.67,1.04,2.71c0.15,0.61,0.23,1.82,0.25,3.64c0.01,1.74,0.09,2.89,0.23,3.45c0.14,0.56,0.43,1.19,0.88,1.88
		s1.18,1.53,2.19,2.51l-4,4.51l-0.76-0.64c-1.47-1.31-2.57-2.77-3.29-4.38s-1.07-3.5-1.04-5.66c0.02-2.08-0.05-3.42-0.22-4.01
		s-0.51-1.11-1.03-1.57c-0.7-0.62-1.56-0.86-2.58-0.7c-1.02,0.16-1.97,0.74-2.85,1.74c-0.91,1.02-1.35,2.12-1.34,3.31
		C177.21,209.45,177.68,210.47,178.61,211.31z M194.26,219.52c0.72-0.81,1.61-1.26,2.66-1.34c1.06-0.08,1.98,0.22,2.76,0.92
		c0.78,0.69,1.2,1.57,1.25,2.63s-0.27,1.99-0.98,2.79c-0.71,0.8-1.59,1.23-2.64,1.3s-1.97-0.25-2.75-0.94s-1.2-1.56-1.26-2.6
		C193.24,221.22,193.56,220.31,194.26,219.52z"/>
	<path class="st6" d="M214.35,171.18l-0.89,6.07c-2.68-0.65-4.66-0.43-5.94,0.66c-0.62,0.53-0.99,1.13-1.1,1.8
		c-0.11,0.67,0.01,1.21,0.36,1.62c0.35,0.41,0.83,0.69,1.43,0.81c0.8,0.17,2.87,0.23,6.18,0.21c3.09-0.04,4.99-0.03,5.71,0.03
		c1.78,0.14,3.25,0.48,4.4,1.02c1.15,0.54,2.17,1.33,3.06,2.37c1.73,2.03,2.45,4.3,2.16,6.83c-0.29,2.53-1.56,4.76-3.84,6.69
		c-1.77,1.51-3.69,2.4-5.74,2.66c-2.05,0.26-4.33-0.13-6.85-1.18l1.95-5.78c3.06,1.16,5.37,1.08,6.93-0.25
		c0.81-0.69,1.3-1.51,1.45-2.46c0.15-0.94-0.03-1.72-0.56-2.34c-0.48-0.56-1.16-0.94-2.06-1.14c-0.9-0.2-2.55-0.27-4.96-0.21
		c-4.58,0.12-7.78-0.08-9.59-0.59s-3.22-1.37-4.23-2.56c-1.46-1.71-2.06-3.74-1.78-6.09c0.27-2.35,1.37-4.35,3.31-6
		c1.24-1.06,2.67-1.78,4.28-2.17S211.75,170.79,214.35,171.18z"/>
	<path class="st6" d="M218.39,162.49l14.56-10.36l3.51,4.93l-9.52,6.77l3.4,4.78l9.52-6.77l3.44,4.84l-9.52,6.77l4.95,6.96
		l9.52-6.77l3.52,4.94l-14.56,10.36L218.39,162.49z"/>
	<path class="st6" d="M253.25,139.08c4.06-2.24,8.35-2.7,12.87-1.4c4.52,1.3,7.94,4.05,10.25,8.24c2.29,4.15,2.78,8.46,1.48,12.92
		s-4,7.82-8.11,10.09c-4.3,2.37-8.69,2.87-13.17,1.48c-4.47-1.38-7.83-4.1-10.06-8.16c-1.5-2.72-2.21-5.58-2.14-8.6
		c0.07-3.01,0.9-5.82,2.48-8.44C248.44,142.6,250.58,140.55,253.25,139.08z M256.11,144.41c-2.65,1.46-4.38,3.61-5.18,6.43
		c-0.8,2.83-0.42,5.65,1.13,8.47c1.73,3.14,4.24,5,7.53,5.58c2.56,0.46,4.98,0.05,7.27-1.21c2.59-1.43,4.28-3.57,5.08-6.43
		c0.8-2.86,0.45-5.65-1.05-8.37c-1.49-2.71-3.67-4.49-6.54-5.36C261.49,142.67,258.74,142.96,256.11,144.41z"/>
	<path class="st6" d="M276.56,128.21l5.81-2.31l7.75,19.51c0.67,1.68,1.29,2.81,1.86,3.39c0.57,0.58,1.28,0.94,2.13,1.09
		c0.85,0.15,1.75,0.03,2.72-0.36c1.02-0.41,1.81-0.99,2.36-1.74c0.55-0.76,0.83-1.55,0.83-2.38s-0.41-2.26-1.21-4.28l-7.47-18.79
		l5.81-2.31l7.15,17.99c1.21,3.04,1.87,5.21,1.99,6.52c0.12,1.31-0.08,2.71-0.62,4.19c-0.54,1.48-1.34,2.74-2.39,3.77
		c-1.06,1.03-2.43,1.88-4.11,2.55c-2.21,0.88-4.33,1.14-6.36,0.78c-2.03-0.36-3.7-1.15-5.01-2.38c-1.3-1.23-2.67-3.65-4.1-7.24
		L276.56,128.21z"/>
	<path class="st6" d="M306.22,117.13l5.98-1.76l7.51,25.49l8.71-2.57l1.67,5.65l-14.69,4.33L306.22,117.13z"/>
</g>
<path class="st7" d="M561.18,510.09c-14.97,8.81-37.15-1.1-37.15-1.1s2.11-24.19,17.08-33c14.97-8.81,37.15,1.1,37.15,1.1
	S576.15,501.28,561.18,510.09z"/>
<path class="st7" d="M526.83,465.07c6.11,12.36-2.05,28.85-2.05,28.85s-18.06-3.54-24.16-15.89c-6.11-12.36,2.05-28.85,2.05-28.85
	S520.72,452.71,526.83,465.07z"/>
</svg>
