<?xml version="1.0" encoding="utf-8"?>
<!-- Generator: Adobe Illustrator 27.4.0, SVG Export Plug-In . SVG Version: 6.00 Build 0)  -->
<svg version="1.1" id="레이어_1" xmlns="http://www.w3.org/2000/svg" xmlns:xlink="http://www.w3.org/1999/xlink" x="0px"
	 y="0px" viewBox="0 0 762.52 822.05" style="enable-background:new 0 0 762.52 822.05;" xml:space="preserve">
<style type="text/css">
	.st0{fill:none;stroke:#463C33;stroke-width:4;stroke-linecap:round;stroke-linejoin:round;stroke-miterlimit:10;}
	.st1{fill:#463C33;stroke:#463C33;stroke-width:4;stroke-linecap:round;stroke-linejoin:round;stroke-miterlimit:10;}
	.st2{fill:none;stroke:#463C33;stroke-width:3.7343;stroke-miterlimit:10;}
	.st3{fill:none;stroke:#463C33;stroke-width:2.9231;stroke-miterlimit:10;}
	.st4{fill:none;stroke:#463C33;stroke-width:2.6294;stroke-miterlimit:10;}
	.st5{fill:none;stroke:#463C33;stroke-width:2.7692;stroke-linecap:round;stroke-linejoin:round;stroke-dasharray:3.002,6.004;}
	.st6{fill:none;}
	.st7{fill:#ABB868;}
</style>
<g>
	<g>
		<polygon class="st0" points="342.68,306.54 342.68,348.33 430.53,348.33 430.53,306.54 352.67,306.54 		"/>
		<polyline class="st0" points="420.24,306.54 420.24,285.65 363.36,285.65 352.69,285.65 352.67,306.54 		"/>
		<polyline class="st0" points="410.17,285.65 410.17,271.71 376.59,271.71 362.7,271.71 363.36,285.65 		"/>
		<polyline class="st0" points="396.6,271.71 395.37,243.85 383.19,243.85 377.84,243.85 376.47,271.71 		"/>
		<line class="st0" x1="386.04" y1="243.85" x2="386.04" y2="202.2"/>
		<line class="st0" x1="378.71" y1="215.99" x2="393.96" y2="215.99"/>
		<line class="st0" x1="373.71" y1="225.28" x2="398.96" y2="225.28"/>
		<line class="st0" x1="393.96" y1="232.25" x2="378.71" y2="232.25"/>
		<line class="st0" x1="370" y1="349" x2="361.86" y2="402.63"/>
		<line class="st0" x1="404.12" y1="348.55" x2="412" y2="402"/>
		<polygon class="st0" points="346.91,402.8 427.97,402.8 425.59,429.03 359.03,428.39 349.36,428.39 		"/>
		<line class="st0" x1="355.19" y1="469.06" x2="360" y2="429"/>
		<line class="st0" x1="420" y1="468" x2="416" y2="429"/>
		<path class="st0" d="M295.15,496.92c0,0,34.96-36.71,91.29-25.32c0,0,46.32,6.75,61.33,62.47"/>
		<path class="st0" d="M499.29,553.1c-2.5-2.32-5.68-69.42-61.13-83.69c0,0-24.39-4.95-43.67,4.32"/>
		<path class="st0" d="M419.08,448.73c0,0,53.71-15.2,81.23,44.36c0,0,17.58,27.51,26.5,60.02h-193.9"/>
		<polygon class="st1" points="332.68,455.13 334.16,553.1 316.65,553.1 264.11,476.48 264.11,553.1 254.1,553.1 254.5,457.67 
			267.63,457.45 320.17,541.03 322.69,455.13 		"/>
	</g>
	<g>
		<ellipse class="st2" cx="395.89" cy="394.55" rx="320.23" ry="317.59"/>
		<ellipse class="st3" cx="395.89" cy="394.55" rx="250.66" ry="248.6"/>
		<ellipse class="st4" cx="395.89" cy="394.55" rx="225.48" ry="223.62"/>
		<g>
			<ellipse class="st5" cx="395.89" cy="394.55" rx="237.47" ry="235.51"/>
		</g>
		<path id="SVGID_x5F_1_x5F_" class="st6" d="M657.52,395.08c0,143.21-117.06,259.3-261.46,259.3S134.6,538.29,134.6,395.08
			s117.06-259.3,261.46-259.3S657.52,251.87,657.52,395.08z"/>
		<text>		<textPath  xlink:href="#SVGID_x5F_1_x5F_" startOffset="96.289%">
<tspan  style="fill:#463C33; font-family:'CenturyGothic-Bold'; font-size:45.1995px;">ODE? SEOUL ODE? SEOUL ODE? SEOUL ODE? SEOUL ODE? SEOUL ODE? SEOUL</tspan>		</textPath>
</text>
	</g>
	<path class="st7" d="M561.18,510.09c-14.97,8.81-37.15-1.1-37.15-1.1s2.11-24.19,17.08-33c14.97-8.81,37.15,1.1,37.15,1.1
		S576.15,501.28,561.18,510.09z"/>
	<path class="st7" d="M526.83,465.07c6.11,12.36-2.05,28.85-2.05,28.85s-18.06-3.54-24.16-15.89c-6.11-12.36,2.05-28.85,2.05-28.85
		S520.72,452.71,526.83,465.07z"/>
</g>
</svg>
