<?xml version="1.0" encoding="utf-8"?>
<!-- Generator: Adobe Illustrator 27.4.0, SVG Export Plug-In . SVG Version: 6.00 Build 0)  -->
<svg version="1.1" id="레이어_1" xmlns="http://www.w3.org/2000/svg" xmlns:xlink="http://www.w3.org/1999/xlink" x="0px"
	 y="0px" viewBox="0 0 762.52 822.05" style="enable-background:new 0 0 762.52 822.05;" xml:space="preserve">
<style type="text/css">
	.st0{fill:none;stroke:#463C33;stroke-width:3.7343;stroke-miterlimit:10;}
	.st1{fill:none;stroke:#463C33;stroke-width:2.9231;stroke-miterlimit:10;}
	.st2{fill:none;stroke:#463C33;stroke-width:2.6294;stroke-miterlimit:10;}
	.st3{fill:none;stroke:#463C33;stroke-width:2.7692;stroke-linecap:round;stroke-linejoin:round;stroke-dasharray:2.9968,5.9937;}
	.st4{fill:none;}
	.st5{fill:none;stroke:#463C33;stroke-width:4;stroke-linecap:round;stroke-linejoin:round;stroke-miterlimit:10;}
	.st6{fill:#ABB868;}
</style>
<g>
	<circle class="st0" cx="395.19" cy="396.8" r="318.36"/>
	<circle class="st1" cx="395.19" cy="396.8" r="249.2"/>
	<circle class="st2" cx="395.19" cy="396.8" r="224.16"/>
	<g>
		<circle class="st3" cx="395.19" cy="396.8" r="236.09"/>
	</g>
	<path id="SVGID_x5F_1_x5F_" class="st4" d="M655.28,397.34c0,143.56-116.38,259.93-259.93,259.93S135.41,540.89,135.41,397.34
		S251.79,137.4,395.35,137.4S655.28,253.78,655.28,397.34z"/>
	<text>	<textPath  xlink:href="#SVGID_x5F_1_x5F_" startOffset="96.289%">
<tspan  style="fill:#463C33; font-family:'CenturyGothic-Bold'; font-size:45.3097px;">ODE? SEOUL ODE? SEOUL ODE? SEOUL ODE? SEOUL ODE? SEOUL ODE? SEOUL</tspan>	</textPath>
</text>
	<g>
		<g>
			<path class="st5" d="M190.19,453.38c18.04-14.83,38.29-34.68,53.77-55.33c3.94-5.26,8.7-11.08,13.75-9.17
				c4.04,1.53,6.88,7.71,10.96,8.93c5.55,1.66,10.17-6.27,13.56-13.28c11.76-24.3,24.29-47.71,37.52-70.11
				c2.12-3.6,4.94-7.51,7.99-6.31c1.44,0.56,2.59,2.19,3.67,3.77c10.94,15.88,21.88,31.76,32.82,47.64"/>
			<path class="st5" d="M317.99,425.46c39.58-37.2,66.62-98.44,95.69-154.26c4.13-7.93,8.44-15.94,14.12-21.08
				c1.47-1.33,3.09-2.48,4.79-2.37c1.89,0.12,3.58,1.76,5.12,3.47c17.81,19.92,25.89,54.03,34.87,85.1
				c2.37,8.19,5.1,16.73,10.02,21.46c0.77,0.74,1.64,1.39,2.54,1.23c3.26-0.57,2.25-8.41,3.6-13.04c1.29-4.42,5.24-5.62,8.15-3.8
				s4.99,5.77,6.93,9.59c11.81,23.2,23.17,47.35,37.85,66.21s44.39,25.88,58.7,37.81"/>
			<path class="st5" d="M275.7,476.81c-2.4-2.85-5.21-5.29-8.33-7.31c-2.39-1.54-4.6-3.73-6.5-6.44c-1.15-1.65-2.22-3.57-2.64-5.92
				c-0.58-3.32,0.28-6.91,1.65-9.62c4.95-9.8,16.64-7.55,19.89,3.83c2.49-11.12,7.6-21.45,14.8-25.2
				c7.2-3.75,14.51-0.42,17.24,10.55c4.32-8.82,7.4-13.85,14.31-16.69c6.91-2.85,19.59-1.16,23.98,7.59
				c5.83-6.69,13.73-8.8,20.67-5.53c2.69,1.27,5.41,3.59,6.52,7.59c1.11,4-3.06,11.44-5.86,11.81c7.53-2,18.5-5.55,25.12,0.35
				c1.35,1.2,2.62,2.76,3.32,4.91c1.37,4.19,0.12,9.56-2.16,12.65c-2.28,3.09-5.35,4.36-8.33,5.2c-11.39,3.21-23.35,1.41-34.12-5.15
				c-7.06,17.35-23.93,22.72-34.84,11.07c-13.57,7.48-32.69,19.35-42.53,8.74C277.2,478.48,276.43,477.68,275.7,476.81z"/>
			<path class="st5" d="M509.95,463.42c11.77,1.5,26.26,2.08,40.74,2.65c0.97,0.04,1.98,0.06,2.85-0.58
				c2.59-1.92,1.99-8.51-0.4-10.98c-2.39-2.47-5.51-2.06-8.37-1.56c1.75-2.72,3.66-6.22,3.02-9.93c-0.76-4.49-4.55-5.61-7.53-5.17
				c-5.88,0.86-11.58,4.45-16.18,10.17c-0.27-4.46,0.17-8.96-0.04-13.43c-0.21-4.47-1.21-9.2-3.61-11.72
				c-2.45-2.58-5.78-2.18-8.55-0.55c-5.08,3-9.04,9.71-11.26,17.4c0,0-14.66-8.87-21.85,5.97c-7.19,14.84,9.5,17.22,9.5,17.22
				L509.95,463.42z"/>
			<path class="st5" d="M413.34,392.38"/>
			<path class="st5" d="M414.73,368.99"/>
			<path class="st5" d="M412.65,356.28"/>
			<path class="st5" d="M416.08,450.39"/>
			<path class="st5" d="M416.07,427.85"/>
			<path class="st5" d="M400.51,445.7"/>
			<path class="st5" d="M399.65,414.02"/>
			<path class="st5" d="M396.04,391.28"/>
			<path class="st5" d="M396.03,394.63"/>
			<path class="st5" d="M391.02,382.24"/>
			<path class="st5" d="M392.98,378.1"/>
			<path class="st5" d="M403.06,353.22"/>
			<path class="st5" d="M398.76,404.46"/>
			<path class="st5" d="M403.34,385.12"/>
			<path class="st5" d="M407.96,380.21"/>
			<path class="st5" d="M407.94,374.89"/>
			<path class="st5" d="M355.52,379.47c-2.79,0.76-5.78,1.49-8.37-0.3c-2.88-1.99-4.55-6.57-6.49-10.43
				c-1.94-3.86-4.92-7.46-7.97-6.19c-3.27,1.37-4.57,7.41-4.96,12.62c-0.39,5.21-0.55,11.08-3.07,14.59
				c-0.48,0.67-1.04,1.22-1.67,1.43c-2.66,0.87-4.26-4.24-6.29-7.05c-2.86-3.96-7.43-3.36-10.75-0.39
				c-3.32,2.97-5.73,7.8-8.26,12.25c-5.81,10.21-12.77,19.08-20.87,24.36c-8.1,5.28-17.39,6.75-25.74,2.51
				c-2.57-1.31-5.07-3.15-7.76-3.54c-4.17-0.61-8.17,2.3-11.93,5.14c-8.1,6.12-18.8,10.89-26.91,17.01"/>
			<path class="st5" d="M342.83,399.21c18.63-8.94,33.03-31.53,46.14-53.9c5.63-9.6,11.41-19.59,19.07-24.84
				c1.25-0.85,2.61-1.58,3.95-1.21c1.34,0.37,2.46,1.78,3.43,3.25c4,6.02,8.15,14.68,13.61,12.93c4.58-1.47,7.47-10.11,12.14-10.15
				c4.39-0.03,7,7.3,8.92,13.42c2.86,9.13,6.29,17.84,10.23,25.95c1.87,3.84,4.68,7.97,7.62,6.45c0.91-0.47,1.68-1.44,2.58-1.94
				c3.25-1.8,6.36,2.92,8.48,7.14c5.05,10.07,10.09,20.13,15.14,30.2c1.71,3.4,3.46,6.88,5.83,9.14c2.37,2.26,5.51,3.09,7.92,0.95
				c2.73-2.42,3.71-7.63,5.05-12.05c1.33-4.42,4.07-8.95,7.11-7.68c1.18,0.49,2.13,1.78,3,3.11c2.78,4.25,5.1,9.24,8.1,13.11
				s7,6.6,10.8,5.17"/>
		</g>
		<line class="st5" x1="190.19" y1="454.6" x2="258.13" y2="454.6"/>
		<line class="st5" x1="399.65" y1="454.6" x2="476.98" y2="454.6"/>
		<line class="st5" x1="555.22" y1="455.61" x2="600.36" y2="455.61"/>
	</g>
	<path class="st6" d="M235,375.55c14.98,8.81,37.15-1.1,37.15-1.1s-2.11-24.2-17.08-33.01c-14.98-8.81-37.15,1.1-37.15,1.1
		S220.02,366.74,235,375.55z"/>
	<path class="st6" d="M269.36,330.52c-6.11,12.36,2.05,28.86,2.05,28.86s18.06-3.54,24.17-15.9c6.11-12.36-2.05-28.86-2.05-28.86
		S275.47,318.16,269.36,330.52z"/>
</g>
</svg>
