<?xml version="1.0" encoding="utf-8"?>
<!-- Generator: Adobe Illustrator 27.4.0, SVG Export Plug-In . SVG Version: 6.00 Build 0)  -->
<svg version="1.1" id="레이어_1" xmlns="http://www.w3.org/2000/svg" xmlns:xlink="http://www.w3.org/1999/xlink" x="0px"
	 y="0px" viewBox="0 0 762.52 822.05" style="enable-background:new 0 0 762.52 822.05;" xml:space="preserve">
<style type="text/css">
	.st0{fill:none;stroke:#463C33;stroke-width:3.7343;stroke-miterlimit:10;}
	.st1{fill:none;stroke:#463C33;stroke-width:2.9231;stroke-miterlimit:10;}
	.st2{fill:none;stroke:#463C33;stroke-width:2.6294;stroke-miterlimit:10;}
	.st3{fill:none;stroke:#463C33;stroke-width:2.7692;stroke-linecap:round;stroke-linejoin:round;stroke-dasharray:2.9968,5.9937;}
	.st4{fill:#463C33;}
	.st5{fill:none;stroke:#463C33;stroke-width:4;stroke-linecap:round;stroke-linejoin:round;stroke-miterlimit:10;}
	.st6{fill:#ABB868;}
</style>
<circle class="st0" cx="395.19" cy="396.8" r="318.36"/>
<circle class="st1" cx="395.19" cy="396.8" r="249.2"/>
<circle class="st2" cx="395.19" cy="396.8" r="224.16"/>
<g>
	<circle class="st3" cx="395.19" cy="396.8" r="236.09"/>
</g>
<g>
	<path class="st4" d="M363.23,105.78c4.58-0.5,8.69,0.73,12.35,3.68s5.74,6.81,6.26,11.58c0.52,4.72-0.67,8.89-3.57,12.52
		s-6.66,5.69-11.29,6.2c-4.86,0.53-9.07-0.71-12.65-3.71c-3.58-3.01-5.62-6.82-6.13-11.44c-0.34-3.09,0.1-6.02,1.31-8.78
		c1.21-2.76,3.05-5.04,5.5-6.84C357.47,107.18,360.21,106.11,363.23,105.78z M363.83,111.81c-2.99,0.33-5.4,1.64-7.21,3.95
		c-1.81,2.31-2.54,5.06-2.19,8.27c0.39,3.58,1.98,6.27,4.78,8.07c2.17,1.41,4.55,1.97,7.14,1.69c2.92-0.32,5.29-1.65,7.12-3.98
		c1.82-2.34,2.57-5.05,2.23-8.14c-0.34-3.08-1.66-5.57-3.96-7.48C369.43,112.28,366.79,111.49,363.83,111.81z"/>
	<path class="st4" d="M389.14,104.68l7.34,0.15c4.73,0.09,8.23,0.75,10.51,1.97c2.28,1.22,4.13,3.16,5.57,5.83
		c1.44,2.67,2.12,5.77,2.05,9.29c-0.05,2.51-0.51,4.8-1.39,6.89c-0.87,2.08-2.06,3.81-3.55,5.16c-1.49,1.36-3.1,2.28-4.82,2.78
		c-1.72,0.5-4.69,0.7-8.9,0.62l-7.45-0.15L389.14,104.68z M395.17,110.77l-0.41,20.53l2.88,0.06c2.83,0.06,4.89-0.23,6.18-0.85
		c1.29-0.62,2.35-1.7,3.2-3.21s1.29-3.4,1.33-5.64c0.07-3.45-0.84-6.15-2.74-8.1c-1.71-1.75-4.48-2.66-8.33-2.74L395.17,110.77z"/>
	<path class="st4" d="M423.4,106.08l17.63,2.17l-0.74,6.02l-11.53-1.42l-0.72,5.84l11.53,1.42l-0.73,5.91l-11.53-1.42l-1.04,8.5
		l11.53,1.42l-0.74,6.04l-17.63-2.17L423.4,106.08z"/>
	<path class="st4" d="M451.38,118.73l-5.66-1.23c0.57-2.78,2.02-4.87,4.35-6.26s5.07-1.74,8.22-1.06c2.03,0.44,3.68,1.19,4.94,2.25
		c1.26,1.06,2.17,2.39,2.72,3.99c0.55,1.6,0.66,3.18,0.32,4.73c-0.18,0.85-0.5,1.66-0.96,2.42c-0.45,0.76-1.07,1.51-1.85,2.25
		c-0.46,0.43-1.47,1.1-3.04,2.01c-1.5,0.87-2.46,1.5-2.88,1.9s-0.82,0.96-1.21,1.7c-0.38,0.73-0.76,1.78-1.12,3.15l-5.86-1.27
		l0.19-0.98c0.42-1.93,1.15-3.61,2.2-5.03c1.05-1.42,2.52-2.66,4.4-3.7c1.82-1.01,2.94-1.73,3.37-2.17
		c0.43-0.44,0.71-0.99,0.86-1.67c0.2-0.92-0.02-1.79-0.65-2.6c-0.63-0.81-1.6-1.35-2.89-1.64c-1.33-0.29-2.5-0.13-3.52,0.46
		C452.32,116.59,451.67,117.5,451.38,118.73z M451.86,136.43c1.05,0.23,1.87,0.78,2.46,1.67c0.58,0.88,0.77,1.83,0.54,2.86
		c-0.22,1.02-0.78,1.82-1.67,2.39c-0.89,0.57-1.86,0.74-2.9,0.51c-1.04-0.23-1.84-0.78-2.41-1.67c-0.57-0.89-0.74-1.84-0.52-2.86
		c0.22-1.02,0.77-1.82,1.65-2.38C449.89,136.38,450.84,136.21,451.86,136.43z"/>
	<path class="st4" d="M503.6,130.17l-5.71,2.21c-0.73-2.66-1.88-4.28-3.45-4.86c-0.76-0.28-1.46-0.31-2.1-0.08
		c-0.64,0.23-1.05,0.6-1.24,1.11c-0.19,0.51-0.19,1.06-0.02,1.64c0.25,0.78,1.18,2.62,2.81,5.5c1.53,2.67,2.45,4.34,2.74,5
		c0.74,1.63,1.15,3.07,1.24,4.34s-0.1,2.54-0.58,3.83c-0.92,2.5-2.55,4.25-4.89,5.25c-2.33,0.99-4.89,0.98-7.68-0.05
		c-2.17-0.8-3.87-2.04-5.09-3.7c-1.22-1.66-1.98-3.85-2.29-6.55l5.97-1.14c0.47,3.24,1.67,5.21,3.58,5.92
		c1,0.37,1.94,0.39,2.84,0.06c0.89-0.33,1.48-0.88,1.76-1.64c0.26-0.69,0.25-1.48,0-2.36c-0.26-0.88-1-2.36-2.22-4.43
		c-2.32-3.94-3.7-6.83-4.13-8.66c-0.43-1.83-0.37-3.48,0.17-4.95c0.78-2.12,2.26-3.63,4.43-4.55c2.17-0.92,4.44-0.94,6.81-0.07
		c1.52,0.56,2.84,1.45,3.96,2.67C501.66,125.87,502.68,127.71,503.6,130.17z"/>
	<path class="st4" d="M513.15,129.44l16.05,7.6l-2.59,5.48l-10.5-4.97l-2.52,5.32l10.5,4.97l-2.55,5.38l-10.5-4.97l-3.67,7.74
		l10.5,4.97l-2.6,5.5l-16.06-7.6L513.15,129.44z"/>
	<path class="st4" d="M550.42,148.35c3.91,2.44,6.38,5.95,7.43,10.53c1.05,4.58,0.3,8.91-2.23,12.97
		c-2.51,4.03-6.03,6.57-10.54,7.64s-8.75,0.36-12.71-2.11c-4.14-2.59-6.7-6.17-7.65-10.74c-0.96-4.58-0.2-8.84,2.26-12.78
		c1.65-2.64,3.8-4.67,6.46-6.09c2.66-1.42,5.51-2.08,8.55-1.98C545.03,145.88,547.84,146.74,550.42,148.35z M547.16,153.46
		c-2.56-1.59-5.26-2.05-8.11-1.35s-5.13,2.41-6.84,5.15c-1.9,3.05-2.32,6.15-1.23,9.3c0.84,2.45,2.36,4.37,4.56,5.74
		c2.49,1.55,5.18,1.98,8.06,1.27s5.14-2.38,6.79-5.02c1.64-2.63,2.14-5.4,1.51-8.33S549.69,155.03,547.16,153.46z"/>
	<path class="st4" d="M571.17,163.33l4.82,3.92l-13.27,16.33c-1.14,1.41-1.83,2.5-2.06,3.28c-0.23,0.78-0.2,1.58,0.08,2.39
		c0.28,0.81,0.83,1.54,1.63,2.19c0.85,0.69,1.73,1.09,2.66,1.2c0.93,0.11,1.75-0.04,2.48-0.45c0.72-0.41,1.77-1.46,3.15-3.15
		l12.79-15.73l4.82,3.92l-12.24,15.06c-2.07,2.54-3.64,4.19-4.73,4.94c-1.09,0.75-2.41,1.26-3.96,1.52
		c-1.55,0.26-3.03,0.18-4.44-0.23s-2.82-1.19-4.21-2.33c-1.83-1.49-3.08-3.2-3.75-5.15c-0.67-1.94-0.79-3.79-0.34-5.52
		c0.44-1.74,1.89-4.11,4.34-7.12L571.17,163.33z"/>
	<path class="st4" d="M595.18,183.67l4.43,4.33L581,207.06l6.46,6.31l-4.13,4.23l-10.89-10.63L595.18,183.67z"/>
	<path class="st4" d="M630.31,221.77c2.76,3.69,3.8,7.85,3.12,12.5c-0.68,4.65-2.94,8.41-6.78,11.28c-3.8,2.85-8,3.95-12.59,3.3
		s-8.29-2.84-11.08-6.57c-2.93-3.91-4.01-8.17-3.24-12.78c0.77-4.61,3.01-8.31,6.73-11.09c2.49-1.86,5.23-2.98,8.23-3.34
		c2.99-0.36,5.89,0.06,8.69,1.25C626.18,217.52,628.49,219.33,630.31,221.77z M625.42,225.35c-1.8-2.41-4.16-3.81-7.07-4.2
		c-2.91-0.39-5.65,0.39-8.24,2.32c-2.88,2.16-4.39,4.9-4.51,8.22c-0.11,2.59,0.62,4.92,2.17,7c1.76,2.35,4.11,3.72,7.05,4.1
		c2.94,0.38,5.65-0.36,8.15-2.22c2.48-1.86,3.95-4.26,4.42-7.21C627.86,230.4,627.21,227.73,625.42,225.35z"/>
	<path class="st4" d="M644.48,243.56l3.6,6.4c2.32,4.12,3.53,7.47,3.64,10.05c0.11,2.58-0.63,5.16-2.2,7.75
		c-1.57,2.59-3.89,4.75-6.96,6.48c-2.19,1.23-4.4,2-6.64,2.3c-2.24,0.3-4.32,0.16-6.25-0.44c-1.93-0.6-3.54-1.51-4.84-2.74
		c-1.3-1.23-2.98-3.68-5.05-7.35l-3.65-6.49L644.48,243.56z M642.29,251.85l-17.89,10.07l1.41,2.51c1.39,2.47,2.68,4.1,3.87,4.89
		s2.66,1.17,4.39,1.12s3.58-0.62,5.54-1.72c3.01-1.69,4.87-3.85,5.59-6.47c0.64-2.36,0.02-5.21-1.87-8.57L642.29,251.85z"/>
	<path class="st4" d="M660.65,273.8l7.06,16.3l-5.56,2.41l-4.62-10.66l-5.4,2.34l4.62,10.66l-5.46,2.37l-4.62-10.66l-7.86,3.4
		l4.62,10.66l-5.58,2.42l-7.06-16.3L660.65,273.8z"/>
	<path class="st4" d="M648.88,313.71c0.34,1.02,0.27,2.01-0.19,2.96c-0.46,0.95-1.19,1.59-2.19,1.92c-1,0.33-1.96,0.25-2.91-0.23
		c-0.94-0.48-1.58-1.23-1.91-2.24c-0.33-1.01-0.26-1.98,0.22-2.92c0.48-0.94,1.21-1.57,2.21-1.9c0.99-0.33,1.96-0.25,2.89,0.22
		S648.56,312.71,648.88,313.71z M663.9,304.34l-1.81-5.51c2.69-0.91,5.22-0.72,7.6,0.58c2.38,1.3,4.07,3.49,5.08,6.56
		c0.65,1.98,0.83,3.78,0.56,5.4c-0.27,1.63-0.96,3.08-2.06,4.37s-2.41,2.17-3.92,2.67c-0.83,0.27-1.68,0.4-2.57,0.4
		c-0.89,0-1.84-0.16-2.87-0.46c-0.6-0.18-1.69-0.71-3.27-1.6c-1.51-0.86-2.54-1.36-3.1-1.52s-1.25-0.22-2.07-0.18
		c-0.83,0.04-1.92,0.25-3.28,0.63l-1.87-5.7l0.94-0.33c1.88-0.62,3.7-0.83,5.46-0.65c1.76,0.18,3.57,0.83,5.42,1.93
		c1.79,1.06,2.98,1.66,3.57,1.81s1.22,0.11,1.88-0.1c0.9-0.29,1.54-0.92,1.91-1.87c0.38-0.95,0.36-2.06-0.05-3.32
		c-0.42-1.29-1.15-2.22-2.18-2.8C666.22,304.06,665.11,303.96,663.9,304.34z"/>
	<path class="st4" d="M680.47,355.14l-4.79-3.8c1.92-1.98,2.74-3.79,2.44-5.44c-0.14-0.8-0.47-1.42-0.99-1.85
		c-0.52-0.43-1.05-0.6-1.58-0.5c-0.54,0.1-1.01,0.37-1.43,0.82c-0.55,0.61-1.66,2.35-3.32,5.21c-1.53,2.68-2.5,4.31-2.92,4.89
		c-1.03,1.46-2.06,2.55-3.11,3.27c-1.05,0.72-2.25,1.2-3.6,1.44c-2.63,0.47-4.96-0.05-7-1.56c-2.04-1.51-3.32-3.73-3.84-6.65
		c-0.41-2.28-0.21-4.37,0.61-6.26c0.81-1.89,2.31-3.66,4.49-5.29l4.01,4.57c-2.56,2.05-3.65,4.08-3.29,6.08
		c0.19,1.05,0.65,1.87,1.39,2.48s1.5,0.83,2.3,0.69c0.73-0.13,1.4-0.53,2.03-1.2c0.63-0.67,1.53-2.05,2.7-4.15
		c2.22-4,4.01-6.65,5.38-7.94c1.36-1.29,2.82-2.08,4.35-2.36c2.22-0.4,4.28,0.11,6.17,1.52c1.89,1.41,3.06,3.36,3.51,5.84
		c0.29,1.6,0.19,3.19-0.29,4.77C683.2,351.3,682.13,353.1,680.47,355.14z"/>
	<path class="st4" d="M685.94,363.01l1.58,17.69l-6.04,0.54l-1.03-11.57l-5.86,0.52l1.03,11.57l-5.93,0.53l-1.03-11.57l-8.53,0.76
		l1.03,11.57l-6.06,0.54l-1.58-17.69L685.94,363.01z"/>
	<path class="st4" d="M688.56,404.65c-0.11,4.6-1.88,8.52-5.29,11.75c-3.41,3.23-7.52,4.79-12.31,4.67
		c-4.75-0.12-8.73-1.85-11.93-5.2c-3.21-3.35-4.76-7.35-4.64-12.02c0.12-4.88,1.91-8.9,5.36-12.05s7.51-4.67,12.15-4.55
		c3.11,0.08,5.95,0.9,8.53,2.47c2.57,1.57,4.59,3.69,6.05,6.36C687.94,398.76,688.63,401.61,688.56,404.65z M682.5,404.44
		c0.07-3.01-0.91-5.57-2.96-7.67s-4.68-3.19-7.91-3.27c-3.6-0.09-6.48,1.13-8.63,3.67c-1.69,1.97-2.56,4.25-2.62,6.85
		c-0.07,2.94,0.93,5.46,3,7.58c2.07,2.12,4.67,3.22,7.78,3.29c3.1,0.08,5.74-0.9,7.94-2.93
		C681.29,409.92,682.42,407.42,682.5,404.44z"/>
	<path class="st4" d="M686.21,430.16l-0.92,6.15l-20.81-3.12c-1.79-0.27-3.08-0.3-3.88-0.1c-0.79,0.2-1.46,0.63-2.01,1.29
		c-0.55,0.66-0.91,1.49-1.06,2.51c-0.16,1.08-0.05,2.05,0.33,2.9c0.38,0.85,0.93,1.49,1.65,1.9c0.72,0.41,2.16,0.78,4.32,1.11
		l20.05,3.01l-0.92,6.15l-19.19-2.88c-3.24-0.49-5.46-1-6.66-1.56c-1.2-0.55-2.31-1.43-3.32-2.63s-1.7-2.52-2.06-3.94
		s-0.41-3.03-0.14-4.81c0.35-2.33,1.19-4.28,2.52-5.85c1.33-1.57,2.86-2.6,4.58-3.11c1.72-0.5,4.5-0.46,8.34,0.11L686.21,430.16z"/>
	<path class="st4" d="M680.89,461.21l-1.48,6.02l-25.87-6.35l-2.15,8.77l-5.74-1.41l3.63-14.78L680.89,461.21z"/>
	<path class="st4" d="M665.87,510.84c-1.78,4.25-4.85,7.25-9.21,9.02s-8.74,1.72-13.16-0.14c-4.38-1.84-7.45-4.9-9.22-9.19
		c-1.77-4.29-1.75-8.58,0.06-12.88c1.89-4.5,5.02-7.59,9.38-9.27s8.69-1.61,12.97,0.19c2.87,1.2,5.22,3.01,7.04,5.4
		s2.93,5.11,3.32,8.13S667.04,508.04,665.87,510.84z M660.3,508.43c1.17-2.78,1.18-5.52,0.04-8.22c-1.14-2.7-3.19-4.68-6.17-5.93
		c-3.32-1.39-6.44-1.3-9.38,0.27c-2.29,1.22-3.93,3.02-4.94,5.42c-1.14,2.71-1.13,5.43,0.03,8.16c1.16,2.73,3.17,4.69,6.04,5.9
		c2.86,1.2,5.68,1.25,8.46,0.17C657.18,513.1,659.15,511.18,660.3,508.43z"/>
	<path class="st4" d="M654.23,534.1l-3.7,6.34c-2.38,4.08-4.66,6.83-6.83,8.22c-2.17,1.39-4.77,2.07-7.8,2.02s-6.07-0.96-9.11-2.73
		c-2.17-1.26-3.95-2.79-5.34-4.56s-2.32-3.65-2.78-5.62c-0.46-1.96-0.49-3.82-0.08-5.56c0.4-1.74,1.67-4.44,3.79-8.08l3.75-6.43
		L654.23,534.1z M645.97,536.4l-17.73-10.35l-1.45,2.48c-1.43,2.45-2.18,4.38-2.26,5.81c-0.08,1.43,0.34,2.88,1.25,4.36
		s2.34,2.78,4.28,3.91c2.98,1.74,5.79,2.26,8.41,1.55c2.36-0.64,4.5-2.62,6.44-5.95L645.97,536.4z"/>
	<path class="st4" d="M636.33,563.32l-10.49,14.34l-4.89-3.58l6.86-9.38l-4.75-3.47l-6.86,9.38l-4.8-3.51l6.86-9.38l-6.91-5.05
		l-6.86,9.38l-4.91-3.59l10.49-14.34L636.33,563.32z"/>
	<path class="st4" d="M595.97,573.38c-0.71,0.81-1.59,1.25-2.65,1.33c-1.06,0.08-1.98-0.22-2.76-0.92
		c-0.79-0.69-1.21-1.57-1.27-2.62c-0.06-1.06,0.26-1.98,0.96-2.78s1.58-1.23,2.63-1.29c1.05-0.07,1.97,0.25,2.75,0.94
		s1.21,1.56,1.28,2.6S596.66,572.6,595.97,573.38z M611.66,581.58l3.83-4.35c2.15,1.86,3.27,4.14,3.35,6.85
		c0.08,2.71-0.94,5.28-3.08,7.7c-1.38,1.56-2.83,2.63-4.37,3.22c-1.54,0.59-3.14,0.73-4.81,0.44c-1.67-0.3-3.09-0.97-4.29-2.03
		c-0.65-0.58-1.2-1.25-1.65-2.01c-0.45-0.77-0.8-1.67-1.06-2.71c-0.15-0.61-0.25-1.82-0.28-3.64c-0.03-1.73-0.11-2.88-0.26-3.44
		c-0.14-0.56-0.44-1.19-0.89-1.88s-1.19-1.53-2.21-2.51l3.96-4.5l0.76,0.64c1.48,1.31,2.59,2.77,3.33,4.38
		c0.73,1.61,1.1,3.49,1.08,5.65c0,2.08,0.08,3.41,0.25,4c0.17,0.58,0.52,1.11,1.04,1.56c0.71,0.62,1.57,0.86,2.58,0.7
		c1.01-0.16,1.96-0.73,2.84-1.73c0.9-1.02,1.33-2.12,1.31-3.3C613.08,583.44,612.59,582.42,611.66,581.58z"/>
	<path class="st4" d="M576.32,621.64l0.84-6.06c2.68,0.65,4.66,0.43,5.92-0.66c0.62-0.53,0.98-1.13,1.09-1.8
		c0.11-0.67-0.02-1.21-0.37-1.62c-0.36-0.41-0.83-0.68-1.43-0.81c-0.8-0.16-2.86-0.23-6.17-0.21c-3.08,0.04-4.98,0.03-5.7-0.03
		c-1.78-0.14-3.25-0.48-4.4-1.02c-1.15-0.54-2.18-1.32-3.07-2.36c-1.74-2.02-2.48-4.3-2.22-6.82c0.26-2.52,1.52-4.75,3.77-6.69
		c1.76-1.51,3.66-2.4,5.7-2.66c2.04-0.26,4.33,0.13,6.84,1.18l-1.9,5.78c-3.06-1.16-5.37-1.07-6.91,0.26
		c-0.81,0.69-1.28,1.51-1.43,2.45c-0.15,0.94,0.05,1.72,0.58,2.33c0.48,0.56,1.17,0.94,2.06,1.14c0.9,0.2,2.54,0.27,4.95,0.21
		c4.57-0.12,7.76,0.08,9.57,0.59c1.81,0.52,3.22,1.37,4.24,2.55c1.47,1.71,2.08,3.74,1.83,6.08c-0.25,2.35-1.33,4.34-3.25,5.99
		c-1.23,1.06-2.65,1.78-4.25,2.17C581.02,622.03,578.92,622.03,576.32,621.64z"/>
	<path class="st4" d="M572.35,630.33l-14.43,10.37l-3.54-4.92l9.43-6.78l-3.43-4.78l-9.43,6.78l-3.47-4.83l9.43-6.78l-5-6.95
		l-9.43,6.78l-3.55-4.94l14.43-10.36L572.35,630.33z"/>
	<path class="st4" d="M537.77,653.79c-4.02,2.24-8.29,2.71-12.81,1.41s-7.94-4.05-10.27-8.23c-2.31-4.15-2.84-8.46-1.58-12.92
		s3.92-7.83,8-10.1c4.27-2.38,8.64-2.88,13.1-1.5s7.83,4.1,10.09,8.16c1.51,2.72,2.25,5.58,2.2,8.6c-0.05,3.01-0.85,5.83-2.41,8.44
		C542.54,650.26,540.43,652.31,537.77,653.79z M534.88,648.46c2.63-1.46,4.33-3.61,5.11-6.44s0.38-5.65-1.2-8.48
		c-1.75-3.14-4.26-5-7.54-5.58c-2.55-0.45-4.96-0.05-7.23,1.21c-2.57,1.43-4.24,3.57-5.01,6.44c-0.77,2.86-0.4,5.65,1.11,8.37
		c1.51,2.71,3.69,4.49,6.55,5.35C529.54,650.2,532.28,649.91,534.88,648.46z"/>
	<path class="st4" d="M514.57,664.71l-5.77,2.32l-7.85-19.53c-0.68-1.68-1.3-2.81-1.88-3.39c-0.57-0.58-1.28-0.94-2.13-1.09
		c-0.85-0.14-1.75-0.02-2.71,0.36c-1.01,0.41-1.79,0.99-2.34,1.75c-0.54,0.76-0.81,1.55-0.81,2.38c0.01,0.83,0.42,2.26,1.23,4.28
		l7.56,18.81l-5.77,2.32l-7.24-18c-1.22-3.04-1.9-5.21-2.03-6.53s0.07-2.71,0.59-4.2c0.52-1.48,1.31-2.74,2.36-3.77
		c1.05-1.03,2.41-1.88,4.08-2.56c2.19-0.88,4.3-1.14,6.32-0.79c2.03,0.35,3.69,1.15,5,2.38c1.31,1.23,2.68,3.65,4.13,7.25
		L514.57,664.71z"/>
	<path class="st4" d="M485.12,675.84l-5.94,1.77l-7.62-25.52l-8.65,2.58l-1.69-5.66l14.58-4.35L485.12,675.84z"/>
	<path class="st4" d="M434.7,688.01c-4.56,0.61-8.71-0.51-12.44-3.37s-5.91-6.67-6.55-11.42c-0.63-4.71,0.45-8.91,3.25-12.6
		s6.51-5.85,11.14-6.47c4.84-0.65,9.09,0.48,12.74,3.4s5.79,6.68,6.41,11.28c0.42,3.08,0.05,6.02-1.09,8.81s-2.92,5.11-5.33,6.98
		C440.42,686.47,437.71,687.61,434.7,688.01z M433.96,682c2.99-0.4,5.36-1.78,7.11-4.13c1.75-2.35,2.42-5.12,1.99-8.33
		c-0.48-3.57-2.14-6.22-4.98-7.95c-2.21-1.36-4.6-1.86-7.17-1.51c-2.91,0.39-5.25,1.78-7.02,4.16c-1.77,2.38-2.44,5.11-2.03,8.2
		c0.41,3.07,1.79,5.53,4.14,7.38C428.35,681.67,431,682.39,433.96,682z"/>
	<path class="st4" d="M409.15,689.61l-7.34,0.12c-4.73,0.08-8.25-0.45-10.57-1.59c-2.32-1.13-4.24-3.01-5.77-5.63
		c-1.53-2.62-2.33-5.69-2.38-9.21c-0.04-2.51,0.34-4.82,1.14-6.93c0.8-2.12,1.92-3.88,3.36-5.29c1.44-1.41,3.02-2.39,4.72-2.95
		c1.7-0.56,4.66-0.87,8.87-0.94l7.45-0.12L409.15,689.61z M402.91,683.74l-0.33-20.53l-2.88,0.05c-2.83,0.05-4.88,0.4-6.14,1.07
		c-1.26,0.67-2.29,1.78-3.08,3.33c-0.79,1.55-1.16,3.44-1.12,5.69c0.06,3.46,1.07,6.12,3.03,7.99c1.77,1.68,4.58,2.5,8.43,2.43
		L402.91,683.74z"/>
	<path class="st4" d="M374.55,689.2l-17.68-1.73l0.59-6.03l11.56,1.13l0.57-5.86l-11.56-1.13l0.58-5.92l11.56,1.13l0.83-8.52
		l-11.56-1.13l0.59-6.06l17.68,1.73L374.55,689.2z"/>
	<path class="st4" d="M346.27,677.24l5.69,1.09c-0.5,2.79-1.9,4.92-4.19,6.37c-2.29,1.45-5.02,1.87-8.19,1.26
		c-2.04-0.39-3.71-1.1-5-2.13s-2.23-2.33-2.82-3.92c-0.59-1.58-0.74-3.16-0.44-4.72c0.16-0.86,0.46-1.67,0.9-2.44
		c0.43-0.77,1.03-1.54,1.79-2.29c0.44-0.44,1.44-1.14,2.99-2.09c1.48-0.9,2.42-1.56,2.83-1.97c0.41-0.41,0.8-0.98,1.16-1.73
		c0.37-0.74,0.71-1.8,1.04-3.18l5.89,1.13l-0.17,0.98c-0.37,1.94-1.06,3.64-2.08,5.09s-2.45,2.72-4.31,3.8
		c-1.79,1.05-2.9,1.8-3.31,2.25s-0.69,1.01-0.82,1.69c-0.18,0.93,0.06,1.79,0.71,2.58c0.65,0.79,1.63,1.31,2.93,1.56
		c1.33,0.25,2.5,0.07,3.51-0.55C345.39,679.41,346.02,678.48,346.27,677.24z M345.35,659.56c-1.06-0.2-1.89-0.74-2.5-1.6
		c-0.61-0.87-0.81-1.82-0.62-2.84s0.73-1.84,1.61-2.43c0.88-0.59,1.84-0.79,2.88-0.59c1.04,0.2,1.86,0.74,2.45,1.61
		c0.59,0.87,0.79,1.82,0.59,2.85s-0.73,1.84-1.59,2.42C347.33,659.57,346.38,659.76,345.35,659.56z"/>
	<path class="st4" d="M293.78,667.12l5.65-2.35c0.8,2.64,1.99,4.23,3.57,4.77c0.77,0.26,1.47,0.27,2.1,0.03s1.03-0.63,1.21-1.14
		c0.18-0.52,0.17-1.07-0.02-1.64c-0.27-0.78-1.25-2.58-2.95-5.42c-1.6-2.63-2.55-4.28-2.86-4.93c-0.78-1.61-1.23-3.04-1.35-4.31
		c-0.12-1.26,0.04-2.55,0.48-3.84c0.86-2.53,2.45-4.32,4.76-5.37c2.31-1.05,4.87-1.1,7.68-0.14c2.19,0.75,3.92,1.94,5.18,3.57
		s2.08,3.79,2.45,6.49l-5.94,1.29c-0.55-3.23-1.79-5.17-3.72-5.83c-1.01-0.34-1.95-0.34-2.84,0.01s-1.46,0.91-1.72,1.68
		c-0.24,0.7-0.22,1.48,0.06,2.36c0.28,0.88,1.06,2.33,2.33,4.37c2.42,3.88,3.87,6.73,4.34,8.55c0.47,1.82,0.46,3.47-0.05,4.95
		c-0.73,2.14-2.17,3.69-4.32,4.66c-2.15,0.97-4.42,1.05-6.81,0.24c-1.54-0.52-2.88-1.38-4.03-2.57
		C295.82,671.37,294.76,669.56,293.78,667.12z"/>
	<path class="st4" d="M284.27,668.1l-16.24-7.2l2.46-5.54l10.62,4.71l2.38-5.38l-10.62-4.71l2.41-5.44l10.62,4.71l3.47-7.83
		l-10.62-4.71l2.47-5.56l16.24,7.2L284.27,668.1z"/>
	<path class="st4" d="M246.54,650.13c-3.97-2.34-6.53-5.79-7.69-10.34c-1.16-4.55-0.52-8.9,1.91-13.03
		c2.41-4.09,5.86-6.72,10.35-7.9c4.49-1.17,8.74-0.58,12.76,1.79c4.21,2.48,6.85,6,7.92,10.55c1.07,4.55,0.42,8.83-1.94,12.83
		c-1.58,2.68-3.68,4.76-6.3,6.25c-2.62,1.48-5.46,2.21-8.5,2.19C251.99,652.45,249.16,651.67,246.54,650.13z M249.67,644.94
		c2.59,1.53,5.31,1.91,8.14,1.15c2.83-0.76,5.07-2.53,6.71-5.32c1.83-3.1,2.16-6.21,1-9.32c-0.9-2.43-2.47-4.31-4.7-5.62
		c-2.53-1.49-5.23-1.85-8.09-1.07s-5.08,2.51-6.66,5.19c-1.57,2.67-2.01,5.46-1.3,8.36C245.47,641.21,247.1,643.42,249.67,644.94z"
		/>
	<path class="st4" d="M225.4,635.65l-4.92-3.8l12.87-16.65c1.11-1.43,1.77-2.55,1.98-3.33c0.21-0.79,0.16-1.58-0.14-2.39
		c-0.3-0.8-0.86-1.52-1.68-2.15c-0.86-0.67-1.76-1.04-2.69-1.13s-1.75,0.08-2.46,0.51c-0.71,0.43-1.74,1.5-3.07,3.23l-12.39,16.04
		l-4.92-3.8l11.86-15.35c2-2.59,3.54-4.28,4.6-5.05s2.37-1.32,3.92-1.61c1.54-0.3,3.03-0.26,4.45,0.12
		c1.42,0.38,2.84,1.12,4.27,2.22c1.87,1.44,3.16,3.13,3.88,5.05c0.72,1.93,0.88,3.76,0.48,5.51c-0.4,1.75-1.79,4.16-4.16,7.23
		L225.4,635.65z"/>
	<path class="st4" d="M200.9,615.91l-4.54-4.22l18.13-19.52l-6.61-6.14l4.02-4.33l11.15,10.36L200.9,615.91z"/>
	<path class="st4" d="M164.83,578.69c-2.85-3.62-3.99-7.76-3.42-12.42c0.57-4.67,2.73-8.48,6.5-11.45c3.73-2.94,7.9-4.14,12.51-3.61
		c4.61,0.53,8.35,2.63,11.24,6.29c3.02,3.84,4.21,8.07,3.56,12.7s-2.8,8.38-6.45,11.26c-2.44,1.93-5.16,3.11-8.14,3.54
		c-2.98,0.43-5.89,0.09-8.72-1.04C169.06,582.83,166.71,581.08,164.83,578.69z M169.63,574.99c1.86,2.37,4.25,3.71,7.17,4.02
		c2.92,0.32,5.64-0.53,8.18-2.53c2.83-2.23,4.26-5,4.31-8.33c0.04-2.59-0.74-4.91-2.35-6.95c-1.82-2.31-4.2-3.62-7.15-3.92
		c-2.95-0.31-5.64,0.5-8.09,2.42c-2.43,1.92-3.85,4.36-4.25,7.32C167.06,570,167.78,572.65,169.63,574.99z"/>
	<path class="st4" d="M150.13,557.26l-3.76-6.3c-2.42-4.06-3.72-7.38-3.89-9.96c-0.17-2.58,0.5-5.18,2-7.81
		c1.51-2.63,3.77-4.85,6.8-6.65c2.15-1.28,4.35-2.11,6.58-2.47c2.23-0.36,4.32-0.27,6.26,0.28c1.94,0.55,3.58,1.42,4.91,2.62
		c1.33,1.2,3.08,3.61,5.23,7.23l3.81,6.4L150.13,557.26z M152.11,548.92l17.64-10.51l-1.47-2.47c-1.45-2.43-2.78-4.03-3.99-4.79
		c-1.21-0.76-2.68-1.1-4.42-1.01c-1.73,0.09-3.57,0.71-5.49,1.86c-2.97,1.77-4.78,3.97-5.42,6.6c-0.58,2.37,0.11,5.21,2.08,8.52
		L152.11,548.92z"/>
	<path class="st4" d="M133.22,527.46l-7.47-16.12l5.5-2.55l4.88,10.54l5.34-2.47l-4.88-10.54l5.4-2.5l4.88,10.54l7.77-3.6
		l-4.88-10.54l5.52-2.56l7.47,16.12L133.22,527.46z"/>
	<path class="st4" d="M129.2,497.02l1.94,5.46c-2.67,0.98-5.2,0.85-7.61-0.39c-2.41-1.24-4.16-3.38-5.24-6.42
		c-0.7-1.96-0.93-3.75-0.7-5.39s0.88-3.11,1.95-4.42c1.07-1.31,2.35-2.23,3.85-2.77c0.82-0.29,1.67-0.45,2.56-0.46
		c0.89-0.02,1.85,0.11,2.88,0.38c0.6,0.16,1.71,0.67,3.31,1.52c1.53,0.82,2.57,1.3,3.13,1.44c0.56,0.15,1.25,0.19,2.08,0.13
		s1.91-0.3,3.27-0.72l2.01,5.65l-0.93,0.35c-1.86,0.66-3.67,0.92-5.44,0.79c-1.76-0.14-3.58-0.74-5.46-1.79
		c-1.82-1.01-3.02-1.59-3.62-1.72c-0.59-0.13-1.22-0.08-1.87,0.15c-0.89,0.32-1.51,0.96-1.86,1.92c-0.35,0.96-0.31,2.07,0.14,3.32
		c0.46,1.28,1.21,2.19,2.25,2.75C126.89,497.36,128.01,497.43,129.2,497.02z M143.98,487.28c-0.36-1.01-0.32-2,0.12-2.97
		c0.44-0.96,1.15-1.62,2.14-1.97c0.99-0.35,1.96-0.3,2.91,0.16s1.61,1.19,1.96,2.19c0.36,1,0.31,1.98-0.14,2.93s-1.17,1.6-2.16,1.95
		c-0.99,0.35-1.95,0.3-2.89-0.14C144.98,488.98,144.33,488.26,143.98,487.28z"/>
	<path class="st4" d="M111.35,446.61l4.89,3.68c-1.87,2.03-2.64,3.86-2.31,5.5c0.16,0.8,0.51,1.4,1.04,1.82
		c0.53,0.42,1.06,0.57,1.6,0.46c0.53-0.11,1-0.39,1.41-0.85c0.54-0.62,1.6-2.39,3.18-5.29c1.46-2.71,2.4-4.37,2.8-4.96
		c0.99-1.49,2-2.6,3.03-3.35c1.03-0.75,2.22-1.26,3.56-1.53c2.62-0.54,4.96-0.07,7.04,1.38c2.08,1.46,3.41,3.64,4.01,6.55
		c0.47,2.27,0.31,4.36-0.45,6.28s-2.22,3.71-4.36,5.4l-4.12-4.47c2.5-2.11,3.55-4.17,3.14-6.16c-0.21-1.04-0.7-1.86-1.45-2.44
		c-0.75-0.58-1.53-0.8-2.32-0.63c-0.72,0.15-1.39,0.56-2,1.25c-0.61,0.68-1.48,2.09-2.59,4.22c-2.12,4.05-3.85,6.75-5.18,8.07
		c-1.33,1.33-2.76,2.15-4.29,2.46c-2.21,0.45-4.28,0-6.21-1.36s-3.15-3.28-3.65-5.75c-0.33-1.59-0.27-3.18,0.17-4.77
		C108.72,450.52,109.75,448.69,111.35,446.61z"/>
	<path class="st4" d="M105.69,438.9l-2.02-17.65l6.02-0.69l1.32,11.54l5.85-0.67l-1.32-11.54l5.91-0.68l1.32,11.54l8.51-0.97
		l-1.32-11.54l6.04-0.69l2.02,17.65L105.69,438.9z"/>
	<path class="st4" d="M102.05,397.95c-0.07-4.6,1.53-8.59,4.81-11.96c3.28-3.37,7.32-5.09,12.11-5.17
		c4.75-0.08,8.79,1.49,12.14,4.71c3.34,3.22,5.05,7.15,5.13,11.82c0.08,4.88-1.54,8.97-4.87,12.26c-3.32,3.29-7.31,4.97-11.96,5.04
		c-3.11,0.05-5.98-0.66-8.62-2.12s-4.74-3.5-6.31-6.11S102.1,400.99,102.05,397.95z M108.12,397.92c0.05,3.01,1.14,5.53,3.26,7.54
		c2.13,2.02,4.81,3,8.04,2.95c3.6-0.06,6.42-1.4,8.48-4.01c1.6-2.03,2.39-4.35,2.34-6.95c-0.05-2.94-1.15-5.42-3.31-7.46
		s-4.79-3.02-7.9-2.97c-3.1,0.05-5.7,1.13-7.81,3.25C109.1,392.39,108.07,394.94,108.12,397.92z"/>
	<path class="st4" d="M103.76,371.79l0.77-6.17l20.88,2.6c1.8,0.22,3.09,0.23,3.88,0c0.79-0.22,1.45-0.67,1.98-1.34
		c0.54-0.67,0.87-1.52,1-2.54c0.14-1.08,0-2.05-0.4-2.89c-0.4-0.84-0.96-1.46-1.7-1.86c-0.73-0.4-2.18-0.73-4.34-1l-20.12-2.5
		l0.77-6.17l19.25,2.4c3.25,0.4,5.48,0.87,6.69,1.39c1.21,0.52,2.34,1.37,3.38,2.55c1.04,1.18,1.76,2.48,2.16,3.89
		c0.4,1.42,0.48,3.02,0.26,4.8c-0.29,2.34-1.08,4.31-2.38,5.91c-1.29,1.6-2.79,2.67-4.5,3.22c-1.71,0.55-4.49,0.58-8.34,0.1
		L103.76,371.79z"/>
	<path class="st4" d="M108.3,340.63l1.32-6.05l26.02,5.7l1.93-8.82l5.77,1.26l-3.26,14.87L108.3,340.63z"/>
	<path class="st4" d="M122.08,290.62c1.67-4.29,4.67-7.37,8.98-9.24c4.31-1.87,8.7-1.94,13.16-0.19c4.42,1.73,7.57,4.71,9.45,8.95
		c1.87,4.24,1.96,8.53,0.27,12.88c-1.78,4.55-4.83,7.72-9.15,9.5s-8.65,1.83-12.97,0.14c-2.9-1.13-5.29-2.87-7.17-5.23
		c-1.88-2.35-3.06-5.03-3.52-8.04C120.65,296.37,120.97,293.45,122.08,290.62z M127.7,292.89c-1.1,2.81-1.04,5.55,0.16,8.22
		c1.2,2.67,3.31,4.6,6.32,5.77c3.35,1.31,6.47,1.14,9.36-0.5c2.26-1.27,3.86-3.12,4.8-5.54c1.07-2.74,0.99-5.45-0.24-8.15
		c-1.23-2.7-3.29-4.61-6.19-5.75c-2.88-1.13-5.71-1.11-8.46,0.05C130.71,288.14,128.79,290.11,127.7,292.89z"/>
	<path class="st4" d="M133.14,267.07l3.54-6.43c2.28-4.14,4.49-6.94,6.63-8.39c2.14-1.45,4.72-2.19,7.75-2.22
		c3.03-0.03,6.09,0.8,9.18,2.5c2.2,1.21,4.01,2.69,5.45,4.43c1.44,1.74,2.41,3.59,2.92,5.54c0.51,1.95,0.58,3.81,0.22,5.56
		c-0.36,1.75-1.56,4.48-3.59,8.17l-3.59,6.53L133.14,267.07z M141.34,264.56l17.98,9.9l1.39-2.52c1.37-2.48,2.07-4.44,2.12-5.87
		c0.05-1.43-0.41-2.87-1.36-4.32c-0.95-1.45-2.41-2.72-4.38-3.8c-3.03-1.67-5.84-2.11-8.44-1.34c-2.34,0.7-4.44,2.73-6.29,6.11
		L141.34,264.56z"/>
	<path class="st4" d="M150.31,237.4l10.13-14.6l4.98,3.46l-6.62,9.54l4.83,3.35l6.62-9.54l4.89,3.39l-6.62,9.54l7.03,4.88l6.62-9.54
		l5,3.47l-10.13,14.6L150.31,237.4z"/>
	<path class="st4" d="M174.51,218.54l-3.72,4.44c-2.2-1.8-3.37-4.06-3.52-6.76c-0.15-2.71,0.81-5.3,2.88-7.77
		c1.34-1.59,2.77-2.7,4.29-3.33c1.53-0.63,3.12-0.81,4.8-0.56c1.67,0.26,3.12,0.9,4.34,1.92c0.67,0.56,1.23,1.22,1.7,1.97
		c0.46,0.75,0.84,1.65,1.13,2.68c0.17,0.6,0.29,1.81,0.37,3.63c0.07,1.73,0.18,2.88,0.34,3.43c0.16,0.56,0.47,1.18,0.94,1.86
		s1.23,1.5,2.27,2.45l-3.85,4.6l-0.78-0.62c-1.51-1.27-2.66-2.7-3.43-4.29c-0.77-1.59-1.18-3.46-1.23-5.62
		c-0.05-2.08-0.16-3.41-0.35-3.99c-0.19-0.58-0.55-1.09-1.08-1.54c-0.72-0.61-1.59-0.82-2.6-0.63c-1.01,0.18-1.94,0.78-2.79,1.8
		c-0.87,1.04-1.28,2.15-1.23,3.33C173.05,216.72,173.55,217.72,174.51,218.54z M190.4,226.35c0.69-0.82,1.56-1.29,2.62-1.4
		c1.05-0.11,1.98,0.17,2.78,0.85c0.8,0.67,1.25,1.54,1.34,2.59c0.09,1.06-0.21,1.99-0.89,2.8c-0.68,0.81-1.55,1.27-2.6,1.36
		c-1.05,0.09-1.98-0.2-2.78-0.87c-0.8-0.67-1.25-1.53-1.34-2.57C189.44,228.07,189.73,227.15,190.4,226.35z"/>
	<path class="st4" d="M208.87,177.6l-0.69,6.08c-2.7-0.58-4.67-0.31-5.91,0.81c-0.6,0.55-0.95,1.15-1.04,1.82
		c-0.09,0.67,0.05,1.21,0.41,1.61c0.37,0.4,0.85,0.66,1.45,0.78c0.81,0.14,2.87,0.16,6.17,0.05c3.08-0.12,4.98-0.16,5.7-0.11
		c1.78,0.1,3.26,0.4,4.42,0.91c1.17,0.51,2.21,1.27,3.13,2.29c1.79,1.98,2.59,4.23,2.38,6.76c-0.2,2.53-1.4,4.79-3.6,6.78
		c-1.72,1.56-3.6,2.49-5.64,2.8c-2.04,0.31-4.33-0.02-6.87-1.01l1.75-5.82c3.09,1.08,5.39,0.94,6.9-0.43
		c0.79-0.71,1.24-1.54,1.37-2.49c0.12-0.94-0.09-1.72-0.63-2.32c-0.49-0.55-1.19-0.91-2.09-1.09c-0.9-0.18-2.55-0.21-4.95-0.09
		c-4.57,0.23-7.76,0.12-9.58-0.35s-3.26-1.29-4.3-2.45c-1.51-1.67-2.17-3.69-1.98-6.04c0.19-2.35,1.23-4.37,3.1-6.07
		c1.2-1.09,2.6-1.85,4.2-2.28C204.16,177.32,206.26,177.27,208.87,177.6z"/>
	<path class="st4" d="M212.61,168.82l14.17-10.72l3.66,4.83l-9.26,7.01l3.55,4.69l9.26-7.01l3.59,4.75l-9.26,7.01l5.17,6.83
		l9.26-7.01l3.67,4.85l-14.17,10.72L212.61,168.82z"/>
	<path class="st4" d="M246.58,144.52c3.97-2.34,8.22-2.92,12.77-1.73c4.55,1.19,8.04,3.85,10.47,7.98c2.41,4.09,3.05,8.38,1.9,12.88
		c-1.15,4.49-3.73,7.93-7.74,10.29c-4.21,2.48-8.56,3.09-13.06,1.82c-4.5-1.27-7.93-3.9-10.29-7.9c-1.58-2.68-2.39-5.53-2.42-8.54
		c-0.03-3.01,0.7-5.85,2.2-8.5C241.91,148.16,243.96,146.06,246.58,144.52z M249.61,149.77c-2.59,1.53-4.24,3.72-4.95,6.57
		s-0.23,5.66,1.41,8.44c1.83,3.1,4.39,4.9,7.68,5.39c2.56,0.39,4.96-0.07,7.2-1.4c2.53-1.49,4.15-3.68,4.85-6.56
		c0.7-2.88,0.26-5.66-1.32-8.34c-1.57-2.67-3.8-4.4-6.69-5.19C254.9,147.9,252.17,148.26,249.61,149.77z"/>
	<path class="st4" d="M269.49,133.02l5.71-2.46l8.33,19.32c0.72,1.66,1.37,2.78,1.96,3.34s1.31,0.91,2.16,1.03
		c0.85,0.12,1.75-0.02,2.69-0.43c1-0.43,1.77-1.03,2.29-1.81c0.53-0.77,0.77-1.57,0.75-2.4s-0.48-2.25-1.34-4.25l-8.03-18.61
		l5.71-2.46l7.68,17.82c1.3,3.01,2.03,5.17,2.19,6.48c0.16,1.31,0,2.71-0.49,4.21c-0.49,1.5-1.24,2.77-2.26,3.83
		c-1.02,1.06-2.36,1.94-4.01,2.66c-2.17,0.93-4.27,1.25-6.3,0.95s-3.72-1.05-5.06-2.25c-1.34-1.2-2.77-3.58-4.31-7.14L269.49,133.02
		z"/>
	<path class="st4" d="M298.67,121.15l5.89-1.92l8.26,25.33l8.58-2.8l1.83,5.62l-14.47,4.72L298.67,121.15z"/>
</g>
<g>
	<g>
		<path class="st5" d="M190.19,453.38c18.04-14.83,38.29-34.68,53.77-55.33c3.94-5.26,8.7-11.08,13.75-9.17
			c4.04,1.53,6.88,7.71,10.96,8.93c5.55,1.66,10.17-6.27,13.56-13.28c11.76-24.3,24.29-47.71,37.52-70.11
			c2.12-3.6,4.94-7.51,7.99-6.31c1.44,0.56,2.59,2.19,3.67,3.77c10.94,15.88,21.88,31.76,32.82,47.64"/>
		<path class="st5" d="M317.99,425.46c39.58-37.2,66.62-98.44,95.69-154.26c4.13-7.93,8.44-15.94,14.12-21.08
			c1.47-1.33,3.09-2.48,4.79-2.37c1.89,0.12,3.58,1.76,5.12,3.47c17.81,19.92,25.89,54.03,34.87,85.1
			c2.37,8.19,5.1,16.73,10.02,21.46c0.77,0.74,1.64,1.39,2.54,1.23c3.26-0.57,2.25-8.41,3.6-13.04c1.29-4.42,5.24-5.62,8.15-3.8
			s4.99,5.77,6.93,9.59c11.81,23.2,23.17,47.35,37.85,66.21s44.39,25.88,58.7,37.81"/>
		<path class="st5" d="M275.7,476.81c-2.4-2.85-5.21-5.29-8.33-7.31c-2.39-1.54-4.6-3.73-6.5-6.44c-1.15-1.65-2.22-3.57-2.64-5.92
			c-0.58-3.32,0.28-6.91,1.65-9.62c4.95-9.8,16.64-7.55,19.89,3.83c2.49-11.12,7.6-21.45,14.8-25.2c7.2-3.75,14.51-0.42,17.24,10.55
			c4.32-8.82,7.4-13.85,14.31-16.69c6.91-2.85,19.59-1.16,23.98,7.59c5.83-6.69,13.73-8.8,20.67-5.53c2.69,1.27,5.41,3.59,6.52,7.59
			c1.11,4-3.06,11.44-5.86,11.81c7.53-2,18.5-5.55,25.12,0.35c1.35,1.2,2.62,2.76,3.32,4.91c1.37,4.19,0.12,9.56-2.16,12.65
			c-2.28,3.09-5.35,4.36-8.33,5.2c-11.39,3.21-23.35,1.41-34.12-5.15c-7.06,17.35-23.93,22.72-34.84,11.07
			c-13.57,7.48-32.69,19.35-42.53,8.74C277.2,478.48,276.43,477.68,275.7,476.81z"/>
		<path class="st5" d="M509.95,463.42c11.77,1.5,26.26,2.08,40.74,2.65c0.97,0.04,1.98,0.06,2.85-0.58
			c2.59-1.92,1.99-8.51-0.4-10.98c-2.39-2.47-5.51-2.06-8.37-1.56c1.75-2.72,3.66-6.22,3.02-9.93c-0.76-4.49-4.55-5.61-7.53-5.17
			c-5.88,0.86-11.58,4.45-16.18,10.17c-0.27-4.46,0.17-8.96-0.04-13.43c-0.21-4.47-1.21-9.2-3.61-11.72
			c-2.45-2.58-5.78-2.18-8.55-0.55c-5.08,3-9.04,9.71-11.26,17.4c0,0-14.66-8.87-21.85,5.97c-7.19,14.84,9.5,17.22,9.5,17.22
			L509.95,463.42z"/>
		<path class="st5" d="M413.34,392.38"/>
		<path class="st5" d="M414.73,368.99"/>
		<path class="st5" d="M412.65,356.28"/>
		<path class="st5" d="M416.08,450.39"/>
		<path class="st5" d="M416.07,427.85"/>
		<path class="st5" d="M400.51,445.7"/>
		<path class="st5" d="M399.65,414.02"/>
		<path class="st5" d="M396.04,391.28"/>
		<path class="st5" d="M396.03,394.63"/>
		<path class="st5" d="M391.02,382.24"/>
		<path class="st5" d="M392.98,378.1"/>
		<path class="st5" d="M403.06,353.22"/>
		<path class="st5" d="M398.76,404.46"/>
		<path class="st5" d="M403.34,385.12"/>
		<path class="st5" d="M407.96,380.21"/>
		<path class="st5" d="M407.94,374.89"/>
		<path class="st5" d="M355.52,379.47c-2.79,0.76-5.78,1.49-8.37-0.3c-2.88-1.99-4.55-6.57-6.49-10.43
			c-1.94-3.86-4.92-7.46-7.97-6.19c-3.27,1.37-4.57,7.41-4.96,12.62c-0.39,5.21-0.55,11.08-3.07,14.59
			c-0.48,0.67-1.04,1.22-1.67,1.43c-2.66,0.87-4.26-4.24-6.29-7.05c-2.86-3.96-7.43-3.36-10.75-0.39c-3.32,2.97-5.73,7.8-8.26,12.25
			c-5.81,10.21-12.77,19.08-20.87,24.36c-8.1,5.28-17.39,6.75-25.74,2.51c-2.57-1.31-5.07-3.15-7.76-3.54
			c-4.17-0.61-8.17,2.3-11.93,5.14c-8.1,6.12-18.8,10.89-26.91,17.01"/>
		<path class="st5" d="M342.83,399.21c18.63-8.94,33.03-31.53,46.14-53.9c5.63-9.6,11.41-19.59,19.07-24.84
			c1.25-0.85,2.61-1.58,3.95-1.21c1.34,0.37,2.46,1.78,3.43,3.25c4,6.02,8.15,14.68,13.61,12.93c4.58-1.47,7.47-10.11,12.14-10.15
			c4.39-0.03,7,7.3,8.92,13.42c2.86,9.13,6.29,17.84,10.23,25.95c1.87,3.84,4.68,7.97,7.62,6.45c0.91-0.47,1.68-1.44,2.58-1.94
			c3.25-1.8,6.36,2.92,8.48,7.14c5.05,10.07,10.09,20.13,15.14,30.2c1.71,3.4,3.46,6.88,5.83,9.14c2.37,2.26,5.51,3.09,7.92,0.95
			c2.73-2.42,3.71-7.63,5.05-12.05c1.33-4.42,4.07-8.95,7.11-7.68c1.18,0.49,2.13,1.78,3,3.11c2.78,4.25,5.1,9.24,8.1,13.11
			s7,6.6,10.8,5.17"/>
	</g>
	<line class="st5" x1="190.19" y1="454.6" x2="258.13" y2="454.6"/>
	<line class="st5" x1="399.65" y1="454.6" x2="476.98" y2="454.6"/>
	<line class="st5" x1="555.22" y1="455.61" x2="600.36" y2="455.61"/>
</g>
<path class="st6" d="M235,375.55c14.98,8.81,37.15-1.1,37.15-1.1s-2.11-24.2-17.08-33.01c-14.98-8.81-37.15,1.1-37.15,1.1
	S220.02,366.74,235,375.55z"/>
<path class="st6" d="M269.36,330.52c-6.11,12.36,2.05,28.86,2.05,28.86s18.06-3.54,24.17-15.9c6.11-12.36-2.05-28.86-2.05-28.86
	S275.47,318.16,269.36,330.52z"/>
</svg>
