<?xml version="1.0" encoding="utf-8"?>
<!-- Generator: Adobe Illustrator 27.4.0, SVG Export Plug-In . SVG Version: 6.00 Build 0)  -->
<svg version="1.1" id="레이어_1" xmlns="http://www.w3.org/2000/svg" xmlns:xlink="http://www.w3.org/1999/xlink" x="0px"
	 y="0px" viewBox="0 0 762.52 822.05" style="enable-background:new 0 0 762.52 822.05;" xml:space="preserve">
<style type="text/css">
	.st0{fill:none;stroke:#463C33;stroke-width:3;stroke-miterlimit:10;}
	.st1{fill:none;stroke:#463C33;stroke-width:3;stroke-linecap:round;stroke-linejoin:round;stroke-dasharray:3.0033,6.0066;}
	.st2{fill:none;stroke:#463C33;stroke-width:4;stroke-miterlimit:10;}
	.st3{fill:none;stroke:#463C33;stroke-width:4;stroke-linecap:round;stroke-linejoin:round;stroke-miterlimit:10;}
	.st4{fill:#463C33;stroke:#463C33;stroke-width:4;stroke-miterlimit:10;}
	.st5{fill:none;}
	.st6{fill:#ABB868;}
</style>
<g>
	<g>
		<circle class="st0" cx="381.26" cy="411.02" r="319.05"/>
		<circle class="st0" cx="381.26" cy="411.02" r="249.74"/>
		<circle class="st0" cx="381.26" cy="411.02" r="224.65"/>
		<g>
			<circle class="st1" cx="381.26" cy="411.02" r="236.6"/>
		</g>
	</g>
	<g>
		<path class="st2" d="M329.01,324.1l93.67,2.97c0,0,10.41-50.46-41.63-53.43C381.05,273.63,332.48,261.76,329.01,324.1z"/>
		<path class="st2" d="M347.19,281.34c-0.28-1.53-6.16-34.3,28.59-36.66c0,0,35.03-0.58,28.19,36.02"/>
		<line class="st2" x1="376.79" y1="272.94" x2="375.78" y2="244.68"/>
		<path class="st2" d="M361.87,247.98c0,0-10.8-37.74,13.91-38.88c0,0,27.94-2.33,12.93,38.88"/>
		<path class="st2" d="M326.81,324.89"/>
		<path class="st3" d="M335.44,354.72c0,0,13.9-8.82,41.78-10.17c0,0,20-1.35,39.69,11.15"/>
		<path class="st2" d="M359.52,336.57"/>
		<path class="st3" d="M349.34,383.6c-7.94,1.97-15.57,5.83-19.21,13.01c-2.22-6.67-4.58-13.53-10.01-18.6c0,0-20.09,0-23.44,12.5
			c0,0-6.7,49.99,40.19,62.48c0,0-43.54,6.25-43.54,81.23c0,0,3.35,15.62,77.03,15.62c0,0,67.49,0,73.39-11.75
			c0.12-0.24,0.22-0.49,0.29-0.75c3.35-12.5,0-58.86,0-58.86s-6.7-16.12-23.44-9.88"/>
		<path class="st3" d="M405.55,380.08c0,0,38.49,6.85,38.49,42.82"/>
		<path class="st3" d="M365.67,452.21l-12.07-24.22c0,0,21.85-15.62,44.42,0h15.87c0,0,26.79-15.62,43.54,3.12l-6.7,18.75"/>
		<path class="st3" d="M420.59,454c0,0-6.87,0-6.87,3.12h-15.33c0.56,0.67-18.28-10-32.72-4.91"/>
		<line class="st3" x1="398.02" y1="427.99" x2="399.94" y2="457.12"/>
		<path class="st3" d="M413.89,427.99c0,3.12,0,28.12,0,28.12"/>
		<path class="st2" d="M452.97,450.06c1.11-0.2-29.03-10-32.38,4.27c0,0-6.7,8.02,20.09,8.02"/>
		<line class="st3" x1="303.34" y1="441.22" x2="303.74" y2="481.51"/>
		<polyline class="st3" points="311.4,438.58 271.55,438.58 271.55,571.04 497.62,574.83 497.62,438.58 464.32,438.58 
			457.94,437.49 		"/>
		<line class="st3" x1="460.78" y1="542.95" x2="460.78" y2="438.67"/>
		<path class="st3" d="M432.31,544c3.25-0.41,28.34,0,28.34,0"/>
		<path class="st2" d="M457.43,446.6c0,0-25.27,20.9-21.01,23.02c0,0,17.66,8.37,24.35-5.69"/>
		<path class="st2" d="M537.81,477.98"/>
		<path class="st2" d="M316.93,545.64c0,0-3.52,23.37,13.23,21.59c0,0,17.55,3.46,18.82-17.9"/>
		<path class="st2" d="M379.43,549.69c0,0-8.51,19.73,16.33,17.74c0,0,18.14,3.39,14.79-19.6"/>
		<path class="st2" d="M297.13,385.94c0,0-15.82-17.18-10.54-29.46c5.27-12.27,21.09-7.36,21.09-7.36s13.18,4.91,10.54,27"/>
		<ellipse class="st4" cx="361.06" cy="335" rx="3.3" ry="3.07"/>
		<ellipse class="st4" cx="392.69" cy="335" rx="3.3" ry="3.07"/>
		<path class="st3" d="M365.67,358.33c0,0,11.86,7.99,22.41,0"/>
		<path class="st3" d="M351.89,380.23c-29.6-15.52-22.39-55.34-22.39-55.34"/>
		<path class="st3" d="M421.87,325.96c0,0,5.65,39.64-17.51,55.09"/>
		<path class="st3" d="M351.89,381.71"/>
		<path class="st3" d="M352.83,381.04c0,0,10.21,9.8,18.12,12.26c7.91,2.45,13.18,0,13.18,0s10.01-3.54,19.5-11.59"/>
		<path class="st3" d="M353.61,384.58c0,0,12.29,21.01,17.45,27.14c1.04,1.23,1.98,2.35,2.81,3.34c3.34,3.97,5.1,6.07,5.1,6.07"/>
		<line class="st3" x1="403.63" y1="385.33" x2="376.88" y2="415.66"/>
		<path class="st2" d="M328.77,349.12c-7.28,0-13.18-4.95-13.18-11.05s5.9-11.05,13.18-11.05"/>
		<path class="st2" d="M423.67,331.93c7.28,0,13.18,4.95,13.18,11.05c0,6.1-5.9,11.05-13.18,11.05"/>
	</g>
	<path id="SVGID_x5F_1_x5F_" class="st5" d="M642.28,410.53c0,143.87-116.63,260.5-260.5,260.5s-260.5-116.63-260.5-260.5
		s116.63-260.5,260.5-260.5S642.28,266.66,642.28,410.53z"/>
	<text>	<textPath  xlink:href="#SVGID_x5F_1_x5F_" startOffset="96.289%">
<tspan  style="fill:#463C33; font-family:'CenturyGothic-Bold'; font-size:45.4076px;">ODE? SEOUL ODE? SEOUL ODE? SEOUL ODE? SEOUL ODE? SEOUL ODE? SEOUL</tspan>	</textPath>
</text>
	<path class="st6" d="M262.75,332.03c15.01,8.83,37.23-1.1,37.23-1.1s-2.11-24.25-17.12-33.08c-15.01-8.83-37.23,1.1-37.23,1.1
		S247.74,323.2,262.75,332.03z"/>
	<path class="st6" d="M297.19,286.91c-6.12,12.38,2.05,28.92,2.05,28.92s18.1-3.55,24.22-15.93s-2.05-28.92-2.05-28.92
		S303.31,274.53,297.19,286.91z"/>
</g>
</svg>
