<?xml version="1.0" encoding="utf-8"?>
<!-- Generator: Adobe Illustrator 27.4.0, SVG Export Plug-In . SVG Version: 6.00 Build 0)  -->
<svg version="1.1" id="레이어_1" xmlns="http://www.w3.org/2000/svg" xmlns:xlink="http://www.w3.org/1999/xlink" x="0px"
	 y="0px" viewBox="0 0 762.52 822.05" style="enable-background:new 0 0 762.52 822.05;" xml:space="preserve">
<style type="text/css">
	.st0{fill:none;stroke:#463C33;stroke-width:3;stroke-miterlimit:10;}
	.st1{fill:none;stroke:#463C33;stroke-width:3;stroke-linecap:round;stroke-linejoin:round;stroke-dasharray:3.0033,6.0066;}
	.st2{fill:none;stroke:#463C33;stroke-width:4;stroke-miterlimit:10;}
	.st3{fill:none;stroke:#463C33;stroke-width:4;stroke-linecap:round;stroke-linejoin:round;stroke-miterlimit:10;}
	.st4{fill:#463C33;stroke:#463C33;stroke-width:4;stroke-miterlimit:10;}
	.st5{fill:#463C33;}
	.st6{fill:#ABB868;}
</style>
<g>
	<circle class="st0" cx="381.26" cy="411.02" r="319.05"/>
	<circle class="st0" cx="381.26" cy="411.02" r="249.74"/>
	<circle class="st0" cx="381.26" cy="411.02" r="224.65"/>
	<g>
		<circle class="st1" cx="381.26" cy="411.02" r="236.6"/>
	</g>
</g>
<g>
	<path class="st2" d="M329.01,324.1l93.67,2.97c0,0,10.41-50.46-41.63-53.43C381.05,273.63,332.48,261.76,329.01,324.1z"/>
	<path class="st2" d="M347.19,281.34c-0.28-1.53-6.16-34.3,28.59-36.66c0,0,35.03-0.58,28.19,36.02"/>
	<line class="st2" x1="376.79" y1="272.94" x2="375.78" y2="244.68"/>
	<path class="st2" d="M361.87,247.98c0,0-10.8-37.74,13.91-38.88c0,0,27.94-2.33,12.93,38.88"/>
	<path class="st2" d="M326.81,324.89"/>
	<path class="st3" d="M335.44,354.72c0,0,13.9-8.82,41.78-10.17c0,0,20-1.35,39.69,11.15"/>
	<path class="st2" d="M359.52,336.57"/>
	<path class="st3" d="M349.34,383.6c-7.94,1.97-15.57,5.83-19.21,13.01c-2.22-6.67-4.58-13.53-10.01-18.6c0,0-20.09,0-23.44,12.5
		c0,0-6.7,49.99,40.19,62.48c0,0-43.54,6.25-43.54,81.23c0,0,3.35,15.62,77.03,15.62c0,0,67.49,0,73.39-11.75
		c0.12-0.24,0.22-0.49,0.29-0.75c3.35-12.5,0-58.86,0-58.86s-6.7-16.12-23.44-9.88"/>
	<path class="st3" d="M405.55,380.08c0,0,38.49,6.85,38.49,42.82"/>
	<path class="st3" d="M365.67,452.21l-12.07-24.22c0,0,21.85-15.62,44.42,0h15.87c0,0,26.79-15.62,43.54,3.12l-6.7,18.75"/>
	<path class="st3" d="M420.59,454c0,0-6.87,0-6.87,3.12h-15.33c0.56,0.67-18.28-10-32.72-4.91"/>
	<line class="st3" x1="398.02" y1="427.99" x2="399.94" y2="457.12"/>
	<path class="st3" d="M413.89,427.99c0,3.12,0,28.12,0,28.12"/>
	<path class="st2" d="M452.97,450.06c1.11-0.2-29.03-10-32.38,4.27c0,0-6.7,8.02,20.09,8.02"/>
	<line class="st3" x1="303.34" y1="441.22" x2="303.74" y2="481.51"/>
	<polyline class="st3" points="311.4,438.58 271.55,438.58 271.55,571.04 497.62,574.83 497.62,438.58 464.32,438.58 457.94,437.49 
			"/>
	<line class="st3" x1="460.78" y1="542.95" x2="460.78" y2="438.67"/>
	<path class="st3" d="M432.31,544c3.25-0.41,28.34,0,28.34,0"/>
	<path class="st2" d="M457.43,446.6c0,0-25.27,20.9-21.01,23.02c0,0,17.66,8.37,24.35-5.69"/>
	<path class="st2" d="M537.81,477.98"/>
	<path class="st2" d="M316.93,545.64c0,0-3.52,23.37,13.23,21.59c0,0,17.55,3.46,18.82-17.9"/>
	<path class="st2" d="M379.43,549.69c0,0-8.51,19.73,16.33,17.74c0,0,18.14,3.39,14.79-19.6"/>
	<path class="st2" d="M297.13,385.94c0,0-15.82-17.18-10.54-29.46c5.27-12.27,21.09-7.36,21.09-7.36s13.18,4.91,10.54,27"/>
	<ellipse class="st4" cx="361.06" cy="335" rx="3.3" ry="3.07"/>
	<ellipse class="st4" cx="392.69" cy="335" rx="3.3" ry="3.07"/>
	<path class="st3" d="M365.67,358.33c0,0,11.86,7.99,22.41,0"/>
	<path class="st3" d="M351.89,380.23c-29.6-15.52-22.39-55.34-22.39-55.34"/>
	<path class="st3" d="M421.87,325.96c0,0,5.65,39.64-17.51,55.09"/>
	<path class="st3" d="M351.89,381.71"/>
	<path class="st3" d="M352.83,381.04c0,0,10.21,9.8,18.12,12.26c7.91,2.45,13.18,0,13.18,0s10.01-3.54,19.5-11.59"/>
	<path class="st3" d="M353.61,384.58c0,0,12.29,21.01,17.45,27.14c1.04,1.23,1.98,2.35,2.81,3.34c3.34,3.97,5.1,6.07,5.1,6.07"/>
	<line class="st3" x1="403.63" y1="385.33" x2="376.88" y2="415.66"/>
	<path class="st2" d="M328.77,349.12c-7.28,0-13.18-4.95-13.18-11.05s5.9-11.05,13.18-11.05"/>
	<path class="st2" d="M423.67,331.93c7.28,0,13.18,4.95,13.18,11.05c0,6.1-5.9,11.05-13.18,11.05"/>
</g>
<g>
	<path class="st5" d="M349.63,118.34c4.59-0.5,8.71,0.73,12.38,3.69c3.66,2.96,5.75,6.83,6.28,11.6c0.52,4.73-0.68,8.91-3.57,12.55
		c-2.9,3.63-6.67,5.7-11.32,6.21c-4.87,0.53-9.09-0.71-12.68-3.72c-3.59-3.01-5.63-6.83-6.14-11.46c-0.34-3.1,0.1-6.03,1.32-8.8
		c1.22-2.76,3.05-5.05,5.51-6.86C343.86,119.73,346.6,118.67,349.63,118.34z M350.22,124.38c-3,0.33-5.41,1.65-7.23,3.96
		c-1.82,2.31-2.55,5.07-2.2,8.29c0.39,3.59,1.99,6.28,4.79,8.09c2.18,1.41,4.56,1.98,7.15,1.7c2.93-0.32,5.3-1.65,7.13-3.99
		s2.57-5.06,2.24-8.16c-0.34-3.09-1.66-5.58-3.97-7.5S353.19,124.06,350.22,124.38z"/>
	<path class="st5" d="M375.57,117.23l7.35,0.15c4.74,0.09,8.25,0.75,10.53,1.97c2.28,1.22,4.14,3.17,5.58,5.84
		c1.44,2.68,2.12,5.78,2.05,9.31c-0.05,2.51-0.51,4.81-1.39,6.9c-0.88,2.09-2.06,3.81-3.56,5.17s-3.11,2.29-4.83,2.79
		c-1.72,0.5-4.7,0.71-8.92,0.62l-7.46-0.15L375.57,117.23z M381.61,123.34l-0.41,20.57l2.88,0.06c2.84,0.06,4.9-0.23,6.19-0.85
		c1.29-0.63,2.36-1.7,3.2-3.22c0.84-1.52,1.29-3.41,1.33-5.66c0.07-3.46-0.85-6.17-2.74-8.11c-1.71-1.75-4.49-2.66-8.35-2.74
		L381.61,123.34z"/>
	<path class="st5" d="M409.9,118.64l17.67,2.17l-0.74,6.03l-11.55-1.42l-0.72,5.85l11.55,1.42l-0.73,5.92l-11.55-1.42l-1.05,8.52
		l11.55,1.42l-0.74,6.05l-17.67-2.17L409.9,118.64z"/>
	<path class="st5" d="M437.94,131.32l-5.68-1.23c0.58-2.79,2.03-4.88,4.36-6.27s5.08-1.75,8.24-1.06c2.04,0.44,3.69,1.2,4.96,2.26
		c1.27,1.06,2.18,2.39,2.73,4c0.55,1.6,0.66,3.18,0.32,4.74c-0.19,0.85-0.5,1.66-0.96,2.42s-1.07,1.51-1.85,2.25
		c-0.46,0.43-1.47,1.1-3.05,2.01c-1.5,0.87-2.47,1.5-2.89,1.9c-0.42,0.4-0.82,0.97-1.21,1.7c-0.39,0.73-0.76,1.79-1.12,3.16
		l-5.87-1.28l0.19-0.98c0.42-1.94,1.16-3.62,2.21-5.04c1.05-1.43,2.52-2.66,4.41-3.7c1.82-1.01,2.95-1.73,3.38-2.17
		c0.43-0.44,0.71-0.99,0.86-1.67c0.2-0.92-0.01-1.79-0.65-2.6s-1.6-1.36-2.9-1.64c-1.33-0.29-2.5-0.13-3.53,0.46
		C438.88,129.17,438.23,130.09,437.94,131.32z M438.42,149.05c1.05,0.23,1.88,0.79,2.46,1.67c0.59,0.88,0.77,1.84,0.55,2.86
		c-0.22,1.03-0.78,1.82-1.68,2.39c-0.89,0.57-1.86,0.74-2.9,0.51s-1.85-0.78-2.42-1.67c-0.57-0.89-0.75-1.84-0.52-2.87
		c0.22-1.03,0.77-1.82,1.65-2.39S437.4,148.83,438.42,149.05z"/>
	<path class="st5" d="M490.29,142.79l-5.72,2.21c-0.74-2.67-1.89-4.29-3.46-4.87c-0.76-0.28-1.46-0.31-2.1-0.08
		c-0.64,0.23-1.05,0.6-1.24,1.11s-0.2,1.06-0.02,1.65c0.25,0.78,1.19,2.62,2.82,5.51c1.54,2.68,2.45,4.35,2.74,5.01
		c0.74,1.63,1.16,3.08,1.25,4.35c0.09,1.27-0.1,2.55-0.58,3.84c-0.93,2.51-2.56,4.26-4.9,5.26c-2.34,1-4.9,0.98-7.69-0.05
		c-2.18-0.81-3.88-2.04-5.1-3.71s-1.99-3.85-2.29-6.57l5.99-1.15c0.47,3.25,1.67,5.23,3.58,5.93c1,0.37,1.95,0.39,2.84,0.06
		s1.48-0.88,1.77-1.64c0.26-0.69,0.25-1.48,0-2.36c-0.26-0.88-1-2.36-2.22-4.44c-2.33-3.95-3.71-6.84-4.13-8.68
		c-0.43-1.84-0.37-3.49,0.17-4.96c0.78-2.12,2.26-3.64,4.44-4.56c2.18-0.92,4.45-0.94,6.83-0.07c1.53,0.56,2.85,1.46,3.97,2.67
		C488.36,138.48,489.38,140.32,490.29,142.79z"/>
	<path class="st5" d="M499.84,142.05l16.09,7.62l-2.6,5.49l-10.52-4.98l-2.52,5.33l10.52,4.98l-2.55,5.39l-10.52-4.98l-3.67,7.75
		l10.52,4.98l-2.61,5.51l-16.09-7.62L499.84,142.05z"/>
	<path class="st5" d="M537.19,161c3.92,2.44,6.4,5.96,7.45,10.55s0.3,8.93-2.24,13c-2.52,4.04-6.04,6.59-10.57,7.65
		c-4.52,1.06-8.77,0.36-12.73-2.12c-4.15-2.59-6.71-6.18-7.67-10.77s-0.2-8.85,2.26-12.81c1.65-2.65,3.81-4.68,6.47-6.1
		c2.67-1.42,5.52-2.08,8.57-1.98C531.79,158.53,534.61,159.38,537.19,161z M533.92,166.12c-2.56-1.6-5.27-2.05-8.12-1.36
		c-2.86,0.69-5.14,2.41-6.85,5.16c-1.91,3.06-2.32,6.17-1.23,9.32c0.84,2.46,2.36,4.38,4.57,5.75c2.5,1.56,5.19,1.98,8.07,1.27
		c2.88-0.71,5.15-2.39,6.8-5.03c1.64-2.63,2.15-5.42,1.52-8.34C538.04,169.95,536.46,167.7,533.92,166.12z"/>
	<path class="st5" d="M558.01,176.03l4.83,3.93l-13.3,16.36c-1.15,1.41-1.83,2.51-2.06,3.29c-0.23,0.78-0.2,1.58,0.08,2.39
		s0.83,1.54,1.63,2.2c0.85,0.69,1.74,1.09,2.67,1.2c0.93,0.11,1.76-0.04,2.48-0.45c0.72-0.41,1.78-1.46,3.15-3.16l12.82-15.76
		l4.83,3.93l-12.27,15.09c-2.07,2.55-3.65,4.2-4.74,4.95s-2.41,1.26-3.96,1.52c-1.55,0.26-3.04,0.18-4.45-0.23
		c-1.41-0.42-2.82-1.19-4.22-2.33c-1.83-1.49-3.09-3.21-3.76-5.16c-0.67-1.95-0.79-3.79-0.34-5.54s1.89-4.12,4.35-7.14
		L558.01,176.03z"/>
	<path class="st5" d="M582.06,196.42l4.44,4.34l-18.65,19.1l6.47,6.32l-4.14,4.24l-10.91-10.66L582.06,196.42z"/>
	<path class="st5" d="M617.27,234.6c2.76,3.69,3.8,7.87,3.12,12.53c-0.68,4.66-2.95,8.43-6.8,11.31c-3.81,2.85-8.02,3.95-12.62,3.31
		c-4.6-0.65-8.3-2.84-11.1-6.58c-2.93-3.92-4.02-8.19-3.25-12.81c0.77-4.62,3.02-8.33,6.74-11.12c2.5-1.87,5.25-2.98,8.24-3.34
		c3-0.36,5.9,0.06,8.71,1.26C613.13,230.34,615.45,232.16,617.27,234.6z M612.37,238.19c-1.81-2.42-4.17-3.82-7.08-4.21
		c-2.91-0.39-5.67,0.39-8.26,2.33c-2.89,2.16-4.4,4.91-4.52,8.24c-0.11,2.59,0.62,4.93,2.18,7.02c1.76,2.36,4.12,3.73,7.06,4.11
		s5.67-0.36,8.16-2.23c2.49-1.86,3.96-4.27,4.44-7.23C614.82,243.25,614.16,240.58,612.37,238.19z"/>
	<path class="st5" d="M631.45,256.42l3.61,6.41c2.32,4.13,3.54,7.49,3.64,10.07s-0.63,5.17-2.2,7.77s-3.9,4.76-6.98,6.49
		c-2.19,1.23-4.41,2-6.65,2.31c-2.25,0.31-4.33,0.16-6.26-0.44s-3.55-1.52-4.85-2.75c-1.3-1.23-2.99-3.69-5.06-7.37l-3.66-6.51
		L631.45,256.42z M629.26,264.73l-17.93,10.09l1.41,2.51c1.39,2.47,2.68,4.11,3.88,4.9c1.19,0.8,2.66,1.17,4.4,1.12
		c1.74-0.05,3.59-0.62,5.55-1.72c3.02-1.7,4.88-3.86,5.6-6.48c0.64-2.36,0.02-5.22-1.88-8.59L629.26,264.73z"/>
	<path class="st5" d="M647.66,286.72l7.08,16.34l-5.57,2.41l-4.63-10.68l-5.41,2.34l4.63,10.68l-5.47,2.37l-4.63-10.68l-7.87,3.41
		l4.63,10.68l-5.59,2.42l-7.08-16.34L647.66,286.72z"/>
	<path class="st5" d="M635.88,326.74c0.33,1.03,0.27,2.01-0.19,2.97c-0.47,0.95-1.2,1.59-2.19,1.92c-1,0.33-1.97,0.25-2.91-0.24
		c-0.94-0.48-1.58-1.23-1.91-2.24c-0.33-1.01-0.26-1.99,0.22-2.93c0.48-0.94,1.21-1.58,2.21-1.9c1-0.33,1.96-0.25,2.89,0.22
		S635.55,325.74,635.88,326.74z M650.93,317.35l-1.81-5.52c2.7-0.91,5.23-0.72,7.62,0.58s4.08,3.49,5.09,6.57
		c0.65,1.98,0.84,3.79,0.56,5.42c-0.28,1.63-0.96,3.09-2.07,4.38s-2.41,2.18-3.93,2.68c-0.83,0.27-1.69,0.4-2.58,0.4
		c-0.89,0-1.85-0.16-2.88-0.46c-0.6-0.18-1.7-0.71-3.28-1.61c-1.51-0.86-2.54-1.37-3.1-1.53c-0.56-0.16-1.25-0.22-2.08-0.18
		c-0.83,0.04-1.92,0.25-3.29,0.64l-1.87-5.71l0.94-0.33c1.88-0.62,3.71-0.83,5.47-0.65c1.76,0.18,3.57,0.83,5.43,1.93
		c1.79,1.06,2.99,1.67,3.58,1.81c0.59,0.15,1.22,0.11,1.88-0.1c0.9-0.29,1.54-0.92,1.92-1.88c0.38-0.96,0.36-2.07-0.05-3.33
		c-0.42-1.29-1.15-2.23-2.18-2.81C653.26,317.07,652.14,316.97,650.93,317.35z"/>
	<path class="st5" d="M667.53,368.3l-4.8-3.81c1.93-1.98,2.74-3.8,2.45-5.45c-0.14-0.8-0.48-1.42-1-1.85
		c-0.52-0.43-1.05-0.6-1.59-0.51s-1.01,0.37-1.43,0.82c-0.55,0.61-1.66,2.35-3.32,5.22c-1.53,2.68-2.51,4.31-2.93,4.9
		c-1.03,1.46-2.07,2.55-3.12,3.28s-2.25,1.2-3.6,1.45c-2.63,0.47-4.97-0.05-7.01-1.56c-2.04-1.51-3.33-3.73-3.85-6.66
		c-0.41-2.29-0.2-4.38,0.61-6.28s2.32-3.67,4.5-5.3l4.02,4.58c-2.56,2.05-3.66,4.08-3.3,6.09c0.19,1.05,0.65,1.88,1.39,2.48
		c0.74,0.6,1.51,0.84,2.31,0.69c0.73-0.13,1.41-0.53,2.04-1.2s1.53-2.06,2.7-4.16c2.23-4.01,4.02-6.66,5.39-7.96
		s2.82-2.08,4.36-2.36c2.23-0.4,4.29,0.11,6.18,1.52s3.07,3.36,3.51,5.85c0.29,1.6,0.19,3.19-0.29,4.78
		C670.27,364.44,669.2,366.26,667.53,368.3z"/>
	<path class="st5" d="M673.01,376.15l1.58,17.73l-6.05,0.54l-1.03-11.59l-5.88,0.52l1.03,11.59l-5.94,0.53l-1.03-11.59l-8.55,0.76
		l1.03,11.59l-6.07,0.54l-1.58-17.73L673.01,376.15z"/>
	<path class="st5" d="M675.62,417.89c-0.11,4.61-1.88,8.54-5.3,11.78s-7.53,4.8-12.33,4.68c-4.76-0.12-8.75-1.85-11.96-5.21
		c-3.22-3.36-4.77-7.37-4.65-12.04c0.12-4.89,1.91-8.92,5.37-12.08c3.46-3.16,7.52-4.68,12.18-4.56c3.12,0.08,5.97,0.9,8.54,2.47
		c2.58,1.57,4.6,3.7,6.07,6.37S675.7,414.84,675.62,417.89z M669.55,417.67c0.07-3.02-0.91-5.58-2.96-7.69s-4.69-3.2-7.93-3.28
		c-3.61-0.09-6.49,1.14-8.65,3.67c-1.69,1.97-2.57,4.26-2.63,6.86c-0.07,2.94,0.93,5.48,3.01,7.6s4.67,3.22,7.79,3.3
		c3.1,0.08,5.76-0.9,7.96-2.94C668.34,423.17,669.48,420.66,669.55,417.67z"/>
	<path class="st5" d="M673.27,443.45l-0.92,6.16l-20.86-3.13c-1.8-0.27-3.09-0.3-3.88-0.1c-0.79,0.2-1.47,0.63-2.02,1.29
		c-0.55,0.66-0.91,1.5-1.06,2.52c-0.16,1.08-0.05,2.05,0.33,2.91s0.93,1.49,1.65,1.91c0.72,0.41,2.16,0.78,4.33,1.11l20.09,3.02
		l-0.92,6.16l-19.23-2.89c-3.25-0.49-5.47-1.01-6.67-1.56c-1.2-0.55-2.31-1.43-3.33-2.64c-1.02-1.21-1.7-2.52-2.06-3.95
		c-0.36-1.43-0.41-3.04-0.14-4.82c0.35-2.34,1.19-4.29,2.53-5.87c1.33-1.57,2.87-2.61,4.59-3.11c1.73-0.5,4.51-0.47,8.36,0.11
		L673.27,443.45z"/>
	<path class="st5" d="M667.94,474.56l-1.48,6.03l-25.92-6.37l-2.16,8.78l-5.75-1.41l3.64-14.81L667.94,474.56z"/>
	<path class="st5" d="M652.88,524.3c-1.79,4.25-4.86,7.27-9.23,9.04c-4.37,1.77-8.76,1.72-13.19-0.14
		c-4.39-1.84-7.47-4.91-9.24-9.21c-1.77-4.3-1.75-8.6,0.06-12.91c1.9-4.51,5.03-7.61,9.41-9.28c4.38-1.68,8.71-1.61,13,0.19
		c2.88,1.21,5.23,3.01,7.06,5.42c1.83,2.4,2.94,5.12,3.32,8.15C654.45,518.58,654.06,521.49,652.88,524.3z M647.3,521.89
		c1.17-2.78,1.18-5.53,0.04-8.24s-3.2-4.69-6.19-5.94c-3.33-1.4-6.46-1.31-9.39,0.27c-2.29,1.22-3.94,3.03-4.95,5.43
		c-1.14,2.71-1.13,5.44,0.03,8.17c1.16,2.73,3.18,4.71,6.05,5.91c2.86,1.2,5.69,1.26,8.48,0.17
		C644.17,526.57,646.14,524.65,647.3,521.89z"/>
	<path class="st5" d="M641.21,547.61l-3.71,6.35c-2.39,4.09-4.67,6.84-6.85,8.24c-2.18,1.4-4.78,2.07-7.82,2.03
		s-6.08-0.96-9.13-2.74c-2.17-1.27-3.95-2.79-5.35-4.57s-2.33-3.66-2.79-5.63c-0.46-1.97-0.49-3.83-0.08-5.58
		c0.4-1.75,1.67-4.45,3.8-8.09l3.76-6.45L641.21,547.61z M632.93,549.91l-17.77-10.37l-1.45,2.49c-1.43,2.45-2.19,4.39-2.27,5.83
		s0.34,2.89,1.26,4.37c0.92,1.48,2.35,2.78,4.29,3.92c2.99,1.75,5.8,2.26,8.42,1.55c2.36-0.64,4.51-2.63,6.46-5.96L632.93,549.91z"
		/>
	<path class="st5" d="M623.27,576.89l-10.51,14.37l-4.9-3.59l6.87-9.4l-4.76-3.48l-6.87,9.4l-4.81-3.52l6.87-9.4l-6.93-5.07
		l-6.87,9.4l-4.92-3.6l10.51-14.37L623.27,576.89z"/>
	<path class="st5" d="M582.82,586.97c-0.71,0.81-1.6,1.25-2.66,1.34c-1.06,0.08-1.98-0.22-2.77-0.92c-0.79-0.69-1.21-1.57-1.27-2.63
		s0.26-1.99,0.96-2.79c0.7-0.8,1.58-1.23,2.64-1.3c1.05-0.07,1.97,0.25,2.76,0.94s1.21,1.56,1.28,2.61
		C583.83,585.27,583.51,586.18,582.82,586.97z M598.54,595.19l3.84-4.36c2.16,1.86,3.28,4.15,3.36,6.86
		c0.08,2.71-0.94,5.29-3.08,7.71c-1.38,1.56-2.84,2.64-4.38,3.23c-1.54,0.59-3.15,0.74-4.82,0.44c-1.67-0.3-3.1-0.97-4.3-2.03
		c-0.65-0.58-1.2-1.25-1.65-2.02s-0.8-1.67-1.07-2.71c-0.15-0.61-0.25-1.82-0.28-3.64c-0.03-1.74-0.11-2.89-0.26-3.45
		c-0.14-0.56-0.44-1.19-0.9-1.88c-0.45-0.69-1.19-1.53-2.22-2.52l3.97-4.51l0.76,0.64c1.49,1.31,2.6,2.77,3.33,4.38
		c0.74,1.61,1.1,3.5,1.09,5.66c0,2.08,0.08,3.42,0.25,4.01c0.17,0.59,0.52,1.11,1.04,1.57c0.71,0.63,1.57,0.86,2.59,0.7
		s1.96-0.74,2.84-1.73c0.9-1.02,1.34-2.12,1.31-3.31C599.96,597.05,599.48,596.03,598.54,595.19z"/>
	<path class="st5" d="M563.1,635.35l0.84-6.07c2.69,0.65,4.67,0.43,5.94-0.66c0.62-0.53,0.98-1.13,1.09-1.8
		c0.11-0.67-0.02-1.21-0.37-1.62c-0.36-0.42-0.83-0.69-1.43-0.81c-0.81-0.17-2.87-0.23-6.18-0.21c-3.09,0.04-4.99,0.03-5.71-0.03
		c-1.78-0.14-3.25-0.48-4.41-1.02s-2.18-1.33-3.08-2.37c-1.75-2.03-2.49-4.31-2.22-6.83c0.26-2.53,1.52-4.76,3.78-6.7
		c1.76-1.51,3.67-2.4,5.72-2.66c2.05-0.26,4.33,0.13,6.86,1.18l-1.9,5.79c-3.07-1.16-5.38-1.08-6.93,0.25
		c-0.81,0.7-1.29,1.51-1.43,2.46c-0.15,0.94,0.05,1.72,0.58,2.34c0.48,0.56,1.17,0.94,2.07,1.14s2.55,0.27,4.96,0.21
		c4.58-0.12,7.78,0.08,9.59,0.59s3.23,1.37,4.25,2.56c1.48,1.71,2.09,3.75,1.83,6.1c-0.25,2.35-1.34,4.35-3.25,6
		c-1.23,1.06-2.66,1.79-4.26,2.18S565.71,635.74,563.1,635.35z"/>
	<path class="st5" d="M559.13,644.06l-14.46,10.38l-3.54-4.93l9.46-6.79l-3.44-4.79l-9.46,6.79l-3.48-4.84l9.46-6.79l-5-6.97
		l-9.46,6.79l-3.56-4.95l14.46-10.38L559.13,644.06z"/>
	<path class="st5" d="M524.47,667.56c-4.03,2.24-8.31,2.71-12.84,1.41c-4.53-1.3-7.96-4.06-10.29-8.25
		c-2.31-4.16-2.84-8.48-1.58-12.95c1.26-4.47,3.93-7.85,8.02-10.12c4.28-2.38,8.66-2.88,13.13-1.5s7.85,4.11,10.11,8.18
		c1.52,2.72,2.25,5.6,2.21,8.62c-0.05,3.02-0.85,5.84-2.41,8.46C529.24,664.03,527.13,666.08,524.47,667.56z M521.57,662.22
		c2.64-1.47,4.35-3.62,5.12-6.45s0.38-5.67-1.2-8.49c-1.75-3.15-4.27-5.01-7.56-5.59c-2.56-0.46-4.97-0.05-7.25,1.22
		c-2.57,1.43-4.25,3.58-5.02,6.45s-0.4,5.66,1.11,8.39c1.51,2.71,3.7,4.5,6.57,5.37C516.22,663.96,518.96,663.67,521.57,662.22z"/>
	<path class="st5" d="M501.22,678.5l-5.78,2.32l-7.86-19.57c-0.68-1.69-1.3-2.82-1.88-3.4c-0.58-0.58-1.29-0.94-2.13-1.09
		c-0.85-0.14-1.75-0.02-2.71,0.36c-1.01,0.41-1.8,0.99-2.34,1.75c-0.55,0.76-0.82,1.56-0.81,2.39c0.01,0.83,0.42,2.26,1.23,4.29
		l7.57,18.85l-5.78,2.32l-7.25-18.04c-1.22-3.04-1.9-5.23-2.03-6.54c-0.13-1.32,0.07-2.72,0.59-4.2c0.53-1.49,1.31-2.75,2.36-3.78
		s2.41-1.89,4.08-2.56c2.2-0.88,4.31-1.14,6.34-0.79s3.7,1.15,5.01,2.38c1.31,1.23,2.69,3.66,4.14,7.26L501.22,678.5z"/>
	<path class="st5" d="M471.7,689.65l-5.95,1.77l-7.63-25.58l-8.67,2.59l-1.69-5.67l14.62-4.36L471.7,689.65z"/>
	<path class="st5" d="M421.16,701.84c-4.57,0.61-8.73-0.51-12.46-3.38s-5.92-6.68-6.56-11.45c-0.63-4.72,0.45-8.93,3.26-12.63
		c2.81-3.7,6.53-5.87,11.16-6.49c4.85-0.65,9.11,0.48,12.77,3.41c3.66,2.92,5.8,6.69,6.42,11.31c0.42,3.09,0.05,6.03-1.1,8.83
		c-1.15,2.79-2.93,5.12-5.34,6.99S424.18,701.43,421.16,701.84z M420.42,695.81c2.99-0.4,5.37-1.78,7.13-4.13
		c1.76-2.35,2.42-5.13,1.99-8.34c-0.48-3.58-2.14-6.23-4.99-7.97c-2.21-1.36-4.61-1.86-7.19-1.52c-2.92,0.39-5.26,1.78-7.03,4.17
		c-1.77,2.38-2.45,5.12-2.03,8.21c0.41,3.08,1.8,5.54,4.15,7.4C414.8,695.48,417.46,696.21,420.42,695.81z"/>
	<path class="st5" d="M395.62,703.43l-7.35,0.12c-4.74,0.08-8.27-0.45-10.59-1.59c-2.32-1.14-4.25-3.02-5.79-5.64
		c-1.53-2.62-2.33-5.7-2.39-9.23c-0.04-2.51,0.34-4.83,1.14-6.95c0.8-2.12,1.92-3.89,3.37-5.3c1.45-1.41,3.02-2.4,4.73-2.96
		c1.71-0.56,4.67-0.87,8.89-0.94l7.46-0.12L395.62,703.43z M389.36,697.55l-0.33-20.57l-2.88,0.05c-2.84,0.05-4.89,0.4-6.16,1.08
		s-2.3,1.78-3.08,3.33c-0.79,1.55-1.16,3.45-1.13,5.7c0.06,3.46,1.07,6.13,3.04,8.01c1.77,1.69,4.59,2.5,8.44,2.44L389.36,697.55z"
		/>
	<path class="st5" d="M360.89,703.01l-17.72-1.74l0.59-6.05l11.58,1.14l0.58-5.87l-11.58-1.14l0.58-5.94l11.58,1.14l0.84-8.54
		l-11.58-1.14l0.6-6.07l17.72,1.74L360.89,703.01z"/>
	<path class="st5" d="M332.55,691.03l5.71,1.09c-0.51,2.8-1.91,4.93-4.2,6.38c-2.29,1.45-5.03,1.87-8.21,1.27
		c-2.05-0.39-3.72-1.1-5.01-2.13s-2.23-2.34-2.83-3.93c-0.59-1.59-0.74-3.17-0.44-4.73c0.16-0.86,0.46-1.67,0.9-2.45
		c0.43-0.77,1.03-1.54,1.79-2.3c0.45-0.44,1.44-1.14,3-2.09c1.48-0.91,2.43-1.56,2.84-1.97c0.41-0.41,0.8-0.99,1.17-1.73
		c0.37-0.74,0.71-1.8,1.04-3.19l5.9,1.13l-0.17,0.98c-0.37,1.95-1.07,3.64-2.08,5.1c-1.02,1.45-2.46,2.72-4.32,3.81
		c-1.8,1.06-2.9,1.81-3.32,2.25c-0.42,0.45-0.69,1.01-0.82,1.69c-0.18,0.93,0.06,1.79,0.71,2.59s1.63,1.32,2.94,1.57
		c1.34,0.26,2.51,0.07,3.51-0.55S332.3,692.27,332.55,691.03z M331.63,673.31c-1.06-0.2-1.89-0.74-2.5-1.61
		c-0.61-0.87-0.81-1.82-0.62-2.85c0.2-1.03,0.74-1.84,1.62-2.43c0.88-0.59,1.84-0.79,2.89-0.59c1.04,0.2,1.86,0.74,2.46,1.61
		s0.79,1.83,0.59,2.86c-0.2,1.03-0.73,1.84-1.59,2.43C333.61,673.31,332.66,673.51,331.63,673.31z"/>
	<path class="st5" d="M279.95,680.87l5.66-2.35c0.8,2.65,1.99,4.24,3.58,4.78c0.77,0.26,1.47,0.27,2.1,0.03s1.04-0.63,1.21-1.14
		s0.17-1.07-0.02-1.65c-0.27-0.78-1.25-2.59-2.96-5.44c-1.6-2.64-2.56-4.29-2.87-4.94c-0.78-1.61-1.23-3.05-1.35-4.32
		c-0.12-1.27,0.04-2.55,0.48-3.85c0.86-2.53,2.45-4.33,4.77-5.38c2.31-1.05,4.88-1.1,7.69-0.14c2.2,0.75,3.93,1.94,5.19,3.58
		c1.26,1.63,2.08,3.8,2.46,6.51l-5.96,1.29c-0.55-3.24-1.8-5.18-3.73-5.84c-1.01-0.34-1.96-0.34-2.84,0.01
		c-0.89,0.35-1.46,0.92-1.72,1.68c-0.24,0.7-0.22,1.49,0.06,2.36c0.28,0.88,1.06,2.34,2.33,4.38c2.43,3.89,3.88,6.75,4.35,8.57
		c0.47,1.83,0.46,3.48-0.05,4.96c-0.73,2.14-2.17,3.7-4.33,4.67c-2.15,0.97-4.43,1.05-6.82,0.24c-1.54-0.53-2.89-1.38-4.04-2.57
		C281.99,685.13,280.93,683.31,279.95,680.87z"/>
	<path class="st5" d="M270.39,681.84l-16.27-7.22l2.46-5.55l10.64,4.72l2.39-5.39l-10.64-4.72l2.42-5.45l10.64,4.72l3.48-7.84
		l-10.64-4.72l2.47-5.57l16.27,7.22L270.39,681.84z"/>
	<path class="st5" d="M232.58,663.82c-3.97-2.34-6.54-5.8-7.71-10.36c-1.16-4.56-0.52-8.92,1.92-13.05
		c2.42-4.1,5.88-6.74,10.37-7.91c4.5-1.17,8.76-0.57,12.78,1.8c4.22,2.49,6.86,6.01,7.93,10.57c1.07,4.56,0.42,8.85-1.94,12.86
		c-1.58,2.69-3.69,4.77-6.32,6.26c-2.63,1.49-5.47,2.22-8.52,2.19C238.04,666.15,235.2,665.37,232.58,663.82z M235.72,658.62
		c2.6,1.53,5.32,1.92,8.16,1.16c2.84-0.76,5.08-2.54,6.72-5.33c1.83-3.11,2.17-6.22,1-9.34c-0.9-2.44-2.47-4.31-4.71-5.64
		c-2.54-1.5-5.24-1.85-8.1-1.07c-2.87,0.78-5.09,2.51-6.68,5.2c-1.58,2.67-2.01,5.47-1.31,8.38
		C231.51,654.89,233.15,657.1,235.72,658.62z"/>
	<path class="st5" d="M211.42,649.32l-4.93-3.81l12.9-16.69c1.11-1.44,1.77-2.55,1.98-3.34c0.21-0.79,0.16-1.59-0.14-2.39
		c-0.3-0.8-0.86-1.52-1.68-2.15c-0.87-0.67-1.76-1.05-2.7-1.13s-1.76,0.08-2.47,0.51c-0.71,0.43-1.74,1.51-3.08,3.24l-12.42,16.07
		l-4.93-3.81l11.89-15.39c2.01-2.6,3.54-4.28,4.61-5.06c1.07-0.78,2.38-1.32,3.93-1.62c1.55-0.3,3.03-0.26,4.46,0.12
		s2.85,1.12,4.28,2.23c1.87,1.45,3.17,3.13,3.89,5.07s0.88,3.77,0.48,5.53c-0.4,1.75-1.79,4.17-4.17,7.24L211.42,649.32z"/>
	<path class="st5" d="M186.86,629.52l-4.55-4.23l18.17-19.55l-6.63-6.16l4.03-4.34l11.17,10.38L186.86,629.52z"/>
	<path class="st5" d="M150.73,592.23c-2.86-3.62-4-7.78-3.43-12.45c0.57-4.68,2.74-8.5,6.51-11.47c3.74-2.95,7.92-4.15,12.53-3.62
		c4.62,0.53,8.37,2.64,11.26,6.31c3.03,3.85,4.22,8.09,3.56,12.73c-0.65,4.64-2.81,8.4-6.47,11.28c-2.45,1.93-5.17,3.11-8.16,3.55
		s-5.9,0.09-8.74-1.04C154.98,596.38,152.62,594.62,150.73,592.23z M155.54,588.52c1.87,2.37,4.26,3.72,7.18,4.03
		c2.92,0.32,5.65-0.53,8.2-2.53c2.83-2.23,4.27-5.01,4.32-8.35c0.04-2.6-0.74-4.92-2.35-6.96c-1.82-2.31-4.21-3.62-7.16-3.94
		s-5.66,0.5-8.11,2.43c-2.44,1.92-3.86,4.37-4.26,7.34S153.69,586.17,155.54,588.52z"/>
	<path class="st5" d="M136.01,570.75l-3.76-6.32c-2.43-4.07-3.72-7.4-3.89-9.98c-0.17-2.58,0.5-5.19,2.01-7.82
		c1.51-2.63,3.78-4.86,6.82-6.66c2.16-1.29,4.36-2.11,6.59-2.47c2.24-0.36,4.33-0.27,6.27,0.29c1.95,0.55,3.59,1.43,4.92,2.63
		c1.33,1.2,3.08,3.61,5.24,7.24l3.82,6.41L136.01,570.75z M138,562.39l17.68-10.53l-1.48-2.48c-1.45-2.44-2.78-4.04-4-4.81
		c-1.21-0.76-2.69-1.1-4.43-1.01c-1.74,0.09-3.57,0.71-5.51,1.86c-2.97,1.77-4.79,3.98-5.44,6.62c-0.58,2.38,0.11,5.22,2.09,8.54
		L138,562.39z"/>
	<path class="st5" d="M119.06,540.86l-7.48-16.16l5.51-2.55l4.89,10.56l5.35-2.48l-4.89-10.56l5.41-2.51l4.89,10.56l7.79-3.6
		l-4.89-10.56l5.53-2.56l7.48,16.16L119.06,540.86z"/>
	<path class="st5" d="M115.02,510.33l1.95,5.47c-2.67,0.98-5.21,0.85-7.63-0.39c-2.41-1.24-4.16-3.39-5.25-6.44
		c-0.7-1.96-0.93-3.76-0.7-5.4c0.23-1.64,0.89-3.11,1.96-4.42c1.07-1.31,2.36-2.24,3.86-2.77c0.82-0.29,1.68-0.45,2.56-0.46
		c0.89-0.02,1.85,0.11,2.89,0.38c0.61,0.16,1.71,0.67,3.32,1.53c1.53,0.82,2.58,1.3,3.14,1.45c0.56,0.15,1.26,0.19,2.08,0.13
		c0.83-0.06,1.92-0.3,3.27-0.72l2.01,5.66l-0.93,0.36c-1.87,0.66-3.68,0.92-5.45,0.78c-1.77-0.14-3.59-0.74-5.47-1.79
		c-1.82-1.02-3.03-1.59-3.62-1.72c-0.6-0.13-1.22-0.08-1.88,0.15c-0.89,0.32-1.51,0.96-1.87,1.92c-0.35,0.97-0.31,2.08,0.14,3.33
		c0.46,1.28,1.21,2.2,2.25,2.75C112.71,510.66,113.83,510.74,115.02,510.33z M129.84,500.56c-0.36-1.02-0.32-2.01,0.12-2.97
		s1.16-1.62,2.15-1.97s1.96-0.3,2.92,0.16s1.61,1.19,1.97,2.19s0.31,1.98-0.15,2.93c-0.45,0.95-1.17,1.61-2.16,1.96
		c-0.99,0.35-1.96,0.3-2.9-0.15C130.84,502.27,130.19,501.55,129.84,500.56z"/>
	<path class="st5" d="M97.16,459.82l4.9,3.69c-1.88,2.03-2.65,3.87-2.31,5.51c0.16,0.8,0.51,1.41,1.04,1.83
		c0.53,0.42,1.06,0.58,1.6,0.47c0.54-0.11,1.01-0.39,1.41-0.86c0.54-0.62,1.6-2.39,3.19-5.3c1.47-2.72,2.4-4.38,2.81-4.97
		c0.99-1.49,2.01-2.61,3.04-3.35c1.03-0.75,2.22-1.26,3.57-1.54c2.62-0.54,4.97-0.07,7.05,1.39c2.08,1.46,3.42,3.65,4.01,6.56
		c0.47,2.28,0.31,4.37-0.46,6.29c-0.77,1.92-2.23,3.72-4.37,5.41l-4.13-4.48c2.51-2.12,3.56-4.17,3.15-6.17
		c-0.21-1.04-0.7-1.86-1.45-2.45c-0.75-0.59-1.53-0.8-2.33-0.63c-0.72,0.15-1.39,0.56-2.01,1.25c-0.61,0.68-1.48,2.09-2.6,4.23
		c-2.13,4.06-3.86,6.76-5.19,8.09s-2.77,2.15-4.3,2.47c-2.22,0.45-4.29,0-6.22-1.37c-1.93-1.36-3.15-3.29-3.66-5.77
		c-0.33-1.59-0.27-3.19,0.18-4.78S95.55,461.91,97.16,459.82z"/>
	<path class="st5" d="M91.49,452.09l-2.02-17.69l6.04-0.69l1.32,11.56l5.86-0.67l-1.32-11.56l5.93-0.68l1.32,11.57l8.52-0.97
		l-1.32-11.57l6.06-0.69l2.02,17.69L91.49,452.09z"/>
	<path class="st5" d="M87.86,409.88c0.07-4.61,1.81-8.55,5.2-11.82c3.39-3.27,7.49-4.86,12.3-4.78c4.76,0.08,8.76,1.78,12,5.11
		c3.24,3.33,4.83,7.33,4.75,12c-0.08,4.9-1.84,8.94-5.27,12.12c-3.44,3.18-7.48,4.74-12.14,4.66c-3.12-0.05-5.97-0.85-8.56-2.4
		c-2.59-1.55-4.63-3.66-6.12-6.32C88.53,415.78,87.81,412.92,87.86,409.88z M93.93,410.04c-0.05,3.02,0.96,5.57,3.02,7.66
		c2.07,2.09,4.72,3.16,7.95,3.21c3.61,0.06,6.48-1.19,8.62-3.74c1.67-1.99,2.53-4.28,2.57-6.88c0.05-2.94-0.98-5.47-3.07-7.57
		c-2.09-2.11-4.7-3.18-7.82-3.23c-3.1-0.05-5.75,0.95-7.93,3C95.1,404.53,93.98,407.05,93.93,410.04z"/>
	<path class="st5" d="M89.58,384.81l0.77-6.18l20.93,2.61c1.8,0.23,3.1,0.23,3.88,0c0.79-0.22,1.45-0.67,1.99-1.34
		c0.54-0.67,0.87-1.52,1-2.54c0.14-1.09,0-2.05-0.4-2.9s-0.97-1.47-1.7-1.87c-0.73-0.4-2.18-0.73-4.35-1l-20.16-2.52l0.77-6.18
		l19.29,2.41c3.26,0.41,5.49,0.87,6.71,1.4c1.22,0.52,2.35,1.38,3.39,2.56c1.04,1.18,1.76,2.48,2.16,3.9s0.48,3.02,0.26,4.81
		c-0.29,2.35-1.09,4.32-2.38,5.92c-1.3,1.6-2.8,2.68-4.51,3.22c-1.71,0.55-4.5,0.58-8.36,0.1L89.58,384.81z"/>
	<path class="st5" d="M94.14,353.59l1.33-6.06l26.07,5.72l1.94-8.84l5.78,1.27l-3.27,14.9L94.14,353.59z"/>
	<path class="st5" d="M107.97,303.48c1.68-4.3,4.68-7.38,9-9.26s8.72-1.94,13.19-0.19c4.43,1.73,7.59,4.73,9.46,8.98
		c1.88,4.25,1.96,8.55,0.26,12.91c-1.78,4.56-4.84,7.73-9.17,9.52s-8.67,1.83-13,0.13c-2.9-1.14-5.3-2.88-7.19-5.24
		s-3.06-5.04-3.53-8.06C106.53,309.24,106.86,306.31,107.97,303.48z M113.6,305.75c-1.1,2.81-1.05,5.56,0.16,8.24
		s3.32,4.61,6.33,5.79c3.36,1.31,6.49,1.15,9.38-0.5c2.26-1.28,3.87-3.13,4.81-5.55c1.07-2.74,0.99-5.47-0.23-8.17
		s-3.29-4.62-6.2-5.76c-2.89-1.13-5.72-1.12-8.48,0.04C116.61,300.99,114.69,302.97,113.6,305.75z"/>
	<path class="st5" d="M119.04,279.9l3.55-6.44c2.29-4.15,4.5-6.95,6.64-8.4c2.14-1.45,4.73-2.19,7.77-2.22
		c3.04-0.03,6.1,0.81,9.2,2.51c2.2,1.21,4.02,2.69,5.46,4.44c1.44,1.75,2.42,3.6,2.92,5.56c0.51,1.96,0.58,3.81,0.22,5.57
		c-0.36,1.76-1.56,4.49-3.6,8.18l-3.6,6.54L119.04,279.9z M127.26,277.39l18.02,9.93l1.39-2.52c1.37-2.49,2.08-4.45,2.12-5.88
		c0.05-1.43-0.41-2.88-1.36-4.33c-0.96-1.45-2.42-2.72-4.39-3.81c-3.03-1.67-5.85-2.12-8.46-1.34c-2.35,0.7-4.45,2.74-6.31,6.12
		L127.26,277.39z"/>
	<path class="st5" d="M136.26,250.17l10.15-14.62l4.99,3.46l-6.64,9.56l4.84,3.36l6.64-9.56l4.9,3.4l-6.64,9.56l7.05,4.89l6.64-9.56
		l5.01,3.48l-10.15,14.62L136.26,250.17z"/>
	<path class="st5" d="M160.54,231.26l-3.73,4.45c-2.2-1.81-3.38-4.06-3.53-6.78s0.81-5.31,2.89-7.79c1.34-1.6,2.77-2.71,4.3-3.34
		c1.53-0.63,3.13-0.81,4.81-0.56c1.68,0.26,3.12,0.9,4.35,1.92c0.67,0.56,1.23,1.22,1.7,1.98c0.46,0.76,0.84,1.65,1.13,2.69
		c0.17,0.6,0.29,1.82,0.37,3.63c0.07,1.74,0.18,2.88,0.34,3.44c0.16,0.56,0.47,1.18,0.94,1.86s1.23,1.5,2.28,2.46l-3.86,4.6
		l-0.78-0.62c-1.52-1.27-2.66-2.71-3.44-4.3c-0.77-1.59-1.18-3.47-1.23-5.63c-0.05-2.08-0.16-3.42-0.35-4s-0.55-1.1-1.08-1.54
		c-0.72-0.61-1.59-0.82-2.61-0.64c-1.01,0.18-1.95,0.78-2.8,1.8c-0.87,1.04-1.28,2.15-1.23,3.34
		C159.07,229.44,159.58,230.44,160.54,231.26z M176.46,239.09c0.69-0.83,1.57-1.29,2.62-1.4c1.06-0.11,1.99,0.17,2.79,0.85
		c0.8,0.67,1.25,1.54,1.34,2.6s-0.21,1.99-0.89,2.81c-0.68,0.82-1.55,1.27-2.6,1.36c-1.05,0.09-1.98-0.2-2.78-0.87
		s-1.25-1.53-1.34-2.57C175.49,240.82,175.78,239.89,176.46,239.09z"/>
	<path class="st5" d="M194.98,190.24l-0.69,6.09c-2.7-0.58-4.68-0.32-5.92,0.81c-0.6,0.55-0.95,1.15-1.04,1.83
		c-0.09,0.67,0.05,1.21,0.41,1.61c0.37,0.41,0.85,0.67,1.45,0.78c0.81,0.15,2.87,0.16,6.19,0.06c3.09-0.12,4.99-0.16,5.71-0.11
		c1.79,0.1,3.26,0.4,4.43,0.91s2.21,1.27,3.13,2.29c1.79,1.98,2.59,4.24,2.39,6.78c-0.2,2.53-1.41,4.8-3.61,6.79
		c-1.72,1.56-3.61,2.49-5.65,2.8c-2.04,0.31-4.34-0.03-6.88-1.01l1.76-5.83c3.1,1.09,5.4,0.94,6.92-0.43
		c0.79-0.71,1.25-1.55,1.37-2.49c0.12-0.95-0.09-1.72-0.63-2.33c-0.5-0.55-1.19-0.91-2.1-1.09c-0.9-0.18-2.56-0.21-4.96-0.09
		c-4.58,0.23-7.78,0.11-9.61-0.36c-1.82-0.47-3.26-1.29-4.31-2.45c-1.52-1.68-2.18-3.7-1.98-6.05c0.19-2.36,1.23-4.38,3.11-6.08
		c1.21-1.09,2.61-1.85,4.21-2.28C190.27,189.96,192.37,189.92,194.98,190.24z"/>
	<path class="st5" d="M198.73,181.45l14.2-10.74l3.66,4.85l-9.29,7.02l3.56,4.7l9.29-7.02l3.6,4.76l-9.29,7.02l5.17,6.84l9.29-7.02
		l3.68,4.86l-14.2,10.74L198.73,181.45z"/>
	<path class="st5" d="M232.79,157.11c3.98-2.34,8.24-2.92,12.8-1.73c4.56,1.19,8.05,3.86,10.49,8c2.42,4.1,3.05,8.4,1.9,12.91
		c-1.15,4.5-3.74,7.94-7.76,10.31c-4.22,2.49-8.58,3.09-13.09,1.82s-7.95-3.91-10.31-7.92c-1.58-2.69-2.39-5.54-2.42-8.56
		c-0.03-3.02,0.71-5.86,2.2-8.52C228.11,160.76,230.17,158.65,232.79,157.11z M235.82,162.37c-2.6,1.53-4.25,3.73-4.96,6.58
		c-0.71,2.85-0.24,5.67,1.41,8.46c1.83,3.11,4.4,4.91,7.69,5.4c2.57,0.39,4.97-0.07,7.22-1.4c2.54-1.49,4.16-3.69,4.86-6.57
		c0.7-2.89,0.26-5.67-1.32-8.36c-1.58-2.67-3.81-4.41-6.7-5.2C241.13,160.49,238.4,160.86,235.82,162.37z"/>
	<path class="st5" d="M255.76,145.59l5.72-2.47l8.35,19.37c0.72,1.67,1.37,2.79,1.96,3.35c0.59,0.57,1.31,0.91,2.16,1.04
		s1.75-0.02,2.7-0.43c1-0.43,1.77-1.04,2.3-1.81c0.53-0.77,0.78-1.58,0.75-2.41c-0.03-0.83-0.48-2.25-1.34-4.26l-8.04-18.66
		l5.72-2.47l7.69,17.86c1.3,3.01,2.03,5.18,2.19,6.49c0.16,1.31,0,2.72-0.49,4.22c-0.49,1.5-1.25,2.78-2.27,3.84
		c-1.02,1.06-2.36,1.95-4.02,2.66c-2.17,0.94-4.28,1.25-6.32,0.95s-3.73-1.06-5.07-2.26c-1.34-1.2-2.78-3.59-4.32-7.16
		L255.76,145.59z"/>
	<path class="st5" d="M285,133.71l5.9-1.92l8.27,25.38l8.6-2.8l1.83,5.63l-14.5,4.72L285,133.71z"/>
</g>
<path class="st6" d="M262.75,332.03c15.01,8.83,37.23-1.1,37.23-1.1s-2.11-24.25-17.12-33.08c-15.01-8.83-37.23,1.1-37.23,1.1
	S247.74,323.2,262.75,332.03z"/>
<path class="st6" d="M297.19,286.91c-6.12,12.38,2.05,28.92,2.05,28.92s18.1-3.55,24.22-15.93s-2.05-28.92-2.05-28.92
	S303.31,274.53,297.19,286.91z"/>
</svg>
