<?xml version="1.0" encoding="utf-8"?>
<!-- Generator: Adobe Illustrator 27.4.0, SVG Export Plug-In . SVG Version: 6.00 Build 0)  -->
<svg version="1.1" id="레이어_1" xmlns="http://www.w3.org/2000/svg" xmlns:xlink="http://www.w3.org/1999/xlink" x="0px"
	 y="0px" viewBox="0 0 762.52 822.05" style="enable-background:new 0 0 762.52 822.05;" xml:space="preserve">
<style type="text/css">
	.st0{fill:none;stroke:#463C33;stroke-width:4;stroke-miterlimit:10;}
	.st1{fill:none;stroke:#463C33;stroke-width:3;stroke-miterlimit:10;}
	.st2{fill:none;stroke:#463C33;stroke-width:3;stroke-linecap:round;stroke-linejoin:round;stroke-dasharray:2.9963,5.9927;}
	.st3{fill:none;}
	.st4{fill:#ABB868;}
</style>
<g>
	<g>
		<path class="st0" d="M449.88,408.15c-26.82-39.33-80.46-65.56-80.46-65.56c-70.41-34.96-127.4-13.11-127.4-13.11
			c-23.47,8.74-50.29,13.11-56.99,61.19c-0.14,0.99-0.25,1.98-0.35,2.95c-4.44,46.02,40.58,66.98,40.58,66.98
			c30.17,17.48,20.12,48.08,20.12,52.45h52.93l0.71-34.96h77.11l0.26,34.96h173.54c0,0,50.83-26.22,13.95-56.82
			c0,0-23.47-26.22-77.11-39.33c0,0-50.29-17.48-77.11,4.37c0,0-30.17,25.26,0,47.59c0,0,25.29,4.85,26.05,44.19"/>
		<path class="st0" d="M235.44,331.82c-0.14,2.02-26.96,54.47,9.92,98.18c0,0,23.47,13.11,26.82,56.82c0,0,0,21.85,0,26.22"/>
		<path class="st0" d="M298.64,323.11c0.37,2-28.1,30.57,12.96,99.32c0,0,12.81,16.31,6.82,55.64"/>
		<path class="st0" d="M353.09,335.37c0,0,34.51,29.07,10.33,142.71"/>
		<path class="st0" d="M412.92,370.34c0,0,6.39,22.32,1.56,47.54"/>
		<line class="st0" x1="410.55" y1="467.83" x2="406.29" y2="513.04"/>
		<path class="st0" d="M438.43,410.66c0,0-15.37,36.82,18.15,63.05c0,0,12.16,8.74,7.76,39.33"/>
		<path class="st0" d="M488.08,417.22c0,0-11.39,12.78-1.33,39c0,0,8.13,13.11,7.42,34.96l0.04,19.89"/>
		<path class="st0" d="M539.2,437.62c0,0,7.9,22.97-5.51,44.82c0,0-9.6,17.93-8.15,28.63"/>
		<path class="st0" d="M184.36,406.72c0,0,40.07-44.61,128.06-29.17c0,0,59.36,10.99,103.3,40.06"/>
		<path class="st0" d="M209.63,450.22c0,0,1.87-24.67,99.43-24.59c0,0,65.3,7.85,88.11,27.28"/>
		<path class="st0" d="M244.6,482.94c4.12-0.49,16.02-7.18,52.34-4.86"/>
		<path class="st0" d="M403.31,461.85c0,0,38.26-65.38,170.1,24.49"/>
		<path class="st0" d="M430.86,488.53c0,0,23.64-39.2,132.21,13.66"/>
	</g>
	<g>
		<g>
			<circle class="st1" cx="381.26" cy="411.02" r="318.3"/>
			<circle class="st1" cx="381.26" cy="411.02" r="249.16"/>
			<circle class="st1" cx="381.26" cy="411.02" r="224.12"/>
			<g>
				<circle class="st2" cx="381.26" cy="411.02" r="236.05"/>
			</g>
		</g>
		<path id="SVGID_x5F_1_x5F_" class="st3" d="M640.47,409.99c0,143.53-116.36,259.89-259.89,259.89S120.69,553.52,120.69,409.99
			S237.05,150.1,380.58,150.1S640.47,266.45,640.47,409.99z"/>
		<text>		<textPath  xlink:href="#SVGID_x5F_1_x5F_" startOffset="96.289%">
<tspan  style="fill:#463C33; font-family:'CenturyGothic-Bold'; font-size:45.3018px;">ODE? SEOUL ODE? SEOUL ODE? SEOUL ODE? SEOUL ODE? SEOUL ODE? SEOUL</tspan>		</textPath>
</text>
	</g>
	<path class="st4" d="M492.7,399.91c-14.98,8.81-37.15-1.1-37.15-1.1s2.11-24.19,17.08-33.01c14.98-8.81,37.15,1.1,37.15,1.1
		S507.68,391.1,492.7,399.91z"/>
	<path class="st4" d="M458.35,354.89c6.11,12.36-2.05,28.85-2.05,28.85s-18.06-3.54-24.16-15.89c-6.11-12.36,2.05-28.85,2.05-28.85
		S452.24,342.53,458.35,354.89z"/>
</g>
</svg>
