<?xml version="1.0" encoding="utf-8"?>
<!-- Generator: Adobe Illustrator 27.4.0, SVG Export Plug-In . SVG Version: 6.00 Build 0)  -->
<svg version="1.1" id="레이어_1" xmlns="http://www.w3.org/2000/svg" xmlns:xlink="http://www.w3.org/1999/xlink" x="0px"
	 y="0px" viewBox="0 0 762.52 822.05" style="enable-background:new 0 0 762.52 822.05;" xml:space="preserve">
<style type="text/css">
	.st0{fill:none;stroke:#463C33;stroke-width:4;stroke-miterlimit:10;}
	.st1{fill:none;stroke:#463C33;stroke-width:3;stroke-miterlimit:10;}
	.st2{fill:none;stroke:#463C33;stroke-width:3;stroke-linecap:round;stroke-linejoin:round;stroke-dasharray:2.9963,5.9927;}
	.st3{fill:#463C33;}
	.st4{fill:#ABB868;}
</style>
<g>
	<path class="st0" d="M449.88,408.15c-26.82-39.33-80.46-65.56-80.46-65.56c-70.41-34.96-127.4-13.11-127.4-13.11
		c-23.47,8.74-50.29,13.11-56.99,61.19c-0.14,0.99-0.25,1.98-0.35,2.95c-4.44,46.02,40.58,66.98,40.58,66.98
		c30.17,17.48,20.12,48.08,20.12,52.45h52.93l0.71-34.96h77.11l0.26,34.96h173.54c0,0,50.83-26.22,13.95-56.82
		c0,0-23.47-26.22-77.11-39.33c0,0-50.29-17.48-77.11,4.37c0,0-30.17,25.26,0,47.59c0,0,25.29,4.85,26.05,44.19"/>
	<path class="st0" d="M235.44,331.82c-0.14,2.02-26.96,54.47,9.92,98.18c0,0,23.47,13.11,26.82,56.82c0,0,0,21.85,0,26.22"/>
	<path class="st0" d="M298.64,323.11c0.37,2-28.1,30.57,12.96,99.32c0,0,12.81,16.31,6.82,55.64"/>
	<path class="st0" d="M353.09,335.37c0,0,34.51,29.07,10.33,142.71"/>
	<path class="st0" d="M412.92,370.34c0,0,6.39,22.32,1.56,47.54"/>
	<line class="st0" x1="410.55" y1="467.83" x2="406.29" y2="513.04"/>
	<path class="st0" d="M438.43,410.66c0,0-15.37,36.82,18.15,63.05c0,0,12.16,8.74,7.76,39.33"/>
	<path class="st0" d="M488.08,417.22c0,0-11.39,12.78-1.33,39c0,0,8.13,13.11,7.42,34.96l0.04,19.89"/>
	<path class="st0" d="M539.2,437.62c0,0,7.9,22.97-5.51,44.82c0,0-9.6,17.93-8.15,28.63"/>
	<path class="st0" d="M184.36,406.72c0,0,40.07-44.61,128.06-29.17c0,0,59.36,10.99,103.3,40.06"/>
	<path class="st0" d="M209.63,450.22c0,0,1.87-24.67,99.43-24.59c0,0,65.3,7.85,88.11,27.28"/>
	<path class="st0" d="M244.6,482.94c4.12-0.49,16.02-7.18,52.34-4.86"/>
	<path class="st0" d="M403.31,461.85c0,0,38.26-65.38,170.1,24.49"/>
	<path class="st0" d="M430.86,488.53c0,0,23.64-39.2,132.21,13.66"/>
</g>
<g>
	<circle class="st1" cx="381.26" cy="411.02" r="318.3"/>
	<circle class="st1" cx="381.26" cy="411.02" r="249.16"/>
	<circle class="st1" cx="381.26" cy="411.02" r="224.12"/>
	<g>
		<circle class="st2" cx="381.26" cy="411.02" r="236.05"/>
	</g>
</g>
<g>
	<path class="st3" d="M348.47,118.48c4.58-0.5,8.69,0.73,12.35,3.68c3.65,2.95,5.74,6.81,6.26,11.58c0.52,4.72-0.67,8.89-3.56,12.52
		c-2.89,3.62-6.66,5.69-11.29,6.2c-4.86,0.53-9.07-0.71-12.65-3.71c-3.58-3.01-5.62-6.82-6.13-11.44c-0.34-3.09,0.1-6.02,1.31-8.78
		c1.21-2.76,3.05-5.04,5.5-6.84S345.45,118.81,348.47,118.48z M349.07,124.51c-2.99,0.33-5.4,1.64-7.21,3.95
		c-1.81,2.3-2.54,5.06-2.19,8.27c0.39,3.58,1.98,6.27,4.78,8.07c2.17,1.41,4.55,1.97,7.13,1.69c2.92-0.32,5.29-1.65,7.12-3.98
		c1.82-2.34,2.57-5.05,2.23-8.14c-0.34-3.08-1.66-5.57-3.96-7.48C354.66,124.98,352.03,124.19,349.07,124.51z"/>
	<path class="st3" d="M374.38,117.38l7.34,0.15c4.73,0.09,8.23,0.75,10.51,1.97c2.27,1.22,4.13,3.16,5.57,5.83
		c1.44,2.67,2.12,5.77,2.05,9.29c-0.05,2.51-0.51,4.8-1.39,6.89s-2.06,3.81-3.55,5.16c-1.49,1.36-3.1,2.28-4.82,2.78
		c-1.72,0.5-4.69,0.7-8.9,0.62l-7.45-0.15L374.38,117.38z M380.41,123.47L380,143.99l2.88,0.06c2.83,0.06,4.89-0.23,6.18-0.85
		s2.35-1.7,3.19-3.21c0.84-1.52,1.28-3.4,1.33-5.64c0.07-3.45-0.84-6.15-2.74-8.09c-1.71-1.75-4.48-2.66-8.33-2.73L380.41,123.47z"
		/>
	<path class="st3" d="M408.63,118.78l17.63,2.17l-0.74,6.02L414,125.55l-0.72,5.84l11.53,1.42l-0.73,5.91l-11.53-1.42l-1.04,8.5
		l11.53,1.42l-0.74,6.04l-17.63-2.17L408.63,118.78z"/>
	<path class="st3" d="M436.61,131.43l-5.66-1.23c0.57-2.78,2.02-4.87,4.35-6.26c2.33-1.39,5.07-1.75,8.22-1.06
		c2.03,0.44,3.68,1.19,4.94,2.25c1.26,1.06,2.17,2.39,2.72,3.99c0.55,1.6,0.66,3.18,0.32,4.73c-0.18,0.85-0.5,1.66-0.96,2.42
		c-0.45,0.76-1.07,1.51-1.85,2.25c-0.46,0.43-1.47,1.1-3.04,2.01c-1.5,0.87-2.46,1.5-2.88,1.9c-0.42,0.4-0.82,0.96-1.21,1.7
		c-0.38,0.73-0.76,1.78-1.12,3.15L434.6,146l0.19-0.98c0.42-1.93,1.15-3.61,2.2-5.03c1.05-1.42,2.52-2.66,4.4-3.69
		c1.82-1.01,2.94-1.73,3.37-2.17s0.71-0.99,0.86-1.67c0.2-0.92-0.02-1.79-0.65-2.6c-0.63-0.81-1.6-1.35-2.89-1.64
		c-1.33-0.29-2.5-0.13-3.52,0.46C437.54,129.29,436.89,130.2,436.61,131.43z M437.09,149.13c1.05,0.23,1.87,0.78,2.46,1.67
		c0.58,0.88,0.77,1.83,0.54,2.86c-0.22,1.02-0.78,1.82-1.67,2.39c-0.89,0.57-1.86,0.74-2.9,0.51c-1.04-0.23-1.84-0.78-2.41-1.67
		s-0.74-1.84-0.52-2.86c0.22-1.02,0.77-1.82,1.65-2.38C435.11,149.07,436.06,148.9,437.09,149.13z"/>
	<path class="st3" d="M488.81,142.87l-5.71,2.21c-0.73-2.66-1.88-4.28-3.45-4.86c-0.76-0.28-1.46-0.31-2.1-0.08
		c-0.64,0.23-1.05,0.6-1.24,1.11c-0.19,0.51-0.2,1.06-0.02,1.64c0.25,0.78,1.18,2.61,2.81,5.5c1.53,2.67,2.44,4.34,2.74,5
		c0.74,1.62,1.15,3.07,1.24,4.34c0.09,1.27-0.1,2.54-0.58,3.83c-0.92,2.5-2.55,4.25-4.89,5.25s-4.89,0.98-7.68-0.05
		c-2.17-0.8-3.87-2.04-5.09-3.7c-1.22-1.66-1.98-3.85-2.29-6.55l5.97-1.14c0.47,3.24,1.67,5.21,3.58,5.92
		c1,0.37,1.94,0.39,2.84,0.06c0.89-0.33,1.48-0.88,1.76-1.64c0.26-0.69,0.25-1.48,0-2.36c-0.26-0.88-1-2.36-2.22-4.43
		c-2.33-3.94-3.7-6.83-4.13-8.66s-0.37-3.48,0.17-4.95c0.78-2.12,2.26-3.63,4.43-4.55s4.44-0.94,6.81-0.07
		c1.52,0.56,2.84,1.45,3.96,2.67C486.88,138.57,487.9,140.41,488.81,142.87z"/>
	<path class="st3" d="M498.36,142.13l16.05,7.6l-2.59,5.48l-10.5-4.97l-2.52,5.32l10.5,4.97l-2.55,5.38l-10.5-4.97l-3.66,7.74
		l10.5,4.97l-2.6,5.5l-16.05-7.6L498.36,142.13z"/>
	<path class="st3" d="M535.63,161.04c3.91,2.44,6.38,5.95,7.43,10.53c1.05,4.58,0.3,8.9-2.23,12.97c-2.51,4.03-6.03,6.57-10.54,7.63
		s-8.75,0.36-12.71-2.11c-4.14-2.58-6.69-6.17-7.65-10.74c-0.96-4.58-0.2-8.83,2.25-12.78c1.65-2.64,3.8-4.67,6.46-6.09
		s5.51-2.08,8.55-1.98C530.24,158.58,533.05,159.43,535.63,161.04z M532.37,166.15c-2.56-1.59-5.26-2.04-8.11-1.35
		c-2.85,0.69-5.13,2.41-6.84,5.15c-1.9,3.05-2.31,6.15-1.23,9.3c0.84,2.45,2.36,4.36,4.56,5.74c2.49,1.55,5.18,1.98,8.05,1.27
		c2.88-0.71,5.14-2.38,6.79-5.02c1.64-2.63,2.14-5.4,1.51-8.32C536.48,169.98,534.9,167.73,532.37,166.15z"/>
	<path class="st3" d="M556.37,176.02l4.82,3.92l-13.27,16.33c-1.14,1.41-1.83,2.5-2.06,3.28c-0.23,0.78-0.2,1.58,0.08,2.39
		c0.28,0.81,0.82,1.54,1.63,2.19c0.85,0.69,1.73,1.09,2.66,1.2s1.75-0.04,2.48-0.45c0.72-0.41,1.77-1.46,3.15-3.15l12.78-15.73
		l4.82,3.92l-12.24,15.05c-2.06,2.54-3.64,4.19-4.73,4.94c-1.09,0.75-2.41,1.26-3.96,1.52s-3.03,0.18-4.44-0.23
		c-1.41-0.42-2.81-1.19-4.21-2.32c-1.83-1.49-3.08-3.2-3.76-5.15c-0.67-1.94-0.79-3.78-0.34-5.52c0.44-1.74,1.89-4.11,4.33-7.12
		L556.37,176.02z"/>
	<path class="st3" d="M580.38,196.36l4.43,4.33l-18.6,19.06l6.46,6.3l-4.13,4.23l-10.89-10.63L580.38,196.36z"/>
	<path class="st3" d="M615.5,234.45c2.76,3.69,3.8,7.85,3.11,12.5s-2.94,8.41-6.78,11.28c-3.8,2.85-8,3.95-12.59,3.3
		c-4.59-0.65-8.28-2.84-11.08-6.57c-2.93-3.91-4.01-8.17-3.24-12.78c0.77-4.61,3.01-8.31,6.73-11.09c2.49-1.86,5.23-2.98,8.22-3.34
		c2.99-0.36,5.89,0.06,8.69,1.25C611.37,230.2,613.68,232.02,615.5,234.45z M610.61,238.03c-1.8-2.41-4.16-3.81-7.07-4.2
		c-2.91-0.39-5.65,0.39-8.24,2.32c-2.88,2.16-4.39,4.9-4.51,8.22c-0.11,2.59,0.62,4.92,2.17,7c1.76,2.35,4.11,3.72,7.05,4.1
		c2.94,0.38,5.65-0.36,8.14-2.22c2.48-1.86,3.95-4.26,4.42-7.21C613.06,243.08,612.4,240.41,610.61,238.03z"/>
	<path class="st3" d="M629.67,256.24l3.6,6.4c2.32,4.12,3.53,7.47,3.64,10.05c0.1,2.58-0.63,5.16-2.2,7.75
		c-1.57,2.59-3.89,4.75-6.96,6.48c-2.19,1.23-4.4,2-6.64,2.3c-2.24,0.3-4.32,0.16-6.25-0.44s-3.54-1.51-4.84-2.74
		c-1.3-1.23-2.98-3.68-5.05-7.35l-3.65-6.49L629.67,256.24z M627.48,264.53l-17.89,10.06l1.41,2.51c1.39,2.47,2.68,4.1,3.87,4.89
		c1.19,0.79,2.66,1.17,4.39,1.12c1.74-0.05,3.58-0.62,5.54-1.72c3.01-1.69,4.87-3.85,5.58-6.47c0.64-2.36,0.02-5.21-1.87-8.57
		L627.48,264.53z"/>
	<path class="st3" d="M645.83,286.47l7.06,16.3l-5.56,2.41l-4.62-10.66l-5.4,2.34l4.62,10.66l-5.46,2.37l-4.62-10.66l-7.86,3.4
		l4.62,10.66l-5.58,2.42l-7.06-16.3L645.83,286.47z"/>
	<path class="st3" d="M634.08,326.37c0.33,1.02,0.27,2.01-0.19,2.96c-0.46,0.95-1.19,1.59-2.19,1.92c-1,0.33-1.96,0.25-2.91-0.23
		c-0.94-0.48-1.58-1.23-1.91-2.24s-0.26-1.98,0.22-2.92c0.47-0.94,1.21-1.57,2.21-1.9c0.99-0.33,1.96-0.25,2.89,0.22
		C633.12,324.64,633.75,325.38,634.08,326.37z M649.09,317l-1.8-5.51c2.69-0.91,5.22-0.72,7.6,0.58s4.07,3.48,5.07,6.55
		c0.65,1.98,0.83,3.78,0.56,5.4c-0.27,1.63-0.96,3.08-2.06,4.36c-1.1,1.28-2.41,2.17-3.92,2.67c-0.83,0.27-1.68,0.4-2.57,0.4
		s-1.84-0.16-2.87-0.46c-0.6-0.18-1.69-0.71-3.27-1.6c-1.51-0.86-2.54-1.36-3.09-1.52c-0.56-0.16-1.25-0.22-2.07-0.18
		c-0.83,0.04-1.92,0.25-3.28,0.63l-1.87-5.7l0.94-0.33c1.88-0.62,3.7-0.83,5.46-0.65s3.56,0.83,5.42,1.93
		c1.79,1.06,2.98,1.66,3.57,1.81c0.59,0.15,1.22,0.11,1.88-0.1c0.9-0.29,1.53-0.92,1.91-1.87c0.38-0.95,0.36-2.06-0.05-3.32
		c-0.42-1.29-1.15-2.22-2.18-2.8C651.41,316.72,650.3,316.62,649.09,317z"/>
	<path class="st3" d="M665.66,367.8l-4.79-3.8c1.92-1.98,2.74-3.79,2.44-5.44c-0.14-0.8-0.47-1.42-0.99-1.85
		c-0.52-0.43-1.05-0.6-1.58-0.5c-0.54,0.1-1.01,0.37-1.43,0.82c-0.55,0.61-1.66,2.34-3.31,5.21c-1.53,2.67-2.5,4.3-2.92,4.89
		c-1.03,1.46-2.06,2.55-3.11,3.27s-2.25,1.2-3.59,1.44c-2.63,0.47-4.96-0.05-7-1.56s-3.32-3.73-3.84-6.65
		c-0.41-2.28-0.21-4.37,0.61-6.26s2.31-3.66,4.49-5.29l4.01,4.57c-2.55,2.05-3.65,4.07-3.29,6.08c0.19,1.05,0.65,1.87,1.39,2.48
		c0.74,0.6,1.5,0.83,2.3,0.69c0.73-0.13,1.4-0.53,2.03-1.2c0.63-0.67,1.53-2.05,2.7-4.15c2.22-4,4.01-6.65,5.38-7.94
		c1.36-1.29,2.81-2.08,4.35-2.35c2.22-0.4,4.28,0.11,6.17,1.52c1.89,1.41,3.06,3.36,3.51,5.84c0.29,1.6,0.19,3.19-0.29,4.77
		S667.31,365.76,665.66,367.8z"/>
	<path class="st3" d="M671.12,375.64l1.58,17.69l-6.04,0.54l-1.03-11.57l-5.86,0.52l1.03,11.57l-5.93,0.53l-1.03-11.57l-8.53,0.76
		l1.03,11.57l-6.06,0.54l-1.58-17.69L671.12,375.64z"/>
	<path class="st3" d="M673.74,417.3c-0.11,4.6-1.87,8.52-5.29,11.75c-3.41,3.23-7.51,4.79-12.31,4.67
		c-4.75-0.12-8.72-1.85-11.93-5.2c-3.21-3.35-4.76-7.35-4.64-12.01c0.12-4.88,1.91-8.9,5.36-12.05c3.45-3.15,7.5-4.67,12.15-4.55
		c3.11,0.08,5.95,0.9,8.52,2.47c2.57,1.57,4.59,3.69,6.05,6.36C673.12,411.41,673.81,414.26,673.74,417.3z M667.68,417.09
		c0.07-3.01-0.91-5.57-2.96-7.67c-2.04-2.1-4.68-3.19-7.91-3.27c-3.6-0.09-6.47,1.13-8.63,3.67c-1.69,1.97-2.56,4.25-2.62,6.85
		c-0.07,2.94,0.93,5.46,3,7.58s4.66,3.21,7.77,3.29c3.1,0.07,5.74-0.9,7.94-2.93C666.48,422.57,667.61,420.07,667.68,417.09z"/>
	<path class="st3" d="M671.39,442.8l-0.92,6.15l-20.81-3.12c-1.79-0.27-3.08-0.3-3.87-0.1c-0.79,0.2-1.46,0.63-2.01,1.29
		c-0.55,0.66-0.91,1.49-1.06,2.51c-0.16,1.08-0.05,2.05,0.32,2.9c0.38,0.85,0.93,1.49,1.65,1.9c0.72,0.41,2.16,0.78,4.32,1.11
		l20.04,3.01l-0.92,6.15l-19.18-2.88c-3.24-0.49-5.46-1-6.66-1.56c-1.2-0.55-2.31-1.43-3.32-2.63c-1.01-1.2-1.7-2.52-2.06-3.94
		c-0.36-1.43-0.41-3.03-0.14-4.81c0.35-2.33,1.19-4.28,2.52-5.85s2.86-2.6,4.58-3.1c1.72-0.5,4.5-0.46,8.34,0.11L671.39,442.8z"/>
	<path class="st3" d="M666.08,473.85l-1.48,6.01l-25.87-6.35l-2.15,8.76l-5.74-1.41l3.63-14.78L666.08,473.85z"/>
	<path class="st3" d="M651.05,523.47c-1.78,4.25-4.85,7.25-9.21,9.01c-4.36,1.76-8.74,1.72-13.16-0.14
		c-4.38-1.84-7.45-4.9-9.22-9.19c-1.77-4.29-1.75-8.58,0.06-12.88c1.89-4.5,5.02-7.59,9.38-9.26c4.36-1.67,8.69-1.61,12.97,0.19
		c2.87,1.2,5.21,3.01,7.04,5.4c1.82,2.4,2.93,5.11,3.32,8.13C652.62,517.76,652.23,520.67,651.05,523.47z M645.49,521.07
		c1.17-2.78,1.18-5.52,0.04-8.22s-3.19-4.68-6.17-5.93c-3.32-1.39-6.44-1.3-9.37,0.27c-2.29,1.22-3.93,3.02-4.94,5.42
		c-1.14,2.71-1.13,5.43,0.03,8.15c1.16,2.73,3.17,4.69,6.04,5.9c2.86,1.2,5.67,1.25,8.46,0.17
		C642.37,525.73,644.33,523.82,645.49,521.07z"/>
	<path class="st3" d="M639.42,546.72l-3.7,6.34c-2.38,4.08-4.66,6.82-6.83,8.22c-2.17,1.39-4.77,2.07-7.8,2.02
		c-3.03-0.04-6.07-0.96-9.11-2.73c-2.17-1.26-3.95-2.79-5.34-4.56c-1.4-1.78-2.32-3.65-2.78-5.62s-0.49-3.82-0.08-5.56
		c0.4-1.74,1.67-4.44,3.79-8.08l3.75-6.43L639.42,546.72z M631.16,549.02l-17.73-10.35l-1.45,2.48c-1.43,2.45-2.18,4.38-2.26,5.81
		c-0.08,1.43,0.34,2.88,1.25,4.36c0.92,1.47,2.34,2.78,4.28,3.91c2.98,1.74,5.78,2.26,8.4,1.55c2.36-0.64,4.5-2.62,6.44-5.95
		L631.16,549.02z"/>
	<path class="st3" d="M621.52,575.94l-10.48,14.34l-4.89-3.58l6.85-9.38l-4.75-3.47l-6.85,9.37l-4.8-3.51l6.85-9.37l-6.91-5.05
		l-6.85,9.37l-4.91-3.59l10.48-14.34L621.52,575.94z"/>
	<path class="st3" d="M581.17,586c-0.71,0.81-1.6,1.25-2.65,1.33c-1.06,0.08-1.98-0.22-2.76-0.92c-0.79-0.69-1.21-1.57-1.27-2.62
		s0.26-1.98,0.96-2.78c0.7-0.8,1.58-1.23,2.63-1.29s1.97,0.25,2.75,0.94c0.79,0.69,1.21,1.56,1.28,2.6
		C582.17,584.3,581.86,585.22,581.17,586z M596.85,594.2l3.83-4.35c2.15,1.86,3.27,4.14,3.35,6.85c0.08,2.71-0.94,5.27-3.08,7.7
		c-1.38,1.56-2.83,2.63-4.37,3.22c-1.54,0.59-3.14,0.73-4.81,0.44c-1.66-0.3-3.09-0.97-4.29-2.03c-0.65-0.58-1.2-1.25-1.65-2.01
		s-0.8-1.67-1.06-2.71c-0.15-0.61-0.25-1.82-0.28-3.63c-0.03-1.73-0.11-2.88-0.26-3.44c-0.14-0.56-0.44-1.19-0.89-1.88
		s-1.19-1.53-2.21-2.51l3.96-4.5l0.76,0.64c1.48,1.31,2.59,2.76,3.32,4.37s1.1,3.49,1.08,5.64c0,2.08,0.08,3.41,0.25,4
		c0.17,0.58,0.52,1.11,1.04,1.56c0.71,0.62,1.57,0.86,2.58,0.7s1.96-0.73,2.84-1.73c0.9-1.02,1.33-2.12,1.31-3.3
		C598.27,596.05,597.79,595.04,596.85,594.2z"/>
	<path class="st3" d="M561.52,634.25l0.84-6.06c2.68,0.65,4.66,0.43,5.92-0.66c0.62-0.53,0.98-1.13,1.09-1.8
		c0.11-0.67-0.02-1.21-0.37-1.62c-0.36-0.41-0.83-0.68-1.43-0.81c-0.8-0.17-2.86-0.23-6.17-0.21c-3.08,0.04-4.98,0.03-5.7-0.03
		c-1.78-0.14-3.24-0.48-4.4-1.02c-1.15-0.54-2.18-1.32-3.07-2.36c-1.74-2.02-2.48-4.3-2.22-6.82s1.52-4.75,3.77-6.69
		c1.76-1.51,3.66-2.4,5.7-2.66c2.04-0.26,4.32,0.13,6.84,1.18l-1.9,5.78c-3.06-1.16-5.37-1.07-6.91,0.26
		c-0.81,0.69-1.28,1.51-1.43,2.45s0.05,1.72,0.58,2.33c0.48,0.56,1.17,0.94,2.06,1.14c0.9,0.2,2.54,0.27,4.95,0.21
		c4.57-0.12,7.76,0.08,9.57,0.59c1.81,0.52,3.22,1.37,4.24,2.55c1.47,1.71,2.08,3.74,1.83,6.08c-0.25,2.35-1.33,4.34-3.25,5.99
		c-1.23,1.06-2.65,1.78-4.25,2.17C566.22,634.64,564.12,634.64,561.52,634.25z"/>
	<path class="st3" d="M557.56,642.94l-14.43,10.36l-3.54-4.92l9.43-6.77l-3.43-4.78l-9.43,6.78l-3.47-4.83l9.43-6.77l-4.99-6.95
		l-9.43,6.78l-3.55-4.94l14.43-10.36L557.56,642.94z"/>
	<path class="st3" d="M522.98,666.39c-4.02,2.24-8.29,2.71-12.81,1.41s-7.94-4.04-10.27-8.23c-2.31-4.15-2.84-8.46-1.58-12.92
		c1.26-4.46,3.92-7.83,8-10.1c4.27-2.38,8.63-2.87,13.1-1.5s7.83,4.1,10.09,8.16c1.51,2.72,2.25,5.58,2.2,8.6s-0.85,5.83-2.41,8.44
		C527.75,662.87,525.64,664.92,522.98,666.39z M520.09,661.07c2.63-1.46,4.33-3.61,5.11-6.44s0.38-5.65-1.2-8.47
		c-1.75-3.14-4.26-5-7.54-5.58c-2.55-0.45-4.96-0.05-7.23,1.21c-2.57,1.43-4.24,3.57-5.01,6.43c-0.77,2.86-0.4,5.65,1.11,8.37
		c1.51,2.71,3.69,4.49,6.55,5.35C514.75,662.81,517.49,662.52,520.09,661.07z"/>
	<path class="st3" d="M499.79,677.32l-5.77,2.32l-7.85-19.52c-0.68-1.68-1.3-2.81-1.88-3.39c-0.57-0.58-1.28-0.94-2.13-1.09
		s-1.75-0.02-2.7,0.36c-1.01,0.41-1.79,0.99-2.34,1.75c-0.55,0.76-0.81,1.55-0.81,2.38c0.01,0.83,0.42,2.26,1.23,4.28l7.56,18.81
		l-5.77,2.32l-7.23-18c-1.22-3.04-1.9-5.21-2.03-6.53c-0.13-1.31,0.07-2.71,0.59-4.19c0.53-1.48,1.31-2.74,2.36-3.77
		c1.05-1.03,2.41-1.88,4.07-2.56c2.19-0.88,4.3-1.14,6.32-0.79c2.03,0.35,3.69,1.15,5,2.38c1.31,1.23,2.68,3.65,4.13,7.25
		L499.79,677.32z"/>
	<path class="st3" d="M470.34,688.45l-5.93,1.77l-7.62-25.52l-8.65,2.58l-1.69-5.66l14.58-4.35L470.34,688.45z"/>
	<path class="st3" d="M419.92,700.61c-4.56,0.61-8.71-0.51-12.43-3.37c-3.73-2.86-5.91-6.67-6.55-11.42
		c-0.63-4.71,0.45-8.91,3.25-12.6s6.51-5.85,11.13-6.47c4.84-0.65,9.09,0.48,12.74,3.4c3.65,2.92,5.79,6.68,6.41,11.28
		c0.42,3.08,0.05,6.02-1.09,8.81c-1.14,2.79-2.92,5.11-5.33,6.98C425.65,699.07,422.94,700.21,419.92,700.61z M419.18,694.6
		c2.98-0.4,5.35-1.78,7.11-4.12c1.75-2.35,2.42-5.12,1.99-8.32c-0.48-3.57-2.14-6.21-4.98-7.95c-2.21-1.35-4.6-1.86-7.17-1.51
		c-2.91,0.39-5.25,1.78-7.01,4.16c-1.77,2.38-2.44,5.11-2.03,8.2c0.41,3.07,1.79,5.53,4.14,7.38
		C413.58,694.27,416.23,694.99,419.18,694.6z"/>
	<path class="st3" d="M394.39,702.21l-7.34,0.12c-4.73,0.08-8.25-0.45-10.57-1.59c-2.32-1.13-4.24-3.01-5.77-5.62
		c-1.53-2.62-2.33-5.68-2.38-9.21c-0.04-2.51,0.34-4.82,1.14-6.93c0.8-2.11,1.92-3.88,3.36-5.29c1.44-1.41,3.01-2.39,4.71-2.95
		c1.7-0.56,4.66-0.87,8.87-0.94l7.45-0.12L394.39,702.21z M388.14,696.34l-0.33-20.52l-2.88,0.05c-2.83,0.05-4.88,0.4-6.14,1.07
		c-1.26,0.67-2.29,1.78-3.08,3.33s-1.16,3.44-1.12,5.69c0.06,3.45,1.07,6.12,3.03,7.99c1.77,1.68,4.58,2.5,8.42,2.43L388.14,696.34z
		"/>
	<path class="st3" d="M359.82,701.8l-17.68-1.73l0.59-6.03l11.56,1.13l0.57-5.86l-11.56-1.13l0.58-5.92l11.56,1.13l0.83-8.52
		l-11.56-1.13l0.59-6.05l17.68,1.73L359.82,701.8z"/>
	<path class="st3" d="M331.52,689.85l5.69,1.09c-0.5,2.79-1.9,4.92-4.19,6.37c-2.29,1.45-5.02,1.87-8.19,1.26
		c-2.04-0.39-3.71-1.1-5-2.13s-2.23-2.33-2.82-3.92c-0.59-1.58-0.74-3.16-0.44-4.72c0.16-0.85,0.46-1.67,0.9-2.44
		c0.43-0.77,1.03-1.54,1.79-2.29c0.44-0.44,1.44-1.14,2.99-2.09c1.48-0.9,2.42-1.56,2.83-1.97c0.41-0.41,0.8-0.98,1.16-1.73
		c0.37-0.74,0.71-1.8,1.04-3.18l5.89,1.13l-0.17,0.98c-0.37,1.94-1.06,3.64-2.08,5.09s-2.45,2.72-4.31,3.8
		c-1.79,1.05-2.9,1.8-3.31,2.25c-0.42,0.45-0.69,1.01-0.82,1.69c-0.18,0.93,0.06,1.79,0.71,2.58c0.65,0.79,1.63,1.31,2.93,1.56
		c1.33,0.25,2.5,0.07,3.51-0.55C330.64,692.01,331.26,691.08,331.52,689.85z M330.6,672.17c-1.06-0.2-1.89-0.74-2.5-1.6
		s-0.81-1.81-0.62-2.84c0.2-1.03,0.73-1.84,1.61-2.43s1.84-0.79,2.88-0.59c1.04,0.2,1.86,0.74,2.45,1.61
		c0.59,0.87,0.79,1.82,0.59,2.85s-0.73,1.83-1.59,2.42S331.62,672.37,330.6,672.17z"/>
	<path class="st3" d="M279.03,679.72l5.65-2.35c0.8,2.64,1.99,4.23,3.57,4.77c0.77,0.26,1.47,0.27,2.1,0.03s1.03-0.63,1.21-1.14
		c0.18-0.52,0.17-1.06-0.02-1.64c-0.27-0.78-1.25-2.58-2.95-5.42c-1.6-2.63-2.55-4.28-2.86-4.93c-0.78-1.61-1.23-3.04-1.35-4.31
		c-0.12-1.26,0.04-2.55,0.48-3.84c0.86-2.53,2.45-4.32,4.76-5.37c2.31-1.05,4.87-1.1,7.67-0.14c2.19,0.75,3.92,1.94,5.18,3.57
		s2.08,3.79,2.45,6.49l-5.94,1.29c-0.55-3.23-1.79-5.17-3.72-5.83c-1.01-0.34-1.95-0.34-2.84,0.01c-0.88,0.35-1.46,0.91-1.72,1.68
		c-0.24,0.7-0.22,1.48,0.06,2.36c0.28,0.87,1.05,2.33,2.33,4.37c2.42,3.88,3.87,6.73,4.34,8.55c0.47,1.82,0.45,3.47-0.05,4.95
		c-0.73,2.14-2.17,3.69-4.32,4.66s-4.42,1.05-6.81,0.24c-1.54-0.52-2.88-1.38-4.03-2.57C281.07,683.97,280.01,682.16,279.03,679.72z
		"/>
	<path class="st3" d="M269.53,680.7l-16.24-7.2l2.46-5.54l10.62,4.71l2.38-5.38l-10.62-4.71l2.41-5.44l10.62,4.71l3.47-7.83
		l-10.62-4.71l2.47-5.56l16.24,7.2L269.53,680.7z"/>
	<path class="st3" d="M231.8,662.73c-3.97-2.34-6.53-5.78-7.69-10.34c-1.16-4.55-0.52-8.89,1.91-13.02
		c2.41-4.09,5.86-6.72,10.35-7.9s8.74-0.58,12.75,1.79c4.21,2.48,6.85,6,7.91,10.55c1.07,4.55,0.42,8.83-1.94,12.83
		c-1.58,2.68-3.68,4.76-6.3,6.25c-2.62,1.48-5.46,2.21-8.5,2.19C237.25,665.06,234.41,664.28,231.8,662.73z M234.93,657.55
		c2.59,1.53,5.31,1.91,8.14,1.15c2.83-0.76,5.07-2.53,6.71-5.32c1.83-3.1,2.16-6.21,1-9.32c-0.9-2.43-2.47-4.3-4.7-5.62
		c-2.53-1.49-5.22-1.85-8.08-1.07c-2.86,0.78-5.08,2.51-6.66,5.19c-1.57,2.67-2.01,5.45-1.3,8.36S232.36,656.03,234.93,657.55z"/>
	<path class="st3" d="M210.68,648.27l-4.92-3.8l12.86-16.65c1.11-1.43,1.77-2.54,1.97-3.33c0.21-0.79,0.16-1.58-0.14-2.39
		c-0.3-0.8-0.86-1.52-1.68-2.15c-0.86-0.67-1.76-1.04-2.69-1.13c-0.93-0.09-1.75,0.08-2.46,0.51c-0.71,0.43-1.73,1.5-3.07,3.23
		l-12.39,16.04l-4.92-3.8l11.86-15.35c2-2.59,3.54-4.28,4.6-5.05c1.07-0.78,2.37-1.32,3.92-1.61c1.54-0.3,3.03-0.26,4.45,0.12
		c1.42,0.38,2.84,1.12,4.27,2.22c1.87,1.44,3.16,3.13,3.88,5.05c0.72,1.93,0.88,3.76,0.48,5.51s-1.79,4.16-4.16,7.23L210.68,648.27z
		"/>
	<path class="st3" d="M186.17,628.53l-4.54-4.22l18.13-19.51l-6.61-6.14l4.02-4.33l11.15,10.36L186.17,628.53z"/>
	<path class="st3" d="M150.1,591.31c-2.85-3.62-3.99-7.76-3.42-12.42c0.57-4.66,2.73-8.48,6.5-11.45c3.73-2.94,7.9-4.14,12.5-3.61
		c4.61,0.53,8.35,2.63,11.24,6.29c3.02,3.84,4.21,8.07,3.56,12.7c-0.65,4.63-2.8,8.38-6.45,11.25c-2.44,1.93-5.16,3.11-8.14,3.54
		c-2.98,0.43-5.89,0.09-8.72-1.04C154.34,595.45,151.98,593.7,150.1,591.31z M154.9,587.61c1.86,2.37,4.25,3.71,7.17,4.02
		c2.92,0.32,5.64-0.53,8.18-2.52c2.83-2.23,4.26-5,4.31-8.33c0.04-2.59-0.74-4.9-2.35-6.95c-1.82-2.31-4.2-3.62-7.15-3.92
		c-2.95-0.31-5.64,0.5-8.09,2.43c-2.43,1.92-3.85,4.36-4.24,7.32S153.06,585.27,154.9,587.61z"/>
	<path class="st3" d="M135.42,569.91l-3.76-6.3c-2.42-4.06-3.72-7.38-3.89-9.96s0.5-5.18,2-7.81c1.51-2.63,3.77-4.85,6.8-6.65
		c2.15-1.28,4.35-2.11,6.58-2.47c2.23-0.36,4.32-0.27,6.26,0.28c1.94,0.55,3.58,1.42,4.91,2.62c1.33,1.2,3.08,3.6,5.23,7.22
		l3.81,6.4L135.42,569.91z M137.4,561.57l17.63-10.51l-1.47-2.47c-1.45-2.43-2.78-4.03-3.99-4.79c-1.21-0.76-2.68-1.1-4.42-1.01
		s-3.56,0.71-5.49,1.86c-2.97,1.77-4.77,3.97-5.42,6.6c-0.58,2.37,0.11,5.21,2.09,8.52L137.4,561.57z"/>
	<path class="st3" d="M118.5,540.09l-7.47-16.12l5.5-2.55l4.88,10.54l5.34-2.47l-4.88-10.54l5.4-2.5l4.88,10.54l7.77-3.6
		l-4.88-10.54l5.52-2.56l7.47,16.12L118.5,540.09z"/>
	<path class="st3" d="M114.48,509.66l1.94,5.46c-2.67,0.98-5.2,0.85-7.61-0.39c-2.41-1.24-4.16-3.38-5.24-6.42
		c-0.7-1.96-0.93-3.75-0.7-5.39c0.23-1.63,0.88-3.1,1.95-4.42c1.07-1.31,2.35-2.23,3.85-2.77c0.82-0.29,1.67-0.45,2.56-0.46
		c0.89-0.02,1.85,0.11,2.88,0.38c0.6,0.16,1.71,0.67,3.31,1.52c1.53,0.82,2.57,1.3,3.13,1.44c0.56,0.15,1.25,0.19,2.08,0.13
		s1.91-0.3,3.27-0.72l2.01,5.65l-0.93,0.35c-1.86,0.66-3.67,0.92-5.44,0.79s-3.58-0.74-5.46-1.79c-1.82-1.01-3.02-1.59-3.62-1.72
		c-0.59-0.13-1.22-0.08-1.87,0.15c-0.89,0.32-1.51,0.96-1.86,1.92c-0.35,0.96-0.31,2.07,0.14,3.32c0.45,1.28,1.2,2.19,2.25,2.74
		C112.17,509.99,113.29,510.06,114.48,509.66z M129.26,499.91c-0.36-1.01-0.32-2,0.12-2.97s1.15-1.62,2.14-1.97
		c0.99-0.35,1.96-0.3,2.91,0.16s1.61,1.19,1.96,2.19c0.36,1,0.31,1.98-0.14,2.93s-1.17,1.6-2.16,1.95c-0.99,0.35-1.95,0.3-2.89-0.14
		S129.61,500.9,129.26,499.91z"/>
	<path class="st3" d="M96.63,459.25l4.89,3.68c-1.87,2.03-2.64,3.86-2.31,5.49c0.16,0.8,0.51,1.4,1.04,1.82
		c0.53,0.42,1.06,0.57,1.6,0.46c0.53-0.11,1-0.39,1.41-0.85c0.54-0.62,1.6-2.39,3.18-5.29c1.46-2.71,2.39-4.37,2.8-4.96
		c0.99-1.48,2-2.6,3.03-3.35c1.03-0.75,2.22-1.26,3.56-1.53c2.61-0.54,4.96-0.08,7.04,1.38c2.08,1.46,3.41,3.64,4.01,6.55
		c0.47,2.27,0.31,4.36-0.45,6.27c-0.77,1.91-2.22,3.71-4.36,5.4l-4.12-4.47c2.5-2.11,3.55-4.17,3.14-6.16
		c-0.21-1.04-0.7-1.85-1.45-2.44c-0.75-0.58-1.53-0.79-2.32-0.63c-0.72,0.15-1.39,0.56-2,1.25c-0.61,0.68-1.48,2.09-2.59,4.22
		c-2.12,4.05-3.85,6.75-5.18,8.07c-1.33,1.33-2.76,2.15-4.29,2.46c-2.21,0.45-4.28,0-6.21-1.36c-1.93-1.36-3.14-3.28-3.65-5.75
		c-0.33-1.59-0.27-3.18,0.17-4.77S95.03,461.33,96.63,459.25z"/>
	<path class="st3" d="M90.98,451.57l-2.02-17.65l6.02-0.69l1.32,11.54l5.85-0.67l-1.32-11.54l5.91-0.68l1.32,11.54l8.5-0.97
		l-1.32-11.54l6.04-0.69l2.02,17.65L90.98,451.57z"/>
	<path class="st3" d="M87.34,410.63c-0.07-4.6,1.53-8.59,4.81-11.95c3.28-3.37,7.31-5.09,12.11-5.17c4.75-0.08,8.79,1.49,12.13,4.71
		c3.34,3.21,5.05,7.15,5.12,11.82c0.08,4.88-1.54,8.97-4.87,12.25c-3.32,3.29-7.31,4.97-11.95,5.04c-3.11,0.05-5.98-0.66-8.62-2.12
		s-4.74-3.5-6.3-6.11S87.39,413.67,87.34,410.63z M93.4,410.6c0.05,3.01,1.14,5.53,3.26,7.54s4.81,3,8.03,2.95
		c3.6-0.06,6.42-1.4,8.47-4.01c1.6-2.03,2.39-4.35,2.34-6.95c-0.05-2.94-1.15-5.42-3.31-7.45c-2.16-2.03-4.79-3.02-7.9-2.97
		c-3.1,0.05-5.7,1.13-7.81,3.25C94.38,405.07,93.35,407.62,93.4,410.6z"/>
	<path class="st3" d="M89.05,384.45l0.77-6.17l20.88,2.6c1.8,0.22,3.09,0.23,3.88,0c0.78-0.22,1.45-0.67,1.98-1.34s0.87-1.52,1-2.54
		c0.13-1.08,0-2.05-0.4-2.89c-0.4-0.84-0.96-1.46-1.69-1.86c-0.73-0.4-2.18-0.73-4.34-1L91,368.75l0.77-6.17l19.25,2.4
		c3.25,0.4,5.48,0.87,6.69,1.39c1.21,0.52,2.34,1.37,3.38,2.55c1.04,1.18,1.76,2.47,2.16,3.89s0.48,3.02,0.26,4.8
		c-0.29,2.34-1.08,4.31-2.37,5.91s-2.79,2.67-4.5,3.22c-1.71,0.54-4.49,0.58-8.34,0.1L89.05,384.45z"/>
	<path class="st3" d="M93.58,353.29l1.32-6.05l26.02,5.7l1.93-8.82l5.77,1.26l-3.25,14.87L93.58,353.29z"/>
	<path class="st3" d="M107.36,303.29c1.67-4.29,4.67-7.37,8.98-9.24s8.7-1.94,13.16-0.19c4.42,1.73,7.57,4.71,9.45,8.95
		c1.87,4.24,1.96,8.53,0.27,12.88c-1.78,4.55-4.83,7.72-9.15,9.5c-4.32,1.78-8.65,1.83-12.97,0.14c-2.9-1.13-5.29-2.87-7.17-5.23
		c-1.88-2.35-3.06-5.03-3.52-8.04C105.93,309.04,106.25,306.12,107.36,303.29z M112.98,305.56c-1.1,2.81-1.04,5.54,0.16,8.22
		c1.2,2.67,3.31,4.6,6.32,5.77c3.35,1.31,6.47,1.14,9.36-0.5c2.25-1.27,3.86-3.12,4.8-5.54c1.07-2.74,0.99-5.45-0.24-8.15
		s-3.29-4.61-6.19-5.74c-2.88-1.13-5.71-1.11-8.46,0.05C115.99,300.81,114.07,302.78,112.98,305.56z"/>
	<path class="st3" d="M118.42,279.74l3.54-6.43c2.28-4.14,4.49-6.94,6.62-8.39c2.14-1.45,4.72-2.19,7.75-2.22
		c3.03-0.03,6.09,0.8,9.18,2.5c2.2,1.21,4.01,2.69,5.45,4.43c1.44,1.74,2.41,3.59,2.92,5.54c0.51,1.95,0.58,3.81,0.22,5.56
		c-0.36,1.75-1.56,4.48-3.59,8.17l-3.59,6.52L118.42,279.74z M126.61,277.23l17.98,9.9l1.39-2.52c1.37-2.48,2.07-4.44,2.12-5.87
		c0.05-1.43-0.41-2.87-1.36-4.32c-0.95-1.45-2.41-2.72-4.38-3.8c-3.03-1.67-5.84-2.11-8.44-1.34c-2.34,0.7-4.44,2.73-6.29,6.1
		L126.61,277.23z"/>
	<path class="st3" d="M135.58,250.08l10.12-14.59l4.98,3.46l-6.62,9.54l4.83,3.35l6.62-9.54l4.89,3.39l-6.62,9.54l7.03,4.88
		l6.62-9.54l5,3.47l-10.12,14.59L135.58,250.08z"/>
	<path class="st3" d="M159.78,231.23l-3.72,4.44c-2.2-1.8-3.37-4.05-3.52-6.76c-0.15-2.71,0.81-5.3,2.88-7.77
		c1.34-1.59,2.77-2.7,4.29-3.33c1.53-0.63,3.12-0.81,4.8-0.56c1.67,0.26,3.12,0.9,4.34,1.92c0.67,0.56,1.23,1.22,1.7,1.97
		c0.46,0.75,0.84,1.65,1.13,2.68c0.17,0.6,0.29,1.81,0.37,3.63c0.07,1.73,0.18,2.88,0.34,3.43c0.16,0.56,0.47,1.17,0.94,1.86
		s1.23,1.5,2.27,2.45l-3.85,4.59l-0.78-0.62c-1.51-1.27-2.66-2.7-3.43-4.29s-1.18-3.46-1.22-5.62c-0.05-2.08-0.16-3.41-0.35-3.99
		c-0.19-0.58-0.55-1.09-1.08-1.54c-0.72-0.61-1.59-0.82-2.6-0.63s-1.94,0.78-2.79,1.8c-0.87,1.04-1.28,2.15-1.23,3.33
		C158.32,229.4,158.83,230.4,159.78,231.23z M175.67,239.03c0.69-0.82,1.56-1.29,2.62-1.4c1.05-0.11,1.98,0.17,2.78,0.85
		c0.8,0.67,1.25,1.54,1.34,2.59c0.09,1.05-0.21,1.99-0.89,2.8c-0.68,0.81-1.55,1.27-2.6,1.36c-1.05,0.09-1.97-0.2-2.78-0.87
		c-0.8-0.67-1.25-1.53-1.34-2.57C174.71,240.75,175,239.83,175.67,239.03z"/>
	<path class="st3" d="M194.11,190.31l-0.69,6.08c-2.7-0.58-4.67-0.31-5.9,0.81c-0.6,0.54-0.95,1.15-1.04,1.82
		c-0.09,0.67,0.05,1.21,0.41,1.61c0.37,0.4,0.85,0.66,1.45,0.78c0.81,0.14,2.87,0.16,6.17,0.05c3.08-0.12,4.98-0.16,5.7-0.11
		c1.78,0.1,3.26,0.4,4.42,0.91c1.17,0.51,2.21,1.27,3.13,2.29c1.79,1.98,2.59,4.23,2.38,6.76s-1.4,4.79-3.6,6.78
		c-1.72,1.56-3.6,2.49-5.63,2.8c-2.04,0.31-4.33-0.02-6.87-1.01l1.75-5.82c3.09,1.08,5.39,0.94,6.9-0.43
		c0.79-0.71,1.24-1.54,1.36-2.49c0.12-0.94-0.09-1.72-0.63-2.32c-0.49-0.55-1.19-0.91-2.09-1.09s-2.55-0.21-4.95-0.09
		c-4.57,0.24-7.76,0.12-9.58-0.35c-1.82-0.47-3.25-1.29-4.3-2.45c-1.51-1.67-2.17-3.69-1.98-6.04c0.19-2.35,1.22-4.37,3.1-6.07
		c1.2-1.09,2.6-1.85,4.2-2.28S191.51,189.98,194.11,190.31z"/>
	<path class="st3" d="M197.87,181.51l14.16-10.72l3.66,4.83l-9.26,7.01l3.55,4.69l9.26-7.01l3.59,4.75l-9.26,7.01l5.17,6.83
		l9.26-7.01l3.67,4.85l-14.17,10.72L197.87,181.51z"/>
	<path class="st3" d="M231.84,157.21c3.97-2.34,8.22-2.91,12.77-1.73c4.55,1.19,8.04,3.85,10.47,7.97c2.41,4.09,3.05,8.38,1.9,12.87
		c-1.14,4.49-3.73,7.92-7.74,10.29c-4.21,2.48-8.56,3.09-13.06,1.82c-4.5-1.27-7.93-3.9-10.29-7.9c-1.58-2.68-2.39-5.53-2.42-8.54
		c-0.03-3.01,0.7-5.85,2.2-8.5S229.22,158.76,231.84,157.21z M234.86,162.47c-2.59,1.53-4.24,3.72-4.95,6.56
		c-0.7,2.85-0.23,5.66,1.41,8.44c1.83,3.1,4.39,4.89,7.68,5.39c2.56,0.39,4.96-0.08,7.2-1.4c2.53-1.49,4.15-3.68,4.85-6.56
		c0.7-2.88,0.26-5.66-1.32-8.34c-1.57-2.67-3.8-4.4-6.68-5.19C240.16,160.59,237.43,160.95,234.86,162.47z"/>
	<path class="st3" d="M254.75,145.72l5.71-2.46l8.33,19.32c0.72,1.66,1.37,2.78,1.96,3.34s1.31,0.91,2.16,1.03
		c0.85,0.12,1.75-0.02,2.69-0.43c1-0.43,1.77-1.03,2.29-1.81c0.53-0.77,0.77-1.57,0.75-2.4c-0.03-0.83-0.48-2.25-1.34-4.25
		l-8.03-18.61l5.71-2.46l7.68,17.81c1.3,3.01,2.03,5.16,2.19,6.47c0.16,1.31,0,2.71-0.49,4.21s-1.24,2.77-2.26,3.83
		s-2.36,1.94-4.01,2.66c-2.17,0.93-4.27,1.25-6.3,0.95c-2.03-0.3-3.72-1.05-5.05-2.25s-2.77-3.58-4.31-7.14L254.75,145.72z"/>
	<path class="st3" d="M283.89,133.86l5.89-1.92l8.26,25.32l8.58-2.8l1.83,5.61l-14.47,4.72L283.89,133.86z"/>
</g>
<path class="st4" d="M492.7,399.91c-14.98,8.81-37.15-1.1-37.15-1.1s2.11-24.19,17.08-33.01c14.98-8.81,37.15,1.1,37.15,1.1
	S507.68,391.1,492.7,399.91z"/>
<path class="st4" d="M458.35,354.89c6.11,12.36-2.05,28.85-2.05,28.85s-18.06-3.54-24.16-15.89c-6.11-12.36,2.05-28.85,2.05-28.85
	S452.24,342.53,458.35,354.89z"/>
</svg>
