<?xml version="1.0" encoding="utf-8"?>
<!-- Generator: Adobe Illustrator 27.4.0, SVG Export Plug-In . SVG Version: 6.00 Build 0)  -->
<svg version="1.1" id="레이어_1" xmlns="http://www.w3.org/2000/svg" xmlns:xlink="http://www.w3.org/1999/xlink" x="0px"
	 y="0px" viewBox="0 0 762.52 822.05" style="enable-background:new 0 0 762.52 822.05;" xml:space="preserve">
<style type="text/css">
	.st0{fill:none;stroke:#463C33;stroke-width:3;stroke-miterlimit:10;}
	.st1{fill:none;stroke:#463C33;stroke-width:3;stroke-linecap:round;stroke-linejoin:round;stroke-dasharray:3.001,6.0021;}
	.st2{fill:none;}
	.st3{fill:none;stroke:#463C33;stroke-width:4;stroke-miterlimit:10;}
	.st4{fill:none;stroke:#463C33;stroke-width:4;stroke-linecap:round;stroke-linejoin:round;stroke-miterlimit:10;}
	.st5{fill:#ABB868;}
</style>
<g>
	<g>
		<g>
			<circle class="st0" cx="381.26" cy="411.02" r="320.74"/>
			<circle class="st0" cx="381.26" cy="411.02" r="251.06"/>
			<circle class="st0" cx="381.26" cy="411.02" r="225.84"/>
			<g>
				<circle class="st1" cx="381.26" cy="411.02" r="237.85"/>
			</g>
		</g>
		<path id="SVGID_x5F_1_x5F_" class="st2" d="M644.85,411.57c0,144.63-117.25,261.87-261.87,261.87S121.1,556.19,121.1,411.57
			s117.25-261.87,261.87-261.87S644.85,266.94,644.85,411.57z"/>
		<text>		<textPath  xlink:href="#SVGID_x5F_1_x5F_" startOffset="96.289%">
<tspan  style="fill:#463C33; font-family:'CenturyGothic-Bold'; font-size:45.6479px;">ODE? SEOUL ODE? SEOUL ODE? SEOUL ODE? SEOUL ODE? SEOUL ODE? SEOUL</tspan>		</textPath>
</text>
	</g>
	<g>
		<path class="st3" d="M419.74,432.21c-1.2,1.28,0.03,3.33,0.9,4.42c2.73,3.39,6.35,6.01,9.16,9.33c0.31,0.37,0.61,0.73,0.89,1.11
			v57.5h-83.45v-44.1c0.76-0.6,1.55-1.21,2.31-1.83c3.53,2.56,7.86,4.08,12.26,4.32c1.62,0.08,3.3-0.02,4.66-0.83
			c1.6-0.95,2.45-2.78,2.52-4.56c0.05-1.8-0.59-3.54-1.51-5.11c-3.2-5.49-9.3-8.77-15.23-11.48c0.17-3.41-0.85-6.85-2.85-9.68
			c-0.82,0.77-1.51,1.6-2.16,2.5v-47.34h83.45v47.36c-2.09-0.91-4.26-1.6-6.48-2.06C422.93,431.52,420.74,431.13,419.74,432.21z"/>
		<rect x="246.41" y="504.59" class="st3" width="281.63" height="41.58"/>
		<path class="st4" d="M455.76,343.17c-23.61-41.77-68.53-42.88-68.53-42.88c-40.85,6.9-57.58,30.64-64.15,45.51"/>
		<path class="st4" d="M516.03,342.01c-25.96,12.72-46.57-7.09-46.57-7.09c-4.71,4.03-9.32,6.65-13.7,8.25
			c-20.98,7.68-36.99-8.25-36.99-8.25c-34.51,23.29-55.87,0-55.87,0s-18.57,15.8-39.81,10.88c-6.35-1.46-12.92-4.77-19.3-10.88
			c0,0-25.38,17.38-46.87,7.22c15.44-17.45,51.48-42.75,130.31-41.85C387.23,300.29,474.48,298.69,516.03,342.01z"/>
		<path class="st4" d="M528.04,357.86h-0.19c0.05,0.08,0.09,0.18,0.14,0.27l-0.02,0.08l-5.15,28.28H253.37l-6.87-28.28l-0.09-0.35
			v-23.52c3.29,3.56,6.83,6.09,10.5,7.8c21.49,10.16,46.87-7.22,46.87-7.22c6.38,6.1,12.95,9.41,19.3,10.88
			c21.24,4.92,39.81-10.88,39.81-10.88s21.37,23.29,55.87,0c0,0,16.01,15.94,36.99,8.25c4.38-1.6,8.99-4.23,13.7-8.25
			c0,0,20.62,19.81,46.57,7.09c3.89-1.91,7.91-4.56,12.01-8.12V357.86z"/>
		<ellipse class="st4" cx="389.83" cy="292.51" rx="7.82" ry="7.49"/>
		<rect x="325.51" y="387.32" class="st4" width="6.95" height="66.54"/>
		<rect x="469.8" y="387.32" class="st4" width="6.95" height="53.23"/>
		<g>
			<path class="st4" d="M514.08,444.16c-0.05,1.78-0.92,3.61-2.5,4.56c-1.36,0.83-3.06,0.93-4.66,0.83
				c-4.42-0.23-8.74-1.76-12.26-4.31c-2.68,2.11-5.35,4.22-8.03,6.34c-0.4,0.32-0.8,0.65-0.99,1.1c-0.21,0.47-0.14,1-0.07,1.51
				c0.82,6.4,0.92,12.91,0.3,19.33c-0.23,2.15-0.94,4.74-3.11,5.21c-1.74,0.38-3.46-0.98-4.09-2.58c-0.61-1.6-0.42-3.36-0.28-5.06
				c0.16-1.71,0.23-3.51-0.61-5.01c-1.08-1.95-3.36-2.93-5.53-3.64c-5.58-1.85-11.49-2.78-17.4-2.76c-2.49,0-5.02,0.18-7.34,1.06
				c-2.31,0.88-4.4,2.53-5.27,4.76c-0.97,2.45-0.35,5.19-0.59,7.82c-0.24,2.61-2.05,5.59-4.8,5.42c-2.05-0.12-3.56-2.05-3.88-3.99
				c-0.3-1.95,0.3-3.89,0.85-5.79c1.08-3.79,1.96-7.72,1.44-11.61c-0.49-3.69-2.28-7.24-4.59-10.26c-0.28-0.38-0.57-0.75-0.89-1.11
				c-2.82-3.33-6.43-5.94-9.16-9.33c-0.87-1.1-2.1-3.14-0.9-4.42c1.01-1.08,3.2-0.7,4.47-0.43c2.23,0.47,4.4,1.15,6.48,2.06
				c0.92,0.4,1.83,0.83,2.71,1.31c2.92,1.56,5.06,3.71,7.67,5.62c0.3,0.2,0.57,0.35,0.83,0.42c0.9,0.28,1.77-0.07,2.82-0.3
				c0.7-0.17,1.41-0.32,2.1-0.43c3.29,4.09,1.25,10.71,1.25,10.71l20.98-0.86c0.8-4.61-1.7-8.73-2.33-9.66
				c1.36,0.17,2.71,0.3,4.07,0.35c1.91,0.07,3.86-0.03,5.72-0.45h0.24v-0.07c1.43-0.32,2.78-0.85,4.02-1.6
				c7.35-4.51,7.47-15.15,13.73-20.99c2,2.83,3.01,6.29,2.83,9.7c5.93,2.71,12.05,5.97,15.25,11.46
				C513.49,440.61,514.15,442.36,514.08,444.16z"/>
			<path class="st4" d="M466.73,440.65c0.63,0.93,3.13,5.06,2.33,9.66l-20.98,0.86c0,0,2.03-6.62-1.25-10.71
				c1.03-0.2,2.07-0.35,3.09-0.47c3.51-0.42,7.06-0.47,10.57-0.13C462.57,440.07,464.64,440.38,466.73,440.65z"/>
			<path class="st4" d="M476.76,440.48v0.07h-0.24C476.6,440.53,476.69,440.51,476.76,440.48z"/>
			<path class="st4" d="M446.82,440.46c-0.02,0-0.02-0.02-0.02-0.02"/>
			<path class="st4" d="M466.73,440.65c-0.07-0.13-0.12-0.2-0.12-0.2"/>
		</g>
		<g>
			<path class="st4" d="M368.99,457.6c-0.07,1.78-0.92,3.61-2.52,4.56c-1.36,0.82-3.04,0.91-4.66,0.83
				c-4.4-0.25-8.73-1.76-12.26-4.32c-0.76,0.62-1.55,1.23-2.31,1.83c-1.91,1.51-3.81,3.03-5.72,4.52c-0.4,0.32-0.8,0.63-0.99,1.08
				c-0.21,0.48-0.14,1.01-0.07,1.53c0.83,6.4,0.92,12.91,0.3,19.33c-0.21,2.15-0.92,4.74-3.11,5.21c-1.74,0.38-3.46-0.98-4.07-2.58
				c-0.63-1.6-0.43-3.38-0.28-5.07c0.14-1.7,0.21-3.49-0.63-5.01c-1.06-1.93-3.36-2.93-5.51-3.64c-5.6-1.83-11.51-2.78-17.42-2.76
				c-2.49,0.02-5.01,0.2-7.32,1.08c-2.31,0.86-4.4,2.51-5.28,4.74c-0.96,2.46-0.35,5.21-0.57,7.82c-0.24,2.63-2.05,5.59-4.8,5.44
				c-2.05-0.12-3.58-2.05-3.88-3.99c-0.31-1.95,0.3-3.91,0.83-5.81c1.1-3.78,1.98-7.7,1.46-11.59c-0.57-4.16-2.75-8.13-5.49-11.38
				c-2.8-3.33-6.43-5.94-9.14-9.33c-0.89-1.1-2.1-3.14-0.92-4.44c1.01-1.08,3.2-0.7,4.47-0.43c3.23,0.68,6.35,1.83,9.21,3.38
				c2.9,1.58,5.06,3.73,7.67,5.64c0.28,0.2,0.56,0.33,0.83,0.42c0.9,0.28,1.76-0.07,2.8-0.3c0.7-0.17,1.41-0.32,2.1-0.43
				c3.3,4.09,1.25,10.71,1.25,10.71l20.98-0.86c0.8-4.64-1.74-8.8-2.33-9.68c1.36,0.18,2.71,0.32,4.07,0.37
				c2.1,0.08,4.24-0.07,6.26-0.58h0.52v-0.13c1.13-0.33,2.21-0.78,3.2-1.4c6.41-3.93,7.34-12.49,11.58-18.5
				c0.64-0.9,1.34-1.73,2.16-2.5c2,2.83,3.02,6.27,2.85,9.68c5.93,2.71,12.03,5.99,15.23,11.48
				C368.4,454.05,369.04,455.8,368.99,457.6z"/>
			<path class="st4" d="M321.62,454.07c0.59,0.88,3.13,5.04,2.33,9.68l-20.98,0.86c0,0,2.05-6.62-1.25-10.71
				c1.03-0.2,2.07-0.35,3.11-0.48c3.49-0.42,7.06-0.45,10.57-0.12C317.48,453.49,319.55,453.82,321.62,454.07z"/>
			<path class="st4" d="M332.47,453.72v0.13h-0.52C332.12,453.82,332.29,453.77,332.47,453.72z"/>
			<line class="st4" x1="301.71" y1="453.9" x2="301.71" y2="453.89"/>
			<path class="st4" d="M321.62,454.07c-0.07-0.12-0.12-0.18-0.12-0.18"/>
		</g>
	</g>
	<path class="st5" d="M525.39,314.88c-15.09,8.88-37.43-1.11-37.43-1.11s2.12-24.38,17.21-33.26s37.43,1.11,37.43,1.11
		S540.48,306,525.39,314.88z"/>
	<path class="st5" d="M490.77,269.52c6.15,12.45-2.06,29.07-2.06,29.07s-18.19-3.57-24.35-16.02c-6.15-12.45,2.06-29.07,2.06-29.07
		S484.62,257.07,490.77,269.52z"/>
</g>
</svg>
