<?xml version="1.0" encoding="utf-8"?>
<!-- Generator: Adobe Illustrator 27.4.0, SVG Export Plug-In . SVG Version: 6.00 Build 0)  -->
<svg version="1.1" id="레이어_1" xmlns="http://www.w3.org/2000/svg" xmlns:xlink="http://www.w3.org/1999/xlink" x="0px"
	 y="0px" viewBox="0 0 762.52 822.05" style="enable-background:new 0 0 762.52 822.05;" xml:space="preserve">
<style type="text/css">
	.st0{fill:none;stroke:#463C33;stroke-width:3;stroke-miterlimit:10;}
	.st1{fill:none;stroke:#463C33;stroke-width:3;stroke-linecap:round;stroke-linejoin:round;stroke-dasharray:3.001,6.0021;}
	.st2{fill:#463C33;}
	.st3{fill:none;stroke:#463C33;stroke-width:4;stroke-miterlimit:10;}
	.st4{fill:none;stroke:#463C33;stroke-width:4;stroke-linecap:round;stroke-linejoin:round;stroke-miterlimit:10;}
	.st5{fill:#ABB868;}
</style>
<g>
	<g>
		<circle class="st0" cx="381.26" cy="411.02" r="320.74"/>
		<circle class="st0" cx="381.26" cy="411.02" r="251.06"/>
		<circle class="st0" cx="381.26" cy="411.02" r="225.84"/>
		<g>
			<circle class="st1" cx="381.26" cy="411.02" r="237.85"/>
		</g>
	</g>
	<g>
		<path class="st2" d="M350.66,117.83c4.61-0.5,8.76,0.73,12.44,3.71c3.68,2.98,5.79,6.86,6.31,11.67
			c0.52,4.76-0.68,8.96-3.59,12.61c-2.91,3.65-6.71,5.73-11.38,6.24c-4.89,0.53-9.14-0.71-12.75-3.74
			c-3.61-3.03-5.66-6.87-6.17-11.52c-0.34-3.12,0.1-6.06,1.32-8.84c1.22-2.78,3.07-5.08,5.54-6.89
			C344.85,119.24,347.61,118.16,350.66,117.83z M351.25,123.91c-3.02,0.33-5.44,1.66-7.26,3.98c-1.83,2.32-2.56,5.1-2.21,8.33
			c0.39,3.6,2,6.31,4.81,8.13c2.19,1.42,4.59,1.99,7.19,1.7c2.94-0.32,5.33-1.66,7.17-4.01c1.84-2.35,2.59-5.09,2.25-8.2
			c-0.34-3.1-1.67-5.61-3.99-7.54C356.89,124.38,354.24,123.58,351.25,123.91z"/>
		<path class="st2" d="M376.76,116.72l7.39,0.15c4.76,0.1,8.29,0.76,10.58,1.98c2.29,1.23,4.16,3.19,5.61,5.88
			c1.45,2.69,2.13,5.81,2.06,9.36c-0.05,2.53-0.52,4.84-1.4,6.94s-2.07,3.83-3.58,5.2c-1.5,1.37-3.12,2.3-4.86,2.8
			s-4.72,0.71-8.97,0.62l-7.5-0.15L376.76,116.72z M382.83,122.86l-0.41,20.68l2.9,0.06c2.85,0.06,4.93-0.23,6.23-0.86
			c1.3-0.63,2.37-1.71,3.22-3.24s1.29-3.43,1.34-5.69c0.07-3.48-0.85-6.2-2.76-8.16c-1.72-1.76-4.52-2.68-8.39-2.76L382.83,122.86z"
			/>
		<path class="st2" d="M411.25,118.13l17.76,2.19l-0.75,6.06l-11.61-1.43l-0.72,5.88l11.61,1.43l-0.73,5.95l-11.61-1.43l-1.05,8.56
			l11.61,1.43l-0.75,6.08l-17.76-2.19L411.25,118.13z"/>
		<path class="st2" d="M439.46,130.89l-5.71-1.24c0.58-2.8,2.04-4.9,4.38-6.31s5.1-1.76,8.28-1.07c2.05,0.45,3.71,1.2,4.98,2.27
			c1.27,1.07,2.19,2.41,2.74,4.02c0.55,1.61,0.66,3.2,0.32,4.77c-0.19,0.86-0.51,1.67-0.96,2.44c-0.46,0.77-1.08,1.52-1.86,2.26
			c-0.46,0.43-1.48,1.11-3.06,2.03c-1.51,0.87-2.48,1.51-2.9,1.91s-0.83,0.97-1.22,1.71c-0.39,0.74-0.76,1.8-1.12,3.18l-5.9-1.28
			l0.19-0.98c0.42-1.95,1.16-3.64,2.22-5.07c1.06-1.44,2.54-2.68,4.44-3.72c1.83-1.02,2.96-1.74,3.39-2.18
			c0.43-0.44,0.72-1,0.87-1.68c0.2-0.93-0.02-1.8-0.65-2.62c-0.64-0.81-1.61-1.36-2.92-1.65c-1.34-0.29-2.52-0.14-3.54,0.47
			C440.4,128.73,439.75,129.65,439.46,130.89z M439.94,148.72c1.06,0.23,1.88,0.79,2.47,1.68c0.59,0.89,0.77,1.85,0.55,2.88
			c-0.22,1.03-0.79,1.83-1.69,2.4c-0.9,0.57-1.87,0.74-2.92,0.52c-1.04-0.23-1.86-0.79-2.43-1.68c-0.57-0.89-0.75-1.85-0.52-2.89
			c0.22-1.03,0.78-1.83,1.66-2.4S438.91,148.49,439.94,148.72z"/>
		<path class="st2" d="M492.06,142.41l-5.75,2.22c-0.74-2.68-1.9-4.31-3.48-4.9c-0.77-0.28-1.47-0.31-2.11-0.08s-1.06,0.6-1.25,1.12
			s-0.2,1.07-0.02,1.66c0.25,0.79,1.19,2.63,2.83,5.54c1.54,2.69,2.46,4.37,2.76,5.03c0.74,1.64,1.16,3.09,1.25,4.37
			c0.09,1.28-0.1,2.56-0.58,3.86c-0.93,2.52-2.57,4.28-4.93,5.29s-4.93,0.98-7.73-0.05c-2.19-0.81-3.9-2.05-5.13-3.72
			s-2-3.87-2.31-6.6l6.02-1.15c0.48,3.26,1.68,5.25,3.6,5.96c1,0.37,1.96,0.39,2.86,0.06c0.9-0.33,1.49-0.88,1.78-1.65
			c0.26-0.7,0.26-1.49,0-2.38s-1-2.37-2.23-4.46c-2.34-3.97-3.73-6.88-4.16-8.72c-0.43-1.85-0.37-3.51,0.18-4.98
			c0.79-2.13,2.28-3.66,4.47-4.59s4.48-0.95,6.86-0.07c1.54,0.57,2.87,1.46,3.99,2.69C490.11,138.08,491.14,139.93,492.06,142.41z"
			/>
		<path class="st2" d="M501.68,141.68l16.17,7.66l-2.61,5.52l-10.58-5.01l-2.54,5.36l10.57,5.01l-2.57,5.42l-10.58-5.01l-3.69,7.8
			l10.58,5.01l-2.62,5.54l-16.17-7.66L501.68,141.68z"/>
		<path class="st2" d="M539.24,160.73c3.94,2.46,6.43,5.99,7.49,10.61c1.05,4.62,0.3,8.97-2.25,13.07
			c-2.53,4.06-6.07,6.62-10.62,7.69c-4.55,1.07-8.82,0.36-12.8-2.13c-4.18-2.6-6.75-6.21-7.71-10.82c-0.96-4.61-0.2-8.9,2.27-12.87
			c1.66-2.66,3.83-4.71,6.51-6.13c2.68-1.43,5.55-2.09,8.62-1.99C533.81,158.25,536.64,159.11,539.24,160.73z M535.95,165.88
			c-2.57-1.61-5.3-2.06-8.17-1.37s-5.17,2.42-6.89,5.19c-1.92,3.08-2.33,6.2-1.24,9.37c0.84,2.47,2.38,4.4,4.6,5.78
			c2.51,1.57,5.22,1.99,8.12,1.28c2.9-0.71,5.18-2.4,6.84-5.06c1.65-2.65,2.16-5.44,1.52-8.39
			C540.09,169.74,538.5,167.47,535.95,165.88z"/>
		<path class="st2" d="M560.16,175.84l4.86,3.95l-13.38,16.45c-1.15,1.42-1.84,2.52-2.07,3.31c-0.23,0.79-0.2,1.59,0.08,2.41
			c0.29,0.82,0.83,1.55,1.64,2.21c0.85,0.69,1.75,1.1,2.68,1.21c0.93,0.11,1.77-0.04,2.5-0.45c0.73-0.41,1.79-1.47,3.17-3.18
			l12.88-15.85l4.86,3.95l-12.33,15.17c-2.08,2.56-3.67,4.22-4.76,4.98s-2.42,1.27-3.99,1.53c-1.56,0.26-3.06,0.18-4.48-0.24
			c-1.42-0.42-2.84-1.2-4.24-2.34c-1.84-1.5-3.11-3.23-3.78-5.19c-0.68-1.96-0.79-3.81-0.34-5.57c0.45-1.75,1.9-4.14,4.37-7.18
			L560.16,175.84z"/>
		<path class="st2" d="M584.34,196.34l4.46,4.36l-18.75,19.2l6.51,6.35l-4.16,4.26l-10.97-10.71L584.34,196.34z"/>
		<path class="st2" d="M619.75,234.75c2.78,3.71,3.82,7.91,3.13,12.6s-2.97,8.47-6.83,11.37c-3.83,2.87-8.06,3.97-12.69,3.32
			c-4.63-0.65-8.35-2.86-11.16-6.62c-2.95-3.94-4.04-8.23-3.26-12.88c0.77-4.65,3.04-8.37,6.78-11.17c2.51-1.88,5.27-3,8.29-3.36
			c3.01-0.36,5.93,0.06,8.75,1.26C615.58,230.47,617.91,232.3,619.75,234.75z M614.82,238.36c-1.82-2.43-4.19-3.84-7.12-4.23
			c-2.93-0.39-5.7,0.39-8.3,2.34c-2.9,2.17-4.42,4.93-4.55,8.28c-0.11,2.61,0.62,4.96,2.19,7.06c1.77,2.37,4.14,3.75,7.1,4.13
			s5.7-0.36,8.21-2.24c2.5-1.87,3.99-4.29,4.46-7.27S616.62,240.76,614.82,238.36z"/>
		<path class="st2" d="M634,256.69l3.62,6.44c2.34,4.15,3.56,7.53,3.66,10.13s-0.63,5.2-2.22,7.81c-1.58,2.61-3.92,4.79-7.02,6.53
			c-2.2,1.24-4.43,2.01-6.69,2.32s-4.36,0.16-6.3-0.44s-3.57-1.52-4.88-2.76c-1.31-1.24-3.01-3.71-5.09-7.41l-3.68-6.54L634,256.69z
			 M631.79,265.04l-18.03,10.14l1.42,2.53c1.4,2.49,2.7,4.13,3.9,4.93c1.2,0.8,2.68,1.18,4.42,1.13c1.75-0.05,3.61-0.62,5.58-1.73
			c3.03-1.71,4.91-3.88,5.63-6.51c0.64-2.37,0.02-5.25-1.88-8.63L631.79,265.04z"/>
		<path class="st2" d="M650.29,287.18l7.11,16.43l-5.6,2.43l-4.65-10.74l-5.44,2.35l4.65,10.74l-5.5,2.38l-4.65-10.74l-7.92,3.43
			l4.65,10.74l-5.62,2.43l-7.11-16.43L650.29,287.18z"/>
		<path class="st2" d="M638.43,327.38c0.34,1.03,0.27,2.03-0.2,2.98s-1.2,1.6-2.21,1.93c-1,0.33-1.98,0.25-2.93-0.24
			c-0.95-0.49-1.59-1.24-1.92-2.26c-0.33-1.02-0.26-2,0.22-2.94c0.48-0.95,1.22-1.58,2.22-1.91c1-0.33,1.97-0.26,2.91,0.22
			S638.11,326.38,638.43,327.38z M653.57,317.95l-1.82-5.55c2.71-0.92,5.26-0.72,7.66,0.59c2.39,1.31,4.1,3.51,5.11,6.61
			c0.65,1.99,0.84,3.81,0.56,5.44c-0.28,1.64-0.97,3.1-2.08,4.4c-1.11,1.29-2.43,2.19-3.95,2.69c-0.83,0.27-1.7,0.41-2.59,0.4
			c-0.89,0-1.86-0.16-2.89-0.46c-0.61-0.18-1.7-0.72-3.3-1.62c-1.52-0.86-2.56-1.38-3.12-1.54c-0.56-0.16-1.26-0.22-2.09-0.18
			c-0.83,0.04-1.93,0.25-3.31,0.64l-1.88-5.74l0.95-0.33c1.89-0.62,3.72-0.84,5.5-0.65c1.77,0.19,3.59,0.83,5.46,1.94
			c1.8,1.07,3,1.67,3.6,1.82c0.6,0.15,1.23,0.11,1.89-0.1c0.9-0.3,1.55-0.92,1.93-1.89c0.38-0.96,0.36-2.08-0.05-3.35
			c-0.43-1.3-1.16-2.24-2.2-2.82C655.91,317.67,654.78,317.57,653.57,317.95z"/>
		<path class="st2" d="M670.25,369.17l-4.83-3.83c1.94-1.99,2.76-3.82,2.46-5.48c-0.14-0.81-0.48-1.43-1-1.86
			c-0.52-0.44-1.06-0.6-1.6-0.51s-1.02,0.37-1.44,0.82c-0.55,0.61-1.67,2.36-3.34,5.25c-1.54,2.69-2.52,4.34-2.95,4.93
			c-1.04,1.47-2.08,2.57-3.14,3.29c-1.06,0.73-2.26,1.21-3.62,1.45c-2.65,0.47-5-0.05-7.05-1.57c-2.05-1.52-3.34-3.75-3.87-6.7
			c-0.41-2.3-0.21-4.4,0.62-6.31s2.33-3.68,4.53-5.33l4.04,4.61c-2.58,2.06-3.68,4.1-3.32,6.13c0.19,1.05,0.65,1.89,1.4,2.49
			c0.74,0.61,1.52,0.84,2.32,0.7c0.73-0.13,1.41-0.53,2.05-1.21c0.63-0.67,1.54-2.07,2.72-4.18c2.24-4.03,4.05-6.7,5.42-8
			c1.38-1.3,2.84-2.09,4.39-2.37c2.24-0.4,4.31,0.11,6.22,1.53c1.91,1.42,3.08,3.38,3.53,5.89c0.29,1.61,0.19,3.21-0.3,4.8
			S671.92,367.12,670.25,369.17z"/>
		<path class="st2" d="M675.75,377.07l1.59,17.83l-6.08,0.54l-1.04-11.66l-5.91,0.53l1.04,11.66l-5.97,0.53l-1.04-11.66l-8.59,0.76
			l1.04,11.66l-6.11,0.54l-1.59-17.83L675.75,377.07z"/>
		<path class="st2" d="M678.37,419.05c-0.11,4.64-1.89,8.58-5.33,11.84s-7.57,4.82-12.4,4.7c-4.78-0.12-8.79-1.87-12.02-5.24
			s-4.79-7.41-4.67-12.11c0.12-4.92,1.92-8.97,5.41-12.14c3.48-3.17,7.56-4.7,12.24-4.58c3.13,0.08,6,0.91,8.59,2.49
			c2.59,1.58,4.62,3.72,6.1,6.41S678.45,415.99,678.37,419.05z M672.27,418.84c0.08-3.03-0.92-5.61-2.97-7.73
			c-2.06-2.12-4.71-3.22-7.97-3.3c-3.62-0.09-6.52,1.14-8.7,3.69c-1.7,1.98-2.58,4.28-2.65,6.9c-0.07,2.96,0.93,5.51,3.02,7.64
			c2.09,2.14,4.7,3.24,7.83,3.32c3.12,0.08,5.79-0.91,8-2.95C671.05,424.36,672.2,421.84,672.27,418.84z"/>
		<path class="st2" d="M676,444.75l-0.93,6.19l-20.97-3.15c-1.81-0.27-3.11-0.31-3.9-0.1c-0.8,0.2-1.47,0.63-2.03,1.29
			c-0.56,0.66-0.91,1.5-1.07,2.53c-0.16,1.09-0.05,2.06,0.33,2.92s0.93,1.5,1.66,1.92s2.17,0.79,4.35,1.12l20.2,3.04l-0.93,6.19
			l-19.33-2.91c-3.26-0.49-5.5-1.01-6.71-1.57c-1.21-0.56-2.32-1.44-3.34-2.65c-1.02-1.21-1.71-2.54-2.07-3.97
			c-0.36-1.44-0.41-3.05-0.14-4.84c0.35-2.35,1.2-4.32,2.54-5.89c1.34-1.58,2.88-2.62,4.62-3.13c1.74-0.51,4.54-0.47,8.4,0.11
			L676,444.75z"/>
		<path class="st2" d="M670.63,476.02l-1.49,6.06l-26.06-6.41l-2.17,8.83l-5.78-1.42l3.66-14.89L670.63,476.02z"/>
		<path class="st2" d="M655.47,526.02c-1.8,4.28-4.89,7.3-9.28,9.08c-4.39,1.78-8.81,1.73-13.26-0.14
			c-4.41-1.85-7.51-4.94-9.29-9.26c-1.78-4.32-1.76-8.65,0.06-12.98c1.91-4.54,5.06-7.65,9.46-9.33s8.76-1.62,13.07,0.19
			c2.89,1.21,5.25,3.03,7.09,5.45s2.95,5.15,3.34,8.19C657.06,520.27,656.66,523.2,655.47,526.02z M649.87,523.59
			c1.18-2.8,1.19-5.56,0.05-8.28c-1.14-2.72-3.22-4.72-6.22-5.98c-3.34-1.41-6.49-1.32-9.44,0.27c-2.3,1.23-3.96,3.04-4.98,5.46
			c-1.15,2.73-1.14,5.47,0.03,8.22c1.17,2.75,3.19,4.73,6.08,5.95c2.88,1.21,5.72,1.27,8.52,0.17S648.71,526.36,649.87,523.59z"/>
		<path class="st2" d="M643.73,549.47l-3.73,6.38c-2.4,4.12-4.7,6.87-6.89,8.28c-2.19,1.4-4.81,2.08-7.86,2.04
			c-3.05-0.05-6.11-0.97-9.18-2.76c-2.18-1.27-3.97-2.81-5.38-4.6c-1.4-1.79-2.34-3.68-2.8-5.66s-0.49-3.85-0.08-5.61
			c0.41-1.76,1.68-4.47,3.82-8.13l3.79-6.48L643.73,549.47z M635.41,551.78l-17.86-10.43l-1.46,2.5c-1.44,2.46-2.2,4.42-2.28,5.86
			c-0.08,1.44,0.34,2.9,1.26,4.39s2.36,2.8,4.31,3.94c3,1.76,5.83,2.28,8.47,1.56c2.37-0.64,4.54-2.64,6.5-5.99L635.41,551.78z"/>
		<path class="st2" d="M625.68,578.9l-10.57,14.44l-4.93-3.61l6.91-9.44l-4.78-3.5l-6.91,9.44l-4.84-3.54l6.91-9.44l-6.96-5.09
			l-6.91,9.44l-4.95-3.62l10.57-14.44L625.68,578.9z"/>
		<path class="st2" d="M585.01,589.02c-0.72,0.81-1.61,1.26-2.67,1.34c-1.06,0.08-1.99-0.23-2.78-0.92
			c-0.79-0.7-1.22-1.58-1.28-2.64s0.26-2,0.97-2.8c0.71-0.8,1.59-1.24,2.65-1.3c1.06-0.07,1.98,0.25,2.78,0.95
			c0.79,0.7,1.22,1.57,1.29,2.62C586.03,587.31,585.71,588.23,585.01,589.02z M600.82,597.28l3.86-4.38
			c2.17,1.87,3.29,4.17,3.37,6.9c0.08,2.73-0.95,5.31-3.1,7.75c-1.39,1.57-2.85,2.65-4.41,3.25c-1.55,0.59-3.17,0.74-4.84,0.44
			c-1.68-0.3-3.12-0.98-4.32-2.04c-0.66-0.58-1.21-1.26-1.66-2.03c-0.45-0.77-0.81-1.68-1.07-2.73c-0.15-0.61-0.25-1.83-0.28-3.66
			c-0.03-1.75-0.11-2.9-0.26-3.47s-0.45-1.2-0.9-1.89s-1.2-1.54-2.23-2.53l4-4.53l0.77,0.65c1.49,1.32,2.61,2.79,3.35,4.41
			c0.74,1.62,1.1,3.52,1.09,5.69c0,2.09,0.08,3.44,0.25,4.03s0.52,1.12,1.05,1.58c0.71,0.63,1.58,0.86,2.6,0.71s1.98-0.74,2.86-1.74
			c0.91-1.03,1.34-2.13,1.32-3.32C602.24,599.16,601.76,598.13,600.82,597.28z"/>
		<path class="st2" d="M565.17,637.64l0.85-6.11c2.7,0.65,4.69,0.43,5.97-0.66c0.62-0.53,0.99-1.14,1.1-1.81
			c0.11-0.67-0.02-1.22-0.37-1.63s-0.84-0.69-1.44-0.82c-0.81-0.17-2.88-0.24-6.22-0.21c-3.1,0.04-5.02,0.03-5.74-0.03
			c-1.79-0.14-3.27-0.49-4.43-1.03s-2.19-1.33-3.09-2.38c-1.75-2.04-2.5-4.33-2.23-6.87c0.27-2.54,1.53-4.79,3.8-6.74
			c1.77-1.52,3.69-2.41,5.75-2.68c2.06-0.26,4.36,0.13,6.89,1.19l-1.92,5.82c-3.08-1.17-5.41-1.08-6.96,0.25
			c-0.81,0.7-1.29,1.52-1.44,2.47s0.05,1.73,0.58,2.35c0.48,0.56,1.18,0.95,2.08,1.15c0.9,0.2,2.56,0.28,4.98,0.21
			c4.61-0.12,7.82,0.08,9.64,0.6c1.82,0.52,3.25,1.38,4.27,2.57c1.48,1.72,2.1,3.77,1.84,6.13c-0.25,2.36-1.35,4.38-3.27,6.03
			c-1.24,1.07-2.67,1.79-4.29,2.19C569.91,638.04,567.79,638.04,565.17,637.64z"/>
		<path class="st2" d="M561.17,646.4l-14.54,10.43l-3.56-4.96l9.51-6.82l-3.46-4.82l-9.51,6.82l-3.5-4.87l9.51-6.82l-5.03-7.01
			l-9.51,6.82l-3.57-4.98l14.54-10.43L561.17,646.4z"/>
		<path class="st2" d="M526.3,670.03c-4.05,2.25-8.36,2.72-12.91,1.41c-4.55-1.31-8-4.08-10.34-8.3c-2.32-4.18-2.85-8.52-1.58-13.02
			c1.27-4.5,3.96-7.89,8.06-10.17c4.3-2.39,8.7-2.89,13.2-1.5c4.5,1.39,7.89,4.13,10.16,8.22c1.52,2.74,2.26,5.63,2.21,8.66
			c-0.05,3.04-0.86,5.87-2.43,8.5C531.1,666.48,528.97,668.54,526.3,670.03z M523.39,664.65c2.65-1.47,4.37-3.64,5.15-6.48
			c0.78-2.85,0.38-5.7-1.2-8.54c-1.76-3.17-4.29-5.04-7.59-5.62c-2.57-0.46-5-0.05-7.29,1.22c-2.59,1.44-4.27,3.6-5.05,6.48
			s-0.41,5.69,1.11,8.43c1.52,2.73,3.72,4.53,6.6,5.4C518.01,666.41,520.76,666.11,523.39,664.65z"/>
		<path class="st2" d="M502.94,681l-5.81,2.33l-7.89-19.68c-0.68-1.7-1.31-2.83-1.89-3.42c-0.58-0.58-1.29-0.95-2.14-1.1
			s-1.76-0.03-2.72,0.36c-1.02,0.41-1.81,1-2.36,1.76s-0.82,1.57-0.81,2.4c0.01,0.84,0.42,2.28,1.24,4.31l7.6,18.95l-5.81,2.33
			l-7.28-18.14c-1.23-3.06-1.91-5.25-2.04-6.58c-0.13-1.32,0.07-2.73,0.6-4.23c0.53-1.49,1.32-2.76,2.38-3.8s2.42-1.9,4.11-2.57
			c2.21-0.89,4.33-1.15,6.37-0.79c2.04,0.36,3.72,1.16,5.03,2.4c1.31,1.24,2.7,3.68,4.15,7.3L502.94,681z"/>
		<path class="st2" d="M473.24,692.21l-5.98,1.78l-7.66-25.72l-8.71,2.6l-1.7-5.7l14.7-4.38L473.24,692.21z"/>
		<path class="st2" d="M422.42,704.44c-4.6,0.62-8.77-0.52-12.53-3.41c-3.75-2.89-5.95-6.72-6.59-11.51
			c-0.63-4.74,0.46-8.97,3.29-12.7s6.57-5.89,11.22-6.52c4.88-0.65,9.16,0.49,12.83,3.43c3.68,2.94,5.83,6.73,6.45,11.37
			c0.42,3.11,0.05,6.07-1.11,8.87c-1.15,2.81-2.95,5.15-5.37,7.03S425.46,704.03,422.42,704.44z M421.68,698.38
			c3.01-0.4,5.4-1.79,7.17-4.15s2.44-5.16,2.01-8.39c-0.48-3.59-2.15-6.26-5.01-8.01c-2.22-1.37-4.63-1.88-7.23-1.53
			c-2.93,0.39-5.29,1.79-7.07,4.18c-1.78,2.4-2.46,5.15-2.05,8.26c0.41,3.09,1.8,5.57,4.17,7.44
			C416.03,698.04,418.7,698.77,421.68,698.38z"/>
		<path class="st2" d="M396.62,706.02l-7.39,0.12c-4.76,0.08-8.31-0.46-10.65-1.6s-4.27-3.03-5.82-5.67
			c-1.54-2.64-2.34-5.73-2.4-9.28c-0.04-2.53,0.34-4.85,1.14-6.98c0.8-2.13,1.93-3.91,3.39-5.33c1.45-1.42,3.04-2.41,4.75-2.98
			c1.71-0.56,4.69-0.88,8.94-0.95l7.5-0.12L396.62,706.02z M390.33,700.11L390,679.42l-2.9,0.05c-2.85,0.05-4.92,0.41-6.19,1.08
			c-1.27,0.67-2.31,1.79-3.1,3.35c-0.79,1.56-1.17,3.47-1.13,5.73c0.06,3.48,1.07,6.16,3.05,8.05c1.78,1.7,4.61,2.51,8.49,2.45
			L390.33,700.11z"/>
		<path class="st2" d="M361.83,705.59l-17.81-1.76l0.6-6.08l11.65,1.15l0.58-5.9l-11.65-1.15l0.59-5.97l11.65,1.15l0.85-8.58
			l-11.65-1.15l0.6-6.1l17.81,1.76L361.83,705.59z"/>
		<path class="st2" d="M333.35,693.53l5.73,1.1c-0.51,2.82-1.92,4.95-4.23,6.41c-2.31,1.46-5.06,1.88-8.26,1.27
			c-2.06-0.39-3.74-1.11-5.03-2.15c-1.3-1.04-2.25-2.35-2.84-3.95c-0.59-1.6-0.74-3.18-0.44-4.76c0.17-0.86,0.47-1.68,0.9-2.46
			c0.44-0.78,1.04-1.55,1.81-2.31c0.45-0.44,1.45-1.14,3.01-2.1c1.49-0.91,2.44-1.57,2.85-1.98c0.41-0.41,0.8-0.99,1.17-1.74
			c0.37-0.75,0.72-1.81,1.05-3.2l5.93,1.14l-0.17,0.99c-0.38,1.96-1.07,3.66-2.1,5.12c-1.02,1.46-2.47,2.74-4.34,3.83
			c-1.81,1.06-2.92,1.81-3.34,2.26c-0.42,0.45-0.69,1.02-0.83,1.7c-0.18,0.93,0.06,1.8,0.72,2.6c0.66,0.8,1.64,1.33,2.95,1.58
			c1.34,0.26,2.52,0.07,3.53-0.55C332.46,695.71,333.09,694.77,333.35,693.53z M332.43,675.72c-1.06-0.21-1.9-0.74-2.52-1.62
			c-0.61-0.87-0.82-1.83-0.62-2.87c0.2-1.04,0.74-1.85,1.63-2.45s1.85-0.79,2.9-0.59c1.05,0.2,1.87,0.74,2.47,1.62
			c0.6,0.88,0.79,1.83,0.59,2.87c-0.2,1.04-0.73,1.85-1.6,2.44C334.42,675.72,333.47,675.91,332.43,675.72z"/>
		<path class="st2" d="M280.44,683.28l5.69-2.36c0.81,2.66,2,4.27,3.59,4.81c0.77,0.27,1.48,0.27,2.11,0.03
			c0.64-0.25,1.04-0.63,1.22-1.15c0.18-0.52,0.17-1.07-0.02-1.66c-0.27-0.78-1.26-2.6-2.97-5.47c-1.61-2.66-2.57-4.31-2.88-4.97
			c-0.78-1.62-1.24-3.07-1.36-4.34s0.04-2.57,0.49-3.87c0.87-2.54,2.47-4.35,4.8-5.4c2.33-1.06,4.9-1.1,7.73-0.14
			c2.21,0.76,3.95,1.96,5.22,3.6s2.09,3.83,2.47,6.54l-5.99,1.3c-0.56-3.25-1.8-5.21-3.75-5.88c-1.01-0.35-1.97-0.34-2.86,0.01
			s-1.47,0.92-1.73,1.69c-0.24,0.7-0.22,1.5,0.06,2.38c0.28,0.88,1.06,2.35,2.34,4.4c2.44,3.91,3.89,6.78,4.37,8.62
			c0.47,1.83,0.46,3.5-0.05,4.99c-0.74,2.15-2.19,3.72-4.35,4.7c-2.17,0.98-4.45,1.06-6.86,0.23c-1.55-0.53-2.9-1.39-4.06-2.59
			C282.5,687.56,281.43,685.74,280.44,683.28z"/>
		<path class="st2" d="M270.84,684.25l-16.36-7.27l2.48-5.58l10.69,4.75l2.41-5.42l-10.69-4.75l2.43-5.48l10.69,4.75l3.5-7.88
			l-10.69-4.75l2.49-5.6l16.36,7.27L270.84,684.25z"/>
		<path class="st2" d="M232.84,666.11c-3.99-2.36-6.57-5.83-7.74-10.42c-1.17-4.59-0.52-8.96,1.94-13.12
			c2.43-4.12,5.91-6.77,10.43-7.95c4.52-1.18,8.8-0.57,12.85,1.82c4.24,2.5,6.89,6.05,7.97,10.63s0.42,8.89-1.96,12.92
			c-1.59,2.7-3.71,4.8-6.36,6.29s-5.5,2.23-8.57,2.2S235.48,667.67,232.84,666.11z M236,660.89c2.61,1.54,5.35,1.93,8.2,1.17
			c2.85-0.77,5.11-2.55,6.76-5.35c1.84-3.12,2.18-6.25,1.01-9.39c-0.9-2.45-2.48-4.34-4.74-5.67c-2.55-1.5-5.26-1.87-8.15-1.08
			c-2.88,0.78-5.12,2.52-6.71,5.22c-1.59,2.69-2.03,5.49-1.32,8.42C231.77,657.13,233.42,659.36,236,660.89z"/>
		<path class="st2" d="M211.56,651.51l-4.95-3.83l12.98-16.77c1.12-1.44,1.78-2.56,1.99-3.36c0.21-0.79,0.16-1.6-0.14-2.4
			c-0.3-0.81-0.87-1.53-1.69-2.17c-0.87-0.67-1.77-1.05-2.71-1.14c-0.94-0.09-1.77,0.08-2.48,0.51c-0.72,0.43-1.75,1.51-3.09,3.25
			l-12.5,16.15l-4.95-3.83l11.96-15.46c2.02-2.61,3.57-4.3,4.64-5.09c1.08-0.78,2.39-1.32,3.95-1.62c1.56-0.3,3.05-0.26,4.48,0.13
			s2.86,1.13,4.3,2.24c1.88,1.46,3.18,3.15,3.91,5.09s0.88,3.79,0.48,5.56c-0.41,1.76-1.8,4.19-4.2,7.28L211.56,651.51z"/>
		<path class="st2" d="M186.9,631.61l-4.57-4.25l18.28-19.65l-6.66-6.2l4.05-4.36l11.23,10.45L186.9,631.61z"/>
		<path class="st2" d="M150.58,594.08c-2.87-3.65-4.01-7.82-3.44-12.52c0.58-4.7,2.76-8.54,6.56-11.53
			c3.76-2.96,7.96-4.17,12.6-3.63s8.41,2.66,11.32,6.35c3.04,3.87,4.23,8.13,3.57,12.8s-2.83,8.44-6.51,11.34
			c-2.46,1.94-5.2,3.12-8.2,3.56c-3,0.43-5.93,0.08-8.78-1.05S152.48,596.49,150.58,594.08z M155.42,590.35
			c1.88,2.38,4.28,3.74,7.22,4.06c2.94,0.32,5.68-0.52,8.24-2.54c2.85-2.24,4.3-5.04,4.35-8.39c0.05-2.61-0.74-4.94-2.36-7
			c-1.83-2.33-4.23-3.65-7.2-3.96c-2.97-0.31-5.69,0.5-8.15,2.44c-2.45,1.93-3.88,4.39-4.28,7.37
			C152.84,585.32,153.57,587.99,155.42,590.35z"/>
		<path class="st2" d="M135.78,572.45L132,566.1c-2.44-4.1-3.74-7.44-3.9-10.04c-0.17-2.59,0.51-5.22,2.03-7.86
			c1.52-2.65,3.81-4.88,6.86-6.69c2.17-1.29,4.38-2.12,6.63-2.48c2.25-0.36,4.35-0.26,6.31,0.29c1.96,0.56,3.6,1.44,4.94,2.64
			s3.09,3.63,5.26,7.28l3.84,6.45L135.78,572.45z M137.79,564.05l17.78-10.57l-1.48-2.49c-1.46-2.45-2.8-4.06-4.02-4.83
			c-1.22-0.77-2.7-1.11-4.45-1.02c-1.75,0.09-3.59,0.71-5.54,1.87c-2.99,1.78-4.81,4-5.47,6.65c-0.59,2.39,0.11,5.25,2.09,8.58
			L137.79,564.05z"/>
		<path class="st2" d="M118.76,542.39l-7.51-16.25l5.54-2.56l4.91,10.62l5.38-2.49l-4.91-10.62l5.44-2.52l4.91,10.62l7.83-3.62
			l-4.91-10.62l5.56-2.57l7.51,16.25L118.76,542.39z"/>
		<path class="st2" d="M114.74,511.71l1.95,5.5c-2.69,0.99-5.24,0.85-7.67-0.4c-2.43-1.25-4.18-3.41-5.27-6.48
			c-0.7-1.97-0.93-3.78-0.7-5.43c0.24-1.64,0.89-3.13,1.97-4.45c1.08-1.32,2.37-2.25,3.88-2.79c0.83-0.29,1.69-0.45,2.58-0.46
			c0.89-0.02,1.86,0.11,2.9,0.39c0.61,0.16,1.72,0.67,3.34,1.54c1.54,0.83,2.59,1.31,3.15,1.46c0.56,0.15,1.26,0.19,2.09,0.13
			c0.83-0.06,1.93-0.3,3.29-0.72l2.02,5.69l-0.94,0.36c-1.88,0.67-3.7,0.93-5.48,0.79c-1.78-0.14-3.61-0.75-5.5-1.81
			c-1.83-1.02-3.04-1.6-3.64-1.74c-0.6-0.13-1.23-0.08-1.89,0.15c-0.9,0.32-1.52,0.96-1.88,1.93c-0.36,0.97-0.31,2.09,0.13,3.35
			c0.46,1.29,1.21,2.21,2.26,2.77C112.41,512.05,113.54,512.12,114.74,511.71z M129.64,501.91c-0.36-1.02-0.32-2.02,0.12-2.99
			c0.44-0.97,1.16-1.63,2.16-1.98c0.99-0.35,1.97-0.3,2.93,0.17c0.96,0.46,1.62,1.2,1.98,2.21c0.36,1.01,0.31,1.99-0.15,2.95
			s-1.18,1.61-2.18,1.97c-0.99,0.35-1.97,0.3-2.91-0.15C130.64,503.63,129.99,502.91,129.64,501.91z"/>
		<path class="st2" d="M96.81,460.9l4.92,3.71c-1.89,2.04-2.67,3.89-2.33,5.53c0.16,0.8,0.51,1.42,1.05,1.84
			c0.53,0.42,1.07,0.58,1.61,0.47c0.54-0.11,1.01-0.4,1.42-0.86c0.54-0.63,1.61-2.4,3.21-5.33c1.48-2.73,2.42-4.4,2.83-5
			c1-1.5,2.02-2.62,3.06-3.37c1.04-0.75,2.23-1.26,3.59-1.54c2.64-0.54,5-0.07,7.09,1.4s3.43,3.67,4.03,6.6
			c0.47,2.29,0.31,4.4-0.46,6.32s-2.24,3.74-4.4,5.44l-4.15-4.51c2.52-2.12,3.58-4.19,3.17-6.21c-0.21-1.05-0.7-1.87-1.46-2.46
			c-0.76-0.59-1.54-0.8-2.34-0.64c-0.73,0.15-1.4,0.57-2.02,1.25c-0.62,0.69-1.49,2.1-2.61,4.25c-2.14,4.08-3.88,6.79-5.22,8.13
			c-1.34,1.34-2.79,2.16-4.33,2.48c-2.23,0.45-4.31-0.01-6.25-1.38s-3.16-3.31-3.67-5.8c-0.33-1.6-0.27-3.21,0.18-4.81
			C94.16,464.84,95.19,462.99,96.81,460.9z"/>
		<path class="st2" d="M91.12,453.15l-2.02-17.78l6.07-0.69l1.32,11.63l5.89-0.67l-1.32-11.63l5.96-0.68l1.32,11.63l8.57-0.97
			l-1.32-11.63l6.09-0.69l2.02,17.78L91.12,453.15z"/>
		<path class="st2" d="M87.5,410.73c0.08-4.64,1.82-8.6,5.23-11.88c3.41-3.28,7.53-4.89,12.36-4.81c4.78,0.08,8.81,1.79,12.07,5.14
			c3.26,3.35,4.85,7.37,4.78,12.07c-0.08,4.92-1.85,8.98-5.3,12.18c-3.45,3.2-7.52,4.76-12.2,4.69c-3.13-0.05-6-0.86-8.61-2.42
			c-2.6-1.56-4.65-3.68-6.15-6.36C88.17,416.66,87.45,413.79,87.5,410.73z M93.6,410.89c-0.05,3.03,0.96,5.6,3.04,7.7
			s4.74,3.18,8,3.23c3.62,0.06,6.51-1.2,8.67-3.76c1.68-2,2.54-4.3,2.59-6.92c0.05-2.96-0.98-5.5-3.09-7.61
			c-2.11-2.12-4.73-3.2-7.86-3.25c-3.12-0.05-5.78,0.96-7.97,3.02C94.77,405.36,93.65,407.89,93.6,410.89z"/>
		<path class="st2" d="M89.25,385.51l0.78-6.21l21.04,2.64c1.81,0.23,3.11,0.23,3.9,0.01s1.46-0.67,2-1.34
			c0.54-0.67,0.88-1.53,1.01-2.56c0.14-1.09,0.01-2.06-0.4-2.91c-0.4-0.85-0.97-1.48-1.71-1.88c-0.74-0.4-2.19-0.74-4.37-1.01
			l-20.26-2.55l0.78-6.21l19.4,2.44c3.27,0.41,5.52,0.88,6.74,1.41c1.22,0.53,2.36,1.39,3.41,2.57c1.05,1.19,1.77,2.5,2.17,3.92
			c0.4,1.43,0.48,3.04,0.26,4.84c-0.3,2.36-1.1,4.34-2.4,5.95c-1.3,1.61-2.82,2.69-4.54,3.24c-1.72,0.55-4.52,0.58-8.4,0.09
			L89.25,385.51z"/>
		<path class="st2" d="M93.85,354.1l1.34-6.1l26.21,5.77l1.96-8.88l5.81,1.28l-3.3,14.98L93.85,354.1z"/>
		<path class="st2" d="M107.79,303.74c1.69-4.32,4.71-7.42,9.06-9.3c4.34-1.88,8.77-1.94,13.26-0.18c4.46,1.75,7.62,4.76,9.51,9.03
			c1.88,4.28,1.97,8.6,0.25,12.98c-1.8,4.58-4.87,7.77-9.23,9.56c-4.36,1.79-8.71,1.83-13.07,0.12c-2.92-1.14-5.33-2.9-7.22-5.27
			c-1.9-2.37-3.07-5.07-3.54-8.11C106.35,309.53,106.68,306.59,107.79,303.74z M113.46,306.03c-1.11,2.83-1.06,5.59,0.15,8.28
			c1.21,2.69,3.33,4.64,6.36,5.82c3.38,1.32,6.52,1.16,9.44-0.5c2.27-1.28,3.89-3.14,4.84-5.58c1.08-2.76,1-5.49-0.23-8.21
			s-3.31-4.65-6.23-5.8c-2.91-1.14-5.75-1.13-8.53,0.04C116.49,301.25,114.55,303.23,113.46,306.03z"/>
		<path class="st2" d="M118.96,280.02l3.57-6.47c2.3-4.17,4.53-6.99,6.69-8.44c2.15-1.46,4.76-2.2,7.81-2.23s6.13,0.82,9.24,2.53
			c2.21,1.22,4.04,2.71,5.49,4.47c1.45,1.76,2.43,3.62,2.94,5.59c0.51,1.97,0.58,3.84,0.22,5.6c-0.36,1.77-1.57,4.51-3.62,8.22
			l-3.63,6.57L118.96,280.02z M127.22,277.51l18.11,10l1.4-2.54c1.38-2.5,2.09-4.47,2.14-5.91c0.05-1.44-0.41-2.89-1.37-4.36
			c-0.96-1.46-2.43-2.74-4.41-3.83c-3.05-1.68-5.88-2.14-8.5-1.36c-2.36,0.7-4.47,2.75-6.35,6.14L127.22,277.51z"/>
		<path class="st2" d="M136.29,250.16l10.22-14.69l5.01,3.49l-6.68,9.61l4.87,3.39l6.68-9.61l4.92,3.42l-6.68,9.61l7.08,4.92
			l6.68-9.61l5.03,3.5l-10.22,14.69L136.29,250.16z"/>
		<path class="st2" d="M160.71,231.17l-3.76,4.47c-2.21-1.82-3.39-4.09-3.54-6.82c-0.15-2.73,0.82-5.33,2.92-7.83
			c1.35-1.6,2.79-2.72,4.33-3.35c1.54-0.63,3.15-0.81,4.83-0.55c1.68,0.26,3.14,0.91,4.37,1.94c0.67,0.56,1.24,1.23,1.71,1.99
			c0.47,0.76,0.85,1.66,1.14,2.7c0.17,0.61,0.29,1.83,0.36,3.65c0.07,1.75,0.18,2.9,0.34,3.46c0.16,0.56,0.47,1.19,0.95,1.87
			c0.47,0.69,1.23,1.51,2.29,2.47l-3.89,4.62l-0.78-0.63c-1.52-1.28-2.68-2.72-3.45-4.33s-1.19-3.49-1.23-5.66
			c-0.04-2.09-0.16-3.43-0.35-4.02c-0.19-0.58-0.55-1.1-1.08-1.55c-0.73-0.61-1.6-0.83-2.62-0.64c-1.02,0.18-1.96,0.79-2.82,1.81
			c-0.88,1.05-1.29,2.16-1.24,3.35C159.24,229.33,159.75,230.34,160.71,231.17z M176.71,239.05c0.7-0.83,1.58-1.3,2.64-1.41
			c1.06-0.11,2,0.18,2.8,0.86c0.81,0.68,1.26,1.55,1.34,2.61c0.09,1.06-0.21,2-0.9,2.82c-0.69,0.82-1.56,1.27-2.62,1.37
			c-1.06,0.09-1.99-0.2-2.8-0.88s-1.26-1.54-1.35-2.59C175.74,240.78,176.03,239.86,176.71,239.05z"/>
		<path class="st2" d="M195.38,189.96l-0.7,6.12c-2.72-0.59-4.7-0.32-5.95,0.81c-0.61,0.55-0.96,1.16-1.05,1.83
			c-0.09,0.67,0.04,1.22,0.41,1.62c0.37,0.41,0.85,0.67,1.46,0.78c0.81,0.15,2.89,0.17,6.22,0.06c3.1-0.12,5.02-0.15,5.74-0.11
			c1.8,0.1,3.28,0.41,4.45,0.92s2.22,1.28,3.15,2.31c1.8,2,2.6,4.27,2.39,6.82s-1.42,4.82-3.64,6.83c-1.73,1.56-3.63,2.5-5.68,2.81
			s-4.36-0.03-6.92-1.02l1.77-5.86c3.11,1.09,5.43,0.95,6.96-0.42c0.8-0.72,1.25-1.55,1.38-2.5c0.12-0.95-0.09-1.73-0.64-2.34
			c-0.5-0.55-1.2-0.92-2.11-1.1s-2.57-0.21-4.99-0.09c-4.6,0.23-7.82,0.11-9.66-0.37c-1.83-0.48-3.28-1.3-4.33-2.47
			c-1.52-1.69-2.19-3.72-1.99-6.09c0.2-2.37,1.24-4.41,3.13-6.11c1.21-1.1,2.63-1.86,4.23-2.29
			C190.64,189.67,192.75,189.63,195.38,189.96z"/>
		<path class="st2" d="M199.15,181.12l14.29-10.78l3.68,4.88l-9.34,7.05l3.57,4.73l9.34-7.05l3.61,4.79l-9.34,7.05l5.2,6.88
			l9.34-7.05l3.69,4.89l-14.29,10.78L199.15,181.12z"/>
		<path class="st2" d="M233.44,156.66c4-2.35,8.29-2.93,12.87-1.72c4.58,1.2,8.09,3.89,10.54,8.05c2.43,4.12,3.06,8.45,1.9,12.98
			c-1.16,4.53-3.76,7.98-7.81,10.36c-4.24,2.49-8.63,3.1-13.16,1.82c-4.53-1.28-7.98-3.94-10.36-7.98c-1.59-2.7-2.4-5.57-2.42-8.61
			s0.72-5.89,2.22-8.56S230.8,158.22,233.44,156.66z M236.48,161.96c-2.62,1.54-4.28,3.74-4.99,6.61c-0.71,2.87-0.24,5.7,1.41,8.51
			c1.84,3.13,4.41,4.94,7.73,5.44c2.58,0.4,5-0.07,7.25-1.4c2.55-1.5,4.18-3.7,4.89-6.6c0.71-2.9,0.27-5.7-1.32-8.4
			c-1.58-2.69-3.82-4.44-6.73-5.24C241.82,160.08,239.07,160.44,236.48,161.96z"/>
		<path class="st2" d="M256.54,145.11l5.75-2.47l8.37,19.48c0.72,1.68,1.38,2.8,1.97,3.37c0.59,0.57,1.32,0.92,2.17,1.04
			s1.76-0.02,2.72-0.43c1.01-0.43,1.78-1.04,2.31-1.82c0.53-0.78,0.78-1.58,0.75-2.42c-0.03-0.84-0.48-2.26-1.34-4.28l-8.06-18.76
			l5.75-2.47l7.72,17.96c1.3,3.03,2.04,5.21,2.2,6.53c0.16,1.32,0,2.73-0.5,4.24c-0.49,1.51-1.25,2.79-2.28,3.86
			s-2.38,1.96-4.04,2.67c-2.18,0.94-4.3,1.25-6.35,0.95c-2.05-0.31-3.75-1.07-5.09-2.28c-1.34-1.21-2.79-3.61-4.33-7.2
			L256.54,145.11z"/>
		<path class="st2" d="M285.95,133.19l5.94-1.93l8.28,25.53l8.65-2.81l1.84,5.66l-14.59,4.73L285.95,133.19z"/>
	</g>
	<path class="st3" d="M419.74,432.21c-1.2,1.28,0.03,3.33,0.9,4.42c2.73,3.39,6.35,6.01,9.16,9.33c0.31,0.37,0.61,0.73,0.89,1.11
		v57.5h-83.45v-44.1c0.76-0.6,1.55-1.21,2.31-1.83c3.53,2.56,7.86,4.08,12.26,4.32c1.62,0.08,3.3-0.02,4.66-0.83
		c1.6-0.95,2.45-2.78,2.52-4.56c0.05-1.8-0.59-3.54-1.51-5.11c-3.2-5.49-9.3-8.77-15.23-11.48c0.17-3.41-0.85-6.85-2.85-9.68
		c-0.82,0.77-1.51,1.6-2.16,2.5v-47.34h83.45v47.36c-2.09-0.91-4.26-1.6-6.48-2.06C422.93,431.52,420.74,431.13,419.74,432.21z"/>
	<rect x="246.41" y="504.59" class="st3" width="281.63" height="41.58"/>
	<path class="st4" d="M455.76,343.17c-23.61-41.77-68.53-42.88-68.53-42.88c-40.85,6.9-57.58,30.64-64.15,45.51"/>
	<path class="st4" d="M528.04,357.86h-0.19c0.05,0.08,0.09,0.18,0.14,0.27l-0.02,0.08l-5.15,28.28H253.37l-6.87-28.28l-0.09-0.35
		v-23.52c3.29,3.56,6.83,6.09,10.5,7.8c21.49,10.16,46.87-7.22,46.87-7.22c6.38,6.1,12.95,9.41,19.3,10.88
		c21.24,4.92,39.81-10.88,39.81-10.88s21.37,23.29,55.87,0c0,0,16.01,15.94,36.99,8.25c4.38-1.6,8.99-4.23,13.7-8.25
		c0,0,20.62,19.81,46.57,7.09c3.89-1.91,7.91-4.56,12.01-8.12V357.86z"/>
	<ellipse class="st4" cx="389.83" cy="292.51" rx="7.82" ry="7.49"/>
	<rect x="325.51" y="387.32" class="st4" width="6.95" height="66.54"/>
	<rect x="469.8" y="387.32" class="st4" width="6.95" height="53.23"/>
	<g>
		<path class="st4" d="M514.08,444.16c-0.05,1.78-0.92,3.61-2.5,4.56c-1.36,0.83-3.06,0.93-4.66,0.83
			c-4.42-0.23-8.74-1.76-12.26-4.31c-2.68,2.11-5.35,4.22-8.03,6.34c-0.4,0.32-0.8,0.65-0.99,1.1c-0.21,0.47-0.14,1-0.07,1.51
			c0.82,6.4,0.92,12.91,0.3,19.33c-0.23,2.15-0.94,4.74-3.11,5.21c-1.74,0.38-3.46-0.98-4.09-2.58c-0.61-1.6-0.42-3.36-0.28-5.06
			c0.16-1.71,0.23-3.51-0.61-5.01c-1.08-1.95-3.36-2.93-5.53-3.64c-5.58-1.85-11.49-2.78-17.4-2.76c-2.49,0-5.02,0.18-7.34,1.06
			c-2.31,0.88-4.4,2.53-5.27,4.76c-0.97,2.45-0.35,5.19-0.59,7.82c-0.24,2.61-2.05,5.59-4.8,5.42c-2.05-0.12-3.56-2.05-3.88-3.99
			c-0.3-1.95,0.3-3.89,0.85-5.79c1.08-3.79,1.96-7.72,1.44-11.61c-0.49-3.69-2.28-7.24-4.59-10.26c-0.28-0.38-0.57-0.75-0.89-1.11
			c-2.82-3.33-6.43-5.94-9.16-9.33c-0.87-1.1-2.1-3.14-0.9-4.42c1.01-1.08,3.2-0.7,4.47-0.43c2.23,0.47,4.4,1.15,6.48,2.06
			c0.92,0.4,1.83,0.83,2.71,1.31c2.92,1.56,5.06,3.71,7.67,5.62c0.3,0.2,0.57,0.35,0.83,0.42c0.9,0.28,1.77-0.07,2.82-0.3
			c0.7-0.17,1.41-0.32,2.1-0.43c3.29,4.09,1.25,10.71,1.25,10.71l20.98-0.86c0.8-4.61-1.7-8.73-2.33-9.66
			c1.36,0.17,2.71,0.3,4.07,0.35c1.91,0.07,3.86-0.03,5.72-0.45h0.24v-0.07c1.43-0.32,2.78-0.85,4.02-1.6
			c7.35-4.51,7.47-15.15,13.73-20.99c2,2.83,3.01,6.29,2.83,9.7c5.93,2.71,12.05,5.97,15.25,11.46
			C513.49,440.61,514.15,442.36,514.08,444.16z"/>
		<path class="st4" d="M466.73,440.65c0.63,0.93,3.13,5.06,2.33,9.66l-20.98,0.86c0,0,2.03-6.62-1.25-10.71
			c1.03-0.2,2.07-0.35,3.09-0.47c3.51-0.42,7.06-0.47,10.57-0.13C462.57,440.07,464.64,440.38,466.73,440.65z"/>
		<path class="st4" d="M476.76,440.48v0.07h-0.24C476.6,440.53,476.69,440.51,476.76,440.48z"/>
		<path class="st4" d="M446.82,440.46c-0.02,0-0.02-0.02-0.02-0.02"/>
		<path class="st4" d="M466.73,440.65c-0.07-0.13-0.12-0.2-0.12-0.2"/>
	</g>
	<g>
		<path class="st4" d="M368.99,457.6c-0.07,1.78-0.92,3.61-2.52,4.56c-1.36,0.82-3.04,0.91-4.66,0.83
			c-4.4-0.25-8.73-1.76-12.26-4.32c-0.76,0.62-1.55,1.23-2.31,1.83c-1.91,1.51-3.81,3.03-5.72,4.52c-0.4,0.32-0.8,0.63-0.99,1.08
			c-0.21,0.48-0.14,1.01-0.07,1.53c0.83,6.4,0.92,12.91,0.3,19.33c-0.21,2.15-0.92,4.74-3.11,5.21c-1.74,0.38-3.46-0.98-4.07-2.58
			c-0.63-1.6-0.43-3.38-0.28-5.07c0.14-1.7,0.21-3.49-0.63-5.01c-1.06-1.93-3.36-2.93-5.51-3.64c-5.6-1.83-11.51-2.78-17.42-2.76
			c-2.49,0.02-5.01,0.2-7.32,1.08c-2.31,0.86-4.4,2.51-5.28,4.74c-0.96,2.46-0.35,5.21-0.57,7.82c-0.24,2.63-2.05,5.59-4.8,5.44
			c-2.05-0.12-3.58-2.05-3.88-3.99c-0.31-1.95,0.3-3.91,0.83-5.81c1.1-3.78,1.98-7.7,1.46-11.59c-0.57-4.16-2.75-8.13-5.49-11.38
			c-2.8-3.33-6.43-5.94-9.14-9.33c-0.89-1.1-2.1-3.14-0.92-4.44c1.01-1.08,3.2-0.7,4.47-0.43c3.23,0.68,6.35,1.83,9.21,3.38
			c2.9,1.58,5.06,3.73,7.67,5.64c0.28,0.2,0.56,0.33,0.83,0.42c0.9,0.28,1.76-0.07,2.8-0.3c0.7-0.17,1.41-0.32,2.1-0.43
			c3.3,4.09,1.25,10.71,1.25,10.71l20.98-0.86c0.8-4.64-1.74-8.8-2.33-9.68c1.36,0.18,2.71,0.32,4.07,0.37
			c2.1,0.08,4.24-0.07,6.26-0.58h0.52v-0.13c1.13-0.33,2.21-0.78,3.2-1.4c6.41-3.93,7.34-12.49,11.58-18.5
			c0.64-0.9,1.34-1.73,2.16-2.5c2,2.83,3.02,6.27,2.85,9.68c5.93,2.71,12.03,5.99,15.23,11.48
			C368.4,454.05,369.04,455.8,368.99,457.6z"/>
		<path class="st4" d="M321.62,454.07c0.59,0.88,3.13,5.04,2.33,9.68l-20.98,0.86c0,0,2.05-6.62-1.25-10.71
			c1.03-0.2,2.07-0.35,3.11-0.48c3.49-0.42,7.06-0.45,10.57-0.12C317.48,453.49,319.55,453.82,321.62,454.07z"/>
		<path class="st4" d="M332.47,453.72v0.13h-0.52C332.12,453.82,332.29,453.77,332.47,453.72z"/>
		<line class="st4" x1="301.71" y1="453.9" x2="301.71" y2="453.89"/>
		<path class="st4" d="M321.62,454.07c-0.07-0.12-0.12-0.18-0.12-0.18"/>
	</g>
	<path class="st5" d="M525.39,314.88c-15.09,8.88-37.43-1.11-37.43-1.11s2.12-24.38,17.21-33.26s37.43,1.11,37.43,1.11
		S540.48,306,525.39,314.88z"/>
	<path class="st5" d="M490.77,269.52c6.15,12.45-2.06,29.07-2.06,29.07s-18.19-3.57-24.35-16.02c-6.15-12.45,2.06-29.07,2.06-29.07
		S484.62,257.07,490.77,269.52z"/>
	<path class="st4" d="M256.91,342.14c0,0,27.54-40.56,130.31-41.85c0,0,81.83-4.27,128.8,41.72c0,0-20.12,13.84-46.57-7.09
		c0,0-22.93,22.92-50.69,0c0,0-27.99,23.92-55.87,0c0,0-31.33,26.92-59.11,0C303.78,334.92,278.83,352.28,256.91,342.14z"/>
</g>
</svg>
